<?xml version="1.0" encoding="utf-8" standalone="no"?>
<!DOCTYPE svg PUBLIC "-//W3C//DTD SVG 1.1//EN"
  "http://www.w3.org/Graphics/SVG/1.1/DTD/svg11.dtd">
<svg xmlns:xlink="http://www.w3.org/1999/xlink" width="720pt" height="720pt" viewBox="0 0 720 720" xmlns="http://www.w3.org/2000/svg" version="1.1">
 <metadata>
  <rdf:RDF xmlns:dc="http://purl.org/dc/elements/1.1/" xmlns:cc="http://creativecommons.org/ns#" xmlns:rdf="http://www.w3.org/1999/02/22-rdf-syntax-ns#">
   <cc:Work>
    <dc:type rdf:resource="http://purl.org/dc/dcmitype/StillImage"/>
    <dc:date>2024-10-24T16:56:29.508799</dc:date>
    <dc:format>image/svg+xml</dc:format>
    <dc:creator>
     <cc:Agent>
      <dc:title>Matplotlib v3.8.2, https://matplotlib.org/</dc:title>
     </cc:Agent>
    </dc:creator>
   </cc:Work>
  </rdf:RDF>
 </metadata>
 <defs>
  <style type="text/css">*{stroke-linejoin: round; stroke-linecap: butt}</style>
 </defs>
 <g id="figure_1">
  <g id="patch_1">
   <path d="M 0 720 
L 720 720 
L 720 0 
L 0 0 
L 0 720 
z
" style="fill: none"/>
  </g>
  <g id="axes_1">
   <g id="patch_2">
    <path d="M 590.76 363.6 
C 590.76 335.150715 585.285421 306.965414 574.635504 280.584718 
C 563.985588 254.204022 548.357979 230.117511 528.606889 209.641763 
C 508.855798 189.166015 485.347772 172.681024 459.36777 161.087867 
C 433.387767 149.494711 405.417931 143.008537 376.987104 141.983882 
C 348.556277 140.959227 320.192086 145.415108 293.44493 155.107964 
C 266.697773 164.80082 242.064032 179.550769 220.890196 198.551572 
C 199.716361 217.552375 182.39538 240.45141 169.874026 265.997007 
C 157.352673 291.542604 149.863321 319.260681 147.815341 347.636157 
C 145.767362 376.011632 149.198762 404.517907 157.92198 431.596816 
C 166.645198 458.675724 180.498345 483.82473 198.724205 505.669177 
C 216.950064 527.513625 239.210394 545.648119 264.288437 559.081422 
C 289.36648 572.514724 316.796829 580.997535 345.080133 584.066182 
C 373.363436 587.134829 401.974803 584.732363 429.350326 576.990102 
C 456.725848 569.247842 482.357484 556.309471 504.844197 538.882206 
C 527.33091 521.454941 546.255386 499.862201 560.583206 475.284256 
C 574.911025 450.70631 584.376288 423.599282 588.461621 395.444852 
L 544.569297 389.075882 
C 541.301031 411.599425 533.72882 433.285048 522.266564 452.947404 
C 510.804309 472.609761 495.664728 489.883953 477.675358 503.825765 
C 459.685987 517.767577 439.180679 528.118274 417.280261 534.312082 
C 395.379843 540.50589 372.490749 542.427863 349.864106 539.972946 
C 327.237464 537.518028 305.293184 530.731779 285.23075 519.985137 
C 265.168315 509.238495 247.360051 494.7309 232.779364 477.255342 
C 218.198676 459.779784 207.116158 439.660579 200.137584 417.997452 
C 193.159009 396.334325 190.413889 373.529306 192.052273 350.828925 
C 193.690657 328.128545 199.682138 305.954083 209.699221 285.517606 
C 219.716304 265.081128 233.573089 246.7619 250.512157 231.561257 
C 267.451226 216.360615 287.158219 204.560656 308.555944 196.806371 
C 329.953669 189.052087 352.645022 185.487382 375.389683 186.307106 
C 398.134345 187.126829 420.510213 192.315769 441.294216 201.590294 
C 462.078218 210.864819 480.884639 224.052812 496.685511 240.43341 
C 512.486383 256.814009 524.98847 276.083218 533.508403 297.187775 
C 542.028336 318.292331 546.408 340.840572 546.408 363.6 
z
" style="opacity: 0.1"/>
   </g>
   <g id="patch_3">
    <path d="M 588.461621 395.444852 
C 589.226504 390.173592 589.801223 384.876484 590.184659 379.563838 
C 590.568096 374.251192 590.76 368.926455 590.76 363.59999 
L 546.408 363.599992 
C 546.408 367.861164 546.254476 372.120953 545.947727 376.37107 
C 545.640978 380.621187 545.181203 384.858873 544.569297 389.075882 
z
"/>
   </g>
   <g id="patch_4">
    <path d="M 546.408 363.6 
C 546.408 335.604535 539.781359 308.002592 527.071684 283.05845 
C 514.362008 258.114309 495.926608 236.52923 473.277801 220.073909 
C 450.628993 203.618589 424.40351 192.755639 396.752716 188.376185 
C 369.101921 183.996731 340.803169 186.223893 314.1779 194.87497 
C 287.552632 203.526046 263.349369 218.357827 243.553588 238.153612 
C 223.757807 257.949397 208.926031 282.152662 200.274959 308.777932 
C 191.623888 335.403202 189.396731 363.701955 193.776191 391.352749 
C 198.15565 419.003542 209.018604 445.229023 225.473929 467.877828 
L 369 363.6 
z
" style="fill: #d62728"/>
   </g>
   <g id="patch_5">
    <path d="M 225.473929 467.877828 
C 247.491822 498.182849 278.552245 520.74956 314.17794 532.325043 
C 349.803635 543.900527 388.196425 543.90052 423.822115 532.325025 
L 369 363.6 
z
" style="fill: #98df8a"/>
   </g>
   <g id="patch_6">
    <path d="M 423.822115 532.325025 
C 441.52721 526.572288 458.216979 518.068422 473.277831 507.126069 
C 488.338683 496.183716 501.583758 482.938636 512.526105 467.877781 
L 369 363.6 
z
" style="fill: #dbdb8d"/>
   </g>
   <g id="patch_7">
    <path d="M 512.526105 467.877781 
C 523.468453 452.816925 531.972314 436.127152 537.725044 418.422056 
C 543.477775 400.71696 546.408003 382.216206 546.408 363.599967 
L 369 363.6 
z
" style="fill: #9edae5"/>
   </g>
   <g id="matplotlib.axis_1"/>
   <g id="matplotlib.axis_2"/>
  </g>
 </g>
</svg>
