<?xml version="1.0" encoding="utf-8" standalone="no"?>
<!DOCTYPE svg PUBLIC "-//W3C//DTD SVG 1.1//EN"
  "http://www.w3.org/Graphics/SVG/1.1/DTD/svg11.dtd">
<svg xmlns:xlink="http://www.w3.org/1999/xlink" width="720pt" height="720pt" viewBox="0 0 720 720" xmlns="http://www.w3.org/2000/svg" version="1.1">
 <metadata>
  <rdf:RDF xmlns:dc="http://purl.org/dc/elements/1.1/" xmlns:cc="http://creativecommons.org/ns#" xmlns:rdf="http://www.w3.org/1999/02/22-rdf-syntax-ns#">
   <cc:Work>
    <dc:type rdf:resource="http://purl.org/dc/dcmitype/StillImage"/>
    <dc:date>2024-10-24T16:56:29.545609</dc:date>
    <dc:format>image/svg+xml</dc:format>
    <dc:creator>
     <cc:Agent>
      <dc:title>Matplotlib v3.8.2, https://matplotlib.org/</dc:title>
     </cc:Agent>
    </dc:creator>
   </cc:Work>
  </rdf:RDF>
 </metadata>
 <defs>
  <style type="text/css">*{stroke-linejoin: round; stroke-linecap: butt}</style>
 </defs>
 <g id="figure_1">
  <g id="patch_1">
   <path d="M 0 720 
L 720 720 
L 720 0 
L 0 0 
L 0 720 
z
" style="fill: none"/>
  </g>
  <g id="axes_1">
   <g id="patch_2">
    <path d="M 590.76 363.6 
C 590.76 334.992808 585.224479 306.654027 574.459324 280.149633 
C 563.694169 253.645239 547.901393 229.472596 527.953689 208.96746 
C 508.005985 188.462325 484.277679 172.009484 458.079976 160.518106 
C 431.882272 149.026728 403.706779 142.712453 375.110448 141.924201 
C 346.514118 141.135949 318.03357 145.888512 291.242613 155.919268 
C 264.451656 165.950025 239.853031 181.070744 218.806036 200.445868 
C 197.759041 219.820993 180.658629 243.086942 168.449754 268.958062 
C 156.240879 294.829181 149.152644 322.81999 147.576739 351.383743 
C 146.000833 379.947496 149.966829 408.548184 159.25557 435.60536 
C 168.544311 462.662535 182.98149 487.668461 201.769322 509.241334 
C 220.557155 530.814206 243.34308 548.549202 268.867969 561.466303 
C 294.392858 574.383404 322.177728 582.240216 350.687212 584.602578 
C 379.196696 586.96494 407.895805 583.788522 435.198652 575.248851 
C 462.5015 566.709179 487.895738 552.966503 509.978105 534.780231 
C 532.060473 516.593958 550.416586 494.305361 564.032104 469.146085 
C 577.647621 443.98681 586.267043 416.428979 589.414068 387.995413 
L 545.331254 383.11633 
C 542.813634 405.863183 535.918097 427.909448 525.025683 448.036868 
C 514.133269 468.164289 499.448378 485.995167 481.782484 500.544185 
C 464.11659 515.093203 443.8012 526.087343 421.958922 532.919081 
C 400.116644 539.750818 377.157357 542.291952 354.34977 540.402062 
C 331.542182 538.512172 309.314286 532.226723 288.894375 521.893042 
C 268.474464 511.559362 250.245724 497.371365 235.215458 480.113067 
C 220.185192 462.854769 208.635449 442.850028 201.204456 421.204288 
C 193.773464 399.558547 190.600667 376.677997 191.861391 353.826995 
C 193.122115 330.975992 198.792703 308.583345 208.559803 287.886449 
C 218.326903 267.189554 232.007233 248.576794 248.844829 233.076695 
C 265.682425 217.576595 285.361325 205.48002 306.79409 197.455415 
C 328.226856 189.43081 351.011294 185.628759 373.888359 186.259361 
C 396.765423 186.889962 419.305817 191.941383 440.26398 201.134485 
C 461.222144 210.327588 480.204788 223.48986 496.162951 239.893968 
C 512.121114 256.298076 524.755336 275.636191 533.367459 296.839706 
C 541.979583 318.043222 546.408 340.714246 546.408 363.6 
z
" style="opacity: 0.1"/>
   </g>
   <g id="patch_3">
    <path d="M 589.414068 387.995413 
C 589.862286 383.945734 590.198812 379.884472 590.423262 375.816251 
C 590.647711 371.748031 590.76 367.674397 590.76 363.59999 
L 546.408 363.599992 
C 546.408 366.859518 546.318169 370.118425 546.138609 373.373001 
C 545.959049 376.627578 545.689829 379.876587 545.331254 383.11633 
z
"/>
   </g>
   <g id="patch_4">
    <path d="M 546.408 363.6 
C 546.408 323.417809 532.756345 284.403622 507.703159 252.98792 
C 482.649972 221.572218 447.651731 199.581367 408.476992 190.639988 
C 369.302252 181.69861 328.228453 186.326517 292.02555 203.760917 
C 255.822648 221.195317 226.595311 250.422654 209.160913 286.625558 
L 369 363.6 
z
" style="fill: #d62728"/>
   </g>
   <g id="patch_5">
    <path d="M 209.160913 286.625558 
C 197.597461 310.637315 191.592 336.948961 191.592 363.6 
C 191.592 390.251039 197.597461 416.562685 209.160913 440.574442 
C 220.724365 464.586199 237.551293 485.686501 258.387914 502.303154 
C 279.224534 518.919806 303.540151 530.629592 329.522992 536.560008 
L 369 363.6 
z
" style="fill: #dbdb8d"/>
   </g>
   <g id="patch_6">
    <path d="M 329.522992 536.560008 
C 355.505834 542.490424 382.494133 542.490427 408.476975 536.560015 
C 434.459818 530.629604 458.775436 518.919823 479.61206 502.303174 
C 500.448684 485.686526 517.275616 464.586227 528.839073 440.574472 
C 540.402529 416.562717 546.407995 390.251072 546.408 363.600033 
L 369 363.6 
z
" style="fill: #8c564b"/>
   </g>
   <g id="matplotlib.axis_1"/>
   <g id="matplotlib.axis_2"/>
  </g>
 </g>
</svg>
