<?xml version="1.0" encoding="utf-8" standalone="no"?>
<!DOCTYPE svg PUBLIC "-//W3C//DTD SVG 1.1//EN"
  "http://www.w3.org/Graphics/SVG/1.1/DTD/svg11.dtd">
<svg xmlns:xlink="http://www.w3.org/1999/xlink" width="720pt" height="720pt" viewBox="0 0 720 720" xmlns="http://www.w3.org/2000/svg" version="1.1">
 <metadata>
  <rdf:RDF xmlns:dc="http://purl.org/dc/elements/1.1/" xmlns:cc="http://creativecommons.org/ns#" xmlns:rdf="http://www.w3.org/1999/02/22-rdf-syntax-ns#">
   <cc:Work>
    <dc:type rdf:resource="http://purl.org/dc/dcmitype/StillImage"/>
    <dc:date>2024-10-24T16:56:29.802036</dc:date>
    <dc:format>image/svg+xml</dc:format>
    <dc:creator>
     <cc:Agent>
      <dc:title>Matplotlib v3.8.2, https://matplotlib.org/</dc:title>
     </cc:Agent>
    </dc:creator>
   </cc:Work>
  </rdf:RDF>
 </metadata>
 <defs>
  <style type="text/css">*{stroke-linejoin: round; stroke-linecap: butt}</style>
 </defs>
 <g id="figure_1">
  <g id="patch_1">
   <path d="M 0 720 
L 720 720 
L 720 0 
L 0 0 
L 0 720 
z
" style="fill: none"/>
  </g>
  <g id="axes_1">
   <g id="patch_2">
    <path d="M 590.76 363.6 
C 590.76 339.931387 586.970746 316.414679 579.536306 293.943979 
C 572.101866 271.473279 561.117668 250.337021 547.00133 231.338804 
C 532.884992 212.340587 515.817712 195.724271 496.448385 182.121608 
C 477.079059 168.518945 455.656311 158.104539 432.994632 151.274343 
C 410.332954 144.444147 386.723229 141.285835 363.0631 141.919485 
C 339.40297 142.553135 315.996136 146.970613 293.732523 155.003968 
C 271.46891 163.037323 250.634294 174.583439 232.020805 189.203332 
C 213.407316 203.823225 197.253877 221.329236 184.174641 241.055787 
C 171.095404 260.782338 161.258254 282.47622 155.037199 305.312632 
C 148.816144 328.149044 146.291037 351.834859 147.557882 375.469545 
C 148.824728 399.10423 153.867265 422.384411 162.493776 444.424977 
C 171.120287 466.465543 183.220043 486.983582 198.333011 505.198999 
C 213.44598 523.414417 231.378172 539.093399 251.447806 551.639834 
C 271.51744 564.186269 293.466904 573.43911 316.461679 579.046565 
C 339.456455 584.65402 363.201382 586.544112 386.79368 584.644979 
C 410.385979 582.745846 433.522818 577.081865 455.324537 567.868382 
L 438.05963 527.014706 
C 420.618254 534.385492 402.108783 538.916676 383.234944 540.435983 
C 364.361105 541.955289 345.365164 540.443216 326.969343 535.957252 
C 308.573523 531.471288 291.013952 524.069015 274.958245 514.031868 
C 258.902537 503.99472 244.556784 491.451533 232.466409 476.879199 
C 220.376034 462.306866 210.696229 445.892435 203.795021 428.259982 
C 196.893812 410.627529 192.859782 392.003384 191.846306 373.095636 
C 190.832829 354.187887 192.852915 335.239235 197.829759 316.970105 
C 202.806603 298.700976 210.676323 281.34587 221.139712 265.56463 
C 231.603102 249.783389 244.525853 235.77858 259.416644 224.082666 
C 274.307435 212.386751 290.975128 203.149859 308.786018 196.723175 
C 326.596909 190.296491 345.322376 186.762508 364.25048 186.255588 
C 383.178584 185.748668 402.066363 188.275318 420.195706 193.739474 
C 438.325049 199.203631 455.463247 207.535156 470.958708 218.417287 
C 486.45417 229.299417 500.107994 242.592469 511.401064 257.791043 
C 522.694135 272.989617 531.481493 289.898623 537.429045 307.875183 
C 543.376597 325.851743 546.408 344.665109 546.408 363.6 
z
" style="opacity: 0.1"/>
   </g>
   <g id="patch_3">
    <path d="M 455.324537 567.868382 
C 495.471923 550.901955 529.740233 522.470221 553.825359 486.144213 
C 577.910486 449.818204 590.76 407.185229 590.76 363.6 
L 546.408 363.6 
C 546.408 398.468183 536.128389 432.574563 516.860288 461.63537 
C 497.592187 490.696177 470.177538 513.441564 438.05963 527.014706 
z
"/>
   </g>
   <g id="patch_4">
    <path d="M 546.408 363.6 
C 546.408 327.068674 535.124367 291.413915 514.107214 261.53387 
C 493.090061 231.653826 463.348 208.982436 428.966906 196.634229 
L 369 363.6 
z
" style="fill: #d62728"/>
   </g>
   <g id="patch_5">
    <path d="M 428.966906 196.634229 
C 407.579214 188.952692 384.913421 185.451745 362.204795 186.322185 
C 339.496169 187.192625 317.164877 192.418349 296.427956 201.714556 
L 369 363.6 
z
" style="fill: #dbdb8d"/>
   </g>
   <g id="patch_6">
    <path d="M 296.427956 201.714556 
C 279.856529 209.143404 264.523605 219.072904 250.965903 231.155481 
C 237.408201 243.238059 225.785782 257.331067 216.50548 272.94119 
L 369 363.6 
z
" style="fill: #ff7f0e"/>
   </g>
   <g id="patch_7">
    <path d="M 216.50548 272.94119 
C 211.872109 280.734848 207.843023 288.872252 204.453649 297.281852 
C 201.064275 305.691451 198.324577 314.348526 196.258645 323.176954 
L 369 363.6 
z
" style="fill: #1f77b4"/>
   </g>
   <g id="patch_8">
    <path d="M 196.258645 323.176954 
C 194.192712 332.005382 192.806619 340.979212 192.112551 350.019538 
C 191.418484 359.059864 191.418483 368.140111 192.112549 377.180437 
L 369 363.6 
z
" style="fill: #2ca02c"/>
   </g>
   <g id="patch_9">
    <path d="M 192.112549 377.180437 
C 192.806615 386.220763 194.192708 395.194593 196.258639 404.023022 
C 198.32457 412.85145 201.064267 421.508525 204.45364 429.918125 
L 369 363.6 
z
" style="fill: #7f7f7f"/>
   </g>
   <g id="patch_10">
    <path d="M 204.45364 429.918125 
C 206.147705 434.121384 208.002203 438.258189 210.013054 442.319435 
C 212.023905 446.380681 214.189631 450.363387 216.505467 454.258788 
L 369 363.6 
z
" style="fill: #e377c2"/>
   </g>
   <g id="patch_11">
    <path d="M 216.505467 454.258788 
C 236.359904 487.655363 266.6459 513.622553 302.681844 528.146348 
C 338.717788 542.670143 378.545995 544.961524 416.009819 534.66629 
C 453.473642 524.371055 486.537825 502.048504 510.091304 471.149256 
C 533.644783 440.250008 546.407995 402.452694 546.408 363.600025 
L 369 363.6 
z
" style="fill: #9edae5"/>
   </g>
   <g id="matplotlib.axis_1"/>
   <g id="matplotlib.axis_2"/>
  </g>
 </g>
</svg>
