<?xml version="1.0" encoding="utf-8" standalone="no"?>
<!DOCTYPE svg PUBLIC "-//W3C//DTD SVG 1.1//EN"
  "http://www.w3.org/Graphics/SVG/1.1/DTD/svg11.dtd">
<svg xmlns:xlink="http://www.w3.org/1999/xlink" width="720pt" height="720pt" viewBox="0 0 720 720" xmlns="http://www.w3.org/2000/svg" version="1.1">
 <metadata>
  <rdf:RDF xmlns:dc="http://purl.org/dc/elements/1.1/" xmlns:cc="http://creativecommons.org/ns#" xmlns:rdf="http://www.w3.org/1999/02/22-rdf-syntax-ns#">
   <cc:Work>
    <dc:type rdf:resource="http://purl.org/dc/dcmitype/StillImage"/>
    <dc:date>2024-10-24T16:56:29.979778</dc:date>
    <dc:format>image/svg+xml</dc:format>
    <dc:creator>
     <cc:Agent>
      <dc:title>Matplotlib v3.8.2, https://matplotlib.org/</dc:title>
     </cc:Agent>
    </dc:creator>
   </cc:Work>
  </rdf:RDF>
 </metadata>
 <defs>
  <style type="text/css">*{stroke-linejoin: round; stroke-linecap: butt}</style>
 </defs>
 <g id="figure_1">
  <g id="patch_1">
   <path d="M 0 720 
L 720 720 
L 720 0 
L 0 0 
L 0 720 
z
" style="fill: none"/>
  </g>
  <g id="axes_1">
   <g id="patch_2">
    <path d="M 590.76 363.6 
C 590.76 339.680553 586.890006 315.917896 579.300253 293.234519 
C 571.710501 270.551141 560.500493 249.244419 546.10541 230.141499 
C 531.710327 211.038579 514.318888 194.389899 494.606245 180.841775 
C 474.893602 167.293651 453.118185 157.023698 430.125336 150.430605 
C 407.132488 143.837512 383.223641 141.007714 359.32696 142.051067 
C 335.430279 143.094419 311.859046 147.997243 289.528318 156.569207 
C 267.197591 165.141171 246.400122 177.269896 227.943289 192.484536 
C 209.486456 207.699177 193.612226 225.800268 180.93685 246.08511 
C 168.261475 266.369953 158.951128 288.572613 153.367245 311.831164 
C 147.783361 335.089716 145.999146 359.09924 148.083865 382.927667 
C 150.168583 406.756093 156.094904 430.091033 165.632762 452.026603 
C 175.17062 473.962173 188.194976 494.210799 204.200211 511.986411 
C 220.205446 529.762024 238.981734 544.831587 259.800162 556.610085 
C 280.61859 568.388583 303.20623 576.721602 326.68621 581.285647 
C 350.16619 585.849691 374.230689 586.584927 397.945502 583.462811 
C 421.660315 580.340695 444.714543 573.402158 466.213199 562.916561 
L 446.770559 523.053249 
C 429.571634 531.441727 411.128252 536.992556 392.156402 539.490249 
C 373.184551 541.987941 353.932952 541.399753 335.148968 537.748517 
C 316.364984 534.097282 298.294872 527.430867 281.640129 518.008068 
C 264.985387 508.585269 249.964357 496.529619 237.160169 482.309129 
C 224.355981 468.088639 213.936496 451.889738 206.30621 434.341282 
C 198.675923 416.792826 193.934866 398.124875 192.267092 379.062133 
C 190.599317 359.999392 192.026689 340.791772 196.493796 322.184931 
C 200.960902 303.57809 208.40918 285.815962 218.54948 269.588088 
C 228.68978 253.360214 241.389165 238.879341 256.154631 226.707629 
C 270.920098 214.535917 287.558072 204.832936 305.422655 197.975365 
C 323.287237 191.117794 342.144223 187.195535 361.261568 186.360853 
C 380.378913 185.526172 399.50599 187.79001 417.900269 193.064484 
C 436.294548 198.338959 453.714881 206.554921 469.484996 217.39342 
C 485.25511 228.231919 499.168261 241.550863 510.684328 256.833199 
C 522.200394 272.115535 531.168401 289.160913 537.240203 307.307615 
C 543.312005 325.454317 546.408 344.464442 546.408 363.6 
z
" style="opacity: 0.1"/>
   </g>
   <g id="patch_3">
    <path d="M 466.213199 562.916561 
C 503.559081 544.701754 535.044428 516.352216 557.063155 481.114881 
C 579.081882 445.877546 590.760004 405.151082 590.76 363.599979 
L 546.408 363.599983 
C 546.408003 396.840865 537.065506 429.422037 519.450524 457.611905 
C 501.835543 485.801773 476.647265 508.481403 446.770559 523.053249 
z
"/>
   </g>
   <g id="patch_4">
    <path d="M 546.408 363.6 
C 546.408 340.302995 541.818998 317.232524 532.90362 295.708898 
C 523.988242 274.185271 510.91987 254.62707 494.4464 238.1536 
C 477.97293 221.68013 458.414729 208.611758 436.891102 199.69638 
C 415.367476 190.781002 392.297005 186.192 369 186.192 
C 345.702995 186.192 322.632524 190.781002 301.108898 199.69638 
C 279.585271 208.611758 260.02707 221.68013 243.5536 238.1536 
C 227.08013 254.62707 214.011758 274.185271 205.09638 295.708898 
C 196.181002 317.232524 191.592 340.302995 191.592 363.6 
C 191.592 386.897005 196.181002 409.967476 205.09638 431.491102 
C 214.011758 453.014729 227.08013 472.57293 243.5536 489.0464 
C 260.02707 505.51987 279.585271 518.588242 301.108898 527.50362 
C 322.632524 536.418998 345.702995 541.008 369 541.008 
C 392.297005 541.008 415.367476 536.418998 436.891102 527.50362 
C 458.414729 518.588242 477.97293 505.51987 494.4464 489.0464 
C 510.91987 472.57293 523.988242 453.014729 532.90362 431.491102 
C 541.818998 409.967476 546.408 386.897005 546.408 363.6 
M 369 363.6 
z
" style="fill: #f7b6d2"/>
   </g>
   <g id="matplotlib.axis_1"/>
   <g id="matplotlib.axis_2"/>
  </g>
 </g>
</svg>
