<?xml version="1.0" encoding="utf-8" standalone="no"?>
<!DOCTYPE svg PUBLIC "-//W3C//DTD SVG 1.1//EN"
  "http://www.w3.org/Graphics/SVG/1.1/DTD/svg11.dtd">
<svg xmlns:xlink="http://www.w3.org/1999/xlink" width="720pt" height="720pt" viewBox="0 0 720 720" xmlns="http://www.w3.org/2000/svg" version="1.1">
 <metadata>
  <rdf:RDF xmlns:dc="http://purl.org/dc/elements/1.1/" xmlns:cc="http://creativecommons.org/ns#" xmlns:rdf="http://www.w3.org/1999/02/22-rdf-syntax-ns#">
   <cc:Work>
    <dc:type rdf:resource="http://purl.org/dc/dcmitype/StillImage"/>
    <dc:date>2024-10-24T16:56:28.216915</dc:date>
    <dc:format>image/svg+xml</dc:format>
    <dc:creator>
     <cc:Agent>
      <dc:title>Matplotlib v3.8.2, https://matplotlib.org/</dc:title>
     </cc:Agent>
    </dc:creator>
   </cc:Work>
  </rdf:RDF>
 </metadata>
 <defs>
  <style type="text/css">*{stroke-linejoin: round; stroke-linecap: butt}</style>
 </defs>
 <g id="figure_1">
  <g id="patch_1">
   <path d="M 0 720 
L 720 720 
L 720 0 
L 0 0 
L 0 720 
z
" style="fill: none"/>
  </g>
  <g id="axes_1">
   <g id="patch_2">
    <path d="M 590.76 363.6 
C 590.76 339.884467 586.955708 316.321746 579.492331 293.811204 
C 572.028954 271.300662 561.002673 250.132393 546.83435 231.114372 
C 532.666027 212.096351 515.538251 195.473663 496.104773 181.880782 
C 476.671295 168.2879 455.182555 157.899997 432.45876 151.113569 
C 409.734964 144.327141 386.068955 141.229645 362.364042 141.93931 
C 338.65913 142.648974 315.2208 147.156655 292.943674 155.290296 
C 270.666547 163.423937 249.837709 175.078721 231.252179 189.809795 
C 212.666648 204.540869 196.563936 222.158393 183.558671 241.989923 
C 170.553405 261.821452 160.813183 283.611417 154.709782 306.528113 
C 148.606381 329.44481 146.218455 353.192911 147.637149 376.865972 
C 149.055843 400.539032 154.262875 423.831978 163.059495 445.855736 
C 171.856116 467.879495 184.128964 488.350247 199.409595 506.486641 
C 214.690227 524.623036 232.78172 540.191348 252.993538 552.59735 
C 273.205357 565.003353 295.27703 574.087168 318.366103 579.502075 
C 341.455175 584.916982 365.264098 586.5932 388.884104 584.466747 
C 412.50411 582.340295 435.630809 576.438576 457.381474 566.986854 
L 439.70518 526.309484 
C 422.304647 533.870861 403.803288 538.592236 384.907283 540.293398 
C 366.011278 541.99456 346.96414 540.653586 328.492882 536.32166 
C 310.021624 531.989734 292.364285 524.722682 276.194831 514.79788 
C 260.025376 504.873079 245.552181 492.418429 233.327676 477.909313 
C 221.103171 463.400198 211.284893 447.023596 204.247596 429.404589 
C 197.2103 411.785582 193.044675 393.151226 191.90972 374.212777 
C 190.774764 355.274329 192.685105 336.275848 197.567826 317.942491 
C 202.450547 299.609133 210.242724 282.177161 220.646936 266.311938 
C 231.051149 250.446715 243.933318 236.352695 258.801743 224.567836 
C 273.670167 212.782977 290.333238 203.45915 308.154939 196.952237 
C 325.97664 190.445324 344.727304 186.83918 363.691234 186.271448 
C 382.655164 185.703716 401.587971 188.181713 419.767008 193.610855 
C 437.946044 199.039998 455.137036 207.35032 470.683819 218.224625 
C 486.230601 229.098931 499.932822 242.397081 511.26748 257.611498 
C 522.602138 272.825915 531.423163 289.76053 537.393865 307.768963 
C 543.364567 325.777397 546.408 344.627574 546.408 363.6 
z
" style="opacity: 0.1"/>
   </g>
   <g id="patch_3">
    <path d="M 457.381474 566.986854 
C 497.006347 549.767921 530.748614 521.338726 554.441318 485.210095 
C 578.134022 449.081464 590.759992 406.804465 590.76 363.600042 
L 546.408 363.600033 
C 546.407994 398.163572 536.307218 431.985171 517.353054 460.888076 
C 498.398891 489.790981 471.405078 512.534337 439.70518 526.309484 
z
"/>
   </g>
   <g id="patch_4">
    <path d="M 546.408 363.6 
C 546.408 342.645373 542.695402 321.855512 535.442648 302.196063 
C 528.189893 282.536613 517.511041 264.31674 503.902098 248.382717 
C 490.293156 232.448694 473.96814 219.0511 455.685311 208.812225 
C 437.402482 198.573349 417.449357 191.65421 396.752716 188.376185 
C 376.056074 185.098161 354.941394 185.512801 334.389404 189.600847 
C 313.837414 193.688894 294.171318 201.386057 276.304562 212.334822 
C 258.437806 223.283586 242.651364 237.311769 229.678483 253.767794 
C 216.705602 270.223819 206.750293 288.848896 200.274959 308.777932 
C 193.799626 328.706968 190.906099 349.626556 191.728776 370.565028 
C 192.551453 391.5035 197.077398 412.131575 205.096389 431.491125 
C 213.115381 450.850676 224.501312 468.63725 238.725331 484.024703 
C 252.94935 499.412155 269.787769 512.1585 288.45848 521.671699 
C 307.129191 531.184898 327.338578 537.315344 348.147958 539.778293 
C 368.957337 542.241241 390.039461 540.997959 410.415109 536.106195 
C 430.790757 531.21443 450.139502 522.751111 467.562635 511.10934 
C 484.985768 499.467569 500.209293 484.830426 512.52611 467.877774 
L 369 363.6 
z
" style="fill: #bcbd22"/>
   </g>
   <g id="patch_5">
    <path d="M 512.52611 467.877774 
C 517.988887 460.358903 522.852393 452.422378 527.071704 444.141511 
C 531.291014 435.860643 534.853096 427.26101 537.725047 418.422048 
L 369 363.6 
z
" style="fill: #9467bd"/>
   </g>
   <g id="patch_6">
    <path d="M 537.725047 418.422048 
C 540.596998 409.583086 542.769946 400.532096 544.22382 391.352685 
C 545.677693 382.173273 546.408002 372.893792 546.408 363.599958 
L 369 363.6 
z
" style="fill: #9edae5"/>
   </g>
   <g id="matplotlib.axis_1"/>
   <g id="matplotlib.axis_2"/>
  </g>
 </g>
</svg>
