<?xml version="1.0" encoding="utf-8" standalone="no"?>
<!DOCTYPE svg PUBLIC "-//W3C//DTD SVG 1.1//EN"
  "http://www.w3.org/Graphics/SVG/1.1/DTD/svg11.dtd">
<svg xmlns:xlink="http://www.w3.org/1999/xlink" width="720pt" height="720pt" viewBox="0 0 720 720" xmlns="http://www.w3.org/2000/svg" version="1.1">
 <metadata>
  <rdf:RDF xmlns:dc="http://purl.org/dc/elements/1.1/" xmlns:cc="http://creativecommons.org/ns#" xmlns:rdf="http://www.w3.org/1999/02/22-rdf-syntax-ns#">
   <cc:Work>
    <dc:type rdf:resource="http://purl.org/dc/dcmitype/StillImage"/>
    <dc:date>2024-10-24T16:56:28.370537</dc:date>
    <dc:format>image/svg+xml</dc:format>
    <dc:creator>
     <cc:Agent>
      <dc:title>Matplotlib v3.8.2, https://matplotlib.org/</dc:title>
     </cc:Agent>
    </dc:creator>
   </cc:Work>
  </rdf:RDF>
 </metadata>
 <defs>
  <style type="text/css">*{stroke-linejoin: round; stroke-linecap: butt}</style>
 </defs>
 <g id="figure_1">
  <g id="patch_1">
   <path d="M 0 720 
L 720 720 
L 720 0 
L 0 0 
L 0 720 
z
" style="fill: none"/>
  </g>
  <g id="axes_1">
   <g id="patch_2">
    <path d="M 590.76 363.6 
C 590.76 335.114485 585.271468 306.893967 574.595162 280.484858 
C 563.918856 254.075749 548.253416 229.969409 528.457269 209.486805 
C 508.661121 189.0042 485.102587 172.526424 459.072614 160.956417 
C 433.042642 149.38641 405.025536 142.93944 376.556564 141.968784 
C 348.087592 140.998128 319.696438 145.521847 292.938866 155.292051 
C 266.181295 165.062256 241.555147 179.897165 220.409876 198.983863 
C 199.264605 218.070561 181.993631 241.053927 169.543361 266.67453 
C 157.093091 292.295133 149.69517 320.076285 147.754986 348.495649 
C 145.814802 376.915013 149.368453 405.443826 158.221208 432.518783 
C 167.073964 459.593739 181.061111 484.711091 199.416191 506.494469 
C 217.771271 528.277848 240.152774 546.321959 265.33425 559.638032 
C 290.515727 572.954104 318.028658 581.294383 346.365405 584.201842 
C 374.702152 587.109301 403.33549 584.529845 430.696384 576.604821 
C 458.057279 568.679797 483.636662 555.556657 506.032847 537.954514 
C 528.429032 520.352371 547.225324 498.598726 561.391732 473.885624 
C 575.558141 449.172522 584.831091 421.959767 588.702448 393.738549 
L 544.761958 387.710839 
C 541.664873 410.287814 534.246513 432.058018 522.913386 451.8285 
C 511.580259 471.598981 496.543226 489.001897 478.626277 503.083611 
C 460.709329 517.165325 440.245823 527.663838 418.357108 534.003857 
C 396.468392 540.343876 373.561722 542.407441 350.892324 540.081474 
C 328.222927 537.755507 306.212581 531.083283 286.0674 520.430426 
C 265.922219 509.777568 248.017017 495.342278 233.332953 477.915575 
C 218.648889 460.488872 207.459171 440.394991 200.376967 418.735026 
C 193.294763 397.075061 190.451842 374.25201 192.003989 351.516519 
C 193.556136 328.781028 199.474473 306.556107 209.434689 286.059624 
C 219.394905 265.563141 233.211684 247.176448 250.127901 231.90709 
C 267.044118 216.637732 286.745036 204.769804 308.151093 196.953641 
C 329.55715 189.137477 352.270073 185.518503 375.045251 186.295027 
C 397.820429 187.071552 420.234113 192.229128 441.058092 201.485134 
C 461.88207 210.741139 480.728897 223.92336 496.565815 240.309444 
C 512.402733 256.695527 524.935085 275.980599 533.47613 297.107886 
C 542.017175 318.235174 546.408 340.811588 546.408 363.6 
z
" style="opacity: 0.1"/>
   </g>
   <g id="patch_3">
    <path d="M 588.702448 393.738549 
C 589.387301 388.746139 589.901788 383.731836 590.245012 378.704373 
C 590.588237 373.67691 590.759999 368.639209 590.76 363.600044 
L 546.408 363.600035 
C 546.407999 367.631367 546.270589 371.661528 545.99601 375.683498 
C 545.72143 379.705469 545.309841 383.716911 544.761958 387.710839 
z
"/>
   </g>
   <g id="patch_4">
    <path d="M 546.408 363.6 
C 546.408 336.515459 540.205582 309.787181 528.277709 285.470557 
C 516.349836 261.153932 499.0103 239.888671 477.592502 223.310061 
C 456.174704 206.731451 431.242094 195.275633 404.711975 189.823554 
C 378.181856 184.371474 350.75217 185.066565 324.532245 191.855372 
L 369 363.6 
z
" style="fill: #d62728"/>
   </g>
   <g id="patch_5">
    <path d="M 324.532245 191.855372 
C 289.456607 200.937082 257.990957 220.549769 234.390247 248.041301 
C 210.789538 275.532833 196.167787 309.605534 192.502225 345.651914 
L 369 363.6 
z
" style="fill: #dbdb8d"/>
   </g>
   <g id="patch_6">
    <path d="M 192.502225 345.651914 
C 190.67984 363.572871 191.597484 381.667307 195.223549 399.311951 
C 198.849613 416.956594 205.14198 433.946497 213.883906 449.696434 
L 369 363.6 
z
" style="fill: #17becf"/>
   </g>
   <g id="patch_7">
    <path d="M 213.883906 449.696434 
C 232.957597 484.060649 262.920536 511.131185 299.038088 526.630455 
C 335.15564 542.129725 375.419643 545.195957 413.467723 535.344636 
C 451.515803 525.493316 485.23246 503.272183 509.289908 472.192541 
C 533.347357 441.1129 546.407985 402.902801 546.408 363.600066 
L 369 363.6 
z
" style="fill: #9edae5"/>
   </g>
   <g id="matplotlib.axis_1"/>
   <g id="matplotlib.axis_2"/>
  </g>
 </g>
</svg>
