<?xml version="1.0" encoding="utf-8" standalone="no"?>
<!DOCTYPE svg PUBLIC "-//W3C//DTD SVG 1.1//EN"
  "http://www.w3.org/Graphics/SVG/1.1/DTD/svg11.dtd">
<svg xmlns:xlink="http://www.w3.org/1999/xlink" width="720pt" height="720pt" viewBox="0 0 720 720" xmlns="http://www.w3.org/2000/svg" version="1.1">
 <metadata>
  <rdf:RDF xmlns:dc="http://purl.org/dc/elements/1.1/" xmlns:cc="http://creativecommons.org/ns#" xmlns:rdf="http://www.w3.org/1999/02/22-rdf-syntax-ns#">
   <cc:Work>
    <dc:type rdf:resource="http://purl.org/dc/dcmitype/StillImage"/>
    <dc:date>2024-10-24T16:56:28.385939</dc:date>
    <dc:format>image/svg+xml</dc:format>
    <dc:creator>
     <cc:Agent>
      <dc:title>Matplotlib v3.8.2, https://matplotlib.org/</dc:title>
     </cc:Agent>
    </dc:creator>
   </cc:Work>
  </rdf:RDF>
 </metadata>
 <defs>
  <style type="text/css">*{stroke-linejoin: round; stroke-linecap: butt}</style>
 </defs>
 <g id="figure_1">
  <g id="patch_1">
   <path d="M 0 720 
L 720 720 
L 720 0 
L 0 0 
L 0 720 
z
" style="fill: none"/>
  </g>
  <g id="axes_1">
   <g id="patch_2">
    <path d="M 590.76 363.6 
C 590.76 330.397417 583.303212 297.614832 568.941622 267.678963 
C 554.580032 237.743094 533.676976 211.411293 507.779794 190.632759 
C 481.882611 169.854225 451.646479 155.154639 419.309614 147.62213 
C 386.972749 140.089621 353.353247 139.914756 320.939776 147.11048 
C 288.526305 154.306203 258.138899 168.690469 232.026973 189.198488 
C 205.915047 209.706506 184.739211 235.819444 170.066996 265.604299 
C 155.394781 295.389155 147.597382 328.092398 147.251998 361.293184 
C 146.906615 394.493971 154.021985 427.35235 168.071396 457.435993 
L 208.257116 438.668794 
C 197.017588 414.60188 191.325292 388.315177 191.601599 361.754548 
C 191.877906 335.193918 198.115825 309.031324 209.853597 285.203439 
C 221.591368 261.375555 238.532038 240.485205 259.421579 224.07879 
C 280.311119 207.672375 304.621044 196.164962 330.551821 190.408384 
C 356.482597 184.651805 383.3782 184.791697 409.247691 190.817704 
C 435.117183 196.843711 459.306089 208.60338 480.023835 225.226207 
C 500.741581 241.849034 517.464026 262.914476 528.953298 286.863171 
C 540.44257 310.811866 546.408 337.037934 546.408 363.6 
z
" style="opacity: 0.1"/>
   </g>
   <g id="patch_3">
    <path d="M 168.071396 457.435993 
C 189.42043 503.150132 225.744195 540.237583 271.004308 562.533009 
C 316.264421 584.828434 367.805774 591.023911 417.060244 580.089516 
C 466.314714 569.155121 510.392872 541.732302 541.96726 502.379769 
C 573.541649 463.027237 590.760009 414.053539 590.76 363.599958 
L 546.408 363.599967 
C 546.408008 403.962831 532.633319 443.141789 507.373808 474.623816 
C 482.114298 506.105842 446.851772 528.044097 407.448195 536.791613 
C 368.044619 545.539129 326.811537 540.582747 290.603447 522.746407 
C 254.395356 504.910067 225.336344 475.240106 208.257116 438.668794 
z
"/>
   </g>
   <g id="patch_4">
    <path d="M 546.408 363.6 
C 546.408 345.70253 543.699671 327.907666 538.375119 310.820577 
C 533.050567 293.733489 525.170843 277.550097 515.003921 262.820768 
C 504.836998 248.091439 492.499453 234.985059 478.410859 223.947351 
C 464.322266 212.909644 448.644166 204.067167 431.90974 197.720637 
C 415.175315 191.374107 397.576441 187.596293 379.711624 186.515671 
C 361.846806 185.435049 343.920883 187.06401 326.543481 191.347155 
C 309.166079 195.630301 292.536447 202.518521 277.220127 211.77756 
C 261.903808 221.036598 248.076418 232.560292 236.2082 245.956741 
C 224.339983 259.353191 214.567019 274.468792 207.221669 290.789493 
C 199.876318 307.110194 195.042804 324.44886 192.885503 342.215838 
C 190.728202 359.982816 191.271851 377.974388 194.497961 395.578696 
C 197.724072 413.183004 203.595653 430.198196 211.913023 446.045619 
C 220.230393 461.893041 230.898185 476.390987 243.553609 489.046409 
C 256.209032 501.70183 270.70698 512.369621 286.554403 520.686989 
C 302.401827 529.004357 319.41702 534.875935 337.021328 538.102043 
C 354.625637 541.328151 372.617209 541.871797 390.384187 539.714494 
L 369 363.6 
z
" style="fill: #8c564b"/>
   </g>
   <g id="patch_5">
    <path d="M 390.384187 539.714494 
C 413.153318 536.949819 435.171715 529.795606 455.217362 518.648911 
C 475.26301 507.502217 492.958074 492.573141 507.320483 474.690245 
L 369 363.6 
z
" style="fill: #c49c94"/>
   </g>
   <g id="patch_6">
    <path d="M 507.320483 474.690245 
C 512.692069 468.001985 517.571489 460.932923 521.920328 453.538711 
C 526.269167 446.144499 530.075982 438.444594 533.310803 430.499615 
L 369 363.6 
z
" style="fill: #d62728"/>
   </g>
   <g id="patch_7">
    <path d="M 533.310803 430.499615 
C 534.388657 427.852319 535.402376 425.17936 536.351072 422.483081 
C 537.299768 419.786801 538.183163 417.067988 539.000485 414.329022 
L 369 363.6 
z
" style="fill: #c7c7c7"/>
   </g>
   <g id="patch_8">
    <path d="M 539.000485 414.329022 
C 541.453403 406.108928 543.306891 397.721737 544.546356 389.233481 
C 545.785821 380.745225 546.408002 372.178237 546.408 363.599965 
L 369 363.6 
z
" style="fill: #9edae5"/>
   </g>
   <g id="matplotlib.axis_1"/>
   <g id="matplotlib.axis_2"/>
  </g>
 </g>
</svg>
