<?xml version="1.0" encoding="utf-8" standalone="no"?>
<!DOCTYPE svg PUBLIC "-//W3C//DTD SVG 1.1//EN"
  "http://www.w3.org/Graphics/SVG/1.1/DTD/svg11.dtd">
<svg xmlns:xlink="http://www.w3.org/1999/xlink" width="720pt" height="720pt" viewBox="0 0 720 720" xmlns="http://www.w3.org/2000/svg" version="1.1">
 <metadata>
  <rdf:RDF xmlns:dc="http://purl.org/dc/elements/1.1/" xmlns:cc="http://creativecommons.org/ns#" xmlns:rdf="http://www.w3.org/1999/02/22-rdf-syntax-ns#">
   <cc:Work>
    <dc:type rdf:resource="http://purl.org/dc/dcmitype/StillImage"/>
    <dc:date>2024-10-24T16:56:26.084615</dc:date>
    <dc:format>image/svg+xml</dc:format>
    <dc:creator>
     <cc:Agent>
      <dc:title>Matplotlib v3.8.2, https://matplotlib.org/</dc:title>
     </cc:Agent>
    </dc:creator>
   </cc:Work>
  </rdf:RDF>
 </metadata>
 <defs>
  <style type="text/css">*{stroke-linejoin: round; stroke-linecap: butt}</style>
 </defs>
 <g id="figure_1">
  <g id="patch_1">
   <path d="M 0 720 
L 720 720 
L 720 0 
L 0 0 
L 0 720 
z
" style="fill: none"/>
  </g>
  <g id="axes_1">
   <g id="patch_2">
    <path d="M 590.76 363.6 
C 590.76 325.369195 580.873674 287.780224 562.064524 254.496439 
C 543.255375 221.212654 516.154954 193.351618 483.404417 173.628616 
C 450.653881 153.905613 413.352888 142.982881 375.136724 141.924926 
C 336.92056 140.866972 299.072402 149.70932 265.280861 167.59021 
L 286.024689 206.792168 
C 313.057922 192.487456 343.336448 185.413578 373.909379 186.259941 
C 404.48231 187.106304 434.323105 195.844491 460.523534 211.622892 
C 486.723963 227.401294 508.4043 249.690123 523.45162 276.317151 
C 538.498939 302.944179 546.408 333.015356 546.408 363.6 
z
" style="opacity: 0.1"/>
   </g>
   <g id="patch_3">
    <path d="M 265.280861 167.59021 
C 230.569984 185.957569 201.353074 213.21978 180.629902 246.577763 
C 159.906731 279.935747 148.411663 318.207399 147.324926 357.463276 
C 146.23819 396.719153 155.598294 435.568148 174.444215 470.021539 
C 193.290136 504.474931 220.954031 533.311796 254.595583 553.571384 
C 288.237134 573.830973 326.664187 584.795347 365.931344 585.338767 
C 405.198501 585.882188 443.914253 575.985398 478.103561 556.664524 
C 512.292869 537.343651 540.744167 509.283367 560.536293 475.36469 
C 580.328419 441.446013 590.76 402.870917 590.76 363.6 
L 546.408 363.6 
C 546.408 395.016733 538.062735 425.87681 522.229035 453.011752 
C 506.395334 480.146694 483.634295 502.594921 456.282849 518.05162 
C 428.931403 533.508318 397.958801 541.42575 366.545075 540.991014 
C 335.13135 540.556278 304.389707 531.784778 277.476466 515.577108 
C 250.563225 499.369437 228.432108 476.299944 213.355372 448.737231 
C 198.278635 421.174518 190.790552 390.095323 191.659941 358.690621 
C 192.529331 327.285919 201.725385 296.668597 218.303922 269.98221 
C 234.882459 243.295824 258.255987 221.486056 286.024689 206.792168 
z
"/>
   </g>
   <g id="patch_4">
    <path d="M 546.408 363.6 
C 546.408 320.650048 530.810916 279.127967 502.533933 246.799797 
C 474.256949 214.471628 435.180202 193.486868 392.612373 187.770383 
L 369 363.6 
z
" style="fill: #c7c7c7"/>
   </g>
   <g id="patch_5">
    <path d="M 392.612373 187.770383 
C 358.613976 183.204697 324.01016 188.596431 293.012512 203.289364 
C 262.014863 217.982297 235.93412 241.355137 217.944535 270.563207 
L 369 363.6 
z
" style="fill: #d62728"/>
   </g>
   <g id="patch_6">
    <path d="M 217.944535 270.563207 
C 203.688913 293.708776 194.941925 319.824149 192.38102 346.886705 
C 189.820114 373.94926 193.513158 401.241822 203.174125 426.650597 
L 369 363.6 
z
" style="fill: #1f77b4"/>
   </g>
   <g id="patch_7">
    <path d="M 203.174125 426.650597 
C 212.407955 450.935979 226.864976 472.899025 245.520322 490.98276 
C 264.175667 509.066495 286.577837 522.833253 311.138726 531.3071 
L 369 363.6 
z
" style="fill: #7f7f7f"/>
   </g>
   <g id="patch_8">
    <path d="M 311.138726 531.3071 
C 326.31141 536.541886 342.124553 539.693504 358.144815 540.675587 
C 374.165078 541.65767 390.244772 540.461164 405.943252 537.118859 
L 369 363.6 
z
" style="fill: #dbdb8d"/>
   </g>
   <g id="patch_9">
    <path d="M 405.943252 537.118859 
C 412.214601 535.78365 418.408955 534.109431 424.499041 532.103575 
C 430.589127 530.097719 436.565993 527.763174 442.403323 525.110218 
L 369 363.6 
z
" style="fill: #e377c2"/>
   </g>
   <g id="patch_10">
    <path d="M 442.403323 525.110218 
C 445.645736 523.636603 448.843039 522.065682 451.990883 520.399591 
C 455.138727 518.7335 458.235686 516.972995 461.277549 515.120468 
L 369 363.6 
z
" style="fill: #2ca02c"/>
   </g>
   <g id="patch_11">
    <path d="M 461.277549 515.120468 
C 463.710973 513.638488 466.108343 512.098101 468.467573 510.500648 
C 470.826802 508.903195 473.147207 507.249141 475.426767 505.539923 
L 369 363.6 
z
" style="fill: #f7b6d2"/>
   </g>
   <g id="patch_12">
    <path d="M 475.426767 505.539923 
C 476.566506 504.685345 477.69591 503.817071 478.814734 502.935288 
C 479.933559 502.053506 481.041721 501.15828 482.138982 500.249805 
L 369 363.6 
z
" style="fill: #8c564b"/>
   </g>
   <g id="patch_13">
    <path d="M 482.138982 500.249805 
C 502.244023 483.603869 518.429879 462.724212 529.538712 439.104439 
C 540.647545 415.484666 546.407997 389.701741 546.408 363.60002 
L 369 363.6 
z
" style="fill: #9edae5"/>
   </g>
   <g id="matplotlib.axis_1"/>
   <g id="matplotlib.axis_2"/>
  </g>
 </g>
</svg>
