<?xml version="1.0" encoding="utf-8" standalone="no"?>
<!DOCTYPE svg PUBLIC "-//W3C//DTD SVG 1.1//EN"
  "http://www.w3.org/Graphics/SVG/1.1/DTD/svg11.dtd">
<svg xmlns:xlink="http://www.w3.org/1999/xlink" width="720pt" height="720pt" viewBox="0 0 720 720" xmlns="http://www.w3.org/2000/svg" version="1.1">
 <metadata>
  <rdf:RDF xmlns:dc="http://purl.org/dc/elements/1.1/" xmlns:cc="http://creativecommons.org/ns#" xmlns:rdf="http://www.w3.org/1999/02/22-rdf-syntax-ns#">
   <cc:Work>
    <dc:type rdf:resource="http://purl.org/dc/dcmitype/StillImage"/>
    <dc:date>2024-10-24T16:56:26.586226</dc:date>
    <dc:format>image/svg+xml</dc:format>
    <dc:creator>
     <cc:Agent>
      <dc:title>Matplotlib v3.8.2, https://matplotlib.org/</dc:title>
     </cc:Agent>
    </dc:creator>
   </cc:Work>
  </rdf:RDF>
 </metadata>
 <defs>
  <style type="text/css">*{stroke-linejoin: round; stroke-linecap: butt}</style>
 </defs>
 <g id="figure_1">
  <g id="patch_1">
   <path d="M 0 720 
L 720 720 
L 720 0 
L 0 0 
L 0 720 
z
" style="fill: none"/>
  </g>
  <g id="axes_1">
   <g id="patch_2">
    <path d="M 590.76 363.6 
C 590.76 323.432136 579.846463 284.009022 559.190061 249.559489 
C 538.533659 215.109955 508.900369 186.911456 473.46889 167.988782 
C 438.037411 149.066108 398.121608 140.120948 358.003162 142.112828 
C 317.884717 144.104709 279.051294 156.959769 245.668472 179.299072 
L 270.334778 216.159258 
C 297.041035 198.287815 328.107773 188.003767 360.20253 186.410263 
C 392.297286 184.816758 424.229929 191.972887 452.575112 207.111026 
C 480.920295 222.249165 504.626927 244.807964 521.152049 272.367591 
C 537.677171 299.927217 546.408 331.465709 546.408 363.6 
z
" style="opacity: 0.1"/>
   </g>
   <g id="patch_3">
    <path d="M 245.668472 179.299072 
C 213.835733 200.601084 188.05841 229.791415 170.857905 264.014822 
C 153.6574 298.23823 145.613435 336.341254 147.512829 374.596858 
C 149.412224 412.852463 161.19096 449.971288 181.696904 482.322567 
C 202.202849 514.673846 230.744873 541.167216 264.531146 559.211237 
C 298.31742 577.255259 336.209217 586.241778 374.500163 585.291781 
C 412.791108 584.341785 450.190651 573.487291 483.040565 553.790029 
C 515.890479 534.092767 543.083598 506.21661 561.960034 472.888257 
C 580.836469 439.559903 590.760014 401.902645 590.76 363.599917 
L 546.408 363.599934 
C 546.408011 394.242116 538.469175 424.367922 523.368027 451.030605 
C 508.266878 477.693288 486.512383 499.994214 460.232452 515.752023 
C 433.95252 531.509833 404.032886 540.193428 373.40013 540.953425 
C 342.767374 541.713422 312.453936 534.524207 285.424917 520.08899 
C 258.395898 505.653773 235.562279 484.459077 219.157523 458.578054 
C 202.752768 432.697031 193.329779 403.00197 191.810264 372.397487 
C 190.290748 341.793003 196.72592 311.310584 210.486324 283.931858 
C 224.246728 256.553132 244.868586 233.200867 270.334778 216.159258 
z
"/>
   </g>
   <g id="patch_4">
    <path d="M 546.408 363.6 
C 546.408 326.62334 534.847585 290.555834 513.352253 260.468892 
C 491.856921 230.38195 461.483692 207.755082 426.503312 195.769825 
C 391.522932 183.784569 353.655541 183.030292 318.225631 193.613054 
C 282.795721 204.195815 251.545538 225.595213 228.869134 254.802303 
L 369 363.6 
z
" style="fill: #c7c7c7"/>
   </g>
   <g id="patch_5">
    <path d="M 228.869134 254.802303 
C 208.433453 281.123353 195.82126 312.677143 192.483955 345.832491 
C 189.14665 378.98784 195.217356 412.422187 209.997464 442.28794 
L 369 363.6 
z
" style="fill: #7f7f7f"/>
   </g>
   <g id="patch_6">
    <path d="M 209.997464 442.28794 
C 221.359587 465.247067 237.560827 485.475188 257.48405 501.577503 
C 277.407273 517.679818 300.583781 529.277514 325.41547 535.57089 
L 369 363.6 
z
" style="fill: #d62728"/>
   </g>
   <g id="patch_7">
    <path d="M 325.41547 535.57089 
C 343.848367 540.242548 362.913054 541.92034 381.878563 540.539936 
C 400.844073 539.159533 419.46488 534.738805 437.027035 527.447249 
L 369 363.6 
z
" style="fill: #dbdb8d"/>
   </g>
   <g id="patch_8">
    <path d="M 437.027035 527.447249 
C 442.104054 525.339343 447.080356 522.996599 451.939831 520.426601 
C 456.799306 517.856603 461.536705 515.062128 466.136689 512.052222 
L 369 363.6 
z
" style="fill: #1f77b4"/>
   </g>
   <g id="patch_9">
    <path d="M 466.136689 512.052222 
C 469.203038 510.045818 472.206487 507.944891 475.142712 505.752464 
C 478.078938 503.560037 480.94653 501.277163 483.741361 498.907126 
L 369 363.6 
z
" style="fill: #e377c2"/>
   </g>
   <g id="patch_10">
    <path d="M 483.741361 498.907126 
C 485.737592 497.21431 487.696115 495.477524 489.615494 493.698044 
C 491.534873 491.918564 493.414637 490.096826 495.253406 488.234169 
L 369 363.6 
z
" style="fill: #c5b0d5"/>
   </g>
   <g id="patch_11">
    <path d="M 495.253406 488.234169 
C 496.908284 486.55779 498.529611 484.848617 500.116421 483.107668 
C 501.70323 481.366719 503.255208 479.594338 504.771432 477.791579 
L 369 363.6 
z
" style="fill: #2ca02c"/>
   </g>
   <g id="patch_12">
    <path d="M 504.771432 477.791579 
C 506.119176 476.189139 507.438446 474.562964 508.728621 472.913819 
C 510.018796 471.264673 511.279674 469.592817 512.510662 467.899034 
L 369 363.6 
z
" style="fill: #f7b6d2"/>
   </g>
   <g id="patch_13">
    <path d="M 512.510662 467.899034 
C 513.280017 466.840436 514.037636 465.773359 514.783379 464.697997 
C 515.529122 463.622635 516.262943 462.539054 516.984709 461.447455 
L 369 363.6 
z
" style="fill: #98df8a"/>
   </g>
   <g id="patch_14">
    <path d="M 516.984709 461.447455 
C 517.634297 460.465017 518.274085 459.476134 518.903979 458.480955 
C 519.533873 457.485775 520.153841 456.484347 520.763791 455.476821 
L 369 363.6 
z
" style="fill: #8c564b"/>
   </g>
   <g id="patch_15">
    <path d="M 520.763791 455.476821 
C 529.112551 441.686188 535.542776 426.821717 539.876713 411.294311 
C 544.210651 395.766904 546.407993 379.720971 546.408 363.600073 
L 369 363.6 
z
" style="fill: #9edae5"/>
   </g>
   <g id="matplotlib.axis_1"/>
   <g id="matplotlib.axis_2"/>
  </g>
 </g>
</svg>
