<?xml version="1.0" encoding="utf-8" standalone="no"?>
<!DOCTYPE svg PUBLIC "-//W3C//DTD SVG 1.1//EN"
  "http://www.w3.org/Graphics/SVG/1.1/DTD/svg11.dtd">
<svg xmlns:xlink="http://www.w3.org/1999/xlink" width="720pt" height="720pt" viewBox="0 0 720 720" xmlns="http://www.w3.org/2000/svg" version="1.1">
 <metadata>
  <rdf:RDF xmlns:dc="http://purl.org/dc/elements/1.1/" xmlns:cc="http://creativecommons.org/ns#" xmlns:rdf="http://www.w3.org/1999/02/22-rdf-syntax-ns#">
   <cc:Work>
    <dc:type rdf:resource="http://purl.org/dc/dcmitype/StillImage"/>
    <dc:date>2024-10-24T16:56:27.243611</dc:date>
    <dc:format>image/svg+xml</dc:format>
    <dc:creator>
     <cc:Agent>
      <dc:title>Matplotlib v3.8.2, https://matplotlib.org/</dc:title>
     </cc:Agent>
    </dc:creator>
   </cc:Work>
  </rdf:RDF>
 </metadata>
 <defs>
  <style type="text/css">*{stroke-linejoin: round; stroke-linecap: butt}</style>
 </defs>
 <g id="figure_1">
  <g id="patch_1">
   <path d="M 0 720 
L 720 720 
L 720 0 
L 0 0 
L 0 720 
z
" style="fill: none"/>
  </g>
  <g id="axes_1">
   <g id="patch_2">
    <path d="M 590.76 363.6 
C 590.76 323.35034 579.80197 283.850003 559.065997 249.352836 
C 538.330023 214.855669 508.588183 186.646131 473.043419 167.762147 
C 437.498655 148.878164 397.474429 140.022855 357.28101 142.149864 
C 317.087591 144.276872 278.221528 157.307 244.868364 179.837015 
L 269.694691 216.589612 
C 296.377223 198.5656 327.470073 188.141498 359.624808 186.439891 
C 391.779544 184.738284 423.798924 191.822531 452.234735 206.929718 
C 480.670547 222.036905 504.464018 244.604535 521.052797 272.202269 
C 537.641576 299.800002 546.408 331.400272 546.408 363.6 
z
" style="opacity: 0.1"/>
   </g>
   <g id="patch_3">
    <path d="M 244.868364 179.837015 
C 213.162377 201.254364 187.532494 230.517266 170.480502 264.769303 
C 153.428511 299.02134 145.5279 337.11056 147.549864 375.31899 
C 149.571828 413.52742 161.448365 450.570046 182.020181 482.831057 
C 202.591998 515.092068 231.167228 541.486472 264.956581 559.437853 
C 298.745934 577.389233 336.613018 586.293856 374.861543 585.282521 
C 413.110068 584.271185 450.453672 573.377905 483.247164 553.665997 
C 516.040656 533.954088 543.181136 506.086497 562.019363 472.783439 
C 580.857589 439.48038 590.76 401.861893 590.76 363.6 
L 546.408 363.6 
C 546.408 394.209514 538.486071 424.304304 523.41549 450.946751 
C 508.344909 477.589197 486.632525 499.883271 460.397731 515.652797 
C 434.162937 531.422324 404.288054 540.136948 373.689234 540.946016 
C 343.090414 541.755085 312.796747 534.631387 285.765265 520.270282 
C 258.733782 505.909178 235.873598 484.793655 219.416145 458.984846 
C 202.958692 433.176037 193.457462 403.541936 191.839891 372.975192 
C 190.22232 342.408448 196.542809 311.937072 210.184402 284.535442 
C 223.825995 257.133812 244.329902 233.723492 269.694691 216.589612 
z
"/>
   </g>
   <g id="patch_4">
    <path d="M 546.408 363.6 
C 546.408 336.664467 540.273641 310.079337 528.47159 285.867057 
C 516.669539 261.654777 499.506861 240.445298 478.289196 223.852119 
C 457.07153 207.25894 432.350916 195.71378 406.007958 190.094929 
C 379.664999 184.476079 352.385086 184.929728 326.243518 191.421367 
L 369 363.6 
z
" style="fill: #c7c7c7"/>
   </g>
   <g id="patch_5">
    <path d="M 326.243518 191.421367 
C 301.293978 197.616994 277.98666 209.162194 257.939835 225.255364 
C 237.89301 241.348534 221.581633 261.608389 210.138233 284.628248 
C 198.694834 307.648108 192.390533 332.882579 191.66305 358.579584 
C 190.935567 384.276589 195.802137 409.827308 205.924866 433.457706 
L 369 363.6 
z
" style="fill: #7f7f7f"/>
   </g>
   <g id="patch_6">
    <path d="M 205.924866 433.457706 
C 214.48341 453.436687 226.641098 471.673817 241.791015 487.258694 
C 256.940932 502.843571 274.826716 515.512473 294.555502 524.632963 
L 369 363.6 
z
" style="fill: #d62728"/>
   </g>
   <g id="patch_7">
    <path d="M 294.555502 524.632963 
C 304.361264 529.166104 314.560618 532.794132 325.026388 535.471813 
C 335.492159 538.149493 346.180667 539.865649 356.95864 540.598882 
L 369 363.6 
z
" style="fill: #dbdb8d"/>
   </g>
   <g id="patch_8">
    <path d="M 356.95864 540.598882 
C 365.98019 541.212624 375.035476 541.135733 384.045303 540.368881 
C 393.05513 539.602029 401.993157 538.147458 410.781216 536.017889 
L 369 363.6 
z
" style="fill: #1f77b4"/>
   </g>
   <g id="patch_9">
    <path d="M 410.781216 536.017889 
C 414.197384 535.190065 417.588195 534.260896 420.949158 533.231611 
C 424.31012 532.202327 427.639751 531.073382 430.933639 529.846272 
L 369 363.6 
z
" style="fill: #e377c2"/>
   </g>
   <g id="patch_10">
    <path d="M 430.933639 529.846272 
C 433.756917 528.794484 436.552943 527.670947 439.318998 526.476754 
C 442.085053 525.282561 444.820238 524.018101 447.521893 522.684603 
L 369 363.6 
z
" style="fill: #f7b6d2"/>
   </g>
   <g id="patch_11">
    <path d="M 447.521893 522.684603 
C 448.422401 522.240125 449.319119 521.788008 450.21195 521.328303 
C 451.104781 520.868598 451.993692 520.40132 452.878588 519.92652 
L 369 363.6 
z
" style="fill: #2ca02c"/>
   </g>
   <g id="patch_12">
    <path d="M 452.878588 519.92652 
C 453.763484 519.45172 454.644332 518.969416 455.521038 518.479658 
C 456.397744 517.9899 457.270276 517.492707 458.138538 516.988133 
L 369 363.6 
z
" style="fill: #bcbd22"/>
   </g>
   <g id="patch_13">
    <path d="M 458.138538 516.988133 
C 458.572668 516.735847 459.005725 516.481719 459.437696 516.225757 
C 459.869668 515.969794 460.300551 515.711998 460.730334 515.452377 
L 369 363.6 
z
" style="fill: #c5b0d5"/>
   </g>
   <g id="patch_14">
    <path d="M 460.730334 515.452377 
C 461.160117 515.192755 461.588796 514.93131 462.016359 514.668049 
C 462.443922 514.404788 462.870366 514.139713 463.295678 513.872831 
L 369 363.6 
z
" style="fill: #8c564b"/>
   </g>
   <g id="patch_15">
    <path d="M 463.295678 513.872831 
C 488.735512 497.909423 509.709875 475.744305 524.245641 449.462619 
C 538.781408 423.180933 546.408014 393.633492 546.408 363.599919 
L 369 363.6 
z
" style="fill: #9edae5"/>
   </g>
   <g id="matplotlib.axis_1"/>
   <g id="matplotlib.axis_2"/>
  </g>
 </g>
</svg>
