<?xml version="1.0" encoding="utf-8" standalone="no"?>
<!DOCTYPE svg PUBLIC "-//W3C//DTD SVG 1.1//EN"
  "http://www.w3.org/Graphics/SVG/1.1/DTD/svg11.dtd">
<svg xmlns:xlink="http://www.w3.org/1999/xlink" width="720pt" height="720pt" viewBox="0 0 720 720" xmlns="http://www.w3.org/2000/svg" version="1.1">
 <metadata>
  <rdf:RDF xmlns:dc="http://purl.org/dc/elements/1.1/" xmlns:cc="http://creativecommons.org/ns#" xmlns:rdf="http://www.w3.org/1999/02/22-rdf-syntax-ns#">
   <cc:Work>
    <dc:type rdf:resource="http://purl.org/dc/dcmitype/StillImage"/>
    <dc:date>2024-10-24T16:56:25.676124</dc:date>
    <dc:format>image/svg+xml</dc:format>
    <dc:creator>
     <cc:Agent>
      <dc:title>Matplotlib v3.8.2, https://matplotlib.org/</dc:title>
     </cc:Agent>
    </dc:creator>
   </cc:Work>
  </rdf:RDF>
 </metadata>
 <defs>
  <style type="text/css">*{stroke-linejoin: round; stroke-linecap: butt}</style>
 </defs>
 <g id="figure_1">
  <g id="patch_1">
   <path d="M 0 720 
L 720 720 
L 720 0 
L 0 0 
L 0 720 
z
" style="fill: none"/>
  </g>
  <g id="axes_1">
   <g id="patch_2">
    <path d="M 590.76 363.6 
C 590.76 329.151608 582.733135 295.172401 567.317964 264.365516 
C 551.902792 233.55863 529.519222 206.763242 501.947925 186.110995 
L 475.35834 221.608796 
C 497.415378 238.130594 515.322234 259.566904 527.654371 284.212413 
C 539.986508 308.857921 546.408 336.041286 546.408 363.6 
z
" style="opacity: 0.1"/>
   </g>
   <g id="patch_3">
    <path d="M 501.947925 186.110995 
C 482.099667 171.243681 459.897399 159.810523 436.266802 152.288204 
C 412.636205 144.765886 387.910318 141.260422 363.120037 141.917967 
C 338.329756 142.575512 313.824464 147.386799 290.625862 156.15123 
C 267.42726 164.915661 245.862298 177.509715 226.830084 193.408307 
C 207.79787 209.306898 191.566635 228.285961 178.81311 249.5542 
C 166.059585 270.822439 156.963511 294.080109 151.904131 318.357528 
C 146.844751 342.634947 145.89337 367.58996 149.089654 392.182116 
C 152.285938 416.774273 159.584839 440.656982 170.682046 462.834503 
C 181.779252 485.012023 196.518363 505.171794 214.284862 522.473295 
C 232.051361 539.774795 252.594854 553.974184 275.058822 564.479448 
C 297.522789 574.984712 321.590634 581.647793 346.258894 584.190888 
C 370.927154 586.733982 395.848167 585.121249 419.9829 579.419928 
C 444.117633 573.718608 467.125942 564.009051 488.048541 550.696078 
C 508.97114 537.383106 527.513156 520.654345 542.901516 501.207269 
C 558.289875 481.760192 570.307702 459.868878 578.453937 436.446042 
C 586.600172 413.023206 590.760005 388.398958 590.76 363.599958 
L 546.408 363.599967 
C 546.408004 383.439167 543.080137 403.138565 536.56315 421.876834 
C 530.046162 440.615103 520.4319 458.128154 508.121213 473.685815 
C 495.810525 489.243476 480.976912 502.626485 464.238833 513.276863 
C 447.500753 523.92724 429.094106 531.694886 409.78632 536.255943 
C 390.478533 540.817 370.541723 542.107186 350.807115 540.07271 
C 331.072507 538.038234 311.818231 532.707769 293.847057 524.303558 
C 275.875884 515.899348 259.441089 504.539836 245.22789 490.698636 
C 231.014691 476.857436 219.223401 460.729619 210.345636 442.987602 
C 201.467872 425.245586 195.62875 406.139418 193.071723 386.465693 
C 190.514696 366.791968 191.275801 346.827958 195.323305 327.406022 
C 199.370809 307.984087 206.647668 289.377951 216.850488 272.36336 
C 227.053308 255.348769 240.038296 240.165519 255.264067 227.446645 
C 270.489838 214.727772 287.741808 204.652529 306.30069 197.640984 
C 324.859572 190.629439 344.463805 186.78041 364.296029 186.254374 
C 384.128254 185.728338 403.908964 188.532709 422.813442 194.550564 
C 441.717919 200.568419 459.479733 209.714945 475.35834 221.608796 
z
"/>
   </g>
   <g id="patch_4">
    <path d="M 546.408 363.6 
C 546.408 322.900501 532.402578 283.414932 506.757046 251.811832 
C 481.111515 220.208731 445.355715 198.37333 405.528281 189.993309 
C 365.700847 181.613288 324.177618 187.188544 287.971264 205.777497 
C 251.76491 224.36645 223.035261 254.860207 206.634335 292.108816 
L 369 363.6 
z
" style="fill: #c7c7c7"/>
   </g>
   <g id="patch_5">
    <path d="M 206.634335 292.108816 
C 192.181591 324.932855 188.016653 361.380594 194.691803 396.618949 
C 201.366954 431.857305 218.573501 464.256674 244.029802 489.520801 
L 369 363.6 
z
" style="fill: #dbdb8d"/>
   </g>
   <g id="patch_6">
    <path d="M 244.029802 489.520801 
C 254.436631 499.849067 266.083821 508.847492 278.704669 516.310025 
C 291.325516 523.772558 304.822948 529.641801 318.887893 533.783358 
L 369 363.6 
z
" style="fill: #d62728"/>
   </g>
   <g id="patch_7">
    <path d="M 318.887893 533.783358 
C 331.980624 537.638637 345.474628 539.970174 359.101914 540.731664 
C 372.7292 541.493154 386.398954 540.679523 399.839698 538.30693 
L 369 363.6 
z
" style="fill: #f7b6d2"/>
   </g>
   <g id="patch_8">
    <path d="M 399.839698 538.30693 
C 411.784257 536.198447 423.481157 532.870553 434.746713 528.375508 
C 446.01227 523.880463 456.787203 518.241921 466.902307 511.548426 
L 369 363.6 
z
" style="fill: #7f7f7f"/>
   </g>
   <g id="patch_9">
    <path d="M 466.902307 511.548426 
C 473.220884 507.367217 479.26512 502.785519 484.997874 497.831486 
C 490.730628 492.877452 496.140134 487.561251 501.193151 481.91555 
L 369 363.6 
z
" style="fill: #1f77b4"/>
   </g>
   <g id="patch_10">
    <path d="M 501.193151 481.91555 
C 503.971648 478.811154 506.639929 475.609847 509.19303 472.317583 
C 511.74613 469.02532 514.182467 465.644143 516.497506 462.180343 
L 369 363.6 
z
" style="fill: #2ca02c"/>
   </g>
   <g id="patch_11">
    <path d="M 516.497506 462.180343 
C 517.339264 460.920892 518.164855 459.650712 518.974077 458.370114 
C 519.7833 457.089517 520.576087 455.798607 521.352243 454.497703 
L 369 363.6 
z
" style="fill: #e377c2"/>
   </g>
   <g id="patch_12">
    <path d="M 521.352243 454.497703 
C 521.740318 453.847257 522.124223 453.194333 522.503935 452.538971 
C 522.883646 451.883608 523.259157 451.225821 523.630444 450.565649 
L 369 363.6 
z
" style="fill: #98df8a"/>
   </g>
   <g id="patch_13">
    <path d="M 523.630444 450.565649 
C 524.001731 449.905477 524.368787 449.242934 524.731588 448.578061 
C 525.09439 447.913188 525.452929 447.245998 525.807185 446.576533 
L 369 363.6 
z
" style="fill: #8c564b"/>
   </g>
   <g id="patch_14">
    <path d="M 525.807185 446.576533 
C 532.546322 433.841065 537.708918 420.331892 541.180784 406.347821 
C 544.652649 392.36375 546.407997 378.008649 546.408 363.600037 
L 369 363.6 
z
" style="fill: #9edae5"/>
   </g>
   <g id="matplotlib.axis_1"/>
   <g id="matplotlib.axis_2"/>
  </g>
 </g>
</svg>
