<?xml version="1.0" encoding="utf-8" standalone="no"?>
<!DOCTYPE svg PUBLIC "-//W3C//DTD SVG 1.1//EN"
  "http://www.w3.org/Graphics/SVG/1.1/DTD/svg11.dtd">
<svg xmlns:xlink="http://www.w3.org/1999/xlink" width="720pt" height="720pt" viewBox="0 0 720 720" xmlns="http://www.w3.org/2000/svg" version="1.1">
 <metadata>
  <rdf:RDF xmlns:dc="http://purl.org/dc/elements/1.1/" xmlns:cc="http://creativecommons.org/ns#" xmlns:rdf="http://www.w3.org/1999/02/22-rdf-syntax-ns#">
   <cc:Work>
    <dc:type rdf:resource="http://purl.org/dc/dcmitype/StillImage"/>
    <dc:date>2024-10-24T16:56:25.846240</dc:date>
    <dc:format>image/svg+xml</dc:format>
    <dc:creator>
     <cc:Agent>
      <dc:title>Matplotlib v3.8.2, https://matplotlib.org/</dc:title>
     </cc:Agent>
    </dc:creator>
   </cc:Work>
  </rdf:RDF>
 </metadata>
 <defs>
  <style type="text/css">*{stroke-linejoin: round; stroke-linecap: butt}</style>
 </defs>
 <g id="figure_1">
  <g id="patch_1">
   <path d="M 0 720 
L 720 720 
L 720 0 
L 0 0 
L 0 720 
z
" style="fill: none"/>
  </g>
  <g id="axes_1">
   <g id="patch_2">
    <path d="M 590.76 363.6 
C 590.76 339.355895 586.784238 315.27506 578.991226 292.317586 
C 571.198214 269.360112 559.692915 247.83521 544.934039 228.601068 
C 530.175163 209.366926 512.361496 192.682605 492.203259 179.213302 
C 472.045023 165.743998 449.813725 155.671127 426.395718 149.396291 
C 402.977711 143.121454 378.688407 140.729165 354.496211 142.314805 
C 330.304014 143.900444 306.534765 149.442655 284.136132 158.720471 
C 261.737499 167.998287 241.011165 180.886748 222.783481 196.871996 
C 204.555797 212.857245 189.072267 231.723978 176.950213 252.719988 
C 164.828159 273.715998 156.230851 296.558494 151.501059 320.336755 
C 146.771267 344.115016 145.972696 368.508777 149.137185 392.545471 
C 152.301674 416.582165 159.386601 439.938045 170.109492 461.681923 
C 180.832384 483.425801 195.048816 503.264812 212.191986 520.407985 
C 229.335155 537.551158 249.174164 551.767593 270.91804 562.490489 
C 292.661916 573.213385 316.017794 580.298316 340.054488 583.462809 
C 364.091181 586.627303 388.484942 585.828736 412.263204 581.098949 
C 436.041466 576.369161 458.883964 567.771857 479.879976 555.649807 
L 457.703981 517.239846 
C 440.907171 526.937486 422.633173 533.815329 403.610563 537.599159 
C 384.587954 541.382989 365.072945 542.021842 345.84359 539.490247 
C 326.614236 536.958653 307.929533 531.290708 290.534432 522.712391 
C 273.139331 514.134075 257.268124 502.760926 243.553588 489.046388 
C 229.839053 475.33185 218.465907 459.460641 209.887594 442.065538 
C 201.309281 424.670436 195.641339 405.985732 193.109748 386.756377 
C 190.578157 367.527022 191.217014 348.012013 195.000847 328.989404 
C 198.784681 309.966795 205.662528 291.692799 215.360171 274.89599 
C 225.057814 258.099182 237.444638 243.005796 252.026785 230.217597 
C 266.608932 217.429398 283.189999 207.11863 301.108905 199.696377 
C 319.027812 192.274124 338.043211 187.840355 357.396969 186.571844 
C 376.750726 185.303332 396.182169 187.217163 414.916575 192.237032 
C 433.65098 197.256902 451.436018 205.315198 467.562607 216.090641 
C 483.689197 226.866084 497.94013 240.213541 509.747231 255.600855 
C 521.554332 270.988168 530.758571 288.20809 536.992981 306.574069 
C 543.22739 324.940048 546.408 344.204716 546.408 363.6 
z
" style="opacity: 0.1"/>
   </g>
   <g id="patch_3">
    <path d="M 479.879976 555.649807 
C 513.58925 536.187755 541.587721 508.18929 561.049781 474.480021 
C 580.511842 440.770752 590.759996 402.524134 590.76 363.600021 
L 546.408 363.600017 
C 546.407997 394.739308 538.209474 425.336602 522.639825 452.304017 
C 507.070177 479.271432 484.6714 501.670204 457.703981 517.239846 
z
"/>
   </g>
   <g id="patch_4">
    <path d="M 546.408 363.6 
C 546.408 316.566518 527.704094 271.411294 494.4464 238.1536 
C 461.188706 204.895906 416.033482 186.192 369 186.192 
C 321.966518 186.192 276.811294 204.895906 243.5536 238.1536 
C 210.295906 271.411294 191.592 316.566518 191.592 363.6 
L 369 363.6 
z
" style="fill: #c7c7c7"/>
   </g>
   <g id="patch_5">
    <path d="M 191.592 363.6 
C 191.592 410.633482 210.295906 455.788706 243.5536 489.0464 
C 276.811294 522.304094 321.966518 541.008 369 541.008 
L 369 363.6 
z
" style="fill: #f7b6d2"/>
   </g>
   <g id="patch_6">
    <path d="M 369 541.008 
C 416.033482 541.008 461.188706 522.304094 494.4464 489.0464 
C 527.704094 455.788706 546.408 410.633482 546.408 363.6 
L 369 363.6 
z
" style="fill: #d62728"/>
   </g>
   <g id="matplotlib.axis_1"/>
   <g id="matplotlib.axis_2"/>
  </g>
 </g>
</svg>
