<?xml version="1.0" encoding="utf-8" standalone="no"?>
<!DOCTYPE svg PUBLIC "-//W3C//DTD SVG 1.1//EN"
  "http://www.w3.org/Graphics/SVG/1.1/DTD/svg11.dtd">
<svg xmlns:xlink="http://www.w3.org/1999/xlink" width="720pt" height="720pt" viewBox="0 0 720 720" xmlns="http://www.w3.org/2000/svg" version="1.1">
 <metadata>
  <rdf:RDF xmlns:dc="http://purl.org/dc/elements/1.1/" xmlns:cc="http://creativecommons.org/ns#" xmlns:rdf="http://www.w3.org/1999/02/22-rdf-syntax-ns#">
   <cc:Work>
    <dc:type rdf:resource="http://purl.org/dc/dcmitype/StillImage"/>
    <dc:date>2024-10-24T16:56:30.792666</dc:date>
    <dc:format>image/svg+xml</dc:format>
    <dc:creator>
     <cc:Agent>
      <dc:title>Matplotlib v3.8.2, https://matplotlib.org/</dc:title>
     </cc:Agent>
    </dc:creator>
   </cc:Work>
  </rdf:RDF>
 </metadata>
 <defs>
  <style type="text/css">*{stroke-linejoin: round; stroke-linecap: butt}</style>
 </defs>
 <g id="figure_1">
  <g id="patch_1">
   <path d="M 0 720 
L 720 720 
L 720 0 
L 0 0 
L 0 720 
z
" style="fill: none"/>
  </g>
  <g id="axes_1">
   <g id="patch_2">
    <path d="M 590.76 363.6 
C 590.76 336.388884 585.75158 309.408719 575.985532 284.010508 
C 566.219483 258.612297 551.861582 235.227167 533.630786 215.026106 
C 515.39999 194.825045 493.60576 178.150958 469.339421 165.838785 
C 445.073082 153.526611 418.746548 145.785346 391.678092 143.002625 
C 364.609637 140.219904 337.258739 142.442964 310.994967 149.560485 
C 284.731196 156.678007 260.00037 168.569174 238.040861 184.638548 
C 216.081351 200.707921 197.265914 220.682729 182.536714 243.562753 
C 167.807514 266.442776 157.414574 291.839635 151.878311 318.481605 
C 146.342047 345.123576 145.756435 372.55842 150.150801 399.412365 
C 154.545166 426.26631 163.844914 452.083519 177.584371 475.571221 
C 191.323827 499.058923 209.269768 519.818422 230.52357 536.810207 
C 251.777371 553.801992 275.978256 566.737632 301.914389 574.969388 
C 327.850522 583.201145 355.081646 586.589286 382.244189 584.964155 
C 409.406732 583.339023 436.03962 576.728205 460.809236 565.46273 
C 485.578852 554.197255 508.064741 538.468351 527.140944 519.063628 
C 546.217147 499.658904 561.559851 476.90775 572.400787 451.949406 
L 531.720629 434.279525 
C 523.047881 454.2462 510.773717 472.447123 495.512755 487.970902 
C 480.251793 503.494681 462.263082 516.077804 442.447389 525.090184 
C 422.631696 534.102564 401.325386 539.391219 379.595351 540.691324 
C 357.865317 541.991429 336.080417 539.280916 315.331511 532.695511 
C 294.582605 526.110106 275.221897 515.761593 258.218856 502.168166 
C 241.215815 488.574738 226.859062 471.967139 215.867496 453.176977 
C 204.875931 434.386815 197.436132 413.733048 193.92064 392.249892 
C 190.405148 370.766736 190.873637 348.818861 195.302648 327.505284 
C 199.731659 306.191708 208.046011 285.874221 219.829372 267.570202 
C 231.612732 249.266183 246.665081 233.286337 264.232688 220.430838 
C 281.800296 207.575339 301.584957 198.062406 322.595974 192.368388 
C 343.606991 186.674371 365.48771 184.895923 387.142474 187.1221 
C 408.797238 189.348277 429.858466 195.541289 449.271537 205.391028 
C 468.684608 215.240767 486.119992 228.580036 500.704629 244.740885 
C 515.289266 260.901734 526.775587 279.609838 534.588425 299.928406 
C 542.401264 320.246975 546.408 341.831108 546.408 363.6 
z
" style="opacity: 0.1"/>
   </g>
   <g id="patch_3">
    <path d="M 572.400787 451.949406 
C 578.439925 438.045912 583.037617 423.559774 586.121692 408.718385 
C 589.205766 393.876996 590.760001 378.758421 590.76 363.599979 
L 546.408 363.599983 
C 546.408001 375.726736 545.164613 387.821597 542.697353 399.694708 
C 540.230094 411.567819 536.55194 423.156729 531.720629 434.279525 
z
"/>
   </g>
   <g id="patch_4">
    <path d="M 546.408 363.6 
C 546.408 332.460709 538.209479 301.863414 522.639833 274.895998 
C 507.070188 247.928581 484.671413 225.529807 457.703995 209.960162 
C 430.736578 194.390518 400.139283 186.191999 368.999992 186.192 
C 337.860701 186.192001 307.263406 194.390524 280.29599 209.960171 
L 369 363.6 
z
" style="fill: #d62728"/>
   </g>
   <g id="patch_5">
    <path d="M 280.29599 209.960171 
C 253.328574 225.529818 230.929802 247.928594 215.360158 274.896012 
C 199.790515 301.86343 191.591997 332.460726 191.592 363.600017 
C 191.592003 394.739308 199.790526 425.336602 215.360175 452.304017 
C 230.929823 479.271432 253.3286 501.670204 280.296019 517.239846 
L 369 363.6 
z
" style="fill: #17becf"/>
   </g>
   <g id="patch_6">
    <path d="M 280.296019 517.239846 
C 307.263438 532.809488 337.860734 541.008004 369.000025 541.008 
C 400.139316 541.007996 430.736609 532.809471 457.704024 517.239821 
C 484.671439 501.670171 507.070209 479.271393 522.63985 452.303974 
C 538.209491 425.336554 546.408006 394.739258 546.408 363.599967 
L 369 363.6 
z
" style="fill: #9edae5"/>
   </g>
   <g id="matplotlib.axis_1"/>
   <g id="matplotlib.axis_2"/>
  </g>
 </g>
</svg>
