<?xml version="1.0" encoding="utf-8" standalone="no"?>
<!DOCTYPE svg PUBLIC "-//W3C//DTD SVG 1.1//EN"
  "http://www.w3.org/Graphics/SVG/1.1/DTD/svg11.dtd">
<svg xmlns:xlink="http://www.w3.org/1999/xlink" width="720pt" height="720pt" viewBox="0 0 720 720" xmlns="http://www.w3.org/2000/svg" version="1.1">
 <metadata>
  <rdf:RDF xmlns:dc="http://purl.org/dc/elements/1.1/" xmlns:cc="http://creativecommons.org/ns#" xmlns:rdf="http://www.w3.org/1999/02/22-rdf-syntax-ns#">
   <cc:Work>
    <dc:type rdf:resource="http://purl.org/dc/dcmitype/StillImage"/>
    <dc:date>2024-10-24T16:56:29.952034</dc:date>
    <dc:format>image/svg+xml</dc:format>
    <dc:creator>
     <cc:Agent>
      <dc:title>Matplotlib v3.8.2, https://matplotlib.org/</dc:title>
     </cc:Agent>
    </dc:creator>
   </cc:Work>
  </rdf:RDF>
 </metadata>
 <defs>
  <style type="text/css">*{stroke-linejoin: round; stroke-linecap: butt}</style>
 </defs>
 <g id="figure_1">
  <g id="patch_1">
   <path d="M 0 720 
L 720 720 
L 720 0 
L 0 0 
L 0 720 
z
" style="fill: none"/>
  </g>
  <g id="axes_1">
   <g id="patch_2">
    <path d="M 590.76 363.6 
C 590.76 339.862254 586.948578 316.277749 579.471483 293.748354 
C 571.994388 271.218959 560.948157 250.035556 546.755198 231.008194 
C 532.562239 211.980832 515.405799 195.355178 495.941939 181.766995 
C 476.478078 168.178811 454.958099 157.803539 432.204921 151.037926 
C 409.451744 144.272312 385.75914 141.203711 362.033112 141.949464 
C 338.307083 142.695217 314.853961 147.245697 292.57059 155.426892 
C 270.287218 163.608088 249.461303 175.314371 230.889225 190.098094 
C 212.317146 204.881818 196.238691 222.552106 183.268699 242.43325 
C 170.298706 262.314394 160.604634 284.149704 154.557182 307.104201 
C 148.50973 330.058697 146.186978 353.836011 147.677748 377.526899 
C 149.168518 401.217787 154.453563 424.516373 163.330782 446.531722 
C 172.208002 468.54707 184.56278 488.994937 199.922673 507.093397 
C 215.282566 525.191858 233.449258 540.70724 253.728058 553.046238 
C 274.006858 565.385235 296.135942 574.388537 319.269097 579.711857 
C 342.402252 585.035178 366.240801 586.609787 389.87316 584.375471 
C 413.50552 582.141156 436.626569 576.126764 458.35216 566.562285 
L 440.481728 525.969828 
C 423.101255 533.621411 404.604416 538.432925 385.698528 540.220377 
C 366.792641 542.007829 347.721802 540.748142 329.215278 536.489486 
C 310.708754 532.23083 293.005487 525.028188 276.782447 515.15699 
C 260.559407 505.285792 246.026053 492.873487 233.738138 478.394718 
C 221.450224 463.915949 211.566401 447.557656 204.464626 429.945377 
C 197.36285 412.333099 193.134815 393.69423 191.942199 374.741519 
C 190.749583 355.788808 192.607784 336.766958 197.445745 318.403361 
C 202.283707 300.039763 210.038965 282.571515 220.414959 266.6666 
C 230.790953 250.761685 243.653717 236.625454 258.51138 224.798475 
C 273.369043 212.971497 290.029775 203.60647 307.856472 197.061514 
C 325.683169 190.516557 344.445666 186.876174 363.426489 186.279571 
C 382.407312 185.682969 401.361395 188.13785 419.563937 193.55034 
C 437.766479 198.962831 454.982462 207.263049 470.553551 218.133596 
C 486.124639 229.004142 499.849791 242.304665 511.204159 257.526555 
C 522.558526 272.748444 531.39551 289.695167 537.377186 307.718683 
C 543.358863 325.742199 546.408 344.609803 546.408 363.6 
z
" style="opacity: 0.1"/>
   </g>
   <g id="patch_3">
    <path d="M 458.35216 566.562285 
C 497.729369 549.226854 531.223451 520.800926 554.731307 484.766741 
C 578.239163 448.732556 590.760004 406.624179 590.76 363.599979 
L 546.408 363.599983 
C 546.408003 398.019343 536.39133 431.706045 517.585046 460.533393 
C 498.778761 489.360741 471.983495 512.101483 440.481728 525.969828 
z
"/>
   </g>
   <g id="patch_4">
    <path d="M 546.408 363.6 
C 546.408 331.374274 537.627415 299.749464 521.013317 272.13662 
C 504.39922 244.523776 480.571219 221.952695 452.099402 206.857894 
C 423.627584 191.763092 391.573783 184.707518 359.395319 186.452184 
C 327.216855 188.196851 296.113797 198.676693 269.440919 216.761354 
C 242.768041 234.846016 221.520086 259.861045 207.988856 289.108322 
C 194.457627 318.355599 189.147759 350.744372 192.631974 382.781189 
C 196.11619 414.818006 208.264549 445.308081 227.766729 470.962757 
C 247.268909 496.617432 273.397593 516.479939 303.334543 528.407907 
L 369 363.6 
z
" style="fill: #bcbd22"/>
   </g>
   <g id="patch_5">
    <path d="M 303.334543 528.407907 
C 323.225797 536.333305 344.388545 540.59251 365.797059 540.979085 
C 387.205573 541.365659 408.508292 537.873254 428.672704 530.671143 
L 369 363.6 
z
" style="fill: #ffbb78"/>
   </g>
   <g id="patch_6">
    <path d="M 428.672704 530.671143 
C 446.811384 524.192561 463.774544 514.803069 478.8951 502.871912 
C 494.015657 490.940755 507.092769 476.626409 517.612176 460.491794 
L 369 363.6 
z
" style="fill: #d62728"/>
   </g>
   <g id="patch_7">
    <path d="M 517.612176 460.491794 
C 526.958468 446.156494 534.18158 430.543993 539.056738 414.140127 
C 543.931896 397.736261 546.408001 380.712969 546.408 363.599992 
L 369 363.6 
z
" style="fill: #9467bd"/>
   </g>
   <g id="matplotlib.axis_1"/>
   <g id="matplotlib.axis_2"/>
  </g>
 </g>
</svg>
