<?xml version="1.0" encoding="utf-8" standalone="no"?>
<!DOCTYPE svg PUBLIC "-//W3C//DTD SVG 1.1//EN"
  "http://www.w3.org/Graphics/SVG/1.1/DTD/svg11.dtd">
<svg xmlns:xlink="http://www.w3.org/1999/xlink" width="720pt" height="720pt" viewBox="0 0 720 720" xmlns="http://www.w3.org/2000/svg" version="1.1">
 <metadata>
  <rdf:RDF xmlns:dc="http://purl.org/dc/elements/1.1/" xmlns:cc="http://creativecommons.org/ns#" xmlns:rdf="http://www.w3.org/1999/02/22-rdf-syntax-ns#">
   <cc:Work>
    <dc:type rdf:resource="http://purl.org/dc/dcmitype/StillImage"/>
    <dc:date>2024-10-24T16:56:30.837676</dc:date>
    <dc:format>image/svg+xml</dc:format>
    <dc:creator>
     <cc:Agent>
      <dc:title>Matplotlib v3.8.2, https://matplotlib.org/</dc:title>
     </cc:Agent>
    </dc:creator>
   </cc:Work>
  </rdf:RDF>
 </metadata>
 <defs>
  <style type="text/css">*{stroke-linejoin: round; stroke-linecap: butt}</style>
 </defs>
 <g id="figure_1">
  <g id="patch_1">
   <path d="M 0 720 
L 720 720 
L 720 0 
L 0 0 
L 0 720 
z
" style="fill: none"/>
  </g>
  <g id="axes_1">
   <g id="patch_2">
    <path d="M 590.76 363.6 
C 590.76 340.936688 587.2858 318.406718 580.458619 296.796181 
C 573.631437 275.185644 563.53161 254.748836 550.511531 236.198816 
C 537.491452 217.648796 521.70433 201.203846 503.700992 187.437745 
C 485.697655 173.671643 465.68995 162.74638 444.375967 155.043146 
C 423.061983 147.339913 400.692526 142.949355 378.048086 142.024664 
C 355.403646 141.099972 332.750685 143.652028 310.879587 149.591787 
C 289.008488 155.531547 268.176612 164.789116 249.110803 177.041489 
C 230.044995 189.293862 212.969604 204.396863 198.480407 221.823535 
C 183.991211 239.250206 172.258705 258.795486 163.692249 279.777419 
C 155.125793 300.759353 149.82619 322.931043 147.978346 345.518897 
C 146.130503 368.106752 147.756165 390.844976 152.79861 412.940212 
C 157.841055 435.035448 166.240948 456.227697 177.70521 475.777542 
C 189.169471 495.327386 203.563199 513.004779 220.384181 528.192941 
C 237.205164 543.381102 256.255467 555.901309 276.870406 565.316721 
C 297.485346 574.732133 319.422342 580.931956 341.915993 583.699873 
C 364.409644 586.46779 387.195263 585.771231 409.477838 581.634498 
L 401.382271 538.027598 
C 383.556211 541.336984 365.327715 541.894232 347.332795 539.679899 
C 329.337874 537.465565 311.788277 532.505706 295.296325 524.973377 
C 278.804374 517.441047 263.564131 507.424881 250.107345 495.274352 
C 236.650559 483.123823 225.135577 468.981909 215.964168 453.342033 
C 206.792759 437.702158 200.072844 420.748359 196.038888 403.07217 
C 192.004932 385.395981 190.704403 367.205402 192.182677 349.135118 
C 193.660952 331.064834 197.900635 313.327482 204.753799 296.541935 
C 211.606964 279.756389 220.992969 264.120165 232.584326 250.178828 
C 244.175683 236.23749 257.835996 224.155089 273.088643 214.353191 
C 288.34129 204.551292 305.00679 197.145237 322.503669 192.39343 
C 340.000548 187.641622 358.122917 185.599978 376.238469 186.339731 
C 394.35402 187.079484 412.249586 190.59193 429.300773 196.754517 
C 446.35196 202.917104 462.358124 211.657315 476.760794 222.670196 
C 491.163464 233.683077 503.793162 246.839037 514.209225 261.679053 
C 524.625288 276.519069 532.70515 292.868516 538.166895 310.156945 
C 543.62864 327.445374 546.408 345.469351 546.408 363.6 
z
" style="opacity: 0.1"/>
   </g>
   <g id="patch_3">
    <path d="M 409.477838 581.634498 
C 460.388399 572.183014 506.415118 545.192397 539.519599 505.376457 
C 572.624081 465.560518 590.760005 415.380436 590.76 363.599979 
L 546.408 363.599983 
C 546.408004 405.024349 531.899264 445.168414 505.415679 477.021166 
C 478.932094 508.873918 442.110719 530.466411 401.382271 538.027598 
z
"/>
   </g>
   <g id="patch_4">
    <path d="M 546.408 363.6 
C 546.408 334.585995 539.290402 306.010158 525.681238 280.38589 
C 512.072073 254.761621 492.382393 232.862874 468.34401 216.615762 
C 444.305627 200.36865 416.644596 190.2639 387.793853 187.190279 
C 358.94311 184.116658 329.774062 188.167002 302.852285 198.985061 
C 275.930507 209.80312 252.069144 227.062145 233.36693 249.244113 
C 214.664716 271.426082 201.686534 297.861009 195.573882 326.223802 
C 189.461231 354.586594 190.398738 384.020583 198.303944 411.93689 
C 206.20915 439.853198 220.843287 465.408641 240.919203 486.35548 
L 369 363.6 
z
" style="fill: #bcbd22"/>
   </g>
   <g id="patch_5">
    <path d="M 240.919203 486.35548 
C 261.877079 508.22254 288.089912 524.362424 317.050888 533.231625 
C 346.011864 542.100826 376.767377 543.407306 406.376182 537.026121 
L 369 363.6 
z
" style="fill: #ffbb78"/>
   </g>
   <g id="patch_6">
    <path d="M 406.376182 537.026121 
C 431.010044 531.717119 454.232383 521.219961 474.492675 506.235528 
C 494.752967 491.251096 511.590032 472.120477 523.879682 450.120996 
L 369 363.6 
z
" style="fill: #d62728"/>
   </g>
   <g id="patch_7">
    <path d="M 523.879682 450.120996 
C 531.235915 436.952734 536.882808 422.899904 540.683564 408.302934 
C 544.48432 393.705964 546.407999 378.683684 546.408 363.600008 
L 369 363.6 
z
" style="fill: #9467bd"/>
   </g>
   <g id="matplotlib.axis_1"/>
   <g id="matplotlib.axis_2"/>
  </g>
 </g>
</svg>
