<?xml version="1.0" encoding="utf-8" standalone="no"?>
<!DOCTYPE svg PUBLIC "-//W3C//DTD SVG 1.1//EN"
  "http://www.w3.org/Graphics/SVG/1.1/DTD/svg11.dtd">
<svg xmlns:xlink="http://www.w3.org/1999/xlink" width="720pt" height="720pt" viewBox="0 0 720 720" xmlns="http://www.w3.org/2000/svg" version="1.1">
 <metadata>
  <rdf:RDF xmlns:dc="http://purl.org/dc/elements/1.1/" xmlns:cc="http://creativecommons.org/ns#" xmlns:rdf="http://www.w3.org/1999/02/22-rdf-syntax-ns#">
   <cc:Work>
    <dc:type rdf:resource="http://purl.org/dc/dcmitype/StillImage"/>
    <dc:date>2024-10-24T16:56:27.540906</dc:date>
    <dc:format>image/svg+xml</dc:format>
    <dc:creator>
     <cc:Agent>
      <dc:title>Matplotlib v3.8.2, https://matplotlib.org/</dc:title>
     </cc:Agent>
    </dc:creator>
   </cc:Work>
  </rdf:RDF>
 </metadata>
 <defs>
  <style type="text/css">*{stroke-linejoin: round; stroke-linecap: butt}</style>
 </defs>
 <g id="figure_1">
  <g id="patch_1">
   <path d="M 0 720 
L 720 720 
L 720 0 
L 0 0 
L 0 720 
z
" style="fill: none"/>
  </g>
  <g id="axes_1">
   <g id="patch_2">
    <path d="M 590.76 363.6 
C 590.76 340.329701 587.097211 317.203759 579.906293 295.07239 
C 572.715375 272.941021 562.085546 252.078808 548.407607 233.252741 
C 534.729669 214.426674 518.173322 197.870328 499.347255 184.192389 
C 480.521188 170.514451 459.658974 159.884623 437.527605 152.693706 
C 415.396236 145.502788 392.270293 141.839999 368.999995 141.84 
C 345.729696 141.840001 322.603754 145.502791 300.472385 152.693709 
C 278.341017 159.884627 257.478803 170.514457 238.652737 184.192396 
C 219.82667 197.870335 203.270324 214.426682 189.592386 233.252749 
C 175.914449 252.078817 165.284621 272.941031 158.093704 295.0724 
C 150.902787 317.20377 147.239999 340.329712 147.24 363.60001 
C 147.240001 386.870309 150.902792 409.996251 158.09371 432.12762 
C 165.284629 454.258988 175.914459 475.121201 189.592399 493.947268 
C 203.270338 512.773334 219.826686 529.329679 238.652753 543.007617 
C 257.478821 556.685554 278.341036 567.315381 300.472405 574.506298 
C 322.603775 581.697214 345.729717 585.360002 369.000016 585.36 
C 392.270314 585.359998 415.396256 581.697207 437.527624 574.506288 
L 423.8221 532.32503 
C 406.117005 538.077766 387.616251 541.007999 369.000012 541.008 
C 350.383774 541.008001 331.88302 538.077771 314.177924 532.325038 
C 296.472829 526.572305 279.783057 518.068443 264.722203 507.126093 
C 249.661348 496.183744 236.41627 482.938667 225.473919 467.877814 
C 214.531567 452.816961 206.027703 436.127191 200.274968 418.422096 
C 194.522233 400.717001 191.592001 382.216247 191.592 363.600008 
C 191.591999 344.983769 194.52223 326.483016 200.274963 308.77792 
C 206.027697 291.072825 214.531559 274.383053 225.473909 259.322199 
C 236.416259 244.261345 249.661336 231.016268 264.722189 220.073916 
C 279.783042 209.131565 296.472813 200.627702 314.177908 194.874967 
C 331.883003 189.122232 350.383757 186.192 368.999996 186.192 
C 387.616235 186.192 406.116988 189.122231 423.822084 194.874965 
C 441.527179 200.627698 458.21695 209.131561 473.277804 220.073912 
C 488.338658 231.016262 501.583735 244.261339 512.526086 259.322193 
C 523.468437 274.383046 531.9723 291.072817 537.725034 308.777912 
C 543.477768 326.483007 546.408 344.983761 546.408 363.6 
z
" style="opacity: 0.1"/>
   </g>
   <g id="patch_3">
    <path d="M 437.527624 574.506288 
C 482.059739 560.036923 520.885262 531.828525 548.40762 493.947242 
C 575.929978 456.06596 590.760004 410.423817 590.76 363.599979 
L 546.408 363.599983 
C 546.408004 401.059054 534.543982 437.572768 512.526096 467.877794 
C 490.508209 498.18282 459.447791 520.749538 423.8221 532.32503 
z
"/>
   </g>
   <g id="patch_4">
    <path d="M 546.408 363.6 
C 546.408 326.14093 534.543975 289.627217 512.526086 259.322193 
C 490.508197 229.017168 459.447777 206.450453 423.822084 194.874965 
C 388.196391 183.299476 349.803601 183.299477 314.177908 194.874967 
C 278.552216 206.450457 247.491797 229.017174 225.473909 259.322199 
L 369 363.6 
z
" style="fill: #bcbd22"/>
   </g>
   <g id="patch_5">
    <path d="M 225.473909 259.322199 
C 203.456021 289.627225 191.591998 326.140938 191.592 363.600008 
C 191.592002 401.059078 203.456028 437.572791 225.473919 467.877814 
L 369 363.6 
z
" style="fill: #f7b6d2"/>
   </g>
   <g id="patch_6">
    <path d="M 225.473919 467.877814 
C 247.49181 498.182837 278.552231 520.749551 314.177924 532.325038 
C 349.803618 543.900525 388.196408 543.900522 423.8221 532.32503 
L 369 363.6 
z
" style="fill: #d62728"/>
   </g>
   <g id="patch_7">
    <path d="M 423.8221 532.32503 
C 459.447791 520.749538 490.508209 498.18282 512.526096 467.877794 
C 534.543982 437.572768 546.408004 401.059054 546.408 363.599983 
L 369 363.6 
z
" style="fill: #9edae5"/>
   </g>
   <g id="matplotlib.axis_1"/>
   <g id="matplotlib.axis_2"/>
  </g>
 </g>
</svg>
