<?xml version="1.0" encoding="utf-8" standalone="no"?>
<!DOCTYPE svg PUBLIC "-//W3C//DTD SVG 1.1//EN"
  "http://www.w3.org/Graphics/SVG/1.1/DTD/svg11.dtd">
<svg xmlns:xlink="http://www.w3.org/1999/xlink" width="720pt" height="720pt" viewBox="0 0 720 720" xmlns="http://www.w3.org/2000/svg" version="1.1">
 <metadata>
  <rdf:RDF xmlns:dc="http://purl.org/dc/elements/1.1/" xmlns:cc="http://creativecommons.org/ns#" xmlns:rdf="http://www.w3.org/1999/02/22-rdf-syntax-ns#">
   <cc:Work>
    <dc:type rdf:resource="http://purl.org/dc/dcmitype/StillImage"/>
    <dc:date>2024-10-24T16:56:28.232189</dc:date>
    <dc:format>image/svg+xml</dc:format>
    <dc:creator>
     <cc:Agent>
      <dc:title>Matplotlib v3.8.2, https://matplotlib.org/</dc:title>
     </cc:Agent>
    </dc:creator>
   </cc:Work>
  </rdf:RDF>
 </metadata>
 <defs>
  <style type="text/css">*{stroke-linejoin: round; stroke-linecap: butt}</style>
 </defs>
 <g id="figure_1">
  <g id="patch_1">
   <path d="M 0 720 
L 720 720 
L 720 0 
L 0 0 
L 0 720 
z
" style="fill: none"/>
  </g>
  <g id="axes_1">
   <g id="patch_2">
    <path d="M 590.76 363.6 
C 590.76 336.279347 585.711176 309.192449 575.868354 283.706434 
C 566.025531 258.22042 551.557139 234.771405 533.193425 214.542908 
C 514.829712 194.314411 492.884916 177.652579 468.466635 165.39837 
C 444.048355 153.144161 417.574432 145.507267 390.381061 142.873138 
C 363.18769 140.239008 335.7402 142.652718 309.423922 149.992443 
C 283.107643 157.332167 258.372898 169.47231 236.468098 185.800133 
C 214.563298 202.127957 195.863277 222.36406 181.311861 245.487087 
C 166.760446 268.610114 156.606639 294.224386 151.362924 321.037098 
C 146.119209 347.84981 145.875315 375.402146 150.643553 402.303484 
C 155.411791 429.204821 165.110567 454.994828 179.250363 478.37183 
C 193.39016 501.748832 211.729019 522.312804 233.341341 539.025841 
C 254.953663 555.738879 279.46962 568.314989 305.651842 576.119431 
C 331.834064 583.923873 359.234524 586.823097 386.470265 584.670775 
C 413.706005 582.518452 440.310972 575.351413 464.942358 563.531392 
C 489.573744 551.711371 511.81006 535.440631 530.528993 515.54039 
C 549.247926 495.640149 564.129161 472.450936 574.42161 447.14316 
L 533.337288 430.434528 
C 525.103328 450.680749 513.198341 469.232119 498.223194 485.152312 
C 483.248048 501.072505 465.458995 514.089097 445.753886 523.545114 
C 426.048778 533.00113 404.764804 538.734762 382.976212 540.45662 
C 361.187619 542.178478 339.267251 539.859098 318.321474 533.615545 
C 297.375696 527.371991 277.76293 517.311103 260.473073 503.940673 
C 243.183215 490.570243 228.512128 474.119066 217.200291 455.417464 
C 205.888453 436.715863 198.129433 416.083857 194.314842 394.562787 
C 190.500252 373.041717 190.695367 350.999848 194.890339 329.549678 
C 199.085311 308.099509 207.208357 287.608091 218.849489 269.10967 
C 230.490621 250.611248 245.450639 234.422365 262.974478 221.360107 
C 280.498318 208.297848 300.286115 198.585734 321.339138 192.713954 
C 342.39216 186.842174 364.350152 184.911206 386.104849 187.01851 
C 407.859546 189.125814 429.038684 195.235329 448.573308 205.038696 
C 468.107933 214.842063 485.66377 228.171528 500.35474 244.354326 
C 515.045711 260.537124 526.620425 279.296336 534.494683 299.685148 
C 542.368941 320.073959 546.408 341.743478 546.408 363.6 
z
" style="opacity: 0.1"/>
   </g>
   <g id="patch_3">
    <path d="M 574.42161 447.14316 
C 579.804036 433.908486 583.894883 420.184573 586.637078 406.162895 
C 589.379272 392.141217 590.760001 377.887289 590.76 363.599984 
L 546.408 363.599988 
C 546.408001 375.029832 545.303418 386.432973 543.109662 397.650316 
C 540.915907 408.867658 537.643228 419.846789 533.337288 430.434528 
z
"/>
   </g>
   <g id="patch_4">
    <path d="M 546.408 363.6 
C 546.408 340.302995 541.818998 317.232524 532.90362 295.708898 
C 523.988242 274.185271 510.91987 254.62707 494.4464 238.1536 
C 477.97293 221.68013 458.414729 208.611758 436.891102 199.69638 
C 415.367476 190.781002 392.297005 186.192 369 186.192 
C 345.702995 186.192 322.632524 190.781002 301.108898 199.69638 
C 279.585271 208.611758 260.02707 221.68013 243.5536 238.1536 
C 227.08013 254.62707 214.011758 274.185271 205.09638 295.708898 
C 196.181002 317.232524 191.592 340.302995 191.592 363.6 
C 191.592 386.897005 196.181002 409.967476 205.09638 431.491102 
C 214.011758 453.014729 227.08013 472.57293 243.5536 489.0464 
C 260.02707 505.51987 279.585271 518.588242 301.108898 527.50362 
C 322.632524 536.418998 345.702995 541.008 369 541.008 
C 392.297005 541.008 415.367476 536.418998 436.891102 527.50362 
C 458.414729 518.588242 477.97293 505.51987 494.4464 489.0464 
C 510.91987 472.57293 523.988242 453.014729 532.90362 431.491102 
C 541.818998 409.967476 546.408 386.897005 546.408 363.6 
M 369 363.6 
z
" style="fill: #d62728"/>
   </g>
   <g id="matplotlib.axis_1"/>
   <g id="matplotlib.axis_2"/>
  </g>
 </g>
</svg>
