<?xml version="1.0" encoding="utf-8" standalone="no"?>
<!DOCTYPE svg PUBLIC "-//W3C//DTD SVG 1.1//EN"
  "http://www.w3.org/Graphics/SVG/1.1/DTD/svg11.dtd">
<svg xmlns:xlink="http://www.w3.org/1999/xlink" width="720pt" height="720pt" viewBox="0 0 720 720" xmlns="http://www.w3.org/2000/svg" version="1.1">
 <metadata>
  <rdf:RDF xmlns:dc="http://purl.org/dc/elements/1.1/" xmlns:cc="http://creativecommons.org/ns#" xmlns:rdf="http://www.w3.org/1999/02/22-rdf-syntax-ns#">
   <cc:Work>
    <dc:type rdf:resource="http://purl.org/dc/dcmitype/StillImage"/>
    <dc:date>2024-10-24T16:56:26.362752</dc:date>
    <dc:format>image/svg+xml</dc:format>
    <dc:creator>
     <cc:Agent>
      <dc:title>Matplotlib v3.8.2, https://matplotlib.org/</dc:title>
     </cc:Agent>
    </dc:creator>
   </cc:Work>
  </rdf:RDF>
 </metadata>
 <defs>
  <style type="text/css">*{stroke-linejoin: round; stroke-linecap: butt}</style>
 </defs>
 <g id="figure_1">
  <g id="patch_1">
   <path d="M 0 720 
L 720 720 
L 720 0 
L 0 0 
L 0 720 
z
" style="fill: none"/>
  </g>
  <g id="axes_1">
   <g id="patch_2">
    <path d="M 590.76 363.6 
C 590.76 321.861025 578.976031 280.957964 556.769557 245.616564 
C 534.563083 210.275165 502.82357 181.911003 465.218053 163.801141 
C 427.612535 145.69128 385.647278 138.561097 344.170749 143.234381 
C 302.69422 147.907665 263.367735 164.197231 230.734892 190.221058 
C 198.102049 216.244885 173.469935 250.960606 159.684428 290.357329 
C 145.898921 329.754053 143.512191 372.253769 152.79999 412.94626 
C 162.087789 453.63875 182.6781 490.894105 212.192015 520.408014 
C 241.70593 549.921924 278.961288 570.512228 319.653781 579.800019 
L 329.523025 536.560015 
C 296.969031 529.129782 267.164744 512.657539 243.553612 489.046412 
C 219.94248 465.435284 203.470231 435.631 196.039992 403.077008 
C 188.609753 370.523015 190.519137 336.523242 201.547542 305.005863 
C 212.575948 273.488485 232.281639 245.715908 258.387914 224.896846 
C 284.494188 204.077785 315.955376 191.046132 349.136599 187.307505 
C 382.317822 183.568878 415.890028 189.273024 445.974442 203.760913 
C 476.058856 218.248802 501.450466 240.940132 519.215645 269.213251 
C 536.980825 297.486371 546.408 330.20882 546.408 363.6 
z
" style="opacity: 0.1"/>
   </g>
   <g id="patch_3">
    <path d="M 319.653781 579.800019 
C 352.132338 587.213034 385.867715 587.21303 418.34627 579.800008 
C 450.824825 572.386985 481.219347 557.749749 507.265124 536.978929 
C 533.310901 516.208109 554.34456 489.832726 568.798872 459.818025 
C 583.253184 429.803323 590.760006 396.913761 590.76 363.599958 
L 546.408 363.599967 
C 546.408005 390.251009 540.402548 416.562659 528.839098 440.57442 
C 517.275648 464.586181 500.44872 485.686487 479.612099 502.303143 
C 458.775478 518.919799 434.45986 530.629588 408.477016 536.560006 
C 382.494172 542.490424 355.50587 542.490427 329.523025 536.560015 
z
"/>
   </g>
   <g id="patch_4">
    <path d="M 546.408 363.6 
C 546.408 328.516212 536.000869 294.2085 516.509361 265.037396 
C 497.017853 235.866293 469.304296 213.122364 436.891102 199.69638 
C 404.477909 186.270396 368.799079 182.756337 334.389416 189.600845 
C 299.979753 196.445352 268.361585 213.345616 243.5536 238.1536 
C 218.745616 262.961585 201.845352 294.579753 195.000845 328.989416 
C 188.156337 363.399079 191.670396 399.077909 205.09638 431.491102 
C 218.522364 463.904296 241.266293 491.617853 270.437396 511.109361 
C 299.6085 530.600869 333.916212 541.008 369 541.008 
L 369 363.6 
z
" style="fill: #c7c7c7"/>
   </g>
   <g id="patch_5">
    <path d="M 369 541.008 
C 416.033482 541.008 461.188706 522.304094 494.4464 489.0464 
C 527.704094 455.788706 546.408 410.633482 546.408 363.6 
L 369 363.6 
z
" style="fill: #9edae5"/>
   </g>
   <g id="matplotlib.axis_1"/>
   <g id="matplotlib.axis_2"/>
  </g>
 </g>
</svg>
