<?xml version="1.0" encoding="utf-8" standalone="no"?>
<!DOCTYPE svg PUBLIC "-//W3C//DTD SVG 1.1//EN"
  "http://www.w3.org/Graphics/SVG/1.1/DTD/svg11.dtd">
<svg xmlns:xlink="http://www.w3.org/1999/xlink" width="720pt" height="720pt" viewBox="0 0 720 720" xmlns="http://www.w3.org/2000/svg" version="1.1">
 <metadata>
  <rdf:RDF xmlns:dc="http://purl.org/dc/elements/1.1/" xmlns:cc="http://creativecommons.org/ns#" xmlns:rdf="http://www.w3.org/1999/02/22-rdf-syntax-ns#">
   <cc:Work>
    <dc:type rdf:resource="http://purl.org/dc/dcmitype/StillImage"/>
    <dc:date>2024-10-24T16:56:27.566031</dc:date>
    <dc:format>image/svg+xml</dc:format>
    <dc:creator>
     <cc:Agent>
      <dc:title>Matplotlib v3.8.2, https://matplotlib.org/</dc:title>
     </cc:Agent>
    </dc:creator>
   </cc:Work>
  </rdf:RDF>
 </metadata>
 <defs>
  <style type="text/css">*{stroke-linejoin: round; stroke-linecap: butt}</style>
 </defs>
 <g id="figure_1">
  <g id="patch_1">
   <path d="M 0 720 
L 720 720 
L 720 0 
L 0 0 
L 0 720 
z
" style="fill: none"/>
  </g>
  <g id="axes_1">
   <g id="patch_2">
    <path d="M 590.76 363.6 
C 590.76 336.267458 585.706781 309.168976 575.855609 283.673441 
C 566.004436 258.177907 551.524029 234.721979 533.14587 214.49054 
C 514.76771 194.259101 492.806558 177.598652 468.371788 165.3508 
C 443.937018 153.102948 417.44712 145.477461 390.240239 142.859542 
C 363.033359 140.241623 335.575463 142.676109 309.253596 150.040021 
C 282.931729 157.403932 258.196702 169.57115 236.298012 185.927042 
C 214.399321 202.282935 195.712023 222.547377 181.180111 245.696706 
C 166.648199 268.846034 156.520559 294.483773 151.308793 321.314825 
C 146.097027 348.145877 145.890394 375.710711 150.699334 402.616881 
C 155.508274 429.52305 165.250425 455.309738 179.433658 478.674322 
C 193.616891 502.038905 211.998293 522.581223 233.649321 539.263574 
C 255.300349 555.945925 279.850191 568.482593 306.058702 576.240285 
C 332.267214 583.997976 359.685527 586.843826 386.928597 584.634077 
C 414.171668 582.424327 440.772907 575.196822 465.388546 563.316664 
C 490.004185 551.436505 512.212636 535.107161 530.892032 515.153514 
C 549.571428 495.199867 564.40185 471.963659 574.634134 446.618675 
L 533.507307 430.01494 
C 525.32148 450.290927 513.457142 468.879893 498.513626 484.842811 
C 483.570109 500.805729 465.803348 513.869204 446.110837 523.373331 
C 426.418326 532.877458 405.137334 538.659461 383.342878 540.427261 
C 361.548422 542.195061 339.613771 539.918381 318.646962 533.712228 
C 297.680153 527.506075 278.040279 517.47674 260.719457 504.130859 
C 243.398634 490.784979 228.693513 474.351124 217.346926 455.659457 
C 206.00034 436.967791 198.20662 416.33844 194.359468 394.813505 
C 190.512315 373.288569 190.677621 351.236702 194.847034 329.77186 
C 199.016448 308.307019 207.118559 287.796827 218.744089 269.277365 
C 230.369618 250.757902 245.319457 234.546348 262.838409 221.461634 
C 280.357362 208.37692 300.145384 198.643146 321.202877 192.752016 
C 342.26037 186.860887 364.226687 184.913298 385.992191 187.007634 
C 407.757696 189.101969 428.949615 195.202359 448.497431 205.00064 
C 468.045247 214.798921 485.614168 228.127281 500.316696 244.312432 
C 515.019223 260.497583 526.603549 279.262326 534.484487 299.658753 
C 542.365425 320.05518 546.408 341.733966 546.408 363.6 
z
" style="opacity: 0.1"/>
   </g>
   <g id="patch_3">
    <path d="M 574.634134 446.618675 
C 579.947376 433.457976 583.98493 419.817543 586.691205 405.885185 
C 589.39748 391.952827 590.759999 377.792784 590.76 363.600021 
L 546.408 363.600017 
C 546.407999 374.954227 545.317984 386.282262 543.152964 397.428148 
C 540.987944 408.574034 537.7579 419.486381 533.507307 430.01494 
z
"/>
   </g>
   <g id="patch_4">
    <path d="M 546.408 363.6 
C 546.408 333.719429 538.858888 304.317582 524.463812 278.133039 
C 510.068737 251.948495 489.288951 229.820274 464.059949 213.809465 
C 438.830948 197.798656 409.96113 188.418286 380.139522 186.542073 
C 350.317913 184.66586 320.500072 190.353921 293.463325 203.076453 
L 369 363.6 
z
" style="fill: #d62728"/>
   </g>
   <g id="patch_5">
    <path d="M 293.463325 203.076453 
C 266.426577 215.798985 243.037249 235.148326 225.473895 259.322219 
C 207.91054 283.496113 196.735933 311.719965 192.99091 341.364919 
L 369 363.6 
z
" style="fill: #1f77b4"/>
   </g>
   <g id="patch_6">
    <path d="M 192.99091 341.364919 
C 189.245888 371.009874 193.050451 401.126032 204.050229 428.908282 
C 215.050008 456.690531 232.892543 481.248659 255.915924 500.295246 
L 369 363.6 
z
" style="fill: #e377c2"/>
   </g>
   <g id="patch_7">
    <path d="M 255.915924 500.295246 
C 281.852777 521.752064 313.368588 535.390162 346.764936 539.609092 
C 380.161284 543.828021 414.078621 538.456032 444.536705 524.123533 
C 474.99479 509.791034 500.753688 487.081495 518.790562 458.659907 
C 536.827436 430.23832 546.408013 397.261714 546.408 363.599934 
L 369 363.6 
z
" style="fill: #9edae5"/>
   </g>
   <g id="matplotlib.axis_1"/>
   <g id="matplotlib.axis_2"/>
  </g>
 </g>
</svg>
