<?xml version="1.0" encoding="utf-8" standalone="no"?>
<!DOCTYPE svg PUBLIC "-//W3C//DTD SVG 1.1//EN"
  "http://www.w3.org/Graphics/SVG/1.1/DTD/svg11.dtd">
<svg xmlns:xlink="http://www.w3.org/1999/xlink" width="720pt" height="720pt" viewBox="0 0 720 720" xmlns="http://www.w3.org/2000/svg" version="1.1">
 <metadata>
  <rdf:RDF xmlns:dc="http://purl.org/dc/elements/1.1/" xmlns:cc="http://creativecommons.org/ns#" xmlns:rdf="http://www.w3.org/1999/02/22-rdf-syntax-ns#">
   <cc:Work>
    <dc:type rdf:resource="http://purl.org/dc/dcmitype/StillImage"/>
    <dc:date>2024-10-24T16:56:26.990576</dc:date>
    <dc:format>image/svg+xml</dc:format>
    <dc:creator>
     <cc:Agent>
      <dc:title>Matplotlib v3.8.2, https://matplotlib.org/</dc:title>
     </cc:Agent>
    </dc:creator>
   </cc:Work>
  </rdf:RDF>
 </metadata>
 <defs>
  <style type="text/css">*{stroke-linejoin: round; stroke-linecap: butt}</style>
 </defs>
 <g id="figure_1">
  <g id="patch_1">
   <path d="M 0 720 
L 720 720 
L 720 0 
L 0 0 
L 0 720 
z
" style="fill: none"/>
  </g>
  <g id="axes_1">
   <g id="patch_2">
    <path d="M 590.76 363.6 
C 590.76 335.889529 585.566073 308.422976 575.447786 282.625873 
C 565.3295 256.828771 550.464984 233.155271 531.625718 212.834044 
C 512.786452 192.512817 490.304096 175.901614 465.345499 163.862566 
C 440.386903 151.823519 413.391456 144.568572 385.76024 142.474262 
C 358.129024 140.379952 330.348481 143.483149 303.860439 151.622796 
C 277.372397 159.762442 252.643172 172.79524 230.956227 190.04478 
C 209.269282 207.29432 191.006411 228.456928 177.115469 252.434249 
C 163.224526 276.41157 153.95006 302.78149 149.77342 330.175393 
C 145.596781 357.569296 146.591497 385.504917 152.705941 412.53238 
C 158.820386 439.559844 169.946917 465.203337 185.508059 488.131945 
C 201.069201 511.060553 220.791004 530.870623 243.649894 546.534 
C 266.508784 562.197378 292.102334 573.438311 319.102223 579.673389 
C 346.102112 585.908467 374.033013 587.027923 401.445294 582.973655 
C 428.857575 578.919387 455.268648 569.762771 479.307762 555.979041 
C 503.346875 542.19531 524.590827 524.027125 541.93704 502.417426 
C 559.283253 480.807727 572.426353 456.136948 580.684203 429.685518 
L 538.347363 416.468415 
C 531.741082 437.629558 521.226603 457.366182 507.349632 474.653941 
C 493.472661 491.9417 476.4775 506.476248 457.246209 517.503233 
C 438.014918 528.530217 416.88606 535.85551 394.956235 539.098924 
C 373.026411 542.342338 350.68169 541.446774 329.081779 536.458711 
C 307.481867 531.470649 287.007027 522.477902 268.719915 509.9472 
C 250.432804 497.416499 234.655361 481.568442 222.206447 463.225556 
C 209.757534 444.882669 200.856309 424.367875 195.964753 402.745904 
C 191.073197 381.123934 190.277425 358.775436 193.618736 336.860314 
C 196.960048 314.945192 204.379621 293.849256 215.492375 274.667399 
C 226.605129 255.485542 241.215425 238.555456 258.564981 224.755824 
C 275.914537 210.956192 295.697917 200.529953 316.888351 194.018236 
C 338.078785 187.50652 360.303219 185.023962 382.408192 186.69941 
C 404.513165 188.374858 426.109522 194.178815 446.076399 203.810053 
C 466.043277 213.441291 484.029162 226.730254 499.100575 242.987235 
C 514.171988 259.244217 526.0636 278.183017 534.158229 298.820699 
C 542.252858 319.458381 546.408 341.431623 546.408 363.6 
z
" style="opacity: 0.1"/>
   </g>
   <g id="patch_3">
    <path d="M 580.684203 429.685518 
C 584.018722 419.004434 586.54005 408.086274 588.226578 397.02462 
C 589.913105 385.962965 590.759999 374.789511 590.76 363.600026 
L 546.408 363.600021 
C 546.407999 372.551609 545.730484 381.490372 544.381262 390.339696 
C 543.03204 399.189019 541.014978 407.923547 538.347363 416.468415 
z
"/>
   </g>
   <g id="patch_4">
    <path d="M 546.408 363.6 
C 546.408 332.460709 538.209479 301.863414 522.639833 274.895998 
C 507.070188 247.928581 484.671413 225.529807 457.703995 209.960162 
C 430.736578 194.390518 400.139283 186.191999 368.999992 186.192 
C 337.860701 186.192001 307.263406 194.390524 280.29599 209.960171 
L 369 363.6 
z
" style="fill: #c7c7c7"/>
   </g>
   <g id="patch_5">
    <path d="M 280.29599 209.960171 
C 253.328574 225.529818 230.929802 247.928594 215.360158 274.896012 
C 199.790515 301.86343 191.591997 332.460726 191.592 363.600017 
L 369 363.6 
z
" style="fill: #dbdb8d"/>
   </g>
   <g id="patch_6">
    <path d="M 191.592 363.600017 
C 191.592002 386.897025 196.181007 409.967498 205.096389 431.491125 
C 214.011771 453.014753 227.080148 472.572954 243.553624 489.046423 
C 260.027099 505.519893 279.585305 518.588262 301.108936 527.503636 
C 322.632567 536.41901 345.703042 541.008007 369.00005 541.008 
C 392.297058 541.007993 415.36753 536.418984 436.891156 527.503598 
C 458.414782 518.588212 477.972981 505.519831 494.446447 489.046353 
C 510.919913 472.572874 523.988279 453.014666 532.903649 431.491033 
C 541.819019 409.967401 546.408011 386.896925 546.408 363.599917 
L 369 363.6 
z
" style="fill: #9edae5"/>
   </g>
   <g id="matplotlib.axis_1"/>
   <g id="matplotlib.axis_2"/>
  </g>
 </g>
</svg>
