<?xml version="1.0" encoding="utf-8" standalone="no"?>
<!DOCTYPE svg PUBLIC "-//W3C//DTD SVG 1.1//EN"
  "http://www.w3.org/Graphics/SVG/1.1/DTD/svg11.dtd">
<svg xmlns:xlink="http://www.w3.org/1999/xlink" width="720pt" height="720pt" viewBox="0 0 720 720" xmlns="http://www.w3.org/2000/svg" version="1.1">
 <metadata>
  <rdf:RDF xmlns:dc="http://purl.org/dc/elements/1.1/" xmlns:cc="http://creativecommons.org/ns#" xmlns:rdf="http://www.w3.org/1999/02/22-rdf-syntax-ns#">
   <cc:Work>
    <dc:type rdf:resource="http://purl.org/dc/dcmitype/StillImage"/>
    <dc:date>2024-10-24T16:56:28.314993</dc:date>
    <dc:format>image/svg+xml</dc:format>
    <dc:creator>
     <cc:Agent>
      <dc:title>Matplotlib v3.8.2, https://matplotlib.org/</dc:title>
     </cc:Agent>
    </dc:creator>
   </cc:Work>
  </rdf:RDF>
 </metadata>
 <defs>
  <style type="text/css">*{stroke-linejoin: round; stroke-linecap: butt}</style>
 </defs>
 <g id="figure_1">
  <g id="patch_1">
   <path d="M 0 720 
L 720 720 
L 720 0 
L 0 0 
L 0 720 
z
" style="fill: none"/>
  </g>
  <g id="axes_1">
   <g id="patch_2">
    <path d="M 590.76 363.6 
C 590.76 336.488816 585.788299 309.606042 576.09205 284.288082 
C 566.395802 258.970123 552.138388 235.643583 534.028576 215.468077 
C 515.918764 195.292571 494.261704 178.608056 470.134016 166.243955 
C 446.006328 153.879854 419.814562 146.044503 392.86077 143.127414 
C 365.906978 140.210324 338.645329 142.26065 312.431061 149.176464 
C 286.216794 156.092278 261.491616 167.75705 239.484671 183.590897 
C 217.477727 199.424744 198.559832 219.160867 183.671437 241.81814 
C 168.783042 264.475413 158.175016 289.672062 152.374707 316.155505 
C 146.574399 342.638948 145.679542 369.96294 149.734623 396.769145 
C 153.789704 423.57535 162.726395 449.412085 176.100433 472.994948 
C 189.474471 496.577811 207.060504 517.509433 227.984291 534.749254 
C 248.908078 551.989076 272.817054 565.246609 298.522651 573.86279 
C 324.228249 582.478972 351.297329 586.30862 378.384228 585.161355 
C 405.471127 584.014089 432.119432 577.909242 457.004397 567.150298 
C 481.889361 556.391354 504.591674 541.159601 523.982753 522.212243 
C 543.373833 503.264886 559.12694 480.921186 570.458953 456.291898 
L 530.167162 437.753519 
C 521.101552 457.456949 508.499066 475.331909 492.986203 490.489795 
C 477.473339 505.647681 459.311489 517.833083 439.403517 526.440238 
C 419.495546 535.047394 398.176902 539.931271 376.507383 540.849084 
C 354.837863 541.766896 333.182599 538.703177 312.618121 531.810232 
C 292.053643 524.917287 272.926462 514.311261 256.187433 500.519404 
C 239.448403 486.727546 225.379577 469.982249 214.680346 451.115959 
C 203.981116 432.249668 196.831764 411.58028 193.587699 390.135316 
C 190.343634 368.690352 191.059519 346.831158 195.699766 325.644404 
C 200.340013 304.45765 208.826434 284.300331 220.73715 266.174512 
C 232.647865 248.048694 247.782181 232.259795 265.387737 219.592717 
C 282.993293 206.92564 302.773435 197.593822 323.744849 192.061171 
C 344.716263 186.52852 366.525582 184.88826 388.088616 187.221931 
C 409.65165 189.555603 430.605062 195.823884 449.907213 205.715164 
C 469.209363 215.606445 486.535011 228.954057 501.022861 245.094462 
C 515.51071 261.234866 526.916642 279.896098 534.67364 300.150466 
C 542.430639 320.404834 546.408 341.911052 546.408 363.6 
z
" style="opacity: 0.1"/>
   </g>
   <g id="patch_3">
    <path d="M 570.458953 456.291898 
C 577.127225 441.798905 582.212127 426.628558 585.625293 411.044495 
C 589.038458 395.460432 590.76 379.553455 590.76 363.6 
L 546.408 363.6 
C 546.408 376.362764 545.030767 389.088346 542.300234 401.555596 
C 539.569702 414.022846 535.50178 426.159124 530.167162 437.753519 
z
"/>
   </g>
   <g id="patch_4">
    <path d="M 546.408 363.6 
C 546.408 319.395522 529.886458 276.748506 500.106094 244.081003 
C 470.32573 211.4135 429.385053 191.027466 385.369144 186.948791 
C 341.353235 182.870117 297.363728 195.386211 262.087793 222.025361 
C 226.811859 248.66451 202.735259 287.549555 194.612708 331.001367 
L 369 363.6 
z
" style="fill: #c7c7c7"/>
   </g>
   <g id="patch_5">
    <path d="M 194.612708 331.001367 
C 190.585171 352.546789 190.585171 374.653216 194.612709 396.198637 
C 198.640246 417.744058 206.626009 438.357687 218.16468 456.993279 
L 369 363.6 
z
" style="fill: #c5b0d5"/>
   </g>
   <g id="patch_6">
    <path d="M 218.16468 456.993279 
C 229.70335 475.628872 244.596354 491.965718 262.087797 505.174642 
C 279.579239 518.383566 299.368101 528.237248 320.449999 534.235565 
L 369 363.6 
z
" style="fill: #dbdb8d"/>
   </g>
   <g id="patch_7">
    <path d="M 320.449999 534.235565 
C 346.844106 541.745335 374.624213 543.029686 401.598641 537.987291 
C 428.573068 532.944895 454.013285 521.711939 475.912213 505.174634 
C 497.811142 488.63733 515.57733 467.242319 527.809135 442.677538 
C 540.04094 418.112758 546.408003 391.041658 546.408 363.599983 
L 369 363.6 
z
" style="fill: #9edae5"/>
   </g>
   <g id="matplotlib.axis_1"/>
   <g id="matplotlib.axis_2"/>
  </g>
 </g>
</svg>
