<?xml version="1.0" encoding="utf-8" standalone="no"?>
<!DOCTYPE svg PUBLIC "-//W3C//DTD SVG 1.1//EN"
  "http://www.w3.org/Graphics/SVG/1.1/DTD/svg11.dtd">
<svg xmlns:xlink="http://www.w3.org/1999/xlink" width="720pt" height="720pt" viewBox="0 0 720 720" xmlns="http://www.w3.org/2000/svg" version="1.1">
 <metadata>
  <rdf:RDF xmlns:dc="http://purl.org/dc/elements/1.1/" xmlns:cc="http://creativecommons.org/ns#" xmlns:rdf="http://www.w3.org/1999/02/22-rdf-syntax-ns#">
   <cc:Work>
    <dc:type rdf:resource="http://purl.org/dc/dcmitype/StillImage"/>
    <dc:date>2024-10-24T16:56:25.579676</dc:date>
    <dc:format>image/svg+xml</dc:format>
    <dc:creator>
     <cc:Agent>
      <dc:title>Matplotlib v3.8.2, https://matplotlib.org/</dc:title>
     </cc:Agent>
    </dc:creator>
   </cc:Work>
  </rdf:RDF>
 </metadata>
 <defs>
  <style type="text/css">*{stroke-linejoin: round; stroke-linecap: butt}</style>
 </defs>
 <g id="figure_1">
  <g id="patch_1">
   <path d="M 0 720 
L 720 720 
L 720 0 
L 0 0 
L 0 720 
z
" style="fill: none"/>
  </g>
  <g id="axes_1">
   <g id="patch_2">
    <path d="M 590.76 363.6 
C 590.76 324.435858 580.385068 285.96186 560.69481 252.107411 
C 541.004552 218.252962 512.692926 190.211215 478.651438 170.846116 
C 444.60995 151.481017 406.038346 141.475061 366.876001 141.850172 
C 327.713656 142.225283 289.340793 152.96824 255.676488 172.98185 
C 222.012183 192.995459 194.24289 221.574369 175.204725 255.799773 
C 156.166561 290.025177 146.5305 328.690847 147.280687 367.847803 
C 148.030874 407.004759 159.140871 445.272967 179.475996 478.744039 
C 199.811122 512.215111 228.654693 539.709404 263.060873 558.418887 
L 284.248698 519.45511 
C 256.723754 504.487523 233.648898 482.492089 217.380797 455.715231 
C 201.112697 428.938374 192.2247 398.323807 191.62455 366.998243 
C 191.0244 335.672678 198.733248 304.740141 213.96378 277.359818 
C 229.194312 249.979495 251.409747 227.116367 278.34119 211.10548 
C 305.272634 195.094592 335.970925 186.500226 367.300801 186.200138 
C 398.630677 185.900049 429.48796 193.904813 456.72115 209.396893 
C 483.954341 224.888972 506.603642 247.322369 522.355848 274.405929 
C 538.108054 301.489488 546.408 332.268687 546.408 363.6 
z
" style="opacity: 0.1"/>
   </g>
   <g id="patch_3">
    <path d="M 263.060873 558.418887 
C 296.834574 576.78444 334.810658 586.05571 373.247803 585.319313 
C 411.684948 584.582916 449.278048 573.863856 482.323512 554.21815 
C 515.368976 534.572445 542.744768 506.667151 561.753884 473.251438 
C 580.763 439.835724 590.76 402.044199 590.76 363.6 
L 546.408 363.6 
C 546.408 394.355359 538.4104 424.588579 523.203107 451.32115 
C 507.995814 478.053721 486.095181 500.377956 459.65881 516.09452 
C 433.222439 531.811085 403.147959 540.386333 372.398243 540.97545 
C 341.648526 541.564568 311.267659 534.147552 284.248698 519.45511 
z
"/>
   </g>
   <g id="patch_4">
    <path d="M 546.408 363.6 
C 546.408 345.502905 543.638918 327.511891 538.197017 310.252385 
C 532.755115 292.992878 524.704192 276.667222 514.324125 261.84295 
C 503.944057 247.018678 491.356537 233.869582 476.999145 222.852769 
C 462.641754 211.835956 446.682813 203.080581 429.677106 196.89101 
C 412.671399 190.70144 394.818294 187.150237 376.738424 186.360853 
C 358.658553 185.571469 340.563877 187.553159 323.083425 192.237032 
C 305.602974 196.920906 288.941681 204.252051 273.678746 213.975614 
C 258.415811 223.699177 244.730171 235.701162 233.097583 249.564341 
C 221.464995 263.427521 212.021834 278.989369 205.096377 295.708905 
C 198.170919 312.428441 193.844355 330.109653 192.26709 348.137883 
C 190.689825 366.166114 191.880351 384.330007 195.79728 401.998129 
C 199.714209 419.666251 206.311622 436.631466 215.360171 452.30401 
C 224.408719 467.976553 235.802322 482.172686 249.144901 494.398906 
C 262.48748 506.625125 277.622612 516.738096 294.024151 524.386257 
C 310.42569 532.034419 327.901351 537.128108 345.843623 539.490252 
C 363.785895 541.852395 381.984431 541.4553 399.80659 538.312771 
L 369 363.6 
z
" style="fill: #2ca02c"/>
   </g>
   <g id="patch_5">
    <path d="M 399.80659 538.312771 
C 440.872254 531.071783 478.098717 509.579071 504.902423 477.635652 
C 531.706129 445.692234 546.408004 405.299152 546.408 363.599983 
L 369 363.6 
z
" style="fill: #9edae5"/>
   </g>
   <g id="matplotlib.axis_1"/>
   <g id="matplotlib.axis_2"/>
  </g>
 </g>
</svg>
