<?xml version="1.0" encoding="utf-8" standalone="no"?>
<!DOCTYPE svg PUBLIC "-//W3C//DTD SVG 1.1//EN"
  "http://www.w3.org/Graphics/SVG/1.1/DTD/svg11.dtd">
<svg xmlns:xlink="http://www.w3.org/1999/xlink" width="720pt" height="720pt" viewBox="0 0 720 720" xmlns="http://www.w3.org/2000/svg" version="1.1">
 <metadata>
  <rdf:RDF xmlns:dc="http://purl.org/dc/elements/1.1/" xmlns:cc="http://creativecommons.org/ns#" xmlns:rdf="http://www.w3.org/1999/02/22-rdf-syntax-ns#">
   <cc:Work>
    <dc:type rdf:resource="http://purl.org/dc/dcmitype/StillImage"/>
    <dc:date>2024-10-24T16:56:27.063728</dc:date>
    <dc:format>image/svg+xml</dc:format>
    <dc:creator>
     <cc:Agent>
      <dc:title>Matplotlib v3.8.2, https://matplotlib.org/</dc:title>
     </cc:Agent>
    </dc:creator>
   </cc:Work>
  </rdf:RDF>
 </metadata>
 <defs>
  <style type="text/css">*{stroke-linejoin: round; stroke-linecap: butt}</style>
 </defs>
 <g id="figure_1">
  <g id="patch_1">
   <path d="M 0 720 
L 720 720 
L 720 0 
L 0 0 
L 0 720 
z
" style="fill: none"/>
  </g>
  <g id="axes_1">
   <g id="patch_2">
    <path d="M 590.76 363.6 
C 590.76 331.189662 583.654818 299.16991 569.946124 269.80153 
C 556.237429 240.43315 536.255636 214.423997 511.411579 193.610471 
C 486.567521 172.796946 457.460006 157.680708 426.144196 149.329054 
C 394.828387 140.9774 362.059076 139.591627 330.149972 145.269579 
C 298.240869 150.94753 267.961064 163.552353 241.448494 182.194071 
C 214.935924 200.83579 192.82961 225.06509 176.69039 253.171239 
C 160.551169 281.277387 150.768039 312.582954 148.031748 344.877578 
C 145.295456 377.172202 149.671954 409.6775 160.852235 440.098403 
L 202.481788 424.798722 
C 193.537563 400.462 190.036365 374.457762 192.225398 348.622062 
C 194.414431 322.786363 202.240935 297.74191 215.152312 275.256991 
C 228.063688 252.772072 245.748739 233.388632 266.958795 218.475257 
C 288.168851 203.561882 312.392695 193.478024 337.919978 188.935663 
C 363.447261 184.393302 389.66271 185.50192 414.715357 192.183243 
C 439.768005 198.864566 463.054017 210.957556 482.929263 227.608377 
C 502.804509 244.259198 518.789943 265.06652 529.756899 288.561224 
C 540.723855 312.055928 546.408 337.671729 546.408 363.6 
z
" style="opacity: 0.1"/>
   </g>
   <g id="patch_3">
    <path d="M 160.852235 440.098403 
C 178.812381 488.966928 213.421165 529.983362 258.571239 555.90961 
C 303.721313 581.835859 356.590838 591.051555 407.850028 581.930421 
C 459.109217 572.809288 505.554417 545.921388 538.989529 506.011579 
C 572.42464 466.10177 590.76 415.664379 590.76 363.6 
L 546.408 363.6 
C 546.408 405.251503 531.739712 445.601416 504.991623 477.529263 
C 478.243534 509.45711 441.087373 530.96743 400.080022 538.264337 
C 359.072671 545.561244 316.77705 538.188687 280.656991 517.447688 
C 244.536932 496.70669 216.849905 463.893542 202.481788 424.798722 
z
"/>
   </g>
   <g id="patch_4">
    <path d="M 546.408 363.6 
C 546.408 342.196151 542.534516 320.967909 534.975148 300.943406 
C 527.41578 280.918903 516.294571 262.426721 502.150146 246.362475 
C 488.00572 230.29823 471.070173 216.92552 452.163731 206.892016 
C 433.257289 196.858511 412.690187 190.328852 391.458537 187.619283 
C 370.226886 184.909715 348.679075 186.064699 327.858714 191.028296 
C 307.038352 195.991893 287.28708 204.682657 269.561496 216.679674 
C 251.835911 228.67669 236.426873 243.783101 224.080675 261.26727 
C 211.734477 278.751439 202.653707 298.326467 197.278168 319.044294 
C 191.902629 339.76212 190.320528 361.282786 192.608489 382.563999 
C 194.89645 403.845211 201.01693 424.537766 210.673501 443.639478 
C 220.330071 462.74119 233.364278 479.938619 249.144846 494.398855 
C 264.925414 508.859092 283.193399 520.344858 303.064044 528.299873 
C 322.934688 536.254888 344.081933 540.548617 365.481573 540.973107 
C 386.881212 541.397597 408.182099 537.945881 428.352584 530.785135 
C 448.523069 523.624388 467.232175 512.872111 483.573779 499.049059 
C 499.915382 485.226008 513.621335 468.559005 524.027826 449.85527 
L 369 363.6 
z
" style="fill: #8c564b"/>
   </g>
   <g id="patch_5">
    <path d="M 524.027826 449.85527 
C 525.852753 446.575303 527.573127 443.238246 529.186352 439.849139 
C 530.799576 436.460032 532.304838 433.020581 533.699864 429.53598 
L 369 363.6 
z
" style="fill: #d62728"/>
   </g>
   <g id="patch_6">
    <path d="M 533.699864 429.53598 
C 535.094889 426.051379 536.378977 422.523383 537.550187 418.957319 
C 538.721398 415.391256 539.779141 411.788921 540.721819 408.155755 
L 369 363.6 
z
" style="fill: #f7b6d2"/>
   </g>
   <g id="patch_7">
    <path d="M 540.721819 408.155755 
C 541.664498 404.522588 542.491637 400.86042 543.201988 397.17478 
C 543.912339 393.489139 544.505544 389.781884 544.980707 386.058611 
L 369 363.6 
z
" style="fill: #c49c94"/>
   </g>
   <g id="patch_8">
    <path d="M 544.980707 386.058611 
C 545.45587 382.335338 545.812752 378.597923 546.050814 374.852009 
C 546.288876 371.106096 546.407998 367.35357 546.408 363.6001 
L 369 363.6 
z
" style="fill: #9edae5"/>
   </g>
   <g id="matplotlib.axis_1"/>
   <g id="matplotlib.axis_2"/>
  </g>
 </g>
</svg>
