<?xml version="1.0" encoding="utf-8" standalone="no"?>
<!DOCTYPE svg PUBLIC "-//W3C//DTD SVG 1.1//EN"
  "http://www.w3.org/Graphics/SVG/1.1/DTD/svg11.dtd">
<svg xmlns:xlink="http://www.w3.org/1999/xlink" width="720pt" height="720pt" viewBox="0 0 720 720" xmlns="http://www.w3.org/2000/svg" version="1.1">
 <metadata>
  <rdf:RDF xmlns:dc="http://purl.org/dc/elements/1.1/" xmlns:cc="http://creativecommons.org/ns#" xmlns:rdf="http://www.w3.org/1999/02/22-rdf-syntax-ns#">
   <cc:Work>
    <dc:type rdf:resource="http://purl.org/dc/dcmitype/StillImage"/>
    <dc:date>2024-10-24T16:56:28.625274</dc:date>
    <dc:format>image/svg+xml</dc:format>
    <dc:creator>
     <cc:Agent>
      <dc:title>Matplotlib v3.8.2, https://matplotlib.org/</dc:title>
     </cc:Agent>
    </dc:creator>
   </cc:Work>
  </rdf:RDF>
 </metadata>
 <defs>
  <style type="text/css">*{stroke-linejoin: round; stroke-linecap: butt}</style>
 </defs>
 <g id="figure_1">
  <g id="patch_1">
   <path d="M 0 720 
L 720 720 
L 720 0 
L 0 0 
L 0 720 
z
" style="fill: none"/>
  </g>
  <g id="axes_1">
   <g id="patch_2">
    <path d="M 590.76 363.6 
C 590.76 334.914713 585.194215 306.500045 574.371858 279.93461 
C 563.549502 253.369175 547.674773 229.154215 527.629612 208.635024 
C 507.584451 188.115832 483.747074 171.679568 457.441797 160.239369 
C 431.13652 148.799171 402.859677 142.570894 374.182223 141.900559 
C 345.504769 141.230224 316.967796 146.130478 290.156712 156.329082 
C 263.345629 166.527685 238.766311 181.83221 217.784295 201.392392 
C 196.802279 220.952574 179.813457 244.399348 167.761665 270.4301 
C 155.709874 296.460851 148.822507 324.584427 147.482203 353.238385 
C 146.141898 381.892343 150.373945 410.536035 159.943226 437.578124 
C 169.512507 464.620213 184.238467 489.550464 203.302987 510.983844 
C 222.367507 532.417225 245.410874 549.949326 271.152883 562.606129 
C 296.894892 575.262932 324.84984 582.805626 353.464652 584.815168 
C 382.079463 586.82471 410.81423 583.263182 438.072556 574.32845 
C 465.330881 565.393718 490.598449 551.254365 512.471487 532.695919 
C 534.344526 514.137474 552.410331 491.510101 565.665233 466.070893 
C 578.920134 440.631685 587.114037 412.860634 589.791718 384.300597 
L 545.633375 380.160477 
C 543.49123 403.008507 536.936107 425.225348 526.332186 445.576714 
C 515.728265 465.928081 501.275621 484.029979 483.77719 498.876735 
C 466.278759 513.723492 446.064704 525.034975 424.258044 532.18276 
C 402.451384 539.330545 379.463571 542.179768 356.571721 540.572134 
C 333.679872 538.964501 311.315914 532.930346 290.722306 522.804903 
C 270.128699 512.67946 251.694006 498.65378 236.44239 481.507075 
C 221.190774 464.360371 209.410005 444.41617 201.754581 422.782499 
C 194.099156 401.148828 190.713519 378.233874 191.785762 355.310708 
C 192.858006 332.387542 198.367899 309.888681 208.009332 289.06408 
C 217.650766 268.239479 231.241823 249.482059 248.027436 233.833913 
C 264.813049 218.185768 284.476503 205.942148 305.92537 197.783265 
C 327.374237 189.624382 350.203815 185.704179 373.145778 186.240447 
C 396.087741 186.776715 418.709216 191.759337 439.753438 200.911495 
C 460.797659 210.063654 479.86756 223.212665 495.903689 239.628019 
C 511.939818 256.043372 524.639601 275.41534 533.297487 296.667688 
C 541.955372 317.920036 546.408 340.65177 546.408 363.6 
z
" style="opacity: 0.1"/>
   </g>
   <g id="patch_3">
    <path d="M 589.791718 384.300597 
C 590.114258 380.860398 590.356351 377.41313 590.517797 373.961618 
C 590.679244 370.510105 590.76 367.055291 590.76 363.600005 
L 546.408 363.600004 
C 546.408 366.364233 546.343395 369.128084 546.214238 371.889294 
C 546.085081 374.650504 545.891407 377.408318 545.633375 380.160477 
z
"/>
   </g>
   <g id="patch_4">
    <path d="M 546.408 363.6 
C 546.408 329.593705 536.6303 296.293915 518.24511 267.685998 
C 499.859919 239.078082 473.63117 216.350739 442.697956 202.224011 
L 369 363.6 
z
" style="fill: #d62728"/>
   </g>
   <g id="patch_5">
    <path d="M 442.697956 202.224011 
C 411.764743 188.097284 377.412386 183.158158 343.752225 187.997755 
C 310.092064 192.837353 278.522729 207.254581 252.822483 229.523966 
L 369 363.6 
z
" style="fill: #f7b6d2"/>
   </g>
   <g id="patch_6">
    <path d="M 252.822483 229.523966 
C 230.369879 248.979253 213.159883 273.766353 202.777631 301.602238 
C 192.395379 329.438122 189.16972 359.441112 193.397754 388.847767 
C 197.625789 418.254422 209.173597 446.133309 226.977564 469.916632 
C 244.781531 493.699954 268.277728 512.634392 295.302029 524.975982 
C 322.326329 537.317571 352.022758 542.675401 381.656113 540.555987 
C 411.289468 538.436572 439.921135 528.907044 464.913981 512.845123 
C 489.906827 496.783202 510.469222 474.697639 524.707259 448.622632 
C 538.945296 422.547626 546.407994 393.309083 546.408 363.600033 
L 369 363.6 
z
" style="fill: #9edae5"/>
   </g>
   <g id="matplotlib.axis_1"/>
   <g id="matplotlib.axis_2"/>
  </g>
 </g>
</svg>
