<?xml version="1.0" encoding="utf-8" standalone="no"?>
<!DOCTYPE svg PUBLIC "-//W3C//DTD SVG 1.1//EN"
  "http://www.w3.org/Graphics/SVG/1.1/DTD/svg11.dtd">
<svg xmlns:xlink="http://www.w3.org/1999/xlink" width="720pt" height="720pt" viewBox="0 0 720 720" xmlns="http://www.w3.org/2000/svg" version="1.1">
 <metadata>
  <rdf:RDF xmlns:dc="http://purl.org/dc/elements/1.1/" xmlns:cc="http://creativecommons.org/ns#" xmlns:rdf="http://www.w3.org/1999/02/22-rdf-syntax-ns#">
   <cc:Work>
    <dc:type rdf:resource="http://purl.org/dc/dcmitype/StillImage"/>
    <dc:date>2024-10-24T16:56:28.652037</dc:date>
    <dc:format>image/svg+xml</dc:format>
    <dc:creator>
     <cc:Agent>
      <dc:title>Matplotlib v3.8.2, https://matplotlib.org/</dc:title>
     </cc:Agent>
    </dc:creator>
   </cc:Work>
  </rdf:RDF>
 </metadata>
 <defs>
  <style type="text/css">*{stroke-linejoin: round; stroke-linecap: butt}</style>
 </defs>
 <g id="figure_1">
  <g id="patch_1">
   <path d="M 0 720 
L 720 720 
L 720 0 
L 0 0 
L 0 720 
z
" style="fill: none"/>
  </g>
  <g id="axes_1">
   <g id="patch_2">
    <path d="M 590.76 363.6 
C 590.76 334.95918 585.211457 306.587721 574.421689 280.057032 
C 563.63192 253.526343 547.803877 229.335456 527.814226 208.824229 
C 507.824575 188.313002 484.049314 171.867244 457.805281 160.397836 
C 431.561249 148.928427 403.342085 142.651102 374.710764 141.913544 
C 346.079442 141.175986 317.574506 145.992066 290.774758 156.095038 
C 263.975009 166.19801 239.38454 181.397841 218.365343 200.852657 
C 197.346145 220.307474 180.29358 243.651339 168.152139 269.591308 
C 156.010697 295.531276 149.008755 323.579428 147.534127 352.18226 
C 146.0595 380.785093 150.139924 409.404599 159.549398 436.455632 
C 168.958873 463.506664 183.520408 488.480404 202.427487 509.993632 
C 221.334565 531.506859 244.231551 549.15492 269.85025 561.96034 
C 295.468949 574.765761 323.327485 582.487678 351.882857 584.698397 
C 380.43823 586.909116 409.153324 583.567054 436.437698 574.857318 
C 463.722072 566.147583 489.062518 552.234 511.055506 533.887201 
C 533.048494 515.540402 551.280345 493.105482 564.741252 467.825044 
C 578.202159 442.544606 586.638928 414.894164 589.584271 386.405192 
L 545.467417 381.844154 
C 543.111142 404.635331 536.361727 426.755685 525.593002 446.980035 
C 514.824276 467.204386 500.238796 485.152321 482.644405 499.829761 
C 465.050015 514.5072 444.777658 525.638066 422.950158 532.605855 
C 401.122659 539.573643 378.150584 542.247292 355.306286 540.478717 
C 332.461988 538.710142 310.17516 532.532609 289.6802 522.288272 
C 269.18524 512.043936 250.867652 497.925487 235.741989 480.714905 
C 220.616327 463.504323 208.967098 443.525331 201.439519 421.884505 
C 193.911939 400.243679 190.6476 377.348074 191.827302 354.465808 
C 193.007004 331.583542 198.608558 309.145021 208.321711 288.393046 
C 218.034864 267.641071 231.676916 248.965979 248.492274 233.402126 
C 265.307632 217.838273 284.980007 205.678408 306.419806 197.596031 
C 327.859605 189.513653 350.663554 185.660788 373.568611 186.250835 
C 396.473668 186.840882 419.048999 191.862742 440.044225 201.038268 
C 461.039451 210.213795 480.05966 223.370402 496.051381 239.779383 
C 512.043101 256.188365 524.705536 275.541075 533.337351 296.765626 
C 541.969166 317.990177 546.408 340.687344 546.408 363.6 
z
" style="opacity: 0.1"/>
   </g>
   <g id="patch_3">
    <path d="M 589.584271 386.405192 
C 589.975856 382.617575 590.26982 378.820501 590.465872 375.017746 
C 590.661925 371.214992 590.76 367.407818 590.76 363.600013 
L 546.408 363.60001 
C 546.408 366.646254 546.32954 369.691993 546.172698 372.734197 
C 546.015856 375.776401 545.780685 378.81406 545.467417 381.844154 
z
"/>
   </g>
   <g id="patch_4">
    <path d="M 546.408 363.6 
C 546.408 334.116591 539.058235 305.093021 525.025685 279.163135 
C 510.993135 253.23325 490.715518 231.205882 466.032999 215.079982 
C 441.350479 198.954083 413.03298 189.232668 383.650272 186.797941 
C 354.267564 184.363215 324.736184 189.291123 297.736061 201.134467 
L 369 363.6 
z
" style="fill: #d62728"/>
   </g>
   <g id="patch_5">
    <path d="M 297.736061 201.134467 
C 275.270691 210.988684 255.091528 225.396321 238.476734 243.444786 
C 221.86194 261.493251 209.16988 282.793257 201.204479 305.995645 
C 193.239078 329.198034 190.172141 353.802354 192.197931 378.250148 
C 194.22372 402.697942 201.298542 426.461896 212.974272 448.036784 
L 369 363.6 
z
" style="fill: #98df8a"/>
   </g>
   <g id="patch_6">
    <path d="M 212.974272 448.036784 
C 222.303003 465.274794 234.424303 480.848259 248.844749 494.123232 
C 263.265196 507.398205 279.786426 518.192079 297.735909 526.065467 
L 369 363.6 
z
" style="fill: #1f77b4"/>
   </g>
   <g id="patch_7">
    <path d="M 297.735909 526.065467 
C 315.685392 533.938854 334.816222 538.783452 354.349637 540.402051 
C 373.883053 542.02065 393.550359 540.390985 412.550959 535.579395 
L 369 363.6 
z
" style="fill: #dbdb8d"/>
   </g>
   <g id="patch_8">
    <path d="M 412.550959 535.579395 
C 450.808021 525.891422 484.760023 503.709511 508.999747 472.566368 
C 533.239471 441.423224 546.407963 403.064829 546.408 363.600166 
L 369 363.6 
z
" style="fill: #9edae5"/>
   </g>
   <g id="matplotlib.axis_1"/>
   <g id="matplotlib.axis_2"/>
  </g>
 </g>
</svg>
