<?xml version="1.0" encoding="utf-8" standalone="no"?>
<!DOCTYPE svg PUBLIC "-//W3C//DTD SVG 1.1//EN"
  "http://www.w3.org/Graphics/SVG/1.1/DTD/svg11.dtd">
<svg xmlns:xlink="http://www.w3.org/1999/xlink" width="720pt" height="720pt" viewBox="0 0 720 720" xmlns="http://www.w3.org/2000/svg" version="1.1">
 <metadata>
  <rdf:RDF xmlns:dc="http://purl.org/dc/elements/1.1/" xmlns:cc="http://creativecommons.org/ns#" xmlns:rdf="http://www.w3.org/1999/02/22-rdf-syntax-ns#">
   <cc:Work>
    <dc:type rdf:resource="http://purl.org/dc/dcmitype/StillImage"/>
    <dc:date>2024-10-24T16:56:28.792554</dc:date>
    <dc:format>image/svg+xml</dc:format>
    <dc:creator>
     <cc:Agent>
      <dc:title>Matplotlib v3.8.2, https://matplotlib.org/</dc:title>
     </cc:Agent>
    </dc:creator>
   </cc:Work>
  </rdf:RDF>
 </metadata>
 <defs>
  <style type="text/css">*{stroke-linejoin: round; stroke-linecap: butt}</style>
 </defs>
 <g id="figure_1">
  <g id="patch_1">
   <path d="M 0 720 
L 720 720 
L 720 0 
L 0 0 
L 0 720 
z
" style="fill: none"/>
  </g>
  <g id="axes_1">
   <g id="patch_2">
    <path d="M 590.76 363.6 
C 590.76 335.532044 585.431198 307.717584 575.057232 281.637113 
C 564.683266 255.556642 549.451521 231.681251 530.172744 211.281767 
C 510.893968 190.882284 487.916393 174.327183 462.463056 162.497651 
C 437.00972 150.66812 409.540386 143.777834 381.517179 142.193546 
C 353.493971 140.609258 325.423071 144.359586 298.798624 153.244909 
C 272.174177 162.130231 247.477099 175.990053 226.021953 194.086651 
C 204.566807 212.183248 186.741137 234.189744 173.493758 258.934786 
C 160.24638 283.679828 151.816581 310.716448 148.653057 338.605555 
C 145.489533 366.494661 147.649428 394.732494 155.017776 421.816024 
C 162.386124 448.899554 174.82983 474.339572 191.686547 496.78197 
C 208.543265 519.224368 229.508511 538.263769 253.466358 552.886754 
C 277.424205 567.509739 303.941904 577.452173 331.607984 582.184846 
C 359.274063 586.917518 387.588792 586.354943 415.045047 580.527064 
C 442.501303 574.699186 468.603144 563.711273 491.961235 548.148184 
C 515.319326 532.585096 535.511751 512.727947 551.463716 489.633685 
C 567.415682 466.539423 578.839049 440.625199 585.12578 413.270361 
L 541.900624 403.336289 
C 536.871239 425.220159 527.732546 445.951539 514.970973 464.426948 
C 502.2094 482.902358 486.055461 498.788076 467.368988 511.238547 
C 448.682515 523.689018 427.801042 532.479349 405.836038 537.141651 
C 383.871033 541.803954 361.21925 542.254014 339.086387 538.467876 
C 316.953523 534.681738 295.739364 526.727791 276.573086 515.029403 
C 257.406808 503.331015 240.634612 488.099494 227.149238 470.145576 
C 213.663864 452.191657 203.708899 431.839643 197.814221 410.172819 
C 191.919543 388.505995 190.191627 365.915729 192.722446 343.604444 
C 195.253264 321.293158 201.997104 299.663862 212.595007 279.867829 
C 223.192909 260.071795 237.453445 242.466599 254.617562 227.989321 
C 271.781679 213.512042 291.539342 202.424185 312.838899 195.315927 
C 334.138457 188.207669 356.595177 185.207407 379.013743 186.474837 
C 401.432309 187.742267 423.407776 193.254496 443.770445 202.718121 
C 464.133114 212.181746 482.515175 225.425827 497.938196 241.745414 
C 513.361217 258.065001 525.546613 277.165313 533.845785 298.02969 
C 542.144958 318.894067 546.408 341.145635 546.408 363.6 
z
" style="opacity: 0.1"/>
   </g>
   <g id="patch_3">
    <path d="M 585.12578 413.270361 
C 586.996356 405.131107 588.405656 396.892678 589.346942 388.594456 
C 590.288228 380.296233 590.759999 371.951459 590.76 363.600021 
L 546.408 363.600017 
C 546.407999 370.281167 546.030583 376.956986 545.277553 383.595565 
C 544.524524 390.234143 543.397085 396.824885 541.900624 403.336289 
z
"/>
   </g>
   <g id="patch_4">
    <path d="M 546.408 363.6 
C 546.408 326.309314 534.650396 289.95124 512.815439 259.72162 
C 490.980482 229.492 460.160323 206.902874 424.759394 195.182399 
C 389.358466 183.461923 351.147469 183.196339 315.587043 194.423599 
C 280.026617 205.65086 248.895441 227.809395 226.642393 257.732582 
L 369 363.6 
z
" style="fill: #dbdb8d"/>
   </g>
   <g id="patch_5">
    <path d="M 226.642393 257.732582 
C 211.872807 277.592921 201.421444 300.325993 195.961932 324.46657 
C 190.502419 348.607147 190.154626 373.625193 194.940971 397.908204 
L 369 363.6 
z
" style="fill: #8c564b"/>
   </g>
   <g id="patch_6">
    <path d="M 194.940971 397.908204 
C 199.727316 422.191215 209.542707 445.206029 223.754508 465.469257 
C 237.966309 485.732486 256.262483 502.799226 277.463774 515.569463 
L 369 363.6 
z
" style="fill: #d62728"/>
   </g>
   <g id="patch_7">
    <path d="M 277.463774 515.569463 
C 288.742066 522.362751 300.741628 527.879462 313.240606 532.017601 
C 325.739583 536.15574 338.660471 538.889646 351.764382 540.168774 
L 369 363.6 
z
" style="fill: #c7c7c7"/>
   </g>
   <g id="patch_8">
    <path d="M 351.764382 540.168774 
C 376.397528 542.573319 401.263436 539.796603 424.75941 532.017596 
C 448.255384 524.238589 469.86554 511.628089 488.197026 494.998887 
C 506.528512 478.369685 521.178837 458.086897 531.203737 435.45782 
C 541.228636 412.828743 546.408 388.350227 546.408 363.6 
L 369 363.6 
z
" style="fill: #9edae5"/>
   </g>
   <g id="matplotlib.axis_1"/>
   <g id="matplotlib.axis_2"/>
  </g>
 </g>
</svg>
