<?xml version="1.0" encoding="utf-8" standalone="no"?>
<!DOCTYPE svg PUBLIC "-//W3C//DTD SVG 1.1//EN"
  "http://www.w3.org/Graphics/SVG/1.1/DTD/svg11.dtd">
<svg xmlns:xlink="http://www.w3.org/1999/xlink" width="720pt" height="720pt" viewBox="0 0 720 720" xmlns="http://www.w3.org/2000/svg" version="1.1">
 <metadata>
  <rdf:RDF xmlns:dc="http://purl.org/dc/elements/1.1/" xmlns:cc="http://creativecommons.org/ns#" xmlns:rdf="http://www.w3.org/1999/02/22-rdf-syntax-ns#">
   <cc:Work>
    <dc:type rdf:resource="http://purl.org/dc/dcmitype/StillImage"/>
    <dc:date>2024-10-24T16:56:29.176462</dc:date>
    <dc:format>image/svg+xml</dc:format>
    <dc:creator>
     <cc:Agent>
      <dc:title>Matplotlib v3.8.2, https://matplotlib.org/</dc:title>
     </cc:Agent>
    </dc:creator>
   </cc:Work>
  </rdf:RDF>
 </metadata>
 <defs>
  <style type="text/css">*{stroke-linejoin: round; stroke-linecap: butt}</style>
 </defs>
 <g id="figure_1">
  <g id="patch_1">
   <path d="M 0 720 
L 720 720 
L 720 0 
L 0 0 
L 0 720 
z
" style="fill: none"/>
  </g>
  <g id="axes_1">
   <g id="patch_2">
    <path d="M 590.76 363.6 
C 590.76 321.092127 578.537873 279.467387 555.556381 243.707489 
C 532.57489 207.947591 499.788948 179.538413 461.122426 161.880006 
C 422.455905 144.221598 379.515454 138.047695 337.44025 144.097199 
C 295.365047 150.146702 255.903377 168.168245 223.778072 196.004984 
C 191.652767 223.841723 168.198681 260.337 156.222833 301.123006 
C 144.246985 341.909013 144.246989 385.29103 156.222845 426.077034 
C 168.1987 466.863038 191.652794 503.35831 223.778104 531.195043 
C 255.903414 559.031776 295.365087 577.053312 337.440291 583.102807 
L 343.752233 539.202246 
C 310.092069 534.36265 278.522731 519.945421 252.822483 497.676034 
C 227.122235 475.406648 208.35896 446.21043 198.778276 413.581627 
C 189.197591 380.952824 189.197588 346.24721 198.778266 313.618405 
C 208.358945 280.9896 227.122214 251.793379 252.822458 229.523987 
C 278.522702 207.254596 310.092037 192.837361 343.7522 187.997759 
C 377.412363 183.158156 411.764724 188.097279 442.697941 202.224004 
C 473.631158 216.35073 499.859912 239.078073 518.245105 267.685991 
C 536.630298 296.293909 546.408 329.593702 546.408 363.6 
z
" style="opacity: 0.1"/>
   </g>
   <g id="patch_3">
    <path d="M 337.440291 583.102807 
C 368.904573 587.626684 400.97684 585.332825 431.477043 576.377153 
C 461.977247 567.42148 490.198304 552.011611 514.221943 531.195002 
C 538.245583 510.378393 557.514868 484.637633 570.720007 455.722398 
C 583.925146 426.807163 590.760006 395.387794 590.76 363.599958 
L 546.408 363.599967 
C 546.408005 389.030235 540.940117 414.165731 530.376006 437.297918 
C 519.811895 460.430106 504.396467 481.022714 485.177555 497.676002 
C 465.958643 514.329289 443.381798 526.657184 418.981635 533.821722 
C 394.581472 540.98626 368.923659 542.821347 343.752233 539.202246 
z
"/>
   </g>
   <g id="patch_4">
    <path d="M 546.408 363.6 
C 546.408 332.460709 538.209479 301.863414 522.639833 274.895998 
C 507.070188 247.928581 484.671413 225.529807 457.703995 209.960162 
C 430.736578 194.390518 400.139283 186.191999 368.999992 186.192 
C 337.860701 186.192001 307.263406 194.390524 280.29599 209.960171 
C 253.328574 225.529818 230.929802 247.928594 215.360158 274.896012 
C 199.790515 301.86343 191.591997 332.460726 191.592 363.600017 
C 191.592003 394.739308 199.790526 425.336602 215.360175 452.304017 
C 230.929823 479.271432 253.3286 501.670204 280.296019 517.239846 
L 369 363.6 
z
" style="fill: #1f77b4"/>
   </g>
   <g id="patch_5">
    <path d="M 280.296019 517.239846 
C 307.263438 532.809488 337.860734 541.008004 369.000025 541.008 
C 400.139316 541.007996 430.736609 532.809471 457.704024 517.239821 
C 484.671439 501.670171 507.070209 479.271393 522.63985 452.303974 
C 538.209491 425.336554 546.408006 394.739258 546.408 363.599967 
L 369 363.6 
z
" style="fill: #7f7f7f"/>
   </g>
   <g id="matplotlib.axis_1"/>
   <g id="matplotlib.axis_2"/>
  </g>
 </g>
</svg>
