<?xml version="1.0" encoding="utf-8" standalone="no"?>
<!DOCTYPE svg PUBLIC "-//W3C//DTD SVG 1.1//EN"
  "http://www.w3.org/Graphics/SVG/1.1/DTD/svg11.dtd">
<svg xmlns:xlink="http://www.w3.org/1999/xlink" width="720pt" height="720pt" viewBox="0 0 720 720" xmlns="http://www.w3.org/2000/svg" version="1.1">
 <metadata>
  <rdf:RDF xmlns:dc="http://purl.org/dc/elements/1.1/" xmlns:cc="http://creativecommons.org/ns#" xmlns:rdf="http://www.w3.org/1999/02/22-rdf-syntax-ns#">
   <cc:Work>
    <dc:type rdf:resource="http://purl.org/dc/dcmitype/StillImage"/>
    <dc:date>2024-10-24T16:56:29.191920</dc:date>
    <dc:format>image/svg+xml</dc:format>
    <dc:creator>
     <cc:Agent>
      <dc:title>Matplotlib v3.8.2, https://matplotlib.org/</dc:title>
     </cc:Agent>
    </dc:creator>
   </cc:Work>
  </rdf:RDF>
 </metadata>
 <defs>
  <style type="text/css">*{stroke-linejoin: round; stroke-linecap: butt}</style>
 </defs>
 <g id="figure_1">
  <g id="patch_1">
   <path d="M 0 720 
L 720 720 
L 720 0 
L 0 0 
L 0 720 
z
" style="fill: none"/>
  </g>
  <g id="axes_1">
   <g id="patch_2">
    <path d="M 590.76 363.6 
C 590.76 335.368691 585.368991 307.395337 574.87722 281.185996 
C 564.385448 254.976656 548.984645 231.010287 529.503975 210.577219 
C 510.023305 190.14415 486.818764 173.617782 461.139665 161.887879 
C 435.460565 150.157976 407.776174 143.438894 379.576995 142.092382 
C 351.377816 140.745871 323.17917 144.796536 296.499245 154.026294 
C 269.819321 163.256052 245.145677 177.496236 223.806719 195.980166 
C 202.467761 214.464096 184.853445 236.853992 171.912109 261.944401 
C 158.970773 287.03481 150.938912 314.367222 148.248954 342.470085 
C 145.558996 370.572948 148.260097 398.932701 156.206834 426.022481 
C 164.153571 453.112261 177.200721 478.43702 194.645839 500.633296 
C 212.090957 522.829572 233.615243 541.491743 258.059852 555.615054 
C 282.50446 569.738366 309.42268 579.064724 337.36526 583.092006 
C 365.307841 587.119289 393.764149 585.773899 421.202123 579.128272 
C 448.640097 572.482645 474.558327 560.658225 497.561399 544.291628 
C 520.56447 527.925031 540.232018 507.315345 555.505158 483.572178 
C 570.778298 459.829012 581.377925 433.386253 586.733365 405.667558 
L 543.186692 397.254047 
C 538.90234 419.429003 530.422639 440.583209 518.204126 459.577743 
C 505.985614 478.572276 490.251576 495.060025 471.849119 508.153302 
C 453.446662 521.24658 432.712078 530.706116 410.761698 536.022617 
C 388.811319 541.339119 366.046272 542.415431 343.692208 539.193605 
C 321.338144 535.971779 299.803568 528.510693 280.247881 517.212043 
C 260.692195 505.913394 243.472765 490.983657 229.516671 473.226637 
C 215.560577 455.469616 205.122857 435.209809 198.765467 413.537985 
C 192.408078 391.866161 190.247197 369.178358 192.399163 346.696068 
C 194.55113 324.213777 200.976619 302.347848 211.329687 282.27552 
C 221.682756 262.203193 235.774209 244.291277 252.845375 229.504133 
C 269.916541 214.716989 289.655457 203.324842 310.999396 195.941035 
C 332.343336 188.557229 354.902253 185.316696 377.461596 186.393906 
C 400.020939 187.471115 422.168452 192.846381 442.711732 202.230303 
C 463.255012 211.614226 481.818644 224.83532 497.40318 241.181775 
C 512.987716 257.52823 525.308359 276.701324 533.701776 297.668797 
C 542.095193 318.636269 546.408 341.014953 546.408 363.6 
z
" style="opacity: 0.1"/>
   </g>
   <g id="patch_3">
    <path d="M 586.733365 405.667558 
C 588.071754 398.740319 589.078794 391.753153 589.751047 384.729906 
C 590.4233 377.706659 590.760001 370.655329 590.76 363.599982 
L 546.408 363.599985 
C 546.408 369.244263 546.13864 374.885327 545.600837 380.503925 
C 545.063035 386.122523 544.257403 391.712255 543.186692 397.254047 
z
"/>
   </g>
   <g id="patch_4">
    <path d="M 546.408 363.6 
C 546.408 338.169731 540.940108 313.034237 530.375992 289.902051 
C 519.811876 266.769866 504.396445 246.17726 485.17753 229.523977 
C 465.958615 212.870693 443.381767 200.542802 418.981603 193.378269 
C 394.581439 186.213735 368.923625 184.378653 343.7522 187.997759 
L 369 363.6 
z
" style="fill: #7f7f7f"/>
   </g>
   <g id="patch_5">
    <path d="M 343.7522 187.997759 
C 310.09204 192.837361 278.522707 207.254594 252.822464 229.523982 
C 227.122221 251.79337 208.358952 280.989588 198.778271 313.618389 
L 369 363.6 
z
" style="fill: #c7c7c7"/>
   </g>
   <g id="patch_6">
    <path d="M 198.778271 313.618389 
C 191.613736 338.018553 189.778653 363.676367 193.397758 388.847792 
C 197.016862 414.019217 206.006253 438.120706 219.754895 459.514009 
C 233.503536 480.907312 251.692695 499.096469 273.085998 512.84511 
C 294.479302 526.59375 318.580791 535.58314 343.752217 539.202243 
C 368.923642 542.821347 394.581455 540.986263 418.981619 533.821727 
C 443.381782 526.657191 465.958629 514.329298 485.177542 497.676013 
C 504.396456 481.022727 519.811886 460.43012 530.375999 437.297934 
C 540.940112 414.165747 546.408002 389.030252 546.408 363.599983 
L 369 363.6 
z
" style="fill: #9edae5"/>
   </g>
   <g id="matplotlib.axis_1"/>
   <g id="matplotlib.axis_2"/>
  </g>
 </g>
</svg>
