<?xml version="1.0" encoding="utf-8" standalone="no"?>
<!DOCTYPE svg PUBLIC "-//W3C//DTD SVG 1.1//EN"
  "http://www.w3.org/Graphics/SVG/1.1/DTD/svg11.dtd">
<svg xmlns:xlink="http://www.w3.org/1999/xlink" width="720pt" height="720pt" viewBox="0 0 720 720" xmlns="http://www.w3.org/2000/svg" version="1.1">
 <metadata>
  <rdf:RDF xmlns:dc="http://purl.org/dc/elements/1.1/" xmlns:cc="http://creativecommons.org/ns#" xmlns:rdf="http://www.w3.org/1999/02/22-rdf-syntax-ns#">
   <cc:Work>
    <dc:type rdf:resource="http://purl.org/dc/dcmitype/StillImage"/>
    <dc:date>2024-10-24T16:56:26.456146</dc:date>
    <dc:format>image/svg+xml</dc:format>
    <dc:creator>
     <cc:Agent>
      <dc:title>Matplotlib v3.8.2, https://matplotlib.org/</dc:title>
     </cc:Agent>
    </dc:creator>
   </cc:Work>
  </rdf:RDF>
 </metadata>
 <defs>
  <style type="text/css">*{stroke-linejoin: round; stroke-linecap: butt}</style>
 </defs>
 <g id="figure_1">
  <g id="patch_1">
   <path d="M 0 720 
L 720 720 
L 720 0 
L 0 0 
L 0 720 
z
" style="fill: none"/>
  </g>
  <g id="axes_1">
   <g id="patch_2">
    <path d="M 590.76 363.6 
C 590.76 322.083505 579.101319 281.389583 557.117103 246.171497 
C 535.132886 210.953411 503.694288 182.606725 466.396244 164.37282 
C 429.0982 146.138916 387.418696 138.740336 346.123692 143.023092 
C 304.828688 147.305849 265.554555 163.100232 232.792204 188.600189 
C 200.029854 214.100145 175.077539 248.295204 160.788502 287.275234 
C 146.499466 326.255265 143.43993 368.475631 151.959746 409.108525 
C 160.479563 449.74142 180.241122 487.176709 208.984732 517.133748 
C 237.728343 547.090787 274.315001 568.382489 314.5611 578.574193 
L 325.44888 535.579355 
C 293.252001 527.425991 263.982674 510.39263 240.987786 486.426998 
C 217.992898 462.461367 202.18365 432.513136 195.367797 400.00682 
C 188.551944 367.500505 190.999573 333.724212 202.430802 302.540187 
C 213.862031 271.356163 233.823883 244.000116 260.033763 223.600151 
C 286.243644 203.200186 317.66295 190.564679 350.698954 187.138474 
C 383.734957 183.712269 417.07856 189.631132 446.916996 204.218256 
C 476.755431 218.80538 501.906309 241.482729 519.493682 269.657198 
C 537.081055 297.831667 546.408 330.386804 546.408 363.6 
z
" style="opacity: 0.1"/>
   </g>
   <g id="patch_3">
    <path d="M 314.5611 578.574193 
C 347.284021 586.860768 381.471103 587.567466 414.508515 580.640256 
C 447.545928 573.713045 478.569673 559.333087 505.207779 538.599824 
C 531.845885 517.866562 553.40171 491.322214 568.227166 460.996272 
C 583.052622 430.670331 590.759994 397.355883 590.76 363.600042 
L 546.408 363.600033 
C 546.407995 390.604707 540.242098 417.256265 528.381733 441.517018 
C 516.521368 465.777771 499.276708 487.01325 477.966223 503.599859 
C 456.655739 520.186469 431.836742 531.690436 405.406812 537.232205 
C 378.976882 542.773973 351.627217 542.208615 325.44888 535.579355 
z
"/>
   </g>
   <g id="patch_4">
    <path d="M 546.408 363.6 
C 546.408 342.432602 542.619625 321.435049 535.222378 301.602261 
C 527.825131 281.769473 516.937721 263.419723 503.076023 247.42247 
C 489.214326 231.425218 472.60079 218.037184 454.02261 207.892729 
C 435.44443 197.748274 415.199744 191.010195 394.2478 187.997759 
C 373.295856 184.985323 351.972885 185.746874 331.289228 190.246326 
C 310.605571 194.745779 290.893154 202.910928 273.086005 214.354886 
C 255.278856 225.798844 239.662739 240.337961 226.977589 257.283335 
C 214.292439 274.228709 204.741823 293.308404 198.778276 313.618373 
C 192.814728 333.928342 190.533951 355.142656 192.044014 376.256121 
C 193.554076 397.369587 198.830745 418.043383 207.623998 437.297926 
C 216.41725 456.552469 228.585974 474.07877 243.553583 489.046382 
C 258.521191 504.013995 276.047488 516.182724 295.302029 524.975982 
C 314.55657 533.76924 335.230363 539.045914 356.343829 540.555983 
C 377.457294 542.066051 398.671609 539.78528 418.981579 533.821738 
C 439.29155 527.858197 458.371248 518.307586 475.316625 505.622441 
C 492.262002 492.937295 506.801124 477.321182 518.245087 459.514037 
L 369 363.6 
z
" style="fill: #8c564b"/>
   </g>
   <g id="patch_5">
    <path d="M 518.245087 459.514037 
C 522.812523 452.406971 526.866472 444.982721 530.375977 437.297981 
C 533.885483 429.613241 536.841588 421.687622 539.221719 413.581647 
L 369 363.6 
z
" style="fill: #dbdb8d"/>
   </g>
   <g id="patch_6">
    <path d="M 539.221719 413.581647 
C 541.601849 405.475672 543.399932 397.210027 544.602237 388.847831 
C 545.804541 380.485635 546.407998 372.048228 546.408 363.600042 
L 369 363.6 
z
" style="fill: #c49c94"/>
   </g>
   <g id="matplotlib.axis_1"/>
   <g id="matplotlib.axis_2"/>
  </g>
 </g>
</svg>
