<?xml version="1.0" encoding="utf-8" standalone="no"?>
<!DOCTYPE svg PUBLIC "-//W3C//DTD SVG 1.1//EN"
  "http://www.w3.org/Graphics/SVG/1.1/DTD/svg11.dtd">
<svg xmlns:xlink="http://www.w3.org/1999/xlink" width="720pt" height="720pt" viewBox="0 0 720 720" xmlns="http://www.w3.org/2000/svg" version="1.1">
 <metadata>
  <rdf:RDF xmlns:dc="http://purl.org/dc/elements/1.1/" xmlns:cc="http://creativecommons.org/ns#" xmlns:rdf="http://www.w3.org/1999/02/22-rdf-syntax-ns#">
   <cc:Work>
    <dc:type rdf:resource="http://purl.org/dc/dcmitype/StillImage"/>
    <dc:date>2024-02-23T18:45:32.934154</dc:date>
    <dc:format>image/svg+xml</dc:format>
    <dc:creator>
     <cc:Agent>
      <dc:title>Matplotlib v3.8.2, https://matplotlib.org/</dc:title>
     </cc:Agent>
    </dc:creator>
   </cc:Work>
  </rdf:RDF>
 </metadata>
 <defs>
  <style type="text/css">*{stroke-linejoin: round; stroke-linecap: butt}</style>
 </defs>
 <g id="figure_1">
  <g id="patch_1">
   <path d="M 0 720 
L 720 720 
L 720 0 
L 0 0 
L 0 720 
z
" style="fill: none"/>
  </g>
  <g id="axes_1">
   <g id="patch_2">
    <path d="M 590.76 363.6 
C 590.76 335.290721 585.339172 307.241543 574.790956 280.970829 
C 564.242741 254.700115 548.760969 230.690606 529.183702 210.24199 
C 509.606435 189.793374 486.293419 173.281407 460.506638 161.599919 
C 434.719856 149.91843 406.933159 143.282074 378.6507 142.050092 
C 350.368241 140.81811 322.109729 145.01314 295.404859 154.408096 
C 268.699989 163.803051 244.03948 178.225295 222.758261 196.894117 
C 201.477041 215.56294 183.966166 238.135292 171.173538 263.38928 
C 158.38091 288.643268 150.541601 316.114836 148.079971 344.316886 
C 145.618341 372.518937 148.579624 400.933239 156.803519 428.021665 
C 165.027413 455.110091 178.362801 480.374873 196.087807 502.448374 
C 213.812813 524.521875 235.601729 542.998479 260.275074 556.878007 
C 284.948419 570.757536 312.052804 579.784943 340.121009 583.471557 
C 368.189215 587.15817 396.705469 585.436246 424.126125 578.398994 
C 451.54678 571.361743 477.367966 559.138479 500.191923 542.390875 
C 523.01588 525.643271 542.423204 504.679074 557.363334 480.633123 
C 572.303465 456.587172 582.501867 429.901326 587.406478 402.020148 
L 543.725183 394.336119 
C 539.801493 416.64106 531.642772 437.989737 519.690668 457.226498 
C 507.738563 476.463259 492.212704 493.234617 473.953538 506.6327 
C 455.694373 520.030783 435.037424 529.809394 413.1009 535.439195 
C 391.164375 541.068996 368.351372 542.446536 345.896808 539.497245 
C 323.442243 536.547955 301.758735 529.326029 282.020059 518.222406 
C 262.281383 507.118783 244.85025 492.3375 230.670245 474.678699 
C 216.49024 457.019899 205.821931 436.808073 199.242815 415.137332 
C 192.663699 393.466591 190.294673 370.735149 192.263977 348.173509 
C 194.233281 325.611869 200.504728 303.634615 210.73883 283.431424 
C 220.972933 263.228233 234.981633 245.170352 252.006609 230.235294 
C 269.031584 215.300236 288.759991 203.762441 310.123887 196.246477 
C 331.487783 188.730512 354.094593 185.374488 376.72056 186.360074 
C 399.346527 187.34566 421.575885 192.654744 442.20531 201.999935 
C 462.834735 211.345126 481.485148 224.554699 497.146962 240.913592 
C 512.808775 257.272485 525.194193 276.480092 533.632765 297.496663 
C 542.071337 318.513234 546.408 340.952577 546.408 363.6 
L 590.76 363.6 
z
" style="fill: none; opacity: 0"/>
   </g>
   <g id="patch_3">
    <path d="M 587.406478 402.020148 
C 588.52167 395.680633 589.360315 389.295567 589.920031 382.883093 
C 590.479746 376.470619 590.760001 370.036814 590.76 363.599958 
L 546.408 363.599967 
C 546.408001 368.749451 546.183797 373.896495 545.736024 379.026474 
C 545.288252 384.156454 544.617336 389.264506 543.725183 394.336119 
z
" style="stroke: #ffffff; stroke-linejoin: miter"/>
   </g>
   <g id="patch_4">
    <path d="M 546.408 363.6 
C 546.408 340.302995 541.818998 317.232524 532.90362 295.708898 
C 523.988242 274.185271 510.91987 254.62707 494.4464 238.1536 
C 477.97293 221.68013 458.414729 208.611758 436.891102 199.69638 
C 415.367476 190.781002 392.297005 186.192 369 186.192 
C 345.702995 186.192 322.632524 190.781002 301.108898 199.69638 
C 279.585271 208.611758 260.02707 221.68013 243.5536 238.1536 
C 227.08013 254.62707 214.011758 274.185271 205.09638 295.708898 
C 196.181002 317.232524 191.592 340.302995 191.592 363.6 
C 191.592 386.897005 196.181002 409.967476 205.09638 431.491102 
C 214.011758 453.014729 227.08013 472.57293 243.5536 489.0464 
C 260.02707 505.51987 279.585271 518.588242 301.108898 527.50362 
C 322.632524 536.418998 345.702995 541.008 369 541.008 
C 392.297005 541.008 415.367476 536.418998 436.891102 527.50362 
C 458.414729 518.588242 477.97293 505.51987 494.4464 489.0464 
C 510.91987 472.57293 523.988242 453.014729 532.90362 431.491102 
C 541.818998 409.967476 546.408 386.897005 546.408 363.6 
M 369 363.6 
z
" style="fill: #d62728; stroke: #ffffff; stroke-linejoin: miter"/>
   </g>
   <g id="matplotlib.axis_1"/>
   <g id="matplotlib.axis_2"/>
  </g>
 </g>
</svg>
