<?xml version="1.0" encoding="utf-8" standalone="no"?>
<!DOCTYPE svg PUBLIC "-//W3C//DTD SVG 1.1//EN"
  "http://www.w3.org/Graphics/SVG/1.1/DTD/svg11.dtd">
<svg xmlns:xlink="http://www.w3.org/1999/xlink" width="720pt" height="720pt" viewBox="0 0 720 720" xmlns="http://www.w3.org/2000/svg" version="1.1">
 <metadata>
  <rdf:RDF xmlns:dc="http://purl.org/dc/elements/1.1/" xmlns:cc="http://creativecommons.org/ns#" xmlns:rdf="http://www.w3.org/1999/02/22-rdf-syntax-ns#">
   <cc:Work>
    <dc:type rdf:resource="http://purl.org/dc/dcmitype/StillImage"/>
    <dc:date>2024-02-23T18:45:31.343592</dc:date>
    <dc:format>image/svg+xml</dc:format>
    <dc:creator>
     <cc:Agent>
      <dc:title>Matplotlib v3.8.2, https://matplotlib.org/</dc:title>
     </cc:Agent>
    </dc:creator>
   </cc:Work>
  </rdf:RDF>
 </metadata>
 <defs>
  <style type="text/css">*{stroke-linejoin: round; stroke-linecap: butt}</style>
 </defs>
 <g id="figure_1">
  <g id="patch_1">
   <path d="M 0 720 
L 720 720 
L 720 0 
L 0 0 
L 0 720 
z
" style="fill: none"/>
  </g>
  <g id="axes_1">
   <g id="patch_2">
    <path d="M 590.76 363.6 
C 590.76 335.449929 585.399972 307.555588 574.966863 281.410288 
C 564.533754 255.264987 549.217124 231.343763 529.836941 210.927226 
C 510.456758 190.510688 487.365141 173.969788 461.79829 162.190033 
C 436.231439 150.410278 408.653879 143.605696 380.541962 142.140566 
C 352.430045 140.675437 324.294537 144.576381 297.64166 153.634562 
C 270.988784 162.692744 246.302795 176.743584 224.905248 195.034879 
C 203.5077 213.326174 185.787367 235.525587 172.692898 260.444683 
C 159.598429 285.36378 151.367738 312.549803 148.441451 340.547363 
C 145.515164 368.544923 147.946449 396.845329 155.605149 423.933533 
C 163.263849 451.021738 176.010812 476.405573 193.163635 498.726127 
C 210.316458 521.046682 231.563491 539.898412 255.767284 554.2721 
C 279.971077 568.645787 306.69187 578.280276 334.499178 582.659788 
C 362.306486 587.0393 390.695076 586.084264 418.145179 579.845807 
C 445.595281 573.60735 471.608154 562.198819 494.791211 546.230964 
C 517.974267 530.263109 537.906293 510.026051 553.520236 486.603172 
C 569.134179 463.180292 580.146349 436.997163 585.967214 409.455485 
L 542.573771 400.284388 
C 537.917079 422.31773 529.107343 443.264234 516.616189 462.002537 
C 504.125034 480.740841 488.179414 496.930487 469.632969 509.704771 
C 451.086524 522.479055 430.276225 531.60588 408.316143 536.596646 
C 386.356061 541.587411 363.645188 542.35144 341.399342 538.847831 
C 319.153496 535.344221 297.776862 527.63663 278.413827 516.13768 
C 259.050793 504.63873 242.053166 489.557345 228.330908 471.700902 
C 214.608649 453.844458 204.411079 433.53739 198.284119 411.866827 
C 192.15716 390.196263 190.212131 367.555938 192.553161 345.15789 
C 194.89419 322.759843 201.478743 301.011024 211.954318 281.075747 
C 222.429894 261.140469 236.60616 243.380939 253.724198 228.747903 
C 270.842236 214.114868 290.591027 202.874195 311.913328 195.62765 
C 333.23563 188.381105 355.744036 185.26035 378.23357 186.432453 
C 400.723104 187.604557 422.785151 193.048222 443.238632 202.472026 
C 463.692113 211.89583 482.165406 225.128551 497.669553 241.46178 
C 513.173699 257.79501 525.427004 276.93199 533.773491 297.84823 
C 542.119978 318.764471 546.408 341.079943 546.408 363.6 
L 590.76 363.6 
z
" style="fill: none; opacity: 0"/>
   </g>
   <g id="patch_3">
    <path d="M 585.967214 409.455485 
C 587.559389 401.922042 588.758124 394.310784 589.558548 386.652645 
C 590.358972 378.994505 590.759999 371.299872 590.76 363.600016 
L 546.408 363.600012 
C 546.408 369.759897 546.087178 375.915604 545.446839 382.042116 
C 544.806499 388.168628 543.847511 394.257634 542.573771 400.284388 
z
" style="stroke: #ffffff; stroke-linejoin: miter"/>
   </g>
   <g id="patch_4">
    <path d="M 546.408 363.6 
C 546.408 316.566518 527.704094 271.411294 494.4464 238.1536 
C 461.188706 204.895906 416.033482 186.192 369 186.192 
C 321.966518 186.192 276.811294 204.895906 243.5536 238.1536 
C 210.295906 271.411294 191.592 316.566518 191.592 363.6 
L 369 363.6 
z
" style="fill: #d62728; stroke: #ffffff; stroke-linejoin: miter"/>
   </g>
   <g id="patch_5">
    <path d="M 191.592 363.6 
C 191.592 410.633482 210.295906 455.788706 243.5536 489.0464 
C 276.811294 522.304094 321.966518 541.008 369 541.008 
C 416.033482 541.008 461.188706 522.304094 494.4464 489.0464 
C 527.704094 455.788706 546.408 410.633482 546.408 363.6 
L 369 363.6 
z
" style="fill: #dbdb8d; stroke: #ffffff; stroke-linejoin: miter"/>
   </g>
   <g id="matplotlib.axis_1"/>
   <g id="matplotlib.axis_2"/>
  </g>
 </g>
</svg>
