<?xml version="1.0" encoding="utf-8" standalone="no"?>
<!DOCTYPE svg PUBLIC "-//W3C//DTD SVG 1.1//EN"
  "http://www.w3.org/Graphics/SVG/1.1/DTD/svg11.dtd">
<svg xmlns:xlink="http://www.w3.org/1999/xlink" width="720pt" height="720pt" viewBox="0 0 720 720" xmlns="http://www.w3.org/2000/svg" version="1.1">
 <metadata>
  <rdf:RDF xmlns:dc="http://purl.org/dc/elements/1.1/" xmlns:cc="http://creativecommons.org/ns#" xmlns:rdf="http://www.w3.org/1999/02/22-rdf-syntax-ns#">
   <cc:Work>
    <dc:type rdf:resource="http://purl.org/dc/dcmitype/StillImage"/>
    <dc:date>2024-02-23T18:45:31.391466</dc:date>
    <dc:format>image/svg+xml</dc:format>
    <dc:creator>
     <cc:Agent>
      <dc:title>Matplotlib v3.8.2, https://matplotlib.org/</dc:title>
     </cc:Agent>
    </dc:creator>
   </cc:Work>
  </rdf:RDF>
 </metadata>
 <defs>
  <style type="text/css">*{stroke-linejoin: round; stroke-linecap: butt}</style>
 </defs>
 <g id="figure_1">
  <g id="patch_1">
   <path d="M 0 720 
L 720 720 
L 720 0 
L 0 0 
L 0 720 
z
" style="fill: none"/>
  </g>
  <g id="axes_1">
   <g id="patch_2">
    <path d="M 590.76 363.6 
C 590.76 329.151608 582.733135 295.172401 567.317964 264.365516 
C 551.902792 233.55863 529.519222 206.763242 501.947925 186.110995 
L 475.35834 221.608796 
C 497.415378 238.130594 515.322234 259.566904 527.654371 284.212413 
C 539.986508 308.857921 546.408 336.041286 546.408 363.6 
L 590.76 363.6 
z
" style="fill: none; opacity: 0"/>
   </g>
   <g id="patch_3">
    <path d="M 501.947925 186.110995 
C 482.099667 171.243681 459.897399 159.810523 436.266802 152.288204 
C 412.636205 144.765886 387.910318 141.260422 363.120037 141.917967 
C 338.329756 142.575512 313.824464 147.386799 290.625862 156.15123 
C 267.42726 164.915661 245.862298 177.509715 226.830084 193.408307 
C 207.79787 209.306898 191.566635 228.285961 178.81311 249.5542 
C 166.059585 270.822439 156.963511 294.080109 151.904131 318.357528 
C 146.844751 342.634947 145.89337 367.58996 149.089654 392.182116 
C 152.285938 416.774273 159.584839 440.656982 170.682046 462.834503 
C 181.779252 485.012023 196.518363 505.171794 214.284862 522.473295 
C 232.051361 539.774795 252.594854 553.974184 275.058822 564.479448 
C 297.522789 574.984712 321.590634 581.647793 346.258894 584.190888 
C 370.927154 586.733982 395.848167 585.121249 419.9829 579.419928 
C 444.117633 573.718608 467.125942 564.009051 488.048541 550.696078 
C 508.97114 537.383106 527.513156 520.654345 542.901516 501.207269 
C 558.289875 481.760192 570.307702 459.868878 578.453937 436.446042 
C 586.600172 413.023206 590.760005 388.398958 590.76 363.599958 
L 546.408 363.599967 
C 546.408004 383.439167 543.080137 403.138565 536.56315 421.876834 
C 530.046162 440.615103 520.4319 458.128154 508.121213 473.685815 
C 495.810525 489.243476 480.976912 502.626485 464.238833 513.276863 
C 447.500753 523.92724 429.094106 531.694886 409.78632 536.255943 
C 390.478533 540.817 370.541723 542.107186 350.807115 540.07271 
C 331.072507 538.038234 311.818231 532.707769 293.847057 524.303558 
C 275.875884 515.899348 259.441089 504.539836 245.22789 490.698636 
C 231.014691 476.857436 219.223401 460.729619 210.345636 442.987602 
C 201.467872 425.245586 195.62875 406.139418 193.071723 386.465693 
C 190.514696 366.791968 191.275801 346.827958 195.323305 327.406022 
C 199.370809 307.984087 206.647668 289.377951 216.850488 272.36336 
C 227.053308 255.348769 240.038296 240.165519 255.264067 227.446645 
C 270.489838 214.727772 287.741808 204.652529 306.30069 197.640984 
C 324.859572 190.629439 344.463805 186.78041 364.296029 186.254374 
C 384.128254 185.728338 403.908964 188.532709 422.813442 194.550564 
C 441.717919 200.568419 459.479733 209.714945 475.35834 221.608796 
z
" style="stroke: #ffffff; stroke-linejoin: miter"/>
   </g>
   <g id="patch_4">
    <path d="M 546.408 363.6 
C 546.408 322.900498 532.402576 283.414926 506.757041 251.811825 
C 481.111506 220.208724 445.355702 198.373323 405.528265 189.993306 
C 365.700827 181.613288 324.177596 187.188549 287.971242 205.777508 
C 251.764888 224.366468 223.035241 254.860232 206.634322 292.108847 
L 369 363.6 
z
" style="fill: #c7c7c7; stroke: #ffffff; stroke-linejoin: miter"/>
   </g>
   <g id="patch_5">
    <path d="M 206.634322 292.108847 
C 192.181583 324.932891 188.016652 361.380634 194.691811 396.61899 
C 201.36697 431.857347 218.573527 464.256715 244.029837 489.520836 
L 369 363.6 
z
" style="fill: #dbdb8d; stroke: #ffffff; stroke-linejoin: miter"/>
   </g>
   <g id="patch_6">
    <path d="M 244.029837 489.520836 
C 254.436671 499.8491 266.083864 508.847522 278.704715 516.310052 
C 291.325566 523.772582 304.823001 529.641821 318.887949 533.783374 
L 369 363.6 
z
" style="fill: #d62728; stroke: #ffffff; stroke-linejoin: miter"/>
   </g>
   <g id="patch_7">
    <path d="M 318.887949 533.783374 
C 345.343839 541.573553 373.255405 543.088415 400.399014 538.207275 
C 427.542623 533.326135 453.177793 522.182151 475.262245 505.663133 
C 497.346698 489.144114 515.277966 467.700702 527.627518 443.041229 
C 539.97707 418.381757 546.408009 391.178938 546.408 363.599942 
L 369 363.6 
z
" style="fill: #9edae5; stroke: #ffffff; stroke-linejoin: miter"/>
   </g>
   <g id="matplotlib.axis_1"/>
   <g id="matplotlib.axis_2"/>
  </g>
 </g>
</svg>
