<?xml version="1.0" encoding="utf-8" standalone="no"?>
<!DOCTYPE svg PUBLIC "-//W3C//DTD SVG 1.1//EN"
  "http://www.w3.org/Graphics/SVG/1.1/DTD/svg11.dtd">
<svg xmlns:xlink="http://www.w3.org/1999/xlink" width="720pt" height="720pt" viewBox="0 0 720 720" xmlns="http://www.w3.org/2000/svg" version="1.1">
 <metadata>
  <rdf:RDF xmlns:dc="http://purl.org/dc/elements/1.1/" xmlns:cc="http://creativecommons.org/ns#" xmlns:rdf="http://www.w3.org/1999/02/22-rdf-syntax-ns#">
   <cc:Work>
    <dc:type rdf:resource="http://purl.org/dc/dcmitype/StillImage"/>
    <dc:date>2024-02-23T18:45:31.819084</dc:date>
    <dc:format>image/svg+xml</dc:format>
    <dc:creator>
     <cc:Agent>
      <dc:title>Matplotlib v3.8.2, https://matplotlib.org/</dc:title>
     </cc:Agent>
    </dc:creator>
   </cc:Work>
  </rdf:RDF>
 </metadata>
 <defs>
  <style type="text/css">*{stroke-linejoin: round; stroke-linecap: butt}</style>
 </defs>
 <g id="figure_1">
  <g id="patch_1">
   <path d="M 0 720 
L 720 720 
L 720 0 
L 0 0 
L 0 720 
z
" style="fill: none"/>
  </g>
  <g id="axes_1">
   <g id="patch_2">
    <path d="M 590.76 363.6 
C 590.76 335.42383 585.390029 307.504104 574.93809 281.338219 
C 564.486151 255.172334 549.1425 231.236585 529.730052 210.8147 
C 510.317604 190.392815 487.189719 173.85653 461.586801 162.092725 
C 435.983882 150.32892 408.371976 143.551729 380.23197 142.124628 
C 352.091964 140.697527 323.936087 144.646494 297.274404 153.759736 
C 270.61272 162.872978 245.930549 176.984609 224.55165 195.337789 
C 203.172751 213.690969 185.486281 235.951619 172.440807 260.925849 
C 159.395333 285.900078 151.228319 313.133286 148.377781 341.164893 
C 145.527243 369.1965 148.045068 397.51625 155.79622 424.605292 
C 163.547372 451.694334 176.390758 477.059569 193.637557 499.340603 
C 210.884357 521.621636 232.220629 540.41289 256.502062 554.706545 
C 280.783494 569.0002 307.568095 578.536072 335.419346 582.802731 
C 363.270597 587.06939 391.681525 585.989169 419.128388 579.620004 
C 446.575251 573.25084 472.558438 561.708667 495.684411 545.612521 
C 518.810383 529.516374 538.658183 509.159249 554.163328 485.632944 
C 569.668473 462.106639 580.548725 435.8394 586.220552 408.239999 
L 542.776441 399.311999 
C 538.23898 421.39152 529.534779 442.405311 517.130663 461.226355 
C 504.726547 480.047399 488.848307 496.333099 470.347528 509.210017 
C 451.84675 522.086934 431.060201 531.320672 409.102711 536.416003 
C 387.14522 541.511335 364.416478 542.375512 342.135477 538.962185 
C 319.854476 535.548858 298.426795 527.92016 279.001649 516.485236 
C 259.576503 505.050312 242.507485 490.017309 228.710046 472.192482 
C 214.912606 454.367656 204.637897 434.075467 198.436976 412.404234 
C 192.236054 390.733 190.221794 368.0772 192.502225 345.651914 
C 194.782655 323.226629 201.316267 301.440063 211.752646 281.460679 
C 222.189025 261.481295 236.338201 243.672775 253.44132 228.990231 
C 270.544439 214.307687 290.290176 203.018382 311.619523 195.727789 
C 332.94887 188.437195 355.473571 185.278022 377.985576 186.419702 
C 400.49758 187.561383 422.587106 192.983136 443.069441 202.39418 
C 463.551776 211.805224 482.054083 225.034252 497.584042 241.37176 
C 513.114 257.709268 525.388921 276.857867 533.750472 297.790575 
C 542.112023 318.723283 546.408 341.059064 546.408 363.6 
L 590.76 363.6 
z
" style="fill: none; opacity: 0"/>
   </g>
   <g id="patch_3">
    <path d="M 586.220552 408.239999 
C 587.728839 400.900597 588.864184 393.489465 589.622217 386.035128 
C 590.38025 378.58079 590.759999 371.092822 590.76 363.600042 
L 546.408 363.600033 
C 546.407999 369.594258 546.1042 375.584632 545.497774 381.548102 
C 544.891347 387.511572 543.983071 393.440477 542.776441 399.311999 
z
" style="stroke: #ffffff; stroke-linejoin: miter"/>
   </g>
   <g id="patch_4">
    <path d="M 546.408 363.6 
C 546.408 340.302995 541.818998 317.232524 532.90362 295.708898 
C 523.988242 274.185271 510.91987 254.62707 494.4464 238.1536 
C 477.97293 221.68013 458.414729 208.611758 436.891102 199.69638 
C 415.367476 190.781002 392.297005 186.192 369 186.192 
C 345.702995 186.192 322.632524 190.781002 301.108898 199.69638 
C 279.585271 208.611758 260.02707 221.68013 243.5536 238.1536 
C 227.08013 254.62707 214.011758 274.185271 205.09638 295.708898 
C 196.181002 317.232524 191.592 340.302995 191.592 363.6 
C 191.592 386.897005 196.181002 409.967476 205.09638 431.491102 
C 214.011758 453.014729 227.08013 472.57293 243.5536 489.0464 
C 260.02707 505.51987 279.585271 518.588242 301.108898 527.50362 
C 322.632524 536.418998 345.702995 541.008 369 541.008 
C 392.297005 541.008 415.367476 536.418998 436.891102 527.50362 
C 458.414729 518.588242 477.97293 505.51987 494.4464 489.0464 
C 510.91987 472.57293 523.988242 453.014729 532.90362 431.491102 
C 541.818998 409.967476 546.408 386.897005 546.408 363.6 
M 369 363.6 
z
" style="fill: #f7b6d2; stroke: #ffffff; stroke-linejoin: miter"/>
   </g>
   <g id="matplotlib.axis_1"/>
   <g id="matplotlib.axis_2"/>
  </g>
 </g>
</svg>
