<?xml version="1.0" encoding="utf-8" standalone="no"?>
<!DOCTYPE svg PUBLIC "-//W3C//DTD SVG 1.1//EN"
  "http://www.w3.org/Graphics/SVG/1.1/DTD/svg11.dtd">
<svg xmlns:xlink="http://www.w3.org/1999/xlink" width="720pt" height="720pt" viewBox="0 0 720 720" xmlns="http://www.w3.org/2000/svg" version="1.1">
 <metadata>
  <rdf:RDF xmlns:dc="http://purl.org/dc/elements/1.1/" xmlns:cc="http://creativecommons.org/ns#" xmlns:rdf="http://www.w3.org/1999/02/22-rdf-syntax-ns#">
   <cc:Work>
    <dc:type rdf:resource="http://purl.org/dc/dcmitype/StillImage"/>
    <dc:date>2024-02-23T18:45:31.470851</dc:date>
    <dc:format>image/svg+xml</dc:format>
    <dc:creator>
     <cc:Agent>
      <dc:title>Matplotlib v3.8.2, https://matplotlib.org/</dc:title>
     </cc:Agent>
    </dc:creator>
   </cc:Work>
  </rdf:RDF>
 </metadata>
 <defs>
  <style type="text/css">*{stroke-linejoin: round; stroke-linecap: butt}</style>
 </defs>
 <g id="figure_1">
  <g id="patch_1">
   <path d="M 0 720 
L 720 720 
L 720 0 
L 0 0 
L 0 720 
z
" style="fill: none"/>
  </g>
  <g id="axes_1">
   <g id="patch_2">
    <path d="M 590.76 363.6 
C 590.76 339.778939 586.921776 316.112739 579.393123 293.512688 
C 571.86447 270.912636 560.743275 249.67258 546.457769 230.610385 
C 532.172263 211.548189 514.908188 194.911704 495.33031 181.341529 
C 475.752432 167.771353 454.115305 157.443929 431.252083 150.756922 
C 408.388862 144.069915 384.596816 141.11027 360.792077 141.991951 
C 336.987338 142.873631 313.479418 147.585173 291.173507 155.945155 
C 268.867596 164.305138 248.053718 176.204863 229.533329 191.186122 
C 211.012939 206.167382 195.026842 224.035388 182.190594 244.102119 
C 169.354346 264.16885 159.834846 286.173397 153.998649 309.268456 
C 148.162452 332.363516 146.085441 356.248803 147.847594 380.004598 
C 149.609746 403.760393 155.18815 427.077819 164.368005 449.059021 
C 173.54786 471.040222 186.209807 491.399398 201.86629 509.352601 
C 217.522773 527.305804 235.970224 542.619606 256.498309 554.704336 
C 277.026394 566.789065 299.368204 575.487597 322.663452 580.464985 
C 345.9587 585.442374 369.904497 586.633904 393.578792 583.993695 
C 417.253087 581.353485 440.348065 574.915864 461.974434 564.928717 
L 443.379547 524.662973 
C 426.078452 532.652691 407.60247 537.802788 388.663034 539.914956 
C 369.723597 542.027123 350.56696 541.073899 331.930762 537.091988 
C 313.294563 533.110077 295.421115 526.151252 278.998647 516.483468 
C 262.576179 506.815685 247.818219 494.564643 235.293032 480.202081 
C 222.767846 465.839518 212.638288 449.552178 205.294404 431.967216 
C 197.95052 414.382255 193.487797 395.728314 192.078075 376.723678 
C 190.668353 357.719043 192.329962 338.610813 196.998919 320.134765 
C 201.667877 301.658717 209.283477 284.05508 219.552475 268.001695 
C 229.821474 251.94831 242.610352 237.653906 257.426663 225.668898 
C 272.242975 213.68389 288.894076 204.16411 306.738805 197.476124 
C 324.583534 190.788138 343.38987 187.018905 362.433661 186.31356 
C 381.477453 185.608216 400.511089 187.975932 418.801667 193.325538 
C 437.092244 198.675144 454.401945 206.937083 470.064248 217.793223 
C 485.72655 228.649363 499.537811 241.958552 510.966215 257.208308 
C 522.39462 272.458064 531.291576 289.450109 537.314498 307.53015 
C 543.337421 325.610192 546.408 344.543151 546.408 363.6 
L 590.76 363.6 
z
" style="fill: none; opacity: 0"/>
   </g>
   <g id="patch_3">
    <path d="M 461.974434 564.928717 
C 500.421245 547.17382 532.98945 518.772006 555.809406 483.097881 
C 578.629362 447.423756 590.76 405.948478 590.76 363.6 
L 546.408 363.6 
C 546.408 397.478782 536.703489 430.659004 518.447525 459.198305 
C 500.19156 487.737605 474.136996 510.459056 443.379547 524.662973 
z
" style="stroke: #ffffff; stroke-linejoin: miter"/>
   </g>
   <g id="patch_4">
    <path d="M 546.408 363.6 
C 546.408 321.214741 531.218351 280.201466 503.609758 248.041307 
C 476.001166 215.881148 437.760977 194.656114 395.86449 188.23781 
C 353.968003 181.819507 311.127547 190.623447 275.157541 213.043727 
C 239.187536 235.464006 212.416637 270.049163 199.728057 310.490604 
L 369 363.6 
z
" style="fill: #98df8a; stroke: #ffffff; stroke-linejoin: miter"/>
   </g>
   <g id="patch_5">
    <path d="M 199.728057 310.490604 
C 188.881452 345.061248 188.881457 382.138802 199.728072 416.709443 
C 210.574687 451.280084 231.755922 481.71198 260.407537 503.889969 
L 369 363.6 
z
" style="fill: #e377c2; stroke: #ffffff; stroke-linejoin: miter"/>
   </g>
   <g id="patch_6">
    <path d="M 260.407537 503.889969 
C 279.428492 518.613276 301.2466 529.315563 324.532277 535.344636 
C 347.817954 541.37371 372.088384 542.604561 395.864539 538.962182 
L 369 363.6 
z
" style="fill: #d62728; stroke: #ffffff; stroke-linejoin: miter"/>
   </g>
   <g id="patch_7">
    <path d="M 395.864539 538.962182 
C 437.761024 532.543867 476.001207 511.318822 503.609791 479.158655 
C 531.218374 446.998488 546.408012 405.98521 546.408 363.59995 
L 369 363.6 
z
" style="fill: #9edae5; stroke: #ffffff; stroke-linejoin: miter"/>
   </g>
   <g id="matplotlib.axis_1"/>
   <g id="matplotlib.axis_2"/>
  </g>
 </g>
</svg>
