<?xml version="1.0" encoding="utf-8" standalone="no"?>
<!DOCTYPE svg PUBLIC "-//W3C//DTD SVG 1.1//EN"
  "http://www.w3.org/Graphics/SVG/1.1/DTD/svg11.dtd">
<svg xmlns:xlink="http://www.w3.org/1999/xlink" width="720pt" height="720pt" viewBox="0 0 720 720" xmlns="http://www.w3.org/2000/svg" version="1.1">
 <metadata>
  <rdf:RDF xmlns:dc="http://purl.org/dc/elements/1.1/" xmlns:cc="http://creativecommons.org/ns#" xmlns:rdf="http://www.w3.org/1999/02/22-rdf-syntax-ns#">
   <cc:Work>
    <dc:type rdf:resource="http://purl.org/dc/dcmitype/StillImage"/>
    <dc:date>2024-02-23T18:45:32.201015</dc:date>
    <dc:format>image/svg+xml</dc:format>
    <dc:creator>
     <cc:Agent>
      <dc:title>Matplotlib v3.8.2, https://matplotlib.org/</dc:title>
     </cc:Agent>
    </dc:creator>
   </cc:Work>
  </rdf:RDF>
 </metadata>
 <defs>
  <style type="text/css">*{stroke-linejoin: round; stroke-linecap: butt}</style>
 </defs>
 <g id="figure_1">
  <g id="patch_1">
   <path d="M 0 720 
L 720 720 
L 720 0 
L 0 0 
L 0 720 
z
" style="fill: none"/>
  </g>
  <g id="axes_1">
   <g id="patch_2">
    <path d="M 590.76 363.6 
C 590.76 334.833217 585.162545 306.33937 574.280348 279.710333 
C 563.398152 253.081296 547.437713 228.822376 527.290698 208.288852 
C 507.143683 187.755329 483.192397 171.336842 456.774933 159.950648 
C 430.357469 148.564453 401.97512 142.426614 373.21353 141.880033 
C 344.45194 141.333452 315.856883 146.388503 289.025887 156.762772 
C 262.194891 167.137041 237.637096 182.633669 216.724477 202.386902 
C 195.811859 222.140135 178.941252 245.77514 167.055171 271.971492 
C 155.169089 298.167844 148.493081 326.428448 147.400118 355.174461 
C 146.307154 383.920473 150.817974 412.606416 160.68057 439.629684 
C 170.543167 466.652952 185.57039 491.500756 204.922708 512.784919 
C 224.275027 534.069081 247.585216 551.385717 273.550999 563.767395 
C 299.516782 576.149072 327.645437 583.360837 356.365494 584.99979 
C 385.08555 586.638742 413.852022 582.673781 441.057805 573.326418 
C 468.263588 563.979055 493.39243 549.426663 515.040452 530.482246 
C 536.688474 511.537829 554.444887 488.560871 567.31769 462.835032 
C 580.190492 437.109193 587.935412 409.122642 590.119761 380.438911 
L 545.895809 377.071129 
C 544.148329 400.018114 537.952394 422.407355 527.654152 442.988026 
C 517.35591 463.568696 503.150779 481.950263 485.832362 497.105797 
C 468.513944 512.261331 448.41087 523.903244 426.646244 531.381134 
C 404.881618 538.859025 381.86844 542.030994 358.892395 540.719832 
C 335.91635 539.40867 313.413426 533.639257 292.640799 523.733916 
C 271.868173 513.828574 253.220022 499.975265 237.738167 482.947935 
C 222.256312 465.920605 210.234534 446.042361 202.344456 424.423747 
C 194.454379 402.805133 190.845723 379.856379 191.720094 356.859569 
C 192.594465 333.862759 197.935271 311.254275 207.444137 290.297194 
C 216.953002 269.340112 230.449487 250.432108 247.179582 234.629522 
C 263.909677 218.826936 283.555913 206.429633 305.02071 198.130218 
C 326.485507 189.830802 349.361552 185.786762 372.370824 186.224026 
C 395.380096 186.661291 418.085975 191.571563 439.219946 200.680518 
C 460.353917 209.789474 479.514946 222.924263 495.632558 239.351082 
C 511.75017 255.777901 524.518522 275.185037 533.224279 296.488266 
C 541.930036 317.791496 546.408 340.586574 546.408 363.6 
L 590.76 363.6 
z
" style="fill: none; opacity: 0"/>
   </g>
   <g id="patch_3">
    <path d="M 590.119761 380.438911 
C 590.333078 377.637746 590.493147 374.832779 590.599883 372.025531 
C 590.706618 369.218283 590.76 366.409261 590.76 363.599984 
L 546.408 363.599988 
C 546.408 365.847409 546.365295 368.094627 546.279906 370.340425 
C 546.194518 372.586223 546.066462 374.830197 545.895809 377.071129 
z
" style="stroke: #ffffff; stroke-linejoin: miter"/>
   </g>
   <g id="patch_4">
    <path d="M 546.408 363.6 
C 546.408 332.460709 538.209479 301.863414 522.639833 274.895998 
C 507.070188 247.928581 484.671413 225.529807 457.703995 209.960162 
C 430.736578 194.390518 400.139283 186.191999 368.999992 186.192 
C 337.860701 186.192001 307.263406 194.390524 280.29599 209.960171 
L 369 363.6 
z
" style="fill: #17becf; stroke: #ffffff; stroke-linejoin: miter"/>
   </g>
   <g id="patch_5">
    <path d="M 280.29599 209.960171 
C 253.328574 225.529818 230.929802 247.928594 215.360158 274.896012 
C 199.790515 301.86343 191.591997 332.460726 191.592 363.600017 
C 191.592003 394.739308 199.790526 425.336602 215.360175 452.304017 
C 230.929823 479.271432 253.3286 501.670204 280.296019 517.239846 
C 307.263438 532.809488 337.860734 541.008004 369.000025 541.008 
C 400.139316 541.007996 430.736609 532.809471 457.704024 517.239821 
C 484.671439 501.670171 507.070209 479.271393 522.63985 452.303974 
C 538.209491 425.336554 546.408006 394.739258 546.408 363.599967 
L 369 363.6 
z
" style="fill: #9edae5; stroke: #ffffff; stroke-linejoin: miter"/>
   </g>
   <g id="matplotlib.axis_1"/>
   <g id="matplotlib.axis_2"/>
  </g>
 </g>
</svg>
