<?xml version="1.0" encoding="utf-8" standalone="no"?>
<!DOCTYPE svg PUBLIC "-//W3C//DTD SVG 1.1//EN"
  "http://www.w3.org/Graphics/SVG/1.1/DTD/svg11.dtd">
<svg xmlns:xlink="http://www.w3.org/1999/xlink" width="720pt" height="720pt" viewBox="0 0 720 720" xmlns="http://www.w3.org/2000/svg" version="1.1">
 <metadata>
  <rdf:RDF xmlns:dc="http://purl.org/dc/elements/1.1/" xmlns:cc="http://creativecommons.org/ns#" xmlns:rdf="http://www.w3.org/1999/02/22-rdf-syntax-ns#">
   <cc:Work>
    <dc:type rdf:resource="http://purl.org/dc/dcmitype/StillImage"/>
    <dc:date>2024-02-23T18:45:32.960759</dc:date>
    <dc:format>image/svg+xml</dc:format>
    <dc:creator>
     <cc:Agent>
      <dc:title>Matplotlib v3.8.2, https://matplotlib.org/</dc:title>
     </cc:Agent>
    </dc:creator>
   </cc:Work>
  </rdf:RDF>
 </metadata>
 <defs>
  <style type="text/css">*{stroke-linejoin: round; stroke-linecap: butt}</style>
 </defs>
 <g id="figure_1">
  <g id="patch_1">
   <path d="M 0 720 
L 720 720 
L 720 0 
L 0 0 
L 0 720 
z
" style="fill: none"/>
  </g>
  <g id="axes_1">
   <g id="patch_2">
    <path d="M 590.76 363.6 
C 590.76 336.002622 585.608382 308.646185 575.570372 282.939111 
C 565.532363 257.232038 550.783236 233.623202 532.08234 213.328086 
C 513.381444 193.03297 491.055315 176.405949 466.253398 164.30305 
C 441.451481 152.200152 414.606842 144.832706 387.101558 142.580021 
C 359.596274 140.327335 331.910616 143.228744 305.469957 151.13487 
C 279.029299 159.040997 254.295323 171.813791 232.541438 188.795657 
C 210.787553 205.777522 192.393606 226.671937 178.306594 250.403168 
C 164.219583 274.1344 154.685481 300.288076 150.195144 327.517695 
C 145.704808 354.747313 146.336643 382.577416 152.05812 409.575193 
C 157.779597 436.57297 168.490813 462.26701 183.64031 485.334477 
C 198.789806 508.401943 218.113057 528.440053 240.615219 544.41716 
C 263.117381 560.394268 288.405543 572.031395 315.177763 578.729413 
C 341.949984 585.427432 369.738792 587.069387 397.113502 583.570745 
C 424.488212 580.072103 450.970833 571.493952 475.197927 558.277934 
C 499.425021 545.061915 520.973558 527.438794 538.734129 506.315882 
C 556.494699 485.192971 570.157184 460.939098 579.018182 434.802955 
L 537.014546 420.562364 
C 529.925748 441.471278 518.995759 460.874377 504.787303 477.772706 
C 490.578847 494.671035 473.340017 508.769532 453.958342 519.342347 
C 434.576666 529.915162 413.390569 536.777682 391.490801 539.576596 
C 369.591033 542.37551 347.359987 541.061945 325.942211 535.703531 
C 304.524434 530.345116 284.293904 521.035414 266.292175 508.253728 
C 248.290445 495.472043 232.831845 479.441555 220.712248 460.987581 
C 208.592651 442.533608 200.023678 421.978376 195.446496 400.380154 
C 190.869314 378.781933 190.363846 356.51785 193.956116 334.734156 
C 197.548385 312.950461 205.175666 292.02752 216.445276 273.042535 
C 227.714885 254.05755 242.430043 237.342018 259.83315 223.756525 
C 277.236258 210.171033 297.023439 199.952797 318.175966 193.627896 
C 339.328492 187.302995 361.477019 184.981868 383.481247 186.784017 
C 405.485474 188.586165 426.961185 194.480122 446.802718 204.16244 
C 466.644252 213.844759 484.505155 227.146376 499.465872 243.382469 
C 514.426589 259.618562 526.22589 278.505631 534.256298 299.071289 
C 542.286705 319.636948 546.408 341.522098 546.408 363.6 
L 590.76 363.6 
z
" style="fill: none; opacity: 0"/>
   </g>
   <g id="patch_3">
    <path d="M 579.018182 434.802955 
C 582.899368 423.355119 585.838054 411.609087 587.804856 399.6823 
C 589.771659 387.755514 590.760001 375.687857 590.76 363.59999 
L 546.408 363.599992 
C 546.408 373.270286 545.617327 382.924411 544.043885 392.46584 
C 542.470443 402.007269 540.119495 411.404096 537.014546 420.562364 
z
" style="stroke: #ffffff; stroke-linejoin: miter"/>
   </g>
   <g id="patch_4">
    <path d="M 546.408 363.6 
C 546.408 345.502905 543.638918 327.511891 538.197017 310.252385 
C 532.755115 292.992878 524.704192 276.667222 514.324125 261.84295 
C 503.944057 247.018678 491.356537 233.869582 476.999145 222.852769 
C 462.641754 211.835956 446.682813 203.080581 429.677106 196.89101 
C 412.671399 190.70144 394.818294 187.150237 376.738424 186.360853 
C 358.658553 185.571469 340.563877 187.553159 323.083425 192.237032 
C 305.602974 196.920906 288.941681 204.252051 273.678746 213.975614 
C 258.415811 223.699177 244.730171 235.701162 233.097583 249.564341 
C 221.464995 263.427521 212.021834 278.989369 205.096377 295.708905 
C 198.170919 312.428441 193.844355 330.109653 192.26709 348.137883 
C 190.689825 366.166114 191.880351 384.330007 195.79728 401.998129 
C 199.714209 419.666251 206.311622 436.631466 215.360171 452.30401 
C 224.408719 467.976553 235.802322 482.172686 249.144901 494.398906 
C 262.48748 506.625125 277.622612 516.738096 294.024151 524.386257 
C 310.42569 532.034419 327.901351 537.128108 345.843623 539.490252 
C 363.785895 541.852395 381.984431 541.4553 399.80659 538.312771 
L 369 363.6 
z
" style="fill: #d62728; stroke: #ffffff; stroke-linejoin: miter"/>
   </g>
   <g id="patch_5">
    <path d="M 399.80659 538.312771 
C 440.872254 531.071783 478.098717 509.579071 504.902423 477.635652 
C 531.706129 445.692234 546.408004 405.299152 546.408 363.599983 
L 369 363.6 
z
" style="fill: #e377c2; stroke: #ffffff; stroke-linejoin: miter"/>
   </g>
   <g id="matplotlib.axis_1"/>
   <g id="matplotlib.axis_2"/>
  </g>
 </g>
</svg>
