<?xml version="1.0" encoding="utf-8" standalone="no"?>
<!DOCTYPE svg PUBLIC "-//W3C//DTD SVG 1.1//EN"
  "http://www.w3.org/Graphics/SVG/1.1/DTD/svg11.dtd">
<svg xmlns:xlink="http://www.w3.org/1999/xlink" width="720pt" height="720pt" viewBox="0 0 720 720" xmlns="http://www.w3.org/2000/svg" version="1.1">
 <metadata>
  <rdf:RDF xmlns:dc="http://purl.org/dc/elements/1.1/" xmlns:cc="http://creativecommons.org/ns#" xmlns:rdf="http://www.w3.org/1999/02/22-rdf-syntax-ns#">
   <cc:Work>
    <dc:type rdf:resource="http://purl.org/dc/dcmitype/StillImage"/>
    <dc:date>2024-02-23T18:45:32.405471</dc:date>
    <dc:format>image/svg+xml</dc:format>
    <dc:creator>
     <cc:Agent>
      <dc:title>Matplotlib v3.8.2, https://matplotlib.org/</dc:title>
     </cc:Agent>
    </dc:creator>
   </cc:Work>
  </rdf:RDF>
 </metadata>
 <defs>
  <style type="text/css">*{stroke-linejoin: round; stroke-linecap: butt}</style>
 </defs>
 <g id="figure_1">
  <g id="patch_1">
   <path d="M 0 720 
L 720 720 
L 720 0 
L 0 0 
L 0 720 
z
" style="fill: none"/>
  </g>
  <g id="axes_1">
   <g id="patch_2">
    <path d="M 590.76 363.6 
C 590.76 335.891606 585.566851 308.427075 575.450042 282.631624 
C 565.333232 256.836173 550.470839 233.163857 531.634117 212.843104 
C 512.797394 192.522351 490.317909 175.910849 465.362189 163.870618 
C 440.406469 151.830387 413.413788 144.573362 385.784877 142.476131 
C 358.155965 140.3789 330.377152 143.478378 303.889962 151.613726 
C 277.402771 159.749073 252.673436 172.777089 230.985234 190.021712 
C 209.297032 207.266335 191.031723 228.424022 177.137147 252.396838 
C 163.242571 276.369654 153.963304 302.735625 149.780874 330.126543 
C 145.598444 357.517461 146.58647 385.451187 152.693682 412.478157 
C 158.800893 439.505127 169.91979 465.149607 185.473379 488.08083 
C 201.026968 511.012053 220.741474 530.82638 243.59385 546.495585 
C 266.446227 562.164791 292.034224 573.413064 319.030004 579.656699 
C 346.025784 585.900333 373.954164 587.029427 401.365856 582.985389 
C 428.777549 578.941351 455.190049 569.795364 479.232734 556.022041 
C 503.275419 542.248718 524.525086 524.0905 541.879026 502.489669 
C 559.232966 480.888838 572.385712 456.225616 580.65473 429.779852 
L 538.323784 416.543881 
C 531.70857 437.700493 521.186372 457.43107 507.303221 474.711735 
C 493.420069 491.9924 476.420335 506.518975 457.186187 517.537633 
C 437.952039 528.556291 416.822039 535.873081 394.892685 539.108311 
C 372.963331 542.343542 350.620627 541.440267 329.024003 536.445359 
C 307.427379 531.450452 286.956981 522.451833 268.67508 509.916468 
C 250.393179 497.381104 234.621575 481.529642 222.178703 463.184664 
C 209.735832 444.839686 200.840715 424.324101 195.954945 402.702526 
C 191.069176 381.08095 190.278755 358.733969 193.624699 336.821235 
C 196.970643 314.9085 204.394057 293.815723 215.509718 274.63747 
C 226.625378 255.459218 241.237626 238.533068 258.588187 224.73737 
C 275.938749 210.941672 295.722217 200.519258 316.911969 194.010981 
C 338.101721 187.502703 360.324772 185.02312 382.427901 186.700905 
C 404.53103 188.37869 426.125175 194.18431 446.089751 203.816494 
C 466.054328 213.448679 484.037916 226.737881 499.107293 242.994483 
C 514.176671 259.251086 526.066586 278.188938 534.160033 298.825299 
C 542.253481 319.46166 546.408 341.433284 546.408 363.6 
L 590.76 363.6 
z
" style="fill: none; opacity: 0"/>
   </g>
   <g id="patch_3">
    <path d="M 580.65473 429.779852 
C 583.998935 419.0845 586.527647 408.151032 588.219129 397.073436 
C 589.910611 385.99584 590.760002 374.80595 590.76 363.599958 
L 546.408 363.599967 
C 546.408002 372.56476 545.728489 381.516672 544.375303 390.378749 
C 543.022118 399.240826 540.999148 407.9876 538.323784 416.543881 
z
" style="stroke: #ffffff; stroke-linejoin: miter"/>
   </g>
   <g id="patch_4">
    <path d="M 546.408 363.6 
C 546.408 340.302995 541.818998 317.232524 532.90362 295.708898 
C 523.988242 274.185271 510.91987 254.62707 494.4464 238.1536 
C 477.97293 221.68013 458.414729 208.611758 436.891102 199.69638 
C 415.367476 190.781002 392.297005 186.192 369 186.192 
C 345.702995 186.192 322.632524 190.781002 301.108898 199.69638 
C 279.585271 208.611758 260.02707 221.68013 243.5536 238.1536 
C 227.08013 254.62707 214.011758 274.185271 205.09638 295.708898 
C 196.181002 317.232524 191.592 340.302995 191.592 363.6 
C 191.592 386.897005 196.181002 409.967476 205.09638 431.491102 
C 214.011758 453.014729 227.08013 472.57293 243.5536 489.0464 
C 260.02707 505.51987 279.585271 518.588242 301.108898 527.50362 
C 322.632524 536.418998 345.702995 541.008 369 541.008 
C 392.297005 541.008 415.367476 536.418998 436.891102 527.50362 
C 458.414729 518.588242 477.97293 505.51987 494.4464 489.0464 
C 510.91987 472.57293 523.988242 453.014729 532.90362 431.491102 
C 541.818998 409.967476 546.408 386.897005 546.408 363.6 
M 369 363.6 
z
" style="fill: #d62728; stroke: #ffffff; stroke-linejoin: miter"/>
   </g>
   <g id="matplotlib.axis_1"/>
   <g id="matplotlib.axis_2"/>
  </g>
 </g>
</svg>
