<?xml version="1.0" encoding="utf-8" standalone="no"?>
<!DOCTYPE svg PUBLIC "-//W3C//DTD SVG 1.1//EN"
  "http://www.w3.org/Graphics/SVG/1.1/DTD/svg11.dtd">
<svg xmlns:xlink="http://www.w3.org/1999/xlink" width="720pt" height="720pt" viewBox="0 0 720 720" xmlns="http://www.w3.org/2000/svg" version="1.1">
 <metadata>
  <rdf:RDF xmlns:dc="http://purl.org/dc/elements/1.1/" xmlns:cc="http://creativecommons.org/ns#" xmlns:rdf="http://www.w3.org/1999/02/22-rdf-syntax-ns#">
   <cc:Work>
    <dc:type rdf:resource="http://purl.org/dc/dcmitype/StillImage"/>
    <dc:date>2024-02-23T18:45:32.947681</dc:date>
    <dc:format>image/svg+xml</dc:format>
    <dc:creator>
     <cc:Agent>
      <dc:title>Matplotlib v3.8.2, https://matplotlib.org/</dc:title>
     </cc:Agent>
    </dc:creator>
   </cc:Work>
  </rdf:RDF>
 </metadata>
 <defs>
  <style type="text/css">*{stroke-linejoin: round; stroke-linecap: butt}</style>
 </defs>
 <g id="figure_1">
  <g id="patch_1">
   <path d="M 0 720 
L 720 720 
L 720 0 
L 0 0 
L 0 720 
z
" style="fill: none"/>
  </g>
  <g id="axes_1">
   <g id="patch_2">
    <path d="M 590.76 363.6 
C 590.76 335.347762 585.360995 307.354054 574.854086 281.12823 
C 564.347178 254.902407 548.924658 230.924441 529.418074 210.487168 
C 509.911489 190.049896 486.67784 173.52735 460.969831 161.810387 
C 435.261822 150.093425 407.549948 143.396485 379.328369 142.08065 
C 351.10679 140.764815 322.892003 144.854168 296.205286 154.128219 
C 269.518568 163.40227 244.848325 177.691291 223.524721 196.22485 
C 202.201116 214.75841 184.614404 237.197316 171.712818 262.331716 
C 158.811232 287.466115 150.830892 314.83601 148.202078 342.965679 
C 145.573264 371.095348 148.344088 399.469976 156.365154 426.559668 
C 164.386219 453.649361 177.510729 478.958336 195.031039 501.121992 
C 212.55135 523.285649 234.146813 541.898358 258.653051 555.956566 
C 283.15929 570.014774 310.127803 579.261195 338.10451 583.197282 
C 366.081217 587.133369 394.554104 585.687087 421.987976 578.936416 
C 449.421849 572.185744 475.314627 560.254231 498.270232 543.785195 
C 521.225837 527.31616 540.824147 506.61101 556.008466 482.78612 
C 571.192785 458.961229 581.685218 432.45263 586.920036 404.689604 
L 543.336029 396.471683 
C 539.148174 418.682104 530.754228 439.888984 518.606773 458.948896 
C 506.459318 478.008808 490.78067 494.572928 472.416186 507.748156 
C 454.051702 520.923385 433.337479 530.468595 411.390381 535.869133 
C 389.443283 541.26967 366.664974 542.426696 344.283608 539.277826 
C 321.902242 536.128956 300.327432 528.731819 280.722441 517.485253 
C 261.11745 506.238686 243.84108 491.348519 229.824832 473.617594 
C 215.808583 455.886669 205.308976 435.639489 198.892123 413.967735 
C 192.475271 392.29598 190.258611 369.596278 192.361662 347.092543 
C 194.464713 324.588808 200.848986 302.692892 211.170254 282.585372 
C 221.491523 262.477853 235.560893 244.526728 252.619777 229.69988 
C 269.67866 214.873033 289.414854 203.441816 310.764228 196.022575 
C 332.113603 188.603334 354.685432 185.331852 377.262695 186.38452 
C 399.839958 187.437188 422.009458 192.79474 442.575865 202.16831 
C 463.142272 211.54188 481.729191 224.759917 497.334459 241.109735 
C 512.939726 257.459553 525.277742 276.641926 533.683269 297.622584 
C 542.088796 318.603243 546.408 340.99821 546.408 363.6 
L 590.76 363.6 
z
" style="fill: none; opacity: 0"/>
   </g>
   <g id="patch_3">
    <path d="M 586.920036 404.689604 
C 588.196549 397.919578 589.156886 391.093742 589.797923 384.23431 
C 590.43896 377.374877 590.760001 370.489297 590.76 363.599977 
L 546.408 363.599981 
C 546.408001 369.111438 546.151168 374.619902 545.638339 380.107448 
C 545.125509 385.594994 544.357239 391.055662 543.336029 396.471683 
z
" style="stroke: #ffffff; stroke-linejoin: miter"/>
   </g>
   <g id="patch_4">
    <path d="M 546.408 363.6 
C 546.408 336.948958 540.402538 310.637309 528.839083 286.62555 
C 517.275629 262.613791 500.448698 241.513488 479.612073 224.896836 
C 458.775449 208.280184 434.459829 196.5704 408.476983 190.639987 
C 382.494138 184.709573 355.505837 184.709575 329.522992 190.639992 
C 303.540148 196.570409 279.224529 208.280196 258.387907 224.896851 
C 237.551285 241.513506 220.724357 262.613812 209.160906 286.625573 
C 197.597455 310.637333 191.591996 336.948983 191.592 363.600025 
C 191.592004 390.251067 197.59747 416.562715 209.160927 440.574472 
L 369 363.6 
z
" style="fill: #d62728; stroke: #ffffff; stroke-linejoin: miter"/>
   </g>
   <g id="patch_5">
    <path d="M 209.160927 440.574472 
C 226.595333 476.777372 255.822674 506.004705 292.02558 523.439098 
C 328.228486 540.873491 369.302286 545.50139 408.477024 536.560004 
C 447.651762 527.618619 482.649999 505.62776 507.70318 474.212054 
C 532.75636 442.796347 546.408008 403.782158 546.408 363.599967 
L 369 363.6 
z
" style="fill: #9edae5; stroke: #ffffff; stroke-linejoin: miter"/>
   </g>
   <g id="matplotlib.axis_1"/>
   <g id="matplotlib.axis_2"/>
  </g>
 </g>
</svg>
