<?xml version="1.0" encoding="utf-8" standalone="no"?>
<!DOCTYPE svg PUBLIC "-//W3C//DTD SVG 1.1//EN"
  "http://www.w3.org/Graphics/SVG/1.1/DTD/svg11.dtd">
<svg xmlns:xlink="http://www.w3.org/1999/xlink" width="720pt" height="720pt" viewBox="0 0 720 720" xmlns="http://www.w3.org/2000/svg" version="1.1">
 <metadata>
  <rdf:RDF xmlns:dc="http://purl.org/dc/elements/1.1/" xmlns:cc="http://creativecommons.org/ns#" xmlns:rdf="http://www.w3.org/1999/02/22-rdf-syntax-ns#">
   <cc:Work>
    <dc:type rdf:resource="http://purl.org/dc/dcmitype/StillImage"/>
    <dc:date>2024-02-23T18:45:31.933018</dc:date>
    <dc:format>image/svg+xml</dc:format>
    <dc:creator>
     <cc:Agent>
      <dc:title>Matplotlib v3.8.2, https://matplotlib.org/</dc:title>
     </cc:Agent>
    </dc:creator>
   </cc:Work>
  </rdf:RDF>
 </metadata>
 <defs>
  <style type="text/css">*{stroke-linejoin: round; stroke-linecap: butt}</style>
 </defs>
 <g id="figure_1">
  <g id="patch_1">
   <path d="M 0 720 
L 720 720 
L 720 0 
L 0 0 
L 0 720 
z
" style="fill: none"/>
  </g>
  <g id="axes_1">
   <g id="patch_2">
    <path d="M 590.76 363.6 
C 590.76 334.810793 585.153815 306.295162 574.255127 279.648642 
C 563.356439 253.002121 547.372383 228.731141 527.197314 208.193734 
C 507.022246 187.656328 483.039602 171.242818 456.591282 159.87159 
C 430.142962 148.500362 401.731629 142.387531 372.946983 141.875128 
C 344.162336 141.362725 315.551441 146.460488 288.715161 156.883183 
C 261.878882 167.305878 237.327255 182.855417 216.434017 202.661755 
C 195.540779 222.468094 178.703016 246.154805 166.86285 272.396545 
C 155.022684 298.638285 148.405144 326.936318 147.3805 355.707285 
C 146.355857 384.478252 150.943583 413.175348 160.886983 440.192884 
C 170.830383 467.210419 185.940478 492.034915 205.371812 513.277365 
C 224.803146 534.519816 248.186418 551.776498 274.213265 564.081851 
C 300.240112 576.387203 328.415881 583.507356 357.164053 585.043916 
C 385.912226 586.580476 414.68643 582.50424 441.876663 573.043285 
C 469.066896 563.58233 494.156396 548.916466 515.741329 529.866293 
C 537.326262 510.816119 554.996397 487.743693 567.763037 461.939985 
C 580.529678 436.136277 588.150188 408.091699 590.198177 379.375429 
L 545.958541 376.220343 
C 544.32015 399.193359 538.223742 421.629022 528.01043 442.271988 
C 517.797117 462.914954 503.661009 481.372895 486.393063 496.613034 
C 469.125116 511.853173 449.053517 523.585864 427.301331 531.154628 
C 405.549144 538.723392 382.529781 541.984381 359.531243 540.755133 
C 336.532704 539.525885 313.992089 533.829763 293.170612 523.985481 
C 272.349135 514.141199 253.642517 500.335852 238.097449 483.341892 
C 222.552382 466.347932 210.464307 446.488336 202.509587 424.874307 
C 194.554866 403.260278 190.884685 380.302602 191.7044 357.285828 
C 192.524115 334.269054 197.818148 311.630628 207.29028 290.637236 
C 216.762413 269.643844 230.232624 250.694475 246.947214 234.849404 
C 263.661804 219.004333 283.303106 206.564703 304.772129 198.226547 
C 326.241152 189.888391 349.129869 185.81018 372.157586 186.220102 
C 395.185304 186.630025 417.91437 191.52029 439.073025 200.617272 
C 460.231681 209.714255 479.417797 222.845062 495.557851 239.274988 
C 511.697906 255.704913 524.485151 275.121697 533.204101 296.438913 
C 541.923052 317.756129 546.408 340.568634 546.408 363.6 
L 590.76 363.6 
z
" style="fill: none; opacity: 0"/>
   </g>
   <g id="patch_3">
    <path d="M 590.198177 379.375429 
C 590.385377 376.750564 590.52584 374.122575 590.6195 371.492711 
C 590.713159 368.862847 590.76 366.231524 590.76 363.599992 
L 546.408 363.599994 
C 546.408 365.705219 546.370527 367.810277 546.2956 369.914169 
C 546.220672 372.01806 546.108302 374.120451 545.958541 376.220343 
z
" style="stroke: #ffffff; stroke-linejoin: miter"/>
   </g>
   <g id="patch_4">
    <path d="M 546.408 363.6 
C 546.408 340.302995 541.818998 317.232524 532.90362 295.708898 
C 523.988242 274.185271 510.91987 254.62707 494.4464 238.1536 
C 477.97293 221.68013 458.414729 208.611758 436.891102 199.69638 
C 415.367476 190.781002 392.297005 186.192 369 186.192 
C 345.702995 186.192 322.632524 190.781002 301.108898 199.69638 
C 279.585271 208.611758 260.02707 221.68013 243.5536 238.1536 
C 227.08013 254.62707 214.011758 274.185271 205.09638 295.708898 
C 196.181002 317.232524 191.592 340.302995 191.592 363.6 
C 191.592 386.897005 196.181002 409.967476 205.09638 431.491102 
C 214.011758 453.014729 227.08013 472.57293 243.5536 489.0464 
C 260.02707 505.51987 279.585271 518.588242 301.108898 527.50362 
C 322.632524 536.418998 345.702995 541.008 369 541.008 
C 392.297005 541.008 415.367476 536.418998 436.891102 527.50362 
C 458.414729 518.588242 477.97293 505.51987 494.4464 489.0464 
C 510.91987 472.57293 523.988242 453.014729 532.90362 431.491102 
C 541.818998 409.967476 546.408 386.897005 546.408 363.6 
M 369 363.6 
z
" style="fill: #d62728; stroke: #ffffff; stroke-linejoin: miter"/>
   </g>
   <g id="matplotlib.axis_1"/>
   <g id="matplotlib.axis_2"/>
  </g>
 </g>
</svg>
