<?xml version="1.0" encoding="utf-8" standalone="no"?>
<!DOCTYPE svg PUBLIC "-//W3C//DTD SVG 1.1//EN"
  "http://www.w3.org/Graphics/SVG/1.1/DTD/svg11.dtd">
<svg xmlns:xlink="http://www.w3.org/1999/xlink" width="720pt" height="720pt" viewBox="0 0 720 720" xmlns="http://www.w3.org/2000/svg" version="1.1">
 <metadata>
  <rdf:RDF xmlns:dc="http://purl.org/dc/elements/1.1/" xmlns:cc="http://creativecommons.org/ns#" xmlns:rdf="http://www.w3.org/1999/02/22-rdf-syntax-ns#">
   <cc:Work>
    <dc:type rdf:resource="http://purl.org/dc/dcmitype/StillImage"/>
    <dc:date>2024-02-23T18:45:32.696490</dc:date>
    <dc:format>image/svg+xml</dc:format>
    <dc:creator>
     <cc:Agent>
      <dc:title>Matplotlib v3.8.2, https://matplotlib.org/</dc:title>
     </cc:Agent>
    </dc:creator>
   </cc:Work>
  </rdf:RDF>
 </metadata>
 <defs>
  <style type="text/css">*{stroke-linejoin: round; stroke-linecap: butt}</style>
 </defs>
 <g id="figure_1">
  <g id="patch_1">
   <path d="M 0 720 
L 720 720 
L 720 0 
L 0 0 
L 0 720 
z
" style="fill: none"/>
  </g>
  <g id="axes_1">
   <g id="patch_2">
    <path d="M 590.76 363.6 
C 590.76 326.21382 581.305681 289.427757 563.279276 256.67451 
C 545.252871 223.921263 519.233093 196.252332 487.647983 176.24965 
C 456.062874 156.246968 419.926431 144.552693 382.610734 142.25808 
C 345.295038 139.963467 307.998059 147.142182 274.200173 163.12434 
C 240.402287 179.106498 211.188531 203.379014 189.284993 233.676893 
C 167.381454 263.974772 153.491318 299.32534 148.910744 336.429852 
C 144.33017 373.534364 149.206212 411.201628 163.083862 445.916716 
C 176.961511 480.631803 199.395244 511.280232 228.291652 535.002038 
L 256.433322 500.72163 
C 233.316196 481.744186 215.369209 457.225442 204.267089 429.453372 
C 193.16497 401.681302 189.264136 371.547491 192.928595 341.863882 
C 196.593054 312.180272 207.705164 283.899817 225.227994 259.661514 
C 242.750825 235.423211 266.12183 216.005198 293.160138 203.219472 
C 320.198447 190.433745 350.03603 184.690774 379.888587 186.526464 
C 409.741144 188.362154 438.650299 197.717574 463.918387 213.71972 
C 489.186474 229.721866 510.002297 251.857011 524.423421 278.059608 
C 538.844545 304.262205 546.408 333.691056 546.408 363.6 
L 590.76 363.6 
z
" style="fill: none; opacity: 0"/>
   </g>
   <g id="patch_3">
    <path d="M 228.291652 535.002038 
C 260.758802 561.655157 300.140329 578.542662 341.829862 583.689257 
C 383.519395 588.835853 425.825542 582.032735 463.799846 564.075651 
C 501.774149 546.118567 533.875949 517.736056 556.350367 482.247957 
C 578.824784 446.759859 590.760008 405.605965 590.76 363.599958 
L 546.408 363.599967 
C 546.408006 397.204772 536.859827 430.127887 518.880293 458.518366 
C 500.900759 486.908845 475.219319 509.614854 444.839877 523.980521 
C 414.460434 538.346188 380.615516 543.788682 347.26389 539.671406 
C 313.912264 535.55413 282.407042 522.044126 256.433322 500.72163 
z
" style="stroke: #ffffff; stroke-linejoin: miter"/>
   </g>
   <g id="patch_4">
    <path d="M 546.408 363.6 
C 546.408 341.381599 542.234084 319.359659 534.103846 298.682217 
C 525.973608 278.004776 514.030826 259.037505 498.898096 242.769197 
C 483.765367 226.500889 465.710305 213.219241 445.674149 203.616647 
C 425.637994 194.014053 403.975074 188.26033 381.814712 186.655428 
C 359.65435 185.050526 337.388441 187.622828 316.177742 194.238235 
C 294.967044 200.853642 275.186656 211.395163 257.867762 225.313254 
C 240.548867 239.231345 225.997743 256.27987 214.972961 275.570063 
C 203.94818 294.860256 196.644709 316.050979 193.44329 338.037526 
C 190.241871 360.024073 191.19912 382.417624 196.265134 404.050766 
C 201.331148 425.683909 210.416336 446.174072 223.047074 464.453071 
C 235.677812 482.73207 251.630731 498.47665 270.074181 510.866021 
C 288.517631 523.255392 309.125447 532.070454 330.823313 536.851664 
C 352.521179 541.632874 374.925378 542.295679 396.867943 538.805526 
C 418.810508 535.315372 439.903397 527.733982 459.047003 516.456585 
C 478.19061 505.179188 495.046389 490.40522 508.735622 472.90487 
C 522.424854 455.40452 532.705454 435.487273 539.041477 414.191448 
L 369 363.6 
z
" style="fill: #7f7f7f; stroke: #ffffff; stroke-linejoin: miter"/>
   </g>
   <g id="patch_5">
    <path d="M 539.041477 414.191448 
C 540.815249 408.229673 542.274259 402.178736 543.412459 396.06371 
C 544.55066 389.948685 545.366478 383.778029 545.856533 377.577313 
L 369 363.6 
z
" style="fill: #d62728; stroke: #ffffff; stroke-linejoin: miter"/>
   </g>
   <g id="patch_6">
    <path d="M 545.856533 377.577313 
C 546.040267 375.252505 546.178143 372.924299 546.270081 370.594055 
C 546.362019 368.26381 546.408001 365.93198 546.408 363.599922 
L 369 363.6 
z
" style="fill: #9edae5; stroke: #ffffff; stroke-linejoin: miter"/>
   </g>
   <g id="matplotlib.axis_1"/>
   <g id="matplotlib.axis_2"/>
  </g>
 </g>
</svg>
