<?xml version="1.0" encoding="utf-8" standalone="no"?>
<!DOCTYPE svg PUBLIC "-//W3C//DTD SVG 1.1//EN"
  "http://www.w3.org/Graphics/SVG/1.1/DTD/svg11.dtd">
<svg xmlns:xlink="http://www.w3.org/1999/xlink" width="720pt" height="720pt" viewBox="0 0 720 720" xmlns="http://www.w3.org/2000/svg" version="1.1">
 <metadata>
  <rdf:RDF xmlns:dc="http://purl.org/dc/elements/1.1/" xmlns:cc="http://creativecommons.org/ns#" xmlns:rdf="http://www.w3.org/1999/02/22-rdf-syntax-ns#">
   <cc:Work>
    <dc:type rdf:resource="http://purl.org/dc/dcmitype/StillImage"/>
    <dc:date>2024-02-23T18:45:32.488143</dc:date>
    <dc:format>image/svg+xml</dc:format>
    <dc:creator>
     <cc:Agent>
      <dc:title>Matplotlib v3.8.2, https://matplotlib.org/</dc:title>
     </cc:Agent>
    </dc:creator>
   </cc:Work>
  </rdf:RDF>
 </metadata>
 <defs>
  <style type="text/css">*{stroke-linejoin: round; stroke-linecap: butt}</style>
 </defs>
 <g id="figure_1">
  <g id="patch_1">
   <path d="M 0 720 
L 720 720 
L 720 0 
L 0 0 
L 0 720 
z
" style="fill: none"/>
  </g>
  <g id="axes_1">
   <g id="patch_2">
    <path d="M 590.76 363.6 
C 590.76 321.501973 578.772419 280.261692 556.205359 244.723379 
C 533.638299 209.185066 501.411367 180.796906 463.310045 162.893466 
C 425.208723 144.990026 382.78564 138.300871 341.023951 143.611732 
C 299.262262 148.922592 259.863756 166.017051 227.456311 192.887136 
C 195.048867 219.757221 170.953088 255.307977 157.999344 295.363494 
C 145.0456 335.41901 143.761756 378.347026 154.298616 419.105074 
C 164.835476 459.863123 186.763664 496.790313 217.507422 525.549055 
C 248.25118 554.307797 286.5577 573.726173 327.927372 581.523236 
L 336.141897 537.938589 
C 303.04616 531.700939 272.400944 516.166238 247.805938 493.159244 
C 223.210931 470.15225 205.668381 440.610498 197.238893 408.00406 
C 188.809405 375.397621 189.83648 341.055208 200.199475 309.010795 
C 210.562471 276.966382 229.839094 248.525777 255.765049 227.029709 
C 281.691004 205.533641 313.209809 191.858074 346.619161 187.609385 
C 380.028512 183.360697 413.966979 188.71202 444.448036 203.034772 
C 474.929094 217.357524 500.71064 240.068053 518.764288 268.498703 
C 536.817936 296.929354 546.408 329.921578 546.408 363.6 
L 590.76 363.6 
z
" style="fill: none; opacity: 0"/>
   </g>
   <g id="patch_3">
    <path d="M 327.927372 581.523236 
C 359.96421 587.561312 392.94188 586.461171 424.505074 578.301384 
C 456.068269 570.141597 485.447235 555.121165 510.543689 534.312864 
C 535.640142 513.504563 555.842039 487.415861 569.706534 457.910045 
C 583.57103 428.40423 590.76 396.20088 590.76 363.6 
L 546.408 363.6 
C 546.408 389.680704 540.656824 415.443384 529.565228 439.048036 
C 518.473631 462.652688 502.312114 483.52365 482.234951 500.170291 
C 462.157788 516.816932 438.654615 528.833278 413.40406 535.361107 
C 388.153504 541.888936 361.771368 542.76905 336.141897 537.938589 
z
" style="stroke: #ffffff; stroke-linejoin: miter"/>
   </g>
   <g id="patch_4">
    <path d="M 546.408 363.6 
C 546.408 343.245636 542.905057 323.042265 536.052803 303.875972 
C 529.20055 284.70968 519.100648 266.864826 506.196065 251.124055 
C 493.291482 235.383285 477.773673 221.980134 460.323226 211.502443 
C 442.872778 201.024752 423.748592 193.627972 403.789424 189.636514 
C 383.830256 185.645056 363.332227 185.118138 343.194348 188.078871 
C 323.056468 191.039603 303.577511 197.44406 285.611791 207.011351 
C 267.646072 216.578642 251.460136 229.166823 237.763873 244.223799 
C 224.06761 259.280774 213.064222 276.583152 205.236301 295.372079 
C 197.408379 314.161006 192.872061 334.157722 191.826303 354.485204 
C 190.780545 374.812686 193.240861 395.169348 199.099347 414.662379 
C 204.957833 434.15541 214.127569 452.495606 226.206386 468.878594 
C 238.285204 485.261582 253.093896 499.444299 269.982978 510.804714 
C 286.872061 522.165129 305.59096 530.534695 325.318697 535.546335 
C 345.046434 540.557976 365.490319 542.137337 385.753718 540.215151 
C 406.017116 538.292964 425.799393 532.897748 444.23293 524.266128 
C 462.666466 515.634508 479.477776 503.894546 493.929541 489.561138 
L 369 363.6 
z
" style="fill: #7f7f7f; stroke: #ffffff; stroke-linejoin: miter"/>
   </g>
   <g id="patch_5">
    <path d="M 493.929541 489.561138 
C 502.223562 481.335044 509.68486 472.309834 516.204721 462.617011 
C 522.724582 452.924189 528.271184 442.611061 532.763709 431.827898 
L 369 363.6 
z
" style="fill: #d62728; stroke: #ffffff; stroke-linejoin: miter"/>
   </g>
   <g id="patch_6">
    <path d="M 532.763709 431.827898 
C 537.256234 421.044735 540.672756 409.844164 542.963493 398.389388 
C 545.254231 386.934611 546.408003 375.281534 546.408 363.59995 
L 369 363.6 
z
" style="fill: #9edae5; stroke: #ffffff; stroke-linejoin: miter"/>
   </g>
   <g id="matplotlib.axis_1"/>
   <g id="matplotlib.axis_2"/>
  </g>
 </g>
</svg>
