<?xml version="1.0" encoding="utf-8" standalone="no"?>
<!DOCTYPE svg PUBLIC "-//W3C//DTD SVG 1.1//EN"
  "http://www.w3.org/Graphics/SVG/1.1/DTD/svg11.dtd">
<svg xmlns:xlink="http://www.w3.org/1999/xlink" width="720pt" height="720pt" viewBox="0 0 720 720" xmlns="http://www.w3.org/2000/svg" version="1.1">
 <metadata>
  <rdf:RDF xmlns:dc="http://purl.org/dc/elements/1.1/" xmlns:cc="http://creativecommons.org/ns#" xmlns:rdf="http://www.w3.org/1999/02/22-rdf-syntax-ns#">
   <cc:Work>
    <dc:type rdf:resource="http://purl.org/dc/dcmitype/StillImage"/>
    <dc:date>2024-02-23T18:45:32.883255</dc:date>
    <dc:format>image/svg+xml</dc:format>
    <dc:creator>
     <cc:Agent>
      <dc:title>Matplotlib v3.8.2, https://matplotlib.org/</dc:title>
     </cc:Agent>
    </dc:creator>
   </cc:Work>
  </rdf:RDF>
 </metadata>
 <defs>
  <style type="text/css">*{stroke-linejoin: round; stroke-linecap: butt}</style>
 </defs>
 <g id="figure_1">
  <g id="patch_1">
   <path d="M 0 720 
L 720 720 
L 720 0 
L 0 0 
L 0 720 
z
" style="fill: none"/>
  </g>
  <g id="axes_1">
   <g id="patch_2">
    <path d="M 590.76 363.6 
C 590.76 340.573646 587.173603 317.687152 580.12994 295.764566 
C 573.086277 273.841979 562.670913 253.149612 549.258862 234.432511 
C 535.846812 215.71541 519.601001 199.200946 501.106376 185.483737 
C 482.611751 171.766529 462.092979 161.013209 440.288858 153.610961 
C 418.484737 146.208714 395.660138 142.247458 372.636881 141.869825 
C 349.613623 141.492191 326.67139 144.702765 304.636235 151.385949 
C 282.601081 158.069133 261.740684 168.14374 242.806141 181.247025 
C 223.871599 194.350309 207.092924 210.323096 193.074247 228.590271 
C 179.05557 246.857446 167.967187 267.197103 160.208345 288.876894 
C 152.449504 310.556685 148.114456 333.31325 147.35929 356.327217 
C 146.604124 379.341185 149.438013 402.332986 155.758919 424.474782 
C 162.079826 446.616578 171.810966 467.639393 184.601961 486.786284 
C 197.392955 505.933175 213.088423 522.971549 231.123233 537.287923 
C 249.158044 551.604298 269.313115 563.024761 290.862745 571.13811 
C 312.412375 579.251458 335.094784 583.959132 358.093271 585.091627 
C 381.091759 586.224123 404.126944 583.767682 426.369425 577.810753 
L 414.89554 534.968602 
C 397.101555 539.734146 378.673407 541.699298 360.274617 540.793302 
C 341.875827 539.887305 323.7299 536.121166 306.490196 529.630488 
C 289.250492 523.139809 273.126435 514.003438 258.698586 502.550339 
C 244.270738 491.097239 231.714364 477.46654 221.481568 462.149027 
C 211.248773 446.831515 203.463861 430.013262 198.407135 412.299826 
C 193.35041 394.586389 191.083299 376.192948 191.687432 357.781774 
C 192.291565 339.3706 195.759603 321.165348 201.966676 303.821515 
C 208.17375 286.477682 217.044456 270.205957 228.259397 255.592217 
C 239.474339 240.978477 252.897279 228.200247 268.044913 217.71762 
C 283.192547 207.234992 299.880865 199.175306 317.508988 193.828759 
C 335.137112 188.482212 353.490899 185.913753 371.909504 186.21586 
C 390.32811 186.517967 408.587789 189.686971 426.031086 195.608769 
C 443.474383 201.530567 459.889401 210.133223 474.685101 221.10699 
C 489.480801 232.080757 502.477449 245.292328 513.20709 260.266009 
C 523.93673 275.23969 532.269021 291.793584 537.903952 309.331652 
C 543.538882 326.869721 546.408 345.178917 546.408 363.6 
L 590.76 363.6 
z
" style="fill: none; opacity: 0"/>
   </g>
   <g id="patch_3">
    <path d="M 426.369425 577.810753 
C 473.520408 565.182886 515.208114 537.333598 544.925766 498.609713 
C 574.643418 459.885827 590.760009 412.412643 590.76 363.599958 
L 546.408 363.599967 
C 546.408007 402.650114 533.514734 440.628661 509.740613 471.60777 
C 485.966491 502.586879 452.616326 524.866309 414.89554 534.968602 
z
" style="stroke: #ffffff; stroke-linejoin: miter"/>
   </g>
   <g id="patch_4">
    <path d="M 546.408 363.6 
C 546.408 334.585995 539.290402 306.010158 525.681238 280.38589 
C 512.072073 254.761621 492.382393 232.862874 468.34401 216.615762 
C 444.305627 200.36865 416.644596 190.2639 387.793853 187.190279 
C 358.94311 184.116658 329.774062 188.167002 302.852285 198.985061 
C 275.930507 209.80312 252.069144 227.062145 233.36693 249.244113 
C 214.664716 271.426082 201.686534 297.861009 195.573882 326.223802 
C 189.461231 354.586594 190.398738 384.020583 198.303944 411.93689 
C 206.20915 439.853198 220.843287 465.408641 240.919203 486.35548 
L 369 363.6 
z
" style="fill: #bcbd22; stroke: #ffffff; stroke-linejoin: miter"/>
   </g>
   <g id="patch_5">
    <path d="M 240.919203 486.35548 
C 261.877079 508.22254 288.089912 524.362424 317.050888 533.231625 
C 346.011864 542.100826 376.767377 543.407306 406.376182 537.026121 
L 369 363.6 
z
" style="fill: #ffbb78; stroke: #ffffff; stroke-linejoin: miter"/>
   </g>
   <g id="patch_6">
    <path d="M 406.376182 537.026121 
C 431.010044 531.717119 454.232383 521.219961 474.492675 506.235528 
C 494.752967 491.251096 511.590032 472.120477 523.879682 450.120996 
L 369 363.6 
z
" style="fill: #d62728; stroke: #ffffff; stroke-linejoin: miter"/>
   </g>
   <g id="patch_7">
    <path d="M 523.879682 450.120996 
C 531.235915 436.952734 536.882808 422.899904 540.683564 408.302934 
C 544.48432 393.705964 546.407999 378.683684 546.408 363.600008 
L 369 363.6 
z
" style="fill: #9edae5; stroke: #ffffff; stroke-linejoin: miter"/>
   </g>
   <g id="matplotlib.axis_1"/>
   <g id="matplotlib.axis_2"/>
  </g>
 </g>
</svg>
