<?xml version="1.0" encoding="utf-8" standalone="no"?>
<!DOCTYPE svg PUBLIC "-//W3C//DTD SVG 1.1//EN"
  "http://www.w3.org/Graphics/SVG/1.1/DTD/svg11.dtd">
<svg xmlns:xlink="http://www.w3.org/1999/xlink" width="720pt" height="720pt" viewBox="0 0 720 720" xmlns="http://www.w3.org/2000/svg" version="1.1">
 <metadata>
  <rdf:RDF xmlns:dc="http://purl.org/dc/elements/1.1/" xmlns:cc="http://creativecommons.org/ns#" xmlns:rdf="http://www.w3.org/1999/02/22-rdf-syntax-ns#">
   <cc:Work>
    <dc:type rdf:resource="http://purl.org/dc/dcmitype/StillImage"/>
    <dc:date>2024-02-23T18:45:31.850779</dc:date>
    <dc:format>image/svg+xml</dc:format>
    <dc:creator>
     <cc:Agent>
      <dc:title>Matplotlib v3.8.2, https://matplotlib.org/</dc:title>
     </cc:Agent>
    </dc:creator>
   </cc:Work>
  </rdf:RDF>
 </metadata>
 <defs>
  <style type="text/css">*{stroke-linejoin: round; stroke-linecap: butt}</style>
 </defs>
 <g id="figure_1">
  <g id="patch_1">
   <path d="M 0 720 
L 720 720 
L 720 0 
L 0 0 
L 0 720 
z
" style="fill: none"/>
  </g>
  <g id="axes_1">
   <g id="patch_2">
    <path d="M 590.76 363.6 
C 590.76 337.025101 585.983044 310.665308 576.657431 285.780409 
C 567.331819 260.895509 553.60852 237.888357 536.143398 217.858509 
C 518.678277 197.828662 497.754069 181.100376 474.370786 168.473131 
C 450.987503 155.845885 425.523688 147.524098 399.196309 143.905484 
C 372.86893 140.28687 346.104191 141.430009 320.181234 147.28027 
C 294.258277 153.13053 269.596759 163.593204 247.375304 178.168258 
C 225.153849 192.743312 205.732193 211.194797 190.038536 232.640877 
C 174.344878 254.086958 162.633279 278.180452 155.463458 303.769882 
C 148.293638 329.359312 145.781667 356.03042 148.047596 382.50854 
C 150.313526 408.986659 157.320674 434.843146 168.734155 458.842265 
C 180.147636 482.841383 195.782681 504.594622 214.89206 523.062348 
C 234.001438 541.530074 256.275796 556.413321 280.650594 567.000787 
C 305.025393 577.588253 331.106039 583.708543 357.646083 585.069154 
C 384.186128 586.429765 410.755926 583.008672 436.085651 574.969376 
C 461.415376 566.930079 485.094975 554.402724 505.992751 537.98602 
C 526.890527 521.569315 544.668174 501.529023 558.476062 478.822912 
L 520.58085 455.77833 
C 509.534539 473.943218 495.312421 489.975452 478.594201 503.108816 
C 461.87598 516.24218 442.932301 526.264064 422.668521 532.695501 
C 402.404741 539.126938 381.148903 541.863812 359.916867 540.775323 
C 338.684831 539.686834 317.820314 534.790602 298.320475 526.320629 
C 278.820637 517.850656 261.001151 505.944059 245.713648 491.169878 
C 230.426145 476.395698 217.918109 458.993107 208.787324 439.793812 
C 199.656539 420.594517 194.050821 399.909327 192.238077 378.726832 
C 190.425333 357.544336 192.434911 336.207449 198.170767 315.735906 
C 203.906623 295.264362 213.275903 275.989566 225.830828 258.832702 
C 238.385754 241.675837 253.92308 226.91465 271.700243 215.254606 
C 289.477407 203.594563 309.206622 195.224424 329.944987 190.544216 
C 350.683353 185.864007 372.095144 184.949496 393.157047 187.844387 
C 414.21895 190.739278 434.590002 197.396708 453.296629 207.498505 
C 472.003255 217.600301 488.742621 230.98293 502.714718 247.006808 
C 516.686816 263.030685 527.665455 281.436408 535.125945 301.344327 
C 542.586435 321.252246 546.408 342.340081 546.408 363.6 
L 590.76 363.6 
z
" style="fill: none; opacity: 0"/>
   </g>
   <g id="patch_3">
    <path d="M 558.476062 478.822912 
C 568.984622 461.542316 577.079921 442.905064 582.536546 423.430103 
C 587.993171 403.955143 590.760003 383.824925 590.76 363.599969 
L 546.408 363.599975 
C 546.408002 379.77994 544.194537 395.884114 539.829237 411.464082 
C 535.463936 427.044051 528.987698 441.953853 520.58085 455.77833 
z
" style="stroke: #ffffff; stroke-linejoin: miter"/>
   </g>
   <g id="patch_4">
    <path d="M 546.408 363.6 
C 546.408 340.302995 541.818998 317.232524 532.90362 295.708898 
C 523.988242 274.185271 510.91987 254.62707 494.4464 238.1536 
C 477.97293 221.68013 458.414729 208.611758 436.891102 199.69638 
C 415.367476 190.781002 392.297005 186.192 369 186.192 
C 345.702995 186.192 322.632524 190.781002 301.108898 199.69638 
C 279.585271 208.611758 260.02707 221.68013 243.5536 238.1536 
C 227.08013 254.62707 214.011758 274.185271 205.09638 295.708898 
C 196.181002 317.232524 191.592 340.302995 191.592 363.6 
C 191.592 386.897005 196.181002 409.967476 205.09638 431.491102 
C 214.011758 453.014729 227.08013 472.57293 243.5536 489.0464 
C 260.02707 505.51987 279.585271 518.588242 301.108898 527.50362 
C 322.632524 536.418998 345.702995 541.008 369 541.008 
C 392.297005 541.008 415.367476 536.418998 436.891102 527.50362 
C 458.414729 518.588242 477.97293 505.51987 494.4464 489.0464 
C 510.91987 472.57293 523.988242 453.014729 532.90362 431.491102 
C 541.818998 409.967476 546.408 386.897005 546.408 363.6 
M 369 363.6 
z
" style="fill: #f7b6d2; stroke: #ffffff; stroke-linejoin: miter"/>
   </g>
   <g id="matplotlib.axis_1"/>
   <g id="matplotlib.axis_2"/>
  </g>
 </g>
</svg>
