<?xml version="1.0" encoding="utf-8" standalone="no"?>
<!DOCTYPE svg PUBLIC "-//W3C//DTD SVG 1.1//EN"
  "http://www.w3.org/Graphics/SVG/1.1/DTD/svg11.dtd">
<svg xmlns:xlink="http://www.w3.org/1999/xlink" width="720pt" height="720pt" viewBox="0 0 720 720" xmlns="http://www.w3.org/2000/svg" version="1.1">
 <metadata>
  <rdf:RDF xmlns:dc="http://purl.org/dc/elements/1.1/" xmlns:cc="http://creativecommons.org/ns#" xmlns:rdf="http://www.w3.org/1999/02/22-rdf-syntax-ns#">
   <cc:Work>
    <dc:type rdf:resource="http://purl.org/dc/dcmitype/StillImage"/>
    <dc:date>2024-02-23T18:45:31.268473</dc:date>
    <dc:format>image/svg+xml</dc:format>
    <dc:creator>
     <cc:Agent>
      <dc:title>Matplotlib v3.8.2, https://matplotlib.org/</dc:title>
     </cc:Agent>
    </dc:creator>
   </cc:Work>
  </rdf:RDF>
 </metadata>
 <defs>
  <style type="text/css">*{stroke-linejoin: round; stroke-linecap: butt}</style>
 </defs>
 <g id="figure_1">
  <g id="patch_1">
   <path d="M 0 720 
L 720 720 
L 720 0 
L 0 0 
L 0 720 
z
" style="fill: none"/>
  </g>
  <g id="axes_1">
   <g id="patch_2">
    <path d="M 590.76 363.6 
C 590.76 322.358266 579.255126 281.922829 557.54415 246.858401 
C 535.833175 211.793973 504.765019 183.471607 467.846932 165.088586 
C 430.928846 146.705564 389.604363 138.980681 348.538559 142.78599 
C 307.472756 146.591299 268.271346 161.778008 235.359733 186.631707 
C 202.448121 211.485406 177.113183 245.03429 162.214953 283.491062 
C 147.316723 321.947835 143.437737 363.808797 151.015889 404.348311 
C 158.594041 444.887825 177.333018 482.520756 205.117397 512.998762 
C 232.901776 543.476768 268.645161 565.60813 308.312519 576.894461 
L 320.450015 534.235569 
C 288.716129 525.206504 260.121421 507.501414 237.893918 483.119009 
C 215.666414 458.736604 200.675233 428.63026 194.612711 396.198649 
C 188.550189 363.767038 191.653378 330.278268 203.571962 299.51285 
C 215.490546 268.747432 235.758497 241.908325 262.087787 222.025366 
C 288.417077 202.142406 319.778205 189.993039 352.630848 186.948792 
C 385.48349 183.904545 418.543077 190.084451 448.077546 204.790869 
C 477.612015 219.497286 502.46654 242.155178 519.83532 270.206721 
C 537.204101 298.258263 546.408 330.606613 546.408 363.6 
L 590.76 363.6 
z
" style="fill: none; opacity: 0"/>
   </g>
   <g id="patch_3">
    <path d="M 308.312519 576.894461 
C 341.305153 586.281671 376.030287 587.887107 409.748321 581.584109 
C 443.466355 575.281112 475.266625 561.239914 502.640283 540.56828 
C 530.013942 519.896647 552.221675 493.152882 567.511428 462.446904 
C 582.801182 431.740927 590.760006 397.902052 590.76 363.599958 
L 546.408 363.599967 
C 546.408005 391.041641 540.040945 418.112742 527.809142 442.677524 
C 515.57734 467.242305 497.811153 488.637318 475.912227 505.174624 
C 454.0133 521.711931 428.573084 532.944889 401.598657 537.987287 
C 374.62423 543.029685 346.844122 541.745337 320.450015 534.235569 
z
" style="stroke: #ffffff; stroke-linejoin: miter"/>
   </g>
   <g id="patch_4">
    <path d="M 546.408 363.6 
C 546.408 340.302995 541.818998 317.232524 532.90362 295.708898 
C 523.988242 274.185271 510.91987 254.62707 494.4464 238.1536 
C 477.97293 221.68013 458.414729 208.611758 436.891102 199.69638 
C 415.367476 190.781002 392.297005 186.192 369 186.192 
C 345.702995 186.192 322.632524 190.781002 301.108898 199.69638 
C 279.585271 208.611758 260.02707 221.68013 243.5536 238.1536 
C 227.08013 254.62707 214.011758 274.185271 205.09638 295.708898 
C 196.181002 317.232524 191.592 340.302995 191.592 363.6 
C 191.592 386.897005 196.181002 409.967476 205.09638 431.491102 
C 214.011758 453.014729 227.08013 472.57293 243.5536 489.0464 
C 260.02707 505.51987 279.585271 518.588242 301.108898 527.50362 
C 322.632524 536.418998 345.702995 541.008 369 541.008 
C 392.297005 541.008 415.367476 536.418998 436.891102 527.50362 
C 458.414729 518.588242 477.97293 505.51987 494.4464 489.0464 
C 510.91987 472.57293 523.988242 453.014729 532.90362 431.491102 
C 541.818998 409.967476 546.408 386.897005 546.408 363.6 
M 369 363.6 
z
" style="fill: #bcbd22; stroke: #ffffff; stroke-linejoin: miter"/>
   </g>
   <g id="matplotlib.axis_1"/>
   <g id="matplotlib.axis_2"/>
  </g>
 </g>
</svg>
