<?xml version="1.0" encoding="utf-8" standalone="no"?>
<!DOCTYPE svg PUBLIC "-//W3C//DTD SVG 1.1//EN"
  "http://www.w3.org/Graphics/SVG/1.1/DTD/svg11.dtd">
<svg xmlns:xlink="http://www.w3.org/1999/xlink" width="720pt" height="720pt" viewBox="0 0 720 720" xmlns="http://www.w3.org/2000/svg" version="1.1">
 <metadata>
  <rdf:RDF xmlns:dc="http://purl.org/dc/elements/1.1/" xmlns:cc="http://creativecommons.org/ns#" xmlns:rdf="http://www.w3.org/1999/02/22-rdf-syntax-ns#">
   <cc:Work>
    <dc:type rdf:resource="http://purl.org/dc/dcmitype/StillImage"/>
    <dc:date>2024-02-23T18:45:31.835447</dc:date>
    <dc:format>image/svg+xml</dc:format>
    <dc:creator>
     <cc:Agent>
      <dc:title>Matplotlib v3.8.2, https://matplotlib.org/</dc:title>
     </cc:Agent>
    </dc:creator>
   </cc:Work>
  </rdf:RDF>
 </metadata>
 <defs>
  <style type="text/css">*{stroke-linejoin: round; stroke-linecap: butt}</style>
 </defs>
 <g id="figure_1">
  <g id="patch_1">
   <path d="M 0 720 
L 720 720 
L 720 0 
L 0 0 
L 0 720 
z
" style="fill: none"/>
  </g>
  <g id="axes_1">
   <g id="patch_2">
    <path d="M 590.76 363.6 
C 590.76 338.562882 586.519894 313.705605 578.219833 290.084295 
C 569.919773 266.462985 557.678997 244.416985 542.017586 224.882977 
C 526.356175 205.348968 507.499121 188.607576 486.247613 175.370101 
C 464.996106 162.132627 441.655445 152.589239 417.217318 147.145414 
C 392.779191 141.701589 367.594676 140.435532 342.733801 143.401035 
C 317.872927 146.366537 293.692844 153.520998 271.220906 164.56044 
C 248.748968 175.599883 228.308006 190.365714 210.766507 208.230571 
C 193.225009 226.095428 178.834974 246.802664 168.207801 269.472478 
C 157.580628 292.142292 150.868986 316.449011 148.358038 341.359901 
C 145.847089 366.27079 147.572905 391.427982 153.462161 415.762606 
C 159.351417 440.097231 169.319507 463.259698 182.942911 484.265891 
C 196.566316 505.272084 213.649321 523.820228 233.466111 539.122257 
C 253.282902 554.424286 275.54879 566.260372 299.317753 574.127628 
C 323.086715 581.994884 348.017287 585.780289 373.050229 585.32301 
C 398.083171 584.865732 422.85886 580.172339 446.324638 571.442243 
C 469.790415 562.712147 491.609172 550.070764 510.853882 534.055196 
L 482.483105 499.964157 
C 467.087337 512.776611 449.632332 522.889718 430.85971 529.873794 
C 412.087088 536.857871 392.266537 540.612585 372.240183 540.978408 
C 352.21383 541.344231 332.269372 538.315907 313.254202 532.022102 
C 294.239032 525.728297 276.426322 516.259429 260.572889 504.017805 
C 244.719457 491.776182 231.053052 476.937667 220.154329 460.132713 
C 209.255605 443.327759 201.281133 424.797785 196.569729 405.330085 
C 191.858324 385.862385 190.477671 365.736632 192.48643 345.807921 
C 194.495189 325.879209 199.864502 306.433834 208.366241 288.297982 
C 216.867979 270.162131 228.380007 253.596342 242.413206 239.304457 
C 256.446405 225.012571 272.799174 213.199906 290.776725 204.368352 
C 308.754275 195.536798 328.098341 189.81323 347.987041 187.440828 
C 367.875741 185.068425 388.023353 186.081271 407.573854 190.436331 
C 427.124356 194.791391 445.796885 202.426101 462.798091 213.016081 
C 479.799296 223.606061 494.88494 236.999174 507.414069 252.626381 
C 519.943198 268.253588 529.735818 285.890388 536.375867 304.787436 
C 543.015915 323.684484 546.408 343.570305 546.408 363.6 
L 590.76 363.6 
z
" style="fill: none; opacity: 0"/>
   </g>
   <g id="patch_3">
    <path d="M 510.853882 534.055196 
C 535.860179 513.244799 555.983405 487.18435 569.792199 457.727522 
C 583.600994 428.270694 590.76 396.132868 590.76 363.6 
L 546.408 363.6 
C 546.408 389.626295 540.680795 415.336555 529.633759 438.902018 
C 518.586724 462.46748 502.488143 483.315839 482.483105 499.964157 
z
" style="stroke: #ffffff; stroke-linejoin: miter"/>
   </g>
   <g id="patch_4">
    <path d="M 546.408 363.6 
C 546.408 332.460712 538.209481 301.86342 522.639838 274.896005 
C 507.070194 247.92859 484.671423 225.529816 457.70401 209.960171 
C 430.736596 194.390525 400.139305 186.192003 369.000017 186.192 
C 337.860729 186.191997 307.263436 194.390513 280.296019 209.960154 
L 369 363.6 
z
" style="fill: #c7c7c7; stroke: #ffffff; stroke-linejoin: miter"/>
   </g>
   <g id="patch_5">
    <path d="M 280.296019 209.960154 
C 253.328603 225.529795 230.929827 247.928564 215.360179 274.895976 
C 199.790531 301.863388 191.592006 332.460679 191.592 363.599967 
C 191.591994 394.739255 199.790508 425.336548 215.360146 452.303966 
C 230.929784 479.271384 253.328551 501.670162 280.295962 517.239813 
L 369 363.6 
z
" style="fill: #1f77b4; stroke: #ffffff; stroke-linejoin: miter"/>
   </g>
   <g id="patch_6">
    <path d="M 280.295962 517.239813 
C 307.263372 532.809463 337.860662 541.007991 368.99995 541.008 
C 400.139238 541.008009 430.736533 532.809498 457.703952 517.239863 
C 484.671371 501.670227 507.070151 479.271462 522.639804 452.304053 
C 538.209458 425.336644 546.407988 394.739355 546.408 363.600066 
L 369 363.6 
z
" style="fill: #9edae5; stroke: #ffffff; stroke-linejoin: miter"/>
   </g>
   <g id="matplotlib.axis_1"/>
   <g id="matplotlib.axis_2"/>
  </g>
 </g>
</svg>
