<?xml version="1.0" encoding="utf-8" standalone="no"?>
<!DOCTYPE svg PUBLIC "-//W3C//DTD SVG 1.1//EN"
  "http://www.w3.org/Graphics/SVG/1.1/DTD/svg11.dtd">
<svg xmlns:xlink="http://www.w3.org/1999/xlink" width="720pt" height="720pt" viewBox="0 0 720 720" xmlns="http://www.w3.org/2000/svg" version="1.1">
 <metadata>
  <rdf:RDF xmlns:dc="http://purl.org/dc/elements/1.1/" xmlns:cc="http://creativecommons.org/ns#" xmlns:rdf="http://www.w3.org/1999/02/22-rdf-syntax-ns#">
   <cc:Work>
    <dc:type rdf:resource="http://purl.org/dc/dcmitype/StillImage"/>
    <dc:date>2024-02-23T18:45:32.473509</dc:date>
    <dc:format>image/svg+xml</dc:format>
    <dc:creator>
     <cc:Agent>
      <dc:title>Matplotlib v3.8.2, https://matplotlib.org/</dc:title>
     </cc:Agent>
    </dc:creator>
   </cc:Work>
  </rdf:RDF>
 </metadata>
 <defs>
  <style type="text/css">*{stroke-linejoin: round; stroke-linecap: butt}</style>
 </defs>
 <g id="figure_1">
  <g id="patch_1">
   <path d="M 0 720 
L 720 720 
L 720 0 
L 0 0 
L 0 720 
z
" style="fill: none"/>
  </g>
  <g id="axes_1">
   <g id="patch_2">
    <path d="M 590.76 363.6 
C 590.76 335.102161 585.266718 306.869664 574.581429 280.450894 
C 563.896139 254.032124 548.217821 229.919048 528.40634 209.434127 
C 508.594858 188.949206 485.019138 172.473906 458.97217 160.911801 
C 432.925203 149.349696 404.892029 142.916093 376.410104 141.963839 
C 347.92818 141.011584 319.52789 145.55841 292.766825 155.35495 
C 266.00576 165.15149 241.382259 180.015315 220.246777 199.13123 
C 199.111295 218.247145 181.857414 241.259178 169.431407 266.905253 
C 157.0054 292.551327 149.638662 320.353868 147.735217 348.788067 
C 145.831771 377.222267 149.427064 405.758629 158.323913 432.832101 
C 167.220761 459.905573 181.253492 485.011997 199.65249 506.774434 
C 218.051489 528.536871 240.474133 546.550064 265.690671 559.826095 
C 290.90721 573.102125 318.448065 581.39377 346.802782 584.246281 
C 375.157499 587.098791 403.798062 584.459048 431.153703 576.471827 
C 458.509344 568.484606 484.070652 555.298642 506.435738 537.63711 
C 528.800824 519.975577 547.553209 498.167365 561.664436 473.408527 
C 575.775663 448.649688 584.982955 421.401278 588.781344 393.157712 
L 544.825075 387.246169 
C 541.786364 409.841022 534.420531 431.639751 523.131549 451.446821 
C 511.842568 471.253892 496.840659 488.700462 478.94859 502.829688 
C 461.056521 516.958914 440.607475 527.507685 418.722963 533.897462 
C 396.83845 540.287239 373.925999 542.399033 351.242226 540.117024 
C 328.558452 537.835016 306.525768 531.2017 286.352537 520.580876 
C 266.179306 509.960051 248.241191 495.549497 233.521992 478.139547 
C 218.802793 460.729598 207.576609 440.644458 200.45913 418.985681 
C 193.341651 397.326903 190.465417 374.497813 191.988174 351.750454 
C 193.51093 329.003094 199.40432 306.761062 209.345125 286.244202 
C 219.285931 265.727342 233.089036 247.317716 249.997422 232.024984 
C 266.905807 216.732252 286.604608 204.841192 308.01346 197.00396 
C 329.422312 189.166728 352.142544 185.529267 374.928084 186.291071 
C 397.713623 187.052875 420.140162 192.199757 440.977736 201.449441 
C 461.815311 210.699125 480.675887 223.879365 496.525072 240.267302 
C 512.374257 256.655239 524.916911 275.945699 533.465143 297.080715 
C 542.013374 318.215731 546.408 340.801729 546.408 363.6 
L 590.76 363.6 
z
" style="fill: none; opacity: 0"/>
   </g>
   <g id="patch_3">
    <path d="M 588.781344 393.157712 
C 589.439975 388.260352 589.934731 383.342346 590.264783 378.411931 
C 590.594836 373.481517 590.76 368.541447 590.76 363.599997 
L 546.408 363.599998 
C 546.408 367.553158 546.275868 371.505213 546.011827 375.449545 
C 545.747785 379.393877 545.35198 383.328282 544.825075 387.246169 
z
" style="stroke: #ffffff; stroke-linejoin: miter"/>
   </g>
   <g id="patch_4">
    <path d="M 546.408 363.6 
C 546.408 340.302995 541.818998 317.232524 532.90362 295.708898 
C 523.988242 274.185271 510.91987 254.62707 494.4464 238.1536 
C 477.97293 221.68013 458.414729 208.611758 436.891102 199.69638 
C 415.367476 190.781002 392.297005 186.192 369 186.192 
C 345.702995 186.192 322.632524 190.781002 301.108898 199.69638 
C 279.585271 208.611758 260.02707 221.68013 243.5536 238.1536 
C 227.08013 254.62707 214.011758 274.185271 205.09638 295.708898 
C 196.181002 317.232524 191.592 340.302995 191.592 363.6 
C 191.592 386.897005 196.181002 409.967476 205.09638 431.491102 
C 214.011758 453.014729 227.08013 472.57293 243.5536 489.0464 
C 260.02707 505.51987 279.585271 518.588242 301.108898 527.50362 
C 322.632524 536.418998 345.702995 541.008 369 541.008 
C 392.297005 541.008 415.367476 536.418998 436.891102 527.50362 
C 458.414729 518.588242 477.97293 505.51987 494.4464 489.0464 
C 510.91987 472.57293 523.988242 453.014729 532.90362 431.491102 
C 541.818998 409.967476 546.408 386.897005 546.408 363.6 
M 369 363.6 
z
" style="fill: #9edae5; stroke: #ffffff; stroke-linejoin: miter"/>
   </g>
   <g id="matplotlib.axis_1"/>
   <g id="matplotlib.axis_2"/>
  </g>
 </g>
</svg>
