<?xml version="1.0" encoding="utf-8" standalone="no"?>
<!DOCTYPE svg PUBLIC "-//W3C//DTD SVG 1.1//EN"
  "http://www.w3.org/Graphics/SVG/1.1/DTD/svg11.dtd">
<svg xmlns:xlink="http://www.w3.org/1999/xlink" width="720pt" height="720pt" viewBox="0 0 720 720" xmlns="http://www.w3.org/2000/svg" version="1.1">
 <metadata>
  <rdf:RDF xmlns:dc="http://purl.org/dc/elements/1.1/" xmlns:cc="http://creativecommons.org/ns#" xmlns:rdf="http://www.w3.org/1999/02/22-rdf-syntax-ns#">
   <cc:Work>
    <dc:type rdf:resource="http://purl.org/dc/dcmitype/StillImage"/>
    <dc:date>2024-02-23T18:45:32.725028</dc:date>
    <dc:format>image/svg+xml</dc:format>
    <dc:creator>
     <cc:Agent>
      <dc:title>Matplotlib v3.8.2, https://matplotlib.org/</dc:title>
     </cc:Agent>
    </dc:creator>
   </cc:Work>
  </rdf:RDF>
 </metadata>
 <defs>
  <style type="text/css">*{stroke-linejoin: round; stroke-linecap: butt}</style>
 </defs>
 <g id="figure_1">
  <g id="patch_1">
   <path d="M 0 720 
L 720 720 
L 720 0 
L 0 0 
L 0 720 
z
" style="fill: none"/>
  </g>
  <g id="axes_1">
   <g id="patch_2">
    <path d="M 590.76 363.6 
C 590.76 335.335424 585.356278 307.329717 574.840441 281.09418 
C 564.324604 254.858643 548.889276 230.873846 529.36741 210.434105 
C 509.845544 189.994365 486.594732 173.474087 460.869683 161.764773 
C 435.144633 150.055458 407.416564 143.371593 379.181796 142.073865 
C 350.947028 140.776137 322.722751 144.888318 296.032061 154.188497 
C 269.341372 163.488677 244.673178 177.806499 223.358674 196.369316 
C 202.044171 214.932132 184.473786 237.399919 171.595691 262.560223 
C 158.717596 287.720527 150.767684 315.112474 148.174965 343.257883 
C 145.582247 371.403292 148.394213 399.786609 156.45912 426.876155 
C 164.524026 453.965702 177.694144 479.265264 195.258759 501.409575 
C 212.823375 523.553886 234.460748 542.137317 259.003239 556.157031 
C 283.54573 570.176745 310.543781 579.375935 338.540467 583.258176 
C 366.537153 587.140417 395.019645 585.634596 422.450912 578.821973 
C 449.882179 572.00935 475.759748 560.014715 498.68716 543.485347 
C 521.614573 526.955979 541.171855 506.194656 556.303618 482.321743 
C 571.435381 458.44883 581.864447 431.901618 587.028022 404.112705 
L 543.422418 396.010164 
C 539.291558 418.241295 530.948305 439.479064 518.842894 458.577394 
C 506.737484 477.675725 491.091658 494.284784 472.749728 507.508278 
C 454.407798 520.731772 433.705743 530.32748 411.76073 535.777578 
C 389.815716 541.227677 367.029723 542.432334 344.632374 539.326541 
C 322.235025 536.220748 300.636584 528.861396 281.002591 517.645625 
C 261.368599 506.429854 244.0587 491.563109 230.007008 473.84766 
C 215.955315 456.132211 205.419221 435.892561 198.967296 414.220924 
C 192.515371 392.549287 190.265797 369.842634 192.339972 347.326306 
C 194.414147 324.809979 200.774077 302.896422 211.076553 282.768179 
C 221.379029 262.639935 235.435336 244.665706 252.486939 229.815452 
C 269.538542 214.965199 289.273098 203.510941 310.625649 196.070798 
C 331.978201 188.630654 354.557622 185.340909 377.145437 186.379092 
C 399.733251 187.417274 421.915706 192.764366 442.495746 202.131818 
C 463.075786 211.49927 481.676436 224.715492 497.293928 241.067284 
C 512.911421 257.419077 525.259684 276.606914 533.672353 297.595344 
C 542.085023 318.583774 546.408 340.98834 546.408 363.6 
L 590.76 363.6 
z
" style="fill: none; opacity: 0"/>
   </g>
   <g id="patch_3">
    <path d="M 587.028022 404.112705 
C 588.268731 397.435554 589.202053 390.704932 589.825034 383.942122 
C 590.448015 377.179313 590.76 370.391453 590.76 363.60001 
L 546.408 363.600008 
C 546.408 369.033163 546.158412 374.46345 545.660027 379.873698 
C 545.161642 385.283945 544.414985 390.668443 543.422418 396.010164 
z
" style="stroke: #ffffff; stroke-linejoin: miter"/>
   </g>
   <g id="patch_4">
    <path d="M 546.408 363.6 
C 546.408 340.302995 541.818998 317.232524 532.90362 295.708898 
C 523.988242 274.185271 510.91987 254.62707 494.4464 238.1536 
C 477.97293 221.68013 458.414729 208.611758 436.891102 199.69638 
C 415.367476 190.781002 392.297005 186.192 369 186.192 
C 345.702995 186.192 322.632524 190.781002 301.108898 199.69638 
C 279.585271 208.611758 260.02707 221.68013 243.5536 238.1536 
C 227.08013 254.62707 214.011758 274.185271 205.09638 295.708898 
C 196.181002 317.232524 191.592 340.302995 191.592 363.6 
C 191.592 386.897005 196.181002 409.967476 205.09638 431.491102 
C 214.011758 453.014729 227.08013 472.57293 243.5536 489.0464 
C 260.02707 505.51987 279.585271 518.588242 301.108898 527.50362 
C 322.632524 536.418998 345.702995 541.008 369 541.008 
C 392.297005 541.008 415.367476 536.418998 436.891102 527.50362 
C 458.414729 518.588242 477.97293 505.51987 494.4464 489.0464 
C 510.91987 472.57293 523.988242 453.014729 532.90362 431.491102 
C 541.818998 409.967476 546.408 386.897005 546.408 363.6 
M 369 363.6 
z
" style="fill: #9edae5; stroke: #ffffff; stroke-linejoin: miter"/>
   </g>
   <g id="matplotlib.axis_1"/>
   <g id="matplotlib.axis_2"/>
  </g>
 </g>
</svg>
