<?xml version="1.0" encoding="utf-8" standalone="no"?>
<!DOCTYPE svg PUBLIC "-//W3C//DTD SVG 1.1//EN"
  "http://www.w3.org/Graphics/SVG/1.1/DTD/svg11.dtd">
<svg xmlns:xlink="http://www.w3.org/1999/xlink" width="720pt" height="720pt" viewBox="0 0 720 720" xmlns="http://www.w3.org/2000/svg" version="1.1">
 <metadata>
  <rdf:RDF xmlns:dc="http://purl.org/dc/elements/1.1/" xmlns:cc="http://creativecommons.org/ns#" xmlns:rdf="http://www.w3.org/1999/02/22-rdf-syntax-ns#">
   <cc:Work>
    <dc:type rdf:resource="http://purl.org/dc/dcmitype/StillImage"/>
    <dc:date>2024-02-23T18:45:31.572529</dc:date>
    <dc:format>image/svg+xml</dc:format>
    <dc:creator>
     <cc:Agent>
      <dc:title>Matplotlib v3.8.2, https://matplotlib.org/</dc:title>
     </cc:Agent>
    </dc:creator>
   </cc:Work>
  </rdf:RDF>
 </metadata>
 <defs>
  <style type="text/css">*{stroke-linejoin: round; stroke-linecap: butt}</style>
 </defs>
 <g id="figure_1">
  <g id="patch_1">
   <path d="M 0 720 
L 720 720 
L 720 0 
L 0 0 
L 0 720 
z
" style="fill: none"/>
  </g>
  <g id="axes_1">
   <g id="patch_2">
    <path d="M 590.76 363.6 
C 590.76 337.519562 586.159153 311.64243 577.169345 287.160342 
C 568.179538 262.678255 554.940926 239.972904 538.063199 220.089958 
C 521.185473 200.207011 500.931764 183.456456 478.234835 170.60972 
C 455.537906 157.762983 430.751615 149.020353 405.017466 144.784462 
C 379.283316 140.54857 353.002519 140.885458 327.385405 145.779608 
C 301.768291 150.673759 277.214247 160.04887 254.85408 173.473183 
C 232.493914 186.897495 212.676232 204.161716 196.313717 224.470761 
C 179.951201 244.779806 167.298953 267.817045 158.939656 292.521526 
C 150.580359 317.226007 146.64434 343.212572 147.312867 369.28444 
C 147.981395 395.356308 153.244047 421.107003 162.858457 445.350607 
C 172.472867 469.594212 186.289142 491.952753 203.670988 511.396534 
C 221.052835 530.840316 241.72926 547.066197 264.748035 559.326916 
C 287.766811 571.587634 312.76906 579.692036 338.603333 583.266885 
C 364.437607 586.841733 390.701133 585.831293 416.184376 580.2821 
C 441.667619 574.732906 465.97328 564.731474 487.98199 550.738408 
C 509.9907 536.745341 529.359331 518.978801 545.195882 498.257004 
L 509.956706 471.325603 
C 497.287465 487.903041 481.79256 502.116273 464.185592 513.310726 
C 446.578624 524.505179 427.134095 532.506325 406.747501 536.94568 
C 386.360906 541.385035 365.350085 542.193386 344.682666 539.333508 
C 324.015248 536.473629 304.013449 529.990107 285.598428 520.181532 
C 267.183408 510.372958 250.642268 497.392252 236.736791 481.837227 
C 222.831313 466.282202 211.778294 448.395369 204.086766 429.000486 
C 196.395237 409.605603 192.185116 389.005047 191.650294 368.147552 
C 191.115472 347.290058 194.264287 326.500806 200.951725 306.737221 
C 207.639162 286.973636 217.760961 268.543845 230.850973 252.296609 
C 243.940986 236.049373 259.795131 222.237996 277.683264 211.498546 
C 295.571398 200.759096 315.214633 193.259007 335.708324 189.343687 
C 356.202015 185.428366 377.226653 185.158856 397.813973 188.547569 
C 418.401292 191.936283 438.230325 198.930386 456.387868 209.207776 
C 474.545411 219.485165 490.748378 232.885609 504.25056 248.791966 
C 517.752741 264.698324 528.34363 282.862604 535.535476 302.448274 
C 542.727322 322.033944 546.408 342.73565 546.408 363.6 
L 590.76 363.6 
z
" style="fill: none; opacity: 0"/>
   </g>
   <g id="patch_3">
    <path d="M 545.195882 498.257004 
C 559.8735 479.051647 571.312786 457.575063 579.060343 434.678478 
C 586.807899 411.781893 590.759999 387.771858 590.76 363.60001 
L 546.408 363.600008 
C 546.407999 382.937487 543.246319 402.145515 537.048274 420.462783 
C 530.850229 438.780051 521.6988 455.961317 509.956706 471.325603 
z
" style="stroke: #ffffff; stroke-linejoin: miter"/>
   </g>
   <g id="patch_4">
    <path d="M 546.408 363.6 
C 546.408 331.560607 537.728661 300.111733 521.295678 272.607556 
C 504.862695 245.103378 481.281821 222.557759 453.068072 207.375298 
C 424.854324 192.192836 393.047719 184.933192 361.040587 186.37064 
C 329.033456 187.808087 298.005648 197.889641 271.266432 215.540052 
L 369 363.6 
z
" style="fill: #f7b6d2; stroke: #ffffff; stroke-linejoin: miter"/>
   </g>
   <g id="patch_5">
    <path d="M 271.266432 215.540052 
C 253.499206 227.268102 237.98724 242.099068 225.473885 259.322233 
C 212.96053 276.545398 203.648915 295.88118 197.985263 316.402986 
L 369 363.6 
z
" style="fill: #e377c2; stroke: #ffffff; stroke-linejoin: miter"/>
   </g>
   <g id="patch_6">
    <path d="M 197.985263 316.402986 
C 193.742479 331.776387 191.591995 347.651934 191.592 363.600058 
C 191.592005 379.548182 193.7425 395.423728 197.985294 410.797126 
L 369 363.6 
z
" style="fill: #c7c7c7; stroke: #ffffff; stroke-linejoin: miter"/>
   </g>
   <g id="patch_7">
    <path d="M 197.985294 410.797126 
C 209.402271 452.165554 235.450837 488.018302 271.266529 511.660012 
C 307.082221 535.301722 350.287564 545.16304 392.814136 539.402404 
C 435.340708 533.641769 474.365561 512.641575 502.600962 480.323525 
C 530.836363 448.005475 546.408024 406.514865 546.408 363.5999 
L 369 363.6 
z
" style="fill: #9edae5; stroke: #ffffff; stroke-linejoin: miter"/>
   </g>
   <g id="matplotlib.axis_1"/>
   <g id="matplotlib.axis_2"/>
  </g>
 </g>
</svg>
