<?xml version="1.0" encoding="utf-8" standalone="no"?>
<!DOCTYPE svg PUBLIC "-//W3C//DTD SVG 1.1//EN"
  "http://www.w3.org/Graphics/SVG/1.1/DTD/svg11.dtd">
<svg xmlns:xlink="http://www.w3.org/1999/xlink" width="720pt" height="720pt" viewBox="0 0 720 720" xmlns="http://www.w3.org/2000/svg" version="1.1">
 <metadata>
  <rdf:RDF xmlns:dc="http://purl.org/dc/elements/1.1/" xmlns:cc="http://creativecommons.org/ns#" xmlns:rdf="http://www.w3.org/1999/02/22-rdf-syntax-ns#">
   <cc:Work>
    <dc:type rdf:resource="http://purl.org/dc/dcmitype/StillImage"/>
    <dc:date>2024-02-23T18:45:32.320028</dc:date>
    <dc:format>image/svg+xml</dc:format>
    <dc:creator>
     <cc:Agent>
      <dc:title>Matplotlib v3.8.2, https://matplotlib.org/</dc:title>
     </cc:Agent>
    </dc:creator>
   </cc:Work>
  </rdf:RDF>
 </metadata>
 <defs>
  <style type="text/css">*{stroke-linejoin: round; stroke-linecap: butt}</style>
 </defs>
 <g id="figure_1">
  <g id="patch_1">
   <path d="M 0 720 
L 720 720 
L 720 0 
L 0 0 
L 0 720 
z
" style="fill: none"/>
  </g>
  <g id="axes_1">
   <g id="patch_2">
    <path d="M 590.76 363.6 
C 590.76 326.598574 581.499275 290.178878 563.824769 257.671689 
C 546.150262 225.1645 520.617726 197.591963 489.562246 177.475734 
C 458.506765 157.359504 422.90484 145.332111 386.012457 142.493524 
C 349.120074 139.654936 312.097264 146.09441 278.329963 161.22302 
C 244.562661 176.351631 215.112635 199.693679 192.673247 229.11441 
C 170.23386 258.535141 155.510687 293.109459 149.850243 329.675357 
C 144.189798 366.241255 147.770067 403.648967 160.263614 438.477358 
C 172.757161 473.305748 193.771143 504.459685 221.38372 529.089974 
L 250.906976 495.991979 
C 228.816915 476.287748 212.005729 451.364599 202.010891 423.501886 
C 192.016053 395.639173 189.151838 365.713004 193.680194 336.460285 
C 198.20855 307.207567 209.987088 279.548113 227.938598 256.011528 
C 245.890108 232.474943 269.450129 213.801305 296.46397 201.698416 
C 323.477811 189.595528 353.096059 184.443949 382.609966 186.714819 
C 412.123872 188.985689 440.605412 198.607603 465.449796 214.700587 
C 490.294181 230.79357 510.72021 252.8516 524.859815 278.857351 
C 538.99942 304.863103 546.408 333.998859 546.408 363.6 
L 590.76 363.6 
z
" style="fill: none; opacity: 0"/>
   </g>
   <g id="patch_3">
    <path d="M 221.38372 529.089974 
C 253.307806 557.566109 292.799961 576.205478 335.075367 582.749759 
C 377.350773 589.29404 420.63023 583.467811 459.670056 565.976971 
C 498.709883 548.486131 531.867052 520.066797 555.124283 484.162219 
C 578.381515 448.257641 590.760008 406.378897 590.76 363.599958 
L 546.408 363.599967 
C 546.408006 397.823117 536.505212 431.326113 517.899427 460.049776 
C 499.293641 488.773438 472.767906 511.508905 441.536045 525.501577 
C 410.304184 539.494249 375.680618 544.155232 341.860294 538.919807 
C 308.039969 533.684382 276.446245 518.772887 250.906976 495.991979 
z
" style="stroke: #ffffff; stroke-linejoin: miter"/>
   </g>
   <g id="patch_4">
    <path d="M 546.408 363.6 
C 546.408 321.900832 531.706121 281.507751 504.902412 249.564335 
C 478.098703 217.620919 440.872238 196.12821 399.806574 188.887226 
L 369 363.6 
z
" style="fill: #2ca02c; stroke: #ffffff; stroke-linejoin: miter"/>
   </g>
   <g id="patch_5">
    <path d="M 399.806574 188.887226 
C 364.699431 182.69689 328.528389 187.229711 296.034367 201.891575 
C 263.540344 216.553439 236.207857 240.674506 217.61936 271.093243 
L 369 363.6 
z
" style="fill: #aec7e8; stroke: #ffffff; stroke-linejoin: miter"/>
   </g>
   <g id="patch_6">
    <path d="M 217.61936 271.093243 
C 206.82846 288.751772 199.210111 308.163017 195.109555 328.447311 
C 191.008999 348.731606 190.489129 369.577839 193.573504 390.041313 
L 369 363.6 
z
" style="fill: #ff7f0e; stroke: #ffffff; stroke-linejoin: miter"/>
   </g>
   <g id="patch_7">
    <path d="M 193.573504 390.041313 
C 200.242028 434.284035 223.406873 474.406712 258.38794 502.303174 
C 293.369006 530.199636 337.640391 543.855544 382.25774 540.511929 
C 426.87509 537.168315 468.616687 517.066614 499.049283 484.268067 
C 529.481879 451.46952 546.408006 408.342434 546.408 363.599975 
L 369 363.6 
z
" style="fill: #9edae5; stroke: #ffffff; stroke-linejoin: miter"/>
   </g>
   <g id="matplotlib.axis_1"/>
   <g id="matplotlib.axis_2"/>
  </g>
 </g>
</svg>
