<?xml version="1.0" encoding="utf-8" standalone="no"?>
<!DOCTYPE svg PUBLIC "-//W3C//DTD SVG 1.1//EN"
  "http://www.w3.org/Graphics/SVG/1.1/DTD/svg11.dtd">
<svg xmlns:xlink="http://www.w3.org/1999/xlink" width="720pt" height="720pt" viewBox="0 0 720 720" xmlns="http://www.w3.org/2000/svg" version="1.1">
 <metadata>
  <rdf:RDF xmlns:dc="http://purl.org/dc/elements/1.1/" xmlns:cc="http://creativecommons.org/ns#" xmlns:rdf="http://www.w3.org/1999/02/22-rdf-syntax-ns#">
   <cc:Work>
    <dc:type rdf:resource="http://purl.org/dc/dcmitype/StillImage"/>
    <dc:date>2024-02-23T18:45:32.376127</dc:date>
    <dc:format>image/svg+xml</dc:format>
    <dc:creator>
     <cc:Agent>
      <dc:title>Matplotlib v3.8.2, https://matplotlib.org/</dc:title>
     </cc:Agent>
    </dc:creator>
   </cc:Work>
  </rdf:RDF>
 </metadata>
 <defs>
  <style type="text/css">*{stroke-linejoin: round; stroke-linecap: butt}</style>
 </defs>
 <g id="figure_1">
  <g id="patch_1">
   <path d="M 0 720 
L 720 720 
L 720 0 
L 0 0 
L 0 720 
z
" style="fill: none"/>
  </g>
  <g id="axes_1">
   <g id="patch_2">
    <path d="M 590.76 363.6 
C 590.76 336.072391 585.634396 308.783897 575.645764 283.132455 
C 565.657132 257.481013 550.979 233.912259 532.363303 213.633574 
C 513.747605 193.35489 491.517746 176.718571 466.81252 164.576864 
C 442.107294 152.435158 415.355896 144.998999 387.928751 142.649327 
C 360.501606 140.299655 332.875197 143.07729 306.464773 150.83994 
C 280.054349 158.60259 255.318729 171.215397 233.525075 188.032229 
C 211.73142 204.849061 193.258344 225.577766 179.052187 249.156451 
C 164.846031 272.735135 155.153593 298.754174 150.4714 325.880661 
C 145.789206 353.007148 146.1986 380.769824 151.678607 407.746457 
C 157.158614 434.723091 167.614033 460.445026 182.509252 483.594577 
C 197.404471 506.744127 216.48072 526.919123 238.760759 543.086037 
C 261.040798 559.252952 286.137562 571.130921 312.765392 578.11146 
C 339.393221 585.091999 367.08952 587.053836 394.435457 583.896471 
C 421.781394 580.739106 448.301898 572.51739 472.638373 559.652506 
C 496.974848 546.787623 518.704504 529.503069 536.714171 508.684301 
C 554.723839 487.865532 568.700641 463.874227 577.928574 437.939415 
L 536.142859 423.071532 
C 528.760513 443.819382 517.579071 463.012426 503.171337 479.667441 
C 488.763603 496.322455 471.379878 510.150098 451.910698 520.442005 
C 432.441518 530.733912 411.225115 537.311285 389.348366 539.837177 
C 367.471616 542.363069 345.314577 540.793599 324.012313 535.209168 
C 302.710049 529.624737 282.632638 520.122361 264.808607 507.18883 
C 246.984576 494.255299 231.723577 478.115302 219.807402 459.595661 
C 207.891226 441.076021 199.526891 420.498473 195.142886 398.917166 
C 190.75888 377.335859 190.431365 355.125719 194.17712 333.424529 
C 197.922875 311.723339 205.676825 290.908108 217.04175 272.04516 
C 228.406675 253.182213 243.185136 236.599249 260.62006 223.145783 
C 278.054984 209.692317 297.843479 199.602072 318.971818 193.391952 
C 340.100158 187.181832 362.201285 184.959724 384.143001 186.839461 
C 406.084717 188.719199 427.485835 194.668126 447.250016 204.381491 
C 467.014197 214.094856 484.798084 227.403912 499.690642 243.626859 
C 514.5832 259.849807 526.325705 278.704811 534.316611 299.225964 
C 542.307517 319.747118 546.408 341.577913 546.408 363.6 
L 590.76 363.6 
z
" style="fill: none; opacity: 0"/>
   </g>
   <g id="patch_3">
    <path d="M 577.928574 437.939415 
C 582.166564 426.028678 585.37828 413.777322 587.528607 401.3193 
C 589.678933 388.861279 590.760004 376.242161 590.76 363.599922 
L 546.408 363.599938 
C 546.408004 373.713729 545.543147 383.809023 543.822885 393.77544 
C 542.102624 403.741858 539.533251 413.542942 536.142859 423.071532 
z
" style="stroke: #ffffff; stroke-linejoin: miter"/>
   </g>
   <g id="patch_4">
    <path d="M 546.408 363.6 
C 546.408 323.417809 532.756345 284.403622 507.703159 252.98792 
C 482.649972 221.572218 447.651731 199.581367 408.476992 190.639988 
C 369.302252 181.69861 328.228453 186.326517 292.02555 203.760917 
C 255.822648 221.195317 226.595311 250.422654 209.160913 286.625558 
L 369 363.6 
z
" style="fill: #dbdb8d; stroke: #ffffff; stroke-linejoin: miter"/>
   </g>
   <g id="patch_5">
    <path d="M 209.160913 286.625558 
C 191.726515 322.828462 187.09861 363.90226 196.03999 403.077 
C 204.98137 442.251739 226.972224 477.249979 258.387927 502.303164 
L 369 363.6 
z
" style="fill: #d62728; stroke: #ffffff; stroke-linejoin: miter"/>
   </g>
   <g id="patch_6">
    <path d="M 258.387927 502.303164 
C 284.494203 523.122223 315.955392 536.153873 349.136616 539.892497 
C 382.317839 543.631121 415.890045 537.926972 445.974457 523.43908 
C 476.05887 508.951188 501.450478 486.259856 519.215654 457.986735 
C 536.980831 429.713613 546.408003 396.991163 546.408 363.599983 
L 369 363.6 
z
" style="fill: #9edae5; stroke: #ffffff; stroke-linejoin: miter"/>
   </g>
   <g id="matplotlib.axis_1"/>
   <g id="matplotlib.axis_2"/>
  </g>
 </g>
</svg>
