<?xml version="1.0" encoding="utf-8" standalone="no"?>
<!DOCTYPE svg PUBLIC "-//W3C//DTD SVG 1.1//EN"
  "http://www.w3.org/Graphics/SVG/1.1/DTD/svg11.dtd">
<svg xmlns:xlink="http://www.w3.org/1999/xlink" width="720pt" height="720pt" viewBox="0 0 720 720" xmlns="http://www.w3.org/2000/svg" version="1.1">
 <metadata>
  <rdf:RDF xmlns:dc="http://purl.org/dc/elements/1.1/" xmlns:cc="http://creativecommons.org/ns#" xmlns:rdf="http://www.w3.org/1999/02/22-rdf-syntax-ns#">
   <cc:Work>
    <dc:type rdf:resource="http://purl.org/dc/dcmitype/StillImage"/>
    <dc:date>2024-02-23T18:45:32.621567</dc:date>
    <dc:format>image/svg+xml</dc:format>
    <dc:creator>
     <cc:Agent>
      <dc:title>Matplotlib v3.8.2, https://matplotlib.org/</dc:title>
     </cc:Agent>
    </dc:creator>
   </cc:Work>
  </rdf:RDF>
 </metadata>
 <defs>
  <style type="text/css">*{stroke-linejoin: round; stroke-linecap: butt}</style>
 </defs>
 <g id="figure_1">
  <g id="patch_1">
   <path d="M 0 720 
L 720 720 
L 720 0 
L 0 0 
L 0 720 
z
" style="fill: none"/>
  </g>
  <g id="axes_1">
   <g id="patch_2">
    <path d="M 590.76 363.6 
C 590.76 337.731729 586.233705 312.061836 577.386235 287.753612 
C 568.538766 263.445389 555.505819 240.871664 538.878015 221.055419 
C 522.250211 201.239174 502.282578 184.484341 479.879999 171.550206 
C 457.477419 158.61607 432.983491 149.70101 407.508218 145.209032 
C 382.032944 140.717054 355.967051 140.717055 330.491777 145.209033 
C 305.016504 149.701012 280.522576 158.616072 258.119997 171.550208 
C 235.717418 184.484344 215.749785 201.239177 199.121982 221.055423 
C 182.494178 240.871668 169.461232 263.445394 160.613763 287.753617 
C 151.766294 312.061841 147.239999 337.731734 147.24 363.600005 
C 147.240001 389.468276 151.766296 415.138169 160.613766 439.446392 
C 169.461237 463.754615 182.494184 486.328341 199.121988 506.144585 
C 215.749793 525.96083 235.717426 542.715662 258.120006 555.649797 
C 280.522586 568.583932 305.016514 577.498991 330.491788 581.990969 
C 355.967061 586.482946 382.032954 586.482945 407.508228 581.990966 
C 432.983501 577.498987 457.477428 568.583925 479.880007 555.649789 
C 502.282587 542.715653 522.250219 525.960819 538.878022 506.144573 
L 504.902417 477.635659 
C 491.600175 493.488655 475.626069 506.892522 457.704006 517.239831 
C 439.781943 527.58714 420.186801 534.71919 399.806582 538.312773 
C 379.426363 541.906356 358.573649 541.906357 338.19343 538.312775 
C 317.813211 534.719193 298.218069 527.587145 280.296005 517.239838 
C 262.373941 506.89253 246.399834 493.488664 233.097591 477.635668 
C 219.795347 461.782672 209.368989 443.723692 202.291013 424.277114 
C 195.213037 404.830536 191.592 384.294621 191.592 363.600004 
C 191.592 342.905388 195.213035 322.369473 202.29101 302.922894 
C 209.368986 283.476315 219.795342 265.417335 233.097585 249.564338 
C 246.399828 233.711342 262.373934 220.307475 280.295998 209.960167 
C 298.218061 199.612858 317.813203 192.480809 338.193422 188.887227 
C 358.573641 185.293644 379.426355 185.293644 399.806574 188.887226 
C 420.186793 192.480808 439.781935 199.612856 457.703999 209.960164 
C 475.626063 220.307473 491.600169 233.711339 504.902412 249.564335 
C 518.204655 265.417331 528.631013 283.476311 535.708988 302.92289 
C 542.786964 322.369468 546.408 342.905383 546.408 363.6 
L 590.76 363.6 
z
" style="fill: none; opacity: 0"/>
   </g>
   <g id="patch_3">
    <path d="M 538.878022 506.144573 
C 555.505825 486.328327 568.53877 463.754601 577.386239 439.446378 
C 586.233708 415.138154 590.760001 389.46826 590.76 363.59999 
L 546.408 363.599992 
C 546.408001 384.294608 542.786966 404.830523 535.708991 424.277102 
C 528.631016 443.723681 518.20466 461.782662 504.902417 477.635659 
z
" style="stroke: #ffffff; stroke-linejoin: miter"/>
   </g>
   <g id="patch_4">
    <path d="M 546.408 363.6 
C 546.408 340.302995 541.818998 317.232524 532.90362 295.708898 
C 523.988242 274.185271 510.91987 254.62707 494.4464 238.1536 
C 477.97293 221.68013 458.414729 208.611758 436.891102 199.69638 
C 415.367476 190.781002 392.297005 186.192 369 186.192 
C 345.702995 186.192 322.632524 190.781002 301.108898 199.69638 
C 279.585271 208.611758 260.02707 221.68013 243.5536 238.1536 
C 227.08013 254.62707 214.011758 274.185271 205.09638 295.708898 
C 196.181002 317.232524 191.592 340.302995 191.592 363.6 
C 191.592 386.897005 196.181002 409.967476 205.09638 431.491102 
C 214.011758 453.014729 227.08013 472.57293 243.5536 489.0464 
C 260.02707 505.51987 279.585271 518.588242 301.108898 527.50362 
C 322.632524 536.418998 345.702995 541.008 369 541.008 
C 392.297005 541.008 415.367476 536.418998 436.891102 527.50362 
C 458.414729 518.588242 477.97293 505.51987 494.4464 489.0464 
C 510.91987 472.57293 523.988242 453.014729 532.90362 431.491102 
C 541.818998 409.967476 546.408 386.897005 546.408 363.6 
M 369 363.6 
z
" style="fill: #d62728; stroke: #ffffff; stroke-linejoin: miter"/>
   </g>
   <g id="matplotlib.axis_1"/>
   <g id="matplotlib.axis_2"/>
  </g>
 </g>
</svg>
