<?xml version="1.0" encoding="utf-8" standalone="no"?>
<!DOCTYPE svg PUBLIC "-//W3C//DTD SVG 1.1//EN"
  "http://www.w3.org/Graphics/SVG/1.1/DTD/svg11.dtd">
<svg xmlns:xlink="http://www.w3.org/1999/xlink" width="720pt" height="720pt" viewBox="0 0 720 720" xmlns="http://www.w3.org/2000/svg" version="1.1">
 <metadata>
  <rdf:RDF xmlns:dc="http://purl.org/dc/elements/1.1/" xmlns:cc="http://creativecommons.org/ns#" xmlns:rdf="http://www.w3.org/1999/02/22-rdf-syntax-ns#">
   <cc:Work>
    <dc:type rdf:resource="http://purl.org/dc/dcmitype/StillImage"/>
    <dc:date>2024-02-23T18:45:31.585529</dc:date>
    <dc:format>image/svg+xml</dc:format>
    <dc:creator>
     <cc:Agent>
      <dc:title>Matplotlib v3.8.2, https://matplotlib.org/</dc:title>
     </cc:Agent>
    </dc:creator>
   </cc:Work>
  </rdf:RDF>
 </metadata>
 <defs>
  <style type="text/css">*{stroke-linejoin: round; stroke-linecap: butt}</style>
 </defs>
 <g id="figure_1">
  <g id="patch_1">
   <path d="M 0 720 
L 720 720 
L 720 0 
L 0 0 
L 0 720 
z
" style="fill: none"/>
  </g>
  <g id="axes_1">
   <g id="patch_2">
    <path d="M 590.76 363.6 
C 590.76 325.369195 580.873674 287.780224 562.064524 254.496439 
C 543.255375 221.212654 516.154954 193.351618 483.404417 173.628616 
C 450.653881 153.905613 413.352888 142.982881 375.136724 141.924926 
C 336.92056 140.866972 299.072402 149.70932 265.280861 167.59021 
L 286.024689 206.792168 
C 313.057922 192.487456 343.336448 185.413578 373.909379 186.259941 
C 404.48231 187.106304 434.323105 195.844491 460.523534 211.622892 
C 486.723963 227.401294 508.4043 249.690123 523.45162 276.317151 
C 538.498939 302.944179 546.408 333.015356 546.408 363.6 
L 590.76 363.6 
z
" style="fill: none; opacity: 0"/>
   </g>
   <g id="patch_3">
    <path d="M 265.280861 167.59021 
C 230.569984 185.957569 201.353074 213.21978 180.629902 246.577763 
C 159.906731 279.935747 148.411663 318.207399 147.324926 357.463276 
C 146.23819 396.719153 155.598294 435.568148 174.444215 470.021539 
C 193.290136 504.474931 220.954031 533.311796 254.595583 553.571384 
C 288.237134 573.830973 326.664187 584.795347 365.931344 585.338767 
C 405.198501 585.882188 443.914253 575.985398 478.103561 556.664524 
C 512.292869 537.343651 540.744167 509.283367 560.536293 475.36469 
C 580.328419 441.446013 590.76 402.870917 590.76 363.6 
L 546.408 363.6 
C 546.408 395.016733 538.062735 425.87681 522.229035 453.011752 
C 506.395334 480.146694 483.634295 502.594921 456.282849 518.05162 
C 428.931403 533.508318 397.958801 541.42575 366.545075 540.991014 
C 335.13135 540.556278 304.389707 531.784778 277.476466 515.577108 
C 250.563225 499.369437 228.432108 476.299944 213.355372 448.737231 
C 198.278635 421.174518 190.790552 390.095323 191.659941 358.690621 
C 192.529331 327.285919 201.725385 296.668597 218.303922 269.98221 
C 234.882459 243.295824 258.255987 221.486056 286.024689 206.792168 
z
" style="stroke: #ffffff; stroke-linejoin: miter"/>
   </g>
   <g id="patch_4">
    <path d="M 546.408 363.6 
C 546.408 320.650046 530.810914 279.127962 502.533927 246.799791 
C 474.25694 214.471621 435.180189 193.486862 392.612356 187.77038 
L 369 363.6 
z
" style="fill: #c7c7c7; stroke: #ffffff; stroke-linejoin: miter"/>
   </g>
   <g id="patch_5">
    <path d="M 392.612356 187.77038 
C 358.613956 183.204697 324.010138 188.596436 293.012489 203.289375 
C 262.01484 217.982313 235.934098 241.35516 217.944517 270.563235 
L 369 363.6 
z
" style="fill: #d62728; stroke: #ffffff; stroke-linejoin: miter"/>
   </g>
   <g id="patch_6">
    <path d="M 217.944517 270.563235 
C 203.688899 293.70881 194.941915 319.824187 192.381016 346.886746 
C 189.820117 373.949305 193.513167 401.241869 203.174143 426.650643 
L 369 363.6 
z
" style="fill: #1f77b4; stroke: #ffffff; stroke-linejoin: miter"/>
   </g>
   <g id="patch_7">
    <path d="M 203.174143 426.650643 
C 217.916758 465.424344 245.801653 497.825595 281.945995 518.180719 
C 318.090337 538.535843 360.253648 545.583088 401.052848 538.088433 
C 441.852048 530.593779 478.758117 509.021796 505.308555 477.149884 
C 531.858994 445.277972 546.408019 405.081775 546.408 363.599917 
L 369 363.6 
z
" style="fill: #9edae5; stroke: #ffffff; stroke-linejoin: miter"/>
   </g>
   <g id="matplotlib.axis_1"/>
   <g id="matplotlib.axis_2"/>
  </g>
 </g>
</svg>
