<?xml version="1.0" encoding="utf-8" standalone="no"?>
<!DOCTYPE svg PUBLIC "-//W3C//DTD SVG 1.1//EN"
  "http://www.w3.org/Graphics/SVG/1.1/DTD/svg11.dtd">
<svg xmlns:xlink="http://www.w3.org/1999/xlink" width="720pt" height="720pt" viewBox="0 0 720 720" xmlns="http://www.w3.org/2000/svg" version="1.1">
 <metadata>
  <rdf:RDF xmlns:dc="http://purl.org/dc/elements/1.1/" xmlns:cc="http://creativecommons.org/ns#" xmlns:rdf="http://www.w3.org/1999/02/22-rdf-syntax-ns#">
   <cc:Work>
    <dc:type rdf:resource="http://purl.org/dc/dcmitype/StillImage"/>
    <dc:date>2024-02-23T18:45:32.920589</dc:date>
    <dc:format>image/svg+xml</dc:format>
    <dc:creator>
     <cc:Agent>
      <dc:title>Matplotlib v3.8.2, https://matplotlib.org/</dc:title>
     </cc:Agent>
    </dc:creator>
   </cc:Work>
  </rdf:RDF>
 </metadata>
 <defs>
  <style type="text/css">*{stroke-linejoin: round; stroke-linecap: butt}</style>
 </defs>
 <g id="figure_1">
  <g id="patch_1">
   <path d="M 0 720 
L 720 720 
L 720 0 
L 0 0 
L 0 720 
z
" style="fill: none"/>
  </g>
  <g id="axes_1">
   <g id="patch_2">
    <path d="M 590.76 363.6 
C 590.76 334.681896 585.103501 306.041065 574.109796 279.294192 
C 563.11609 252.547319 546.995998 228.207315 526.659448 207.648096 
C 506.322897 187.088878 482.159871 170.704697 455.534298 159.420391 
C 428.908724 148.136084 400.331186 142.168044 371.414796 141.853148 
C 342.498406 141.538252 313.797678 146.882539 286.932679 157.58434 
C 260.067679 168.28614 235.553582 184.140233 214.774133 204.251704 
C 193.994684 224.363174 177.348358 248.346356 165.774788 274.847474 
C 154.201219 301.348591 147.922345 329.859448 147.292591 358.770694 
C 146.662836 387.68194 151.694277 416.439162 162.102904 443.419103 
C 172.511531 470.399045 188.097744 495.084327 207.98175 516.081542 
C 227.865756 537.078758 251.66625 553.985255 278.039769 565.846716 
C 304.413289 577.708176 332.854082 584.297139 361.756757 585.241677 
C 390.659432 586.186216 419.469737 581.468217 446.56142 571.353998 
C 473.653104 561.239779 498.506644 545.923294 519.719137 526.26911 
C 540.931629 506.614927 558.096293 482.999942 570.244238 456.757149 
C 582.392182 430.514356 589.290452 402.146997 590.549663 373.256321 
L 546.23973 371.325057 
C 545.232362 394.437597 539.713746 417.131485 529.99539 438.125719 
C 520.277035 459.119954 506.545303 478.011941 489.575309 493.735288 
C 472.605316 509.458635 452.722483 521.711823 431.049136 529.803198 
C 409.375789 537.894574 386.327545 541.668972 363.205406 540.913342 
C 340.083266 540.157711 317.330631 534.886541 296.231815 525.397373 
C 275.133 515.908204 256.092605 502.383006 240.1854 485.585234 
C 224.278195 468.787461 211.809225 449.039236 203.482323 427.455283 
C 195.155421 405.87133 191.130269 382.865552 191.634072 359.736555 
C 192.137876 336.607558 197.160975 313.798873 206.419831 292.597979 
C 215.678686 271.397085 228.995747 252.210539 245.619306 236.121363 
C 262.242866 220.032186 281.854143 207.348912 303.346143 198.787472 
C 324.838143 190.226031 347.798725 185.950602 370.931837 186.202518 
C 394.064949 186.454435 416.926979 191.228867 438.227438 200.256312 
C 459.527897 209.283758 478.858318 222.391102 495.127558 238.838477 
C 511.396798 255.285852 524.292872 274.757856 533.087837 296.155354 
C 541.882801 317.552852 546.408 340.465517 546.408 363.6 
L 590.76 363.6 
z
" style="fill: none; opacity: 0"/>
   </g>
   <g id="patch_3">
    <path d="M 590.549663 373.256321 
C 590.619764 371.647943 590.67235 370.038849 590.707409 368.429326 
C 590.742468 366.819802 590.76 365.209945 590.76 363.60004 
L 546.408 363.600032 
C 546.408 364.887956 546.393975 366.175842 546.365927 367.463461 
C 546.33788 368.751079 546.295812 370.038354 546.23973 371.325057 
z
" style="stroke: #ffffff; stroke-linejoin: miter"/>
   </g>
   <g id="patch_4">
    <path d="M 546.408 363.6 
C 546.408 340.302995 541.818998 317.232524 532.90362 295.708898 
C 523.988242 274.185271 510.91987 254.62707 494.4464 238.1536 
C 477.97293 221.68013 458.414729 208.611758 436.891102 199.69638 
C 415.367476 190.781002 392.297005 186.192 369 186.192 
C 345.702995 186.192 322.632524 190.781002 301.108898 199.69638 
C 279.585271 208.611758 260.02707 221.68013 243.5536 238.1536 
C 227.08013 254.62707 214.011758 274.185271 205.09638 295.708898 
C 196.181002 317.232524 191.592 340.302995 191.592 363.6 
C 191.592 386.897005 196.181002 409.967476 205.09638 431.491102 
C 214.011758 453.014729 227.08013 472.57293 243.5536 489.0464 
C 260.02707 505.51987 279.585271 518.588242 301.108898 527.50362 
C 322.632524 536.418998 345.702995 541.008 369 541.008 
C 392.297005 541.008 415.367476 536.418998 436.891102 527.50362 
C 458.414729 518.588242 477.97293 505.51987 494.4464 489.0464 
C 510.91987 472.57293 523.988242 453.014729 532.90362 431.491102 
C 541.818998 409.967476 546.408 386.897005 546.408 363.6 
M 369 363.6 
z
" style="fill: #f7b6d2; stroke: #ffffff; stroke-linejoin: miter"/>
   </g>
   <g id="matplotlib.axis_1"/>
   <g id="matplotlib.axis_2"/>
  </g>
 </g>
</svg>
