<?xml version="1.0" encoding="utf-8" standalone="no"?>
<!DOCTYPE svg PUBLIC "-//W3C//DTD SVG 1.1//EN"
  "http://www.w3.org/Graphics/SVG/1.1/DTD/svg11.dtd">
<svg xmlns:xlink="http://www.w3.org/1999/xlink" width="720pt" height="720pt" viewBox="0 0 720 720" xmlns="http://www.w3.org/2000/svg" version="1.1">
 <metadata>
  <rdf:RDF xmlns:dc="http://purl.org/dc/elements/1.1/" xmlns:cc="http://creativecommons.org/ns#" xmlns:rdf="http://www.w3.org/1999/02/22-rdf-syntax-ns#">
   <cc:Work>
    <dc:type rdf:resource="http://purl.org/dc/dcmitype/StillImage"/>
    <dc:date>2024-02-23T18:45:32.017251</dc:date>
    <dc:format>image/svg+xml</dc:format>
    <dc:creator>
     <cc:Agent>
      <dc:title>Matplotlib v3.8.2, https://matplotlib.org/</dc:title>
     </cc:Agent>
    </dc:creator>
   </cc:Work>
  </rdf:RDF>
 </metadata>
 <defs>
  <style type="text/css">*{stroke-linejoin: round; stroke-linecap: butt}</style>
 </defs>
 <g id="figure_1">
  <g id="patch_1">
   <path d="M 0 720 
L 720 720 
L 720 0 
L 0 0 
L 0 720 
z
" style="fill: none"/>
  </g>
  <g id="axes_1">
   <g id="patch_2">
    <path d="M 590.76 363.6 
C 590.76 336.42321 585.764208 309.476495 576.022161 284.105834 
C 566.280114 258.735172 551.956763 235.370135 533.767554 215.177795 
C 515.578344 194.985455 493.831251 178.307706 469.612534 165.977593 
C 445.393817 153.647481 419.113542 145.873776 392.084397 143.044773 
C 365.055252 140.215769 337.734889 142.379367 311.48795 149.427495 
C 285.241011 156.475624 260.511902 168.288945 238.535834 184.277389 
C 216.559765 200.265832 197.70883 220.158686 182.924625 242.962309 
C 168.140421 265.765932 157.673269 291.094219 152.046001 317.682031 
C 146.418733 344.269844 145.726627 371.667004 150.004255 398.505033 
C 154.281883 425.343063 163.456816 451.167547 177.070771 474.688562 
C 190.684725 498.209578 208.507193 519.028872 229.647948 536.106531 
C 250.788702 553.184189 274.889794 566.231056 300.747384 574.595445 
C 326.604973 582.959835 353.781244 586.500123 380.918754 585.039475 
C 408.056264 583.578826 434.695525 577.141971 459.505919 566.050429 
C 484.316312 554.958887 506.877753 539.400457 526.063307 520.152276 
C 545.248861 500.904095 560.733681 478.29207 571.744309 453.445662 
L 531.195447 435.476529 
C 522.386945 455.353656 509.999089 473.443276 494.650646 488.841821 
C 479.302203 504.240366 461.25305 516.68711 441.404735 525.560343 
C 421.55642 534.433577 400.245011 539.583061 378.535003 540.75158 
C 356.824995 541.920099 335.083978 539.087868 314.397907 532.396356 
C 293.711836 525.704845 274.430962 515.267351 257.518358 501.605224 
C 240.605754 487.943098 226.34778 471.287662 215.456617 452.47085 
C 204.565453 433.654037 197.225506 412.99445 193.803404 391.524027 
C 190.381302 370.053603 190.934986 348.135875 195.436801 326.865625 
C 199.938615 305.595375 208.312336 285.332746 220.1397 267.089847 
C 231.967064 248.846949 247.047812 232.932666 264.628667 220.141911 
C 282.209522 207.351156 301.992809 197.900499 322.99036 192.261996 
C 343.987911 186.623494 365.844202 184.892615 387.467517 187.155818 
C 409.090833 189.419021 430.115054 195.637985 449.490027 205.502075 
C 468.865001 215.366165 486.262675 228.708364 500.814043 244.862236 
C 515.365411 261.016108 526.824091 279.708138 534.617729 300.004667 
C 542.411366 320.301196 546.408 341.858568 546.408 363.6 
L 590.76 363.6 
z
" style="fill: none; opacity: 0"/>
   </g>
   <g id="patch_3">
    <path d="M 571.744309 453.445662 
C 577.996348 439.337407 582.758733 424.61502 585.954 409.517964 
C 589.149268 394.420907 590.760001 379.031479 590.76 363.59999 
L 546.408 363.599992 
C 546.408001 375.945183 545.119414 388.256726 542.5632 400.334371 
C 540.006986 412.412016 536.197079 424.189925 531.195447 435.476529 
z
" style="stroke: #ffffff; stroke-linejoin: miter"/>
   </g>
   <g id="patch_4">
    <path d="M 546.408 363.6 
C 546.408 337.36875 540.590237 311.461075 529.374933 287.748306 
C 518.159628 264.035537 501.823474 243.10269 481.546444 226.461761 
C 461.269413 209.820833 437.55176 197.882369 412.106628 191.508695 
C 386.661496 185.135022 360.11664 184.483382 334.389416 189.600845 
C 308.662192 194.718308 284.387315 205.478621 263.318178 221.104558 
C 242.24904 236.730496 224.905438 256.836551 212.540112 279.970448 
C 200.174787 303.104345 193.092802 328.695349 191.805696 354.895002 
C 190.518589 381.094655 195.058115 407.256588 205.09638 431.491102 
L 369 363.6 
z
" style="fill: #c7c7c7; stroke: #ffffff; stroke-linejoin: miter"/>
   </g>
   <g id="patch_5">
    <path d="M 205.09638 431.491102 
C 216.260497 458.443666 233.902333 482.230928 256.453556 500.738239 
C 279.004779 519.245549 305.776727 531.907737 334.389416 537.599155 
C 363.002105 543.290573 392.581769 541.837417 420.498824 533.368871 
C 448.415879 524.900325 473.817801 509.674999 494.4464 489.0464 
L 369 363.6 
z
" style="fill: #dbdb8d; stroke: #ffffff; stroke-linejoin: miter"/>
   </g>
   <g id="patch_6">
    <path d="M 494.4464 489.0464 
C 510.91987 472.57293 523.988242 453.014729 532.90362 431.491102 
C 541.818998 409.967476 546.408 386.897005 546.408 363.6 
L 369 363.6 
z
" style="fill: #c5b0d5; stroke: #ffffff; stroke-linejoin: miter"/>
   </g>
   <g id="matplotlib.axis_1"/>
   <g id="matplotlib.axis_2"/>
  </g>
 </g>
</svg>
