<?xml version="1.0" encoding="utf-8" standalone="no"?>
<!DOCTYPE svg PUBLIC "-//W3C//DTD SVG 1.1//EN"
  "http://www.w3.org/Graphics/SVG/1.1/DTD/svg11.dtd">
<svg xmlns:xlink="http://www.w3.org/1999/xlink" width="720pt" height="720pt" viewBox="0 0 720 720" xmlns="http://www.w3.org/2000/svg" version="1.1">
 <metadata>
  <rdf:RDF xmlns:dc="http://purl.org/dc/elements/1.1/" xmlns:cc="http://creativecommons.org/ns#" xmlns:rdf="http://www.w3.org/1999/02/22-rdf-syntax-ns#">
   <cc:Work>
    <dc:type rdf:resource="http://purl.org/dc/dcmitype/StillImage"/>
    <dc:date>2024-02-23T18:45:32.636273</dc:date>
    <dc:format>image/svg+xml</dc:format>
    <dc:creator>
     <cc:Agent>
      <dc:title>Matplotlib v3.8.2, https://matplotlib.org/</dc:title>
     </cc:Agent>
    </dc:creator>
   </cc:Work>
  </rdf:RDF>
 </metadata>
 <defs>
  <style type="text/css">*{stroke-linejoin: round; stroke-linecap: butt}</style>
 </defs>
 <g id="figure_1">
  <g id="patch_1">
   <path d="M 0 720 
L 720 720 
L 720 0 
L 0 0 
L 0 720 
z
" style="fill: none"/>
  </g>
  <g id="axes_1">
   <g id="patch_2">
    <path d="M 590.76 363.6 
C 590.76 334.805749 585.15185 306.285219 574.249451 279.634767 
C 563.347052 252.984315 547.357682 228.710624 527.176302 208.172348 
C 506.994923 187.634072 483.005224 171.221687 456.549965 159.853831 
C 430.094706 148.485976 401.676857 142.378777 372.887029 141.874069 
C 344.097202 141.36936 315.482753 146.476738 288.645297 156.910331 
C 261.807842 167.343923 237.257617 182.905365 216.368755 202.723648 
C 195.479893 222.541931 178.649536 246.240266 166.819716 272.492204 
C 154.989897 298.744142 148.385526 327.050578 147.376264 355.827135 
C 146.367003 384.603693 150.97204 413.303269 160.93362 440.319483 
C 170.8952 467.335696 186.023933 492.154912 205.473029 513.387941 
C 224.922125 534.620971 248.321815 551.864129 274.362366 564.152277 
C 300.402917 576.440425 328.589242 583.53994 357.343688 585.053444 
C 386.098135 586.566949 414.874019 582.465669 442.06069 572.979161 
C 469.24736 563.492654 494.327941 548.801279 515.898614 529.727345 
C 537.469287 510.653412 555.119948 487.559556 567.86265 461.738393 
C 580.605351 435.917231 588.197827 407.859677 590.21511 379.136177 
L 545.972088 376.028942 
C 544.358262 399.007742 538.284281 421.453784 528.09012 442.110715 
C 517.895958 462.767645 503.775429 481.242729 486.518891 496.501876 
C 469.262353 511.761023 449.197888 523.514123 427.448552 531.103329 
C 405.699215 538.692535 382.678508 541.973559 359.674951 540.762755 
C 336.671394 539.551952 314.122334 533.87234 293.289893 524.041822 
C 272.457452 514.211303 253.7377 500.416777 238.178423 483.430353 
C 222.619146 466.443929 210.51616 446.588557 202.546896 424.975586 
C 194.577632 403.362615 190.893602 380.402954 191.701012 357.381708 
C 192.508421 334.360462 197.791918 311.715314 207.255773 290.713763 
C 216.719629 269.712213 230.183914 250.753545 246.895004 234.898918 
C 263.606093 219.044292 283.246273 206.595139 304.716238 198.248265 
C 326.186202 189.901391 349.077762 185.815488 372.109624 186.219255 
C 395.141485 186.623022 417.875764 191.508781 439.039972 200.603065 
C 460.204179 209.697349 479.395938 222.827258 495.541042 239.257878 
C 511.686146 255.688499 524.477642 275.107452 533.199561 296.427813 
C 541.92148 317.748175 546.408 340.564599 546.408 363.6 
L 590.76 363.6 
z
" style="fill: none; opacity: 0"/>
   </g>
   <g id="patch_3">
    <path d="M 590.21511 379.136177 
C 590.396671 376.550986 590.5329 373.96281 590.623736 371.372844 
C 590.714572 368.782877 590.76 366.191517 590.76 363.599958 
L 546.408 363.599967 
C 546.408 365.673214 546.371658 367.746302 546.298989 369.818275 
C 546.22632 371.890248 546.117336 373.960789 545.972088 376.028942 
z
" style="stroke: #ffffff; stroke-linejoin: miter"/>
   </g>
   <g id="patch_4">
    <path d="M 546.408 363.6 
C 546.408 332.460709 538.209479 301.863414 522.639833 274.895998 
C 507.070188 247.928581 484.671413 225.529807 457.703995 209.960162 
L 369 363.6 
z
" style="fill: #c7c7c7; stroke: #ffffff; stroke-linejoin: miter"/>
   </g>
   <g id="patch_5">
    <path d="M 457.703995 209.960162 
C 440.907186 200.262521 422.633189 193.384676 403.61058 189.600844 
C 384.58797 185.817012 365.072961 185.178158 345.843607 187.70975 
C 326.614252 190.241343 307.929548 195.909286 290.534447 204.487601 
C 273.139345 213.065916 257.268137 224.439063 243.5536 238.1536 
C 229.839063 251.868137 218.465916 267.739345 209.887601 285.134447 
C 201.309286 302.529548 195.641343 321.214252 193.10975 340.443607 
C 190.578158 359.672961 191.217012 379.18797 195.000844 398.21058 
C 198.784676 417.233189 205.662521 435.507186 215.360162 452.303995 
C 225.057804 469.100804 237.444626 484.194192 252.026772 496.982392 
C 266.608919 509.770592 283.189984 520.081362 301.10889 527.503617 
C 319.027796 534.925872 338.043195 539.359642 357.396952 540.628155 
C 376.750709 541.896669 396.182152 539.98284 414.916558 534.962972 
C 433.650965 529.943104 451.436003 521.884809 467.562594 511.109368 
C 483.689184 500.333926 497.940119 486.986471 509.747221 471.599159 
C 521.554323 456.211846 530.758564 438.991925 536.992976 420.625947 
C 543.227387 402.259969 546.407998 382.995301 546.408 363.600017 
L 369 363.6 
z
" style="fill: #9edae5; stroke: #ffffff; stroke-linejoin: miter"/>
   </g>
   <g id="matplotlib.axis_1"/>
   <g id="matplotlib.axis_2"/>
  </g>
 </g>
</svg>
