<?xml version="1.0" encoding="utf-8" standalone="no"?>
<!DOCTYPE svg PUBLIC "-//W3C//DTD SVG 1.1//EN"
  "http://www.w3.org/Graphics/SVG/1.1/DTD/svg11.dtd">
<svg xmlns:xlink="http://www.w3.org/1999/xlink" width="720pt" height="720pt" viewBox="0 0 720 720" xmlns="http://www.w3.org/2000/svg" version="1.1">
 <metadata>
  <rdf:RDF xmlns:dc="http://purl.org/dc/elements/1.1/" xmlns:cc="http://creativecommons.org/ns#" xmlns:rdf="http://www.w3.org/1999/02/22-rdf-syntax-ns#">
   <cc:Work>
    <dc:type rdf:resource="http://purl.org/dc/dcmitype/StillImage"/>
    <dc:date>2024-02-23T18:45:31.919362</dc:date>
    <dc:format>image/svg+xml</dc:format>
    <dc:creator>
     <cc:Agent>
      <dc:title>Matplotlib v3.8.2, https://matplotlib.org/</dc:title>
     </cc:Agent>
    </dc:creator>
   </cc:Work>
  </rdf:RDF>
 </metadata>
 <defs>
  <style type="text/css">*{stroke-linejoin: round; stroke-linecap: butt}</style>
 </defs>
 <g id="figure_1">
  <g id="patch_1">
   <path d="M 0 720 
L 720 720 
L 720 0 
L 0 0 
L 0 720 
z
" style="fill: none"/>
  </g>
  <g id="axes_1">
   <g id="patch_2">
    <path d="M 590.76 363.6 
C 590.76 331.189662 583.654818 299.16991 569.946124 269.80153 
C 556.237429 240.43315 536.255636 214.423997 511.411579 193.610471 
C 486.567521 172.796946 457.460006 157.680708 426.144196 149.329054 
C 394.828387 140.9774 362.059076 139.591627 330.149972 145.269579 
C 298.240869 150.94753 267.961064 163.552353 241.448494 182.194071 
C 214.935924 200.83579 192.82961 225.06509 176.69039 253.171239 
C 160.551169 281.277387 150.768039 312.582954 148.031748 344.877578 
C 145.295456 377.172202 149.671954 409.6775 160.852235 440.098403 
L 202.481788 424.798722 
C 193.537563 400.462 190.036365 374.457762 192.225398 348.622062 
C 194.414431 322.786363 202.240935 297.74191 215.152312 275.256991 
C 228.063688 252.772072 245.748739 233.388632 266.958795 218.475257 
C 288.168851 203.561882 312.392695 193.478024 337.919978 188.935663 
C 363.447261 184.393302 389.66271 185.50192 414.715357 192.183243 
C 439.768005 198.864566 463.054017 210.957556 482.929263 227.608377 
C 502.804509 244.259198 518.789943 265.06652 529.756899 288.561224 
C 540.723855 312.055928 546.408 337.671729 546.408 363.6 
L 590.76 363.6 
z
" style="fill: none; opacity: 0"/>
   </g>
   <g id="patch_3">
    <path d="M 160.852235 440.098403 
C 178.812381 488.966928 213.421165 529.983362 258.571239 555.90961 
C 303.721313 581.835859 356.590838 591.051555 407.850028 581.930421 
C 459.109217 572.809288 505.554417 545.921388 538.989529 506.011579 
C 572.42464 466.10177 590.76 415.664379 590.76 363.6 
L 546.408 363.6 
C 546.408 405.251503 531.739712 445.601416 504.991623 477.529263 
C 478.243534 509.45711 441.087373 530.96743 400.080022 538.264337 
C 359.072671 545.561244 316.77705 538.188687 280.656991 517.447688 
C 244.536932 496.70669 216.849905 463.893542 202.481788 424.798722 
z
" style="stroke: #ffffff; stroke-linejoin: miter"/>
   </g>
   <g id="patch_4">
    <path d="M 546.408 363.6 
C 546.408 342.196149 542.534515 320.967907 534.975147 300.943403 
C 527.415778 280.918898 516.294568 262.426715 502.15014 246.362469 
C 488.005713 230.298223 471.070164 216.925514 452.16372 206.89201 
C 433.257276 196.858506 412.690173 190.328848 391.45852 187.619281 
C 370.226868 184.909715 348.679056 186.064701 327.858694 191.028301 
C 307.038331 195.991901 287.287059 204.682668 269.561475 216.679688 
C 251.835891 228.676708 236.426854 243.783122 224.080658 261.267294 
C 211.734462 278.751465 202.653695 298.326497 197.27816 319.044326 
C 191.902624 339.762155 190.320527 361.282823 192.608493 382.564036 
C 194.896458 403.845249 201.016943 424.537804 210.673519 443.639515 
C 220.330095 462.741226 233.364307 479.938653 249.14488 494.398886 
C 264.925452 508.85912 283.193442 520.344882 303.06409 528.299891 
C 322.934737 536.254901 344.081986 540.548625 365.481627 540.973108 
C 386.881268 541.397592 408.182155 537.945869 428.352639 530.785115 
C 448.523123 523.624361 467.232226 512.872077 483.573826 499.049019 
C 499.915426 485.225961 513.621373 468.558952 524.027858 449.855212 
L 369 363.6 
z
" style="fill: #8c564b; stroke: #ffffff; stroke-linejoin: miter"/>
   </g>
   <g id="patch_5">
    <path d="M 524.027858 449.855212 
C 525.852784 446.575244 527.573157 443.238186 529.186381 439.849078 
C 530.799604 436.45997 532.304864 433.020518 533.699889 429.535916 
L 369 363.6 
z
" style="fill: #d62728; stroke: #ffffff; stroke-linejoin: miter"/>
   </g>
   <g id="patch_6">
    <path d="M 533.699889 429.535916 
C 535.094914 426.051314 536.379 422.523317 537.550209 418.957253 
C 538.721418 415.391189 539.77916 411.788853 540.721837 408.155686 
L 369 363.6 
z
" style="fill: #f7b6d2; stroke: #ffffff; stroke-linejoin: miter"/>
   </g>
   <g id="patch_7">
    <path d="M 540.721837 408.155686 
C 542.607666 400.887523 544.030154 393.506959 544.980716 386.058539 
C 545.931279 378.610118 546.407999 371.108856 546.408 363.600025 
L 369 363.6 
z
" style="fill: #9edae5; stroke: #ffffff; stroke-linejoin: miter"/>
   </g>
   <g id="matplotlib.axis_1"/>
   <g id="matplotlib.axis_2"/>
  </g>
 </g>
</svg>
