<?xml version="1.0" encoding="utf-8" standalone="no"?>
<!DOCTYPE svg PUBLIC "-//W3C//DTD SVG 1.1//EN"
  "http://www.w3.org/Graphics/SVG/1.1/DTD/svg11.dtd">
<svg xmlns:xlink="http://www.w3.org/1999/xlink" width="720pt" height="720pt" viewBox="0 0 720 720" xmlns="http://www.w3.org/2000/svg" version="1.1">
 <metadata>
  <rdf:RDF xmlns:dc="http://purl.org/dc/elements/1.1/" xmlns:cc="http://creativecommons.org/ns#" xmlns:rdf="http://www.w3.org/1999/02/22-rdf-syntax-ns#">
   <cc:Work>
    <dc:type rdf:resource="http://purl.org/dc/dcmitype/StillImage"/>
    <dc:date>2024-10-24T16:56:25.753419</dc:date>
    <dc:format>image/svg+xml</dc:format>
    <dc:creator>
     <cc:Agent>
      <dc:title>Matplotlib v3.8.2, https://matplotlib.org/</dc:title>
     </cc:Agent>
    </dc:creator>
   </cc:Work>
  </rdf:RDF>
 </metadata>
 <defs>
  <style type="text/css">*{stroke-linejoin: round; stroke-linecap: butt}</style>
 </defs>
 <g id="figure_1">
  <g id="patch_1">
   <path d="M 0 720 
L 720 720 
L 720 0 
L 0 0 
L 0 720 
z
" style="fill: none"/>
  </g>
  <g id="axes_1">
   <g id="patch_2">
    <path d="M 590.76 363.6 
C 590.76 338.543996 586.513495 313.668242 578.201177 290.031222 
C 569.888859 266.394203 557.630324 244.336 541.947184 224.795212 
C 526.264043 205.254423 507.381941 188.512195 486.104328 175.280925 
C 464.826715 162.049655 441.459727 152.51971 416.997651 147.096598 
C 392.535575 141.673486 367.330363 140.435233 342.45452 143.434528 
C 317.578678 146.433823 293.39011 153.627513 270.918063 164.709499 
C 248.446016 175.791486 228.013811 190.602325 210.490856 208.511803 
C 192.967902 226.42128 178.606312 247.171719 168.017187 269.88017 
C 157.428062 292.588621 150.763754 316.928362 148.307836 341.863714 
C 145.851917 366.799066 147.639723 391.971267 153.595181 416.309218 
C 159.550639 440.647169 169.588064 463.800701 183.280353 484.784613 
C 196.972642 505.768524 214.122796 524.280903 234.00106 539.534033 
C 253.879324 554.787162 276.199695 566.561583 300.012421 574.356285 
C 323.825148 582.150986 348.78762 585.85382 373.837661 585.307227 
C 398.887702 584.760634 423.6649 579.972479 447.114963 571.146501 
C 470.565025 562.320524 492.35056 549.58371 511.544573 533.478022 
L 483.035659 499.502417 
C 467.680448 512.386968 450.25202 522.576419 431.49197 529.637201 
C 412.73192 536.697983 392.910162 540.528507 372.870129 540.965782 
C 352.830096 541.403056 332.860118 538.440789 313.809937 532.205028 
C 294.759756 525.969267 276.903459 516.549729 261.000848 504.347226 
C 245.098237 492.144723 231.378114 477.334819 220.424282 460.54769 
C 209.470451 443.760561 201.440511 425.237735 196.676145 405.767374 
C 191.911779 386.297014 190.481534 366.159253 192.446268 346.210971 
C 194.411003 326.262689 199.74245 306.790897 208.21375 288.624136 
C 216.68505 270.457375 228.174321 253.857024 242.192685 239.529442 
C 256.211049 225.20186 272.556813 213.353189 290.534451 204.487599 
C 308.512088 195.62201 327.862942 189.867058 347.763616 187.467622 
C 367.66429 185.068186 387.82846 186.058789 407.398121 190.397278 
C 426.967782 194.735768 445.661372 202.359724 462.683462 212.94474 
C 479.705553 223.529756 494.811234 236.923539 507.357747 252.556169 
C 519.90426 268.1888 529.711088 285.835362 536.360942 304.744978 
C 543.010796 323.654593 546.408 343.555197 546.408 363.6 
z
" style="opacity: 0.1"/>
   </g>
   <g id="patch_3">
    <path d="M 511.544573 533.478022 
C 536.349913 512.663872 556.297981 486.667046 569.982813 457.31983 
C 583.667645 427.972614 590.76 395.981071 590.76 363.6 
L 546.408 363.6 
C 546.408 389.504856 540.734116 415.098091 529.78625 438.575864 
C 518.838384 462.053637 502.879931 482.851097 483.035659 499.502417 
z
"/>
   </g>
   <g id="patch_4">
    <path d="M 546.408 363.6 
C 546.408 335.604538 539.781361 308.002597 527.071688 283.058458 
C 514.362015 258.114318 495.926618 236.52924 473.277814 220.073919 
C 450.629011 203.618598 424.403531 192.755647 396.75274 188.376189 
C 369.101949 183.996732 340.803199 186.223889 314.177932 194.874959 
L 369 363.6 
z
" style="fill: #d62728"/>
   </g>
   <g id="patch_5">
    <path d="M 314.177932 194.874959 
C 278.552241 206.450444 247.491821 229.017154 225.473929 259.322172 
C 203.456037 289.627191 191.592007 326.140899 191.592 363.599967 
L 369 363.6 
z
" style="fill: #f7b6d2"/>
   </g>
   <g id="patch_6">
    <path d="M 191.592 363.599967 
C 191.591997 382.216204 194.522224 400.716957 200.274954 418.422052 
C 206.027684 436.127147 214.531543 452.816919 225.47389 467.877774 
L 369 363.6 
z
" style="fill: #7f7f7f"/>
   </g>
   <g id="patch_7">
    <path d="M 225.47389 467.877774 
C 236.416236 482.938629 249.661309 496.183708 264.722159 507.126062 
C 279.783009 518.068415 296.472776 526.572282 314.177869 532.32502 
L 369 363.6 
z
" style="fill: #c7c7c7"/>
   </g>
   <g id="patch_8">
    <path d="M 314.177869 532.32502 
C 331.882961 538.077758 350.383713 541.007995 368.99995 541.008 
C 387.616188 541.008005 406.116941 538.077779 423.822036 532.325051 
L 369 363.6 
z
" style="fill: #1f77b4"/>
   </g>
   <g id="patch_9">
    <path d="M 423.822036 532.325051 
C 441.527132 526.572322 458.216904 518.068465 473.27776 507.12612 
C 488.338616 496.183775 501.583697 482.938703 512.526052 467.877854 
L 369 363.6 
z
" style="fill: #c5b0d5"/>
   </g>
   <g id="patch_10">
    <path d="M 512.526052 467.877854 
C 523.468407 452.817006 531.972275 436.127239 537.725015 418.422147 
C 543.477755 400.717055 546.407993 382.216304 546.408 363.600066 
L 369 363.6 
z
" style="fill: #9edae5"/>
   </g>
   <g id="matplotlib.axis_1"/>
   <g id="matplotlib.axis_2"/>
  </g>
 </g>
</svg>
