<?xml version="1.0" encoding="utf-8" standalone="no"?>
<!DOCTYPE svg PUBLIC "-//W3C//DTD SVG 1.1//EN"
  "http://www.w3.org/Graphics/SVG/1.1/DTD/svg11.dtd">
<svg xmlns:xlink="http://www.w3.org/1999/xlink" width="720pt" height="720pt" viewBox="0 0 720 720" xmlns="http://www.w3.org/2000/svg" version="1.1">
 <metadata>
  <rdf:RDF xmlns:dc="http://purl.org/dc/elements/1.1/" xmlns:cc="http://creativecommons.org/ns#" xmlns:rdf="http://www.w3.org/1999/02/22-rdf-syntax-ns#">
   <cc:Work>
    <dc:type rdf:resource="http://purl.org/dc/dcmitype/StillImage"/>
    <dc:date>2024-02-23T18:45:31.726566</dc:date>
    <dc:format>image/svg+xml</dc:format>
    <dc:creator>
     <cc:Agent>
      <dc:title>Matplotlib v3.8.2, https://matplotlib.org/</dc:title>
     </cc:Agent>
    </dc:creator>
   </cc:Work>
  </rdf:RDF>
 </metadata>
 <defs>
  <style type="text/css">*{stroke-linejoin: round; stroke-linecap: butt}</style>
 </defs>
 <g id="figure_1">
  <g id="patch_1">
   <path d="M 0 720 
L 720 720 
L 720 0 
L 0 0 
L 0 720 
z
" style="fill: none"/>
  </g>
  <g id="axes_1">
   <g id="patch_2">
    <path d="M 590.76 363.6 
C 590.76 335.632623 585.46932 307.916022 575.167585 281.91509 
C 564.86585 255.914159 549.737807 232.095184 530.583012 211.717058 
C 511.428216 191.338933 488.59018 174.767109 463.275951 162.877449 
C 437.961723 150.987788 410.625275 143.993515 382.711408 142.264294 
C 354.797541 140.535072 326.806847 144.101914 300.218708 152.776302 
C 273.630568 161.450691 248.9218 175.077063 227.398324 192.935232 
C 205.874849 210.793401 187.922657 232.563106 174.490568 257.093764 
C 161.058479 281.624421 152.387376 308.476111 148.935551 336.229653 
C 145.483726 363.983195 147.31308 392.140871 154.326929 419.214476 
C 161.340777 446.288082 173.413337 471.792093 189.906542 494.378557 
C 206.399747 516.965021 227.017818 536.228884 250.671035 551.152003 
C 274.324253 566.075121 300.588434 576.389872 328.075449 581.551092 
C 355.562464 586.712313 383.779375 586.627446 411.234846 581.300977 
C 438.690317 575.974508 464.891977 565.501958 488.455 550.436829 
C 512.018023 535.3717 532.519843 515.984161 548.876887 493.298895 
C 565.23393 470.613628 577.152857 445.037459 584.003724 417.922153 
L 541.002979 407.057723 
C 535.522286 428.749967 525.987144 449.210903 512.901509 467.359116 
C 499.815875 485.507329 483.414419 501.01736 464.564 513.069463 
C 445.713581 525.121566 424.752254 533.499606 402.787877 537.760782 
C 380.8235 542.021957 358.249971 542.089851 336.260359 537.960874 
C 314.270747 533.831897 293.259403 525.580097 274.336828 513.641602 
C 255.414254 501.703107 238.919798 486.292017 225.725234 468.222845 
C 212.530669 450.153674 202.872622 429.750465 197.261543 408.091581 
C 191.650464 386.432697 190.18698 363.906556 192.948441 341.703722 
C 195.709901 319.500889 202.646783 298.019537 213.392454 278.395011 
C 224.138126 258.770485 238.499879 241.35472 255.718659 227.068186 
C 272.93744 212.781651 292.704454 201.880553 313.974966 194.941042 
C 335.245478 188.001531 357.638032 185.148058 379.969126 186.531435 
C 402.30022 187.914812 424.169378 193.510231 444.420761 203.021959 
C 464.672144 212.533687 482.942573 225.791147 498.266409 242.093647 
C 513.590246 258.396147 525.69268 277.451327 533.934068 298.252072 
C 542.175456 319.052818 546.408 341.226098 546.408 363.6 
L 590.76 363.6 
z
" style="fill: none; opacity: 0"/>
   </g>
   <g id="patch_3">
    <path d="M 584.003724 417.922153 
C 586.245026 409.051219 587.935166 400.050069 589.064451 390.970332 
C 590.193736 381.890594 590.760001 372.749663 590.76 363.599969 
L 546.408 363.599975 
C 546.408001 370.919731 545.954988 378.232476 545.051561 385.496265 
C 544.148133 392.760055 542.796021 399.960975 541.002979 407.057723 
z
" style="stroke: #ffffff; stroke-linejoin: miter"/>
   </g>
   <g id="patch_4">
    <path d="M 546.408 363.6 
C 546.408 340.302995 541.818998 317.232524 532.90362 295.708898 
C 523.988242 274.185271 510.91987 254.62707 494.4464 238.1536 
C 477.97293 221.68013 458.414729 208.611758 436.891102 199.69638 
C 415.367476 190.781002 392.297005 186.192 369 186.192 
C 345.702995 186.192 322.632524 190.781002 301.108898 199.69638 
C 279.585271 208.611758 260.02707 221.68013 243.5536 238.1536 
C 227.08013 254.62707 214.011758 274.185271 205.09638 295.708898 
C 196.181002 317.232524 191.592 340.302995 191.592 363.6 
C 191.592 386.897005 196.181002 409.967476 205.09638 431.491102 
C 214.011758 453.014729 227.08013 472.57293 243.5536 489.0464 
C 260.02707 505.51987 279.585271 518.588242 301.108898 527.50362 
C 322.632524 536.418998 345.702995 541.008 369 541.008 
C 392.297005 541.008 415.367476 536.418998 436.891102 527.50362 
C 458.414729 518.588242 477.97293 505.51987 494.4464 489.0464 
C 510.91987 472.57293 523.988242 453.014729 532.90362 431.491102 
C 541.818998 409.967476 546.408 386.897005 546.408 363.6 
M 369 363.6 
z
" style="fill: #d62728; stroke: #ffffff; stroke-linejoin: miter"/>
   </g>
   <g id="matplotlib.axis_1"/>
   <g id="matplotlib.axis_2"/>
  </g>
 </g>
</svg>
