<?xml version="1.0" encoding="utf-8" standalone="no"?>
<!DOCTYPE svg PUBLIC "-//W3C//DTD SVG 1.1//EN"
  "http://www.w3.org/Graphics/SVG/1.1/DTD/svg11.dtd">
<svg xmlns:xlink="http://www.w3.org/1999/xlink" width="720pt" height="720pt" viewBox="0 0 720 720" xmlns="http://www.w3.org/2000/svg" version="1.1">
 <metadata>
  <rdf:RDF xmlns:dc="http://purl.org/dc/elements/1.1/" xmlns:cc="http://creativecommons.org/ns#" xmlns:rdf="http://www.w3.org/1999/02/22-rdf-syntax-ns#">
   <cc:Work>
    <dc:type rdf:resource="http://purl.org/dc/dcmitype/StillImage"/>
    <dc:date>2024-02-23T18:45:31.229751</dc:date>
    <dc:format>image/svg+xml</dc:format>
    <dc:creator>
     <cc:Agent>
      <dc:title>Matplotlib v3.8.2, https://matplotlib.org/</dc:title>
     </cc:Agent>
    </dc:creator>
   </cc:Work>
  </rdf:RDF>
 </metadata>
 <defs>
  <style type="text/css">*{stroke-linejoin: round; stroke-linecap: butt}</style>
 </defs>
 <g id="figure_1">
  <g id="patch_1">
   <path d="M 0 720 
L 720 720 
L 720 0 
L 0 0 
L 0 720 
z
" style="fill: none"/>
  </g>
  <g id="axes_1">
   <g id="patch_2">
    <path d="M 590.76 363.6 
C 590.76 321.115013 578.55103 279.511727 555.592759 243.764113 
C 532.634488 208.016498 499.879834 179.608314 461.24485 161.935959 
L 442.79588 202.268768 
C 473.703868 216.406651 499.907591 239.133199 518.274207 267.73129 
C 536.640824 296.329382 546.408 329.61201 546.408 363.6 
L 590.76 363.6 
z
" style="fill: none; opacity: 0"/>
   </g>
   <g id="patch_3">
    <path d="M 461.24485 161.935959 
C 439.59777 152.034186 416.496902 145.682164 392.830519 143.124142 
C 369.164135 140.56612 345.239515 141.835309 321.976606 146.882908 
C 298.713698 151.930507 276.41454 160.690978 255.936579 172.827464 
C 235.458618 184.963951 217.067735 200.318875 201.471095 218.301811 
C 185.874455 236.284748 173.27456 256.66221 164.155902 278.650644 
C 155.037244 300.639078 149.518216 323.952993 147.811036 347.695923 
C 146.103856 371.438853 148.230689 395.302525 154.109755 418.369336 
C 159.988821 441.436147 169.543787 463.406603 182.407246 483.435896 
C 195.270706 503.465189 211.275643 521.293265 229.806636 536.2346 
C 248.337629 551.175934 269.154077 563.036532 291.455546 571.360331 
C 313.757016 579.684131 337.253951 584.363057 361.042848 585.217195 
C 384.831745 586.071334 408.603735 583.089596 431.44474 576.386635 
C 454.285744 569.683674 475.899201 559.346519 495.454031 545.772653 
C 515.008861 532.198788 532.251168 515.564453 546.517953 496.509269 
C 560.784739 477.454086 571.890765 456.225462 579.408985 433.63968 
C 586.927204 411.053898 590.760002 387.404205 590.76 363.599979 
L 546.408 363.599983 
C 546.408002 382.643364 543.341763 401.563118 537.327188 419.631744 
C 531.312612 437.70037 522.427791 454.683269 511.014363 469.927415 
C 499.600935 485.171562 485.807088 498.479031 470.163225 509.338123 
C 454.519361 520.197215 437.228595 528.466939 418.955792 533.829308 
C 400.682988 539.191677 381.665396 541.577068 362.634278 540.893756 
C 343.603161 540.210445 324.805613 536.467304 306.964437 529.808265 
C 289.123261 523.149226 272.470103 513.660747 257.645309 501.70768 
C 242.820514 489.754612 230.016565 475.492151 219.725797 459.468717 
C 209.43503 443.445282 201.791057 425.868918 197.087804 407.415469 
C 192.384551 388.96202 190.683085 369.871082 192.048829 350.876738 
C 193.414573 331.882395 197.829795 313.231263 205.124722 295.640515 
C 212.419648 278.049768 222.499564 261.747798 234.976876 247.361449 
C 247.454188 232.9751 262.166895 220.69116 278.549263 210.981971 
C 294.931632 201.272782 312.770958 194.264405 331.381285 190.226326 
C 349.991612 186.188247 369.131308 185.172896 388.064415 187.219314 
C 406.997521 189.265731 425.478216 194.347349 442.79588 202.268768 
z
" style="stroke: #ffffff; stroke-linejoin: miter"/>
   </g>
   <g id="patch_4">
    <path d="M 546.408 363.6 
C 546.408 327.869073 535.613398 292.958135 515.445319 263.463259 
C 495.27724 233.968383 466.661358 211.243324 433.364993 198.279868 
C 400.068628 185.316411 363.620016 182.709554 328.817667 190.802493 
C 294.015318 198.895431 262.45659 217.316715 238.296233 243.641158 
L 369 363.6 
z
" style="fill: #dbdb8d; stroke: #ffffff; stroke-linejoin: miter"/>
   </g>
   <g id="patch_5">
    <path d="M 238.296233 243.641158 
C 206.493372 278.292658 189.740478 324.20748 191.754769 371.197809 
C 193.769061 418.188138 214.389658 462.500906 249.041158 494.303767 
L 369 363.6 
z
" style="fill: #c7c7c7; stroke: #ffffff; stroke-linejoin: miter"/>
   </g>
   <g id="patch_6">
    <path d="M 249.041158 494.303767 
C 264.277782 508.287815 281.842973 519.500479 300.941745 527.434283 
C 320.040517 535.368087 340.380326 539.901506 361.040612 540.829362 
L 369 363.6 
z
" style="fill: #d62728; stroke: #ffffff; stroke-linejoin: miter"/>
   </g>
   <g id="patch_7">
    <path d="M 361.040612 540.829362 
C 384.98353 541.90464 408.897912 538.116975 431.336701 529.695557 
C 453.77549 521.274139 474.276781 508.392325 491.600043 491.829591 
C 508.923304 475.266857 522.711934 455.36415 532.131585 433.325781 
C 541.551235 411.287411 546.408001 387.567043 546.408 363.599992 
L 369 363.6 
z
" style="fill: #9edae5; stroke: #ffffff; stroke-linejoin: miter"/>
   </g>
   <g id="matplotlib.axis_1"/>
   <g id="matplotlib.axis_2"/>
  </g>
 </g>
</svg>
