<?xml version="1.0" encoding="utf-8" standalone="no"?>
<!DOCTYPE svg PUBLIC "-//W3C//DTD SVG 1.1//EN"
  "http://www.w3.org/Graphics/SVG/1.1/DTD/svg11.dtd">
<svg xmlns:xlink="http://www.w3.org/1999/xlink" width="720pt" height="720pt" viewBox="0 0 720 720" xmlns="http://www.w3.org/2000/svg" version="1.1">
 <metadata>
  <rdf:RDF xmlns:dc="http://purl.org/dc/elements/1.1/" xmlns:cc="http://creativecommons.org/ns#" xmlns:rdf="http://www.w3.org/1999/02/22-rdf-syntax-ns#">
   <cc:Work>
    <dc:type rdf:resource="http://purl.org/dc/dcmitype/StillImage"/>
    <dc:date>2024-02-23T18:45:31.599532</dc:date>
    <dc:format>image/svg+xml</dc:format>
    <dc:creator>
     <cc:Agent>
      <dc:title>Matplotlib v3.8.2, https://matplotlib.org/</dc:title>
     </cc:Agent>
    </dc:creator>
   </cc:Work>
  </rdf:RDF>
 </metadata>
 <defs>
  <style type="text/css">*{stroke-linejoin: round; stroke-linecap: butt}</style>
 </defs>
 <g id="figure_1">
  <g id="patch_1">
   <path d="M 0 720 
L 720 720 
L 720 0 
L 0 0 
L 0 720 
z
" style="fill: none"/>
  </g>
  <g id="axes_1">
   <g id="patch_2">
    <path d="M 590.76 363.6 
C 590.76 336.731493 585.876906 310.08531 576.349202 284.96282 
C 566.821498 259.84033 552.806859 236.657285 534.989743 216.545919 
C 517.172627 196.434553 495.847891 179.727689 472.05701 167.241271 
C 448.266128 154.754854 422.402818 146.69552 395.730213 143.45688 
C 369.057607 140.218239 342.017113 141.853888 315.929356 148.283943 
C 289.8416 154.713998 265.138307 165.832047 243.02596 181.095099 
C 220.913612 196.358151 201.758148 215.513616 186.495096 237.625964 
C 171.232045 259.738312 160.113996 284.441604 153.683942 310.529361 
C 147.253888 336.617118 145.618239 363.657613 148.856881 390.330218 
C 152.095522 417.002823 160.154855 442.866133 172.641274 466.657014 
C 185.127692 490.447895 201.834556 511.772631 221.945923 529.589746 
C 242.057289 547.406862 265.240334 561.4215 290.362825 570.949204 
C 315.485315 580.476907 342.131498 585.360001 369.000005 585.36 
C 395.868512 585.359999 422.514695 580.476904 447.637185 570.9492 
C 472.759675 561.421496 495.94272 547.406856 516.054085 529.58974 
C 536.165451 511.772623 552.872314 490.447887 565.358731 466.657005 
L 526.086985 446.045604 
C 516.097851 465.078309 502.732361 482.138099 486.643268 496.391792 
C 470.554176 510.645485 452.00774 521.857196 431.909748 529.47936 
C 411.811756 537.101524 390.49481 541.007999 369.000004 541.008 
C 347.505199 541.008001 326.188252 537.101526 306.09026 529.479363 
C 285.992267 521.8572 267.445831 510.645489 251.356738 496.391797 
C 235.267645 482.138105 221.902153 465.078316 211.913019 446.045611 
C 201.923884 427.012906 195.476417 406.322258 192.885504 384.984174 
C 190.294592 363.64609 191.60311 342.013695 196.747153 321.143489 
C 201.891197 300.273284 210.785636 280.51065 222.996077 262.820771 
C 235.206518 245.130893 250.53089 229.806521 268.220768 217.596079 
C 285.910646 205.385638 305.67328 196.491198 326.543485 191.347154 
C 347.413691 186.203111 369.046086 184.894592 390.38417 187.485504 
C 411.722254 190.076416 432.412903 196.523883 451.445608 206.513017 
C 470.478313 216.502151 487.538102 229.867642 501.791794 245.956735 
C 516.045487 262.045828 527.257198 280.592264 534.879361 300.690256 
C 542.501525 320.788248 546.408 342.105195 546.408 363.6 
L 590.76 363.6 
z
" style="fill: none; opacity: 0"/>
   </g>
   <g id="patch_3">
    <path d="M 565.358731 466.657005 
C 573.670438 450.820371 580.035831 434.036206 584.316059 416.670634 
C 588.596288 399.305061 590.760001 381.485275 590.76 363.59999 
L 546.408 363.599992 
C 546.408001 377.90822 544.67703 392.164049 541.252848 406.056507 
C 537.828665 419.948965 532.73635 433.376296 526.086985 446.045604 
z
" style="stroke: #ffffff; stroke-linejoin: miter"/>
   </g>
   <g id="patch_4">
    <path d="M 546.408 363.6 
C 546.408 340.302995 541.818998 317.232524 532.90362 295.708898 
C 523.988242 274.185271 510.91987 254.62707 494.4464 238.1536 
C 477.97293 221.68013 458.414729 208.611758 436.891102 199.69638 
C 415.367476 190.781002 392.297005 186.192 369 186.192 
C 345.702995 186.192 322.632524 190.781002 301.108898 199.69638 
C 279.585271 208.611758 260.02707 221.68013 243.5536 238.1536 
C 227.08013 254.62707 214.011758 274.185271 205.09638 295.708898 
C 196.181002 317.232524 191.592 340.302995 191.592 363.6 
C 191.592 386.897005 196.181002 409.967476 205.09638 431.491102 
C 214.011758 453.014729 227.08013 472.57293 243.5536 489.0464 
C 260.02707 505.51987 279.585271 518.588242 301.108898 527.50362 
C 322.632524 536.418998 345.702995 541.008 369 541.008 
C 392.297005 541.008 415.367476 536.418998 436.891102 527.50362 
C 458.414729 518.588242 477.97293 505.51987 494.4464 489.0464 
C 510.91987 472.57293 523.988242 453.014729 532.90362 431.491102 
C 541.818998 409.967476 546.408 386.897005 546.408 363.6 
M 369 363.6 
z
" style="fill: #9edae5; stroke: #ffffff; stroke-linejoin: miter"/>
   </g>
   <g id="matplotlib.axis_1"/>
   <g id="matplotlib.axis_2"/>
  </g>
 </g>
</svg>
