<?xml version="1.0" encoding="utf-8" standalone="no"?>
<!DOCTYPE svg PUBLIC "-//W3C//DTD SVG 1.1//EN"
  "http://www.w3.org/Graphics/SVG/1.1/DTD/svg11.dtd">
<svg xmlns:xlink="http://www.w3.org/1999/xlink" width="720pt" height="720pt" viewBox="0 0 720 720" xmlns="http://www.w3.org/2000/svg" version="1.1">
 <metadata>
  <rdf:RDF xmlns:dc="http://purl.org/dc/elements/1.1/" xmlns:cc="http://creativecommons.org/ns#" xmlns:rdf="http://www.w3.org/1999/02/22-rdf-syntax-ns#">
   <cc:Work>
    <dc:type rdf:resource="http://purl.org/dc/dcmitype/StillImage"/>
    <dc:date>2024-02-23T18:45:32.114804</dc:date>
    <dc:format>image/svg+xml</dc:format>
    <dc:creator>
     <cc:Agent>
      <dc:title>Matplotlib v3.8.2, https://matplotlib.org/</dc:title>
     </cc:Agent>
    </dc:creator>
   </cc:Work>
  </rdf:RDF>
 </metadata>
 <defs>
  <style type="text/css">*{stroke-linejoin: round; stroke-linecap: butt}</style>
 </defs>
 <g id="figure_1">
  <g id="patch_1">
   <path d="M 0 720 
L 720 720 
L 720 0 
L 0 0 
L 0 720 
z
" style="fill: none"/>
  </g>
  <g id="axes_1">
   <g id="patch_2">
    <path d="M 590.76 363.6 
C 590.76 335.733143 585.507283 308.114364 575.277506 282.193072 
C 565.04773 256.27178 550.02303 232.50949 530.991891 212.153227 
C 511.960751 191.796965 489.262011 175.209162 464.086881 163.260332 
C 438.911751 151.311502 411.708461 144.214388 383.904616 142.341441 
C 356.100771 140.468493 328.191405 143.853059 301.641177 152.31752 
C 275.090949 160.78198 250.372571 174.175629 228.783244 191.795579 
C 207.193917 209.41553 189.118027 230.948068 175.504181 255.263185 
C 161.890335 279.578302 152.98092 306.243079 149.243496 333.858172 
C 145.506071 361.473265 147.007179 389.547002 153.668044 416.606096 
C 160.328908 443.665191 172.030935 469.22787 188.160013 491.952626 
C 204.289091 514.677383 224.558049 534.159614 247.90319 549.37691 
C 271.248332 564.594206 297.254008 575.275629 324.555464 580.860629 
C 351.85692 586.445628 379.968066 586.834766 407.413656 582.00762 
C 434.859245 577.180475 461.150622 567.22299 484.908038 552.657727 
C 508.665455 538.092464 529.465921 519.17875 546.217848 496.909159 
C 562.969775 474.639569 575.374902 449.410601 582.782219 422.54625 
L 540.025775 410.757 
C 534.099921 432.248481 524.17582 452.431655 510.774278 470.247327 
C 497.372737 488.063 480.732364 503.193971 461.726431 514.846182 
C 442.720498 526.498392 421.687396 534.46438 399.730925 538.326096 
C 377.774453 542.187813 355.285536 541.876503 333.444371 537.408503 
C 311.603206 532.940503 290.798665 524.395364 272.122552 512.221528 
C 253.446439 500.047692 237.231273 484.461906 224.32801 466.282101 
C 211.424748 448.102296 202.063127 427.652153 196.734435 406.004877 
C 191.405743 384.357601 190.204857 361.898612 193.194796 339.806538 
C 196.184736 317.714463 203.312268 296.382641 214.203345 276.930548 
C 225.094421 257.478454 239.555134 240.252424 256.826595 226.156463 
C 274.098057 212.060503 293.872759 201.345584 315.112942 194.574016 
C 336.353124 187.802448 358.680617 185.094795 380.923693 186.593153 
C 403.166769 188.091511 424.929401 193.769202 445.069505 203.328265 
C 465.209609 212.887329 483.368601 226.157572 498.593513 242.442582 
C 513.818424 258.727592 525.838184 277.737424 534.022005 298.474457 
C 542.205826 319.211491 546.408 341.306514 546.408 363.6 
L 590.76 363.6 
z
" style="fill: none; opacity: 0"/>
   </g>
   <g id="patch_3">
    <path d="M 582.782219 422.54625 
C 585.426416 412.956456 587.422355 403.199602 588.756506 393.341815 
C 590.090658 383.484029 590.760001 373.547633 590.76 363.599974 
L 546.408 363.599979 
C 546.408001 371.558106 545.872526 379.507223 544.805205 387.393452 
C 543.737884 395.279681 542.141133 403.085165 540.025775 410.757 
z
" style="stroke: #ffffff; stroke-linejoin: miter"/>
   </g>
   <g id="patch_4">
    <path d="M 546.408 363.6 
C 546.408 322.213399 531.925699 282.103583 505.486 250.263465 
C 479.046302 218.423347 442.280548 196.817476 401.598633 189.212708 
C 360.916717 181.60794 318.828731 188.473494 282.67247 208.6124 
C 246.516209 228.751306 218.522529 260.920986 203.571965 299.512842 
L 369 363.6 
z
" style="fill: #98df8a; stroke: #ffffff; stroke-linejoin: miter"/>
   </g>
   <g id="patch_5">
    <path d="M 203.571965 299.512842 
C 190.646123 332.878289 188.112061 369.386392 196.304303 404.217665 
C 204.496545 439.048938 223.038009 470.600122 249.481009 494.706099 
C 275.924009 518.812077 309.051393 534.363267 344.489967 539.306735 
C 379.928541 544.250203 416.047093 538.358404 448.077561 522.409124 
L 369 363.6 
z
" style="fill: #d62728; stroke: #ffffff; stroke-linejoin: miter"/>
   </g>
   <g id="patch_6">
    <path d="M 448.077561 522.409124 
C 462.774942 515.090697 476.385475 505.767263 488.519009 494.706082 
C 500.652544 483.644902 511.192025 470.952685 519.835333 456.993258 
L 369 363.6 
z
" style="fill: #dbdb8d; stroke: #ffffff; stroke-linejoin: miter"/>
   </g>
   <g id="patch_7">
    <path d="M 519.835333 456.993258 
C 528.478642 443.033831 535.142394 427.941865 539.635571 412.149977 
C 544.128748 396.358088 546.408003 380.018626 546.408 363.599967 
L 369 363.6 
z
" style="fill: #9edae5; stroke: #ffffff; stroke-linejoin: miter"/>
   </g>
   <g id="matplotlib.axis_1"/>
   <g id="matplotlib.axis_2"/>
  </g>
 </g>
</svg>
