<?xml version="1.0" encoding="utf-8" standalone="no"?>
<!DOCTYPE svg PUBLIC "-//W3C//DTD SVG 1.1//EN"
  "http://www.w3.org/Graphics/SVG/1.1/DTD/svg11.dtd">
<svg xmlns:xlink="http://www.w3.org/1999/xlink" width="720pt" height="720pt" viewBox="0 0 720 720" xmlns="http://www.w3.org/2000/svg" version="1.1">
 <metadata>
  <rdf:RDF xmlns:dc="http://purl.org/dc/elements/1.1/" xmlns:cc="http://creativecommons.org/ns#" xmlns:rdf="http://www.w3.org/1999/02/22-rdf-syntax-ns#">
   <cc:Work>
    <dc:type rdf:resource="http://purl.org/dc/dcmitype/StillImage"/>
    <dc:date>2024-02-23T18:45:32.777001</dc:date>
    <dc:format>image/svg+xml</dc:format>
    <dc:creator>
     <cc:Agent>
      <dc:title>Matplotlib v3.8.2, https://matplotlib.org/</dc:title>
     </cc:Agent>
    </dc:creator>
   </cc:Work>
  </rdf:RDF>
 </metadata>
 <defs>
  <style type="text/css">*{stroke-linejoin: round; stroke-linecap: butt}</style>
 </defs>
 <g id="figure_1">
  <g id="patch_1">
   <path d="M 0 720 
L 720 720 
L 720 0 
L 0 0 
L 0 720 
z
" style="fill: none"/>
  </g>
  <g id="axes_1">
   <g id="patch_2">
    <path d="M 590.76 363.6 
C 590.76 335.196875 585.303171 307.056449 574.686835 280.711982 
C 564.070498 254.367515 548.491035 230.306326 528.797306 209.839411 
C 509.103577 189.372497 485.659877 172.878454 459.743559 161.255976 
C 433.827241 149.633498 405.917703 143.097578 377.535625 142.004331 
C 349.153547 140.911084 320.823939 145.280733 294.090368 154.875194 
C 267.356796 164.469655 242.713777 179.11145 221.50401 198.002806 
C 200.294244 216.894162 182.910066 239.685628 170.298672 265.135388 
C 157.687278 290.585148 150.081952 318.222433 147.897079 346.5414 
C 145.712205 374.860366 148.988199 403.337171 157.546566 430.420226 
C 166.104932 457.503282 179.787358 482.691608 197.848343 504.612793 
C 215.909328 526.533978 238.014781 544.782525 262.960264 558.364145 
C 287.905748 571.945764 315.229822 580.609223 343.443706 583.882486 
C 371.657591 587.155748 400.239388 584.978264 427.631789 577.468677 
C 455.02419 569.95909 480.720492 557.256311 503.320607 540.052464 
C 525.920722 522.848617 545.006594 501.461939 559.53831 477.057702 
C 574.070026 452.653465 583.778779 425.683099 588.135579 397.616111 
L 544.308463 390.812889 
C 540.823023 413.266479 533.056021 434.842772 521.430648 454.366162 
C 509.805275 473.889551 494.536578 490.998894 476.456486 504.761971 
C 458.376394 518.525049 437.819352 528.687272 415.905431 534.694941 
C 393.99151 540.702611 371.126073 542.444598 348.554965 539.825988 
C 325.983857 537.207379 304.124598 530.276611 284.168211 519.411316 
C 264.211825 508.54602 246.527462 493.947182 232.078674 476.410234 
C 217.629886 458.873286 206.683945 438.722626 199.837252 417.056181 
C 192.99056 395.389737 190.369764 372.608293 192.117663 349.95312 
C 193.865562 327.297946 199.949822 305.188118 210.038938 284.82831 
C 220.128053 264.468502 234.035395 246.23533 251.003208 231.122245 
C 267.971022 216.00916 287.685437 204.295724 309.072294 196.620155 
C 330.459151 188.944586 353.122838 185.448867 375.8285 186.323464 
C 398.534163 187.198062 420.861793 192.426798 441.594847 201.724781 
C 462.327902 211.022763 481.082862 224.217997 496.837845 240.591529 
C 512.592828 256.96506 525.056399 276.214012 533.549468 297.289586 
C 542.042537 318.365159 546.408 340.8775 546.408 363.6 
L 590.76 363.6 
z
" style="fill: none; opacity: 0"/>
   </g>
   <g id="patch_3">
    <path d="M 588.135579 397.616111 
C 589.008765 391.990949 589.665032 386.334251 590.102922 380.658589 
C 590.540812 374.982926 590.760001 369.292506 590.76 363.599977 
L 546.408 363.599981 
C 546.408 368.154005 546.23265 372.706341 545.882338 377.246871 
C 545.532026 381.787401 545.007012 386.31276 544.308463 390.812889 
z
" style="stroke: #ffffff; stroke-linejoin: miter"/>
   </g>
   <g id="patch_4">
    <path d="M 546.408 363.6 
C 546.408 326.140933 534.543977 289.627222 512.526091 259.322199 
C 490.508205 229.017176 459.447789 206.450461 423.8221 194.87497 
C 388.19641 183.299479 349.803623 183.299475 314.177932 194.874959 
C 278.552241 206.450444 247.491821 229.017154 225.473929 259.322172 
L 369 363.6 
z
" style="fill: #dbdb8d; stroke: #ffffff; stroke-linejoin: miter"/>
   </g>
   <g id="patch_5">
    <path d="M 225.473929 259.322172 
C 203.456037 289.627191 191.592007 326.140899 191.592 363.599967 
C 191.591993 401.059034 203.456009 437.572747 225.47389 467.877774 
L 369 363.6 
z
" style="fill: #d62728; stroke: #ffffff; stroke-linejoin: miter"/>
   </g>
   <g id="patch_6">
    <path d="M 225.47389 467.877774 
C 247.49177 498.182801 278.552182 520.749522 314.177869 532.32502 
C 349.803556 543.900518 388.196343 543.900529 423.822036 532.325051 
C 459.44773 520.749573 490.508154 498.182869 512.526052 467.877854 
C 534.543949 437.57284 546.407986 401.059134 546.408 363.600066 
L 369 363.6 
z
" style="fill: #9edae5; stroke: #ffffff; stroke-linejoin: miter"/>
   </g>
   <g id="matplotlib.axis_1"/>
   <g id="matplotlib.axis_2"/>
  </g>
 </g>
</svg>
