<?xml version="1.0" encoding="utf-8" standalone="no"?>
<!DOCTYPE svg PUBLIC "-//W3C//DTD SVG 1.1//EN"
  "http://www.w3.org/Graphics/SVG/1.1/DTD/svg11.dtd">
<svg xmlns:xlink="http://www.w3.org/1999/xlink" width="720pt" height="720pt" viewBox="0 0 720 720" xmlns="http://www.w3.org/2000/svg" version="1.1">
 <metadata>
  <rdf:RDF xmlns:dc="http://purl.org/dc/elements/1.1/" xmlns:cc="http://creativecommons.org/ns#" xmlns:rdf="http://www.w3.org/1999/02/22-rdf-syntax-ns#">
   <cc:Work>
    <dc:type rdf:resource="http://purl.org/dc/dcmitype/StillImage"/>
    <dc:date>2024-02-23T18:45:31.497606</dc:date>
    <dc:format>image/svg+xml</dc:format>
    <dc:creator>
     <cc:Agent>
      <dc:title>Matplotlib v3.8.2, https://matplotlib.org/</dc:title>
     </cc:Agent>
    </dc:creator>
   </cc:Work>
  </rdf:RDF>
 </metadata>
 <defs>
  <style type="text/css">*{stroke-linejoin: round; stroke-linecap: butt}</style>
 </defs>
 <g id="figure_1">
  <g id="patch_1">
   <path d="M 0 720 
L 720 720 
L 720 0 
L 0 0 
L 0 720 
z
" style="fill: none"/>
  </g>
  <g id="axes_1">
   <g id="patch_2">
    <path d="M 590.76 363.6 
C 590.76 321.248179 578.627446 279.769767 555.804108 244.093838 
C 532.980769 208.417908 500.408003 180.015929 461.956583 162.263041 
C 423.505164 144.510152 380.761034 138.138579 338.803681 143.905485 
C 296.846327 149.672391 257.406296 167.339918 225.170433 194.808551 
C 192.934569 222.277184 169.232452 258.413969 156.880717 298.924602 
C 144.528981 339.435234 144.037078 382.648838 155.463464 423.430138 
C 166.88985 464.211438 189.763238 500.878394 221.365477 529.073699 
C 252.967715 557.269004 291.995358 575.829733 333.810567 582.550226 
L 340.848453 538.760181 
C 307.396286 533.383786 276.174172 518.535203 250.892381 495.978959 
C 225.61059 473.422715 207.31188 444.08915 198.170771 411.46411 
C 189.029663 378.839071 189.423185 344.268187 199.304573 311.859681 
C 209.185962 279.451175 228.147655 250.541747 253.936346 228.566841 
C 279.725037 206.591935 311.277062 192.457913 344.842945 187.844388 
C 378.408827 183.230863 412.604131 188.328122 443.365267 202.530432 
C 474.126402 216.732743 500.184616 239.454327 518.443286 267.99507 
C 536.701957 296.535813 546.408 329.718543 546.408 363.6 
L 590.76 363.6 
z
" style="fill: none; opacity: 0"/>
   </g>
   <g id="patch_3">
    <path d="M 333.810567 582.550226 
C 365.5012 587.643509 397.923077 585.796289 428.830138 577.136536 
C 459.737199 568.476783 488.398865 553.209194 512.829567 532.391449 
C 537.26027 511.573704 556.882518 485.69789 570.336959 456.556583 
C 583.791401 427.415277 590.76 395.697317 590.76 363.6 
L 546.408 363.6 
C 546.408 389.277853 540.83312 414.652221 530.069568 437.965267 
C 519.306015 461.278312 503.608216 481.978963 484.063654 498.633159 
C 464.519092 515.287355 441.589759 527.501426 416.86411 534.429229 
C 392.138462 541.357031 366.20096 542.834807 340.848453 538.760181 
z
" style="stroke: #ffffff; stroke-linejoin: miter"/>
   </g>
   <g id="patch_4">
    <path d="M 546.408 363.6 
C 546.408 343.999635 543.159773 324.534079 536.795545 305.995716 
C 530.431317 287.457353 521.038632 270.101192 508.999839 254.63375 
C 496.961046 239.166309 482.441746 225.800352 466.032978 215.079969 
C 449.624209 204.359586 431.551686 196.432242 412.551088 191.620637 
C 393.550489 186.809032 373.883181 185.179353 354.349761 186.797938 
C 334.816342 188.416524 315.685507 193.26111 297.736016 201.134487 
C 279.786525 209.007864 263.265285 219.801729 248.844829 233.076695 
C 234.424372 246.351661 222.303061 261.925122 212.974319 279.163128 
C 203.645577 296.401134 197.237727 315.066566 194.011613 334.399607 
C 190.7855 353.732648 190.7855 373.46736 194.011615 392.800401 
C 197.237729 412.133442 203.64558 430.798873 212.974323 448.036879 
C 222.303066 465.274885 234.424378 480.848346 248.844835 494.123311 
C 263.265292 507.398276 279.786532 518.19214 297.736023 526.065517 
C 315.685515 533.938893 334.81635 538.783478 354.34977 540.402062 
C 373.883189 542.020647 393.550497 540.390967 412.551096 535.579361 
C 431.551694 530.767755 449.624217 522.840411 466.032985 512.120027 
L 369 363.6 
z
" style="fill: #2ca02c; stroke: #ffffff; stroke-linejoin: miter"/>
   </g>
   <g id="patch_5">
    <path d="M 466.032985 512.120027 
C 482.441752 501.399643 496.961052 488.033685 508.999844 472.566243 
C 521.038637 457.098801 530.431321 439.742639 536.795548 421.204276 
L 369 363.6 
z
" style="fill: #1f77b4; stroke: #ffffff; stroke-linejoin: miter"/>
   </g>
   <g id="patch_6">
    <path d="M 536.795548 421.204276 
C 539.972253 411.950849 542.378073 402.45048 543.988387 392.800389 
C 545.598702 383.150298 546.408 373.383517 546.408 363.599992 
L 369 363.6 
z
" style="fill: #9edae5; stroke: #ffffff; stroke-linejoin: miter"/>
   </g>
   <g id="matplotlib.axis_1"/>
   <g id="matplotlib.axis_2"/>
  </g>
 </g>
</svg>
