<?xml version="1.0" encoding="utf-8" standalone="no"?>
<!DOCTYPE svg PUBLIC "-//W3C//DTD SVG 1.1//EN"
  "http://www.w3.org/Graphics/SVG/1.1/DTD/svg11.dtd">
<svg xmlns:xlink="http://www.w3.org/1999/xlink" width="720pt" height="720pt" viewBox="0 0 720 720" xmlns="http://www.w3.org/2000/svg" version="1.1">
 <metadata>
  <rdf:RDF xmlns:dc="http://purl.org/dc/elements/1.1/" xmlns:cc="http://creativecommons.org/ns#" xmlns:rdf="http://www.w3.org/1999/02/22-rdf-syntax-ns#">
   <cc:Work>
    <dc:type rdf:resource="http://purl.org/dc/dcmitype/StillImage"/>
    <dc:date>2024-02-23T18:45:31.646124</dc:date>
    <dc:format>image/svg+xml</dc:format>
    <dc:creator>
     <cc:Agent>
      <dc:title>Matplotlib v3.8.2, https://matplotlib.org/</dc:title>
     </cc:Agent>
    </dc:creator>
   </cc:Work>
  </rdf:RDF>
 </metadata>
 <defs>
  <style type="text/css">*{stroke-linejoin: round; stroke-linecap: butt}</style>
 </defs>
 <g id="figure_1">
  <g id="patch_1">
   <path d="M 0 720 
L 720 720 
L 720 0 
L 0 0 
L 0 720 
z
" style="fill: none"/>
  </g>
  <g id="axes_1">
   <g id="patch_2">
    <path d="M 590.76 363.6 
C 590.76 338.13791 586.374732 312.864986 577.796812 288.891306 
C 569.218892 264.917626 556.575777 242.599407 540.422798 222.916945 
C 524.269819 203.234483 504.846988 186.480234 483.007425 173.390103 
C 461.167861 160.299973 437.236073 151.068464 412.26323 146.101056 
C 387.290386 141.133649 361.647552 140.504153 336.46105 144.240217 
C 311.274548 147.976282 286.918619 156.022394 264.46306 168.02514 
C 242.007501 180.027887 221.785973 195.808922 204.686678 214.675086 
C 187.587384 233.541251 173.864395 255.212218 164.120475 278.736122 
C 154.376555 302.260026 148.756485 327.287332 147.50712 352.718753 
C 146.257754 378.150173 149.397656 403.607829 156.788911 427.97353 
C 164.180166 452.339231 175.712948 475.250935 190.880698 495.702278 
C 206.048447 516.153621 224.625791 533.840722 245.796745 547.986701 
C 266.9677 562.132681 290.417692 572.527347 315.116715 578.714131 
C 339.815739 584.900914 365.396798 586.787886 390.736281 584.292165 
C 416.075765 581.796444 440.79716 574.955112 463.814618 564.068666 
C 486.832075 553.182219 507.803583 538.412417 525.808 520.408 
L 494.4464 489.0464 
C 480.042866 503.449933 463.26566 515.265775 444.851694 523.974933 
C 426.437728 532.68409 406.660612 538.157155 386.389025 540.153732 
C 366.117438 542.150309 345.652591 540.640731 325.893372 535.691305 
C 306.134153 530.741878 287.37416 522.426145 270.437396 511.109361 
C 253.500633 499.792577 238.638758 485.642896 226.504558 469.281822 
C 214.370359 452.920748 205.144133 434.591385 199.231129 415.098824 
C 193.318125 395.606263 190.806203 375.240138 191.805696 354.895002 
C 192.805188 334.549866 197.301244 314.528021 205.09638 295.708898 
C 212.891516 276.889774 223.869907 259.553001 237.549343 244.460069 
C 251.228779 229.367137 267.406001 216.742309 285.370448 207.140112 
C 303.334895 197.537915 322.819639 191.101025 342.96884 188.112174 
C 363.118041 185.123322 383.632309 185.626919 403.610584 189.600845 
C 423.588859 193.574771 442.734289 200.959978 460.20594 211.432083 
C 477.67759 221.904187 493.215855 235.307587 506.138239 251.053556 
C 519.060622 266.799526 529.175114 284.654101 536.03745 303.833045 
C 542.899785 323.011989 546.408 343.230328 546.408 363.6 
L 590.76 363.6 
z
" style="fill: none; opacity: 0"/>
   </g>
   <g id="patch_3">
    <path d="M 525.808 520.408 
C 546.399838 499.816162 562.735303 475.368411 573.879525 448.463878 
C 585.023747 421.559345 590.76 392.721256 590.76 363.6 
L 546.408 363.6 
C 546.408 386.897005 541.818998 409.967476 532.90362 431.491102 
C 523.988242 453.014729 510.91987 472.57293 494.4464 489.0464 
z
" style="stroke: #ffffff; stroke-linejoin: miter"/>
   </g>
   <g id="patch_4">
    <path d="M 546.408 363.6 
C 546.408 340.302995 541.818998 317.232524 532.90362 295.708898 
C 523.988242 274.185271 510.91987 254.62707 494.4464 238.1536 
C 477.97293 221.68013 458.414729 208.611758 436.891102 199.69638 
C 415.367476 190.781002 392.297005 186.192 369 186.192 
C 345.702995 186.192 322.632524 190.781002 301.108898 199.69638 
C 279.585271 208.611758 260.02707 221.68013 243.5536 238.1536 
C 227.08013 254.62707 214.011758 274.185271 205.09638 295.708898 
C 196.181002 317.232524 191.592 340.302995 191.592 363.6 
C 191.592 386.897005 196.181002 409.967476 205.09638 431.491102 
C 214.011758 453.014729 227.08013 472.57293 243.5536 489.0464 
C 260.02707 505.51987 279.585271 518.588242 301.108898 527.50362 
C 322.632524 536.418998 345.702995 541.008 369 541.008 
C 392.297005 541.008 415.367476 536.418998 436.891102 527.50362 
C 458.414729 518.588242 477.97293 505.51987 494.4464 489.0464 
C 510.91987 472.57293 523.988242 453.014729 532.90362 431.491102 
C 541.818998 409.967476 546.408 386.897005 546.408 363.6 
M 369 363.6 
z
" style="fill: #f7b6d2; stroke: #ffffff; stroke-linejoin: miter"/>
   </g>
   <g id="matplotlib.axis_1"/>
   <g id="matplotlib.axis_2"/>
  </g>
 </g>
</svg>
