<?xml version="1.0" encoding="utf-8" standalone="no"?>
<!DOCTYPE svg PUBLIC "-//W3C//DTD SVG 1.1//EN"
  "http://www.w3.org/Graphics/SVG/1.1/DTD/svg11.dtd">
<svg xmlns:xlink="http://www.w3.org/1999/xlink" width="720pt" height="720pt" viewBox="0 0 720 720" xmlns="http://www.w3.org/2000/svg" version="1.1">
 <metadata>
  <rdf:RDF xmlns:dc="http://purl.org/dc/elements/1.1/" xmlns:cc="http://creativecommons.org/ns#" xmlns:rdf="http://www.w3.org/1999/02/22-rdf-syntax-ns#">
   <cc:Work>
    <dc:type rdf:resource="http://purl.org/dc/dcmitype/StillImage"/>
    <dc:date>2024-02-23T18:45:32.829292</dc:date>
    <dc:format>image/svg+xml</dc:format>
    <dc:creator>
     <cc:Agent>
      <dc:title>Matplotlib v3.8.2, https://matplotlib.org/</dc:title>
     </cc:Agent>
    </dc:creator>
   </cc:Work>
  </rdf:RDF>
 </metadata>
 <defs>
  <style type="text/css">*{stroke-linejoin: round; stroke-linecap: butt}</style>
 </defs>
 <g id="figure_1">
  <g id="patch_1">
   <path d="M 0 720 
L 720 720 
L 720 0 
L 0 0 
L 0 720 
z
" style="fill: none"/>
  </g>
  <g id="axes_1">
   <g id="patch_2">
    <path d="M 590.76 363.6 
C 590.76 336.209132 585.685192 309.053827 575.79301 283.511619 
C 565.900827 257.969411 551.361419 234.479629 532.912338 214.233862 
C 514.463257 193.988095 492.42183 177.334574 467.906175 165.118096 
C 443.39052 152.901619 416.822309 145.332311 389.549293 142.794148 
C 362.276278 140.255985 334.767557 142.792624 308.418592 150.275387 
C 282.069628 157.758149 257.333626 170.05833 235.465393 186.551966 
C 213.597159 203.045603 194.972832 223.449002 180.537185 246.727141 
C 166.101538 270.00528 156.102867 295.757772 151.048383 322.678245 
C 145.993898 349.598717 145.97054 377.224135 150.979491 404.153117 
C 155.988443 431.082099 165.94355 456.851462 180.33981 480.153981 
C 194.736071 503.456499 213.325867 523.891364 235.166176 540.421959 
C 257.006485 556.952553 281.721651 569.294548 308.057924 576.821859 
C 334.394197 584.349169 361.898588 586.932325 389.175857 584.440287 
C 416.453127 581.948249 443.0341 574.423882 467.570379 562.248881 
C 492.106659 550.07388 514.176216 533.457656 532.659509 513.243118 
C 551.142801 493.028579 565.721913 469.563419 575.657276 444.037976 
L 534.325821 427.950381 
C 526.37753 448.370735 514.714241 467.142864 499.927607 483.314494 
C 485.140973 499.486125 467.485327 512.779104 447.856304 522.519105 
C 428.22728 532.259106 406.962501 538.2786 385.140686 540.27223 
C 363.318871 542.26586 341.315357 540.199335 320.246339 534.177487 
C 299.177321 528.155638 279.405188 518.282043 261.932941 505.057567 
C 244.460693 491.833091 229.588857 475.485199 218.071848 456.843184 
C 206.55484 438.20117 198.590754 417.585679 194.583593 396.042494 
C 190.576432 374.499308 190.595119 352.398974 194.638706 330.862596 
C 198.682293 309.326217 206.681231 288.724224 218.229748 270.101713 
C 229.778266 251.479202 244.677728 235.156482 262.172314 221.961573 
C 279.666901 208.766664 299.455702 198.926519 320.534874 192.940309 
C 341.614046 186.9541 363.621022 184.924788 385.439435 186.955319 
C 407.257847 188.985849 428.512416 195.041295 448.12494 204.814477 
C 467.737464 214.587659 485.370605 227.910476 500.12987 244.10709 
C 514.889135 260.303703 526.520662 279.095529 534.434408 299.529295 
C 542.348153 319.963062 546.408 341.687305 546.408 363.6 
L 590.76 363.6 
z
" style="fill: none; opacity: 0"/>
   </g>
   <g id="patch_3">
    <path d="M 575.657276 444.037976 
C 580.637157 431.243912 584.418183 418.014992 586.951628 404.521699 
C 589.485073 391.028406 590.760007 377.328953 590.76 363.599886 
L 546.408 363.599909 
C 546.408006 374.583163 545.388058 385.542725 543.361302 396.337359 
C 541.334546 407.131994 538.309725 417.715129 534.325821 427.950381 
z
" style="stroke: #ffffff; stroke-linejoin: miter"/>
   </g>
   <g id="patch_4">
    <path d="M 546.408 363.6 
C 546.408 334.426758 539.212061 305.698958 525.459892 279.970455 
C 511.707722 254.241952 491.81928 232.298435 467.562618 216.090648 
C 443.305955 199.882861 415.421814 189.905752 386.38905 187.04627 
C 357.356285 184.186789 328.061492 188.532256 301.108928 199.696367 
C 274.156365 210.860478 250.369102 228.502307 231.861788 251.053524 
C 213.354474 273.604741 200.69228 300.376683 195.000855 328.989367 
C 189.309429 357.602052 190.762576 387.181714 199.231112 415.098768 
C 207.699648 443.015823 222.924964 468.417748 243.553553 489.046353 
L 369 363.6 
z
" style="fill: #8c564b; stroke: #ffffff; stroke-linejoin: miter"/>
   </g>
   <g id="patch_5">
    <path d="M 243.553553 489.046353 
C 260.027016 505.519828 279.585211 518.588207 301.108832 527.503593 
C 322.632454 536.418979 345.702922 541.00799 368.999925 541.008 
L 369 363.6 
z
" style="fill: #dbdb8d; stroke: #ffffff; stroke-linejoin: miter"/>
   </g>
   <g id="patch_6">
    <path d="M 368.999925 541.008 
C 392.296929 541.00801 415.367401 536.419018 436.891029 527.50365 
C 458.414658 518.588283 477.972864 505.51992 494.446341 489.046459 
L 369 363.6 
z
" style="fill: #c7c7c7; stroke: #ffffff; stroke-linejoin: miter"/>
   </g>
   <g id="patch_7">
    <path d="M 494.446341 489.046459 
C 510.919818 472.572997 523.988199 453.014803 532.903587 431.491183 
C 541.818975 409.967562 546.407988 386.897095 546.408 363.600091 
L 369 363.6 
z
" style="fill: #9edae5; stroke: #ffffff; stroke-linejoin: miter"/>
   </g>
   <g id="matplotlib.axis_1"/>
   <g id="matplotlib.axis_2"/>
  </g>
 </g>
</svg>
