<?xml version="1.0" encoding="utf-8" standalone="no"?>
<!DOCTYPE svg PUBLIC "-//W3C//DTD SVG 1.1//EN"
  "http://www.w3.org/Graphics/SVG/1.1/DTD/svg11.dtd">
<svg xmlns:xlink="http://www.w3.org/1999/xlink" width="720pt" height="720pt" viewBox="0 0 720 720" xmlns="http://www.w3.org/2000/svg" version="1.1">
 <metadata>
  <rdf:RDF xmlns:dc="http://purl.org/dc/elements/1.1/" xmlns:cc="http://creativecommons.org/ns#" xmlns:rdf="http://www.w3.org/1999/02/22-rdf-syntax-ns#">
   <cc:Work>
    <dc:type rdf:resource="http://purl.org/dc/dcmitype/StillImage"/>
    <dc:date>2024-02-23T18:45:32.335944</dc:date>
    <dc:format>image/svg+xml</dc:format>
    <dc:creator>
     <cc:Agent>
      <dc:title>Matplotlib v3.8.2, https://matplotlib.org/</dc:title>
     </cc:Agent>
    </dc:creator>
   </cc:Work>
  </rdf:RDF>
 </metadata>
 <defs>
  <style type="text/css">*{stroke-linejoin: round; stroke-linecap: butt}</style>
 </defs>
 <g id="figure_1">
  <g id="patch_1">
   <path d="M 0 720 
L 720 720 
L 720 0 
L 0 0 
L 0 720 
z
" style="fill: none"/>
  </g>
  <g id="axes_1">
   <g id="patch_2">
    <path d="M 590.76 363.6 
C 590.76 335.989237 585.603383 308.619765 575.555888 282.902027 
C 565.508392 257.184289 550.745629 233.56778 532.028373 213.26954 
C 513.311117 192.9713 490.96651 176.346102 466.146045 164.2507 
C 441.32558 152.155297 414.463071 144.801095 386.942835 142.567079 
C 359.422599 140.333063 331.725636 143.25828 305.279264 151.191984 
C 278.832893 159.125687 254.099344 171.929212 232.353222 188.942748 
C 210.6071 205.956284 192.228485 226.882468 178.16449 250.642903 
C 164.100495 274.403338 154.59693 300.582737 150.143547 327.831987 
C 145.690165 355.081236 146.364801 382.924073 152.132688 409.92566 
C 157.900576 436.927247 168.660905 462.615649 183.859157 485.667055 
C 199.05741 508.718462 218.427951 528.729979 240.97255 544.670345 
C 263.51715 560.610711 288.841772 572.201319 315.641352 578.844866 
C 342.440932 585.488413 370.247067 587.068782 397.62681 583.504532 
C 425.006554 579.940282 451.481361 571.293709 475.686896 558.0104 
C 499.892431 544.727091 521.405628 527.039213 539.117838 505.858282 
C 556.830048 484.677351 570.431696 460.373568 579.221844 434.199391 
L 537.177475 420.079513 
C 530.145357 441.018855 519.264039 460.461881 505.094271 477.406625 
C 490.924503 494.35137 473.713945 508.501673 454.349517 519.12832 
C 434.985089 529.754967 413.805243 536.672226 391.901448 539.523626 
C 369.997654 542.375026 347.752746 541.11073 326.313082 535.795893 
C 304.873417 530.481055 284.61372 521.208569 266.57804 508.456276 
C 248.542361 495.703983 233.045928 479.694769 220.887326 461.253644 
C 208.728724 442.812519 200.120461 422.261797 195.506151 400.660528 
C 190.89184 379.059258 190.352132 356.784989 193.914838 334.985589 
C 197.477544 313.18619 205.080396 292.24267 216.331592 273.234323 
C 227.582788 254.225975 242.28568 237.485027 259.682578 223.874198 
C 277.079475 210.263369 296.866314 200.02055 318.023411 193.673587 
C 339.180509 187.326624 361.338079 184.98645 383.354268 186.773663 
C 405.370457 188.560876 426.860464 194.444238 446.716836 204.12056 
C 466.573208 213.796882 484.448894 227.09704 499.422698 243.335632 
C 514.396503 259.574224 526.206714 278.467431 534.24471 299.041622 
C 542.282707 319.615812 546.408 341.51139 546.408 363.6 
L 590.76 363.6 
z
" style="fill: none; opacity: 0"/>
   </g>
   <g id="patch_3">
    <path d="M 579.221844 434.199391 
C 583.036276 422.841263 585.923935 411.192657 587.856453 399.368008 
C 589.788972 387.543359 590.760001 375.581515 590.76 363.59999 
L 546.408 363.599992 
C 546.408 373.185212 545.631178 382.754687 544.085163 392.214407 
C 542.539148 401.674126 540.22902 410.993011 537.177475 420.079513 
z
" style="stroke: #ffffff; stroke-linejoin: miter"/>
   </g>
   <g id="patch_4">
    <path d="M 546.408 363.6 
C 546.408 333.89095 538.945307 304.652406 524.707275 278.577397 
C 510.469243 252.502388 489.906852 230.41682 464.914009 214.354895 
C 439.921166 198.292969 411.289501 188.763436 381.656146 186.644016 
C 352.022792 184.524595 322.326362 189.88242 295.302059 202.224004 
C 268.277756 214.565589 244.781555 233.500023 226.977584 257.283342 
C 209.173613 281.066661 197.625799 308.945546 193.397759 338.3522 
C 189.169719 367.758855 192.395372 397.761844 202.777619 425.597731 
C 213.159867 453.433618 230.369857 478.220721 252.822458 497.676013 
L 369 363.6 
z
" style="fill: #98df8a; stroke: #ffffff; stroke-linejoin: miter"/>
   </g>
   <g id="patch_5">
    <path d="M 252.822458 497.676013 
C 269.892381 512.467187 289.631024 523.863299 310.975517 531.250702 
C 332.320011 538.638104 354.880241 541.881777 377.441404 540.807057 
L 369 363.6 
z
" style="fill: #d62728; stroke: #ffffff; stroke-linejoin: miter"/>
   </g>
   <g id="patch_6">
    <path d="M 377.441404 540.807057 
C 388.696607 540.270906 399.875175 538.663671 410.825514 536.007148 
C 421.775854 533.350625 432.448239 529.656877 442.697941 524.975996 
L 369 363.6 
z
" style="fill: #dbdb8d; stroke: #ffffff; stroke-linejoin: miter"/>
   </g>
   <g id="patch_7">
    <path d="M 442.697941 524.975996 
C 473.631158 510.84927 499.859912 488.121927 518.245105 459.514009 
C 536.630298 430.906091 546.408 397.606298 546.408 363.6 
L 369 363.6 
z
" style="fill: #9edae5; stroke: #ffffff; stroke-linejoin: miter"/>
   </g>
   <g id="matplotlib.axis_1"/>
   <g id="matplotlib.axis_2"/>
  </g>
 </g>
</svg>
