<?xml version="1.0" encoding="utf-8" standalone="no"?>
<!DOCTYPE svg PUBLIC "-//W3C//DTD SVG 1.1//EN"
  "http://www.w3.org/Graphics/SVG/1.1/DTD/svg11.dtd">
<svg xmlns:xlink="http://www.w3.org/1999/xlink" width="720pt" height="720pt" viewBox="0 0 720 720" xmlns="http://www.w3.org/2000/svg" version="1.1">
 <metadata>
  <rdf:RDF xmlns:dc="http://purl.org/dc/elements/1.1/" xmlns:cc="http://creativecommons.org/ns#" xmlns:rdf="http://www.w3.org/1999/02/22-rdf-syntax-ns#">
   <cc:Work>
    <dc:type rdf:resource="http://purl.org/dc/dcmitype/StillImage"/>
    <dc:date>2024-02-23T18:45:32.907684</dc:date>
    <dc:format>image/svg+xml</dc:format>
    <dc:creator>
     <cc:Agent>
      <dc:title>Matplotlib v3.8.2, https://matplotlib.org/</dc:title>
     </cc:Agent>
    </dc:creator>
   </cc:Work>
  </rdf:RDF>
 </metadata>
 <defs>
  <style type="text/css">*{stroke-linejoin: round; stroke-linecap: butt}</style>
 </defs>
 <g id="figure_1">
  <g id="patch_1">
   <path d="M 0 720 
L 720 720 
L 720 0 
L 0 0 
L 0 720 
z
" style="fill: none"/>
  </g>
  <g id="axes_1">
   <g id="patch_2">
    <path d="M 590.76 363.6 
C 590.76 335.773216 585.522379 308.193439 575.321224 282.303936 
C 565.12007 256.414433 550.136485 232.674825 531.15457 212.327422 
C 512.172656 191.980018 489.529401 175.38605 464.409741 163.413889 
C 439.290082 151.441729 412.139972 144.303921 384.380194 142.373991 
C 356.620415 140.44406 328.743794 143.756271 302.209129 152.137291 
C 275.674465 160.518312 250.952833 173.819353 229.337932 191.344363 
C 207.723031 208.869373 189.598595 230.307227 175.913086 254.536068 
C 162.227577 278.76491 153.223957 305.3546 149.373391 332.913683 
C 145.522825 360.472766 146.893672 388.51198 153.414197 415.564017 
C 159.934721 442.616054 171.489162 468.200652 187.472868 490.978954 
C 203.456574 513.757257 223.585784 533.324875 246.807123 548.657824 
C 270.028462 563.990774 295.929677 574.816845 323.155342 580.569502 
C 350.381008 586.32216 378.44778 586.899277 405.886908 582.270651 
C 433.326036 577.642025 459.650387 567.88983 483.482392 553.524405 
C 507.314397 539.158979 528.230961 520.435355 545.137508 498.33335 
C 562.044056 476.231346 574.64044 451.143344 582.267485 424.382213 
L 539.613988 412.225771 
C 533.512352 433.634675 523.435244 453.705077 509.910007 471.38668 
C 496.384769 489.068284 479.651518 504.047183 460.585914 515.539524 
C 441.52031 527.031864 420.460829 534.83362 398.509526 538.536521 
C 376.558224 542.239421 354.104806 541.777728 332.324274 537.175602 
C 310.543742 532.573476 289.822769 523.912619 271.245698 511.646259 
C 252.668627 499.3799 236.565259 483.725805 223.778294 465.503163 
C 210.99133 447.280521 201.747777 426.812843 196.531357 405.171214 
C 191.314938 383.529584 190.21826 361.098213 193.298713 339.050946 
C 196.379165 317.00368 203.582061 295.731928 214.530469 276.348855 
C 225.478876 256.965782 239.978425 239.815499 257.270346 225.795491 
C 274.562267 211.775482 294.339572 201.13465 315.567303 194.429833 
C 336.795035 187.725016 359.096332 185.075248 381.304155 186.619192 
C 403.511978 188.163137 425.232065 193.873383 445.327793 203.451112 
C 465.423521 213.02884 483.538124 226.304014 498.723656 242.581937 
C 513.909188 258.85986 525.896056 277.851546 534.056979 298.563149 
C 542.217903 319.274751 546.408 341.338573 546.408 363.6 
L 590.76 363.6 
z
" style="fill: none; opacity: 0"/>
   </g>
   <g id="patch_3">
    <path d="M 582.267485 424.382213 
C 585.081241 414.509543 587.20606 404.453394 588.626605 394.286345 
C 590.047151 384.119296 590.759997 373.865866 590.76 363.600057 
L 546.408 363.600046 
C 546.407998 371.812693 545.837721 380.015437 544.701284 388.149076 
C 543.564848 396.282716 541.864993 404.327635 539.613988 412.225771 
z
" style="stroke: #ffffff; stroke-linejoin: miter"/>
   </g>
   <g id="patch_4">
    <path d="M 546.408 363.6 
C 546.408 329.031697 536.304446 295.20564 517.345394 266.300243 
C 498.386342 237.394847 471.385964 214.651417 439.679525 200.879371 
C 407.973085 187.107324 372.922175 182.898084 338.856513 188.771602 
C 304.79085 194.645121 273.173341 210.349168 247.909587 233.943877 
C 222.645832 257.538586 204.820752 288.010712 196.636216 321.59614 
C 188.451679 355.181568 190.259162 390.438013 201.835392 423.010371 
C 213.411621 455.582729 234.259471 484.072221 261.803679 504.959638 
C 289.347887 525.847055 322.405602 538.235415 356.893319 540.594426 
L 369 363.6 
z
" style="fill: #d62728; stroke: #ffffff; stroke-linejoin: miter"/>
   </g>
   <g id="patch_5">
    <path d="M 356.893319 540.594426 
C 381.153419 542.253853 405.497639 538.907806 428.410395 530.7646 
C 451.32315 522.621394 472.318875 509.853597 490.09045 493.256089 
L 369 363.6 
z
" style="fill: #98df8a; stroke: #ffffff; stroke-linejoin: miter"/>
   </g>
   <g id="patch_6">
    <path d="M 490.09045 493.256089 
C 507.862025 476.658581 522.032836 456.583094 531.720659 434.279456 
C 541.408482 411.975819 546.408014 387.916688 546.408 363.5999 
L 369 363.6 
z
" style="fill: #9edae5; stroke: #ffffff; stroke-linejoin: miter"/>
   </g>
   <g id="matplotlib.axis_1"/>
   <g id="matplotlib.axis_2"/>
  </g>
 </g>
</svg>
