<?xml version="1.0" encoding="utf-8" standalone="no"?>
<!DOCTYPE svg PUBLIC "-//W3C//DTD SVG 1.1//EN"
  "http://www.w3.org/Graphics/SVG/1.1/DTD/svg11.dtd">
<svg xmlns:xlink="http://www.w3.org/1999/xlink" width="720pt" height="720pt" viewBox="0 0 720 720" xmlns="http://www.w3.org/2000/svg" version="1.1">
 <metadata>
  <rdf:RDF xmlns:dc="http://purl.org/dc/elements/1.1/" xmlns:cc="http://creativecommons.org/ns#" xmlns:rdf="http://www.w3.org/1999/02/22-rdf-syntax-ns#">
   <cc:Work>
    <dc:type rdf:resource="http://purl.org/dc/dcmitype/StillImage"/>
    <dc:date>2024-02-23T18:45:32.595059</dc:date>
    <dc:format>image/svg+xml</dc:format>
    <dc:creator>
     <cc:Agent>
      <dc:title>Matplotlib v3.8.2, https://matplotlib.org/</dc:title>
     </cc:Agent>
    </dc:creator>
   </cc:Work>
  </rdf:RDF>
 </metadata>
 <defs>
  <style type="text/css">*{stroke-linejoin: round; stroke-linecap: butt}</style>
 </defs>
 <g id="figure_1">
  <g id="patch_1">
   <path d="M 0 720 
L 720 720 
L 720 0 
L 0 0 
L 0 720 
z
" style="fill: none"/>
  </g>
  <g id="axes_1">
   <g id="patch_2">
    <path d="M 590.76 363.6 
C 590.76 334.858753 585.172478 306.389714 574.309048 279.780596 
C 563.445618 253.171477 547.512056 228.92631 527.396972 208.39724 
C 507.281889 187.86817 483.366304 171.44406 456.983985 160.040879 
C 430.601666 148.637697 402.252347 142.471444 373.517063 141.886009 
C 344.781779 141.300574 316.204834 146.307047 289.379957 156.626218 
C 262.55508 166.945389 237.99039 182.381792 217.055852 202.074542 
C 196.121314 221.767293 179.213472 245.34337 167.275271 271.487942 
C 155.33707 297.632515 148.594644 325.85035 147.424017 354.567748 
C 146.253391 383.285146 150.676737 411.958139 160.447367 438.987643 
C 170.217997 466.017148 185.150835 490.891168 204.413081 512.222487 
C 223.675327 533.553806 246.902114 550.938366 272.798091 563.406632 
C 298.694068 575.874899 326.768712 583.190699 355.456307 584.946032 
C 384.143902 586.701365 412.901047 582.862981 440.123962 573.644947 
C 467.346878 564.426912 492.519907 550.003834 514.239156 531.180086 
C 535.958405 512.356337 553.812468 489.488477 566.805627 463.851841 
C 579.798786 438.215205 587.684925 410.295402 590.024235 381.649514 
L 545.819388 378.039611 
C 543.94794 400.956322 537.639029 423.292164 527.244501 443.801473 
C 516.849974 464.310782 502.566724 482.60507 485.191325 497.664069 
C 467.815926 512.723068 447.677502 524.261529 425.89917 531.635957 
C 404.120837 539.010385 381.115122 542.081092 358.165046 540.676826 
C 335.21497 539.272559 312.755255 533.419919 292.038473 523.445306 
C 271.321692 513.470693 252.740262 499.563045 237.330465 482.49799 
C 221.920668 465.432934 209.974397 445.533718 202.157893 423.910115 
C 194.341389 402.286512 190.802713 379.348117 191.739214 356.374198 
C 192.675715 333.40028 198.069656 310.826012 207.620217 289.910354 
C 217.170777 268.994696 230.697051 250.133834 247.444682 234.379634 
C 264.192312 218.625434 283.844064 206.276311 305.303966 198.020975 
C 326.763867 189.765638 349.625423 185.760459 372.613651 186.228807 
C 395.601878 186.697155 418.281333 191.630158 439.387188 200.752703 
C 460.493043 209.875248 479.625511 223.014536 495.717578 239.437792 
C 511.809645 255.861048 524.556494 275.257182 533.247238 296.544477 
C 541.937982 317.831771 546.408 340.607002 546.408 363.6 
L 590.76 363.6 
z
" style="fill: none; opacity: 0"/>
   </g>
   <g id="patch_3">
    <path d="M 590.024235 381.649514 
C 590.269363 378.647819 590.453317 375.641442 590.575982 372.632253 
C 590.698648 369.623065 590.76 366.61169 590.76 363.600003 
L 546.408 363.600002 
C 546.408 366.009352 546.358918 368.418452 546.260786 370.825803 
C 546.162653 373.233153 546.01549 375.638255 545.819388 378.039611 
z
" style="stroke: #ffffff; stroke-linejoin: miter"/>
   </g>
   <g id="patch_4">
    <path d="M 546.408 363.6 
C 546.408 340.302995 541.818998 317.232524 532.90362 295.708898 
C 523.988242 274.185271 510.91987 254.62707 494.4464 238.1536 
C 477.97293 221.68013 458.414729 208.611758 436.891102 199.69638 
C 415.367476 190.781002 392.297005 186.192 369 186.192 
C 345.702995 186.192 322.632524 190.781002 301.108898 199.69638 
C 279.585271 208.611758 260.02707 221.68013 243.5536 238.1536 
C 227.08013 254.62707 214.011758 274.185271 205.09638 295.708898 
C 196.181002 317.232524 191.592 340.302995 191.592 363.6 
C 191.592 386.897005 196.181002 409.967476 205.09638 431.491102 
C 214.011758 453.014729 227.08013 472.57293 243.5536 489.0464 
C 260.02707 505.51987 279.585271 518.588242 301.108898 527.50362 
C 322.632524 536.418998 345.702995 541.008 369 541.008 
C 392.297005 541.008 415.367476 536.418998 436.891102 527.50362 
C 458.414729 518.588242 477.97293 505.51987 494.4464 489.0464 
C 510.91987 472.57293 523.988242 453.014729 532.90362 431.491102 
C 541.818998 409.967476 546.408 386.897005 546.408 363.6 
M 369 363.6 
z
" style="fill: #d62728; stroke: #ffffff; stroke-linejoin: miter"/>
   </g>
   <g id="matplotlib.axis_1"/>
   <g id="matplotlib.axis_2"/>
  </g>
 </g>
</svg>
