<?xml version="1.0" encoding="utf-8" standalone="no"?>
<!DOCTYPE svg PUBLIC "-//W3C//DTD SVG 1.1//EN"
  "http://www.w3.org/Graphics/SVG/1.1/DTD/svg11.dtd">
<svg xmlns:xlink="http://www.w3.org/1999/xlink" width="720pt" height="720pt" viewBox="0 0 720 720" xmlns="http://www.w3.org/2000/svg" version="1.1">
 <metadata>
  <rdf:RDF xmlns:dc="http://purl.org/dc/elements/1.1/" xmlns:cc="http://creativecommons.org/ns#" xmlns:rdf="http://www.w3.org/1999/02/22-rdf-syntax-ns#">
   <cc:Work>
    <dc:type rdf:resource="http://purl.org/dc/dcmitype/StillImage"/>
    <dc:date>2024-02-23T18:45:31.739196</dc:date>
    <dc:format>image/svg+xml</dc:format>
    <dc:creator>
     <cc:Agent>
      <dc:title>Matplotlib v3.8.2, https://matplotlib.org/</dc:title>
     </cc:Agent>
    </dc:creator>
   </cc:Work>
  </rdf:RDF>
 </metadata>
 <defs>
  <style type="text/css">*{stroke-linejoin: round; stroke-linecap: butt}</style>
 </defs>
 <g id="figure_1">
  <g id="patch_1">
   <path d="M 0 720 
L 720 720 
L 720 0 
L 0 0 
L 0 720 
z
" style="fill: none"/>
  </g>
  <g id="axes_1">
   <g id="patch_2">
    <path d="M 590.76 363.6 
C 590.76 340.531117 587.160342 317.60287 580.09111 295.643832 
C 573.021878 273.684795 562.569265 252.962707 549.111004 234.226417 
C 535.652742 215.490127 519.352925 198.968081 500.80059 185.257346 
C 482.248255 171.546612 461.669605 160.814361 439.808305 153.448432 
C 417.947004 146.082502 395.069602 142.172705 372.002834 141.860331 
C 348.936066 141.547958 325.961178 144.836816 303.90843 151.608054 
C 281.855682 158.379293 260.993956 168.550351 242.077147 181.753672 
C 223.160337 194.956994 206.419091 211.031592 192.458398 229.396571 
C 178.497705 247.761549 167.487785 268.192987 159.826508 289.952542 
C 152.165232 311.712097 147.946013 334.534459 147.321322 357.594883 
C 146.696632 380.655306 149.674087 403.672621 156.14609 425.815037 
C 162.618094 447.957452 172.505733 468.95499 185.451693 488.048851 
C 198.397652 507.142711 214.244085 524.100087 232.418339 538.308178 
C 250.592593 552.51627 270.873074 563.801842 292.526893 571.75706 
C 314.180712 579.712278 336.94385 584.240146 359.993701 585.177039 
C 383.043551 586.113931 406.099073 583.448424 428.327095 577.276843 
L 416.461676 534.541475 
C 398.679259 539.47874 380.234841 541.611145 361.794961 540.861631 
C 343.35508 540.112117 325.14457 536.489822 307.821515 530.125648 
C 290.498459 523.761473 274.274075 514.733016 259.734672 503.366543 
C 245.195268 492.000069 232.518122 478.434169 222.161354 463.159081 
C 211.804586 447.883992 203.894475 431.085962 198.716872 413.372029 
C 193.53927 395.658097 191.157305 377.244245 191.657058 358.795906 
C 192.15681 340.347567 195.532186 322.089678 201.661207 304.682034 
C 207.790228 287.27439 216.598164 270.929239 227.766719 256.237256 
C 238.935273 241.545274 252.32827 228.685595 267.461717 218.122938 
C 282.595165 207.560281 299.284545 199.423434 316.926744 194.006443 
C 334.568943 188.589453 352.948853 185.958366 371.402267 186.208265 
C 389.855682 186.458164 408.157603 189.586002 425.646644 195.478745 
C 443.135684 201.371489 459.598604 209.95729 474.440472 220.925877 
C 489.28234 231.894465 502.322194 245.112101 513.088803 260.101134 
C 523.855412 275.090166 532.217503 291.667836 537.872888 309.235066 
C 543.528274 326.802296 546.408 345.144893 546.408 363.6 
L 590.76 363.6 
z
" style="fill: none; opacity: 0"/>
   </g>
   <g id="patch_3">
    <path d="M 428.327095 577.276843 
C 475.026164 564.310908 516.211454 536.386585 545.541608 497.803421 
C 574.871762 459.220258 590.760005 412.065621 590.76 363.599979 
L 546.408 363.599983 
C 546.408004 402.372497 533.69741 440.096206 510.233286 470.962737 
C 486.769163 501.829268 453.820931 524.168727 416.461676 534.541475 
z
" style="stroke: #ffffff; stroke-linejoin: miter"/>
   </g>
   <g id="patch_4">
    <path d="M 546.408 363.6 
C 546.408 316.566518 527.704094 271.411294 494.4464 238.1536 
C 461.188706 204.895906 416.033482 186.192 369 186.192 
C 321.966518 186.192 276.811294 204.895906 243.5536 238.1536 
C 210.295906 271.411294 191.592 316.566518 191.592 363.6 
L 369 363.6 
z
" style="fill: #8c564b; stroke: #ffffff; stroke-linejoin: miter"/>
   </g>
   <g id="patch_5">
    <path d="M 191.592 363.6 
C 191.592 394.739288 199.790519 425.33658 215.360162 452.303995 
C 230.929806 479.27141 253.328577 501.670184 280.29599 517.239829 
C 307.263404 532.809475 337.860695 541.007997 368.999983 541.008 
C 400.139271 541.008003 430.736564 532.809487 457.703981 517.239846 
L 369 363.6 
z
" style="fill: #dbdb8d; stroke: #ffffff; stroke-linejoin: miter"/>
   </g>
   <g id="patch_6">
    <path d="M 457.703981 517.239846 
C 484.671397 501.670205 507.070173 479.271436 522.639821 452.304024 
C 538.209469 425.336612 546.407994 394.739321 546.408 363.600033 
L 369 363.6 
z
" style="fill: #e377c2; stroke: #ffffff; stroke-linejoin: miter"/>
   </g>
   <g id="matplotlib.axis_1"/>
   <g id="matplotlib.axis_2"/>
  </g>
 </g>
</svg>
