<?xml version="1.0" encoding="utf-8" standalone="no"?>
<!DOCTYPE svg PUBLIC "-//W3C//DTD SVG 1.1//EN"
  "http://www.w3.org/Graphics/SVG/1.1/DTD/svg11.dtd">
<svg xmlns:xlink="http://www.w3.org/1999/xlink" width="720pt" height="720pt" viewBox="0 0 720 720" xmlns="http://www.w3.org/2000/svg" version="1.1">
 <metadata>
  <rdf:RDF xmlns:dc="http://purl.org/dc/elements/1.1/" xmlns:cc="http://creativecommons.org/ns#" xmlns:rdf="http://www.w3.org/1999/02/22-rdf-syntax-ns#">
   <cc:Work>
    <dc:type rdf:resource="http://purl.org/dc/dcmitype/StillImage"/>
    <dc:date>2024-02-23T18:45:31.331095</dc:date>
    <dc:format>image/svg+xml</dc:format>
    <dc:creator>
     <cc:Agent>
      <dc:title>Matplotlib v3.8.2, https://matplotlib.org/</dc:title>
     </cc:Agent>
    </dc:creator>
   </cc:Work>
  </rdf:RDF>
 </metadata>
 <defs>
  <style type="text/css">*{stroke-linejoin: round; stroke-linecap: butt}</style>
 </defs>
 <g id="figure_1">
  <g id="patch_1">
   <path d="M 0 720 
L 720 720 
L 720 0 
L 0 0 
L 0 720 
z
" style="fill: none"/>
  </g>
  <g id="axes_1">
   <g id="patch_2">
    <path d="M 590.76 363.6 
C 590.76 338.531502 586.509259 313.643524 578.188827 289.996114 
C 569.868396 266.348704 557.598106 244.282434 541.900584 224.737169 
C 526.203062 205.191905 507.304384 188.449138 486.009499 175.22199 
C 464.714614 161.994842 441.330212 152.473811 416.852301 147.064426 
C 392.37439 141.65504 367.155502 140.435207 342.269782 143.456881 
C 317.384062 146.478554 293.189915 153.698218 270.717839 164.808364 
C 248.245763 175.918511 227.819401 190.759132 210.308771 208.698123 
C 192.798141 226.637115 178.455431 247.416117 167.891539 270.150096 
C 157.327647 292.884074 150.694714 317.24561 148.275256 342.197079 
C 145.855798 367.148548 147.684659 392.330596 153.683944 416.670649 
C 159.683229 441.010701 169.766535 464.158211 183.504387 485.12726 
C 197.242238 506.09631 214.43678 524.5849 234.355649 539.805551 
C 254.274518 555.026203 276.630842 566.759705 300.4724 574.506296 
C 324.313959 582.252887 349.297384 585.900999 374.358562 585.295249 
C 399.41974 584.689499 424.197738 579.838611 447.63719 570.949198 
C 471.076642 562.059785 492.839972 549.259873 512.000218 533.094647 
L 483.400174 499.195717 
C 468.071977 512.127899 450.661314 522.367828 431.909752 529.479359 
C 413.15819 536.590889 393.335792 540.471599 373.28685 540.956199 
C 353.237907 541.440799 333.251167 538.522309 314.17792 532.325037 
C 295.104673 526.127764 277.219615 516.740962 261.284519 504.564441 
C 245.349424 492.38792 231.59379 477.597048 220.603509 460.821808 
C 209.613228 444.046569 201.546583 425.528561 196.747155 406.056519 
C 191.947727 386.584477 190.484638 366.438839 192.420205 346.477663 
C 194.355771 326.516488 199.662118 307.027259 208.113231 288.840076 
C 216.564345 270.652894 228.038513 254.029692 242.047017 239.678499 
C 256.055521 225.327306 272.39661 213.454809 290.374271 204.566691 
C 308.351932 195.678574 327.70725 189.902844 347.615826 187.485504 
C 367.524402 185.068165 387.699512 186.044032 407.281841 190.371541 
C 426.864169 194.699049 445.571691 202.315873 462.607599 212.897592 
C 479.643507 223.47931 494.762449 236.873524 507.320467 252.509736 
C 519.878485 268.145947 529.694717 285.798963 536.351062 304.716891 
C 543.007407 323.634819 546.408 343.545202 546.408 363.6 
L 590.76 363.6 
z
" style="fill: none; opacity: 0"/>
   </g>
   <g id="patch_3">
    <path d="M 512.000218 533.094647 
C 536.672832 512.278714 556.505361 486.324399 570.108465 457.049895 
C 583.711569 427.775392 590.760003 395.880639 590.76 363.599979 
L 546.408 363.599983 
C 546.408002 389.424511 540.769255 414.940313 529.886772 438.359916 
C 519.004289 461.779519 503.138266 482.542971 483.400174 499.195717 
z
" style="stroke: #ffffff; stroke-linejoin: miter"/>
   </g>
   <g id="patch_4">
    <path d="M 546.408 363.6 
C 546.408 332.460712 538.209481 301.86342 522.639838 274.896005 
C 507.070194 247.92859 484.671423 225.529816 457.70401 209.960171 
C 430.736596 194.390525 400.139305 186.192003 369.000017 186.192 
C 337.860729 186.191997 307.263436 194.390513 280.296019 209.960154 
L 369 363.6 
z
" style="fill: #2ca02c; stroke: #ffffff; stroke-linejoin: miter"/>
   </g>
   <g id="patch_5">
    <path d="M 280.296019 209.960154 
C 244.18348 230.809732 216.552983 263.738467 202.291022 302.922863 
C 188.029061 342.107258 188.029052 385.092674 202.290999 424.277075 
L 369 363.6 
z
" style="fill: #e377c2; stroke: #ffffff; stroke-linejoin: miter"/>
   </g>
   <g id="patch_6">
    <path d="M 202.290999 424.277075 
C 216.552945 463.461476 244.18343 496.390221 280.295962 517.239813 
C 316.408493 538.089404 358.740861 545.553755 399.806525 538.312783 
L 369 363.6 
z
" style="fill: #c7c7c7; stroke: #ffffff; stroke-linejoin: miter"/>
   </g>
   <g id="patch_7">
    <path d="M 399.806525 538.312783 
C 440.872189 531.071811 478.098657 509.579115 504.902375 477.63571 
C 531.706092 445.692304 546.407984 405.299232 546.408 363.600066 
L 369 363.6 
z
" style="fill: #9edae5; stroke: #ffffff; stroke-linejoin: miter"/>
   </g>
   <g id="matplotlib.axis_1"/>
   <g id="matplotlib.axis_2"/>
  </g>
 </g>
</svg>
