<?xml version="1.0" encoding="utf-8" standalone="no"?>
<!DOCTYPE svg PUBLIC "-//W3C//DTD SVG 1.1//EN"
  "http://www.w3.org/Graphics/SVG/1.1/DTD/svg11.dtd">
<svg xmlns:xlink="http://www.w3.org/1999/xlink" width="720pt" height="720pt" viewBox="0 0 720 720" xmlns="http://www.w3.org/2000/svg" version="1.1">
 <metadata>
  <rdf:RDF xmlns:dc="http://purl.org/dc/elements/1.1/" xmlns:cc="http://creativecommons.org/ns#" xmlns:rdf="http://www.w3.org/1999/02/22-rdf-syntax-ns#">
   <cc:Work>
    <dc:type rdf:resource="http://purl.org/dc/dcmitype/StillImage"/>
    <dc:date>2024-02-23T18:45:32.548511</dc:date>
    <dc:format>image/svg+xml</dc:format>
    <dc:creator>
     <cc:Agent>
      <dc:title>Matplotlib v3.8.2, https://matplotlib.org/</dc:title>
     </cc:Agent>
    </dc:creator>
   </cc:Work>
  </rdf:RDF>
 </metadata>
 <defs>
  <style type="text/css">*{stroke-linejoin: round; stroke-linecap: butt}</style>
 </defs>
 <g id="figure_1">
  <g id="patch_1">
   <path d="M 0 720 
L 720 720 
L 720 0 
L 0 0 
L 0 720 
z
" style="fill: none"/>
  </g>
  <g id="axes_1">
   <g id="patch_2">
    <path d="M 590.76 363.6 
C 590.76 335.03864 585.242202 306.744402 574.510554 280.275874 
C 563.778905 253.807345 548.034143 229.659624 528.143568 209.162885 
C 508.252992 188.666147 484.588659 172.203786 458.454117 160.682631 
C 432.319576 149.161477 404.203675 142.797033 375.65518 141.939886 
C 347.106685 141.082739 318.659598 145.74892 291.880927 155.681395 
C 265.102257 165.61387 240.492899 180.626849 219.408463 199.893343 
C 198.324026 219.159837 181.158896 242.319464 168.858614 268.096476 
C 156.558332 293.873487 149.352976 321.785722 147.639454 350.295635 
C 145.925931 378.805547 149.736293 407.379856 158.860647 434.444546 
C 167.985 461.509236 182.252672 486.558059 200.877729 508.211201 
C 219.502785 529.864343 242.136842 547.716778 267.533103 560.785107 
C 292.929364 573.853436 320.612788 581.893212 349.058435 584.461567 
C 377.504082 587.029921 406.179872 584.078811 433.5062 575.770799 
C 460.832528 567.462786 486.298252 553.953274 508.500592 535.986433 
C 530.702932 518.019593 549.226591 495.931495 563.051194 470.938864 
C 576.875797 445.946232 585.742752 418.516557 589.163624 390.160801 
L 545.130899 384.84864 
C 542.394202 407.533245 535.300637 429.476986 524.240955 449.471091 
C 513.181273 469.465196 498.362346 487.135674 480.600474 501.509147 
C 462.838601 515.882619 442.466023 526.690229 420.60496 533.336639 
C 398.743898 539.983049 375.803265 542.343937 353.046748 540.289253 
C 330.29023 538.23457 308.143491 531.802748 287.826482 521.348086 
C 267.509474 510.893423 249.402228 496.611474 234.502183 479.288961 
C 219.602138 461.966448 208.188 441.927389 200.888517 420.275637 
C 193.589035 398.623885 190.540745 375.764438 191.911563 352.956508 
C 193.282381 330.148578 199.046666 307.81879 208.886891 287.197181 
C 218.727117 266.575571 232.459221 248.04787 249.32677 232.634674 
C 266.19432 217.221479 285.881805 205.211096 307.304742 197.265116 
C 328.727679 189.319136 351.485348 185.586191 374.324144 186.271909 
C 397.16294 186.957627 419.655661 192.049182 440.563294 201.266105 
C 461.470927 210.483029 480.402394 223.652918 496.314854 240.050308 
C 512.227315 256.447699 524.823124 275.765876 533.408443 296.940699 
C 541.993762 318.115522 546.408 340.750912 546.408 363.6 
L 590.76 363.6 
z
" style="fill: none; opacity: 0"/>
   </g>
   <g id="patch_3">
    <path d="M 589.163624 390.160801 
C 589.69515 385.754964 590.094303 381.334165 590.360546 376.904376 
C 590.626788 372.474587 590.76 368.037804 590.76 363.600021 
L 546.408 363.600017 
C 546.408 367.150243 546.301431 370.699669 546.088437 374.243501 
C 545.875443 377.787332 545.55612 381.323971 545.130899 384.84864 
z
" style="stroke: #ffffff; stroke-linejoin: miter"/>
   </g>
   <g id="patch_4">
    <path d="M 546.408 363.6 
C 546.408 332.460709 538.209479 301.863414 522.639833 274.895998 
C 507.070188 247.928581 484.671413 225.529807 457.703995 209.960162 
C 430.736578 194.390518 400.139283 186.191999 368.999992 186.192 
C 337.860701 186.192001 307.263406 194.390524 280.29599 209.960171 
L 369 363.6 
z
" style="fill: #c7c7c7; stroke: #ffffff; stroke-linejoin: miter"/>
   </g>
   <g id="patch_5">
    <path d="M 280.29599 209.960171 
C 253.328574 225.529818 230.929802 247.928594 215.360158 274.896012 
C 199.790515 301.86343 191.591997 332.460726 191.592 363.600017 
C 191.592003 394.739308 199.790526 425.336602 215.360175 452.304017 
C 230.929823 479.271432 253.3286 501.670204 280.296019 517.239846 
L 369 363.6 
z
" style="fill: #d62728; stroke: #ffffff; stroke-linejoin: miter"/>
   </g>
   <g id="patch_6">
    <path d="M 280.296019 517.239846 
C 307.263438 532.809488 337.860734 541.008004 369.000025 541.008 
C 400.139316 541.007996 430.736609 532.809471 457.704024 517.239821 
C 484.671439 501.670171 507.070209 479.271393 522.63985 452.303974 
C 538.209491 425.336554 546.408006 394.739258 546.408 363.599967 
L 369 363.6 
z
" style="fill: #9edae5; stroke: #ffffff; stroke-linejoin: miter"/>
   </g>
   <g id="matplotlib.axis_1"/>
   <g id="matplotlib.axis_2"/>
  </g>
 </g>
</svg>
