<?xml version="1.0" encoding="utf-8" standalone="no"?>
<!DOCTYPE svg PUBLIC "-//W3C//DTD SVG 1.1//EN"
  "http://www.w3.org/Graphics/SVG/1.1/DTD/svg11.dtd">
<svg xmlns:xlink="http://www.w3.org/1999/xlink" width="720pt" height="720pt" viewBox="0 0 720 720" xmlns="http://www.w3.org/2000/svg" version="1.1">
 <metadata>
  <rdf:RDF xmlns:dc="http://purl.org/dc/elements/1.1/" xmlns:cc="http://creativecommons.org/ns#" xmlns:rdf="http://www.w3.org/1999/02/22-rdf-syntax-ns#">
   <cc:Work>
    <dc:type rdf:resource="http://purl.org/dc/dcmitype/StillImage"/>
    <dc:date>2024-02-23T18:45:32.129334</dc:date>
    <dc:format>image/svg+xml</dc:format>
    <dc:creator>
     <cc:Agent>
      <dc:title>Matplotlib v3.8.2, https://matplotlib.org/</dc:title>
     </cc:Agent>
    </dc:creator>
   </cc:Work>
  </rdf:RDF>
 </metadata>
 <defs>
  <style type="text/css">*{stroke-linejoin: round; stroke-linecap: butt}</style>
 </defs>
 <g id="figure_1">
  <g id="patch_1">
   <path d="M 0 720 
L 720 720 
L 720 0 
L 0 0 
L 0 720 
z
" style="fill: none"/>
  </g>
  <g id="axes_1">
   <g id="patch_2">
    <path d="M 590.76 363.6 
C 590.76 320.733126 578.330557 278.77203 554.983584 242.820845 
C 531.63661 206.86966 498.358751 178.447684 459.197913 161.012157 
C 420.037075 143.57663 376.648196 137.864377 334.309085 144.570235 
C 291.969974 151.276093 252.469883 170.116672 220.613589 198.800211 
L 250.290871 231.760169 
C 275.775906 208.813338 307.375979 193.740874 341.247268 188.376188 
C 375.118557 183.011501 409.82966 187.581304 441.15833 201.529726 
C 472.487001 215.478148 499.109288 238.215728 517.786867 266.976676 
C 536.464446 295.737624 546.408 329.306501 546.408 363.6 
L 590.76 363.6 
z
" style="fill: none; opacity: 0"/>
   </g>
   <g id="patch_3">
    <path d="M 220.613589 198.800211 
C 193.148684 223.529724 172.296544 254.737161 159.95982 289.575 
C 147.623096 324.412839 144.188779 361.78825 149.970235 398.290915 
C 155.75169 434.79358 170.567559 469.278445 193.065967 498.59894 
C 215.564376 527.919435 245.03957 551.155803 278.802087 566.187843 
C 312.564604 581.219883 349.555346 587.576054 386.399093 584.676388 
C 423.242841 581.776721 458.78384 569.712177 489.779155 549.583584 
C 520.774469 529.45499 546.251805 501.893763 563.886484 469.414725 
C 581.521162 436.935687 590.76 400.557676 590.76 363.6 
L 546.408 363.6 
C 546.408 393.166141 539.01693 422.26855 524.909187 448.25178 
C 510.801444 474.235011 490.419575 496.283992 465.623324 512.386867 
C 440.827072 528.489741 412.394273 538.141377 382.919275 540.46111 
C 353.444277 542.780843 323.851683 537.695906 296.84167 525.670274 
C 269.831656 513.644642 246.251501 495.055548 228.252774 471.599152 
C 210.254047 448.142756 198.401352 420.554864 193.776188 391.352732 
C 189.151023 362.1506 191.898476 332.250271 201.767856 304.38 
C 211.637235 276.509729 228.318947 251.543779 250.290871 231.760169 
z
" style="stroke: #ffffff; stroke-linejoin: miter"/>
   </g>
   <g id="patch_4">
    <path d="M 546.408 363.6 
C 546.408 343.999637 543.159774 324.534082 536.795546 305.99572 
C 530.431319 287.457358 521.038636 270.101198 508.999844 254.633757 
C 496.961052 239.166316 482.441755 225.800359 466.032988 215.079976 
C 449.624222 204.359592 431.551701 196.432248 412.551104 191.620641 
C 393.550507 186.809035 373.8832 185.179354 354.349782 186.797937 
C 334.816364 188.41652 315.685529 193.261103 297.736039 201.134477 
C 279.786548 209.007851 263.265308 219.801712 248.84485 233.076675 
C 234.424392 246.351638 222.30308 261.925095 212.974335 279.163099 
C 203.64559 296.401102 197.237737 315.066531 194.011619 334.39957 
C 190.785502 353.732609 190.785498 373.46732 194.011608 392.80036 
C 197.237717 412.133401 203.645563 430.798832 212.974301 448.036839 
C 222.303039 465.274846 234.424346 480.848309 248.844798 494.123277 
C 263.265251 507.398246 279.786486 518.192114 297.735974 526.065495 
C 315.685462 533.938876 334.816294 538.783467 354.349712 540.402057 
C 373.883129 542.020648 393.550436 540.390975 412.551035 535.579376 
C 431.551634 530.767777 449.624158 522.84044 466.032929 512.120063 
L 369 363.6 
z
" style="fill: #8c564b; stroke: #ffffff; stroke-linejoin: miter"/>
   </g>
   <g id="patch_5">
    <path d="M 466.032929 512.120063 
C 479.697446 503.192595 492.064771 492.42189 502.784504 480.113111 
C 513.504237 467.804332 522.474172 454.074835 529.440167 439.313614 
L 369 363.6 
z
" style="fill: #c49c94; stroke: #ffffff; stroke-linejoin: miter"/>
   </g>
   <g id="patch_6">
    <path d="M 529.440167 439.313614 
C 532.222874 433.416946 534.678386 427.371349 536.795523 421.204349 
C 538.912659 415.037348 540.688203 408.758318 542.114069 402.395844 
L 369 363.6 
z
" style="fill: #17becf; stroke: #ffffff; stroke-linejoin: miter"/>
   </g>
   <g id="patch_7">
    <path d="M 542.114069 402.395844 
C 543.539935 396.033371 544.613958 389.597125 545.331246 383.116411 
C 546.048534 376.635696 546.407997 370.120363 546.408 363.600075 
L 369 363.6 
z
" style="fill: #9edae5; stroke: #ffffff; stroke-linejoin: miter"/>
   </g>
   <g id="matplotlib.axis_1"/>
   <g id="matplotlib.axis_2"/>
  </g>
 </g>
</svg>
