<?xml version="1.0" encoding="utf-8" standalone="no"?>
<!DOCTYPE svg PUBLIC "-//W3C//DTD SVG 1.1//EN"
  "http://www.w3.org/Graphics/SVG/1.1/DTD/svg11.dtd">
<svg xmlns:xlink="http://www.w3.org/1999/xlink" width="720pt" height="720pt" viewBox="0 0 720 720" xmlns="http://www.w3.org/2000/svg" version="1.1">
 <metadata>
  <rdf:RDF xmlns:dc="http://purl.org/dc/elements/1.1/" xmlns:cc="http://creativecommons.org/ns#" xmlns:rdf="http://www.w3.org/1999/02/22-rdf-syntax-ns#">
   <cc:Work>
    <dc:type rdf:resource="http://purl.org/dc/dcmitype/StillImage"/>
    <dc:date>2024-10-24T16:56:27.380183</dc:date>
    <dc:format>image/svg+xml</dc:format>
    <dc:creator>
     <cc:Agent>
      <dc:title>Matplotlib v3.8.2, https://matplotlib.org/</dc:title>
     </cc:Agent>
    </dc:creator>
   </cc:Work>
  </rdf:RDF>
 </metadata>
 <defs>
  <style type="text/css">*{stroke-linejoin: round; stroke-linecap: butt}</style>
 </defs>
 <g id="figure_1">
  <g id="patch_1">
   <path d="M 0 720 
L 720 720 
L 720 0 
L 0 0 
L 0 720 
z
" style="fill: none"/>
  </g>
  <g id="axes_1">
   <g id="patch_2">
    <path d="M 590.76 363.6 
C 590.76 338.462306 586.48576 313.506632 578.120326 289.801714 
C 569.754891 266.096795 557.419409 243.985923 541.642151 224.416003 
C 525.864893 204.846082 506.874343 188.100522 485.483777 174.896457 
C 464.093211 161.692391 440.612404 152.22104 416.04693 146.888016 
C 391.481456 141.554992 366.187069 140.437529 341.247008 143.58348 
C 316.306947 146.729432 292.082391 154.09324 269.610764 165.359546 
C 247.139138 176.625853 226.745872 191.631502 209.304315 209.73387 
C 191.862758 227.836239 177.625496 248.773172 167.202244 271.648037 
C 156.778993 294.522903 150.320699 319.004431 148.103943 344.044193 
C 145.887187 369.083954 147.94407 394.319326 154.186506 418.669596 
C 160.428942 443.019866 170.766529 466.132397 184.756557 487.017386 
C 198.746584 507.902376 216.18645 526.257371 236.329287 541.296313 
C 256.472124 556.335255 279.026226 567.840352 303.025707 575.318894 
C 327.025187 582.797437 352.122489 586.141122 377.242812 585.206755 
C 402.363134 584.272387 427.142689 579.073499 450.520284 569.832735 
C 473.897878 560.59197 495.534962 547.443153 514.504918 530.949384 
L 485.403935 497.479507 
C 470.227969 510.674522 452.918303 521.193576 434.216227 528.586188 
C 415.514151 535.9788 395.690507 540.13791 375.594249 540.885404 
C 355.497991 541.632897 335.42015 538.95795 316.220565 532.975115 
C 297.020981 526.992281 278.977699 517.788204 262.86343 505.75705 
C 246.74916 493.725897 232.797267 479.041901 221.605245 462.333909 
C 210.413223 445.625917 202.143154 427.135893 197.149205 407.655677 
C 192.155256 388.175461 190.509749 367.987163 192.283154 347.955354 
C 194.05656 327.923545 199.223194 308.338322 207.561796 290.03843 
C 215.900397 271.738537 227.290207 254.988991 241.243452 240.507096 
C 255.196698 226.025201 271.51131 214.020683 289.488611 205.007637 
C 307.465912 195.994592 326.845557 190.103545 346.797606 187.586784 
C 366.749655 185.070023 386.985165 185.963994 406.637544 190.230413 
C 426.289924 194.496832 445.074569 202.073913 462.187022 212.637165 
C 479.299475 223.200418 494.491915 236.596866 507.113721 252.252802 
C 519.735528 267.908738 529.603913 285.597436 536.29626 304.561371 
C 542.988608 323.525306 546.408 343.489845 546.408 363.6 
z
" style="opacity: 0.1"/>
   </g>
   <g id="patch_3">
    <path d="M 514.504918 530.949384 
C 538.445679 510.133661 557.643235 484.420866 570.797751 455.551972 
C 583.952267 426.683078 590.759997 395.324685 590.76 363.600021 
L 546.408 363.600017 
C 546.407998 388.979748 540.961814 414.066463 530.438201 437.161578 
C 519.914588 460.256693 504.556543 480.826929 485.403935 497.479507 
z
"/>
   </g>
   <g id="patch_4">
    <path d="M 546.408 363.6 
C 546.408 322.824568 532.35027 283.269909 506.617386 251.639947 
C 480.884502 220.009984 445.017293 198.198653 405.094716 189.902648 
C 365.172139 181.606644 323.584672 187.322712 287.38077 206.082065 
C 251.176869 224.841418 222.524343 255.520787 206.279371 292.920475 
L 369 363.6 
z
" style="fill: #dbdb8d"/>
   </g>
   <g id="patch_5">
    <path d="M 206.279371 292.920475 
C 196.591539 315.224106 191.591998 339.283232 191.592 363.600017 
C 191.592002 387.916801 196.591548 411.975926 206.279384 434.279555 
C 215.967219 456.583184 230.138041 476.658661 247.909623 493.256157 
C 265.681205 509.853654 286.676935 522.621437 309.589691 530.764631 
L 369 363.6 
z
" style="fill: #d62728"/>
   </g>
   <g id="patch_6">
    <path d="M 309.589691 530.764631 
C 324.83544 536.18297 340.75102 539.490264 356.893265 540.594422 
C 373.035511 541.698581 389.253194 540.589259 405.09474 537.297347 
L 369 363.6 
z
" style="fill: #c7c7c7"/>
   </g>
   <g id="patch_7">
    <path d="M 405.09474 537.297347 
C 445.017316 529.001336 480.884522 507.19 506.617402 475.560034 
C 532.350281 443.930068 546.408006 404.375407 546.408 363.599975 
L 369 363.6 
z
" style="fill: #9edae5"/>
   </g>
   <g id="matplotlib.axis_1"/>
   <g id="matplotlib.axis_2"/>
  </g>
 </g>
</svg>
