<?xml version="1.0" encoding="utf-8" standalone="no"?>
<!DOCTYPE svg PUBLIC "-//W3C//DTD SVG 1.1//EN"
  "http://www.w3.org/Graphics/SVG/1.1/DTD/svg11.dtd">
<svg xmlns:xlink="http://www.w3.org/1999/xlink" width="720pt" height="720pt" viewBox="0 0 720 720" xmlns="http://www.w3.org/2000/svg" version="1.1">
 <metadata>
  <rdf:RDF xmlns:dc="http://purl.org/dc/elements/1.1/" xmlns:cc="http://creativecommons.org/ns#" xmlns:rdf="http://www.w3.org/1999/02/22-rdf-syntax-ns#">
   <cc:Work>
    <dc:type rdf:resource="http://purl.org/dc/dcmitype/StillImage"/>
    <dc:date>2024-10-24T16:56:27.618383</dc:date>
    <dc:format>image/svg+xml</dc:format>
    <dc:creator>
     <cc:Agent>
      <dc:title>Matplotlib v3.8.2, https://matplotlib.org/</dc:title>
     </cc:Agent>
    </dc:creator>
   </cc:Work>
  </rdf:RDF>
 </metadata>
 <defs>
  <style type="text/css">*{stroke-linejoin: round; stroke-linecap: butt}</style>
 </defs>
 <g id="figure_1">
  <g id="patch_1">
   <path d="M 0 720 
L 720 720 
L 720 0 
L 0 0 
L 0 720 
z
" style="fill: none"/>
  </g>
  <g id="axes_1">
   <g id="patch_2">
    <path d="M 590.76 363.6 
C 590.76 328.208832 582.287768 293.326532 566.053775 261.878286 
C 549.819783 230.430039 526.290866 203.320195 497.44013 182.822151 
C 468.589394 162.324108 435.246493 149.027321 400.207521 144.046844 
C 365.168549 139.066367 329.441112 142.545421 296.021268 154.192258 
C 262.601425 165.839095 232.450221 185.318789 208.096099 210.997798 
C 183.741977 236.676806 165.885282 267.816684 156.023454 301.806081 
C 146.161626 335.795478 144.57826 371.656969 151.406133 406.383254 
C 158.234007 441.109539 173.276774 473.702003 195.272966 501.427484 
L 230.018373 473.861987 
C 212.421419 451.681603 200.387206 425.607631 194.924907 397.826603 
C 189.462608 370.045575 190.729301 341.356382 198.618763 314.164865 
C 206.508225 286.973347 220.793581 262.061445 240.276879 241.518238 
C 259.760177 220.975031 283.88114 205.391276 310.617015 196.073807 
C 337.352889 186.756337 365.934839 183.973094 393.966017 187.957475 
C 421.997195 191.941857 448.671516 202.579286 471.752104 218.977721 
C 494.832693 235.376156 513.655826 257.064031 526.64302 282.222629 
C 539.630215 307.381226 546.408 335.287066 546.408 363.6 
z
" style="opacity: 0.1"/>
   </g>
   <g id="patch_3">
    <path d="M 195.272966 501.427484 
C 223.876611 537.481443 263.006574 563.752311 307.206071 576.576543 
C 351.405568 589.400775 398.519855 588.153183 441.978712 573.007749 
C 485.437569 557.862314 523.122359 529.557382 549.777831 492.040155 
C 576.433302 454.522929 590.759991 409.622389 590.76 363.600042 
L 546.408 363.600033 
C 546.407993 400.417911 534.946642 436.338343 513.622265 466.352124 
C 492.297887 496.365905 462.150055 519.009851 427.38297 531.126199 
C 392.615884 543.242547 354.924454 544.24062 319.564857 533.981235 
C 284.205259 523.721849 252.901289 502.705154 230.018373 473.861987 
z
"/>
   </g>
   <g id="patch_4">
    <path d="M 546.408 363.6 
C 546.408 332.91044 538.444584 302.739664 523.299034 276.047692 
C 508.153483 249.355719 486.337847 227.044966 459.99243 211.304314 
C 433.647014 195.563661 403.662517 186.925278 372.980684 186.236665 
C 342.29885 185.548052 311.956987 192.832491 284.931898 207.375313 
L 369 363.6 
z
" style="fill: #2ca02c"/>
   </g>
   <g id="patch_5">
    <path d="M 284.931898 207.375313 
C 256.718155 222.557778 233.137287 245.103399 216.704309 272.607577 
C 200.271331 300.111755 191.591997 331.560626 191.592 363.600017 
L 369 363.6 
z
" style="fill: #ff9896"/>
   </g>
   <g id="patch_6">
    <path d="M 191.592 363.600017 
C 191.592003 392.941628 198.871244 421.830019 212.775317 447.668109 
C 226.67939 473.506199 246.778761 495.495783 271.266487 511.659984 
L 369 363.6 
z
" style="fill: #aec7e8"/>
   </g>
   <g id="patch_7">
    <path d="M 271.266487 511.659984 
C 280.13232 517.512268 289.505915 522.556413 299.274236 526.731592 
C 309.042557 530.906771 319.166181 534.196135 329.523029 536.560016 
L 369 363.6 
z
" style="fill: #ff7f0e"/>
   </g>
   <g id="patch_8">
    <path d="M 329.523029 536.560016 
C 355.505874 542.490428 382.494176 542.490424 408.47702 536.560005 
C 434.459864 530.629586 458.775482 518.919797 479.612102 502.303141 
C 500.448723 485.686484 517.27565 464.586177 528.8391 440.574416 
C 540.402549 416.562655 546.408006 390.251005 546.408 363.599963 
L 369 363.6 
z
" style="fill: #9edae5"/>
   </g>
   <g id="matplotlib.axis_1"/>
   <g id="matplotlib.axis_2"/>
  </g>
 </g>
</svg>
