<?xml version="1.0" encoding="utf-8" standalone="no"?>
<!DOCTYPE svg PUBLIC "-//W3C//DTD SVG 1.1//EN"
  "http://www.w3.org/Graphics/SVG/1.1/DTD/svg11.dtd">
<svg xmlns:xlink="http://www.w3.org/1999/xlink" width="720pt" height="720pt" viewBox="0 0 720 720" xmlns="http://www.w3.org/2000/svg" version="1.1">
 <metadata>
  <rdf:RDF xmlns:dc="http://purl.org/dc/elements/1.1/" xmlns:cc="http://creativecommons.org/ns#" xmlns:rdf="http://www.w3.org/1999/02/22-rdf-syntax-ns#">
   <cc:Work>
    <dc:type rdf:resource="http://purl.org/dc/dcmitype/StillImage"/>
    <dc:date>2024-10-24T16:56:26.705404</dc:date>
    <dc:format>image/svg+xml</dc:format>
    <dc:creator>
     <cc:Agent>
      <dc:title>Matplotlib v3.8.2, https://matplotlib.org/</dc:title>
     </cc:Agent>
    </dc:creator>
   </cc:Work>
  </rdf:RDF>
 </metadata>
 <defs>
  <style type="text/css">*{stroke-linejoin: round; stroke-linecap: butt}</style>
 </defs>
 <g id="figure_1">
  <g id="patch_1">
   <path d="M 0 720 
L 720 720 
L 720 0 
L 0 0 
L 0 720 
z
" style="fill: none"/>
  </g>
  <g id="axes_1">
   <g id="patch_2">
    <path d="M 590.76 363.6 
C 590.76 335.108863 585.269301 306.882879 574.588897 280.469363 
C 563.908493 254.055846 548.237179 229.946432 528.434036 209.46277 
C 508.630893 188.979108 485.064519 172.50246 459.026793 160.936056 
C 432.989066 149.369652 404.964629 142.928779 376.489747 141.966516 
C 348.014864 141.004253 319.61954 145.538512 292.860371 155.320729 
C 266.101203 165.102947 241.476259 179.951047 220.335449 199.051074 
C 199.194639 218.151102 181.931458 241.147547 169.492252 266.779774 
C 157.053046 292.412001 149.669347 320.202915 147.745919 348.629053 
C 145.822491 377.055191 149.395137 405.587455 158.268006 432.661743 
C 167.140876 459.736031 181.148819 484.848408 199.523938 506.622243 
C 217.899057 528.396078 240.299334 546.426095 265.496814 559.72391 
C 290.694294 573.021725 318.219976 581.339826 346.564934 584.222223 
C 374.909893 587.104621 403.546543 584.497666 430.905058 576.544268 
C 458.263573 568.590871 483.834728 555.439067 506.216745 537.809823 
C 528.598761 520.18058 547.375041 498.40203 561.516292 473.668047 
C 575.657543 448.934064 584.900553 421.705023 588.738632 393.473586 
L 544.790906 387.498868 
C 541.720442 410.084018 534.326034 431.867251 523.013034 451.654437 
C 511.700033 471.441624 496.679009 488.864464 478.773396 502.967859 
C 460.867783 517.071254 440.410858 527.592696 418.524046 533.955415 
C 396.637234 540.318133 373.727914 542.403697 351.051947 540.097779 
C 328.375981 537.79186 306.355436 531.13738 286.197451 520.499128 
C 266.039467 509.860876 248.119245 495.436863 233.41915 478.017795 
C 218.719056 460.598726 207.512701 440.508825 200.414405 418.849395 
C 193.316109 397.189964 190.457993 374.364153 191.996735 351.623242 
C 193.535477 328.882332 199.442437 306.649601 209.393802 286.143819 
C 219.345167 265.638038 233.155711 247.240882 250.068359 231.96086 
C 266.981007 216.680838 286.680962 204.802358 308.088297 196.976584 
C 329.495632 189.150809 352.211891 185.523402 374.991797 186.293213 
C 397.771703 187.063023 420.191253 192.215722 441.021434 201.468845 
C 461.851615 210.721968 480.704715 223.903286 496.547229 240.290216 
C 512.389743 256.677146 524.926795 275.964677 533.471118 297.09549 
C 542.015441 318.226303 546.408 340.80709 546.408 363.6 
z
" style="opacity: 0.1"/>
   </g>
   <g id="patch_3">
    <path d="M 588.738632 393.473586 
C 589.411461 388.524518 589.916899 383.554132 590.254082 378.570933 
C 590.591265 373.587734 590.760001 368.594565 590.76 363.599971 
L 546.408 363.599977 
C 546.408001 367.595652 546.273012 371.590187 546.003266 375.576746 
C 545.733519 379.563306 545.329168 383.539614 544.790906 387.498868 
z
"/>
   </g>
   <g id="patch_4">
    <path d="M 546.408 363.6 
C 546.408 332.460709 538.209479 301.863414 522.639833 274.895998 
C 507.070188 247.928581 484.671413 225.529807 457.703995 209.960162 
C 430.736578 194.390518 400.139283 186.191999 368.999992 186.192 
C 337.860701 186.192001 307.263406 194.390524 280.29599 209.960171 
L 369 363.6 
z
" style="fill: #c7c7c7"/>
   </g>
   <g id="patch_5">
    <path d="M 280.29599 209.960171 
C 253.328574 225.529818 230.929802 247.928594 215.360158 274.896012 
C 199.790515 301.86343 191.591997 332.460726 191.592 363.600017 
C 191.592003 394.739308 199.790526 425.336602 215.360175 452.304017 
C 230.929823 479.271432 253.3286 501.670204 280.296019 517.239846 
C 307.263438 532.809488 337.860734 541.008004 369.000025 541.008 
C 400.139316 541.007996 430.736609 532.809471 457.704024 517.239821 
C 484.671439 501.670171 507.070209 479.271393 522.63985 452.303974 
C 538.209491 425.336554 546.408006 394.739258 546.408 363.599967 
L 369 363.6 
z
" style="fill: #9edae5"/>
   </g>
   <g id="matplotlib.axis_1"/>
   <g id="matplotlib.axis_2"/>
  </g>
 </g>
</svg>
