<?xml version="1.0" encoding="utf-8" standalone="no"?>
<!DOCTYPE svg PUBLIC "-//W3C//DTD SVG 1.1//EN"
  "http://www.w3.org/Graphics/SVG/1.1/DTD/svg11.dtd">
<svg xmlns:xlink="http://www.w3.org/1999/xlink" width="720pt" height="720pt" viewBox="0 0 720 720" xmlns="http://www.w3.org/2000/svg" version="1.1">
 <metadata>
  <rdf:RDF xmlns:dc="http://purl.org/dc/elements/1.1/" xmlns:cc="http://creativecommons.org/ns#" xmlns:rdf="http://www.w3.org/1999/02/22-rdf-syntax-ns#">
   <cc:Work>
    <dc:type rdf:resource="http://purl.org/dc/dcmitype/StillImage"/>
    <dc:date>2024-02-23T18:45:32.173259</dc:date>
    <dc:format>image/svg+xml</dc:format>
    <dc:creator>
     <cc:Agent>
      <dc:title>Matplotlib v3.8.2, https://matplotlib.org/</dc:title>
     </cc:Agent>
    </dc:creator>
   </cc:Work>
  </rdf:RDF>
 </metadata>
 <defs>
  <style type="text/css">*{stroke-linejoin: round; stroke-linecap: butt}</style>
 </defs>
 <g id="figure_1">
  <g id="patch_1">
   <path d="M 0 720 
L 720 720 
L 720 0 
L 0 0 
L 0 720 
z
" style="fill: none"/>
  </g>
  <g id="axes_1">
   <g id="patch_2">
    <path d="M 590.76 363.6 
C 590.76 335.753699 585.515029 308.154926 575.299939 282.249937 
C 565.084849 256.344949 550.081246 232.594288 531.075362 212.24256 
C 512.069478 191.890831 489.399203 175.299851 464.252526 163.339035 
C 439.105848 151.37822 411.929831 144.260209 384.148576 142.35801 
C 356.367321 140.45581 328.474729 143.803238 301.932452 152.224879 
C 275.390175 160.646521 250.670088 173.992653 229.067594 191.563901 
C 207.4651 209.135149 189.364253 230.619127 175.71359 254.890013 
C 162.062927 279.160898 153.105132 305.787199 149.309619 333.373619 
C 145.514106 360.960039 146.948353 389.016142 153.537201 416.071707 
C 160.126049 443.127271 171.752361 468.701298 187.806883 491.453635 
C 203.861405 514.205971 224.058718 533.732122 247.340423 549.008859 
C 270.622128 564.285596 296.574319 575.041327 323.837026 580.712421 
C 351.099733 586.383515 379.188274 586.86915 406.630728 582.143876 
C 434.073182 577.418603 460.381672 567.566429 484.177556 553.103636 
C 507.973441 538.640843 528.833672 519.824554 545.665113 497.640797 
C 562.496555 475.45704 574.999973 450.300202 582.520154 423.488575 
L 539.816123 411.51086 
C 533.799979 432.960162 523.797244 453.085632 510.332091 470.832638 
C 496.866938 488.579643 480.178753 503.632675 461.142045 515.202909 
C 442.105338 526.773143 421.058546 534.654883 399.104582 538.435101 
C 377.150619 542.21532 354.679786 541.826812 332.869621 537.289937 
C 311.059455 532.753062 290.297702 524.148477 271.672338 511.927087 
C 253.046974 499.705697 236.889124 484.084777 224.045506 465.882908 
C 211.201889 447.681039 201.90084 427.221817 196.629761 405.577365 
C 191.358683 383.932914 190.211285 361.488031 193.247695 339.418895 
C 196.284105 317.349759 203.450342 296.048719 214.370872 276.63201 
C 225.291403 257.215302 239.77208 240.028119 257.054075 225.971121 
C 274.33607 211.914123 294.11214 201.237216 315.345962 194.499904 
C 336.579783 187.762591 358.893857 185.084648 381.118861 186.606408 
C 403.343865 188.128168 425.084679 193.822576 445.20202 203.391228 
C 465.319362 212.959881 483.455582 226.232665 498.660289 242.514048 
C 513.864997 258.795431 525.867879 277.795959 534.039951 298.51995 
C 542.212023 319.243941 546.408 341.322959 546.408 363.6 
L 590.76 363.6 
z
" style="fill: none; opacity: 0"/>
   </g>
   <g id="patch_3">
    <path d="M 582.520154 423.488575 
C 585.250695 413.753405 587.312248 403.842879 588.69038 393.826386 
C 590.068512 383.809893 590.76 373.710865 590.76 363.60001 
L 546.408 363.600008 
C 546.408 371.688692 545.85481 379.767915 544.752304 387.781109 
C 543.649798 395.794303 542.000556 403.722724 539.816123 411.51086 
z
" style="stroke: #ffffff; stroke-linejoin: miter"/>
   </g>
   <g id="patch_4">
    <path d="M 546.408 363.6 
C 546.408 316.566518 527.704094 271.411294 494.4464 238.1536 
C 461.188706 204.895906 416.033482 186.192 369 186.192 
C 321.966518 186.192 276.811294 204.895906 243.5536 238.1536 
C 210.295906 271.411294 191.592 316.566518 191.592 363.6 
L 369 363.6 
z
" style="fill: #d62728; stroke: #ffffff; stroke-linejoin: miter"/>
   </g>
   <g id="patch_5">
    <path d="M 191.592 363.6 
C 191.592 410.633482 210.295906 455.788706 243.5536 489.0464 
C 276.811294 522.304094 321.966518 541.008 369 541.008 
C 416.033482 541.008 461.188706 522.304094 494.4464 489.0464 
C 527.704094 455.788706 546.408 410.633482 546.408 363.6 
L 369 363.6 
z
" style="fill: #9edae5; stroke: #ffffff; stroke-linejoin: miter"/>
   </g>
   <g id="matplotlib.axis_1"/>
   <g id="matplotlib.axis_2"/>
  </g>
 </g>
</svg>
