<?xml version="1.0" encoding="utf-8" standalone="no"?>
<!DOCTYPE svg PUBLIC "-//W3C//DTD SVG 1.1//EN"
  "http://www.w3.org/Graphics/SVG/1.1/DTD/svg11.dtd">
<svg xmlns:xlink="http://www.w3.org/1999/xlink" width="720pt" height="720pt" viewBox="0 0 720 720" xmlns="http://www.w3.org/2000/svg" version="1.1">
 <metadata>
  <rdf:RDF xmlns:dc="http://purl.org/dc/elements/1.1/" xmlns:cc="http://creativecommons.org/ns#" xmlns:rdf="http://www.w3.org/1999/02/22-rdf-syntax-ns#">
   <cc:Work>
    <dc:type rdf:resource="http://purl.org/dc/dcmitype/StillImage"/>
    <dc:date>2024-02-23T18:45:32.252445</dc:date>
    <dc:format>image/svg+xml</dc:format>
    <dc:creator>
     <cc:Agent>
      <dc:title>Matplotlib v3.8.2, https://matplotlib.org/</dc:title>
     </cc:Agent>
    </dc:creator>
   </cc:Work>
  </rdf:RDF>
 </metadata>
 <defs>
  <style type="text/css">*{stroke-linejoin: round; stroke-linecap: butt}</style>
 </defs>
 <g id="figure_1">
  <g id="patch_1">
   <path d="M 0 720 
L 720 720 
L 720 0 
L 0 0 
L 0 720 
z
" style="fill: none"/>
  </g>
  <g id="axes_1">
   <g id="patch_2">
    <path d="M 590.76 363.6 
C 590.76 320.849267 578.397817 278.996944 555.169331 243.107354 
C 531.940846 207.217765 498.822355 178.799354 459.821349 161.29088 
C 420.820343 143.782405 377.576039 137.919752 335.321197 144.412327 
C 293.066356 150.904903 253.576954 169.479823 221.631391 197.889437 
L 251.105113 231.03155 
C 276.661563 208.303858 308.253085 193.443922 342.056958 188.249862 
C 375.860831 183.055802 410.456274 187.745924 441.657079 201.752704 
C 472.857884 215.759483 499.352677 238.494212 517.935465 267.205884 
C 536.518253 295.917555 546.408 329.399414 546.408 363.6 
L 590.76 363.6 
z
" style="fill: none; opacity: 0"/>
   </g>
   <g id="patch_3">
    <path d="M 221.631391 197.889437 
C 193.971522 222.487727 172.905648 253.624335 160.361779 288.44955 
C 147.817909 323.274764 144.190771 360.692718 149.812329 397.278813 
C 155.433887 433.864908 170.127245 468.467865 192.547624 497.920723 
C 214.968003 527.373581 244.409887 550.749527 278.17867 565.909129 
C 311.947453 581.06873 348.980512 587.53495 385.888473 584.715981 
C 422.796435 581.897012 458.417894 569.88156 489.492672 549.769315 
C 520.567449 529.657069 546.117696 502.080914 563.80498 469.564699 
C 581.492263 437.048484 590.760007 400.615418 590.76 363.599958 
L 546.408 363.599967 
C 546.408006 393.212334 538.993811 422.358788 524.843984 448.371759 
C 510.694157 474.384731 490.253959 496.445655 465.394137 512.535452 
C 440.534315 528.625248 412.037148 538.23761 382.510779 540.492785 
C 352.984409 542.74796 323.357962 537.574984 296.342936 525.447303 
C 269.32791 513.319622 245.774402 494.618864 227.838099 471.056578 
C 209.901796 447.494292 198.14711 419.811926 193.649863 390.54305 
C 189.152617 361.274175 192.054328 331.339812 202.089423 303.47964 
C 212.124518 275.619468 228.977217 250.710182 251.105113 231.03155 
z
" style="stroke: #ffffff; stroke-linejoin: miter"/>
   </g>
   <g id="patch_4">
    <path d="M 546.408 363.6 
C 546.408 335.39867 539.683543 307.599628 526.794204 282.516168 
C 513.904864 257.432709 495.218372 235.780455 472.289721 219.361198 
C 449.361071 202.941941 422.844409 192.224118 394.946319 188.09961 
C 367.048229 183.975102 338.564633 186.561581 311.865793 195.643813 
L 369 363.6 
z
" style="fill: #c7c7c7; stroke: #ffffff; stroke-linejoin: miter"/>
   </g>
   <g id="patch_5">
    <path d="M 311.865793 195.643813 
C 289.484707 203.25726 268.849533 215.268075 251.175698 230.968811 
C 233.501862 246.669547 219.143316 265.74577 208.945789 287.073873 
C 198.748262 308.401977 192.915977 331.554829 191.792461 355.168708 
C 190.668945 378.782587 194.276698 402.384583 202.403221 424.58452 
L 369 363.6 
z
" style="fill: #7f7f7f; stroke: #ffffff; stroke-linejoin: miter"/>
   </g>
   <g id="patch_6">
    <path d="M 202.403221 424.58452 
C 208.535651 441.337019 217.160026 457.069106 227.984922 471.249182 
C 238.809818 485.429257 251.711918 497.895782 266.255249 508.227503 
L 369 363.6 
z
" style="fill: #d62728; stroke: #ffffff; stroke-linejoin: miter"/>
   </g>
   <g id="patch_7">
    <path d="M 266.255249 508.227503 
C 292.794749 527.081416 324.018766 538.271412 356.492563 540.566557 
C 388.966359 542.861703 421.45387 536.174636 450.381371 521.240956 
C 479.308872 506.307275 503.575283 483.695407 520.511224 455.892727 
C 537.447165 428.090046 546.407997 396.154818 546.408 363.600017 
L 369 363.6 
z
" style="fill: #9edae5; stroke: #ffffff; stroke-linejoin: miter"/>
   </g>
   <g id="matplotlib.axis_1"/>
   <g id="matplotlib.axis_2"/>
  </g>
 </g>
</svg>
