<?xml version="1.0" encoding="utf-8" standalone="no"?>
<!DOCTYPE svg PUBLIC "-//W3C//DTD SVG 1.1//EN"
  "http://www.w3.org/Graphics/SVG/1.1/DTD/svg11.dtd">
<svg xmlns:xlink="http://www.w3.org/1999/xlink" width="720pt" height="720pt" viewBox="0 0 720 720" xmlns="http://www.w3.org/2000/svg" version="1.1">
 <metadata>
  <rdf:RDF xmlns:dc="http://purl.org/dc/elements/1.1/" xmlns:cc="http://creativecommons.org/ns#" xmlns:rdf="http://www.w3.org/1999/02/22-rdf-syntax-ns#">
   <cc:Work>
    <dc:type rdf:resource="http://purl.org/dc/dcmitype/StillImage"/>
    <dc:date>2024-02-23T18:45:31.752866</dc:date>
    <dc:format>image/svg+xml</dc:format>
    <dc:creator>
     <cc:Agent>
      <dc:title>Matplotlib v3.8.2, https://matplotlib.org/</dc:title>
     </cc:Agent>
    </dc:creator>
   </cc:Work>
  </rdf:RDF>
 </metadata>
 <defs>
  <style type="text/css">*{stroke-linejoin: round; stroke-linecap: butt}</style>
 </defs>
 <g id="figure_1">
  <g id="patch_1">
   <path d="M 0 720 
L 720 720 
L 720 0 
L 0 0 
L 0 720 
z
" style="fill: none"/>
  </g>
  <g id="axes_1">
   <g id="patch_2">
    <path d="M 590.76 363.6 
C 590.76 336.034075 585.620117 308.708265 575.604381 283.026262 
C 565.588645 257.344259 550.871542 233.753474 532.209069 213.465735 
C 513.546596 193.177996 491.263877 176.54674 466.505546 164.426291 
C 441.747214 152.305843 414.94459 144.907356 387.474489 142.610881 
C 360.004388 140.314405 332.345373 143.159949 305.91825 151.00134 
C 279.491127 158.842731 254.756288 171.543362 232.984331 188.45082 
C 211.212374 205.358277 192.782591 226.178012 178.641697 249.840543 
C 164.500803 273.503074 154.895148 299.59617 150.318163 326.779463 
C 145.741178 353.962757 146.2726 381.762683 151.885129 408.751194 
C 157.497658 435.739706 168.093518 461.446631 183.128413 484.55144 
C 198.163308 507.656248 217.375313 527.756426 239.777532 543.819453 
C 262.17975 559.88248 287.381909 571.62852 314.089407 578.454193 
C 340.796904 585.279867 368.544464 587.066262 395.906729 583.721615 
C 423.268995 580.376968 449.769283 571.959547 474.046309 558.901742 
C 498.323335 545.843938 519.954164 528.373233 537.827647 507.387075 
C 555.701131 486.400918 569.505893 462.264911 578.5328 436.21889 
L 536.62624 421.695112 
C 529.404715 442.531929 518.360905 461.840734 504.062118 478.62966 
C 489.763331 495.418586 472.458668 509.39515 453.037047 519.841394 
C 433.615427 530.287637 412.415196 537.021575 390.525384 539.697292 
C 368.635571 542.37301 346.437523 540.943893 325.071525 535.483355 
C 303.705527 530.022816 283.5438 520.625984 265.622025 507.775562 
C 247.70025 494.925141 232.330647 478.844998 220.30273 460.361152 
C 208.274814 441.877305 199.798126 421.311765 195.308103 399.720955 
C 190.81808 378.130146 190.392943 355.890206 194.054531 334.143571 
C 197.716119 312.396936 205.400642 291.522459 216.713358 272.592434 
C 228.026073 253.66241 242.769899 237.006622 260.187465 223.480656 
C 277.605031 209.95469 297.392901 199.794184 318.5346 193.521072 
C 339.676298 187.247959 361.803511 184.971524 383.779591 186.808705 
C 405.755672 188.645885 427.197771 194.564675 447.004436 204.261033 
C 466.811102 213.957392 484.637277 227.262397 499.567255 243.492588 
C 514.497233 259.722779 526.270916 278.595407 534.283505 299.14101 
C 542.296094 319.686612 546.408 341.54726 546.408 363.6 
L 590.76 363.6 
z
" style="fill: none; opacity: 0"/>
   </g>
   <g id="patch_3">
    <path d="M 578.5328 436.21889 
C 582.572997 424.561402 585.6333 412.587052 587.681834 400.420552 
C 589.730368 388.254052 590.759998 375.937787 590.76 363.600031 
L 546.408 363.600025 
C 546.407999 373.47023 545.584295 383.323241 543.945467 393.056442 
C 542.30664 402.789642 539.858398 412.369122 536.62624 421.695112 
z
" style="stroke: #ffffff; stroke-linejoin: miter"/>
   </g>
   <g id="patch_4">
    <path d="M 546.408 363.6 
C 546.408 316.566518 527.704094 271.411294 494.4464 238.1536 
C 461.188706 204.895906 416.033482 186.192 369 186.192 
C 321.966518 186.192 276.811294 204.895906 243.5536 238.1536 
C 210.295906 271.411294 191.592 316.566518 191.592 363.6 
L 369 363.6 
z
" style="fill: #d62728; stroke: #ffffff; stroke-linejoin: miter"/>
   </g>
   <g id="patch_5">
    <path d="M 191.592 363.6 
C 191.592 410.633482 210.295906 455.788706 243.5536 489.0464 
C 276.811294 522.304094 321.966518 541.008 369 541.008 
C 416.033482 541.008 461.188706 522.304094 494.4464 489.0464 
C 527.704094 455.788706 546.408 410.633482 546.408 363.6 
L 369 363.6 
z
" style="fill: #9edae5; stroke: #ffffff; stroke-linejoin: miter"/>
   </g>
   <g id="matplotlib.axis_1"/>
   <g id="matplotlib.axis_2"/>
  </g>
 </g>
</svg>
