<?xml version="1.0" encoding="utf-8" standalone="no"?>
<!DOCTYPE svg PUBLIC "-//W3C//DTD SVG 1.1//EN"
  "http://www.w3.org/Graphics/SVG/1.1/DTD/svg11.dtd">
<svg xmlns:xlink="http://www.w3.org/1999/xlink" width="720pt" height="720pt" viewBox="0 0 720 720" xmlns="http://www.w3.org/2000/svg" version="1.1">
 <metadata>
  <rdf:RDF xmlns:dc="http://purl.org/dc/elements/1.1/" xmlns:cc="http://creativecommons.org/ns#" xmlns:rdf="http://www.w3.org/1999/02/22-rdf-syntax-ns#">
   <cc:Work>
    <dc:type rdf:resource="http://purl.org/dc/dcmitype/StillImage"/>
    <dc:date>2024-02-23T18:45:32.753776</dc:date>
    <dc:format>image/svg+xml</dc:format>
    <dc:creator>
     <cc:Agent>
      <dc:title>Matplotlib v3.8.2, https://matplotlib.org/</dc:title>
     </cc:Agent>
    </dc:creator>
   </cc:Work>
  </rdf:RDF>
 </metadata>
 <defs>
  <style type="text/css">*{stroke-linejoin: round; stroke-linecap: butt}</style>
 </defs>
 <g id="figure_1">
  <g id="patch_1">
   <path d="M 0 720 
L 720 720 
L 720 0 
L 0 0 
L 0 720 
z
" style="fill: none"/>
  </g>
  <g id="axes_1">
   <g id="patch_2">
    <path d="M 590.76 363.6 
C 590.76 334.582664 585.064615 305.845471 573.997504 279.021511 
C 562.930394 252.197551 546.705249 227.804757 526.244119 207.229336 
C 505.78299 186.653915 481.480952 170.293149 454.719055 159.076795 
C 427.957157 147.860442 399.252133 142.005073 370.235248 141.84344 
C 341.218362 141.681808 312.44989 147.217033 285.5647 158.134557 
C 258.67951 169.052081 234.196718 185.141101 213.507643 205.487304 
C 192.818569 225.833507 176.322689 250.044035 164.957441 276.74304 
C 153.592192 303.442045 147.577021 332.114008 147.253761 361.129543 
C 146.930501 390.145078 152.305394 418.943936 163.072993 445.889521 
C 173.840591 472.835107 189.792988 497.407139 210.023633 518.209225 
C 230.254278 539.011311 254.372545 555.641792 281.007829 567.155583 
C 307.643114 578.669375 336.281125 584.844161 365.29441 585.329038 
C 394.307694 585.813915 423.136045 580.599521 450.14119 569.982182 
C 477.146335 559.364842 501.806844 543.549564 522.721296 523.435105 
C 543.635748 503.320646 560.400315 479.295388 572.062291 452.724651 
C 583.724268 426.153914 590.058478 397.550741 590.704957 368.540608 
L 546.363966 367.552487 
C 545.846782 390.760593 540.779414 413.643131 531.449833 434.899721 
C 522.120252 456.156311 508.708598 475.376517 491.977037 491.468084 
C 475.245475 507.559651 455.517068 520.211874 433.912952 528.705745 
C 412.308836 537.199617 389.246155 541.371132 366.035528 540.98323 
C 342.8249 540.595329 319.914491 535.6555 298.606263 526.444467 
C 277.298036 517.233434 258.003422 503.929049 241.818906 487.28738 
C 225.634391 470.645711 212.872473 450.988086 204.258394 429.431617 
C 195.644315 407.875149 191.344401 384.836062 191.603009 361.623634 
C 191.861617 338.411206 196.673753 315.473636 205.765952 294.114432 
C 214.858151 272.755228 228.054855 253.386805 244.606115 237.109843 
C 261.157374 220.832881 280.743608 207.961665 302.25176 199.227645 
C 323.759912 190.493626 346.77469 186.065446 369.988198 186.194752 
C 393.201707 186.324058 416.165725 191.008353 437.575244 199.981436 
C 458.984762 208.954519 478.426392 222.043132 494.795296 238.503469 
C 511.164199 254.963806 524.144315 274.478041 532.998003 295.937209 
C 541.851692 317.396377 546.408 340.386132 546.408 363.6 
L 590.76 363.6 
z
" style="fill: none; opacity: 0"/>
   </g>
   <g id="patch_3">
    <path d="M 590.704957 368.540608 
C 590.723304 367.717312 590.737065 366.89392 590.746239 366.070471 
C 590.755413 365.247022 590.76 364.423528 590.76 363.600027 
L 546.408 363.600022 
C 546.408 364.258822 546.40433 364.917617 546.396991 365.576377 
C 546.389652 366.235136 546.378643 366.89385 546.363966 367.552487 
z
" style="stroke: #ffffff; stroke-linejoin: miter"/>
   </g>
   <g id="patch_4">
    <path d="M 546.408 363.6 
C 546.408 340.302995 541.818998 317.232524 532.90362 295.708898 
C 523.988242 274.185271 510.91987 254.62707 494.4464 238.1536 
C 477.97293 221.68013 458.414729 208.611758 436.891102 199.69638 
C 415.367476 190.781002 392.297005 186.192 369 186.192 
C 345.702995 186.192 322.632524 190.781002 301.108898 199.69638 
C 279.585271 208.611758 260.02707 221.68013 243.5536 238.1536 
C 227.08013 254.62707 214.011758 274.185271 205.09638 295.708898 
C 196.181002 317.232524 191.592 340.302995 191.592 363.6 
C 191.592 386.897005 196.181002 409.967476 205.09638 431.491102 
C 214.011758 453.014729 227.08013 472.57293 243.5536 489.0464 
C 260.02707 505.51987 279.585271 518.588242 301.108898 527.50362 
C 322.632524 536.418998 345.702995 541.008 369 541.008 
C 392.297005 541.008 415.367476 536.418998 436.891102 527.50362 
C 458.414729 518.588242 477.97293 505.51987 494.4464 489.0464 
C 510.91987 472.57293 523.988242 453.014729 532.90362 431.491102 
C 541.818998 409.967476 546.408 386.897005 546.408 363.6 
M 369 363.6 
z
" style="fill: #f7b6d2; stroke: #ffffff; stroke-linejoin: miter"/>
   </g>
   <g id="matplotlib.axis_1"/>
   <g id="matplotlib.axis_2"/>
  </g>
 </g>
</svg>
