<?xml version="1.0" encoding="utf-8" standalone="no"?>
<!DOCTYPE svg PUBLIC "-//W3C//DTD SVG 1.1//EN"
  "http://www.w3.org/Graphics/SVG/1.1/DTD/svg11.dtd">
<svg xmlns:xlink="http://www.w3.org/1999/xlink" width="720pt" height="720pt" viewBox="0 0 720 720" xmlns="http://www.w3.org/2000/svg" version="1.1">
 <metadata>
  <rdf:RDF xmlns:dc="http://purl.org/dc/elements/1.1/" xmlns:cc="http://creativecommons.org/ns#" xmlns:rdf="http://www.w3.org/1999/02/22-rdf-syntax-ns#">
   <cc:Work>
    <dc:type rdf:resource="http://purl.org/dc/dcmitype/StillImage"/>
    <dc:date>2024-02-23T18:45:31.442490</dc:date>
    <dc:format>image/svg+xml</dc:format>
    <dc:creator>
     <cc:Agent>
      <dc:title>Matplotlib v3.8.2, https://matplotlib.org/</dc:title>
     </cc:Agent>
    </dc:creator>
   </cc:Work>
  </rdf:RDF>
 </metadata>
 <defs>
  <style type="text/css">*{stroke-linejoin: round; stroke-linecap: butt}</style>
 </defs>
 <g id="figure_1">
  <g id="patch_1">
   <path d="M 0 720 
L 720 720 
L 720 0 
L 0 0 
L 0 720 
z
" style="fill: none"/>
  </g>
  <g id="axes_1">
   <g id="patch_2">
    <path d="M 590.76 363.6 
C 590.76 337.943243 586.307422 312.48003 577.600801 288.34574 
C 568.894179 264.21145 556.064875 241.770203 539.684931 222.022629 
C 523.304988 202.275056 503.621534 185.519093 481.512234 172.501871 
C 459.402934 159.48465 435.201357 150.402563 409.986625 145.660572 
C 384.771892 140.918581 358.924426 140.58823 333.596737 144.684248 
C 308.269048 148.780266 283.843261 157.240855 261.408496 169.688768 
C 238.973731 182.136681 218.868467 198.384112 201.989177 217.706605 
C 185.109887 237.029099 171.711232 259.135132 162.390644 283.039019 
C 153.070056 306.942907 147.968158 332.284006 147.312437 357.932382 
C 146.656716 383.580759 150.457065 409.149451 158.544032 433.498376 
C 166.630998 457.847302 178.882572 480.609103 194.752467 500.768855 
C 210.622363 520.928608 229.871148 538.182156 251.640539 551.760183 
C 273.40993 565.33821 297.371487 575.03586 322.45679 580.420726 
C 347.542093 585.805592 373.372673 586.79643 398.796773 583.349061 
C 424.220873 579.901692 448.854912 572.068127 471.600485 560.197655 
C 494.346059 548.327184 514.859998 532.598899 532.227608 513.714108 
L 499.582087 483.691287 
C 485.687998 498.799119 469.276847 511.381747 451.080388 520.878124 
C 432.88393 530.374501 413.176698 536.641354 392.837418 539.399249 
C 372.498139 542.157144 351.833674 541.364473 331.765432 537.056581 
C 311.69719 532.748688 292.527944 524.990568 275.112431 514.128146 
C 257.696918 503.265725 242.29789 489.462886 229.601974 473.335084 
C 216.906057 457.207283 207.104799 438.997841 200.635225 419.518701 
C 194.165652 400.039561 191.125373 379.584607 191.649949 359.065906 
C 192.174526 338.547205 196.256045 318.274326 203.712515 299.151216 
C 211.168985 280.028105 221.887909 262.343279 235.391342 246.885284 
C 248.894774 231.427289 264.978985 218.429345 282.926797 208.471014 
C 300.874609 198.512684 320.415238 191.744213 340.67739 188.467398 
C 360.939541 185.190584 381.617514 185.454865 401.7893 189.248458 
C 421.961086 193.04205 441.322348 200.30772 459.009787 210.721497 
C 476.697227 221.135274 492.44399 234.540045 505.547945 250.338104 
C 518.6519 266.136162 528.915344 284.08916 535.88064 303.396592 
C 542.845937 322.704024 546.408 343.074594 546.408 363.6 
L 590.76 363.6 
z
" style="fill: none; opacity: 0"/>
   </g>
   <g id="patch_3">
    <path d="M 532.227608 513.714108 
C 550.884463 493.427449 565.596884 469.839304 575.609362 444.160966 
C 585.62184 418.482628 590.760004 391.161296 590.76 363.599969 
L 546.408 363.599975 
C 546.408003 385.649037 542.297472 407.506103 534.287489 428.048773 
C 526.277507 448.591443 514.50757 467.461959 499.582087 483.691287 
z
" style="stroke: #ffffff; stroke-linejoin: miter"/>
   </g>
   <g id="patch_4">
    <path d="M 546.408 363.6 
C 546.408 340.302995 541.818998 317.232524 532.90362 295.708898 
C 523.988242 274.185271 510.91987 254.62707 494.4464 238.1536 
C 477.97293 221.68013 458.414729 208.611758 436.891102 199.69638 
C 415.367476 190.781002 392.297005 186.192 369 186.192 
C 345.702995 186.192 322.632524 190.781002 301.108898 199.69638 
C 279.585271 208.611758 260.02707 221.68013 243.5536 238.1536 
C 227.08013 254.62707 214.011758 274.185271 205.09638 295.708898 
C 196.181002 317.232524 191.592 340.302995 191.592 363.6 
C 191.592 386.897005 196.181002 409.967476 205.09638 431.491102 
C 214.011758 453.014729 227.08013 472.57293 243.5536 489.0464 
C 260.02707 505.51987 279.585271 518.588242 301.108898 527.50362 
C 322.632524 536.418998 345.702995 541.008 369 541.008 
C 392.297005 541.008 415.367476 536.418998 436.891102 527.50362 
C 458.414729 518.588242 477.97293 505.51987 494.4464 489.0464 
C 510.91987 472.57293 523.988242 453.014729 532.90362 431.491102 
C 541.818998 409.967476 546.408 386.897005 546.408 363.6 
M 369 363.6 
z
" style="fill: #9edae5; stroke: #ffffff; stroke-linejoin: miter"/>
   </g>
   <g id="matplotlib.axis_1"/>
   <g id="matplotlib.axis_2"/>
  </g>
 </g>
</svg>
