<?xml version="1.0" encoding="utf-8" standalone="no"?>
<!DOCTYPE svg PUBLIC "-//W3C//DTD SVG 1.1//EN"
  "http://www.w3.org/Graphics/SVG/1.1/DTD/svg11.dtd">
<svg xmlns:xlink="http://www.w3.org/1999/xlink" width="720pt" height="720pt" viewBox="0 0 720 720" xmlns="http://www.w3.org/2000/svg" version="1.1">
 <metadata>
  <rdf:RDF xmlns:dc="http://purl.org/dc/elements/1.1/" xmlns:cc="http://creativecommons.org/ns#" xmlns:rdf="http://www.w3.org/1999/02/22-rdf-syntax-ns#">
   <cc:Work>
    <dc:type rdf:resource="http://purl.org/dc/dcmitype/StillImage"/>
    <dc:date>2024-02-23T18:45:31.659110</dc:date>
    <dc:format>image/svg+xml</dc:format>
    <dc:creator>
     <cc:Agent>
      <dc:title>Matplotlib v3.8.2, https://matplotlib.org/</dc:title>
     </cc:Agent>
    </dc:creator>
   </cc:Work>
  </rdf:RDF>
 </metadata>
 <defs>
  <style type="text/css">*{stroke-linejoin: round; stroke-linecap: butt}</style>
 </defs>
 <g id="figure_1">
  <g id="patch_1">
   <path d="M 0 720 
L 720 720 
L 720 0 
L 0 0 
L 0 720 
z
" style="fill: none"/>
  </g>
  <g id="axes_1">
   <g id="patch_2">
    <path d="M 590.76 363.6 
C 590.76 335.695152 585.492951 308.039399 575.236005 282.08799 
C 564.97906 256.136581 549.915337 232.352832 530.837491 211.988246 
C 511.759646 191.62366 489.008279 175.04181 463.780569 163.115234 
C 438.552859 151.188659 411.299201 144.130285 383.453687 142.311526 
C 355.608173 140.492768 327.667933 143.946094 301.103186 152.489791 
C 274.538439 161.033489 249.82345 174.515024 228.258725 192.224999 
C 206.694 209.934973 188.664538 231.557206 175.119051 255.953935 
C 161.573565 280.350663 152.753884 307.086326 149.124101 334.754091 
C 145.494317 362.421856 147.119236 390.527765 153.913352 417.592882 
C 160.707468 444.657999 172.549485 470.199124 188.816275 492.872282 
C 205.083065 515.54544 225.484215 534.945842 248.946212 550.052636 
C 272.408209 565.159431 298.512183 575.702913 325.884539 581.128285 
C 353.256896 586.553656 381.408951 586.764056 408.85934 581.748414 
C 436.30973 576.732772 462.568377 566.580632 486.253548 551.826202 
C 509.938719 537.071772 530.627559 517.978464 547.231418 495.550972 
C 563.835278 473.12348 576.057725 447.762205 583.255613 420.801661 
L 540.40449 409.361328 
C 534.64618 430.929764 524.868222 451.218784 511.585135 469.160778 
C 498.302047 487.102772 481.750975 502.377417 462.802838 514.180962 
C 443.854701 525.984506 422.847784 534.106217 400.887472 538.118731 
C 378.927161 542.131245 356.405517 541.962925 334.507631 537.622628 
C 312.609746 533.282331 291.726567 524.847544 272.956969 512.762109 
C 254.187372 500.676673 237.866452 485.156352 224.85302 467.017826 
C 211.839588 448.879299 202.365974 428.446399 196.930681 406.794306 
C 191.495388 385.142212 190.195454 362.657485 193.09928 340.523273 
C 196.003107 318.389061 203.058852 297.00053 213.895241 277.483148 
C 224.73163 257.965765 239.1552 240.667978 256.40698 226.499999 
C 273.65876 212.332019 293.430751 201.546791 314.682549 194.711833 
C 335.934346 187.876875 358.286538 185.114214 380.56295 186.569221 
C 402.839361 188.024228 424.642287 193.670927 444.824455 203.212187 
C 465.006623 212.753448 483.207717 226.018928 498.469993 242.310597 
C 513.732269 258.602266 525.783248 277.629265 533.988804 298.390392 
C 542.194361 319.151519 546.408 341.276121 546.408 363.6 
L 590.76 363.6 
z
" style="fill: none; opacity: 0"/>
   </g>
   <g id="patch_3">
    <path d="M 583.255613 420.801661 
C 585.743751 411.482043 587.621169 402.010004 588.875898 392.445916 
C 590.130628 382.881829 590.759999 373.246057 590.76 363.600016 
L 546.408 363.600012 
C 546.407999 371.316845 545.904503 379.025463 544.900719 386.676733 
C 543.896935 394.328003 542.395001 401.905634 540.40449 409.361328 
z
" style="stroke: #ffffff; stroke-linejoin: miter"/>
   </g>
   <g id="patch_4">
    <path d="M 546.408 363.6 
C 546.408 340.302995 541.818998 317.232524 532.90362 295.708898 
C 523.988242 274.185271 510.91987 254.62707 494.4464 238.1536 
C 477.97293 221.68013 458.414729 208.611758 436.891102 199.69638 
C 415.367476 190.781002 392.297005 186.192 369 186.192 
C 345.702995 186.192 322.632524 190.781002 301.108898 199.69638 
C 279.585271 208.611758 260.02707 221.68013 243.5536 238.1536 
C 227.08013 254.62707 214.011758 274.185271 205.09638 295.708898 
C 196.181002 317.232524 191.592 340.302995 191.592 363.6 
C 191.592 386.897005 196.181002 409.967476 205.09638 431.491102 
C 214.011758 453.014729 227.08013 472.57293 243.5536 489.0464 
C 260.02707 505.51987 279.585271 518.588242 301.108898 527.50362 
C 322.632524 536.418998 345.702995 541.008 369 541.008 
C 392.297005 541.008 415.367476 536.418998 436.891102 527.50362 
C 458.414729 518.588242 477.97293 505.51987 494.4464 489.0464 
C 510.91987 472.57293 523.988242 453.014729 532.90362 431.491102 
C 541.818998 409.967476 546.408 386.897005 546.408 363.6 
M 369 363.6 
z
" style="fill: #d62728; stroke: #ffffff; stroke-linejoin: miter"/>
   </g>
   <g id="matplotlib.axis_1"/>
   <g id="matplotlib.axis_2"/>
  </g>
 </g>
</svg>
