<?xml version="1.0" encoding="utf-8" standalone="no"?>
<!DOCTYPE svg PUBLIC "-//W3C//DTD SVG 1.1//EN"
  "http://www.w3.org/Graphics/SVG/1.1/DTD/svg11.dtd">
<svg xmlns:xlink="http://www.w3.org/1999/xlink" width="720pt" height="720pt" viewBox="0 0 720 720" xmlns="http://www.w3.org/2000/svg" version="1.1">
 <metadata>
  <rdf:RDF xmlns:dc="http://purl.org/dc/elements/1.1/" xmlns:cc="http://creativecommons.org/ns#" xmlns:rdf="http://www.w3.org/1999/02/22-rdf-syntax-ns#">
   <cc:Work>
    <dc:type rdf:resource="http://purl.org/dc/dcmitype/StillImage"/>
    <dc:date>2024-02-23T18:45:32.306638</dc:date>
    <dc:format>image/svg+xml</dc:format>
    <dc:creator>
     <cc:Agent>
      <dc:title>Matplotlib v3.8.2, https://matplotlib.org/</dc:title>
     </cc:Agent>
    </dc:creator>
   </cc:Work>
  </rdf:RDF>
 </metadata>
 <defs>
  <style type="text/css">*{stroke-linejoin: round; stroke-linecap: butt}</style>
 </defs>
 <g id="figure_1">
  <g id="patch_1">
   <path d="M 0 720 
L 720 720 
L 720 0 
L 0 0 
L 0 720 
z
" style="fill: none"/>
  </g>
  <g id="axes_1">
   <g id="patch_2">
    <path d="M 590.76 363.6 
C 590.76 338.160477 586.382502 312.909618 577.819444 288.95459 
C 569.256387 264.999561 556.63478 242.695673 540.50804 223.020877 
C 524.3813 203.346081 504.988625 186.592201 483.180318 173.493839 
C 461.372011 160.395476 437.471542 151.146911 412.526867 146.153663 
C 387.582193 141.160415 361.9633 140.496545 336.793494 144.191161 
C 311.623688 147.885778 287.276295 155.884081 264.818869 167.835372 
C 242.361443 179.786663 222.12708 195.513676 205.00299 214.326833 
C 187.878901 233.13999 174.119074 254.760248 164.326834 278.23963 
C 154.534594 301.719011 148.855183 326.709263 147.537624 352.114644 
C 146.220064 377.520024 149.283899 402.963713 156.594789 427.330088 
C 163.90568 451.696462 175.355188 474.624113 190.44129 495.107736 
C 205.527393 515.59136 224.026327 533.327137 245.126977 547.537413 
C 266.227626 561.747688 289.617019 572.221689 314.269606 578.500167 
C 338.922193 584.778644 364.47232 586.768472 389.799696 584.382405 
C 415.127073 581.996337 439.856036 575.269764 462.902301 564.497624 
C 485.948566 553.725484 506.970303 539.067554 525.045779 521.166534 
L 493.836623 489.653227 
C 479.376243 503.974043 462.558853 515.700388 444.121841 524.3181 
C 425.684829 532.935811 405.901658 538.31707 385.639757 540.225924 
C 365.377856 542.134778 344.937755 540.542915 325.215685 535.520133 
C 305.493615 530.497351 286.782101 522.11815 269.901581 510.74993 
C 253.021062 499.38171 238.221914 485.193088 226.153032 468.806189 
C 214.08415 452.41929 204.924544 434.07717 199.075831 414.58407 
C 193.227119 395.09097 190.776051 374.736019 191.830099 354.411715 
C 192.884146 334.08741 197.427676 314.095209 205.261467 295.311704 
C 213.095259 276.528198 224.10312 259.231992 237.802392 244.181466 
C 251.501664 229.130941 267.689155 216.54933 285.655095 206.988298 
C 303.621036 197.427265 323.09895 191.028622 343.234795 188.072929 
C 363.37064 185.117236 383.865754 185.648332 403.821494 189.642931 
C 423.777234 193.637529 442.897609 201.036381 460.344254 211.515071 
C 477.7909 221.993761 493.30504 235.396865 506.206432 251.136702 
C 519.107824 266.876539 529.205109 284.719649 536.055555 303.883672 
C 542.906001 323.047694 546.408 343.248382 546.408 363.6 
L 590.76 363.6 
z
" style="fill: none; opacity: 0"/>
   </g>
   <g id="patch_3">
    <path d="M 525.045779 521.166534 
C 545.865802 500.547455 562.3941 476.004802 573.673174 448.960351 
C 584.952247 421.915901 590.760005 392.902173 590.76 363.599958 
L 546.408 363.599967 
C 546.408004 387.041739 541.761798 410.252721 532.738539 431.888281 
C 523.71528 453.523841 510.492642 473.157964 493.836623 489.653227 
z
" style="stroke: #ffffff; stroke-linejoin: miter"/>
   </g>
   <g id="patch_4">
    <path d="M 546.408 363.6 
C 546.408 333.033059 538.508093 302.978693 523.477322 276.362649 
C 508.446551 249.746605 486.789017 227.461527 460.613048 211.676835 
C 434.437078 195.892144 404.620559 187.137222 374.066084 186.264349 
C 343.511608 185.391475 313.243908 192.429925 286.209497 206.694515 
L 369 363.6 
z
" style="fill: #1f77b4; stroke: #ffffff; stroke-linejoin: miter"/>
   </g>
   <g id="patch_5">
    <path d="M 286.209497 206.694515 
C 250.012745 225.793576 221.516775 256.841975 205.585304 294.540347 
C 189.653833 332.238719 187.247939 374.312881 198.778262 413.581579 
L 369 363.6 
z
" style="fill: #d62728; stroke: #ffffff; stroke-linejoin: miter"/>
   </g>
   <g id="patch_6">
    <path d="M 198.778262 413.581579 
C 210.308584 452.850277 235.079548 486.944599 268.863225 510.045296 
C 302.646901 533.145993 343.405265 543.859499 384.181644 540.357224 
L 369 363.6 
z
" style="fill: #e377c2; stroke: #ffffff; stroke-linejoin: miter"/>
   </g>
   <g id="patch_7">
    <path d="M 384.181644 540.357224 
C 428.428575 536.556863 469.674905 516.277423 499.703733 483.558879 
C 529.732561 450.840334 546.407983 408.009904 546.408 363.600066 
L 369 363.6 
z
" style="fill: #9edae5; stroke: #ffffff; stroke-linejoin: miter"/>
   </g>
   <g id="matplotlib.axis_1"/>
   <g id="matplotlib.axis_2"/>
  </g>
 </g>
</svg>
