<?xml version="1.0" encoding="utf-8" standalone="no"?>
<!DOCTYPE svg PUBLIC "-//W3C//DTD SVG 1.1//EN"
  "http://www.w3.org/Graphics/SVG/1.1/DTD/svg11.dtd">
<svg xmlns:xlink="http://www.w3.org/1999/xlink" width="720pt" height="720pt" viewBox="0 0 720 720" xmlns="http://www.w3.org/2000/svg" version="1.1">
 <metadata>
  <rdf:RDF xmlns:dc="http://purl.org/dc/elements/1.1/" xmlns:cc="http://creativecommons.org/ns#" xmlns:rdf="http://www.w3.org/1999/02/22-rdf-syntax-ns#">
   <cc:Work>
    <dc:type rdf:resource="http://purl.org/dc/dcmitype/StillImage"/>
    <dc:date>2024-10-24T16:56:28.432766</dc:date>
    <dc:format>image/svg+xml</dc:format>
    <dc:creator>
     <cc:Agent>
      <dc:title>Matplotlib v3.8.2, https://matplotlib.org/</dc:title>
     </cc:Agent>
    </dc:creator>
   </cc:Work>
  </rdf:RDF>
 </metadata>
 <defs>
  <style type="text/css">*{stroke-linejoin: round; stroke-linecap: butt}</style>
 </defs>
 <g id="figure_1">
  <g id="patch_1">
   <path d="M 0 720 
L 720 720 
L 720 0 
L 0 0 
L 0 720 
z
" style="fill: none"/>
  </g>
  <g id="axes_1">
   <g id="patch_2">
    <path d="M 590.76 363.6 
C 590.76 336.986367 585.969108 310.588782 576.61695 285.672471 
C 567.264791 260.756159 553.503207 237.725659 535.991784 217.684813 
C 518.48036 197.643967 497.503412 180.918156 474.066354 168.309041 
C 450.629296 155.699925 425.112651 147.412226 398.739421 143.84317 
C 372.36619 140.274113 345.564567 141.481645 319.619142 147.40789 
C 293.673717 153.334135 269.005737 163.882874 246.797528 178.548511 
C 224.58932 193.214148 205.201452 211.758574 189.563178 233.292961 
C 173.924903 254.827348 162.290124 279.002067 155.216489 304.658434 
C 148.142855 330.314801 145.745212 357.036261 148.138479 383.542067 
C 150.531745 410.047872 157.677065 435.907678 169.231965 459.882033 
C 180.786866 483.856389 196.563742 505.55605 215.806417 523.940961 
C 235.049091 542.325871 257.445141 557.097536 281.921133 567.547956 
C 306.397126 577.998375 332.55567 583.957877 359.143 585.140825 
C 385.730329 586.323773 412.314774 582.710961 437.622154 574.47555 
C 462.929533 566.240139 486.548959 553.515837 507.348363 536.912516 
C 528.147766 520.309195 545.78945 500.096423 559.427855 477.242991 
L 521.342284 454.514393 
C 510.43156 472.797139 496.318213 488.967356 479.67869 502.250013 
C 463.039167 515.53267 444.143627 525.712111 423.897723 532.30044 
C 403.651819 538.888769 382.384263 541.779019 361.1144 540.83266 
C 339.844536 539.886301 318.9177 535.1187 299.336907 526.758364 
C 279.756113 518.398029 261.839273 506.580697 246.445134 491.872769 
C 231.050994 477.16484 218.429493 459.805111 209.185572 440.625627 
C 199.941652 421.446142 194.225396 400.758298 192.310783 379.553653 
C 190.39617 358.349009 192.314284 336.971841 197.973192 316.446747 
C 203.632099 295.921654 212.939923 276.581879 225.450542 259.354369 
C 237.961162 242.126859 253.471456 227.291319 271.238023 215.558809 
C 289.00459 203.826299 308.738974 195.387308 329.495314 190.646312 
C 350.251654 185.905316 371.692952 184.93929 392.791537 187.794536 
C 413.890121 190.649781 434.303437 197.27994 453.053083 207.367232 
C 471.802729 217.454525 488.584288 230.835173 502.593427 246.86785 
C 516.602565 262.900527 527.611833 281.324927 535.09356 301.257976 
C 542.575286 321.191026 546.408 342.309094 546.408 363.6 
z
" style="opacity: 0.1"/>
   </g>
   <g id="patch_3">
    <path d="M 559.427855 477.242991 
C 569.634062 460.140783 577.490003 441.741336 582.783509 422.541571 
C 588.077015 403.341806 590.759999 383.516139 590.76 363.60001 
L 546.408 363.600008 
C 546.407999 379.532911 544.261612 395.393445 540.026807 410.753257 
C 535.792002 426.113069 529.50725 440.832627 521.342284 454.514393 
z
"/>
   </g>
   <g id="patch_4">
    <path d="M 546.408 363.6 
C 546.408 316.566518 527.704094 271.411294 494.4464 238.1536 
C 461.188706 204.895906 416.033482 186.192 369 186.192 
C 321.966518 186.192 276.811294 204.895906 243.5536 238.1536 
C 210.295906 271.411294 191.592 316.566518 191.592 363.6 
L 369 363.6 
z
" style="fill: #f7b6d2"/>
   </g>
   <g id="patch_5">
    <path d="M 191.592 363.6 
C 191.592 402.646417 204.482817 440.62154 228.252769 471.599145 
C 252.022721 502.576751 285.367483 524.85701 323.083425 534.962968 
C 360.799368 545.068925 400.816908 542.446038 436.891095 527.503623 
C 472.965281 512.561208 503.116619 486.119197 522.639829 452.30401 
L 369 363.6 
z
" style="fill: #8c564b"/>
   </g>
   <g id="patch_6">
    <path d="M 522.639829 452.30401 
C 530.39175 438.87729 536.350275 424.492142 540.362965 409.516583 
C 544.375656 394.541023 546.407999 379.103857 546.408 363.600017 
L 369 363.6 
z
" style="fill: #d62728"/>
   </g>
   <g id="matplotlib.axis_1"/>
   <g id="matplotlib.axis_2"/>
  </g>
 </g>
</svg>
