<?xml version="1.0" encoding="utf-8" standalone="no"?>
<!DOCTYPE svg PUBLIC "-//W3C//DTD SVG 1.1//EN"
  "http://www.w3.org/Graphics/SVG/1.1/DTD/svg11.dtd">
<svg xmlns:xlink="http://www.w3.org/1999/xlink" width="720pt" height="720pt" viewBox="0 0 720 720" xmlns="http://www.w3.org/2000/svg" version="1.1">
 <metadata>
  <rdf:RDF xmlns:dc="http://purl.org/dc/elements/1.1/" xmlns:cc="http://creativecommons.org/ns#" xmlns:rdf="http://www.w3.org/1999/02/22-rdf-syntax-ns#">
   <cc:Work>
    <dc:type rdf:resource="http://purl.org/dc/dcmitype/StillImage"/>
    <dc:date>2024-10-24T16:56:26.503217</dc:date>
    <dc:format>image/svg+xml</dc:format>
    <dc:creator>
     <cc:Agent>
      <dc:title>Matplotlib v3.8.2, https://matplotlib.org/</dc:title>
     </cc:Agent>
    </dc:creator>
   </cc:Work>
  </rdf:RDF>
 </metadata>
 <defs>
  <style type="text/css">*{stroke-linejoin: round; stroke-linecap: butt}</style>
 </defs>
 <g id="figure_1">
  <g id="patch_1">
   <path d="M 0 720 
L 720 720 
L 720 0 
L 0 0 
L 0 720 
z
" style="fill: none"/>
  </g>
  <g id="axes_1">
   <g id="patch_2">
    <path d="M 590.76 363.6 
C 590.76 338.277029 586.422521 313.140137 577.936031 289.281546 
C 569.44954 265.422955 556.93876 243.193302 540.947296 223.558488 
C 524.955831 203.923674 505.7187 187.17226 484.071775 174.032112 
C 462.424849 160.891964 438.686263 151.556195 413.887479 146.430454 
C 389.088696 141.304713 363.594171 140.464329 338.511665 143.945819 
C 313.429159 147.42731 289.127297 155.179507 266.662018 166.865572 
C 244.196739 178.551637 223.898203 193.999826 206.648402 212.538899 
C 189.398601 231.077972 175.451045 252.435471 165.41177 275.683392 
C 155.372494 298.931313 149.389041 323.727993 147.721396 348.995993 
C 146.053751 374.263993 148.726424 399.631963 155.623284 423.99764 
C 162.520145 448.363316 173.539832 471.36861 188.203532 492.013919 
C 202.867231 512.659229 220.959438 530.64114 241.694028 545.178322 
C 262.428617 559.715504 285.500865 570.594311 309.90826 577.34205 
C 334.315654 584.089788 359.699492 586.607289 384.956823 584.785165 
C 410.214153 582.963042 434.973782 576.828072 458.159879 566.646826 
C 481.345977 556.46558 502.617789 542.387687 521.051035 525.024844 
L 490.640828 492.739875 
C 475.894231 506.63015 458.876781 517.892464 440.327904 526.037461 
C 421.779026 534.182457 401.971323 539.090433 381.765458 540.548132 
C 361.559594 542.005831 341.252523 539.99183 321.726608 534.59364 
C 302.200692 529.195449 283.742894 520.492403 267.155222 508.862658 
C 250.56755 497.232912 236.093785 482.847383 224.362825 466.331136 
C 212.631866 449.814888 203.816116 431.410653 198.298628 411.918112 
C 192.781139 392.42557 190.643001 372.131195 191.977117 351.916794 
C 193.311232 331.702394 198.097995 311.86505 206.129416 293.266713 
C 214.160836 274.668377 225.318881 257.582378 239.118722 242.751119 
C 252.918563 227.919861 269.157391 215.56131 287.129614 206.212458 
C 305.101838 196.863606 324.543327 190.661848 344.609332 187.876656 
C 364.675337 185.091464 385.070957 185.76377 404.909984 189.864363 
C 424.74901 193.964956 443.739879 201.433571 461.05742 211.945689 
C 478.37496 222.457808 493.764665 235.858939 506.557837 251.56679 
C 519.351008 267.274642 529.359632 285.058364 536.148825 304.145237 
C 542.938017 323.232109 546.408 343.341623 546.408 363.6 
z
" style="opacity: 0.1"/>
   </g>
   <g id="patch_3">
    <path d="M 521.051035 525.024844 
C 543.061428 504.292576 560.600749 479.275992 572.588239 451.516589 
C 584.575729 423.757187 590.760006 393.837094 590.76 363.599958 
L 546.408 363.599967 
C 546.408005 387.789675 541.460583 411.72575 531.870591 433.933271 
C 522.280599 456.140793 508.249143 476.154061 490.640828 492.739875 
z
"/>
   </g>
   <g id="patch_4">
    <path d="M 546.408 363.6 
C 546.408 340.302995 541.818998 317.232524 532.90362 295.708898 
C 523.988242 274.185271 510.91987 254.62707 494.4464 238.1536 
C 477.97293 221.68013 458.414729 208.611758 436.891102 199.69638 
C 415.367476 190.781002 392.297005 186.192 369 186.192 
C 345.702995 186.192 322.632524 190.781002 301.108898 199.69638 
C 279.585271 208.611758 260.02707 221.68013 243.5536 238.1536 
C 227.08013 254.62707 214.011758 274.185271 205.09638 295.708898 
C 196.181002 317.232524 191.592 340.302995 191.592 363.6 
C 191.592 386.897005 196.181002 409.967476 205.09638 431.491102 
C 214.011758 453.014729 227.08013 472.57293 243.5536 489.0464 
C 260.02707 505.51987 279.585271 518.588242 301.108898 527.50362 
C 322.632524 536.418998 345.702995 541.008 369 541.008 
C 392.297005 541.008 415.367476 536.418998 436.891102 527.50362 
C 458.414729 518.588242 477.97293 505.51987 494.4464 489.0464 
C 510.91987 472.57293 523.988242 453.014729 532.90362 431.491102 
C 541.818998 409.967476 546.408 386.897005 546.408 363.6 
M 369 363.6 
z
" style="fill: #d62728"/>
   </g>
   <g id="matplotlib.axis_1"/>
   <g id="matplotlib.axis_2"/>
  </g>
 </g>
</svg>
