<?xml version="1.0" encoding="utf-8" standalone="no"?>
<!DOCTYPE svg PUBLIC "-//W3C//DTD SVG 1.1//EN"
  "http://www.w3.org/Graphics/SVG/1.1/DTD/svg11.dtd">
<svg xmlns:xlink="http://www.w3.org/1999/xlink" width="720pt" height="720pt" viewBox="0 0 720 720" xmlns="http://www.w3.org/2000/svg" version="1.1">
 <metadata>
  <rdf:RDF xmlns:dc="http://purl.org/dc/elements/1.1/" xmlns:cc="http://creativecommons.org/ns#" xmlns:rdf="http://www.w3.org/1999/02/22-rdf-syntax-ns#">
   <cc:Work>
    <dc:type rdf:resource="http://purl.org/dc/dcmitype/StillImage"/>
    <dc:date>2024-10-24T16:56:28.479515</dc:date>
    <dc:format>image/svg+xml</dc:format>
    <dc:creator>
     <cc:Agent>
      <dc:title>Matplotlib v3.8.2, https://matplotlib.org/</dc:title>
     </cc:Agent>
    </dc:creator>
   </cc:Work>
  </rdf:RDF>
 </metadata>
 <defs>
  <style type="text/css">*{stroke-linejoin: round; stroke-linecap: butt}</style>
 </defs>
 <g id="figure_1">
  <g id="patch_1">
   <path d="M 0 720 
L 720 720 
L 720 0 
L 0 0 
L 0 720 
z
" style="fill: none"/>
  </g>
  <g id="axes_1">
   <g id="patch_2">
    <path d="M 590.76 363.6 
C 590.76 340.583658 587.176721 317.706993 580.139071 295.792992 
C 573.101421 273.87899 562.694817 253.193626 549.293637 234.481054 
C 535.892456 215.768482 519.659351 199.25582 501.178307 185.53711 
C 482.697263 171.818401 462.192588 161.060149 440.401935 153.649384 
C 418.611283 146.238618 395.79913 142.265285 372.786143 141.872323 
C 349.773156 141.479361 326.838648 144.671541 304.807685 151.334025 
C 282.776723 157.996508 261.9167 168.04843 242.978055 181.128174 
C 224.039411 194.207919 207.252005 210.156734 193.219765 228.400863 
C 179.187525 246.644991 168.080763 266.963001 160.299042 288.623952 
C 152.517322 310.284904 148.155091 333.025894 147.369283 356.028817 
C 146.583474 379.031741 149.383624 402.017407 155.668998 424.158908 
C 161.954372 446.300409 171.648683 467.329009 184.403179 486.488206 
C 197.157674 505.647403 212.817551 522.704658 230.819446 537.046337 
C 248.82134 551.388017 268.946761 562.840053 290.471696 570.990461 
C 311.996632 579.140868 334.65983 583.890722 357.645985 585.069149 
C 380.632139 586.247576 403.662263 583.840271 425.907847 577.933839 
L 414.526278 535.067071 
C 396.72981 539.792217 378.305712 541.71806 359.916788 540.775319 
C 341.527864 539.832578 323.397306 536.032694 306.177357 529.512368 
C 288.957409 522.992043 272.857072 513.830414 258.455556 502.35707 
C 244.054041 490.883726 231.526139 477.237922 221.322543 461.910565 
C 211.118946 446.583207 203.363498 429.760327 198.335199 412.047126 
C 193.3069 394.333926 191.066779 375.945393 191.695426 357.543054 
C 192.324073 339.140715 195.813857 320.947923 202.039234 303.619162 
C 208.26461 286.290401 217.15002 270.035993 228.375812 255.44069 
C 239.601604 240.845387 253.031528 228.086335 268.182444 217.62254 
C 283.33336 207.158744 300.021378 199.117206 317.646148 193.78722 
C 335.270918 188.457233 353.618525 185.903489 372.028915 186.217858 
C 390.439304 186.532228 408.689026 189.710895 426.121548 195.639507 
C 443.55407 201.568119 459.957811 210.17472 474.742646 221.149688 
C 489.527481 232.124656 502.513965 245.334786 513.234909 260.304843 
C 523.955854 275.274901 532.281137 291.823192 537.911257 309.354393 
C 543.541377 326.885595 546.408 345.186927 546.408 363.6 
z
" style="opacity: 0.1"/>
   </g>
   <g id="patch_3">
    <path d="M 425.907847 577.933839 
C 473.16488 565.386609 514.971042 537.555778 544.780203 498.799178 
C 574.589364 460.042579 590.759977 412.494481 590.76 363.600104 
L 546.408 363.600083 
C 546.407982 402.715585 533.471491 440.754063 509.624162 471.759343 
C 485.776833 502.764622 452.331904 525.029287 414.526278 535.067071 
z
"/>
   </g>
   <g id="patch_4">
    <path d="M 546.408 363.6 
C 546.408 328.516212 536.000869 294.2085 516.509361 265.037396 
C 497.017853 235.866293 469.304296 213.122364 436.891102 199.69638 
C 404.477909 186.270396 368.799079 182.756337 334.389416 189.600845 
C 299.979753 196.445352 268.361585 213.345616 243.5536 238.1536 
C 218.745616 262.961585 201.845352 294.579753 195.000845 328.989416 
C 188.156337 363.399079 191.670396 399.077909 205.09638 431.491102 
C 218.522364 463.904296 241.266293 491.617853 270.437396 511.109361 
C 299.6085 530.600869 333.916212 541.008 369 541.008 
L 369 363.6 
z
" style="fill: #f7b6d2"/>
   </g>
   <g id="patch_5">
    <path d="M 369 541.008 
C 416.033482 541.008 461.188706 522.304094 494.4464 489.0464 
C 527.704094 455.788706 546.408 410.633482 546.408 363.6 
L 369 363.6 
z
" style="fill: #d62728"/>
   </g>
   <g id="matplotlib.axis_1"/>
   <g id="matplotlib.axis_2"/>
  </g>
 </g>
</svg>
