<?xml version="1.0" encoding="utf-8" standalone="no"?>
<!DOCTYPE svg PUBLIC "-//W3C//DTD SVG 1.1//EN"
  "http://www.w3.org/Graphics/SVG/1.1/DTD/svg11.dtd">
<svg xmlns:xlink="http://www.w3.org/1999/xlink" width="720pt" height="720pt" viewBox="0 0 720 720" xmlns="http://www.w3.org/2000/svg" version="1.1">
 <metadata>
  <rdf:RDF xmlns:dc="http://purl.org/dc/elements/1.1/" xmlns:cc="http://creativecommons.org/ns#" xmlns:rdf="http://www.w3.org/1999/02/22-rdf-syntax-ns#">
   <cc:Work>
    <dc:type rdf:resource="http://purl.org/dc/dcmitype/StillImage"/>
    <dc:date>2024-10-24T16:56:27.162042</dc:date>
    <dc:format>image/svg+xml</dc:format>
    <dc:creator>
     <cc:Agent>
      <dc:title>Matplotlib v3.8.2, https://matplotlib.org/</dc:title>
     </cc:Agent>
    </dc:creator>
   </cc:Work>
  </rdf:RDF>
 </metadata>
 <defs>
  <style type="text/css">*{stroke-linejoin: round; stroke-linecap: butt}</style>
 </defs>
 <g id="figure_1">
  <g id="patch_1">
   <path d="M 0 720 
L 720 720 
L 720 0 
L 0 0 
L 0 720 
z
" style="fill: none"/>
  </g>
  <g id="axes_1">
   <g id="patch_2">
    <path d="M 590.76 363.6 
C 590.76 323.219531 579.730629 283.595737 558.867144 249.022666 
C 538.003658 214.449595 508.087966 186.222951 472.362044 167.401668 
C 436.636121 148.580385 396.438878 139.869833 356.126507 142.213978 
C 315.814136 144.558123 276.897435 157.869114 243.593824 180.704432 
C 210.290213 203.53975 183.847821 235.04359 167.13222 271.801868 
C 150.416619 308.560145 144.054266 349.19526 148.73465 389.303566 
C 153.415035 429.411873 168.962749 467.490222 193.692881 499.412045 
C 218.423013 531.333869 251.408744 555.902825 289.075397 570.456364 
L 305.060318 529.085092 
C 274.926996 517.44226 248.53841 497.787095 228.754305 472.249636 
C 208.970199 446.712177 196.532028 416.249498 192.78772 384.162853 
C 189.043413 352.076208 194.133296 319.568116 207.505776 290.161494 
C 220.878257 260.754872 242.032171 235.5518 268.67506 217.283546 
C 295.317948 199.015291 326.451309 188.366499 358.701206 186.491182 
C 390.951102 184.615866 423.108897 191.584308 451.689635 206.641334 
C 480.270373 221.698361 504.202927 244.279676 520.893715 271.938133 
C 537.584503 299.59659 546.408 331.295625 546.408 363.6 
z
" style="opacity: 0.1"/>
   </g>
   <g id="patch_3">
    <path d="M 289.075397 570.456364 
C 322.671517 583.437142 358.929656 588.039938 394.703566 583.86535 
C 430.477477 579.690762 464.701596 566.863135 494.406176 546.495568 
C 524.110755 526.128001 548.411014 498.827163 565.198332 466.962044 
C 581.98565 435.096925 590.76 399.616661 590.76 363.6 
L 546.408 363.6 
C 546.408 392.413329 539.38852 420.79754 525.958666 446.289635 
C 512.528811 471.78173 493.088604 493.622401 469.32494 509.916454 
C 445.561277 526.210508 418.181981 536.472609 389.562853 539.81228 
C 360.943725 543.15195 331.937214 539.469714 305.060318 529.085092 
z
"/>
   </g>
   <g id="patch_4">
    <path d="M 546.408 363.6 
C 546.408 328.516212 536.000869 294.2085 516.509361 265.037396 
C 497.017853 235.866293 469.304296 213.122364 436.891102 199.69638 
C 404.477909 186.270396 368.799079 182.756337 334.389416 189.600845 
C 299.979753 196.445352 268.361585 213.345616 243.5536 238.1536 
L 369 363.6 
z
" style="fill: #dbdb8d"/>
   </g>
   <g id="patch_5">
    <path d="M 243.5536 238.1536 
C 227.08013 254.62707 214.011758 274.185271 205.09638 295.708898 
C 196.181002 317.232524 191.592 340.302995 191.592 363.6 
L 369 363.6 
z
" style="fill: #2ca02c"/>
   </g>
   <g id="patch_6">
    <path d="M 191.592 363.6 
C 191.592 410.633482 210.295906 455.788706 243.5536 489.0464 
C 276.811294 522.304094 321.966518 541.008 369 541.008 
C 416.033482 541.008 461.188706 522.304094 494.4464 489.0464 
C 527.704094 455.788706 546.408 410.633482 546.408 363.6 
L 369 363.6 
z
" style="fill: #9edae5"/>
   </g>
   <g id="matplotlib.axis_1"/>
   <g id="matplotlib.axis_2"/>
  </g>
 </g>
</svg>
