<?xml version="1.0" encoding="utf-8" standalone="no"?>
<!DOCTYPE svg PUBLIC "-//W3C//DTD SVG 1.1//EN"
  "http://www.w3.org/Graphics/SVG/1.1/DTD/svg11.dtd">
<svg xmlns:xlink="http://www.w3.org/1999/xlink" width="720pt" height="720pt" viewBox="0 0 720 720" xmlns="http://www.w3.org/2000/svg" version="1.1">
 <metadata>
  <rdf:RDF xmlns:dc="http://purl.org/dc/elements/1.1/" xmlns:cc="http://creativecommons.org/ns#" xmlns:rdf="http://www.w3.org/1999/02/22-rdf-syntax-ns#">
   <cc:Work>
    <dc:type rdf:resource="http://purl.org/dc/dcmitype/StillImage"/>
    <dc:date>2024-10-24T16:56:27.773123</dc:date>
    <dc:format>image/svg+xml</dc:format>
    <dc:creator>
     <cc:Agent>
      <dc:title>Matplotlib v3.8.2, https://matplotlib.org/</dc:title>
     </cc:Agent>
    </dc:creator>
   </cc:Work>
  </rdf:RDF>
 </metadata>
 <defs>
  <style type="text/css">*{stroke-linejoin: round; stroke-linecap: butt}</style>
 </defs>
 <g id="figure_1">
  <g id="patch_1">
   <path d="M 0 720 
L 720 720 
L 720 0 
L 0 0 
L 0 720 
z
" style="fill: none"/>
  </g>
  <g id="axes_1">
   <g id="patch_2">
    <path d="M 590.76 363.6 
C 590.76 323.552396 579.911714 284.242852 559.372073 249.863589 
C 538.832433 215.484325 509.358509 187.302533 474.093592 168.323697 
C 438.828675 149.344862 399.072597 140.268526 359.065202 142.06265 
C 319.057806 143.856774 280.27373 156.455227 246.849155 178.514429 
C 213.424581 200.573631 186.591508 231.280499 169.211588 267.360258 
C 151.831668 303.440016 144.545509 343.562796 148.130153 383.449647 
C 151.714798 423.336498 166.03812 461.517227 189.572588 493.919996 
C 213.107055 526.322764 244.98521 551.753235 281.80736 567.499341 
L 299.245888 526.719472 
C 269.788168 514.122588 244.285644 493.778211 225.45807 467.855996 
C 206.630496 441.933782 195.171839 411.389199 192.304123 379.479718 
C 189.436407 347.570237 195.265334 315.472013 209.16927 286.608206 
C 223.073206 257.7444 244.539665 233.178904 271.279324 215.531543 
C 298.018984 197.884181 329.046245 187.805419 361.052161 186.37012 
C 393.058078 184.934821 424.86294 192.195889 453.074874 207.378958 
C 481.286808 222.562026 504.865946 245.10746 521.297659 272.610871 
C 537.729371 300.114281 546.408 331.561917 546.408 363.6 
z
" style="opacity: 0.1"/>
   </g>
   <g id="patch_3">
    <path d="M 281.80736 567.499341 
C 315.53338 581.92146 352.316606 587.753081 388.849637 584.469847 
C 425.382668 581.186613 460.536702 568.88997 491.150827 548.685583 
C 521.764953 528.481196 546.893252 500.993342 564.276288 468.69362 
C 581.659324 436.393898 590.759993 400.280308 590.76 363.600042 
L 546.408 363.600033 
C 546.407995 392.944247 539.127459 421.835118 525.22103 447.674896 
C 511.314602 473.514673 491.211962 495.504956 466.720662 511.668466 
C 442.229361 527.831976 414.106134 537.669291 384.879709 540.295878 
C 355.653285 542.922465 326.226704 538.257168 299.245888 526.719472 
z
"/>
   </g>
   <g id="patch_4">
    <path d="M 546.408 363.6 
C 546.408 339.220433 541.382607 315.100529 531.646272 292.749532 
C 521.909936 270.398535 507.67006 250.292559 489.817668 233.689686 
C 471.965275 217.086813 450.880654 204.340714 427.883121 196.248942 
C 404.885587 188.157171 380.46503 184.892096 356.149504 186.658023 
L 369 363.6 
z
" style="fill: #dbdb8d"/>
   </g>
   <g id="patch_5">
    <path d="M 356.149504 186.658023 
C 321.703641 189.15967 288.726536 201.666232 261.284532 222.635549 
C 233.842529 243.604865 213.111917 272.138096 201.648948 304.716864 
L 369 363.6 
z
" style="fill: #1f77b4"/>
   </g>
   <g id="patch_6">
    <path d="M 201.648948 304.716864 
C 190.185978 337.295631 188.482006 372.523461 196.747145 406.056479 
C 205.012285 439.589496 222.892254 469.990322 248.182308 493.510291 
L 369 363.6 
z
" style="fill: #17becf"/>
   </g>
   <g id="patch_7">
    <path d="M 248.182308 493.510291 
C 260.761966 505.209482 274.974496 515.019688 290.374234 522.63329 
C 305.773972 530.246892 322.198255 535.58347 339.132067 538.475684 
L 369 363.6 
z
" style="fill: #c7c7c7"/>
   </g>
   <g id="patch_8">
    <path d="M 339.132067 538.475684 
C 364.587973 542.823432 390.688885 541.560942 415.60634 534.776656 
C 440.523794 527.99237 463.662028 515.848498 483.400124 499.19576 
C 503.138219 482.543023 519.004249 461.779579 529.886741 438.359984 
C 540.769232 414.940388 546.40799 389.424591 546.408 363.600066 
L 369 363.6 
z
" style="fill: #9edae5"/>
   </g>
   <g id="matplotlib.axis_1"/>
   <g id="matplotlib.axis_2"/>
  </g>
 </g>
</svg>
