<?xml version="1.0" encoding="utf-8" standalone="no"?>
<!DOCTYPE svg PUBLIC "-//W3C//DTD SVG 1.1//EN"
  "http://www.w3.org/Graphics/SVG/1.1/DTD/svg11.dtd">
<svg xmlns:xlink="http://www.w3.org/1999/xlink" width="720pt" height="720pt" viewBox="0 0 720 720" xmlns="http://www.w3.org/2000/svg" version="1.1">
 <metadata>
  <rdf:RDF xmlns:dc="http://purl.org/dc/elements/1.1/" xmlns:cc="http://creativecommons.org/ns#" xmlns:rdf="http://www.w3.org/1999/02/22-rdf-syntax-ns#">
   <cc:Work>
    <dc:type rdf:resource="http://purl.org/dc/dcmitype/StillImage"/>
    <dc:date>2024-10-24T16:56:27.834598</dc:date>
    <dc:format>image/svg+xml</dc:format>
    <dc:creator>
     <cc:Agent>
      <dc:title>Matplotlib v3.8.2, https://matplotlib.org/</dc:title>
     </cc:Agent>
    </dc:creator>
   </cc:Work>
  </rdf:RDF>
 </metadata>
 <defs>
  <style type="text/css">*{stroke-linejoin: round; stroke-linecap: butt}</style>
 </defs>
 <g id="figure_1">
  <g id="patch_1">
   <path d="M 0 720 
L 720 720 
L 720 0 
L 0 0 
L 0 720 
z
" style="fill: none"/>
  </g>
  <g id="axes_1">
   <g id="patch_2">
    <path d="M 590.76 363.6 
C 590.76 320.849267 578.397817 278.996944 555.169331 243.107354 
C 531.940846 207.217765 498.822355 178.799354 459.821349 161.29088 
C 420.820343 143.782405 377.576039 137.919752 335.321197 144.412327 
C 293.066356 150.904903 253.576954 169.479823 221.631391 197.889437 
L 251.105113 231.03155 
C 276.661563 208.303858 308.253085 193.443922 342.056958 188.249862 
C 375.860831 183.055802 410.456274 187.745924 441.657079 201.752704 
C 472.857884 215.759483 499.352677 238.494212 517.935465 267.205884 
C 536.518253 295.917555 546.408 329.399414 546.408 363.6 
z
" style="opacity: 0.1"/>
   </g>
   <g id="patch_3">
    <path d="M 221.631391 197.889437 
C 193.971522 222.487727 172.905648 253.624335 160.361779 288.44955 
C 147.817909 323.274764 144.190771 360.692718 149.812329 397.278813 
C 155.433887 433.864908 170.127245 468.467865 192.547624 497.920723 
C 214.968003 527.373581 244.409887 550.749527 278.17867 565.909129 
C 311.947453 581.06873 348.980512 587.53495 385.888473 584.715981 
C 422.796435 581.897012 458.417894 569.88156 489.492672 549.769315 
C 520.567449 529.657069 546.117696 502.080914 563.80498 469.564699 
C 581.492263 437.048484 590.760007 400.615418 590.76 363.599958 
L 546.408 363.599967 
C 546.408006 393.212334 538.993811 422.358788 524.843984 448.371759 
C 510.694157 474.384731 490.253959 496.445655 465.394137 512.535452 
C 440.534315 528.625248 412.037148 538.23761 382.510779 540.492785 
C 352.984409 542.74796 323.357962 537.574984 296.342936 525.447303 
C 269.32791 513.319622 245.774402 494.618864 227.838099 471.056578 
C 209.901796 447.494292 198.14711 419.811926 193.649863 390.54305 
C 189.152617 361.274175 192.054328 331.339812 202.089423 303.47964 
C 212.124518 275.619468 228.977217 250.710182 251.105113 231.03155 
z
"/>
   </g>
   <g id="patch_4">
    <path d="M 546.408 363.6 
C 546.408 335.39867 539.683543 307.599628 526.794204 282.516168 
C 513.904864 257.432709 495.218372 235.780455 472.289721 219.361198 
C 449.361071 202.941941 422.844409 192.224118 394.946319 188.09961 
C 367.048229 183.975102 338.564633 186.561581 311.865793 195.643813 
L 369 363.6 
z
" style="fill: #c7c7c7"/>
   </g>
   <g id="patch_5">
    <path d="M 311.865793 195.643813 
C 289.484707 203.25726 268.849533 215.268075 251.175698 230.968811 
C 233.501862 246.669547 219.143316 265.74577 208.945789 287.073873 
C 198.748262 308.401977 192.915977 331.554829 191.792461 355.168708 
C 190.668945 378.782587 194.276698 402.384583 202.403221 424.58452 
L 369 363.6 
z
" style="fill: #7f7f7f"/>
   </g>
   <g id="patch_6">
    <path d="M 202.403221 424.58452 
C 208.535651 441.337019 217.160026 457.069106 227.984922 471.249182 
C 238.809818 485.429257 251.711918 497.895782 266.255249 508.227503 
L 369 363.6 
z
" style="fill: #d62728"/>
   </g>
   <g id="patch_7">
    <path d="M 266.255249 508.227503 
C 277.181151 515.989367 288.951507 522.488197 301.340871 527.599514 
C 313.730234 532.710832 326.658996 536.401793 339.879521 538.601703 
L 369 363.6 
z
" style="fill: #dbdb8d"/>
   </g>
   <g id="patch_8">
    <path d="M 339.879521 538.601703 
C 349.834397 540.258206 359.91249 541.062275 370.004086 541.005159 
C 380.095681 540.948042 390.164027 540.029946 400.099515 538.260867 
L 369 363.6 
z
" style="fill: #1f77b4"/>
   </g>
   <g id="patch_9">
    <path d="M 400.099515 538.260867 
C 405.10896 537.368903 410.077713 536.261837 414.991991 534.942742 
C 419.906268 533.623647 424.761523 532.093742 429.544285 530.357273 
L 369 363.6 
z
" style="fill: #f7b6d2"/>
   </g>
   <g id="patch_10">
    <path d="M 429.544285 530.357273 
C 432.816432 529.16926 436.052904 527.885194 439.249496 526.506742 
C 442.446088 525.128291 445.601415 523.656053 448.711379 522.091938 
L 369 363.6 
z
" style="fill: #98df8a"/>
   </g>
   <g id="patch_11">
    <path d="M 448.711379 522.091938 
C 451.582084 520.648156 454.413033 519.126646 457.201093 517.529093 
C 459.989153 515.93154 462.733295 514.258532 465.43048 512.511923 
L 369 363.6 
z
" style="fill: #e377c2"/>
   </g>
   <g id="patch_12">
    <path d="M 465.43048 512.511923 
C 467.228543 511.347557 469.005369 510.15072 470.760084 508.922 
C 472.514799 507.693281 474.247116 506.432881 475.956182 505.14142 
L 369 363.6 
z
" style="fill: #8c564b"/>
   </g>
   <g id="patch_13">
    <path d="M 475.956182 505.14142 
C 477.237966 504.172836 478.506534 503.186885 479.761535 502.18384 
C 481.016536 501.180796 482.257853 500.160749 483.485144 499.123984 
L 369 363.6 
z
" style="fill: #c5b0d5"/>
   </g>
   <g id="patch_14">
    <path d="M 483.485144 499.123984 
C 483.894236 498.7784 484.30176 498.430966 484.707705 498.081692 
C 485.11365 497.732418 485.518012 497.381307 485.920778 497.028371 
L 369 363.6 
z
" style="fill: #2ca02c"/>
   </g>
   <g id="patch_15">
    <path d="M 485.920778 497.028371 
C 504.92188 480.378062 520.148934 459.859405 530.580129 436.849302 
C 541.011325 413.839199 546.407996 388.864124 546.408 363.600025 
L 369 363.6 
z
" style="fill: #9edae5"/>
   </g>
   <g id="matplotlib.axis_1"/>
   <g id="matplotlib.axis_2"/>
  </g>
 </g>
</svg>
