<?xml version="1.0" encoding="utf-8" standalone="no"?>
<!DOCTYPE svg PUBLIC "-//W3C//DTD SVG 1.1//EN"
  "http://www.w3.org/Graphics/SVG/1.1/DTD/svg11.dtd">
<svg xmlns:xlink="http://www.w3.org/1999/xlink" width="720pt" height="720pt" viewBox="0 0 720 720" xmlns="http://www.w3.org/2000/svg" version="1.1">
 <metadata>
  <rdf:RDF xmlns:dc="http://purl.org/dc/elements/1.1/" xmlns:cc="http://creativecommons.org/ns#" xmlns:rdf="http://www.w3.org/1999/02/22-rdf-syntax-ns#">
   <cc:Work>
    <dc:type rdf:resource="http://purl.org/dc/dcmitype/StillImage"/>
    <dc:date>2024-10-24T16:56:26.612789</dc:date>
    <dc:format>image/svg+xml</dc:format>
    <dc:creator>
     <cc:Agent>
      <dc:title>Matplotlib v3.8.2, https://matplotlib.org/</dc:title>
     </cc:Agent>
    </dc:creator>
   </cc:Work>
  </rdf:RDF>
 </metadata>
 <defs>
  <style type="text/css">*{stroke-linejoin: round; stroke-linecap: butt}</style>
 </defs>
 <g id="figure_1">
  <g id="patch_1">
   <path d="M 0 720 
L 720 720 
L 720 0 
L 0 0 
L 0 720 
z
" style="fill: none"/>
  </g>
  <g id="axes_1">
   <g id="patch_2">
    <path d="M 590.76 363.6 
C 590.76 336.131384 585.656341 308.900345 575.709372 283.295996 
C 565.762403 257.691647 551.144188 234.156895 532.600431 213.892296 
C 514.056674 193.627697 491.908149 176.983791 467.284697 164.809618 
C 442.661245 152.635445 415.988806 145.141595 388.627996 142.710346 
C 361.267186 140.279096 333.691297 142.952503 307.307031 150.59419 
C 280.922765 158.235877 256.18652 170.713657 234.360145 187.391013 
C 212.533769 204.06837 193.994818 224.656815 179.689001 248.10609 
C 165.383185 271.555364 155.557966 297.45984 150.714551 324.498076 
C 145.871136 351.536313 146.093306 379.240598 151.369728 406.197679 
C 156.64615 433.154761 166.885551 458.898332 181.565599 482.115159 
C 196.245647 505.331987 215.112404 525.620463 237.203438 541.945631 
C 259.294472 558.270798 284.227649 570.350263 310.731077 577.567825 
C 337.234505 584.785388 364.849723 587.016198 392.168022 584.146459 
C 419.486321 581.276719 446.035146 573.35607 470.460186 560.78856 
C 494.885226 548.22105 516.763974 531.224075 534.980349 510.664684 
C 553.196725 490.105293 567.435618 466.339126 576.970674 440.578544 
L 535.376539 425.182835 
C 527.748494 445.791301 516.35738 464.804234 501.784279 481.251747 
C 487.211179 497.69926 469.708181 511.29684 450.168149 521.350848 
C 430.628117 531.404856 409.389057 537.741375 387.534418 540.037167 
C 365.679778 542.332959 343.587604 540.54831 322.384862 534.77426 
C 301.18212 529.00021 281.235578 519.336639 263.562751 506.276504 
C 245.889923 493.21637 230.796518 476.98559 219.052479 458.412128 
C 207.308441 439.838666 199.11692 419.243809 194.895782 397.678144 
C 190.674645 376.112478 190.496909 353.94905 194.371641 332.318461 
C 198.246373 310.687872 206.106548 289.964292 217.551201 271.204872 
C 228.995854 252.445452 243.827015 235.974696 261.288116 222.632811 
C 278.749216 209.290926 298.538212 199.308701 319.645625 193.195352 
C 340.753038 187.082002 362.813749 184.943277 384.702397 186.888277 
C 406.591045 188.833276 427.928996 194.828356 447.627758 204.567694 
C 467.326519 214.307033 485.045339 227.622158 499.880345 243.833837 
C 514.71535 260.045516 526.409923 278.873318 534.367498 299.356797 
C 542.325073 319.840276 546.408 341.625107 546.408 363.6 
z
" style="opacity: 0.1"/>
   </g>
   <g id="patch_3">
    <path d="M 576.970674 440.578544 
C 581.521849 428.28277 584.973632 415.607567 587.285443 402.701957 
C 589.597254 389.796346 590.759996 376.711103 590.76 363.600067 
L 546.408 363.600054 
C 546.407997 374.088882 545.477803 384.557077 543.628354 394.881565 
C 541.778906 405.206054 539.017479 415.346216 535.376539 425.182835 
z
"/>
   </g>
   <g id="patch_4">
    <path d="M 546.408 363.6 
C 546.408 334.338809 539.168609 305.527111 525.337181 279.741283 
C 511.505753 253.955456 491.50723 231.987712 467.129903 215.802433 
C 442.752575 199.617155 414.745385 189.7116 385.612769 186.971536 
C 356.480152 184.231471 327.117145 188.741079 300.149424 200.097105 
C 273.181703 211.453131 249.437792 229.306686 231.040901 252.061283 
C 212.644009 274.81588 200.159342 301.772434 194.703292 330.520457 
C 189.247243 359.26848 190.987437 388.924751 199.768263 416.837372 
C 208.54909 444.749992 224.100778 470.061407 245.032676 490.508239 
L 369 363.6 
z
" style="fill: #98df8a"/>
   </g>
   <g id="patch_5">
    <path d="M 245.032676 490.508239 
C 258.94863 504.101711 275.006165 515.314184 292.561276 523.695971 
C 310.116386 532.077757 328.931202 537.515284 348.251133 539.790474 
L 369 363.6 
z
" style="fill: #d62728"/>
   </g>
   <g id="patch_6">
    <path d="M 348.251133 539.790474 
C 364.801278 541.739482 381.543793 541.346892 397.984394 538.624294 
C 414.424995 535.901695 430.400283 530.876148 445.438623 523.696019 
L 369 363.6 
z
" style="fill: #7f7f7f"/>
   </g>
   <g id="patch_7">
    <path d="M 445.438623 523.696019 
C 452.94853 520.110378 460.196841 516.000755 467.129844 511.397606 
C 474.062847 506.794456 480.663374 501.709178 486.882512 496.179455 
L 369 363.6 
z
" style="fill: #e377c2"/>
   </g>
   <g id="patch_8">
    <path d="M 486.882512 496.179455 
C 493.10165 490.649732 498.924 484.689257 504.306415 478.342201 
C 509.688829 471.995144 514.617981 465.277222 519.057343 458.238218 
L 369 363.6 
z
" style="fill: #dbdb8d"/>
   </g>
   <g id="patch_9">
    <path d="M 519.057343 458.238218 
C 527.947019 444.142843 534.806482 428.86496 539.433222 412.855613 
C 544.059962 396.846266 546.407995 380.264569 546.408 363.600058 
L 369 363.6 
z
" style="fill: #9edae5"/>
   </g>
   <g id="matplotlib.axis_1"/>
   <g id="matplotlib.axis_2"/>
  </g>
 </g>
</svg>
