<?xml version="1.0" encoding="utf-8" standalone="no"?>
<!DOCTYPE svg PUBLIC "-//W3C//DTD SVG 1.1//EN"
  "http://www.w3.org/Graphics/SVG/1.1/DTD/svg11.dtd">
<svg xmlns:xlink="http://www.w3.org/1999/xlink" width="720pt" height="720pt" viewBox="0 0 720 720" xmlns="http://www.w3.org/2000/svg" version="1.1">
 <metadata>
  <rdf:RDF xmlns:dc="http://purl.org/dc/elements/1.1/" xmlns:cc="http://creativecommons.org/ns#" xmlns:rdf="http://www.w3.org/1999/02/22-rdf-syntax-ns#">
   <cc:Work>
    <dc:type rdf:resource="http://purl.org/dc/dcmitype/StillImage"/>
    <dc:date>2024-10-24T16:56:26.110190</dc:date>
    <dc:format>image/svg+xml</dc:format>
    <dc:creator>
     <cc:Agent>
      <dc:title>Matplotlib v3.8.2, https://matplotlib.org/</dc:title>
     </cc:Agent>
    </dc:creator>
   </cc:Work>
  </rdf:RDF>
 </metadata>
 <defs>
  <style type="text/css">*{stroke-linejoin: round; stroke-linecap: butt}</style>
 </defs>
 <g id="figure_1">
  <g id="patch_1">
   <path d="M 0 720 
L 720 720 
L 720 0 
L 0 0 
L 0 720 
z
" style="fill: none"/>
  </g>
  <g id="axes_1">
   <g id="patch_2">
    <path d="M 590.76 363.6 
C 590.76 336.242327 585.697484 309.11936 575.828652 283.603709 
C 565.959819 258.088059 551.454002 234.617532 533.045295 214.379898 
C 514.636588 194.142265 492.640855 177.48477 468.171232 165.250399 
C 443.701609 153.016028 417.177955 145.414701 389.94255 142.8311 
C 362.707145 140.247499 335.227304 142.725952 308.893697 150.141034 
C 282.560091 157.556116 257.82456 169.780596 235.938894 186.19583 
C 214.053227 202.611064 195.392949 222.935393 180.902396 246.140267 
C 166.411843 269.345141 156.339651 295.032401 151.195541 321.902094 
C 146.051432 348.771788 145.92367 376.362874 150.818722 403.279055 
C 155.713773 430.195235 165.547647 455.974671 179.82268 479.312745 
C 194.097714 502.650819 212.568971 523.147088 234.30168 539.764299 
C 256.034388 556.381509 280.655648 568.834537 306.919455 576.493174 
C 333.183263 584.151811 360.638972 586.884646 387.897136 584.553379 
C 415.1553 582.222113 441.748211 574.866745 466.330086 562.859509 
C 490.911961 550.852273 513.061014 534.399193 531.656349 514.332908 
C 550.251685 494.266623 564.974238 470.931439 575.078945 445.508277 
L 533.863156 429.126622 
C 525.77939 449.465152 514.001348 468.133299 499.12508 484.186326 
C 484.248811 500.239354 466.529569 513.401818 446.864069 523.007607 
C 427.198569 532.613396 405.92424 538.49769 384.117709 540.362703 
C 362.311178 542.227717 340.34661 540.041449 319.335564 533.914539 
C 298.324518 527.78763 278.62751 517.825207 261.241344 504.531439 
C 243.855177 491.23767 229.078171 474.840655 217.658144 456.170196 
C 206.238117 437.499737 198.371019 416.876188 194.454977 395.343244 
C 190.538936 373.8103 190.641146 351.73743 194.756433 330.241676 
C 198.87172 308.745921 206.929474 288.196113 218.521917 269.632214 
C 230.114359 251.068315 245.042582 234.808851 262.551115 221.676664 
C 280.059648 208.544477 299.848072 198.764893 320.914958 192.832828 
C 341.981844 186.900762 363.965716 184.917999 385.75404 186.98488 
C 407.542364 189.051761 428.761287 195.132822 448.336986 204.920319 
C 467.912684 214.707816 485.50927 228.033812 500.236236 244.223918 
C 514.963201 260.414025 526.567855 279.190447 534.462921 299.602968 
C 542.357988 320.015488 546.408 341.713861 546.408 363.6 
z
" style="opacity: 0.1"/>
   </g>
   <g id="patch_3">
    <path d="M 575.078945 445.508277 
C 580.247317 432.504798 584.173337 419.041276 586.804455 405.297923 
C 589.435574 391.554571 590.759998 377.592982 590.76 363.600036 
L 546.408 363.600029 
C 546.407998 374.794386 545.348459 385.963657 543.243564 396.958339 
C 541.13867 407.953021 537.997854 418.723839 533.863156 429.126622 
z
"/>
   </g>
   <g id="patch_4">
    <path d="M 546.408 363.6 
C 546.408 335.604538 539.781361 308.002597 527.071688 283.058458 
C 514.362015 258.114318 495.926618 236.52924 473.277814 220.073919 
C 450.629011 203.618598 424.403531 192.755647 396.75274 188.376189 
C 369.101949 183.996732 340.803199 186.223889 314.177932 194.874959 
C 287.552665 203.52603 263.349401 218.357804 243.553618 238.153583 
C 223.757834 257.949361 208.926053 282.15262 200.274975 308.777885 
C 191.623897 335.40315 189.396732 363.701899 193.776181 391.352691 
C 198.155631 419.003483 209.018575 445.228966 225.47389 467.877774 
L 369 363.6 
z
" style="fill: #98df8a"/>
   </g>
   <g id="patch_5">
    <path d="M 225.47389 467.877774 
C 247.49177 498.182801 278.552182 520.749522 314.177869 532.32502 
C 349.803556 543.900518 388.196343 543.900529 423.822036 532.325051 
L 369 363.6 
z
" style="fill: #d62728"/>
   </g>
   <g id="patch_6">
    <path d="M 423.822036 532.325051 
C 441.527132 526.572322 458.216904 518.068465 473.27776 507.12612 
C 488.338616 496.183775 501.583697 482.938703 512.526052 467.877854 
L 369 363.6 
z
" style="fill: #e377c2"/>
   </g>
   <g id="patch_7">
    <path d="M 512.526052 467.877854 
C 523.468407 452.817006 531.972275 436.127239 537.725015 418.422147 
C 543.477755 400.717055 546.407993 382.216304 546.408 363.600066 
L 369 363.6 
z
" style="fill: #9edae5"/>
   </g>
   <g id="matplotlib.axis_1"/>
   <g id="matplotlib.axis_2"/>
  </g>
 </g>
</svg>
