<?xml version="1.0" encoding="utf-8" standalone="no"?>
<!DOCTYPE svg PUBLIC "-//W3C//DTD SVG 1.1//EN"
  "http://www.w3.org/Graphics/SVG/1.1/DTD/svg11.dtd">
<svg xmlns:xlink="http://www.w3.org/1999/xlink" width="720pt" height="720pt" viewBox="0 0 720 720" xmlns="http://www.w3.org/2000/svg" version="1.1">
 <metadata>
  <rdf:RDF xmlns:dc="http://purl.org/dc/elements/1.1/" xmlns:cc="http://creativecommons.org/ns#" xmlns:rdf="http://www.w3.org/1999/02/22-rdf-syntax-ns#">
   <cc:Work>
    <dc:type rdf:resource="http://purl.org/dc/dcmitype/StillImage"/>
    <dc:date>2024-10-24T16:56:26.648710</dc:date>
    <dc:format>image/svg+xml</dc:format>
    <dc:creator>
     <cc:Agent>
      <dc:title>Matplotlib v3.8.2, https://matplotlib.org/</dc:title>
     </cc:Agent>
    </dc:creator>
   </cc:Work>
  </rdf:RDF>
 </metadata>
 <defs>
  <style type="text/css">*{stroke-linejoin: round; stroke-linecap: butt}</style>
 </defs>
 <g id="figure_1">
  <g id="patch_1">
   <path d="M 0 720 
L 720 720 
L 720 0 
L 0 0 
L 0 720 
z
" style="fill: none"/>
  </g>
  <g id="axes_1">
   <g id="patch_2">
    <path d="M 590.76 363.6 
C 590.76 335.559089 585.441462 307.770941 575.086941 281.711843 
C 564.73242 255.652745 549.528589 231.792494 530.283175 211.398703 
C 511.037761 191.004911 488.097723 174.445241 462.681784 162.59945 
C 437.265846 150.75366 409.832209 143.835305 381.838328 142.211936 
C 353.844448 140.588566 325.795 144.289448 299.180155 153.117965 
C 272.56531 161.946483 247.864884 175.743475 226.391125 193.775955 
C 204.917365 211.808435 187.057404 233.751312 173.760078 258.438835 
C 160.462753 283.126359 151.96779 310.11346 148.726496 337.966408 
C 145.485202 365.819356 147.556013 394.036014 154.828913 421.117329 
C 162.101813 448.198643 174.445685 473.65639 191.204743 496.138086 
C 207.963801 518.619782 228.83591 537.720126 252.712207 552.424381 
C 276.588504 567.128636 303.038545 577.171713 330.65713 582.020058 
C 358.275715 586.868403 386.564933 586.43461 414.021876 580.741724 
C 441.478819 575.048838 467.608491 564.199491 491.022711 548.770072 
C 514.436931 533.340653 534.713586 513.609325 550.775448 490.624345 
C 566.837309 467.639365 578.394811 441.815109 584.833944 414.523531 
L 541.667156 404.338825 
C 536.515849 426.172088 527.269847 446.831492 514.420358 465.219476 
C 501.570869 483.60746 485.349545 499.392522 466.618169 511.736058 
C 447.886793 524.079593 426.983056 532.75907 405.017501 537.313379 
C 383.051946 541.867688 360.420572 542.214723 338.325704 538.336047 
C 316.230836 534.457371 295.070803 526.422909 275.969766 514.659505 
C 256.868728 502.896101 240.171041 487.615826 226.763795 469.630469 
C 213.356548 451.645112 203.48145 431.278915 197.66313 409.613863 
C 191.84481 387.948811 190.188162 365.375485 192.781197 343.093126 
C 195.374232 320.810768 202.170202 299.221087 212.808063 279.471068 
C 223.445923 259.721049 237.733892 242.166748 254.9129 227.740764 
C 272.091907 213.31478 291.852248 202.277186 313.144124 195.214372 
C 334.436 188.151558 356.875558 185.190853 379.270663 186.489549 
C 401.665767 187.788244 423.612677 193.322928 443.945427 202.79956 
C 464.278178 212.276193 482.630209 225.523929 498.02654 241.838962 
C 513.422872 258.153995 525.585936 277.242196 533.869553 298.089474 
C 542.153169 318.936752 546.408 341.167271 546.408 363.6 
z
" style="opacity: 0.1"/>
   </g>
   <g id="patch_3">
    <path d="M 584.833944 414.523531 
C 586.800999 406.186379 588.283336 397.742252 589.273502 389.23361 
C 590.263667 380.724968 590.759999 372.166098 590.76 363.600036 
L 546.408 363.600029 
C 546.407999 370.452878 546.010934 377.299975 545.218802 384.106888 
C 544.426669 390.913801 543.2408 397.669103 541.667156 404.338825 
z
"/>
   </g>
   <g id="patch_4">
    <path d="M 546.408 363.6 
C 546.408 319.395525 529.88646 276.748511 500.106099 244.081009 
C 470.325739 211.413507 429.385067 191.027471 385.369161 186.948793 
C 341.353255 182.870114 297.363749 195.386203 262.087813 222.025346 
C 226.811877 248.664489 202.735273 287.549527 194.612714 331.001335 
L 369 363.6 
z
" style="fill: #d62728"/>
   </g>
   <g id="patch_5">
    <path d="M 194.612714 331.001335 
C 188.55019 363.432943 191.653375 396.92171 203.571953 427.687127 
C 215.490532 458.452544 235.758476 485.291652 262.08776 505.174614 
C 288.417044 525.057577 319.778167 537.20695 352.630806 540.251204 
C 385.483445 543.295459 418.54303 537.115561 448.077501 522.409154 
L 369 363.6 
z
" style="fill: #bcbd22"/>
   </g>
   <g id="patch_6">
    <path d="M 448.077501 522.409154 
C 477.611972 507.702746 502.466502 485.044863 519.83529 456.993329 
C 537.204078 428.941794 546.407988 396.59345 546.408 363.600066 
L 369 363.6 
z
" style="fill: #c5b0d5"/>
   </g>
   <g id="matplotlib.axis_1"/>
   <g id="matplotlib.axis_2"/>
  </g>
 </g>
</svg>
