<?xml version="1.0" encoding="utf-8" standalone="no"?>
<!DOCTYPE svg PUBLIC "-//W3C//DTD SVG 1.1//EN"
  "http://www.w3.org/Graphics/SVG/1.1/DTD/svg11.dtd">
<svg xmlns:xlink="http://www.w3.org/1999/xlink" width="720pt" height="720pt" viewBox="0 0 720 720" xmlns="http://www.w3.org/2000/svg" version="1.1">
 <metadata>
  <rdf:RDF xmlns:dc="http://purl.org/dc/elements/1.1/" xmlns:cc="http://creativecommons.org/ns#" xmlns:rdf="http://www.w3.org/1999/02/22-rdf-syntax-ns#">
   <cc:Work>
    <dc:type rdf:resource="http://purl.org/dc/dcmitype/StillImage"/>
    <dc:date>2024-10-24T16:56:29.483252</dc:date>
    <dc:format>image/svg+xml</dc:format>
    <dc:creator>
     <cc:Agent>
      <dc:title>Matplotlib v3.8.2, https://matplotlib.org/</dc:title>
     </cc:Agent>
    </dc:creator>
   </cc:Work>
  </rdf:RDF>
 </metadata>
 <defs>
  <style type="text/css">*{stroke-linejoin: round; stroke-linecap: butt}</style>
 </defs>
 <g id="figure_1">
  <g id="patch_1">
   <path d="M 0 720 
L 720 720 
L 720 0 
L 0 0 
L 0 720 
z
" style="fill: none"/>
  </g>
  <g id="axes_1">
   <g id="patch_2">
    <path d="M 590.76 363.6 
C 590.76 335.22873 585.315405 307.119276 574.722214 280.799829 
C 564.129023 254.480383 548.582749 230.436706 528.928576 209.975952 
C 509.274403 189.515198 485.875077 173.014998 460.00272 161.372399 
C 434.130364 149.7298 406.262486 143.159682 377.914147 142.019235 
C 349.565808 140.878787 321.260214 145.189058 294.536223 154.715717 
C 267.812231 164.242377 243.16307 178.809596 221.928809 197.625417 
C 200.694548 216.441238 183.267095 239.158389 170.593908 264.541834 
C 157.920721 289.925279 150.235701 317.506532 147.956649 345.786116 
C 145.677597 374.0657 148.846577 402.521677 157.291305 429.607015 
C 165.736033 456.692352 179.300649 481.907154 197.247703 503.880598 
C 215.194757 525.854041 237.193011 544.180575 262.046513 557.863865 
C 286.900014 571.547154 314.150058 580.334654 342.315174 583.748626 
C 370.48029 587.162598 399.040652 585.140032 426.443553 577.790886 
C 453.846455 570.441741 479.586138 557.901654 502.263244 540.852378 
C 524.94035 523.803102 544.136342 502.559304 558.807615 478.275921 
C 573.478888 453.992538 583.354663 427.117752 587.898037 399.112632 
L 544.118429 392.010106 
C 540.483731 414.414202 532.583111 435.91403 520.846092 455.340737 
C 509.109074 474.767443 493.75228 491.762481 475.610595 505.401902 
C 457.46891 519.041323 436.877164 529.073392 414.954843 534.952709 
C 393.032521 540.832026 370.184232 542.450079 347.652139 539.718901 
C 325.120046 536.987724 303.320012 529.957723 283.43721 519.011092 
C 263.554409 508.06446 245.955806 493.403233 231.598162 475.824478 
C 217.240519 458.245723 206.388826 438.073882 199.633044 416.405612 
C 192.877262 394.737341 190.342078 371.97256 192.165319 349.348893 
C 193.98856 326.725225 200.136577 304.660223 210.275127 284.353467 
C 220.413676 264.046711 234.355638 245.87299 251.343047 230.820333 
C 268.330456 215.767677 288.049785 204.113901 309.428978 196.492574 
C 330.808172 188.871247 353.452646 185.42303 376.131318 186.335388 
C 398.809989 187.247746 421.104291 192.50384 441.802176 201.817919 
C 462.500062 211.131999 481.219523 224.332158 496.942861 240.700761 
C 512.666199 257.069365 525.103218 276.304306 533.577771 297.359863 
C 542.052324 318.415421 546.408 340.902984 546.408 363.6 
z
" style="opacity: 0.1"/>
   </g>
   <g id="patch_3">
    <path d="M 587.898037 399.112632 
C 588.850095 393.244193 589.565778 387.339841 590.043351 381.413888 
C 590.520924 375.487935 590.76 369.545173 590.76 363.600008 
L 546.408 363.600006 
C 546.408 368.356139 546.216739 373.110348 545.834681 377.851111 
C 545.452623 382.591873 544.880076 387.315355 544.118429 392.010106 
z
"/>
   </g>
   <g id="patch_4">
    <path d="M 546.408 363.6 
C 546.408 335.604535 539.781359 308.002592 527.071684 283.05845 
C 514.362008 258.114309 495.926608 236.52923 473.277801 220.073909 
C 450.628993 203.618589 424.40351 192.755639 396.752716 188.376185 
C 369.101921 183.996731 340.803169 186.223893 314.1779 194.87497 
C 287.552632 203.526046 263.349369 218.357827 243.553588 238.153612 
C 223.757807 257.949397 208.926031 282.152662 200.274959 308.777932 
C 191.623888 335.403202 189.396731 363.701955 193.776191 391.352749 
C 198.15565 419.003542 209.018604 445.229023 225.473929 467.877828 
L 369 363.6 
z
" style="fill: #d62728"/>
   </g>
   <g id="patch_5">
    <path d="M 225.473929 467.877828 
C 240.086875 487.990816 258.765747 504.809342 280.296026 517.23985 
C 301.826306 529.670358 325.731016 537.437464 350.455849 540.036144 
C 375.180681 542.634824 400.177887 540.007506 423.822123 532.325023 
C 447.46636 524.642539 469.233817 512.075085 487.709154 495.439809 
L 369 363.6 
z
" style="fill: #1f77b4"/>
   </g>
   <g id="patch_6">
    <path d="M 487.709154 495.439809 
C 506.184491 478.804533 520.958408 458.46997 531.070291 435.758292 
C 541.182174 413.046615 546.408007 388.460973 546.408 363.59995 
L 369 363.6 
z
" style="fill: #c7c7c7"/>
   </g>
   <g id="matplotlib.axis_1"/>
   <g id="matplotlib.axis_2"/>
  </g>
 </g>
</svg>
