<?xml version="1.0" encoding="utf-8" standalone="no"?>
<!DOCTYPE svg PUBLIC "-//W3C//DTD SVG 1.1//EN"
  "http://www.w3.org/Graphics/SVG/1.1/DTD/svg11.dtd">
<svg xmlns:xlink="http://www.w3.org/1999/xlink" width="720pt" height="720pt" viewBox="0 0 720 720" xmlns="http://www.w3.org/2000/svg" version="1.1">
 <metadata>
  <rdf:RDF xmlns:dc="http://purl.org/dc/elements/1.1/" xmlns:cc="http://creativecommons.org/ns#" xmlns:rdf="http://www.w3.org/1999/02/22-rdf-syntax-ns#">
   <cc:Work>
    <dc:type rdf:resource="http://purl.org/dc/dcmitype/StillImage"/>
    <dc:date>2024-10-24T16:56:27.895489</dc:date>
    <dc:format>image/svg+xml</dc:format>
    <dc:creator>
     <cc:Agent>
      <dc:title>Matplotlib v3.8.2, https://matplotlib.org/</dc:title>
     </cc:Agent>
    </dc:creator>
   </cc:Work>
  </rdf:RDF>
 </metadata>
 <defs>
  <style type="text/css">*{stroke-linejoin: round; stroke-linecap: butt}</style>
 </defs>
 <g id="figure_1">
  <g id="patch_1">
   <path d="M 0 720 
L 720 720 
L 720 0 
L 0 0 
L 0 720 
z
" style="fill: none"/>
  </g>
  <g id="axes_1">
   <g id="patch_2">
    <path d="M 590.76 363.6 
C 590.76 335.135852 585.279699 306.936104 574.61896 280.54375 
C 563.958222 254.151395 548.315098 230.056745 528.545527 209.578176 
C 508.775957 189.099607 485.247213 172.617564 459.246709 161.03389 
C 433.246206 149.450215 405.256972 142.980107 376.810484 141.977587 
C 348.363996 140.975067 319.988725 145.458761 293.23727 155.183335 
C 266.485815 164.907909 241.855155 179.692703 220.692999 198.728744 
C 199.530843 217.764785 182.230333 240.698426 169.738097 266.274816 
C 157.24586 291.851206 149.793973 319.595194 147.790177 347.988724 
C 145.786382 376.382253 149.267904 404.897837 158.044247 431.975198 
C 166.820589 459.05256 180.728708 484.188664 199.007598 506.008149 
C 217.286488 527.827633 239.596568 545.925141 264.717108 559.310439 
C 289.837648 572.695737 317.301964 581.120156 345.607303 584.122741 
C 373.912641 587.125326 402.533154 584.650295 429.902822 576.833074 
C 457.272491 569.015853 482.88285 556.001668 505.332588 538.502611 
C 527.782325 521.003553 546.654376 499.344717 560.916125 474.711199 
C 575.177875 450.077681 584.564372 422.927116 588.562021 394.745091 
L 544.649617 388.516073 
C 541.451498 411.061693 533.9423 432.782145 522.5329 452.488959 
C 511.123501 472.195773 496.02586 489.522843 478.06607 503.522088 
C 460.10628 517.521334 439.617993 527.932682 417.722258 534.186459 
C 395.826523 540.440236 372.930113 542.420261 350.285842 540.018193 
C 327.641571 537.616125 305.670118 530.87659 285.573686 520.168351 
C 265.477255 509.460113 247.62919 494.982107 233.006078 477.526519 
C 218.382967 460.070932 207.256472 439.962048 200.235397 418.300159 
C 193.214323 396.638269 190.429105 373.825802 192.032142 351.110979 
C 193.635178 328.396155 199.596688 306.200965 209.590477 285.739853 
C 219.584267 265.278741 233.424674 246.931828 250.354399 231.702995 
C 267.284124 216.474163 286.988652 204.646327 308.389816 196.866668 
C 329.79098 189.087009 352.491197 185.500054 375.248387 186.30207 
C 398.005577 187.104085 420.396964 192.280172 441.197367 201.547112 
C 461.99777 210.814051 480.820765 223.999685 496.636422 240.382541 
C 512.452078 256.765396 524.966577 276.041116 533.495168 297.155 
C 542.023759 318.268883 546.408 340.828682 546.408 363.6 
z
" style="opacity: 0.1"/>
   </g>
   <g id="patch_3">
    <path d="M 588.562021 394.745091 
C 589.293544 389.588107 589.843152 384.406951 590.209823 379.211265 
C 590.576495 374.015578 590.760001 368.808586 590.76 363.599977 
L 546.408 363.599981 
C 546.408 367.766868 546.261196 371.932463 545.967859 376.089012 
C 545.674522 380.245561 545.234835 384.390486 544.649617 388.516073 
z
"/>
   </g>
   <g id="patch_4">
    <path d="M 546.408 363.6 
C 546.408 334.879909 539.433876 306.584774 526.086985 281.154396 
C 512.740094 255.724018 493.415409 233.910957 469.779239 217.596084 
C 446.143069 201.281212 418.894875 190.947333 390.384187 187.485506 
C 361.873498 184.023679 332.944028 187.53635 306.090275 197.720631 
L 369 363.6 
z
" style="fill: #7f7f7f"/>
   </g>
   <g id="patch_5">
    <path d="M 306.090275 197.720631 
C 265.570151 213.087882 232.052414 242.781996 211.913034 281.154359 
C 191.773654 319.526722 186.376104 363.979456 196.747142 406.056463 
L 369 363.6 
z
" style="fill: #c7c7c7"/>
   </g>
   <g id="patch_6">
    <path d="M 196.747142 406.056463 
C 203.620301 433.942002 217.163231 459.745919 236.208167 481.243222 
C 255.253103 502.740524 279.23645 519.295045 306.090198 529.479339 
L 369 363.6 
z
" style="fill: #d62728"/>
   </g>
   <g id="patch_7">
    <path d="M 306.090198 529.479339 
C 332.943945 539.663633 361.873414 543.176318 390.384104 539.714504 
C 418.894794 536.252691 446.142993 525.918824 469.779171 509.603963 
L 369 363.6 
z
" style="fill: #1f77b4"/>
   </g>
   <g id="patch_8">
    <path d="M 469.779171 509.603963 
C 493.415349 493.289102 512.740044 471.476049 526.086946 446.045678 
C 539.433849 420.615306 546.407987 392.320174 546.408 363.600083 
L 369 363.6 
z
" style="fill: #9edae5"/>
   </g>
   <g id="matplotlib.axis_1"/>
   <g id="matplotlib.axis_2"/>
  </g>
 </g>
</svg>
