<?xml version="1.0" encoding="utf-8" standalone="no"?>
<!DOCTYPE svg PUBLIC "-//W3C//DTD SVG 1.1//EN"
  "http://www.w3.org/Graphics/SVG/1.1/DTD/svg11.dtd">
<svg xmlns:xlink="http://www.w3.org/1999/xlink" width="720pt" height="720pt" viewBox="0 0 720 720" xmlns="http://www.w3.org/2000/svg" version="1.1">
 <metadata>
  <rdf:RDF xmlns:dc="http://purl.org/dc/elements/1.1/" xmlns:cc="http://creativecommons.org/ns#" xmlns:rdf="http://www.w3.org/1999/02/22-rdf-syntax-ns#">
   <cc:Work>
    <dc:type rdf:resource="http://purl.org/dc/dcmitype/StillImage"/>
    <dc:date>2024-10-24T16:56:30.415037</dc:date>
    <dc:format>image/svg+xml</dc:format>
    <dc:creator>
     <cc:Agent>
      <dc:title>Matplotlib v3.8.2, https://matplotlib.org/</dc:title>
     </cc:Agent>
    </dc:creator>
   </cc:Work>
  </rdf:RDF>
 </metadata>
 <defs>
  <style type="text/css">*{stroke-linejoin: round; stroke-linecap: butt}</style>
 </defs>
 <g id="figure_1">
  <g id="patch_1">
   <path d="M 0 720 
L 720 720 
L 720 0 
L 0 0 
L 0 720 
z
" style="fill: none"/>
  </g>
  <g id="axes_1">
   <g id="patch_2">
    <path d="M 590.76 363.6 
C 590.76 335.565426 585.443865 307.783442 575.093898 281.729353 
C 564.743931 255.675265 549.546637 231.818564 530.309037 211.426112 
C 511.071437 191.03366 488.140191 174.472927 462.733016 162.623336 
C 437.325841 150.773746 409.900571 143.848827 381.91357 142.216312 
C 353.926568 140.583797 325.882159 144.273105 299.269581 153.088323 
C 272.657003 161.90354 247.955814 175.685817 226.477719 193.703275 
C 204.999624 211.720733 187.131657 233.648699 173.822659 258.322732 
C 160.513661 282.996766 152.003459 309.972243 148.743971 337.816687 
C 145.484482 365.661132 147.534442 393.872788 154.784992 420.953536 
C 162.035542 448.034283 174.356028 473.496128 191.092195 495.986972 
C 207.828362 518.477816 228.678626 537.592376 252.535777 552.315613 
C 276.392928 567.038849 302.827062 577.10545 330.43445 581.980851 
C 358.041837 586.856251 386.324994 586.452596 413.782002 580.791321 
C 441.239011 575.130046 467.375098 564.313166 490.80236 548.91509 
C 514.229622 533.517015 534.525902 513.815215 550.613408 490.855914 
C 566.700914 467.896613 578.289751 442.093536 584.764517 414.816902 
L 541.611613 404.573521 
C 536.431801 426.394829 527.160732 447.03729 514.290727 465.404731 
C 501.420722 483.772172 485.183698 499.533612 466.441888 511.852072 
C 447.700078 524.170533 426.791209 532.824037 404.825602 537.353057 
C 382.859995 541.882077 360.23347 542.205001 338.14756 538.304681 
C 316.06165 534.40436 294.914343 526.351079 275.828622 514.57249 
C 256.742901 502.793901 240.062689 487.502253 226.673756 469.509578 
C 213.284822 451.516903 203.428434 431.147427 197.627994 409.482829 
C 191.827554 387.818231 190.187586 365.248906 192.795177 342.97335 
C 195.402768 320.697794 202.210929 299.117412 212.858127 279.378186 
C 223.505326 259.638959 237.799699 242.096587 254.982175 227.68262 
C 272.164651 213.268654 291.925602 202.242832 313.215665 195.190658 
C 334.505727 188.138484 356.941255 185.187038 379.330856 186.49305 
C 401.720457 187.799061 423.660672 193.338997 443.986413 202.818669 
C 464.312153 212.298342 482.65715 225.546928 498.04723 241.86089 
C 513.43731 258.174851 525.595145 277.260212 533.875118 298.103483 
C 542.155092 318.946754 546.408 341.172341 546.408 363.6 
z
" style="opacity: 0.1"/>
   </g>
   <g id="patch_3">
    <path d="M 584.764517 414.816902 
C 586.754519 406.4335 588.254232 397.941239 589.256028 389.383323 
C 590.257824 380.825407 590.759999 372.216373 590.76 363.600021 
L 546.408 363.600017 
C 546.407999 370.493098 546.006259 377.380325 545.204822 384.226658 
C 544.403386 391.072991 543.203615 397.8668 541.611613 404.573521 
z
"/>
   </g>
   <g id="patch_4">
    <path d="M 546.408 363.6 
C 546.408 344.099407 543.192758 324.731571 536.891843 306.276989 
C 530.590928 287.822407 521.290132 270.532351 509.364264 255.103586 
C 497.438395 239.67482 483.049834 226.31742 466.778419 215.569668 
C 450.507003 204.821916 432.574281 196.830151 413.702914 191.916431 
C 394.831547 187.00271 375.278484 185.233938 355.831684 186.681392 
C 336.384885 188.128846 317.309132 192.772819 299.373151 200.426165 
C 281.437169 208.079512 264.885172 218.638025 250.384179 231.676213 
C 235.883186 244.714401 223.630641 260.054739 214.120302 277.079033 
C 204.609963 294.103328 197.971322 312.57978 194.471905 331.763815 
C 190.972489 350.947851 190.659944 370.578265 193.546867 389.86398 
C 196.43379 409.149695 202.480872 427.828122 211.444425 445.146547 
C 220.407978 462.464972 232.165957 478.187592 246.244531 491.680808 
C 260.323106 505.174024 276.530586 516.254116 294.213833 524.474571 
C 311.897081 532.695027 330.815325 537.943919 350.206189 540.009725 
C 369.597052 542.075531 389.196513 540.930123 408.214742 536.619659 
C 427.232971 532.309196 445.411021 524.892367 462.016342 514.66806 
L 369 363.6 
z
" style="fill: #d62728"/>
   </g>
   <g id="patch_5">
    <path d="M 462.016342 514.66806 
C 487.807986 498.787506 509.108107 476.563347 523.87971 450.120945 
C 538.651313 423.678543 546.408009 393.888576 546.408 363.59995 
L 369 363.6 
z
" style="fill: #98df8a"/>
   </g>
   <g id="matplotlib.axis_1"/>
   <g id="matplotlib.axis_2"/>
  </g>
 </g>
</svg>
