<?xml version="1.0" encoding="utf-8" standalone="no"?>
<!DOCTYPE svg PUBLIC "-//W3C//DTD SVG 1.1//EN"
  "http://www.w3.org/Graphics/SVG/1.1/DTD/svg11.dtd">
<svg xmlns:xlink="http://www.w3.org/1999/xlink" width="720pt" height="720pt" viewBox="0 0 720 720" xmlns="http://www.w3.org/2000/svg" version="1.1">
 <metadata>
  <rdf:RDF xmlns:dc="http://purl.org/dc/elements/1.1/" xmlns:cc="http://creativecommons.org/ns#" xmlns:rdf="http://www.w3.org/1999/02/22-rdf-syntax-ns#">
   <cc:Work>
    <dc:type rdf:resource="http://purl.org/dc/dcmitype/StillImage"/>
    <dc:date>2024-10-24T16:56:30.460113</dc:date>
    <dc:format>image/svg+xml</dc:format>
    <dc:creator>
     <cc:Agent>
      <dc:title>Matplotlib v3.8.2, https://matplotlib.org/</dc:title>
     </cc:Agent>
    </dc:creator>
   </cc:Work>
  </rdf:RDF>
 </metadata>
 <defs>
  <style type="text/css">*{stroke-linejoin: round; stroke-linecap: butt}</style>
 </defs>
 <g id="figure_1">
  <g id="patch_1">
   <path d="M 0 720 
L 720 720 
L 720 0 
L 0 0 
L 0 720 
z
" style="fill: none"/>
  </g>
  <g id="axes_1">
   <g id="patch_2">
    <path d="M 590.76 363.6 
C 590.76 319.745265 577.751087 276.860625 553.386701 240.396745 
C 529.022316 203.932866 494.38037 175.502955 453.863878 158.720475 
C 413.347386 141.937994 368.748849 137.545422 325.73677 146.101056 
C 282.724692 154.656691 243.201981 175.78202 212.192 206.792 
L 243.5536 238.1536 
C 268.361585 213.345616 299.979753 196.445352 334.389416 189.600845 
C 368.799079 182.756337 404.477909 186.270396 436.891102 199.69638 
C 469.304296 213.122364 497.017853 235.866293 516.509361 265.037396 
C 536.000869 294.2085 546.408 328.516212 546.408 363.6 
z
" style="opacity: 0.1"/>
   </g>
   <g id="patch_3">
    <path d="M 212.192 206.792 
C 186.406251 232.577749 167.374594 264.330152 156.788911 299.22647 
C 146.203229 334.122788 144.386784 371.097369 151.501056 406.86323 
C 158.615328 442.629091 174.443064 476.094026 197.577202 504.283055 
C 220.71134 532.472084 250.445417 554.524378 284.136122 568.479525 
C 317.826827 582.434672 354.445322 587.866513 390.736281 584.292165 
C 427.027241 580.717817 461.882422 568.246434 492.203255 547.986701 
C 522.524088 527.726968 547.384644 500.297571 564.57486 468.13694 
C 581.765075 435.976309 590.76 400.066556 590.76 363.6 
L 546.408 363.6 
C 546.408 392.773245 539.21206 421.501047 525.459888 447.229552 
C 511.707715 472.958057 491.81927 494.901575 467.562604 511.109361 
C 443.305937 527.317147 415.421792 537.294254 386.389025 540.153732 
C 357.356257 543.01321 328.061461 538.667738 301.108898 527.50362 
C 274.156334 516.339503 250.369072 498.697667 231.861761 476.146444 
C 213.354451 453.595221 200.692263 426.823273 195.000845 398.210584 
C 189.309427 369.597895 190.762583 340.018231 199.231129 312.101176 
C 207.699675 284.184121 222.925001 258.782199 243.5536 238.1536 
z
"/>
   </g>
   <g id="patch_4">
    <path d="M 546.408 363.6 
C 546.408 340.302995 541.818998 317.232524 532.90362 295.708898 
C 523.988242 274.185271 510.91987 254.62707 494.4464 238.1536 
C 477.97293 221.68013 458.414729 208.611758 436.891102 199.69638 
C 415.367476 190.781002 392.297005 186.192 369 186.192 
C 345.702995 186.192 322.632524 190.781002 301.108898 199.69638 
C 279.585271 208.611758 260.02707 221.68013 243.5536 238.1536 
C 227.08013 254.62707 214.011758 274.185271 205.09638 295.708898 
C 196.181002 317.232524 191.592 340.302995 191.592 363.6 
C 191.592 386.897005 196.181002 409.967476 205.09638 431.491102 
C 214.011758 453.014729 227.08013 472.57293 243.5536 489.0464 
C 260.02707 505.51987 279.585271 518.588242 301.108898 527.50362 
C 322.632524 536.418998 345.702995 541.008 369 541.008 
C 392.297005 541.008 415.367476 536.418998 436.891102 527.50362 
C 458.414729 518.588242 477.97293 505.51987 494.4464 489.0464 
C 510.91987 472.57293 523.988242 453.014729 532.90362 431.491102 
C 541.818998 409.967476 546.408 386.897005 546.408 363.6 
M 369 363.6 
z
" style="fill: #9edae5"/>
   </g>
   <g id="matplotlib.axis_1"/>
   <g id="matplotlib.axis_2"/>
  </g>
 </g>
</svg>
