<?xml version="1.0" encoding="utf-8" standalone="no"?>
<!DOCTYPE svg PUBLIC "-//W3C//DTD SVG 1.1//EN"
  "http://www.w3.org/Graphics/SVG/1.1/DTD/svg11.dtd">
<svg xmlns:xlink="http://www.w3.org/1999/xlink" width="720pt" height="720pt" viewBox="0 0 720 720" xmlns="http://www.w3.org/2000/svg" version="1.1">
 <metadata>
  <rdf:RDF xmlns:dc="http://purl.org/dc/elements/1.1/" xmlns:cc="http://creativecommons.org/ns#" xmlns:rdf="http://www.w3.org/1999/02/22-rdf-syntax-ns#">
   <cc:Work>
    <dc:type rdf:resource="http://purl.org/dc/dcmitype/StillImage"/>
    <dc:date>2024-10-24T16:56:28.710486</dc:date>
    <dc:format>image/svg+xml</dc:format>
    <dc:creator>
     <cc:Agent>
      <dc:title>Matplotlib v3.8.2, https://matplotlib.org/</dc:title>
     </cc:Agent>
    </dc:creator>
   </cc:Work>
  </rdf:RDF>
 </metadata>
 <defs>
  <style type="text/css">*{stroke-linejoin: round; stroke-linecap: butt}</style>
 </defs>
 <g id="figure_1">
  <g id="patch_1">
   <path d="M 0 720 
L 720 720 
L 720 0 
L 0 0 
L 0 720 
z
" style="fill: none"/>
  </g>
  <g id="axes_1">
   <g id="patch_2">
    <path d="M 590.76 363.6 
C 590.76 333.306037 584.55245 303.330911 572.521267 275.528487 
C 560.490084 247.726062 542.888519 222.681567 520.805171 201.943922 
C 498.721823 181.206277 472.621537 165.211999 444.118531 154.950284 
C 415.615524 144.688569 385.309772 140.37542 355.075588 142.277592 
C 324.841403 144.179764 295.315201 152.257216 268.323082 166.010386 
C 241.330962 179.763555 217.441097 198.902943 198.130996 222.244841 
C 178.820895 245.586738 164.497028 272.63981 156.045279 301.73091 
C 147.59353 330.82201 145.191804 361.338785 148.988641 391.393872 
L 192.990912 385.835097 
C 189.953443 361.791028 191.874824 337.377608 198.636223 314.104728 
C 205.397622 290.831848 216.856716 269.189391 232.304797 250.515873 
C 247.752877 231.842354 266.86477 216.530844 288.458465 205.528309 
C 310.052161 194.525773 333.673122 188.063811 357.86047 186.542073 
C 382.047818 185.020336 406.292419 188.470855 429.094824 196.680227 
C 451.89723 204.889599 472.777459 217.685021 490.444137 234.275137 
C 508.110815 250.865254 522.192067 270.90085 531.817014 293.142789 
C 541.44196 315.384729 546.408 339.36483 546.408 363.6 
z
" style="opacity: 0.1"/>
   </g>
   <g id="patch_3">
    <path d="M 148.988641 391.393872 
C 156.055629 447.334902 184.19895 498.527427 227.644833 534.468997 
C 271.090715 570.410567 326.650008 588.462885 382.924392 584.922409 
C 439.198775 581.381934 492.057419 556.508555 530.656057 515.405194 
C 569.254695 474.301833 590.759989 419.985688 590.76 363.600042 
L 546.408 363.600033 
C 546.407992 408.708551 529.203756 452.161466 498.324846 485.044155 
C 467.445935 517.926844 425.15902 537.825547 380.139513 540.657928 
C 335.120007 543.490308 290.672572 529.048454 255.915866 500.295198 
C 221.15916 471.541942 198.644503 430.587921 192.990912 385.835097 
z
"/>
   </g>
   <g id="patch_4">
    <path d="M 546.408 363.6 
C 546.408 340.302995 541.818998 317.232524 532.90362 295.708898 
C 523.988242 274.185271 510.91987 254.62707 494.4464 238.1536 
C 477.97293 221.68013 458.414729 208.611758 436.891102 199.69638 
C 415.367476 190.781002 392.297005 186.192 369 186.192 
C 345.702995 186.192 322.632524 190.781002 301.108898 199.69638 
C 279.585271 208.611758 260.02707 221.68013 243.5536 238.1536 
C 227.08013 254.62707 214.011758 274.185271 205.09638 295.708898 
C 196.181002 317.232524 191.592 340.302995 191.592 363.6 
C 191.592 386.897005 196.181002 409.967476 205.09638 431.491102 
C 214.011758 453.014729 227.08013 472.57293 243.5536 489.0464 
C 260.02707 505.51987 279.585271 518.588242 301.108898 527.50362 
C 322.632524 536.418998 345.702995 541.008 369 541.008 
C 392.297005 541.008 415.367476 536.418998 436.891102 527.50362 
C 458.414729 518.588242 477.97293 505.51987 494.4464 489.0464 
C 510.91987 472.57293 523.988242 453.014729 532.90362 431.491102 
C 541.818998 409.967476 546.408 386.897005 546.408 363.6 
M 369 363.6 
z
" style="fill: #9edae5"/>
   </g>
   <g id="matplotlib.axis_1"/>
   <g id="matplotlib.axis_2"/>
  </g>
 </g>
</svg>
