<?xml version="1.0" encoding="utf-8" standalone="no"?>
<!DOCTYPE svg PUBLIC "-//W3C//DTD SVG 1.1//EN"
  "http://www.w3.org/Graphics/SVG/1.1/DTD/svg11.dtd">
<svg xmlns:xlink="http://www.w3.org/1999/xlink" width="720pt" height="720pt" viewBox="0 0 720 720" xmlns="http://www.w3.org/2000/svg" version="1.1">
 <metadata>
  <rdf:RDF xmlns:dc="http://purl.org/dc/elements/1.1/" xmlns:cc="http://creativecommons.org/ns#" xmlns:rdf="http://www.w3.org/1999/02/22-rdf-syntax-ns#">
   <cc:Work>
    <dc:type rdf:resource="http://purl.org/dc/dcmitype/StillImage"/>
    <dc:date>2024-10-24T16:56:29.628322</dc:date>
    <dc:format>image/svg+xml</dc:format>
    <dc:creator>
     <cc:Agent>
      <dc:title>Matplotlib v3.8.2, https://matplotlib.org/</dc:title>
     </cc:Agent>
    </dc:creator>
   </cc:Work>
  </rdf:RDF>
 </metadata>
 <defs>
  <style type="text/css">*{stroke-linejoin: round; stroke-linecap: butt}</style>
 </defs>
 <g id="figure_1">
  <g id="patch_1">
   <path d="M 0 720 
L 720 720 
L 720 0 
L 0 0 
L 0 720 
z
" style="fill: none"/>
  </g>
  <g id="axes_1">
   <g id="patch_2">
    <path d="M 590.76 363.6 
C 590.76 337.856719 586.277339 312.308949 577.513228 288.103436 
C 568.749117 263.897922 555.836676 241.40233 539.355497 221.626404 
C 522.874319 201.850477 503.07474 185.094599 480.84549 172.110878 
C 458.616241 159.127157 434.294969 150.112808 408.973365 145.472451 
C 383.651761 140.832094 357.714444 140.636213 332.325644 144.8936 
C 306.936844 149.150988 282.482199 157.796977 260.059388 170.443482 
C 237.636577 183.089986 217.586187 199.544914 200.808206 219.069664 
C 184.030225 238.594415 170.779499 260.89242 161.650804 284.962805 
C 152.522109 309.033191 147.654103 334.510343 147.265294 360.250688 
C 146.876485 385.991033 150.972779 411.603592 159.370307 435.938712 
C 167.767834 460.273832 180.339044 482.961878 196.519661 502.98447 
C 212.700278 523.007061 232.244529 540.060067 254.275146 553.378043 
C 276.305762 566.696018 300.488114 576.076671 325.736745 581.098939 
C 350.985376 586.121207 376.916775 586.708805 402.366981 582.835358 
C 427.817186 578.961911 452.399624 570.686255 475.010882 558.379851 
C 497.62214 546.073448 517.918766 529.923225 534.989722 510.654105 
L 501.791778 481.243284 
C 488.135013 496.65858 471.897712 509.578759 453.808706 519.423881 
C 435.719699 529.269004 416.053749 535.889529 395.693584 538.988286 
C 375.33342 542.087044 354.5883 541.616965 334.389396 537.599151 
C 314.190491 533.581337 294.84461 526.076814 277.220117 515.422434 
C 259.595623 504.768054 243.960223 491.125649 231.015729 475.107576 
C 218.071235 459.089502 208.014268 440.939065 201.296245 421.470969 
C 194.578223 402.002873 191.301188 381.512827 191.612235 360.920551 
C 191.923283 340.328275 195.817687 319.946553 203.120643 300.690244 
C 210.423599 281.433936 221.02418 263.595532 234.446565 247.975731 
C 247.86895 232.355931 263.909261 219.191989 281.84751 209.074785 
C 299.785759 198.957582 319.349475 192.04079 339.660515 188.63488 
C 359.971556 185.22897 380.721409 185.385675 400.978692 189.097961 
C 421.235975 192.810246 440.692993 200.021726 458.476392 210.408702 
C 476.259792 220.795679 492.099455 234.200382 505.284398 250.021123 
C 518.469341 265.841864 528.799294 283.838338 535.810583 303.202748 
C 542.821872 322.567159 546.408 343.005375 546.408 363.6 
z
" style="opacity: 0.1"/>
   </g>
   <g id="patch_3">
    <path d="M 534.989722 510.654105 
C 552.806841 490.542741 566.821483 467.359698 576.349191 442.237209 
C 585.876898 417.11472 590.759996 390.468538 590.76 363.600031 
L 546.408 363.600025 
C 546.407997 385.09483 542.501519 406.411776 534.879353 426.509767 
C 527.257187 446.607759 516.045473 465.154193 501.791778 481.243284 
z
"/>
   </g>
   <g id="patch_4">
    <path d="M 546.408 363.6 
C 546.408 332.460712 538.209481 301.86342 522.639838 274.896005 
C 507.070194 247.92859 484.671423 225.529816 457.70401 209.960171 
C 430.736596 194.390525 400.139305 186.192003 369.000017 186.192 
C 337.860729 186.191997 307.263436 194.390513 280.296019 209.960154 
C 253.328603 225.529795 230.929827 247.928564 215.360179 274.895976 
C 199.790531 301.863388 191.592006 332.460679 191.592 363.599967 
C 191.591994 394.739255 199.790508 425.336548 215.360146 452.303966 
C 230.929784 479.271384 253.328551 501.670162 280.295962 517.239813 
L 369 363.6 
z
" style="fill: #d62728"/>
   </g>
   <g id="patch_5">
    <path d="M 280.295962 517.239813 
C 307.263372 532.809463 337.860662 541.007991 368.99995 541.008 
C 400.139238 541.008009 430.736533 532.809498 457.703952 517.239863 
C 484.671371 501.670227 507.070151 479.271462 522.639804 452.304053 
C 538.209458 425.336644 546.407988 394.739355 546.408 363.600066 
L 369 363.6 
z
" style="fill: #dbdb8d"/>
   </g>
   <g id="matplotlib.axis_1"/>
   <g id="matplotlib.axis_2"/>
  </g>
 </g>
</svg>
