<?xml version="1.0" encoding="utf-8" standalone="no"?>
<!DOCTYPE svg PUBLIC "-//W3C//DTD SVG 1.1//EN"
  "http://www.w3.org/Graphics/SVG/1.1/DTD/svg11.dtd">
<svg xmlns:xlink="http://www.w3.org/1999/xlink" width="720pt" height="720pt" viewBox="0 0 720 720" xmlns="http://www.w3.org/2000/svg" version="1.1">
 <metadata>
  <rdf:RDF xmlns:dc="http://purl.org/dc/elements/1.1/" xmlns:cc="http://creativecommons.org/ns#" xmlns:rdf="http://www.w3.org/1999/02/22-rdf-syntax-ns#">
   <cc:Work>
    <dc:type rdf:resource="http://purl.org/dc/dcmitype/StillImage"/>
    <dc:date>2024-10-24T16:56:27.978252</dc:date>
    <dc:format>image/svg+xml</dc:format>
    <dc:creator>
     <cc:Agent>
      <dc:title>Matplotlib v3.8.2, https://matplotlib.org/</dc:title>
     </cc:Agent>
    </dc:creator>
   </cc:Work>
  </rdf:RDF>
 </metadata>
 <defs>
  <style type="text/css">*{stroke-linejoin: round; stroke-linecap: butt}</style>
 </defs>
 <g id="figure_1">
  <g id="patch_1">
   <path d="M 0 720 
L 720 720 
L 720 0 
L 0 0 
L 0 720 
z
" style="fill: none"/>
  </g>
  <g id="axes_1">
   <g id="patch_2">
    <path d="M 590.76 363.6 
C 590.76 337.140751 586.02453 310.893807 576.77797 286.102821 
C 567.53141 261.311835 553.922146 238.374646 536.595023 218.37808 
C 519.267899 198.381514 498.500976 181.646471 475.278249 168.965904 
C 452.055522 156.285336 426.749661 147.862738 400.559729 144.097196 
C 374.369797 140.331653 347.716082 141.283594 321.86151 146.907914 
C 296.006938 152.532233 271.366416 162.738673 249.10748 177.043624 
C 226.848545 191.348576 207.3284 209.522477 191.471965 230.704198 
C 175.615529 251.885919 163.677263 275.735542 156.222833 301.123006 
C 148.768403 326.51047 145.917437 353.028365 147.805021 379.420198 
C 149.692604 405.812032 156.288447 431.654276 167.280019 455.722455 
C 178.27159 479.790633 193.482502 501.698506 212.192019 520.408018 
C 230.901535 539.11753 252.809412 554.328437 276.877592 565.320003 
C 300.945773 576.311569 326.788019 582.907406 353.179853 584.794983 
C 379.571687 586.682561 406.089581 583.831588 431.477043 576.377153 
C 456.864506 568.922717 480.714126 556.984445 501.895844 541.128004 
C 523.077561 525.271564 541.251458 505.751415 555.556404 483.492476 
L 518.245123 459.513981 
C 506.801166 477.321132 492.262049 492.937251 475.316675 505.622404 
C 458.371301 518.307556 439.291605 527.858173 418.981635 533.821722 
C 398.671665 539.785271 377.45735 542.066049 356.343883 540.555986 
C 335.230415 539.045924 314.556619 533.769255 295.302074 524.976002 
C 276.047529 516.182749 258.521228 504.014024 243.553615 489.046415 
C 228.586002 474.078805 216.417272 456.552506 207.624015 437.297964 
C 198.830757 418.043421 193.554083 397.369626 192.044016 376.256159 
C 190.533949 355.142692 192.814723 333.928376 198.778266 313.618405 
C 204.74181 293.308434 214.292423 274.228735 226.977572 257.283358 
C 239.66272 240.337981 255.278836 225.798861 273.085984 214.354899 
C 290.893133 202.910938 310.60555 194.745786 331.289208 190.246331 
C 351.972865 185.746875 373.295838 184.985322 394.247783 187.997757 
C 415.199729 191.010191 435.444417 197.748269 454.022599 207.892723 
C 472.600781 218.037177 489.214319 231.425211 503.076018 247.422464 
C 516.937717 263.419717 527.825128 281.769468 535.222376 301.602257 
C 542.619624 321.435046 546.408 342.432601 546.408 363.6 
z
" style="opacity: 0.1"/>
   </g>
   <g id="patch_3">
    <path d="M 555.556404 483.492476 
C 566.989502 465.702222 575.81929 446.367674 581.777173 426.076974 
C 587.735056 405.786274 590.760004 384.747272 590.76 363.599958 
L 546.408 363.599967 
C 546.408003 380.517818 543.988045 397.349019 539.221738 413.581579 
C 534.455432 429.814139 527.391601 445.281777 518.245123 459.513981 
z
"/>
   </g>
   <g id="patch_4">
    <path d="M 546.408 363.6 
C 546.408 332.460709 538.209479 301.863414 522.639833 274.895998 
C 507.070188 247.928581 484.671413 225.529807 457.703995 209.960162 
C 430.736578 194.390518 400.139283 186.191999 368.999992 186.192 
C 337.860701 186.192001 307.263406 194.390524 280.29599 209.960171 
C 253.328574 225.529818 230.929802 247.928594 215.360158 274.896012 
C 199.790515 301.86343 191.591997 332.460726 191.592 363.600017 
C 191.592003 394.739308 199.790526 425.336602 215.360175 452.304017 
C 230.929823 479.271432 253.3286 501.670204 280.296019 517.239846 
L 369 363.6 
z
" style="fill: #d62728"/>
   </g>
   <g id="patch_5">
    <path d="M 280.296019 517.239846 
C 307.263438 532.809488 337.860734 541.008004 369.000025 541.008 
C 400.139316 541.007996 430.736609 532.809471 457.704024 517.239821 
C 484.671439 501.670171 507.070209 479.271393 522.63985 452.303974 
C 538.209491 425.336554 546.408006 394.739258 546.408 363.599967 
L 369 363.6 
z
" style="fill: #9edae5"/>
   </g>
   <g id="matplotlib.axis_1"/>
   <g id="matplotlib.axis_2"/>
  </g>
 </g>
</svg>
