<?xml version="1.0" encoding="utf-8" standalone="no"?>
<!DOCTYPE svg PUBLIC "-//W3C//DTD SVG 1.1//EN"
  "http://www.w3.org/Graphics/SVG/1.1/DTD/svg11.dtd">
<svg xmlns:xlink="http://www.w3.org/1999/xlink" width="720pt" height="720pt" viewBox="0 0 720 720" xmlns="http://www.w3.org/2000/svg" version="1.1">
 <metadata>
  <rdf:RDF xmlns:dc="http://purl.org/dc/elements/1.1/" xmlns:cc="http://creativecommons.org/ns#" xmlns:rdf="http://www.w3.org/1999/02/22-rdf-syntax-ns#">
   <cc:Work>
    <dc:type rdf:resource="http://purl.org/dc/dcmitype/StillImage"/>
    <dc:date>2024-10-24T16:56:26.766484</dc:date>
    <dc:format>image/svg+xml</dc:format>
    <dc:creator>
     <cc:Agent>
      <dc:title>Matplotlib v3.8.2, https://matplotlib.org/</dc:title>
     </cc:Agent>
    </dc:creator>
   </cc:Work>
  </rdf:RDF>
 </metadata>
 <defs>
  <style type="text/css">*{stroke-linejoin: round; stroke-linecap: butt}</style>
 </defs>
 <g id="figure_1">
  <g id="patch_1">
   <path d="M 0 720 
L 720 720 
L 720 0 
L 0 0 
L 0 720 
z
" style="fill: none"/>
  </g>
  <g id="axes_1">
   <g id="patch_2">
    <path d="M 590.76 363.6 
C 590.76 340.853854 587.260358 318.242519 580.384064 296.560644 
C 573.50777 274.878769 563.336332 254.383359 550.227215 235.794702 
C 537.118097 217.206045 521.226688 200.744481 503.111473 186.988532 
C 484.996257 173.232584 464.871964 162.345308 443.445838 154.709323 
C 422.019712 147.073339 399.545727 142.77916 376.813706 141.977701 
C 354.081684 141.176241 331.36108 143.877001 309.450382 149.985065 
C 287.539683 156.093129 266.69861 165.536095 247.659596 177.982102 
C 228.620582 190.428109 211.609307 205.729628 197.223611 223.348904 
C 182.837916 240.968181 171.248321 260.696365 162.862129 281.840133 
C 154.475938 302.983901 149.392555 325.292626 147.790631 347.982293 
C 146.188707 370.671959 148.08723 393.473617 153.419479 415.585927 
C 158.751728 437.698237 167.454496 458.859092 179.221936 478.324819 
C 190.989376 497.790545 205.682001 515.330406 222.783458 530.327983 
C 239.884914 545.32556 259.192489 557.603081 280.027641 566.729065 
C 300.862793 575.855049 322.978552 581.721322 345.597686 584.121721 
C 368.21682 586.52212 391.071214 585.428191 413.357675 580.87838 
L 404.48614 537.422704 
C 386.656971 541.062553 368.373456 541.937696 350.278149 540.017377 
C 332.182842 538.097058 314.490234 533.404039 297.822113 526.103252 
C 281.153992 518.802465 265.707931 508.980448 252.026766 496.982387 
C 238.345601 484.984325 226.591501 470.952436 217.177549 455.379855 
C 207.763597 439.807274 200.801382 422.87859 196.535583 405.188742 
C 192.269784 387.498894 190.750966 369.257568 192.032505 351.105834 
C 193.314044 332.954101 197.38075 315.107121 204.089703 298.192107 
C 210.798657 281.277092 220.070332 265.494545 231.578889 251.399124 
C 243.087445 237.303702 256.696466 225.062487 271.927677 215.105682 
C 287.158888 205.148876 303.831747 197.594503 321.360305 192.708052 
C 338.888864 187.821601 357.065347 185.660993 375.250964 186.30216 
C 393.436582 186.943328 411.41577 190.378671 428.55667 196.487459 
C 445.697571 202.596246 461.797006 211.306067 476.289178 222.310826 
C 490.78135 233.315584 503.494478 246.484836 513.981772 261.355761 
C 524.469066 276.226687 532.606216 292.623015 538.107251 309.968515 
C 543.608286 327.314016 546.408 345.403084 546.408 363.6 
z
" style="opacity: 0.1"/>
   </g>
   <g id="patch_3">
    <path d="M 413.357675 580.87838 
C 463.427377 570.656582 508.456872 543.43531 540.776382 503.851104 
C 573.095893 464.266897 590.759995 414.702469 590.76 363.600021 
L 546.408 363.600017 
C 546.407996 404.481975 532.276714 444.133518 506.421106 475.800883 
C 480.565497 507.468248 444.541901 529.245266 404.48614 537.422704 
z
"/>
   </g>
   <g id="patch_4">
    <path d="M 546.408 363.6 
C 546.408 336.158325 540.040935 309.087226 527.809128 284.522447 
C 515.57732 259.957667 497.81113 238.562658 475.9122 222.025356 
C 454.01327 205.488053 428.573053 194.255099 401.598624 189.212706 
C 374.624196 184.170314 346.844089 185.454667 320.449983 192.96444 
C 294.055877 200.474213 269.760631 214.006579 249.480991 232.493918 
C 229.20135 250.981256 213.485033 273.924257 203.571959 299.512858 
C 193.658886 325.101458 189.816791 352.644556 192.348793 379.969169 
C 194.880795 407.293782 203.718509 433.661921 218.164693 456.9933 
L 369 363.6 
z
" style="fill: #dbdb8d"/>
   </g>
   <g id="patch_5">
    <path d="M 218.164693 456.9933 
C 241.435357 494.576701 277.933021 522.138448 320.450023 534.235571 
C 362.967025 546.332694 408.507353 542.112754 448.077576 522.409117 
L 369 363.6 
z
" style="fill: #d62728"/>
   </g>
   <g id="patch_6">
    <path d="M 448.077576 522.409117 
C 467.698325 512.639141 485.339632 499.317039 500.106113 483.118976 
C 514.872594 466.920912 526.510126 448.125647 534.428044 427.687135 
L 369 363.6 
z
" style="fill: #8c564b"/>
   </g>
   <g id="patch_7">
    <path d="M 534.428044 427.687135 
C 538.378609 417.489546 541.3778 406.948476 543.387297 396.198606 
C 545.396794 385.448736 546.408002 374.536048 546.408 363.599971 
L 369 363.6 
z
" style="fill: #c7c7c7"/>
   </g>
   <g id="matplotlib.axis_1"/>
   <g id="matplotlib.axis_2"/>
  </g>
 </g>
</svg>
