<?xml version="1.0" encoding="utf-8" standalone="no"?>
<!DOCTYPE svg PUBLIC "-//W3C//DTD SVG 1.1//EN"
  "http://www.w3.org/Graphics/SVG/1.1/DTD/svg11.dtd">
<svg xmlns:xlink="http://www.w3.org/1999/xlink" width="720pt" height="720pt" viewBox="0 0 720 720" xmlns="http://www.w3.org/2000/svg" version="1.1">
 <metadata>
  <rdf:RDF xmlns:dc="http://purl.org/dc/elements/1.1/" xmlns:cc="http://creativecommons.org/ns#" xmlns:rdf="http://www.w3.org/1999/02/22-rdf-syntax-ns#">
   <cc:Work>
    <dc:type rdf:resource="http://purl.org/dc/dcmitype/StillImage"/>
    <dc:date>2024-10-24T16:56:28.806790</dc:date>
    <dc:format>image/svg+xml</dc:format>
    <dc:creator>
     <cc:Agent>
      <dc:title>Matplotlib v3.8.2, https://matplotlib.org/</dc:title>
     </cc:Agent>
    </dc:creator>
   </cc:Work>
  </rdf:RDF>
 </metadata>
 <defs>
  <style type="text/css">*{stroke-linejoin: round; stroke-linecap: butt}</style>
 </defs>
 <g id="figure_1">
  <g id="patch_1">
   <path d="M 0 720 
L 720 720 
L 720 0 
L 0 0 
L 0 720 
z
" style="fill: none"/>
  </g>
  <g id="axes_1">
   <g id="patch_2">
    <path d="M 590.76 363.6 
C 590.76 336.431307 585.767184 309.492483 576.030795 284.128323 
C 566.294406 258.764163 551.9792 235.40387 533.799796 215.213596 
C 515.620392 195.023322 493.884415 178.344721 469.676932 166.010393 
C 445.469449 153.676064 419.200091 145.894726 392.180231 143.054824 
C 365.16037 140.214923 337.847229 142.364514 311.604287 149.396289 
C 285.361344 156.428065 260.632675 168.223035 238.652741 184.192393 
C 216.672806 200.16175 197.813544 220.035266 183.016414 242.82085 
C 168.219283 265.606433 157.734676 290.918514 152.085987 317.493506 
C 146.437299 344.068498 145.720114 371.456709 149.970234 398.29091 
C 154.220354 425.125112 163.365861 450.951225 176.950208 474.480003 
C 190.534555 498.008781 208.327873 518.842079 229.441913 535.939891 
C 250.555954 553.037703 274.633432 566.110707 300.472395 574.506294 
C 326.311358 582.901882 353.474567 586.477985 380.606026 585.056085 
C 407.737486 583.634185 434.378086 577.238342 459.197922 566.187839 
C 484.017758 555.137335 506.596837 539.619164 525.808003 520.407996 
C 545.01917 501.196828 560.53734 478.617749 571.587843 453.797913 
L 531.070274 435.75833 
C 522.229872 455.6142 509.815336 473.677463 494.446403 489.046397 
C 479.077469 504.415331 461.014207 516.829868 441.158338 525.670271 
C 421.302469 534.510674 399.989988 539.627348 378.284821 540.764868 
C 356.579653 541.902388 334.849087 539.041505 314.177916 532.325035 
C 293.506746 525.608566 274.244763 515.150162 257.35353 501.471913 
C 240.462298 487.793663 226.227644 471.127025 215.360167 452.304002 
C 204.492689 433.48098 197.176284 412.820089 193.776187 391.352728 
C 190.376091 369.885367 190.949839 347.974799 195.46879 326.714805 
C 199.987741 305.454811 208.375426 285.205147 220.213131 266.97668 
C 232.050835 248.748213 247.138245 232.8494 264.722193 220.073914 
C 282.30614 207.298428 302.089076 197.862452 323.08343 192.237031 
C 344.077783 186.611611 365.928296 184.891938 387.544185 187.163859 
C 409.160073 189.435781 430.175559 195.660851 449.541546 205.528314 
C 468.907532 215.395777 486.296313 228.738658 500.839837 244.890877 
C 515.38336 261.043096 526.835525 279.73133 534.624636 300.022659 
C 542.413747 320.313987 546.408 341.865045 546.408 363.6 
z
" style="opacity: 0.1"/>
   </g>
   <g id="patch_3">
    <path d="M 571.587843 453.797913 
C 577.890594 439.6417 582.692235 424.86377 585.914014 409.706489 
C 589.135793 394.549208 590.760001 379.095893 590.76 363.59999 
L 546.408 363.599992 
C 546.408001 375.996715 545.108634 388.359366 542.531211 400.485191 
C 539.953788 412.611016 536.112476 424.43336 531.070274 435.75833 
z
"/>
   </g>
   <g id="patch_4">
    <path d="M 546.408 363.6 
C 546.408 332.460712 538.209481 301.86342 522.639838 274.896005 
C 507.070194 247.92859 484.671423 225.529816 457.70401 209.960171 
C 430.736596 194.390525 400.139305 186.192003 369.000017 186.192 
C 337.860729 186.191997 307.263436 194.390513 280.296019 209.960154 
C 253.328603 225.529795 230.929827 247.928564 215.360179 274.895976 
C 199.790531 301.863388 191.592006 332.460679 191.592 363.599967 
C 191.591994 394.739255 199.790508 425.336548 215.360146 452.303966 
C 230.929784 479.271384 253.328551 501.670162 280.295962 517.239813 
L 369 363.6 
z
" style="fill: #dbdb8d"/>
   </g>
   <g id="patch_5">
    <path d="M 280.295962 517.239813 
C 307.263372 532.809463 337.860662 541.007991 368.99995 541.008 
C 400.139238 541.008009 430.736533 532.809498 457.703952 517.239863 
C 484.671371 501.670227 507.070151 479.271462 522.639804 452.304053 
C 538.209458 425.336644 546.407988 394.739355 546.408 363.600066 
L 369 363.6 
z
" style="fill: #d62728"/>
   </g>
   <g id="matplotlib.axis_1"/>
   <g id="matplotlib.axis_2"/>
  </g>
 </g>
</svg>
