<?xml version="1.0" encoding="utf-8" standalone="no"?>
<!DOCTYPE svg PUBLIC "-//W3C//DTD SVG 1.1//EN"
  "http://www.w3.org/Graphics/SVG/1.1/DTD/svg11.dtd">
<svg xmlns:xlink="http://www.w3.org/1999/xlink" width="720pt" height="720pt" viewBox="0 0 720 720" xmlns="http://www.w3.org/2000/svg" version="1.1">
 <metadata>
  <rdf:RDF xmlns:dc="http://purl.org/dc/elements/1.1/" xmlns:cc="http://creativecommons.org/ns#" xmlns:rdf="http://www.w3.org/1999/02/22-rdf-syntax-ns#">
   <cc:Work>
    <dc:type rdf:resource="http://purl.org/dc/dcmitype/StillImage"/>
    <dc:date>2024-10-24T16:56:27.393188</dc:date>
    <dc:format>image/svg+xml</dc:format>
    <dc:creator>
     <cc:Agent>
      <dc:title>Matplotlib v3.8.2, https://matplotlib.org/</dc:title>
     </cc:Agent>
    </dc:creator>
   </cc:Work>
  </rdf:RDF>
 </metadata>
 <defs>
  <style type="text/css">*{stroke-linejoin: round; stroke-linecap: butt}</style>
 </defs>
 <g id="figure_1">
  <g id="patch_1">
   <path d="M 0 720 
L 720 720 
L 720 0 
L 0 0 
L 0 720 
z
" style="fill: none"/>
  </g>
  <g id="axes_1">
   <g id="patch_2">
    <path d="M 590.76 363.6 
C 590.76 338.255815 586.415251 313.098178 577.914848 289.222022 
C 569.414446 265.345865 556.883526 243.102673 540.86747 223.460533 
C 524.851415 203.818393 505.585998 187.066461 483.909706 173.933827 
C 462.233413 160.801193 438.465346 151.481187 413.639959 146.37944 
C 388.814571 141.277693 363.297321 140.46931 338.198792 143.989474 
C 313.100263 147.509638 288.789935 155.306527 266.325862 167.0408 
C 243.86179 178.775073 223.574671 194.273986 206.347457 212.862984 
C 189.120244 231.451982 175.206542 252.857411 165.211915 276.147648 
C 155.217287 299.437885 149.288867 324.270069 147.684677 349.563433 
C 146.080486 374.856798 148.82414 400.238994 155.796227 424.605317 
C 162.768314 448.97164 173.866197 471.963389 188.606864 492.579898 
C 203.347532 513.196407 221.513983 531.134176 242.315564 545.612503 
C 263.117145 560.09083 286.24763 570.896576 310.700317 577.559446 
C 335.153003 584.222316 360.567918 586.644223 385.838932 584.719759 
C 411.109946 582.795296 435.86504 576.552792 459.026802 566.26394 
C 482.188564 555.975087 503.416026 541.79135 521.785308 524.330045 
L 491.228246 492.184036 
C 476.532821 506.15308 459.550851 517.50007 441.021442 525.731152 
C 422.492032 533.962234 402.687957 538.956237 382.471146 540.495807 
C 362.254334 542.035378 341.922403 540.097852 322.360253 534.767557 
C 302.798104 529.437261 284.293716 520.792664 267.652451 509.210002 
C 251.011187 497.627341 236.478025 483.277126 224.685491 466.783919 
C 212.892957 450.290712 204.014651 431.897312 198.436981 412.404254 
C 192.859312 392.911195 190.664389 372.605438 191.947741 352.370747 
C 193.231094 332.136055 197.97383 312.270308 205.969532 293.638118 
C 213.965234 275.005929 225.096195 257.881585 238.877966 243.010387 
C 252.659737 228.139189 268.889432 215.740058 286.86069 206.35264 
C 304.831948 196.965222 324.28021 190.72771 344.359033 187.911579 
C 364.437856 185.095448 384.851656 185.742155 404.711967 189.823552 
C 424.572277 193.904949 443.586731 201.360955 460.927764 211.867062 
C 478.268798 222.373168 493.681132 235.774715 506.493976 251.488426 
C 519.306821 267.202138 529.331557 284.996692 536.131879 304.097617 
C 542.932201 323.198543 546.408 343.324652 546.408 363.6 
z
" style="opacity: 0.1"/>
   </g>
   <g id="patch_3">
    <path d="M 521.785308 524.330045 
C 543.577592 503.614933 560.931021 478.68258 572.788085 451.052352 
C 584.64515 423.422124 590.76 393.666917 590.76 363.6 
L 546.408 363.6 
C 546.408 387.653533 541.51612 411.457699 532.030468 433.561882 
C 522.544817 455.666064 508.662073 475.611947 491.228246 492.184036 
z
"/>
   </g>
   <g id="patch_4">
    <path d="M 546.408 363.6 
C 546.408 340.302995 541.818998 317.232524 532.90362 295.708898 
C 523.988242 274.185271 510.91987 254.62707 494.4464 238.1536 
C 477.97293 221.68013 458.414729 208.611758 436.891102 199.69638 
C 415.367476 190.781002 392.297005 186.192 369 186.192 
C 345.702995 186.192 322.632524 190.781002 301.108898 199.69638 
C 279.585271 208.611758 260.02707 221.68013 243.5536 238.1536 
C 227.08013 254.62707 214.011758 274.185271 205.09638 295.708898 
C 196.181002 317.232524 191.592 340.302995 191.592 363.6 
C 191.592 386.897005 196.181002 409.967476 205.09638 431.491102 
C 214.011758 453.014729 227.08013 472.57293 243.5536 489.0464 
C 260.02707 505.51987 279.585271 518.588242 301.108898 527.50362 
C 322.632524 536.418998 345.702995 541.008 369 541.008 
C 392.297005 541.008 415.367476 536.418998 436.891102 527.50362 
C 458.414729 518.588242 477.97293 505.51987 494.4464 489.0464 
C 510.91987 472.57293 523.988242 453.014729 532.90362 431.491102 
C 541.818998 409.967476 546.408 386.897005 546.408 363.6 
M 369 363.6 
z
" style="fill: #d62728"/>
   </g>
   <g id="matplotlib.axis_1"/>
   <g id="matplotlib.axis_2"/>
  </g>
 </g>
</svg>
