<?xml version="1.0" encoding="utf-8" standalone="no"?>
<!DOCTYPE svg PUBLIC "-//W3C//DTD SVG 1.1//EN"
  "http://www.w3.org/Graphics/SVG/1.1/DTD/svg11.dtd">
<svg xmlns:xlink="http://www.w3.org/1999/xlink" width="720pt" height="720pt" viewBox="0 0 720 720" xmlns="http://www.w3.org/2000/svg" version="1.1">
 <metadata>
  <rdf:RDF xmlns:dc="http://purl.org/dc/elements/1.1/" xmlns:cc="http://creativecommons.org/ns#" xmlns:rdf="http://www.w3.org/1999/02/22-rdf-syntax-ns#">
   <cc:Work>
    <dc:type rdf:resource="http://purl.org/dc/dcmitype/StillImage"/>
    <dc:date>2024-10-24T16:56:28.078670</dc:date>
    <dc:format>image/svg+xml</dc:format>
    <dc:creator>
     <cc:Agent>
      <dc:title>Matplotlib v3.8.2, https://matplotlib.org/</dc:title>
     </cc:Agent>
    </dc:creator>
   </cc:Work>
  </rdf:RDF>
 </metadata>
 <defs>
  <style type="text/css">*{stroke-linejoin: round; stroke-linecap: butt}</style>
 </defs>
 <g id="figure_1">
  <g id="patch_1">
   <path d="M 0 720 
L 720 720 
L 720 0 
L 0 0 
L 0 720 
z
" style="fill: none"/>
  </g>
  <g id="axes_1">
   <g id="patch_2">
    <path d="M 590.76 363.6 
C 590.76 336.086634 585.639699 308.812012 575.661133 283.171935 
C 565.682567 257.531859 551.018912 233.971305 532.420592 213.696005 
C 513.822272 193.420705 491.612056 176.782531 466.926571 164.632957 
C 442.241087 152.483383 415.508743 145.03326 388.097592 142.663856 
C 360.686441 140.294452 333.072194 143.046887 306.668035 150.780302 
C 280.263877 158.513717 255.528043 171.093902 233.726412 187.877053 
C 211.924781 204.660205 193.435714 225.355057 179.205404 248.902532 
C 164.975095 272.450008 155.250507 298.441447 150.529304 325.546714 
C 145.808101 352.651982 146.172218 380.400675 151.603022 407.372728 
C 157.033826 434.344781 167.437067 460.072104 182.280348 483.238076 
C 197.12363 506.404049 216.149352 526.606633 238.383857 542.811944 
C 260.618361 559.017254 285.675775 570.944053 312.273763 577.981976 
C 338.87175 585.019898 366.548711 587.046804 393.888253 583.958963 
C 421.227794 580.871122 447.755447 572.722123 472.113634 559.929 
C 496.471821 547.135876 518.237814 529.920648 536.297718 509.16432 
C 554.357622 488.407992 568.398014 464.470784 577.700363 438.577704 
L 535.96029 423.582163 
C 528.518411 444.296627 517.286098 463.446393 502.838174 480.051456 
C 488.390251 496.656518 470.977457 510.428701 451.490907 520.6632 
C 432.004358 530.897699 410.782235 537.416897 388.910602 539.88717 
C 367.038969 542.357443 344.8974 540.735919 323.61901 535.105581 
C 302.34062 529.475243 282.294689 519.933803 264.507085 506.969555 
C 246.719482 494.005306 231.498904 477.843239 219.624279 459.310461 
C 207.749653 440.777683 199.427061 420.195825 195.082418 398.618182 
C 190.737775 377.04054 190.446481 354.841586 194.223443 333.157372 
C 198.000405 311.473157 205.780076 290.680006 217.164323 271.842026 
C 228.548571 253.004046 243.339825 236.448164 260.78113 223.021643 
C 278.222434 209.595121 298.011102 199.530974 319.134428 193.344242 
C 340.257755 187.15751 362.349153 184.955562 384.278074 186.851085 
C 406.206995 188.746608 427.59287 194.706706 447.341257 204.426366 
C 467.089644 214.146025 484.857817 227.456564 499.736473 243.676804 
C 514.615129 259.897044 526.346054 278.745487 534.328907 299.257548 
C 542.311759 319.769609 546.408 341.589307 546.408 363.6 
z
" style="opacity: 0.1"/>
   </g>
   <g id="patch_3">
    <path d="M 577.700363 438.577704 
C 582.013005 426.57347 585.28191 414.219499 587.470696 401.653286 
C 589.659483 389.087072 590.76 376.355411 590.76 363.6 
L 546.408 363.6 
C 546.408 373.804328 545.527586 383.989658 543.776557 394.042628 
C 542.025528 404.095599 539.410404 413.978776 535.96029 423.582163 
z
"/>
   </g>
   <g id="patch_4">
    <path d="M 546.408 363.6 
C 546.408 339.283215 541.408456 315.22409 531.720623 292.92046 
C 522.032789 270.61683 507.86197 250.541352 490.090389 233.943854 
C 472.318808 217.346356 451.32308 204.578571 428.410324 196.435375 
C 405.497568 188.292179 381.15335 184.946143 356.893253 186.605579 
C 332.633156 188.265014 308.971299 194.894755 287.380785 206.082058 
C 265.790271 217.26936 246.728644 232.777142 231.382614 251.639947 
C 216.036584 270.502751 204.731362 292.320837 198.170771 315.73589 
C 191.610181 339.150942 189.933253 363.66675 193.244387 387.757047 
L 369 363.6 
z
" style="fill: #c7c7c7"/>
   </g>
   <g id="patch_5">
    <path d="M 193.244387 387.757047 
C 197.112196 415.897455 207.682412 442.701686 224.063 465.907695 
C 240.443588 489.113703 262.160416 508.049798 287.38077 521.117935 
C 312.601125 534.186072 340.59501 541.007997 368.999983 541.008 
C 397.404956 541.008003 425.398843 534.186082 450.6192 521.11795 
L 369 363.6 
z
" style="fill: #d62728"/>
   </g>
   <g id="patch_6">
    <path d="M 450.6192 521.11795 
C 479.483775 506.161537 503.689488 483.554984 520.580828 455.778365 
C 537.472168 428.001746 546.407997 396.109368 546.408 363.600017 
L 369 363.6 
z
" style="fill: #9edae5"/>
   </g>
   <g id="matplotlib.axis_1"/>
   <g id="matplotlib.axis_2"/>
  </g>
 </g>
</svg>
