<?xml version="1.0" encoding="utf-8" standalone="no"?>
<!DOCTYPE svg PUBLIC "-//W3C//DTD SVG 1.1//EN"
  "http://www.w3.org/Graphics/SVG/1.1/DTD/svg11.dtd">
<svg xmlns:xlink="http://www.w3.org/1999/xlink" width="720pt" height="720pt" viewBox="0 0 720 720" xmlns="http://www.w3.org/2000/svg" version="1.1">
 <metadata>
  <rdf:RDF xmlns:dc="http://purl.org/dc/elements/1.1/" xmlns:cc="http://creativecommons.org/ns#" xmlns:rdf="http://www.w3.org/1999/02/22-rdf-syntax-ns#">
   <cc:Work>
    <dc:type rdf:resource="http://purl.org/dc/dcmitype/StillImage"/>
    <dc:date>2024-10-24T16:56:26.858617</dc:date>
    <dc:format>image/svg+xml</dc:format>
    <dc:creator>
     <cc:Agent>
      <dc:title>Matplotlib v3.8.2, https://matplotlib.org/</dc:title>
     </cc:Agent>
    </dc:creator>
   </cc:Work>
  </rdf:RDF>
 </metadata>
 <defs>
  <style type="text/css">*{stroke-linejoin: round; stroke-linecap: butt}</style>
 </defs>
 <g id="figure_1">
  <g id="patch_1">
   <path d="M 0 720 
L 720 720 
L 720 0 
L 0 0 
L 0 720 
z
" style="fill: none"/>
  </g>
  <g id="axes_1">
   <g id="patch_2">
    <path d="M 590.76 363.6 
C 590.76 337.511606 586.156346 311.626704 577.16118 287.138109 
C 568.166015 262.649515 554.919664 239.939253 538.03254 220.053848 
C 521.145417 200.168443 500.880962 183.418109 478.172993 170.574729 
C 455.465024 157.731349 430.667788 148.99528 404.92398 144.769094 
C 379.180173 140.542909 352.8914 140.892535 327.26909 145.801862 
C 301.64678 150.71119 277.090643 160.103631 254.732265 173.54637 
C 232.373887 186.989108 212.562062 204.272434 196.209747 224.599906 
C 179.857433 244.927377 167.219729 267.981883 158.879 292.701036 
C 150.538271 317.420189 146.624634 343.418366 147.318434 369.497533 
C 148.012234 395.576699 153.302649 421.330016 162.945888 445.57073 
C 172.589127 469.811444 186.434754 492.161397 203.844741 511.590669 
C 221.254729 531.019941 241.957478 547.225433 264.998976 559.46037 
C 288.040473 571.695307 313.061267 579.768823 338.908361 583.308878 
C 364.755456 586.848932 391.025632 585.8003 416.50832 580.211304 
C 441.991009 574.622308 466.288675 564.580137 488.281646 550.54755 
C 510.274617 536.514963 529.619799 518.71087 545.425737 497.955711 
L 510.140589 471.084569 
C 497.495839 487.688696 482.019694 501.93197 464.425317 513.15804 
C 446.83094 524.38411 427.392807 532.417847 407.006656 536.889043 
C 386.620506 541.36024 365.604365 542.199146 344.926689 539.367102 
C 324.249013 536.535058 304.232378 530.076246 285.79918 520.288296 
C 267.365983 510.500346 250.803783 497.535953 236.875793 481.992535 
C 222.947803 466.449118 211.871301 448.569155 204.15671 429.176584 
C 196.442119 409.784012 192.209787 389.181359 191.654747 368.318026 
C 191.099707 347.454693 194.230617 326.656151 200.9032 306.880829 
C 207.575784 287.105506 217.685947 268.661902 230.767798 252.399925 
C 243.849649 236.137947 259.69911 222.311286 277.585812 211.557096 
C 295.472515 200.802905 315.117424 193.288952 335.615272 189.36149 
C 356.11312 185.434028 377.144138 185.154327 397.739184 188.535276 
C 418.33423 191.916224 438.172019 198.905079 456.338394 209.179783 
C 474.50477 219.454487 490.716334 232.854754 504.226032 248.763078 
C 517.735731 264.671402 528.332812 282.839612 535.528944 302.430488 
C 542.725076 322.021363 546.408 342.729285 546.408 363.6 
z
" style="opacity: 0.1"/>
   </g>
   <g id="patch_3">
    <path d="M 545.425737 497.955711 
C 560.032005 478.775866 571.413351 457.341894 579.121015 434.49892 
C 586.828679 411.655946 590.76001 387.708195 590.76 363.599907 
L 546.408 363.599925 
C 546.408008 382.886556 543.262943 402.044757 537.096812 420.319136 
C 530.93068 438.593515 521.825604 455.740693 510.140589 471.084569 
z
"/>
   </g>
   <g id="patch_4">
    <path d="M 546.408 363.6 
C 546.408 334.879907 539.433875 306.584768 526.086981 281.154389 
C 512.740088 255.724009 493.415399 233.910946 469.779225 217.596075 
C 446.143051 201.281203 418.894854 190.947326 390.384162 187.485503 
C 361.87347 184.02368 332.943997 187.536356 306.090244 197.720643 
L 369 363.6 
z
" style="fill: #d62728"/>
   </g>
   <g id="patch_5">
    <path d="M 306.090244 197.720643 
C 265.570117 213.087903 232.052383 242.78203 211.913011 281.154403 
C 191.773639 319.526777 186.376103 363.979519 196.747157 406.056527 
L 369 363.6 
z
" style="fill: #dbdb8d"/>
   </g>
   <g id="patch_6">
    <path d="M 196.747157 406.056527 
C 207.118212 448.133535 232.555718 484.986119 268.220782 509.60393 
C 303.885845 534.221741 347.363875 544.938109 390.384187 539.714494 
L 369 363.6 
z
" style="fill: #f7b6d2"/>
   </g>
   <g id="patch_7">
    <path d="M 390.384187 539.714494 
C 433.404498 534.490879 473.054538 513.680928 501.791805 481.243253 
C 530.529073 448.805577 546.408004 406.936266 546.408 363.599983 
L 369 363.6 
z
" style="fill: #9edae5"/>
   </g>
   <g id="matplotlib.axis_1"/>
   <g id="matplotlib.axis_2"/>
  </g>
 </g>
</svg>
