<?xml version="1.0" encoding="utf-8" standalone="no"?>
<!DOCTYPE svg PUBLIC "-//W3C//DTD SVG 1.1//EN"
  "http://www.w3.org/Graphics/SVG/1.1/DTD/svg11.dtd">
<svg xmlns:xlink="http://www.w3.org/1999/xlink" width="720pt" height="720pt" viewBox="0 0 720 720" xmlns="http://www.w3.org/2000/svg" version="1.1">
 <metadata>
  <rdf:RDF xmlns:dc="http://purl.org/dc/elements/1.1/" xmlns:cc="http://creativecommons.org/ns#" xmlns:rdf="http://www.w3.org/1999/02/22-rdf-syntax-ns#">
   <cc:Work>
    <dc:type rdf:resource="http://purl.org/dc/dcmitype/StillImage"/>
    <dc:date>2024-10-24T16:56:28.163830</dc:date>
    <dc:format>image/svg+xml</dc:format>
    <dc:creator>
     <cc:Agent>
      <dc:title>Matplotlib v3.8.2, https://matplotlib.org/</dc:title>
     </cc:Agent>
    </dc:creator>
   </cc:Work>
  </rdf:RDF>
 </metadata>
 <defs>
  <style type="text/css">*{stroke-linejoin: round; stroke-linecap: butt}</style>
 </defs>
 <g id="figure_1">
  <g id="patch_1">
   <path d="M 0 720 
L 720 720 
L 720 0 
L 0 0 
L 0 720 
z
" style="fill: none"/>
  </g>
  <g id="axes_1">
   <g id="patch_2">
    <path d="M 590.76 363.6 
C 590.76 337.267407 586.069757 311.144081 576.909415 286.456157 
C 567.749073 261.768233 554.264228 238.908104 537.087809 218.948743 
C 519.91139 198.989382 499.316401 182.248026 476.269499 169.510453 
C 453.222597 156.772881 428.090091 148.241545 402.051611 144.316876 
C 376.013131 140.392207 349.482537 141.136583 323.705078 146.515068 
C 297.92762 151.893553 273.313008 161.820659 251.016564 175.830443 
C 228.720121 189.840228 209.096228 207.710017 193.065961 228.601068 
C 177.035694 249.492119 164.853841 273.072386 157.092173 298.235096 
C 149.330506 323.397806 146.112389 349.74302 147.58887 376.034187 
C 149.065351 402.325354 155.212962 428.144599 165.743156 452.28006 
C 176.273351 476.415521 191.01876 498.483584 209.287288 517.448456 
C 227.555816 536.413327 249.0571 551.973575 272.781947 563.398859 
C 296.506794 574.824142 322.078118 581.932865 348.295693 584.39137 
C 374.513267 586.849876 400.960387 584.619087 426.395718 577.803709 
C 451.83105 570.988332 475.850321 559.696691 497.326153 544.458774 
C 518.801985 529.220857 537.393038 510.27886 552.226715 488.52185 
L 515.581372 463.53748 
C 503.71443 480.943088 488.841588 496.096686 471.660922 508.287019 
C 454.480257 520.477352 435.26484 529.510666 414.916575 534.962968 
C 394.568309 540.415269 373.410614 542.1999 352.436554 540.233096 
C 331.462494 538.266292 311.005435 532.579314 292.025558 523.439087 
C 273.04568 514.29886 255.844653 501.850662 241.229831 486.678765 
C 226.615008 471.506868 214.818681 453.852416 206.394525 434.544048 
C 197.970369 415.235679 193.05228 394.580283 191.871096 373.547349 
C 190.689911 352.514416 193.264405 331.438245 199.473739 311.308077 
C 205.683073 291.177909 215.428556 272.313695 228.252769 255.600855 
C 241.076982 238.888014 256.776096 224.592182 274.613251 213.384355 
C 292.450406 202.176527 312.142096 194.234842 332.764062 189.932054 
C 353.386029 185.629267 374.610505 185.033765 395.441289 188.173501 
C 416.272073 191.313236 436.378077 198.138305 454.815599 208.328363 
C 473.253121 218.518421 489.729112 231.911506 503.470247 247.878994 
C 517.211382 263.846483 527.999259 282.134586 535.327532 301.884925 
C 542.655806 321.635265 546.408 342.533925 546.408 363.6 
z
" style="opacity: 0.1"/>
   </g>
   <g id="patch_3">
    <path d="M 552.226715 488.52185 
C 564.708748 470.214068 574.37665 450.138461 580.907828 428.964899 
C 587.439006 407.791336 590.760001 385.757969 590.76 363.59999 
L 546.408 363.599992 
C 546.408001 381.326375 543.751205 398.953069 538.526262 415.891919 
C 533.30132 432.830769 525.566999 448.891254 515.581372 463.53748 
z
"/>
   </g>
   <g id="patch_4">
    <path d="M 546.408 363.6 
C 546.408 340.302995 541.818998 317.232524 532.90362 295.708898 
C 523.988242 274.185271 510.91987 254.62707 494.4464 238.1536 
C 477.97293 221.68013 458.414729 208.611758 436.891102 199.69638 
C 415.367476 190.781002 392.297005 186.192 369 186.192 
C 345.702995 186.192 322.632524 190.781002 301.108898 199.69638 
C 279.585271 208.611758 260.02707 221.68013 243.5536 238.1536 
C 227.08013 254.62707 214.011758 274.185271 205.09638 295.708898 
C 196.181002 317.232524 191.592 340.302995 191.592 363.6 
C 191.592 386.897005 196.181002 409.967476 205.09638 431.491102 
C 214.011758 453.014729 227.08013 472.57293 243.5536 489.0464 
C 260.02707 505.51987 279.585271 518.588242 301.108898 527.50362 
C 322.632524 536.418998 345.702995 541.008 369 541.008 
C 392.297005 541.008 415.367476 536.418998 436.891102 527.50362 
C 458.414729 518.588242 477.97293 505.51987 494.4464 489.0464 
C 510.91987 472.57293 523.988242 453.014729 532.90362 431.491102 
C 541.818998 409.967476 546.408 386.897005 546.408 363.6 
M 369 363.6 
z
" style="fill: #7f7f7f"/>
   </g>
   <g id="matplotlib.axis_1"/>
   <g id="matplotlib.axis_2"/>
  </g>
 </g>
</svg>
