<?xml version="1.0" encoding="utf-8" standalone="no"?>
<!DOCTYPE svg PUBLIC "-//W3C//DTD SVG 1.1//EN"
  "http://www.w3.org/Graphics/SVG/1.1/DTD/svg11.dtd">
<svg xmlns:xlink="http://www.w3.org/1999/xlink" width="720pt" height="720pt" viewBox="0 0 720 720" xmlns="http://www.w3.org/2000/svg" version="1.1">
 <metadata>
  <rdf:RDF xmlns:dc="http://purl.org/dc/elements/1.1/" xmlns:cc="http://creativecommons.org/ns#" xmlns:rdf="http://www.w3.org/1999/02/22-rdf-syntax-ns#">
   <cc:Work>
    <dc:type rdf:resource="http://purl.org/dc/dcmitype/StillImage"/>
    <dc:date>2024-10-24T16:56:29.075248</dc:date>
    <dc:format>image/svg+xml</dc:format>
    <dc:creator>
     <cc:Agent>
      <dc:title>Matplotlib v3.8.2, https://matplotlib.org/</dc:title>
     </cc:Agent>
    </dc:creator>
   </cc:Work>
  </rdf:RDF>
 </metadata>
 <defs>
  <style type="text/css">*{stroke-linejoin: round; stroke-linecap: butt}</style>
 </defs>
 <g id="figure_1">
  <g id="patch_1">
   <path d="M 0 720 
L 720 720 
L 720 0 
L 0 0 
L 0 720 
z
" style="fill: none"/>
  </g>
  <g id="axes_1">
   <g id="patch_2">
    <path d="M 590.76 363.6 
C 590.76 321.592974 578.824189 280.438125 556.348739 244.949473 
C 533.873289 209.460821 501.770098 181.078251 463.794384 163.121766 
C 425.818669 145.16528 383.511223 138.36343 341.820888 143.511851 
C 300.130553 148.660271 260.748835 165.550074 228.282345 192.205604 
C 195.815854 218.861133 171.581857 254.200892 158.415085 294.091071 
C 145.248313 333.98125 143.682982 376.80338 153.902194 417.548416 
C 164.121407 458.293452 185.710538 495.308241 216.144234 524.26304 
C 246.577931 553.217839 284.621404 572.937862 325.824582 581.116392 
L 334.459666 537.613114 
C 301.497123 531.070289 271.062345 515.294271 246.715387 492.130432 
C 222.36843 468.966593 205.097125 439.354762 196.921756 406.758733 
C 188.746386 374.162704 189.99865 339.905 200.532068 307.992857 
C 211.065486 276.080713 230.452684 247.808907 256.425876 226.484483 
C 282.399068 205.160059 313.904443 191.648217 347.256711 187.529481 
C 380.608979 183.410744 414.454935 188.852224 444.835507 203.217413 
C 475.216079 217.582601 500.898631 240.288657 518.878991 268.679579 
C 536.859351 297.0705 546.408 329.994379 546.408 363.6 
z
" style="opacity: 0.1"/>
   </g>
   <g id="patch_3">
    <path d="M 325.824582 581.116392 
C 357.978785 587.498767 391.151739 586.672691 422.948416 578.697806 
C 454.745094 570.72292 484.381403 555.795882 509.717655 534.994396 
C 535.053908 514.192911 555.465323 488.029933 569.478234 458.394384 
C 583.491145 428.758834 590.76 396.381511 590.76 363.6 
L 546.408 363.6 
C 546.408 389.825209 540.592916 415.727067 529.382587 439.435507 
C 518.172259 463.143947 501.843126 484.074329 481.574124 500.715517 
C 461.305122 517.356705 437.596075 529.298336 412.158733 535.678244 
C 386.721391 542.058153 360.183028 542.719014 334.459666 537.613114 
z
"/>
   </g>
   <g id="patch_4">
    <path d="M 546.408 363.6 
C 546.408 329.404696 536.521308 295.927785 517.943903 267.218922 
C 499.366498 238.510058 472.878948 215.775505 441.685415 201.765427 
C 410.491881 187.755349 375.903025 183.058411 342.10301 188.242792 
C 308.302995 193.427174 276.711999 208.275043 251.151541 230.990275 
C 225.591082 253.705507 207.135136 283.333674 198.016292 316.290699 
C 188.897447 349.247724 189.498852 384.148849 199.747755 416.772136 
C 209.996658 449.395422 229.462429 478.370134 255.790324 500.191243 
C 282.118218 522.012352 314.202014 535.762998 348.16058 539.779786 
L 369 363.6 
z
" style="fill: #bcbd22"/>
   </g>
   <g id="patch_5">
    <path d="M 348.16058 539.779786 
C 371.849765 542.58186 395.862572 540.577484 418.759386 533.886823 
C 441.656201 527.196161 462.970123 515.955648 481.423342 500.839173 
L 369 363.6 
z
" style="fill: #9467bd"/>
   </g>
   <g id="patch_6">
    <path d="M 481.423342 500.839173 
C 491.944318 492.220619 501.439417 482.420746 509.721387 471.632818 
C 518.003357 460.844889 525.017396 449.14029 530.625181 436.749843 
L 369 363.6 
z
" style="fill: #d62728"/>
   </g>
   <g id="patch_7">
    <path d="M 530.625181 436.749843 
C 533.426767 430.559715 535.870425 424.213748 537.944074 417.743312 
C 540.017724 411.272876 541.717943 404.688651 543.036326 398.023185 
L 369 363.6 
z
" style="fill: #f7b6d2"/>
   </g>
   <g id="patch_8">
    <path d="M 543.036326 398.023185 
C 543.168129 397.35682 543.296103 396.689703 543.420242 396.021868 
C 543.544382 395.354032 543.664685 394.68549 543.781146 394.016273 
L 369 363.6 
z
" style="fill: #c7c7c7"/>
   </g>
   <g id="patch_9">
    <path d="M 543.781146 394.016273 
C 544.654732 388.996382 545.311648 383.941185 545.750067 378.864745 
C 546.188485 373.788305 546.408 368.695333 546.408 363.599996 
L 369 363.6 
z
" style="fill: #9edae5"/>
   </g>
   <g id="matplotlib.axis_1"/>
   <g id="matplotlib.axis_2"/>
  </g>
 </g>
</svg>
