<?xml version="1.0" encoding="utf-8" standalone="no"?>
<!DOCTYPE svg PUBLIC "-//W3C//DTD SVG 1.1//EN"
  "http://www.w3.org/Graphics/SVG/1.1/DTD/svg11.dtd">
<svg xmlns:xlink="http://www.w3.org/1999/xlink" width="720pt" height="720pt" viewBox="0 0 720 720" xmlns="http://www.w3.org/2000/svg" version="1.1">
 <metadata>
  <rdf:RDF xmlns:dc="http://purl.org/dc/elements/1.1/" xmlns:cc="http://creativecommons.org/ns#" xmlns:rdf="http://www.w3.org/1999/02/22-rdf-syntax-ns#">
   <cc:Work>
    <dc:type rdf:resource="http://purl.org/dc/dcmitype/StillImage"/>
    <dc:date>2024-10-24T16:56:29.117029</dc:date>
    <dc:format>image/svg+xml</dc:format>
    <dc:creator>
     <cc:Agent>
      <dc:title>Matplotlib v3.8.2, https://matplotlib.org/</dc:title>
     </cc:Agent>
    </dc:creator>
   </cc:Work>
  </rdf:RDF>
 </metadata>
 <defs>
  <style type="text/css">*{stroke-linejoin: round; stroke-linecap: butt}</style>
 </defs>
 <g id="figure_1">
  <g id="patch_1">
   <path d="M 0 720 
L 720 720 
L 720 0 
L 0 0 
L 0 720 
z
" style="fill: none"/>
  </g>
  <g id="axes_1">
   <g id="patch_2">
    <path d="M 590.76 363.6 
C 590.76 337.138235 586.023629 310.888835 576.775353 286.095803 
C 567.527076 261.302772 553.915335 238.364056 536.585212 218.366759 
C 519.25509 198.369462 498.484748 181.634556 475.258527 168.955136 
C 452.032306 156.275716 426.723005 147.855296 400.530073 144.092934 
C 374.337142 140.330572 347.680996 141.286656 321.824916 146.915877 
C 295.968835 152.545098 271.327829 162.757102 249.069676 177.067925 
C 226.811523 191.378748 207.293483 209.55869 191.440549 230.746175 
C 175.587614 251.933659 163.654237 275.78861 156.205959 301.180502 
C 148.757681 326.572395 145.914053 353.093668 147.80984 379.487437 
C 149.705626 405.881206 156.310399 431.723829 167.311145 455.790582 
C 178.311892 479.857335 193.532042 501.761928 212.250289 520.466267 
C 230.968536 539.170605 252.884436 554.37447 276.959359 565.357325 
C 301.034283 576.340179 326.881808 582.925741 353.276978 584.801908 
C 379.672149 586.678076 406.191302 583.814735 431.577651 576.347586 
C 456.964 568.880436 480.810074 556.92933 501.985769 541.060652 
C 523.161464 525.191973 541.326894 505.660425 555.621168 483.391641 
L 518.296935 459.433313 
C 506.861515 477.24834 492.329171 492.873578 475.388615 505.568521 
C 458.448059 518.263464 439.3712 527.824349 419.062121 533.798069 
C 398.753042 539.771788 377.537719 542.062461 356.421583 540.561527 
C 335.305446 539.060593 314.627426 533.792143 295.367487 525.00586 
C 276.107549 516.219576 258.574828 504.056484 243.600231 489.093014 
C 228.625634 474.129543 216.449513 456.605868 207.648916 437.352466 
C 198.848319 418.099063 193.564501 397.424965 192.047872 376.30995 
C 190.531243 355.194935 192.806145 333.977916 198.764767 313.664402 
C 204.723389 293.350888 214.270091 274.266927 226.952439 257.31694 
C 239.634787 240.366952 255.249219 225.822998 273.055741 214.37434 
C 290.862263 202.925682 310.575068 194.756079 331.259933 190.252702 
C 351.944797 185.749325 373.269713 184.984457 394.224059 187.994347 
C 415.178404 191.004237 435.425845 197.740573 454.006821 207.884109 
C 472.587798 218.027645 489.204072 231.41557 503.06817 247.413407 
C 516.932268 263.411245 527.821661 281.762218 535.220282 301.596643 
C 542.618904 321.431068 546.408 342.430588 546.408 363.6 
z
" style="opacity: 0.1"/>
   </g>
   <g id="patch_3">
    <path d="M 555.621168 483.391641 
C 567.033806 465.612105 575.847297 446.292523 581.794047 426.019478 
C 587.740797 405.746432 590.760004 384.727197 590.76 363.599958 
L 546.408 363.599967 
C 546.408003 380.501758 543.992637 397.317146 539.235238 413.535582 
C 534.477838 429.754019 527.427045 445.209684 518.296935 459.433313 
z
"/>
   </g>
   <g id="patch_4">
    <path d="M 546.408 363.6 
C 546.408 316.566518 527.704094 271.411294 494.4464 238.1536 
C 461.188706 204.895906 416.033482 186.192 369 186.192 
C 321.966518 186.192 276.811294 204.895906 243.5536 238.1536 
C 210.295906 271.411294 191.592 316.566518 191.592 363.6 
L 369 363.6 
z
" style="fill: #d62728"/>
   </g>
   <g id="patch_5">
    <path d="M 191.592 363.6 
C 191.592 410.633482 210.295906 455.788706 243.5536 489.0464 
C 276.811294 522.304094 321.966518 541.008 369 541.008 
C 416.033482 541.008 461.188706 522.304094 494.4464 489.0464 
C 527.704094 455.788706 546.408 410.633482 546.408 363.6 
L 369 363.6 
z
" style="fill: #9edae5"/>
   </g>
   <g id="matplotlib.axis_1"/>
   <g id="matplotlib.axis_2"/>
  </g>
 </g>
</svg>
