<?xml version="1.0" encoding="utf-8" standalone="no"?>
<!DOCTYPE svg PUBLIC "-//W3C//DTD SVG 1.1//EN"
  "http://www.w3.org/Graphics/SVG/1.1/DTD/svg11.dtd">
<svg xmlns:xlink="http://www.w3.org/1999/xlink" width="720pt" height="720pt" viewBox="0 0 720 720" xmlns="http://www.w3.org/2000/svg" version="1.1">
 <metadata>
  <rdf:RDF xmlns:dc="http://purl.org/dc/elements/1.1/" xmlns:cc="http://creativecommons.org/ns#" xmlns:rdf="http://www.w3.org/1999/02/22-rdf-syntax-ns#">
   <cc:Work>
    <dc:type rdf:resource="http://purl.org/dc/dcmitype/StillImage"/>
    <dc:date>2024-10-24T16:56:28.248567</dc:date>
    <dc:format>image/svg+xml</dc:format>
    <dc:creator>
     <cc:Agent>
      <dc:title>Matplotlib v3.8.2, https://matplotlib.org/</dc:title>
     </cc:Agent>
    </dc:creator>
   </cc:Work>
  </rdf:RDF>
 </metadata>
 <defs>
  <style type="text/css">*{stroke-linejoin: round; stroke-linecap: butt}</style>
 </defs>
 <g id="figure_1">
  <g id="patch_1">
   <path d="M 0 720 
L 720 720 
L 720 0 
L 0 0 
L 0 720 
z
" style="fill: none"/>
  </g>
  <g id="axes_1">
   <g id="patch_2">
    <path d="M 590.76 363.6 
C 590.76 338.160477 586.382502 312.909618 577.819444 288.95459 
C 569.256387 264.999561 556.63478 242.695673 540.50804 223.020877 
C 524.3813 203.346081 504.988625 186.592201 483.180318 173.493839 
C 461.372011 160.395476 437.471542 151.146911 412.526867 146.153663 
C 387.582193 141.160415 361.9633 140.496545 336.793494 144.191161 
C 311.623688 147.885778 287.276295 155.884081 264.818869 167.835372 
C 242.361443 179.786663 222.12708 195.513676 205.00299 214.326833 
C 187.878901 233.13999 174.119074 254.760248 164.326834 278.23963 
C 154.534594 301.719011 148.855183 326.709263 147.537624 352.114644 
C 146.220064 377.520024 149.283899 402.963713 156.594789 427.330088 
C 163.90568 451.696462 175.355188 474.624113 190.44129 495.107736 
C 205.527393 515.59136 224.026327 533.327137 245.126977 547.537413 
C 266.227626 561.747688 289.617019 572.221689 314.269606 578.500167 
C 338.922193 584.778644 364.47232 586.768472 389.799696 584.382405 
C 415.127073 581.996337 439.856036 575.269764 462.902301 564.497624 
C 485.948566 553.725484 506.970303 539.067554 525.045779 521.166534 
L 493.836623 489.653227 
C 479.376243 503.974043 462.558853 515.700388 444.121841 524.3181 
C 425.684829 532.935811 405.901658 538.31707 385.639757 540.225924 
C 365.377856 542.134778 344.937755 540.542915 325.215685 535.520133 
C 305.493615 530.497351 286.782101 522.11815 269.901581 510.74993 
C 253.021062 499.38171 238.221914 485.193088 226.153032 468.806189 
C 214.08415 452.41929 204.924544 434.07717 199.075831 414.58407 
C 193.227119 395.09097 190.776051 374.736019 191.830099 354.411715 
C 192.884146 334.08741 197.427676 314.095209 205.261467 295.311704 
C 213.095259 276.528198 224.10312 259.231992 237.802392 244.181466 
C 251.501664 229.130941 267.689155 216.54933 285.655095 206.988298 
C 303.621036 197.427265 323.09895 191.028622 343.234795 188.072929 
C 363.37064 185.117236 383.865754 185.648332 403.821494 189.642931 
C 423.777234 193.637529 442.897609 201.036381 460.344254 211.515071 
C 477.7909 221.993761 493.30504 235.396865 506.206432 251.136702 
C 519.107824 266.876539 529.205109 284.719649 536.055555 303.883672 
C 542.906001 323.047694 546.408 343.248382 546.408 363.6 
z
" style="opacity: 0.1"/>
   </g>
   <g id="patch_3">
    <path d="M 525.045779 521.166534 
C 545.865802 500.547455 562.3941 476.004802 573.673174 448.960351 
C 584.952247 421.915901 590.760005 392.902173 590.76 363.599958 
L 546.408 363.599967 
C 546.408004 387.041739 541.761798 410.252721 532.738539 431.888281 
C 523.71528 453.523841 510.492642 473.157964 493.836623 489.653227 
z
"/>
   </g>
   <g id="patch_4">
    <path d="M 546.408 363.6 
C 546.408 333.033057 538.508091 302.978687 523.477318 276.362641 
C 508.446545 249.746596 486.789007 227.461517 460.613033 211.676827 
C 434.43706 195.892136 404.620537 187.137217 374.066059 186.264348 
C 343.511581 185.391479 313.243878 192.429934 286.209468 206.694531 
L 369 363.6 
z
" style="fill: #1f77b4"/>
   </g>
   <g id="patch_5">
    <path d="M 286.209468 206.694531 
C 250.012714 225.793601 221.516747 256.842011 205.585285 294.540393 
C 189.653822 332.238775 187.247941 374.312943 198.77828 413.581643 
L 369 363.6 
z
" style="fill: #d62728"/>
   </g>
   <g id="patch_6">
    <path d="M 198.77828 413.581643 
C 210.308619 452.850342 235.079601 486.944658 268.863293 510.045343 
C 302.646985 533.146027 343.40536 543.859514 384.181743 540.357215 
L 369 363.6 
z
" style="fill: #e377c2"/>
   </g>
   <g id="patch_7">
    <path d="M 384.181743 540.357215 
C 404.423724 538.618624 424.217455 533.415758 442.697998 524.97597 
C 461.178541 516.536181 478.072734 504.98422 492.642344 490.824877 
L 369 363.6 
z
" style="fill: #17becf"/>
   </g>
   <g id="patch_8">
    <path d="M 492.642344 490.824877 
C 509.65511 474.291174 523.179943 454.511722 532.414728 432.659576 
C 541.649514 410.80743 546.408008 387.323296 546.408 363.599942 
L 369 363.6 
z
" style="fill: #9edae5"/>
   </g>
   <g id="matplotlib.axis_1"/>
   <g id="matplotlib.axis_2"/>
  </g>
 </g>
</svg>
