<?xml version="1.0" encoding="utf-8" standalone="no"?>
<!DOCTYPE svg PUBLIC "-//W3C//DTD SVG 1.1//EN"
  "http://www.w3.org/Graphics/SVG/1.1/DTD/svg11.dtd">
<svg xmlns:xlink="http://www.w3.org/1999/xlink" width="720pt" height="720pt" viewBox="0 0 720 720" xmlns="http://www.w3.org/2000/svg" version="1.1">
 <metadata>
  <rdf:RDF xmlns:dc="http://purl.org/dc/elements/1.1/" xmlns:cc="http://creativecommons.org/ns#" xmlns:rdf="http://www.w3.org/1999/02/22-rdf-syntax-ns#">
   <cc:Work>
    <dc:type rdf:resource="http://purl.org/dc/dcmitype/StillImage"/>
    <dc:date>2024-10-24T16:56:25.566501</dc:date>
    <dc:format>image/svg+xml</dc:format>
    <dc:creator>
     <cc:Agent>
      <dc:title>Matplotlib v3.8.2, https://matplotlib.org/</dc:title>
     </cc:Agent>
    </dc:creator>
   </cc:Work>
  </rdf:RDF>
 </metadata>
 <defs>
  <style type="text/css">*{stroke-linejoin: round; stroke-linecap: butt}</style>
 </defs>
 <g id="figure_1">
  <g id="patch_1">
   <path d="M 0 720 
L 720 720 
L 720 0 
L 0 0 
L 0 720 
z
" style="fill: none"/>
  </g>
  <g id="axes_1">
   <g id="patch_2">
    <path d="M 590.76 363.6 
C 590.76 338.684096 586.56085 313.945431 578.339261 290.425062 
C 570.117671 266.904694 557.990609 244.937245 542.46841 225.447156 
C 526.94621 205.957066 508.249706 189.22162 487.165687 175.945083 
C 466.081669 162.668545 442.910098 153.039801 418.626086 147.464049 
C 394.342073 141.888297 369.291107 140.444863 344.527387 143.19449 
C 319.763667 145.944117 295.639506 152.847686 273.170102 163.61468 
C 250.700698 174.381674 230.205722 188.858911 212.547649 206.437156 
C 194.889575 224.015402 180.319625 244.444572 169.450934 266.86496 
C 158.582243 289.285349 151.569439 313.377983 148.707637 338.12899 
C 145.845835 362.879997 147.175749 387.937247 152.641414 412.246273 
C 158.107079 436.5553 167.630735 459.770261 180.811605 480.914218 
C 193.992476 502.058175 210.643037 520.830315 230.062596 536.440664 
C 249.482155 552.051014 271.39443 564.277484 294.877306 572.605559 
C 318.360181 580.933634 343.079566 585.244831 367.995215 585.357724 
C 392.910863 585.470617 417.668301 581.3836 441.225679 573.268664 
C 464.783058 565.153729 486.805228 553.126325 506.365448 537.692594 
L 478.892359 502.874075 
C 463.244183 515.22106 445.626447 524.842983 426.780543 531.334932 
C 407.93464 537.82688 388.128691 541.096493 368.196172 541.006179 
C 348.263653 540.915865 328.488145 537.466908 309.701845 530.804447 
C 290.915544 524.141987 273.385724 514.360811 257.850077 501.872532 
C 242.314429 489.384252 228.993981 474.36654 218.449284 457.451374 
C 207.904588 440.536208 200.285663 421.96424 195.913131 402.517019 
C 191.540599 383.069797 190.476668 363.023998 192.76611 343.223192 
C 195.055551 323.422386 200.665794 304.148279 209.360747 286.211968 
C 218.0557 268.275657 229.71166 251.932322 243.838119 237.869725 
C 257.964578 223.807129 274.360558 212.225339 292.336081 203.611744 
C 310.311605 194.998149 329.610933 189.475294 349.421909 187.275592 
C 369.232885 185.07589 389.273658 186.230638 408.700868 190.691239 
C 428.128079 195.151841 446.665335 202.854836 463.53255 213.476066 
C 480.399765 224.097296 495.356968 237.485653 507.774728 253.077724 
C 520.192488 268.669796 529.894137 286.243755 536.471409 305.06005 
C 543.04868 323.876345 546.408 343.667277 546.408 363.6 
z
" style="opacity: 0.1"/>
   </g>
   <g id="patch_3">
    <path d="M 506.365448 537.692594 
C 532.670571 516.936886 553.932551 490.486596 568.549066 460.33504 
C 583.165581 430.183483 590.76 397.107594 590.76 363.6 
L 546.408 363.6 
C 546.408 390.406075 540.332465 416.866787 528.639253 440.988032 
C 516.94604 465.109277 499.936457 486.269509 478.892359 502.874075 
z
"/>
   </g>
   <g id="patch_4">
    <path d="M 546.408 363.6 
C 546.408 328.516212 536.000869 294.2085 516.509361 265.037396 
C 497.017853 235.866293 469.304296 213.122364 436.891102 199.69638 
C 404.477909 186.270396 368.799079 182.756337 334.389416 189.600845 
C 299.979753 196.445352 268.361585 213.345616 243.5536 238.1536 
C 218.745616 262.961585 201.845352 294.579753 195.000845 328.989416 
C 188.156337 363.399079 191.670396 399.077909 205.09638 431.491102 
C 218.522364 463.904296 241.266293 491.617853 270.437396 511.109361 
C 299.6085 530.600869 333.916212 541.008 369 541.008 
L 369 363.6 
z
" style="fill: #c7c7c7"/>
   </g>
   <g id="patch_5">
    <path d="M 369 541.008 
C 416.033482 541.008 461.188706 522.304094 494.4464 489.0464 
C 527.704094 455.788706 546.408 410.633482 546.408 363.6 
L 369 363.6 
z
" style="fill: #17becf"/>
   </g>
   <g id="matplotlib.axis_1"/>
   <g id="matplotlib.axis_2"/>
  </g>
 </g>
</svg>
