<?xml version="1.0" encoding="utf-8" standalone="no"?>
<!DOCTYPE svg PUBLIC "-//W3C//DTD SVG 1.1//EN"
  "http://www.w3.org/Graphics/SVG/1.1/DTD/svg11.dtd">
<svg xmlns:xlink="http://www.w3.org/1999/xlink" width="720pt" height="720pt" viewBox="0 0 720 720" xmlns="http://www.w3.org/2000/svg" version="1.1">
 <metadata>
  <rdf:RDF xmlns:dc="http://purl.org/dc/elements/1.1/" xmlns:cc="http://creativecommons.org/ns#" xmlns:rdf="http://www.w3.org/1999/02/22-rdf-syntax-ns#">
   <cc:Work>
    <dc:type rdf:resource="http://purl.org/dc/dcmitype/StillImage"/>
    <dc:date>2024-10-24T16:56:30.080477</dc:date>
    <dc:format>image/svg+xml</dc:format>
    <dc:creator>
     <cc:Agent>
      <dc:title>Matplotlib v3.8.2, https://matplotlib.org/</dc:title>
     </cc:Agent>
    </dc:creator>
   </cc:Work>
  </rdf:RDF>
 </metadata>
 <defs>
  <style type="text/css">*{stroke-linejoin: round; stroke-linecap: butt}</style>
 </defs>
 <g id="figure_1">
  <g id="patch_1">
   <path d="M 0 720 
L 720 720 
L 720 0 
L 0 0 
L 0 720 
z
" style="fill: none"/>
  </g>
  <g id="axes_1">
   <g id="patch_2">
    <path d="M 590.76 363.6 
C 590.76 336.502966 585.793487 309.633985 576.107104 284.327401 
C 566.420721 259.020816 552.177512 235.702596 534.08481 215.530749 
C 515.992109 195.358903 494.354457 178.672969 470.246404 166.301588 
C 446.138352 153.930208 419.965693 146.081622 393.028191 143.145597 
C 366.090689 140.209573 338.841765 142.235532 312.63463 149.122862 
C 286.427495 156.010192 261.703276 167.642964 239.689805 183.443481 
C 217.676335 199.243999 198.74415 218.946302 183.833444 241.571954 
C 168.922738 264.197605 158.284493 289.365762 152.447016 315.826546 
C 146.609539 342.287331 145.671089 369.595346 149.678268 396.394446 
C 153.685448 423.193546 162.570809 449.032639 175.893093 472.628528 
C 189.215377 496.224418 206.75034 517.179929 227.627176 534.454389 
C 248.504012 551.728849 272.371315 565.031487 298.04381 573.701682 
C 323.716304 582.371876 350.761862 586.263686 377.837371 585.183841 
C 404.91288 584.103995 431.562596 578.07067 456.463065 567.383488 
C 481.363535 556.696305 504.095624 541.535154 523.530434 522.652956 
C 542.965243 503.770757 558.775639 481.485341 570.17646 456.903427 
L 529.941168 438.242741 
C 520.820511 457.908273 508.172194 475.736606 492.624347 490.842365 
C 477.076499 505.948124 458.890828 518.077044 438.970452 526.62679 
C 419.050077 535.176536 397.730304 540.003196 376.069897 540.867073 
C 354.40949 541.730949 332.773044 538.617501 312.235048 531.681345 
C 291.697052 524.74519 272.603209 514.103079 255.901741 500.283511 
C 239.200272 486.463943 225.172302 469.699534 214.514474 450.822823 
C 203.856647 431.946111 196.748359 411.274836 193.542615 389.835556 
C 190.336871 368.396277 191.087632 346.549864 195.757613 325.381237 
C 200.427595 304.212609 208.938191 284.078084 220.866755 265.977563 
C 232.79532 247.877042 247.941068 232.115199 265.551844 219.474785 
C 283.162621 206.834371 302.941996 197.528154 323.907704 192.01829 
C 344.873412 186.508426 366.672551 184.887659 388.222553 187.236478 
C 409.772555 189.585297 430.710681 195.864167 449.997124 205.761271 
C 469.283566 215.658375 486.593687 229.007122 501.067848 245.1446 
C 515.54201 261.282077 526.936577 279.936653 534.685683 300.18192 
C 542.43479 320.427188 546.408 341.922373 546.408 363.6 
z
" style="opacity: 0.1"/>
   </g>
   <g id="patch_3">
    <path d="M 570.17646 456.903427 
C 576.936104 442.3286 582.091901 427.062253 585.552989 411.373428 
C 589.014077 395.684604 590.760004 379.66601 590.76 363.599948 
L 546.408 363.599958 
C 546.408003 376.452808 545.011262 389.267683 542.242391 401.818743 
C 539.473521 414.369802 535.348883 426.58288 529.941168 438.242741 
z
"/>
   </g>
   <g id="patch_4">
    <path d="M 546.408 363.6 
C 546.408 339.701688 541.579052 316.047939 532.211712 294.061984 
C 522.844371 272.076029 509.130358 252.207852 491.894836 235.652911 
L 369 363.6 
z
" style="fill: #dbdb8d"/>
   </g>
   <g id="patch_5">
    <path d="M 491.894836 235.652911 
C 474.659315 219.097969 454.255043 206.195091 431.909732 197.720634 
C 409.564422 189.246178 385.735414 185.373589 361.856484 186.335879 
L 369 363.6 
z
" style="fill: #e377c2"/>
   </g>
   <g id="patch_6">
    <path d="M 361.856484 186.335879 
C 345.966831 186.976211 330.235173 189.750129 315.084777 194.582997 
C 299.934382 199.415866 285.502354 206.26395 272.176994 214.942999 
L 369 363.6 
z
" style="fill: #1f77b4"/>
   </g>
   <g id="patch_7">
    <path d="M 272.176994 214.942999 
C 258.851634 223.622048 246.753532 234.053519 236.208192 245.956751 
C 225.662852 257.859982 216.765705 271.127252 209.756134 285.4016 
L 369 363.6 
z
" style="fill: #c5b0d5"/>
   </g>
   <g id="patch_8">
    <path d="M 209.756134 285.4016 
C 202.746563 299.675949 197.688002 314.828197 194.716552 330.450668 
C 191.745102 346.073139 190.887656 362.024454 192.167281 377.875437 
L 369 363.6 
z
" style="fill: #2ca02c"/>
   </g>
   <g id="patch_9">
    <path d="M 192.167281 377.875437 
C 193.446907 393.72642 196.852026 409.333625 202.29102 424.277133 
C 207.730015 439.220642 215.153665 453.36522 224.362234 466.330303 
L 369 363.6 
z
" style="fill: #7f7f7f"/>
   </g>
   <g id="patch_10">
    <path d="M 224.362234 466.330303 
C 226.2013 468.919592 228.109565 471.45903 230.084965 473.945872 
C 232.060364 476.432713 234.102186 478.866062 236.208224 481.243285 
L 369 363.6 
z
" style="fill: #c7c7c7"/>
   </g>
   <g id="patch_11">
    <path d="M 236.208224 481.243285 
C 260.078365 508.187096 291.592945 527.238317 326.543515 535.852853 
C 361.494086 544.467389 398.252404 542.243914 431.909773 529.47935 
C 465.567143 516.714787 494.555567 494.003798 515.003941 464.379203 
C 535.452314 434.754608 546.408007 399.596528 546.408 363.599965 
L 369 363.6 
z
" style="fill: #9edae5"/>
   </g>
   <g id="matplotlib.axis_1"/>
   <g id="matplotlib.axis_2"/>
  </g>
 </g>
</svg>
