<?xml version="1.0" encoding="utf-8" standalone="no"?>
<!DOCTYPE svg PUBLIC "-//W3C//DTD SVG 1.1//EN"
  "http://www.w3.org/Graphics/SVG/1.1/DTD/svg11.dtd">
<svg xmlns:xlink="http://www.w3.org/1999/xlink" width="720pt" height="720pt" viewBox="0 0 720 720" xmlns="http://www.w3.org/2000/svg" version="1.1">
 <metadata>
  <rdf:RDF xmlns:dc="http://purl.org/dc/elements/1.1/" xmlns:cc="http://creativecommons.org/ns#" xmlns:rdf="http://www.w3.org/1999/02/22-rdf-syntax-ns#">
   <cc:Work>
    <dc:type rdf:resource="http://purl.org/dc/dcmitype/StillImage"/>
    <dc:date>2024-10-24T16:56:29.207452</dc:date>
    <dc:format>image/svg+xml</dc:format>
    <dc:creator>
     <cc:Agent>
      <dc:title>Matplotlib v3.8.2, https://matplotlib.org/</dc:title>
     </cc:Agent>
    </dc:creator>
   </cc:Work>
  </rdf:RDF>
 </metadata>
 <defs>
  <style type="text/css">*{stroke-linejoin: round; stroke-linecap: butt}</style>
 </defs>
 <g id="figure_1">
  <g id="patch_1">
   <path d="M 0 720 
L 720 720 
L 720 0 
L 0 0 
L 0 720 
z
" style="fill: none"/>
  </g>
  <g id="axes_1">
   <g id="patch_2">
    <path d="M 590.76 363.6 
C 590.76 335.29117 585.339343 307.242428 574.791453 280.972067 
C 564.243563 254.701706 548.762257 230.692445 529.185547 210.243917 
C 509.608837 189.79539 486.296445 173.283339 460.510283 161.60157 
C 434.724121 149.919801 406.938012 143.282968 378.656031 142.050325 
C 350.37405 140.817682 322.11588 145.011879 295.411151 154.405882 
C 268.706422 163.799886 244.045834 178.22108 222.764278 196.888839 
C 201.482721 215.556598 183.971246 238.1279 171.177758 263.38095 
C 158.384269 288.633999 150.543847 316.10477 148.080899 344.306255 
C 145.617951 372.50774 148.577734 400.921735 156.800031 428.010177 
C 165.022329 455.098619 178.356057 480.363755 196.079454 502.437972 
C 213.802852 524.512189 235.59025 542.989871 260.262285 556.870812 
C 284.93432 570.751754 312.037644 579.780891 340.105138 583.469472 
C 368.172632 587.158053 396.688556 585.4383 424.109327 578.403305 
C 451.530098 571.368309 477.351859 559.14734 500.176865 542.401923 
C 523.001871 525.656506 542.41071 504.694341 557.352773 480.650119 
C 572.294837 456.605897 582.495562 429.921433 587.40278 402.041169 
L 543.722224 394.352935 
C 539.79645 416.657146 531.635869 438.004718 519.682219 457.240095 
C 507.728568 476.475473 492.201497 493.245205 473.941492 506.641538 
C 455.681487 520.037872 435.024079 529.814647 413.087462 535.442644 
C 391.150844 541.07064 368.338106 542.446442 345.88411 539.495577 
C 323.430115 536.544712 301.747456 529.321403 282.009828 518.21665 
C 262.2722 507.111897 244.842281 492.329751 230.663564 474.670378 
C 216.484846 457.011004 205.817863 436.798895 199.240025 415.128141 
C 192.662187 393.457388 190.294361 370.726192 192.26472 348.165004 
C 194.235078 325.603816 200.507415 303.627199 210.742206 283.42476 
C 220.976997 263.22232 234.986177 245.165279 252.011422 230.231071 
C 269.036667 215.296864 288.765137 203.759909 310.128921 196.244706 
C 331.492704 188.729503 354.09924 185.374145 376.724825 186.36026 
C 399.350409 187.346374 421.579297 192.655841 442.208226 202.001256 
C 462.837156 211.346671 481.487069 224.556312 497.148438 240.915134 
C 512.809806 257.273956 525.194851 276.481365 533.633163 297.497653 
C 542.071475 318.513942 546.408 340.952936 546.408 363.6 
z
" style="opacity: 0.1"/>
   </g>
   <g id="patch_3">
    <path d="M 587.40278 402.041169 
C 588.519198 395.698259 589.358768 389.309723 589.919102 382.893732 
C 590.479435 376.477742 590.760001 370.040386 590.76 363.599974 
L 546.408 363.599979 
C 546.408001 368.752309 546.183548 373.902194 545.735281 379.034986 
C 545.287014 384.167778 544.615358 389.278607 543.722224 394.352935 
z
"/>
   </g>
   <g id="patch_4">
    <path d="M 546.408 363.6 
C 546.408 327.068671 535.124366 291.41391 514.10721 261.533864 
C 493.090054 231.653817 463.347988 208.982428 428.96689 196.634223 
L 369 363.6 
z
" style="fill: #c7c7c7"/>
   </g>
   <g id="patch_5">
    <path d="M 428.96689 196.634223 
C 403.26751 187.404117 375.78071 184.230902 348.654229 187.362524 
C 321.527748 190.494146 295.487007 199.846859 272.566752 214.689869 
L 369 363.6 
z
" style="fill: #bcbd22"/>
   </g>
   <g id="patch_6">
    <path d="M 272.566752 214.689869 
C 261.144084 222.087116 250.610401 230.774182 241.17369 240.579543 
C 231.736979 250.384903 223.459759 261.243596 216.505463 272.941219 
L 369 363.6 
z
" style="fill: #7f7f7f"/>
   </g>
   <g id="patch_7">
    <path d="M 216.505463 272.941219 
C 209.551166 284.638842 203.965867 297.097895 199.859845 310.072378 
C 195.753823 323.04686 193.154281 336.450814 192.112548 350.01958 
L 369 363.6 
z
" style="fill: #dbdb8d"/>
   </g>
   <g id="patch_8">
    <path d="M 192.112548 350.01958 
C 190.2854 373.818517 193.279868 397.743253 200.916213 420.357721 
C 208.552557 442.972189 220.674869 463.814678 236.555515 481.634134 
C 252.436161 499.453589 271.750912 513.886198 293.340415 524.065652 
C 314.929917 534.245107 338.353386 539.963577 362.204845 540.877817 
C 386.056303 541.792056 409.848786 537.883399 432.154165 529.386459 
C 454.459543 520.889519 474.822419 507.977776 492.020523 491.426247 
C 509.218628 474.874718 522.900835 455.021329 532.245879 433.057767 
C 541.590923 411.094205 546.408011 387.468891 546.408 363.599917 
L 369 363.6 
z
" style="fill: #9edae5"/>
   </g>
   <g id="matplotlib.axis_1"/>
   <g id="matplotlib.axis_2"/>
  </g>
 </g>
</svg>
