<?xml version="1.0" encoding="utf-8" standalone="no"?>
<!DOCTYPE svg PUBLIC "-//W3C//DTD SVG 1.1//EN"
  "http://www.w3.org/Graphics/SVG/1.1/DTD/svg11.dtd">
<svg xmlns:xlink="http://www.w3.org/1999/xlink" width="720pt" height="720pt" viewBox="0 0 720 720" xmlns="http://www.w3.org/2000/svg" version="1.1">
 <metadata>
  <rdf:RDF xmlns:dc="http://purl.org/dc/elements/1.1/" xmlns:cc="http://creativecommons.org/ns#" xmlns:rdf="http://www.w3.org/1999/02/22-rdf-syntax-ns#">
   <cc:Work>
    <dc:type rdf:resource="http://purl.org/dc/dcmitype/StillImage"/>
    <dc:date>2024-10-24T16:56:30.996628</dc:date>
    <dc:format>image/svg+xml</dc:format>
    <dc:creator>
     <cc:Agent>
      <dc:title>Matplotlib v3.8.2, https://matplotlib.org/</dc:title>
     </cc:Agent>
    </dc:creator>
   </cc:Work>
  </rdf:RDF>
 </metadata>
 <defs>
  <style type="text/css">*{stroke-linejoin: round; stroke-linecap: butt}</style>
 </defs>
 <g id="figure_1">
  <g id="patch_1">
   <path d="M 0 720 
L 720 720 
L 720 0 
L 0 0 
L 0 720 
z
" style="fill: none"/>
  </g>
  <g id="axes_1">
   <g id="patch_2">
    <path d="M 590.76 363.6 
C 590.76 335.481069 585.411824 307.617019 575.001162 281.496292 
C 564.5905 255.375565 549.306083 231.471698 529.964375 211.061587 
C 510.622668 190.651476 487.57431 174.105133 462.050501 162.306428 
C 436.526691 150.507724 408.990144 143.670556 380.911808 142.160152 
C 352.833472 140.649747 324.722373 144.493488 298.080148 153.486049 
C 271.437924 162.478611 246.747566 176.456968 225.327984 194.674426 
C 203.908402 212.891885 186.147907 235.018183 172.995228 259.871378 
C 159.84255 284.724574 151.53613 311.854108 148.519682 339.810777 
C 145.503234 367.767446 147.831442 396.044428 155.379938 423.131223 
C 162.928433 450.218019 175.560371 475.623577 192.600979 497.990785 
C 209.641587 520.357992 230.781939 539.281358 254.89276 553.750034 
C 279.003581 568.21871 305.647771 577.970397 333.402051 582.484179 
C 361.156331 586.99796 389.517549 586.192008 416.970706 580.109374 
C 444.423863 574.02674 470.471267 562.777694 493.721517 546.963139 
C 516.971767 531.148584 537.003365 511.055218 552.746262 487.756389 
C 568.489159 464.457559 579.657957 438.375645 585.65604 410.903891 
L 542.324832 401.443113 
C 537.526365 423.420516 528.591327 444.286047 515.99701 462.925111 
C 503.402692 481.564175 487.377414 497.638867 468.777214 510.290511 
C 450.177014 522.942155 429.339091 531.941392 407.376565 536.807499 
C 385.414039 541.673606 362.725065 542.318368 340.521641 538.707343 
C 318.318217 535.096317 297.002865 527.294968 277.714208 515.720027 
C 258.425551 504.145086 241.513269 489.006394 227.880783 471.112628 
C 214.248297 453.218862 204.142746 432.894415 198.10395 411.224979 
C 192.065154 389.555542 190.202587 366.933957 192.615746 344.568622 
C 195.028904 322.203287 201.67404 300.499659 212.196182 280.617102 
C 222.718325 260.734546 236.926721 243.033508 254.062387 228.459541 
C 271.198053 213.885575 290.950339 202.702889 312.264119 195.508839 
C 333.577898 188.31479 356.066778 185.239798 378.529447 186.448121 
C 400.992116 187.656445 423.021353 193.12618 443.4404 202.565143 
C 463.859448 212.004106 482.298134 225.241181 497.7715 241.569269 
C 513.244866 257.897358 525.4724 277.020452 533.80093 297.917034 
C 542.12946 318.813615 546.408 341.104855 546.408 363.6 
z
" style="opacity: 0.1"/>
   </g>
   <g id="patch_3">
    <path d="M 585.65604 410.903891 
C 587.351211 403.139856 588.627812 395.290309 589.480317 387.389228 
C 590.332822 379.488147 590.76 371.54695 590.76 363.60001 
L 546.408 363.600008 
C 546.408 369.95756 546.066258 376.310518 545.384254 382.631382 
C 544.70225 388.952247 543.680969 395.231885 542.324832 401.443113 
z
"/>
   </g>
   <g id="patch_4">
    <path d="M 546.408 363.6 
C 546.408 316.566518 527.704094 271.411294 494.4464 238.1536 
C 461.188706 204.895906 416.033482 186.192 369 186.192 
C 321.966518 186.192 276.811294 204.895906 243.5536 238.1536 
C 210.295906 271.411294 191.592 316.566518 191.592 363.6 
L 369 363.6 
z
" style="fill: #dbdb8d"/>
   </g>
   <g id="patch_5">
    <path d="M 191.592 363.6 
C 191.592 410.633482 210.295906 455.788706 243.5536 489.0464 
C 276.811294 522.304094 321.966518 541.008 369 541.008 
C 416.033482 541.008 461.188706 522.304094 494.4464 489.0464 
C 527.704094 455.788706 546.408 410.633482 546.408 363.6 
L 369 363.6 
z
" style="fill: #9edae5"/>
   </g>
   <g id="matplotlib.axis_1"/>
   <g id="matplotlib.axis_2"/>
  </g>
 </g>
</svg>
