<?xml version="1.0" encoding="utf-8" standalone="no"?>
<!DOCTYPE svg PUBLIC "-//W3C//DTD SVG 1.1//EN"
  "http://www.w3.org/Graphics/SVG/1.1/DTD/svg11.dtd">
<svg xmlns:xlink="http://www.w3.org/1999/xlink" width="720pt" height="720pt" viewBox="0 0 720 720" xmlns="http://www.w3.org/2000/svg" version="1.1">
 <metadata>
  <rdf:RDF xmlns:dc="http://purl.org/dc/elements/1.1/" xmlns:cc="http://creativecommons.org/ns#" xmlns:rdf="http://www.w3.org/1999/02/22-rdf-syntax-ns#">
   <cc:Work>
    <dc:type rdf:resource="http://purl.org/dc/dcmitype/StillImage"/>
    <dc:date>2024-10-24T16:56:27.005693</dc:date>
    <dc:format>image/svg+xml</dc:format>
    <dc:creator>
     <cc:Agent>
      <dc:title>Matplotlib v3.8.2, https://matplotlib.org/</dc:title>
     </cc:Agent>
    </dc:creator>
   </cc:Work>
  </rdf:RDF>
 </metadata>
 <defs>
  <style type="text/css">*{stroke-linejoin: round; stroke-linecap: butt}</style>
 </defs>
 <g id="figure_1">
  <g id="patch_1">
   <path d="M 0 720 
L 720 720 
L 720 0 
L 0 0 
L 0 720 
z
" style="fill: none"/>
  </g>
  <g id="axes_1">
   <g id="patch_2">
    <path d="M 590.76 363.6 
C 590.76 337.862911 586.279496 312.321192 577.519504 288.120772 
C 568.759513 263.920352 555.85303 241.428642 539.379103 221.654732 
C 522.905176 201.880823 503.113913 185.124921 480.893248 172.138781 
C 458.672584 159.15264 434.359873 150.133416 409.045904 145.485757 
C 383.731935 140.838097 357.801025 140.632562 332.416564 144.878374 
C 307.032103 149.124185 282.579479 157.756883 260.155756 170.389161 
C 237.732034 183.02144 217.677652 199.461515 200.892349 218.971804 
C 184.107046 238.482093 170.845656 260.766389 161.703153 284.82491 
C 152.56065 308.88343 147.675834 334.350917 147.267863 360.084773 
C 146.859891 385.818629 150.934958 411.428161 159.310236 435.764399 
C 167.685514 460.100638 180.233849 482.794108 196.39226 502.82667 
C 212.550671 522.859232 232.073841 539.926749 254.085864 553.263489 
C 276.097887 566.600228 300.264575 576.003712 325.501691 581.052052 
C 350.738808 586.100392 376.663201 586.716944 402.111775 582.874048 
C 427.560349 579.031151 452.146743 570.787149 474.767888 558.511907 
C 497.389033 546.236665 517.701496 530.116548 534.793957 510.874782 
L 501.635166 481.419826 
C 487.961196 496.813238 471.711227 509.709332 453.61431 519.529526 
C 435.517394 529.349719 415.848279 535.944921 395.48942 539.019238 
C 375.130561 542.093555 354.391046 541.600313 334.201353 537.561641 
C 314.01166 533.522969 294.678309 526.000183 277.068691 515.330791 
C 259.459073 504.661399 243.840537 491.007385 230.913808 474.981336 
C 217.987079 458.955287 207.948411 440.80051 201.248189 421.33152 
C 194.547967 401.862529 191.287913 381.374903 191.61429 360.787818 
C 191.940667 340.200734 195.84852 319.826744 203.162522 300.579928 
C 210.476525 281.333111 221.085636 263.505674 234.513879 247.897443 
C 247.942121 232.289212 263.985627 219.137152 281.924605 209.031329 
C 299.863583 198.925506 319.425682 192.019348 339.733251 188.622699 
C 360.04082 185.22605 380.785548 185.390478 401.036723 189.108605 
C 421.287898 192.826733 440.738067 200.042112 458.514599 210.431024 
C 476.29113 220.819937 492.124141 234.224658 505.303282 250.043786 
C 518.482424 265.862914 528.807611 283.856281 535.815603 303.216617 
C 542.823596 322.576953 546.408 343.010328 546.408 363.6 
z
" style="opacity: 0.1"/>
   </g>
   <g id="patch_3">
    <path d="M 534.793957 510.874782 
C 552.670731 490.75008 566.734817 467.53759 576.29684 442.37511 
C 585.858862 417.21263 590.759995 390.518115 590.76 363.600042 
L 546.408 363.600033 
C 546.407996 385.134492 542.48709 406.490104 534.837472 426.620088 
C 527.187853 446.750072 515.936585 465.320064 501.635166 481.419826 
z
"/>
   </g>
   <g id="patch_4">
    <path d="M 546.408 363.6 
C 546.408 327.951276 535.663009 293.116872 515.581367 263.662514 
C 495.499726 234.208155 466.998879 211.479489 433.814417 198.455549 
L 369 363.6 
z
" style="fill: #2ca02c"/>
   </g>
   <g id="patch_5">
    <path d="M 433.814417 198.455549 
C 400.629955 185.431608 364.277937 182.707402 329.523 190.63999 
C 294.768064 198.572579 263.198017 216.799555 238.950728 242.931921 
L 369 363.6 
z
" style="fill: #dbdb8d"/>
   </g>
   <g id="patch_6">
    <path d="M 238.950728 242.931921 
C 214.703439 269.064286 198.886664 301.908162 193.573499 337.158719 
C 188.260335 372.409277 193.693516 408.456067 209.16092 440.574457 
L 369 363.6 
z
" style="fill: #1f77b4"/>
   </g>
   <g id="patch_7">
    <path d="M 209.16092 440.574457 
C 224.628324 472.692847 249.42331 499.415482 280.296012 517.239842 
C 311.168714 535.064202 346.708689 543.175966 382.257732 540.51193 
L 369 363.6 
z
" style="fill: #17becf"/>
   </g>
   <g id="patch_8">
    <path d="M 382.257732 540.51193 
C 391.083831 539.850505 399.848071 538.529507 408.47701 536.560007 
C 417.105948 534.590508 425.575414 531.978022 433.814436 528.744444 
L 369 363.6 
z
" style="fill: #c7c7c7"/>
   </g>
   <g id="patch_9">
    <path d="M 433.814436 528.744444 
C 466.998897 515.720499 495.499741 492.99183 515.581379 463.537469 
C 535.663017 434.083109 546.408004 399.248704 546.408 363.599979 
L 369 363.6 
z
" style="fill: #9edae5"/>
   </g>
   <g id="matplotlib.axis_1"/>
   <g id="matplotlib.axis_2"/>
  </g>
 </g>
</svg>
