<?xml version="1.0" encoding="utf-8" standalone="no"?>
<!DOCTYPE svg PUBLIC "-//W3C//DTD SVG 1.1//EN"
  "http://www.w3.org/Graphics/SVG/1.1/DTD/svg11.dtd">
<svg xmlns:xlink="http://www.w3.org/1999/xlink" width="720pt" height="720pt" viewBox="0 0 720 720" xmlns="http://www.w3.org/2000/svg" version="1.1">
 <metadata>
  <rdf:RDF xmlns:dc="http://purl.org/dc/elements/1.1/" xmlns:cc="http://creativecommons.org/ns#" xmlns:rdf="http://www.w3.org/1999/02/22-rdf-syntax-ns#">
   <cc:Work>
    <dc:type rdf:resource="http://purl.org/dc/dcmitype/StillImage"/>
    <dc:date>2024-10-24T16:56:26.414269</dc:date>
    <dc:format>image/svg+xml</dc:format>
    <dc:creator>
     <cc:Agent>
      <dc:title>Matplotlib v3.8.2, https://matplotlib.org/</dc:title>
     </cc:Agent>
    </dc:creator>
   </cc:Work>
  </rdf:RDF>
 </metadata>
 <defs>
  <style type="text/css">*{stroke-linejoin: round; stroke-linecap: butt}</style>
 </defs>
 <g id="figure_1">
  <g id="patch_1">
   <path d="M 0 720 
L 720 720 
L 720 0 
L 0 0 
L 0 720 
z
" style="fill: none"/>
  </g>
  <g id="axes_1">
   <g id="patch_2">
    <path d="M 590.76 363.6 
C 590.76 337.57879 586.180026 311.759501 577.230059 287.325887 
C 568.280091 262.892274 555.099032 240.223539 538.291202 220.358992 
C 521.483372 200.494445 501.309625 183.742378 478.694878 170.870834 
C 456.080132 157.999291 431.375362 149.208034 405.713225 144.900122 
C 380.051088 140.59221 353.829854 140.834501 328.251704 145.615886 
C 302.673555 150.397271 278.135456 159.643545 255.762424 172.930787 
C 233.389391 186.218029 213.528648 203.340024 197.090764 223.51177 
C 180.652879 243.683516 167.892965 266.591952 159.396033 291.186779 
C 150.899101 315.781606 146.797021 341.68112 147.277866 367.697887 
C 147.75871 393.714654 152.815014 419.444901 162.21496 443.708957 
C 171.614906 467.973013 185.212609 490.394305 202.384644 509.944869 
C 219.55668 529.495434 240.036543 545.871851 262.88528 558.323301 
C 285.734017 570.77475 310.597022 579.107989 336.334383 582.940956 
C 362.071743 586.773924 388.284023 586.047134 413.769451 580.793909 
C 439.254878 575.540683 463.617925 565.84255 485.741603 552.144148 
C 507.865282 538.445745 527.406237 520.959667 543.468563 500.487611 
L 508.57485 473.110089 
C 495.72499 489.487734 480.092225 503.476596 462.393283 514.435318 
C 444.69434 525.39404 425.203902 533.152546 404.81556 537.355127 
C 384.427219 541.557707 363.457395 542.139139 342.867506 539.072765 
C 322.277617 536.006391 302.387214 529.3398 284.108224 519.378641 
C 265.829234 509.417481 249.445344 496.316347 235.707715 480.675896 
C 221.970087 465.035444 211.091925 447.09841 203.571968 427.687166 
C 196.052012 408.275921 192.006968 387.691723 191.622292 366.87831 
C 191.237617 346.064896 194.519281 325.345285 201.316826 305.669423 
C 208.114372 285.993562 218.322303 267.666813 231.472611 251.529416 
C 244.622919 235.392019 260.511513 221.694423 278.409939 211.064629 
C 296.308365 200.434836 315.938844 193.037817 336.401363 189.212709 
C 356.863883 185.387601 377.840871 185.193768 398.37058 188.640098 
C 418.90029 192.086427 438.664106 199.119433 456.755903 209.416668 
C 474.8477 219.713902 490.986698 233.115556 504.432962 249.007194 
C 517.879226 264.898831 528.424073 283.033819 535.584047 302.58071 
C 542.744021 322.127601 546.408 342.783032 546.408 363.6 
z
" style="opacity: 0.1"/>
   </g>
   <g id="patch_3">
    <path d="M 543.468563 500.487611 
C 558.681528 481.098098 570.556347 459.307493 578.603969 436.013216 
C 586.651591 412.718939 590.760001 388.245224 590.76 363.59999 
L 546.408 363.599992 
C 546.408001 383.316179 543.121273 402.895151 536.683175 421.530573 
C 530.245078 440.165994 520.745223 457.598478 508.57485 473.110089 
z
"/>
   </g>
   <g id="patch_4">
    <path d="M 546.408 363.6 
C 546.408 332.460712 538.209481 301.86342 522.639838 274.896005 
C 507.070194 247.92859 484.671423 225.529816 457.70401 209.960171 
C 430.736596 194.390525 400.139305 186.192003 369.000017 186.192 
C 337.860729 186.191997 307.263436 194.390513 280.296019 209.960154 
C 253.328603 225.529795 230.929827 247.928564 215.360179 274.895976 
C 199.790531 301.863388 191.592006 332.460679 191.592 363.599967 
C 191.591994 394.739255 199.790508 425.336548 215.360146 452.303966 
C 230.929784 479.271384 253.328551 501.670162 280.295962 517.239813 
L 369 363.6 
z
" style="fill: #17becf"/>
   </g>
   <g id="patch_5">
    <path d="M 280.295962 517.239813 
C 307.263372 532.809463 337.860662 541.007991 368.99995 541.008 
C 400.139238 541.008009 430.736533 532.809498 457.703952 517.239863 
C 484.671371 501.670227 507.070151 479.271462 522.639804 452.304053 
C 538.209458 425.336644 546.407988 394.739355 546.408 363.600066 
L 369 363.6 
z
" style="fill: #9edae5"/>
   </g>
   <g id="matplotlib.axis_1"/>
   <g id="matplotlib.axis_2"/>
  </g>
 </g>
</svg>
