<?xml version="1.0" encoding="utf-8" standalone="no"?>
<!DOCTYPE svg PUBLIC "-//W3C//DTD SVG 1.1//EN"
  "http://www.w3.org/Graphics/SVG/1.1/DTD/svg11.dtd">
<svg xmlns:xlink="http://www.w3.org/1999/xlink" width="720pt" height="720pt" viewBox="0 0 720 720" xmlns="http://www.w3.org/2000/svg" version="1.1">
 <metadata>
  <rdf:RDF xmlns:dc="http://purl.org/dc/elements/1.1/" xmlns:cc="http://creativecommons.org/ns#" xmlns:rdf="http://www.w3.org/1999/02/22-rdf-syntax-ns#">
   <cc:Work>
    <dc:type rdf:resource="http://purl.org/dc/dcmitype/StillImage"/>
    <dc:date>2024-10-24T16:56:25.948103</dc:date>
    <dc:format>image/svg+xml</dc:format>
    <dc:creator>
     <cc:Agent>
      <dc:title>Matplotlib v3.8.2, https://matplotlib.org/</dc:title>
     </cc:Agent>
    </dc:creator>
   </cc:Work>
  </rdf:RDF>
 </metadata>
 <defs>
  <style type="text/css">*{stroke-linejoin: round; stroke-linecap: butt}</style>
 </defs>
 <g id="figure_1">
  <g id="patch_1">
   <path d="M 0 720 
L 720 720 
L 720 0 
L 0 0 
L 0 720 
z
" style="fill: none"/>
  </g>
  <g id="axes_1">
   <g id="patch_2">
    <path d="M 590.76 363.6 
C 590.76 328.331895 582.346586 293.567356 566.220516 262.201944 
C 550.094446 230.836532 526.716223 203.765931 498.033036 183.244869 
C 469.349849 162.723808 436.180785 149.338293 401.28852 144.203215 
C 366.396255 139.068137 330.777185 142.330135 297.398048 153.717514 
C 264.018911 165.104893 233.832894 184.29247 209.354212 209.6821 
C 184.875529 235.07173 166.803205 265.938376 156.642494 299.711134 
C 146.481783 333.483892 144.52284 369.198333 150.928825 403.879776 
C 157.334811 438.56122 171.922794 471.21929 193.47773 499.133872 
L 228.582184 472.027098 
C 211.338235 449.695432 199.667849 423.568976 194.54306 395.823821 
C 189.418272 368.078666 190.985427 339.507113 199.113995 312.488907 
C 207.242564 285.470701 221.700423 260.777384 241.283369 240.46568 
C 260.866315 220.153976 285.015129 204.803914 311.718438 195.694011 
C 338.421748 186.584108 366.917004 183.97451 394.830816 188.082572 
C 422.744628 192.190635 449.279879 202.899046 472.226429 219.315895 
C 495.172979 235.732744 513.875557 257.389226 526.776413 282.481555 
C 539.677268 307.573885 546.408 335.385516 546.408 363.6 
z
" style="opacity: 0.1"/>
   </g>
   <g id="patch_3">
    <path d="M 193.47773 499.133872 
C 221.757228 535.757054 260.802183 562.626927 305.111134 575.957506 
C 349.420085 589.288086 396.809421 588.422421 440.601952 573.482486 
C 484.394484 558.542551 522.432049 530.264607 549.355131 492.633036 
C 576.278212 455.001465 590.76 409.870806 590.76 363.6 
L 546.408 363.6 
C 546.408 400.616645 534.82257 436.721172 513.284105 466.826429 
C 491.74564 496.931686 461.315587 519.554041 426.281562 531.505989 
C 391.247537 543.457937 353.336068 544.150469 317.888907 533.486005 
C 282.441747 522.821541 251.205783 501.325643 228.582184 472.027098 
z
"/>
   </g>
   <g id="patch_4">
    <path d="M 546.408 363.6 
C 546.408 330.606613 537.204101 298.258263 519.83532 270.206721 
C 502.46654 242.155178 477.612015 219.497286 448.077546 204.790869 
C 418.543077 190.084451 385.48349 183.904545 352.630848 186.948792 
C 319.778205 189.993039 288.417077 202.142406 262.087787 222.025366 
L 369 363.6 
z
" style="fill: #c7c7c7"/>
   </g>
   <g id="patch_5">
    <path d="M 262.087787 222.025366 
C 235.758497 241.908325 215.490546 268.747432 203.571962 299.51285 
C 191.653378 330.278268 188.550189 363.767038 194.612711 396.198649 
L 369 363.6 
z
" style="fill: #2ca02c"/>
   </g>
   <g id="patch_6">
    <path d="M 194.612711 396.198649 
C 202.735266 439.650458 226.811866 478.535498 262.0878 505.174644 
C 297.363733 531.813791 341.353238 544.329883 385.369144 540.251209 
C 429.38505 536.172535 470.325724 515.786503 500.106088 483.119003 
C 529.886452 450.451504 546.407996 407.804491 546.408 363.600017 
L 369 363.6 
z
" style="fill: #9edae5"/>
   </g>
   <g id="matplotlib.axis_1"/>
   <g id="matplotlib.axis_2"/>
  </g>
 </g>
</svg>
