<?xml version="1.0" encoding="utf-8" standalone="no"?>
<!DOCTYPE svg PUBLIC "-//W3C//DTD SVG 1.1//EN"
  "http://www.w3.org/Graphics/SVG/1.1/DTD/svg11.dtd">
<svg xmlns:xlink="http://www.w3.org/1999/xlink" width="720pt" height="720pt" viewBox="0 0 720 720" xmlns="http://www.w3.org/2000/svg" version="1.1">
 <metadata>
  <rdf:RDF xmlns:dc="http://purl.org/dc/elements/1.1/" xmlns:cc="http://creativecommons.org/ns#" xmlns:rdf="http://www.w3.org/1999/02/22-rdf-syntax-ns#">
   <cc:Work>
    <dc:type rdf:resource="http://purl.org/dc/dcmitype/StillImage"/>
    <dc:date>2024-10-24T16:56:27.654015</dc:date>
    <dc:format>image/svg+xml</dc:format>
    <dc:creator>
     <cc:Agent>
      <dc:title>Matplotlib v3.8.2, https://matplotlib.org/</dc:title>
     </cc:Agent>
    </dc:creator>
   </cc:Work>
  </rdf:RDF>
 </metadata>
 <defs>
  <style type="text/css">*{stroke-linejoin: round; stroke-linecap: butt}</style>
 </defs>
 <g id="figure_1">
  <g id="patch_1">
   <path d="M 0 720 
L 720 720 
L 720 0 
L 0 0 
L 0 720 
z
" style="fill: none"/>
  </g>
  <g id="axes_1">
   <g id="patch_2">
    <path d="M 590.76 363.6 
C 590.76 335.166468 585.291482 306.996481 574.65303 280.628145 
C 564.014579 254.25981 548.403408 230.181933 528.671899 209.709187 
C 508.94039 189.236441 485.45432 172.748343 459.496048 161.145158 
C 433.537776 149.541973 405.588509 143.038797 377.1743 141.990708 
C 348.760091 140.942619 320.407674 145.369046 293.665114 155.028304 
C 266.922554 164.687561 242.285596 179.400588 221.09944 198.364042 
C 199.913284 217.327495 182.570671 240.189835 170.018523 265.702761 
C 157.466375 291.215686 149.93738 318.906245 147.842626 347.26251 
C 145.747873 375.618775 149.126193 404.115087 157.793128 431.195523 
C 166.460063 458.275959 180.254948 483.43851 198.42457 505.309281 
C 216.594192 527.180051 238.801729 545.353607 263.834631 558.837657 
C 288.867532 572.321707 316.261747 580.866288 344.521526 584.004859 
C 372.781306 587.14343 401.38278 584.817809 428.764284 577.154976 
C 456.145788 569.492144 481.799733 556.634151 504.325391 539.283056 
C 526.851048 521.931961 545.830846 500.409412 560.228471 475.890558 
C 574.626096 451.371705 584.174649 424.31107 588.352771 396.186187 
L 544.482217 389.668949 
C 541.139719 412.168856 533.500876 433.817364 521.982777 453.432447 
C 510.464677 473.04753 495.280839 490.265569 477.260313 504.146445 
C 459.239786 518.027321 438.716631 528.313715 416.811427 534.443981 
C 394.906224 540.574247 372.025045 542.434744 349.417221 539.923887 
C 326.809397 537.413031 304.894026 530.577366 284.867705 519.790126 
C 264.841383 509.002886 247.075354 494.464041 232.539656 476.967425 
C 218.003958 459.470808 206.96805 439.340767 200.034502 417.676418 
C 193.100954 396.01207 190.398298 373.21502 192.074101 350.530008 
C 193.749904 327.844996 199.7731 305.692549 209.814819 285.282208 
C 219.856537 264.871868 233.730627 246.581996 250.679552 231.411233 
C 267.628477 216.240471 287.338043 204.470049 308.732091 196.742643 
C 330.126139 189.015237 352.808073 185.474095 375.53944 186.312566 
C 398.270807 187.151037 420.630221 192.353579 441.396838 201.636127 
C 462.163456 210.918675 480.952312 224.109153 496.737519 240.487349 
C 512.522726 256.865546 525.011663 276.127848 533.522424 297.222516 
C 542.033185 318.317185 546.408 340.853174 546.408 363.6 
z
" style="opacity: 0.1"/>
   </g>
   <g id="patch_3">
    <path d="M 588.352771 396.186187 
C 589.153815 390.793982 589.755758 385.374074 590.157373 379.937508 
C 590.558987 374.500942 590.759999 369.051416 590.76 363.600036 
L 546.408 363.600029 
C 546.407999 367.961133 546.247189 372.320754 545.925898 376.670006 
C 545.604607 381.019259 545.123052 385.355186 544.482217 389.668949 
z
"/>
   </g>
   <g id="patch_4">
    <path d="M 546.408 363.6 
C 546.408 327.068674 535.124367 291.413915 514.107214 261.53387 
C 493.090061 231.653826 463.348 208.982436 428.966906 196.634229 
C 394.585812 184.286023 357.215633 182.853589 321.990173 192.533713 
C 286.764714 202.213836 255.374441 222.541967 232.131658 250.725488 
L 369 363.6 
z
" style="fill: #d62728"/>
   </g>
   <g id="patch_5">
    <path d="M 232.131658 250.725488 
C 214.758009 271.792268 202.480564 296.588591 196.258647 323.176946 
C 190.036729 349.765301 190.036726 377.434657 196.258637 404.023014 
C 202.480549 430.61137 214.757988 455.407696 232.131631 476.47448 
C 249.505275 497.541264 271.510514 514.315134 296.427925 525.48543 
L 369 363.6 
z
" style="fill: #dbdb8d"/>
   </g>
   <g id="patch_6">
    <path d="M 296.427925 525.48543 
C 329.76289 540.429255 366.913766 544.718149 402.776874 537.762916 
C 438.639982 530.807683 471.494255 512.942104 496.82627 486.620499 
L 369 363.6 
z
" style="fill: #17becf"/>
   </g>
   <g id="patch_7">
    <path d="M 496.82627 486.620499 
C 512.584735 470.246433 525.05123 450.995946 533.54634 429.918175 
C 542.04145 408.840405 546.407995 386.325343 546.408 363.600042 
L 369 363.6 
z
" style="fill: #9edae5"/>
   </g>
   <g id="matplotlib.axis_1"/>
   <g id="matplotlib.axis_2"/>
  </g>
 </g>
</svg>
