<?xml version="1.0" encoding="utf-8" standalone="no"?>
<!DOCTYPE svg PUBLIC "-//W3C//DTD SVG 1.1//EN"
  "http://www.w3.org/Graphics/SVG/1.1/DTD/svg11.dtd">
<svg xmlns:xlink="http://www.w3.org/1999/xlink" width="720pt" height="720pt" viewBox="0 0 720 720" xmlns="http://www.w3.org/2000/svg" version="1.1">
 <metadata>
  <rdf:RDF xmlns:dc="http://purl.org/dc/elements/1.1/" xmlns:cc="http://creativecommons.org/ns#" xmlns:rdf="http://www.w3.org/1999/02/22-rdf-syntax-ns#">
   <cc:Work>
    <dc:type rdf:resource="http://purl.org/dc/dcmitype/StillImage"/>
    <dc:date>2024-10-24T16:56:27.048687</dc:date>
    <dc:format>image/svg+xml</dc:format>
    <dc:creator>
     <cc:Agent>
      <dc:title>Matplotlib v3.8.2, https://matplotlib.org/</dc:title>
     </cc:Agent>
    </dc:creator>
   </cc:Work>
  </rdf:RDF>
 </metadata>
 <defs>
  <style type="text/css">*{stroke-linejoin: round; stroke-linecap: butt}</style>
 </defs>
 <g id="figure_1">
  <g id="patch_1">
   <path d="M 0 720 
L 720 720 
L 720 0 
L 0 0 
L 0 720 
z
" style="fill: none"/>
  </g>
  <g id="axes_1">
   <g id="patch_2">
    <path d="M 590.76 363.6 
C 590.76 335.513614 585.424197 307.681223 575.03697 281.586193 
C 564.649743 255.491162 549.398963 231.605467 530.097441 211.202125 
C 510.795918 190.798784 487.792756 174.246828 462.313937 162.428415 
C 436.835118 150.610001 409.341472 143.738889 381.29831 142.181281 
C 353.255147 140.623673 325.169678 144.407743 298.538755 153.331813 
C 271.907832 162.255883 247.213121 176.158545 225.770761 194.29884 
C 204.328401 212.439135 186.526214 234.488962 173.312991 259.273148 
C 160.099768 284.057333 151.714494 311.12761 148.604073 339.041234 
C 145.493652 366.954858 147.714341 395.20696 155.147786 422.291808 
C 162.581232 449.376656 175.092986 474.804372 192.016218 497.219753 
C 208.93945 519.635134 229.968075 538.632758 253.981343 553.200121 
C 277.99461 567.767485 304.558199 577.641111 332.256368 582.294772 
C 359.954536 586.948432 388.286314 586.297959 415.741722 580.378018 
C 443.197129 574.458077 469.279587 563.375742 492.598996 547.72166 
C 515.918405 532.067579 536.052992 512.124882 551.929658 488.956443 
C 567.806324 465.788004 579.137912 439.812864 585.320489 412.415404 
L 542.056391 402.652323 
C 537.110329 424.570292 528.045059 445.350403 515.343726 463.885154 
C 502.642393 482.419906 486.534724 498.374063 467.879197 510.897328 
C 449.22367 523.420594 428.357703 532.286462 406.393377 537.022414 
C 384.429051 541.758367 361.763629 542.278746 339.605094 538.555817 
C 317.446559 534.832888 296.195688 526.933988 276.985074 515.280097 
C 257.77446 503.626207 240.95156 488.428108 227.412974 470.495803 
C 213.874388 452.563498 203.864985 432.221325 197.918229 410.553446 
C 191.971473 388.885568 190.194922 366.283886 192.683258 343.952987 
C 195.171595 321.622088 201.879815 299.965866 212.450393 280.138518 
C 223.020971 260.31117 237.262721 242.671308 254.416609 228.159072 
C 271.570497 213.646836 291.326265 202.524706 312.631004 195.38545 
C 333.935743 188.246194 356.404118 185.218939 378.838648 186.465025 
C 401.273178 187.711111 423.268094 193.208001 443.651149 202.662732 
C 464.034205 212.117462 482.436735 225.359027 497.877952 241.6817 
C 513.31917 258.004373 525.519794 277.11293 533.829576 297.988954 
C 542.139358 318.864979 546.408 341.130891 546.408 363.6 
z
" style="opacity: 0.1"/>
   </g>
   <g id="patch_3">
    <path d="M 585.320489 412.415404 
C 587.126673 404.411485 588.487244 396.313487 589.395926 388.158776 
C 590.304607 380.004065 590.759999 371.805203 590.76 363.600021 
L 546.408 363.600017 
C 546.407999 370.164162 546.043686 376.723252 545.316741 383.247021 
C 544.589795 389.77079 543.501338 396.249188 542.056391 402.652323 
z
"/>
   </g>
   <g id="patch_4">
    <path d="M 546.408 363.6 
C 546.408 344.833011 543.43012 326.184338 537.5856 308.350621 
C 531.741081 290.516904 523.103616 273.723007 511.995867 258.596283 
C 500.888117 243.469559 487.450141 230.20074 472.183925 219.285496 
C 456.91771 208.370252 440.015748 199.946213 422.109427 194.328067 
C 404.203107 188.709921 385.518209 185.968508 366.752725 186.206234 
C 347.987242 186.44396 329.377787 189.65783 311.619535 195.727785 
C 293.861283 201.79774 277.178146 210.647244 262.193341 221.945717 
C 247.208535 233.244189 234.111004 246.849167 223.390017 262.252424 
C 212.66903 277.655681 204.459768 294.662996 199.068897 312.639047 
C 193.678026 330.615097 191.173519 349.333222 191.648934 368.094189 
C 192.124348 386.855155 195.573691 405.422406 201.868107 423.102344 
C 208.162524 440.782281 217.222648 457.35198 228.710031 472.192463 
C 240.197413 487.032945 253.967209 499.957088 269.505036 510.482098 
C 285.042862 521.007107 302.152803 529.000274 320.195698 534.163005 
C 338.238594 539.325736 356.986943 541.592935 375.740382 540.879908 
C 394.49382 540.166881 413.015888 536.482619 430.614674 529.964751 
L 369 363.6 
z
" style="fill: #d62728"/>
   </g>
   <g id="patch_5">
    <path d="M 430.614674 529.964751 
C 464.591573 517.381103 493.911606 494.685724 514.609964 464.947603 
C 535.308323 435.209483 546.407986 399.832343 546.408 363.600066 
L 369 363.6 
z
" style="fill: #9edae5"/>
   </g>
   <g id="matplotlib.axis_1"/>
   <g id="matplotlib.axis_2"/>
  </g>
 </g>
</svg>
