<?xml version="1.0" encoding="utf-8" standalone="no"?>
<!DOCTYPE svg PUBLIC "-//W3C//DTD SVG 1.1//EN"
  "http://www.w3.org/Graphics/SVG/1.1/DTD/svg11.dtd">
<svg xmlns:xlink="http://www.w3.org/1999/xlink" width="720pt" height="720pt" viewBox="0 0 720 720" xmlns="http://www.w3.org/2000/svg" version="1.1">
 <metadata>
  <rdf:RDF xmlns:dc="http://purl.org/dc/elements/1.1/" xmlns:cc="http://creativecommons.org/ns#" xmlns:rdf="http://www.w3.org/1999/02/22-rdf-syntax-ns#">
   <cc:Work>
    <dc:type rdf:resource="http://purl.org/dc/dcmitype/StillImage"/>
    <dc:date>2024-10-24T16:56:27.689476</dc:date>
    <dc:format>image/svg+xml</dc:format>
    <dc:creator>
     <cc:Agent>
      <dc:title>Matplotlib v3.8.2, https://matplotlib.org/</dc:title>
     </cc:Agent>
    </dc:creator>
   </cc:Work>
  </rdf:RDF>
 </metadata>
 <defs>
  <style type="text/css">*{stroke-linejoin: round; stroke-linecap: butt}</style>
 </defs>
 <g id="figure_1">
  <g id="patch_1">
   <path d="M 0 720 
L 720 720 
L 720 0 
L 0 0 
L 0 720 
z
" style="fill: none"/>
  </g>
  <g id="axes_1">
   <g id="patch_2">
    <path d="M 590.76 363.6 
C 590.76 320.733126 578.330557 278.77203 554.983584 242.820845 
C 531.63661 206.86966 498.358751 178.447684 459.197913 161.012157 
C 420.037075 143.57663 376.648196 137.864377 334.309085 144.570235 
C 291.969974 151.276093 252.469883 170.116672 220.613589 198.800211 
L 250.290871 231.760169 
C 275.775906 208.813338 307.375979 193.740874 341.247268 188.376188 
C 375.118557 183.011501 409.82966 187.581304 441.15833 201.529726 
C 472.487001 215.478148 499.109288 238.215728 517.786867 266.976676 
C 536.464446 295.737624 546.408 329.306501 546.408 363.6 
z
" style="opacity: 0.1"/>
   </g>
   <g id="patch_3">
    <path d="M 220.613589 198.800211 
C 193.148684 223.529724 172.296544 254.737161 159.95982 289.575 
C 147.623096 324.412839 144.188779 361.78825 149.970235 398.290915 
C 155.75169 434.79358 170.567559 469.278445 193.065967 498.59894 
C 215.564376 527.919435 245.03957 551.155803 278.802087 566.187843 
C 312.564604 581.219883 349.555346 587.576054 386.399093 584.676388 
C 423.242841 581.776721 458.78384 569.712177 489.779155 549.583584 
C 520.774469 529.45499 546.251805 501.893763 563.886484 469.414725 
C 581.521162 436.935687 590.76 400.557676 590.76 363.6 
L 546.408 363.6 
C 546.408 393.166141 539.01693 422.26855 524.909187 448.25178 
C 510.801444 474.235011 490.419575 496.283992 465.623324 512.386867 
C 440.827072 528.489741 412.394273 538.141377 382.919275 540.46111 
C 353.444277 542.780843 323.851683 537.695906 296.84167 525.670274 
C 269.831656 513.644642 246.251501 495.055548 228.252774 471.599152 
C 210.254047 448.142756 198.401352 420.554864 193.776188 391.352732 
C 189.151023 362.1506 191.898476 332.250271 201.767856 304.38 
C 211.637235 276.509729 228.318947 251.543779 250.290871 231.760169 
z
"/>
   </g>
   <g id="patch_4">
    <path d="M 546.408 363.6 
C 546.408 343.999638 543.159774 324.534084 536.795548 305.995724 
C 530.431322 287.457364 521.038639 270.101204 508.999849 254.633763 
C 496.961059 239.166323 482.441763 225.800366 466.032999 215.079982 
C 449.624234 204.359598 431.551715 196.432253 412.55112 191.620645 
C 393.550525 186.809038 373.88322 185.179354 354.349803 186.797935 
C 334.816386 188.416516 315.685552 193.261096 297.736061 201.134467 
C 279.786571 209.007838 263.26533 219.801696 248.844871 233.076655 
C 234.424413 246.351615 222.303098 261.925069 212.974351 279.16307 
C 203.645603 296.40107 197.237747 315.066496 194.011626 334.399533 
C 190.785504 353.73257 190.785496 373.46728 194.011601 392.800319 
C 197.237706 412.133359 203.645547 430.798791 212.97428 448.036799 
C 222.303012 465.274807 234.424314 480.848272 248.844761 494.123244 
C 263.265209 507.398215 279.78644 518.192087 297.735924 526.065473 
C 315.685408 533.938859 334.816238 538.783455 354.349654 540.402053 
C 373.883069 542.02065 393.550376 540.390983 412.550975 535.579391 
C 431.551574 530.7678 449.6241 522.84047 466.032873 512.120099 
L 369 363.6 
z
" style="fill: #8c564b"/>
   </g>
   <g id="patch_5">
    <path d="M 466.032873 512.120099 
C 479.697393 503.192637 492.064721 492.421938 502.784458 480.113164 
C 513.504194 467.80439 522.474134 454.074898 529.440135 439.313682 
L 369 363.6 
z
" style="fill: #c49c94"/>
   </g>
   <g id="patch_6">
    <path d="M 529.440135 439.313682 
C 532.222845 433.417015 534.678359 427.371419 536.795499 421.204419 
C 538.912638 415.03742 540.688184 408.75839 542.114053 402.395917 
L 369 363.6 
z
" style="fill: #17becf"/>
   </g>
   <g id="patch_7">
    <path d="M 542.114053 402.395917 
C 542.826852 399.215284 543.451859 396.015611 543.988362 392.800542 
C 544.524865 389.585472 544.97266 386.356227 545.331237 383.116485 
L 369 363.6 
z
" style="fill: #d62728"/>
   </g>
   <g id="patch_8">
    <path d="M 545.331237 383.116485 
C 545.689815 379.876743 545.959038 376.627734 546.138601 373.373158 
C 546.318163 370.118582 546.407997 366.859675 546.408 363.600149 
L 369 363.6 
z
" style="fill: #9edae5"/>
   </g>
   <g id="matplotlib.axis_1"/>
   <g id="matplotlib.axis_2"/>
  </g>
 </g>
</svg>
