<?xml version="1.0" encoding="utf-8" standalone="no"?>
<!DOCTYPE svg PUBLIC "-//W3C//DTD SVG 1.1//EN"
  "http://www.w3.org/Graphics/SVG/1.1/DTD/svg11.dtd">
<svg xmlns:xlink="http://www.w3.org/1999/xlink" width="720pt" height="720pt" viewBox="0 0 720 720" xmlns="http://www.w3.org/2000/svg" version="1.1">
 <metadata>
  <rdf:RDF xmlns:dc="http://purl.org/dc/elements/1.1/" xmlns:cc="http://creativecommons.org/ns#" xmlns:rdf="http://www.w3.org/1999/02/22-rdf-syntax-ns#">
   <cc:Work>
    <dc:type rdf:resource="http://purl.org/dc/dcmitype/StillImage"/>
    <dc:date>2024-10-24T16:56:25.594700</dc:date>
    <dc:format>image/svg+xml</dc:format>
    <dc:creator>
     <cc:Agent>
      <dc:title>Matplotlib v3.8.2, https://matplotlib.org/</dc:title>
     </cc:Agent>
    </dc:creator>
   </cc:Work>
  </rdf:RDF>
 </metadata>
 <defs>
  <style type="text/css">*{stroke-linejoin: round; stroke-linecap: butt}</style>
 </defs>
 <g id="figure_1">
  <g id="patch_1">
   <path d="M 0 720 
L 720 720 
L 720 0 
L 0 0 
L 0 720 
z
" style="fill: none"/>
  </g>
  <g id="axes_1">
   <g id="patch_2">
    <path d="M 590.76 363.6 
C 590.76 310.358825 571.586416 258.858106 536.76917 218.579301 
C 501.951925 178.300496 453.767371 151.877037 401.086451 144.173572 
C 348.405531 136.470107 294.672526 147.99029 249.779867 176.613216 
C 204.887208 205.236141 171.769979 249.090441 156.525176 300.102388 
L 199.020141 312.80191 
C 211.215983 271.992353 237.709766 236.908913 273.623893 214.010573 
C 309.538021 191.112232 352.524425 181.896086 394.669161 188.058858 
C 436.813897 194.221629 475.36154 215.360397 503.215336 247.583441 
C 531.069133 279.806484 546.408 321.00706 546.408 363.6 
z
" style="opacity: 0.1"/>
   </g>
   <g id="patch_3">
    <path d="M 156.525176 300.102388 
C 147.410367 330.602235 144.968694 362.71013 149.366584 394.237562 
C 153.764474 425.764994 164.899683 455.978994 182.013221 482.820142 
C 199.12676 509.66129 221.820763 532.505566 248.54838 549.795878 
C 275.275997 567.086189 305.41585 578.420562 336.91357 583.026431 
C 368.41129 587.6323 400.5346 585.402586 431.093939 576.489268 
C 461.653278 567.57595 489.938183 552.186251 514.020723 531.36915 
C 538.103262 510.552049 557.423552 484.791515 570.664697 455.843415 
C 583.905842 426.895315 590.760006 395.432653 590.76 363.599958 
L 546.408 363.599967 
C 546.408005 389.066122 540.924674 414.236252 530.331758 437.394732 
C 519.738841 460.553212 504.28261 481.161639 485.016578 497.81532 
C 465.750546 514.469001 443.122622 526.78076 418.675151 533.911414 
C 394.22768 541.042068 368.529032 542.82584 343.330856 539.141145 
C 318.13268 535.45645 294.020798 526.388952 272.638704 512.556702 
C 251.25661 498.724452 233.101408 480.449032 219.410577 458.976114 
C 205.719746 437.503195 196.811579 413.331995 193.293267 388.110049 
C 189.774955 362.888104 191.728294 337.201788 199.020141 312.80191 
z
"/>
   </g>
   <g id="patch_4">
    <path d="M 546.408 363.6 
C 546.408 340.663638 541.959976 317.943435 533.310792 296.700358 
C 524.661608 275.457281 511.97429 256.091732 495.95298 239.678496 
C 479.931671 223.265259 460.87835 210.113701 439.850472 200.95373 
C 418.822594 191.793759 396.216506 186.798029 373.286841 186.243801 
C 350.357177 185.689572 327.536127 189.587292 306.090256 197.720639 
C 284.644385 205.853985 264.977917 218.069654 248.182338 233.689681 
C 231.386759 249.309707 217.778642 268.039674 208.113233 288.840073 
C 198.447825 309.640471 192.907305 332.119243 191.799172 355.02882 
C 190.691039 377.938398 194.036179 400.846968 201.648938 422.483109 
C 209.261697 444.11925 220.998584 464.075152 236.208206 481.243265 
C 251.417827 498.411378 269.813502 512.468109 290.374275 522.63331 
C 310.935048 532.798512 333.273376 538.880585 356.149488 540.541976 
C 379.025599 542.203366 402.008311 539.41276 423.822088 532.325034 
C 445.635864 525.237308 465.869546 513.986057 483.400168 499.195723 
C 500.93079 484.405388 515.427924 466.354748 526.086983 446.045608 
C 536.746042 425.736468 543.366117 403.551627 545.579795 380.722341 
L 369 363.6 
z
" style="fill: #8c564b"/>
   </g>
   <g id="patch_5">
    <path d="M 545.579795 380.722341 
C 545.855662 377.877373 546.062733 375.026153 546.200828 372.171179 
C 546.338922 369.316205 546.408 366.458311 546.408 363.599999 
L 369 363.6 
z
" style="fill: #d62728"/>
   </g>
   <g id="matplotlib.axis_1"/>
   <g id="matplotlib.axis_2"/>
  </g>
 </g>
</svg>
