<?xml version="1.0" encoding="utf-8" standalone="no"?>
<!DOCTYPE svg PUBLIC "-//W3C//DTD SVG 1.1//EN"
  "http://www.w3.org/Graphics/SVG/1.1/DTD/svg11.dtd">
<svg xmlns:xlink="http://www.w3.org/1999/xlink" width="720pt" height="720pt" viewBox="0 0 720 720" xmlns="http://www.w3.org/2000/svg" version="1.1">
 <metadata>
  <rdf:RDF xmlns:dc="http://purl.org/dc/elements/1.1/" xmlns:cc="http://creativecommons.org/ns#" xmlns:rdf="http://www.w3.org/1999/02/22-rdf-syntax-ns#">
   <cc:Work>
    <dc:type rdf:resource="http://purl.org/dc/dcmitype/StillImage"/>
    <dc:date>2024-02-23T18:45:31.511146</dc:date>
    <dc:format>image/svg+xml</dc:format>
    <dc:creator>
     <cc:Agent>
      <dc:title>Matplotlib v3.8.2, https://matplotlib.org/</dc:title>
     </cc:Agent>
    </dc:creator>
   </cc:Work>
  </rdf:RDF>
 </metadata>
 <defs>
  <style type="text/css">*{stroke-linejoin: round; stroke-linecap: butt}</style>
 </defs>
 <g id="figure_1">
  <g id="patch_1">
   <path d="M 0 720 
L 720 720 
L 720 0 
L 0 0 
L 0 720 
z
" style="fill: none"/>
  </g>
  <g id="axes_1">
   <g id="patch_2">
    <path d="M 590.76 363.6 
C 590.76 335.486671 585.413955 307.62807 575.007328 281.511765 
C 564.600702 255.39546 549.322077 231.494719 529.987288 211.085769 
C 510.6525 190.67682 487.611923 174.129505 462.095857 162.327401 
C 436.579791 150.525298 409.050626 143.682279 380.978339 142.163741 
C 352.906052 140.645203 324.799355 144.478664 298.159064 153.459429 
C 271.518773 162.440195 246.82765 176.405519 225.404129 194.609695 
C 203.980607 212.81387 186.212915 234.927009 173.049794 259.768336 
C 159.886673 284.609663 151.566659 311.729014 148.534017 339.678296 
C 145.501375 367.627577 147.81106 395.900306 155.339743 422.986801 
C 162.868425 450.073296 175.479674 475.482708 192.500085 497.85825 
C 209.520496 520.233792 230.641633 539.169984 254.735691 553.65569 
C 278.829748 568.141396 305.460103 577.914112 333.204775 582.452004 
C 360.949447 586.989896 389.305658 586.21073 416.759271 580.156112 
C 444.212884 574.101494 470.266397 562.881142 493.528629 547.094191 
C 516.790861 531.30724 536.840265 511.239773 552.606261 487.963333 
C 568.372257 464.686894 579.569141 438.623287 585.599034 411.164232 
L 542.279227 401.651386 
C 537.455313 423.61863 528.497806 444.469515 515.885009 463.090666 
C 503.272212 481.711818 487.232689 497.765792 468.622903 510.395353 
C 450.013118 523.024914 429.170307 532.001195 407.207417 536.84489 
C 385.244526 541.688584 362.559558 542.311916 340.36382 538.681603 
C 318.168083 535.051289 296.863798 527.233116 277.588552 515.644552 
C 258.313307 504.055987 241.416397 488.907033 227.800068 471.0066 
C 214.183739 453.106166 204.09474 432.778636 198.071794 411.10944 
C 192.048848 389.440245 190.2011 366.822062 192.627214 344.462636 
C 195.053327 322.103211 201.709338 300.40773 212.239835 280.534669 
C 222.770332 260.661608 236.984486 242.971096 254.123303 228.407756 
C 271.26212 213.844415 291.015018 202.672156 312.327251 195.487544 
C 333.639484 188.302931 356.124841 185.236162 378.582671 186.450992 
C 401.040501 187.665823 423.063833 193.140238 443.476686 202.581921 
C 463.889538 212.023604 482.322 225.261456 497.789831 241.588615 
C 513.257662 257.915775 525.480561 277.036368 533.805863 297.929412 
C 542.131164 318.822456 546.408 341.109337 546.408 363.6 
L 590.76 363.6 
z
" style="fill: none; opacity: 0"/>
   </g>
   <g id="patch_3">
    <path d="M 585.599034 411.164232 
C 587.313068 403.358826 588.603934 395.466471 589.465982 387.521715 
C 590.32803 379.576958 590.759999 371.591409 590.76 363.600021 
L 546.408 363.600017 
C 546.407999 369.993127 546.062424 376.381567 545.372785 382.737372 
C 544.683147 389.093177 543.650454 395.407061 542.279227 401.651386 
z
" style="stroke: #ffffff; stroke-linejoin: miter"/>
   </g>
   <g id="patch_4">
    <path d="M 546.408 363.6 
C 546.408 340.302995 541.818998 317.232524 532.90362 295.708898 
C 523.988242 274.185271 510.91987 254.62707 494.4464 238.1536 
C 477.97293 221.68013 458.414729 208.611758 436.891102 199.69638 
C 415.367476 190.781002 392.297005 186.192 369 186.192 
C 345.702995 186.192 322.632524 190.781002 301.108898 199.69638 
C 279.585271 208.611758 260.02707 221.68013 243.5536 238.1536 
C 227.08013 254.62707 214.011758 274.185271 205.09638 295.708898 
C 196.181002 317.232524 191.592 340.302995 191.592 363.6 
C 191.592 386.897005 196.181002 409.967476 205.09638 431.491102 
C 214.011758 453.014729 227.08013 472.57293 243.5536 489.0464 
C 260.02707 505.51987 279.585271 518.588242 301.108898 527.50362 
C 322.632524 536.418998 345.702995 541.008 369 541.008 
C 392.297005 541.008 415.367476 536.418998 436.891102 527.50362 
C 458.414729 518.588242 477.97293 505.51987 494.4464 489.0464 
C 510.91987 472.57293 523.988242 453.014729 532.90362 431.491102 
C 541.818998 409.967476 546.408 386.897005 546.408 363.6 
M 369 363.6 
z
" style="fill: #d62728; stroke: #ffffff; stroke-linejoin: miter"/>
   </g>
   <g id="matplotlib.axis_1"/>
   <g id="matplotlib.axis_2"/>
  </g>
 </g>
</svg>
