<?xml version="1.0" encoding="utf-8" standalone="no"?>
<!DOCTYPE svg PUBLIC "-//W3C//DTD SVG 1.1//EN"
  "http://www.w3.org/Graphics/SVG/1.1/DTD/svg11.dtd">
<svg xmlns:xlink="http://www.w3.org/1999/xlink" width="720pt" height="720pt" viewBox="0 0 720 720" xmlns="http://www.w3.org/2000/svg" version="1.1">
 <metadata>
  <rdf:RDF xmlns:dc="http://purl.org/dc/elements/1.1/" xmlns:cc="http://creativecommons.org/ns#" xmlns:rdf="http://www.w3.org/1999/02/22-rdf-syntax-ns#">
   <cc:Work>
    <dc:type rdf:resource="http://purl.org/dc/dcmitype/StillImage"/>
    <dc:date>2024-02-23T18:45:31.558934</dc:date>
    <dc:format>image/svg+xml</dc:format>
    <dc:creator>
     <cc:Agent>
      <dc:title>Matplotlib v3.8.2, https://matplotlib.org/</dc:title>
     </cc:Agent>
    </dc:creator>
   </cc:Work>
  </rdf:RDF>
 </metadata>
 <defs>
  <style type="text/css">*{stroke-linejoin: round; stroke-linecap: butt}</style>
 </defs>
 <g id="figure_1">
  <g id="patch_1">
   <path d="M 0 720 
L 720 720 
L 720 0 
L 0 0 
L 0 720 
z
" style="fill: none"/>
  </g>
  <g id="axes_1">
   <g id="patch_2">
    <path d="M 590.76 363.6 
C 590.76 316.776162 575.929969 271.134021 548.407607 233.252741 
C 520.885246 195.371461 482.059721 167.163066 437.527605 152.693706 
C 392.995489 138.224345 345.004501 138.224346 300.472385 152.693709 
C 255.94027 167.163072 217.114746 195.371468 189.592386 233.252749 
L 225.473909 259.322199 
C 247.491797 229.017174 278.552216 206.450457 314.177908 194.874967 
C 349.803601 183.299477 388.196391 183.299476 423.822084 194.874965 
C 459.447777 206.450453 490.508197 229.017168 512.526086 259.322193 
C 534.543975 289.627217 546.408 326.14093 546.408 363.6 
L 590.76 363.6 
z
" style="fill: none; opacity: 0"/>
   </g>
   <g id="patch_3">
    <path d="M 189.592386 233.252749 
C 169.023236 261.563758 155.444549 294.345613 149.970232 328.909105 
C 144.495914 363.472598 147.279867 398.846039 158.093712 432.127624 
C 168.907557 465.40921 187.447284 495.663288 212.192015 520.408014 
C 236.936746 545.152741 267.190827 563.692462 300.472415 574.506301 
C 333.754003 585.32014 369.127444 588.104086 403.690936 582.629762 
C 438.254427 577.155438 471.036279 563.576745 499.347284 543.007589 
C 527.65829 522.438433 550.702535 495.45708 566.589624 464.2769 
C 582.476712 433.09672 590.760007 398.594289 590.76 363.599958 
L 546.408 363.599967 
C 546.408005 391.595431 539.78137 419.197376 527.071699 444.14152 
C 514.362028 469.085664 495.926632 490.670747 473.277828 507.126071 
C 450.629023 523.581396 424.403542 534.44435 396.752749 538.823809 
C 369.101955 543.203269 340.803202 540.976112 314.177932 532.325041 
C 287.552662 523.673969 263.349397 508.842193 243.553612 489.046412 
C 223.757827 469.250631 208.926046 445.047368 200.27497 418.4221 
C 191.623893 391.796831 189.396731 363.498079 193.776185 335.847284 
C 198.155639 308.19649 209.018589 281.971007 225.473909 259.322199 
z
" style="stroke: #ffffff; stroke-linejoin: miter"/>
   </g>
   <g id="patch_4">
    <path d="M 546.408 363.6 
C 546.408 332.460712 538.209481 301.86342 522.639838 274.896005 
C 507.070194 247.92859 484.671423 225.529816 457.70401 209.960171 
C 430.736596 194.390525 400.139305 186.192003 369.000017 186.192 
C 337.860729 186.191997 307.263436 194.390513 280.296019 209.960154 
C 253.328603 225.529795 230.929827 247.928564 215.360179 274.895976 
C 199.790531 301.863388 191.592006 332.460679 191.592 363.599967 
C 191.591994 394.739255 199.790508 425.336548 215.360146 452.303966 
C 230.929784 479.271384 253.328551 501.670162 280.295962 517.239813 
L 369 363.6 
z
" style="fill: #d62728; stroke: #ffffff; stroke-linejoin: miter"/>
   </g>
   <g id="patch_5">
    <path d="M 280.295962 517.239813 
C 307.263372 532.809463 337.860662 541.007991 368.99995 541.008 
C 400.139238 541.008009 430.736533 532.809498 457.703952 517.239863 
C 484.671371 501.670227 507.070151 479.271462 522.639804 452.304053 
C 538.209458 425.336644 546.407988 394.739355 546.408 363.600066 
L 369 363.6 
z
" style="fill: #c7c7c7; stroke: #ffffff; stroke-linejoin: miter"/>
   </g>
   <g id="matplotlib.axis_1"/>
   <g id="matplotlib.axis_2"/>
  </g>
 </g>
</svg>
