<?xml version="1.0" encoding="utf-8" standalone="no"?>
<!DOCTYPE svg PUBLIC "-//W3C//DTD SVG 1.1//EN"
  "http://www.w3.org/Graphics/SVG/1.1/DTD/svg11.dtd">
<svg xmlns:xlink="http://www.w3.org/1999/xlink" width="720pt" height="720pt" viewBox="0 0 720 720" xmlns="http://www.w3.org/2000/svg" version="1.1">
 <metadata>
  <rdf:RDF xmlns:dc="http://purl.org/dc/elements/1.1/" xmlns:cc="http://creativecommons.org/ns#" xmlns:rdf="http://www.w3.org/1999/02/22-rdf-syntax-ns#">
   <cc:Work>
    <dc:type rdf:resource="http://purl.org/dc/dcmitype/StillImage"/>
    <dc:date>2024-02-23T18:45:32.031191</dc:date>
    <dc:format>image/svg+xml</dc:format>
    <dc:creator>
     <cc:Agent>
      <dc:title>Matplotlib v3.8.2, https://matplotlib.org/</dc:title>
     </cc:Agent>
    </dc:creator>
   </cc:Work>
  </rdf:RDF>
 </metadata>
 <defs>
  <style type="text/css">*{stroke-linejoin: round; stroke-linecap: butt}</style>
 </defs>
 <g id="figure_1">
  <g id="patch_1">
   <path d="M 0 720 
L 720 720 
L 720 0 
L 0 0 
L 0 720 
z
" style="fill: none"/>
  </g>
  <g id="axes_1">
   <g id="patch_2">
    <path d="M 590.76 363.6 
C 590.76 323.35034 579.80197 283.850003 559.065997 249.352836 
C 538.330023 214.855669 508.588183 186.646131 473.043419 167.762147 
C 437.498655 148.878164 397.474429 140.022855 357.28101 142.149864 
C 317.087591 144.276872 278.221528 157.307 244.868364 179.837015 
L 269.694691 216.589612 
C 296.377223 198.5656 327.470073 188.141498 359.624808 186.439891 
C 391.779544 184.738284 423.798924 191.822531 452.234735 206.929718 
C 480.670547 222.036905 504.464018 244.604535 521.052797 272.202269 
C 537.641576 299.800002 546.408 331.400272 546.408 363.6 
L 590.76 363.6 
z
" style="fill: none; opacity: 0"/>
   </g>
   <g id="patch_3">
    <path d="M 244.868364 179.837015 
C 213.162377 201.254364 187.532494 230.517266 170.480502 264.769303 
C 153.428511 299.02134 145.5279 337.11056 147.549864 375.31899 
C 149.571828 413.52742 161.448365 450.570046 182.020181 482.831057 
C 202.591998 515.092068 231.167228 541.486472 264.956581 559.437853 
C 298.745934 577.389233 336.613018 586.293856 374.861543 585.282521 
C 413.110068 584.271185 450.453672 573.377905 483.247164 553.665997 
C 516.040656 533.954088 543.181136 506.086497 562.019363 472.783439 
C 580.857589 439.48038 590.76 401.861893 590.76 363.6 
L 546.408 363.6 
C 546.408 394.209514 538.486071 424.304304 523.41549 450.946751 
C 508.344909 477.589197 486.632525 499.883271 460.397731 515.652797 
C 434.162937 531.422324 404.288054 540.136948 373.689234 540.946016 
C 343.090414 541.755085 312.796747 534.631387 285.765265 520.270282 
C 258.733782 505.909178 235.873598 484.793655 219.416145 458.984846 
C 202.958692 433.176037 193.457462 403.541936 191.839891 372.975192 
C 190.22232 342.408448 196.542809 311.937072 210.184402 284.535442 
C 223.825995 257.133812 244.329902 233.723492 269.694691 216.589612 
z
" style="stroke: #ffffff; stroke-linejoin: miter"/>
   </g>
   <g id="patch_4">
    <path d="M 546.408 363.6 
C 546.408 336.664467 540.273641 310.079337 528.47159 285.867057 
C 516.669539 261.654777 499.506861 240.445298 478.289196 223.852119 
C 457.07153 207.25894 432.350916 195.71378 406.007958 190.094929 
C 379.664999 184.476079 352.385086 184.929728 326.243518 191.421367 
L 369 363.6 
z
" style="fill: #c7c7c7; stroke: #ffffff; stroke-linejoin: miter"/>
   </g>
   <g id="patch_5">
    <path d="M 326.243518 191.421367 
C 301.293981 197.616993 277.986665 209.162192 257.939842 225.255359 
C 237.893018 241.348526 221.581641 261.608377 210.138241 284.628233 
C 198.694841 307.648089 192.390537 332.882557 191.663051 358.579559 
C 190.935564 384.276562 195.802129 409.827278 205.924853 433.457675 
L 369 363.6 
z
" style="fill: #7f7f7f; stroke: #ffffff; stroke-linejoin: miter"/>
   </g>
   <g id="patch_6">
    <path d="M 205.924853 433.457675 
C 214.483393 453.436657 226.641077 471.673788 241.790989 487.258668 
C 256.940902 502.843547 274.826681 515.512451 294.555465 524.632946 
L 369 363.6 
z
" style="fill: #d62728; stroke: #ffffff; stroke-linejoin: miter"/>
   </g>
   <g id="patch_7">
    <path d="M 294.555465 524.632946 
C 321.585433 537.128733 351.331505 542.620073 381.041414 540.598878 
C 410.751322 538.577683 439.479599 529.108273 464.568149 513.06681 
C 489.656699 497.025347 510.307122 474.922323 524.608728 448.802829 
C 538.910335 422.683336 546.408 393.378581 546.408 363.6 
L 369 363.6 
z
" style="fill: #9edae5; stroke: #ffffff; stroke-linejoin: miter"/>
   </g>
   <g id="matplotlib.axis_1"/>
   <g id="matplotlib.axis_2"/>
  </g>
 </g>
</svg>
