<?xml version="1.0" encoding="utf-8" standalone="no"?>
<!DOCTYPE svg PUBLIC "-//W3C//DTD SVG 1.1//EN"
  "http://www.w3.org/Graphics/SVG/1.1/DTD/svg11.dtd">
<svg xmlns:xlink="http://www.w3.org/1999/xlink" width="720pt" height="720pt" viewBox="0 0 720 720" xmlns="http://www.w3.org/2000/svg" version="1.1">
 <metadata>
  <rdf:RDF xmlns:dc="http://purl.org/dc/elements/1.1/" xmlns:cc="http://creativecommons.org/ns#" xmlns:rdf="http://www.w3.org/1999/02/22-rdf-syntax-ns#">
   <cc:Work>
    <dc:type rdf:resource="http://purl.org/dc/dcmitype/StillImage"/>
    <dc:date>2024-02-23T18:45:31.804843</dc:date>
    <dc:format>image/svg+xml</dc:format>
    <dc:creator>
     <cc:Agent>
      <dc:title>Matplotlib v3.8.2, https://matplotlib.org/</dc:title>
     </cc:Agent>
    </dc:creator>
   </cc:Work>
  </rdf:RDF>
 </metadata>
 <defs>
  <style type="text/css">*{stroke-linejoin: round; stroke-linecap: butt}</style>
 </defs>
 <g id="figure_1">
  <g id="patch_1">
   <path d="M 0 720 
L 720 720 
L 720 0 
L 0 0 
L 0 720 
z
" style="fill: none"/>
  </g>
  <g id="axes_1">
   <g id="patch_2">
    <path d="M 590.76 363.6 
C 590.76 323.432136 579.846463 284.009022 559.190061 249.559489 
C 538.533659 215.109955 508.900369 186.911456 473.46889 167.988782 
C 438.037411 149.066108 398.121608 140.120948 358.003162 142.112828 
C 317.884717 144.104709 279.051294 156.959769 245.668472 179.299072 
L 270.334778 216.159258 
C 297.041035 198.287815 328.107773 188.003767 360.20253 186.410263 
C 392.297286 184.816758 424.229929 191.972887 452.575112 207.111026 
C 480.920295 222.249165 504.626927 244.807964 521.152049 272.367591 
C 537.677171 299.927217 546.408 331.465709 546.408 363.6 
L 590.76 363.6 
z
" style="fill: none; opacity: 0"/>
   </g>
   <g id="patch_3">
    <path d="M 245.668472 179.299072 
C 213.835733 200.601084 188.05841 229.791415 170.857905 264.014822 
C 153.6574 298.23823 145.613435 336.341254 147.512829 374.596858 
C 149.412224 412.852463 161.19096 449.971288 181.696904 482.322567 
C 202.202849 514.673846 230.744873 541.167216 264.531146 559.211237 
C 298.31742 577.255259 336.209217 586.241778 374.500163 585.291781 
C 412.791108 584.341785 450.190651 573.487291 483.040565 553.790029 
C 515.890479 534.092767 543.083598 506.21661 561.960034 472.888257 
C 580.836469 439.559903 590.760014 401.902645 590.76 363.599917 
L 546.408 363.599934 
C 546.408011 394.242116 538.469175 424.367922 523.368027 451.030605 
C 508.266878 477.693288 486.512383 499.994214 460.232452 515.752023 
C 433.95252 531.509833 404.032886 540.193428 373.40013 540.953425 
C 342.767374 541.713422 312.453936 534.524207 285.424917 520.08899 
C 258.395898 505.653773 235.562279 484.459077 219.157523 458.578054 
C 202.752768 432.697031 193.329779 403.00197 191.810264 372.397487 
C 190.290748 341.793003 196.72592 311.310584 210.486324 283.931858 
C 224.246728 256.553132 244.868586 233.200867 270.334778 216.159258 
z
" style="stroke: #ffffff; stroke-linejoin: miter"/>
   </g>
   <g id="patch_4">
    <path d="M 546.408 363.6 
C 546.408 326.623335 534.847582 290.555823 513.352244 260.468879 
C 491.856905 230.381934 461.483668 207.755066 426.503281 195.769814 
C 391.522893 183.784563 353.655496 183.030295 318.225584 193.613068 
C 282.795671 204.195841 251.54549 225.595253 228.869093 254.802355 
L 369 363.6 
z
" style="fill: #c7c7c7; stroke: #ffffff; stroke-linejoin: miter"/>
   </g>
   <g id="patch_5">
    <path d="M 228.869093 254.802355 
C 208.433419 281.123418 195.821237 312.677218 192.483947 345.832574 
C 189.146656 378.98793 195.217381 412.42228 209.997508 442.288029 
L 369 363.6 
z
" style="fill: #7f7f7f; stroke: #ffffff; stroke-linejoin: miter"/>
   </g>
   <g id="patch_6">
    <path d="M 209.997508 442.288029 
C 221.359645 465.247152 237.560899 485.475267 257.484134 501.577571 
C 277.407369 517.679875 300.583887 529.277558 325.415582 535.570919 
L 369 363.6 
z
" style="fill: #d62728; stroke: #ffffff; stroke-linejoin: miter"/>
   </g>
   <g id="patch_7">
    <path d="M 325.415582 535.570919 
C 351.595453 542.205962 378.948043 542.776015 405.381622 537.237485 
C 431.815201 531.698954 456.638328 520.196715 477.952709 503.610377 
C 499.267089 487.024039 516.515188 465.787461 528.377994 441.524666 
C 540.2408 417.26187 546.40801 390.607515 546.408 363.599934 
L 369 363.6 
z
" style="fill: #9edae5; stroke: #ffffff; stroke-linejoin: miter"/>
   </g>
   <g id="matplotlib.axis_1"/>
   <g id="matplotlib.axis_2"/>
  </g>
 </g>
</svg>
