<?xml version="1.0" encoding="utf-8" standalone="no"?>
<!DOCTYPE svg PUBLIC "-//W3C//DTD SVG 1.1//EN"
  "http://www.w3.org/Graphics/SVG/1.1/DTD/svg11.dtd">
<svg xmlns:xlink="http://www.w3.org/1999/xlink" width="720pt" height="720pt" viewBox="0 0 720 720" xmlns="http://www.w3.org/2000/svg" version="1.1">
 <metadata>
  <rdf:RDF xmlns:dc="http://purl.org/dc/elements/1.1/" xmlns:cc="http://creativecommons.org/ns#" xmlns:rdf="http://www.w3.org/1999/02/22-rdf-syntax-ns#">
   <cc:Work>
    <dc:type rdf:resource="http://purl.org/dc/dcmitype/StillImage"/>
    <dc:date>2024-02-23T18:45:31.245401</dc:date>
    <dc:format>image/svg+xml</dc:format>
    <dc:creator>
     <cc:Agent>
      <dc:title>Matplotlib v3.8.2, https://matplotlib.org/</dc:title>
     </cc:Agent>
    </dc:creator>
   </cc:Work>
  </rdf:RDF>
 </metadata>
 <defs>
  <style type="text/css">*{stroke-linejoin: round; stroke-linecap: butt}</style>
 </defs>
 <g id="figure_1">
  <g id="patch_1">
   <path d="M 0 720 
L 720 720 
L 720 0 
L 0 0 
L 0 720 
z
" style="fill: none"/>
  </g>
  <g id="axes_1">
   <g id="patch_2">
    <path d="M 590.76 363.6 
C 590.76 336.089276 585.640682 308.817227 575.663983 283.179259 
C 565.687284 257.541291 551.026313 233.982258 532.431216 213.707588 
C 513.836119 193.432917 491.629546 176.7944 466.947724 164.643369 
C 442.265901 152.492337 415.537093 145.039627 388.12891 142.666566 
C 360.720727 140.293504 333.108738 143.041267 306.705746 150.769261 
C 280.302753 158.497255 255.566884 171.07139 233.763778 187.848295 
C 211.960673 204.625199 193.468646 225.313771 179.233863 248.855455 
C 164.99908 272.397138 155.268534 298.383454 150.540101 325.484779 
C 145.811668 352.586104 146.167392 380.332195 151.589073 407.303389 
C 157.010753 434.274583 167.404316 460.002893 182.237963 483.171899 
C 197.07161 506.340905 216.087956 526.548594 238.314007 542.761014 
C 260.540059 558.973434 285.590163 570.909278 312.182601 577.957834 
C 338.77504 585.006389 366.448397 587.045355 393.786733 583.970405 
C 421.125069 580.895455 447.654025 572.759943 472.016217 559.980133 
C 496.378408 547.200323 518.151118 529.997962 536.220317 509.253229 
C 554.289517 488.508496 568.341682 464.581341 577.657817 438.696026 
L 535.926253 423.67682 
C 528.473346 444.385073 517.231614 463.526797 502.776254 480.122583 
C 488.320894 496.718369 470.902727 510.480258 451.412974 520.704106 
C 431.92322 530.927954 410.700055 537.436364 388.829386 539.896324 
C 366.958718 542.356284 344.820032 540.725112 323.546081 535.086267 
C 302.27213 529.447422 282.232047 519.898747 264.451206 506.928811 
C 246.670365 493.958875 231.457288 477.792724 219.59037 459.25752 
C 207.723453 440.722315 199.408602 420.139666 195.071258 398.562711 
C 190.733914 376.985756 190.449334 354.788884 194.232081 333.107823 
C 198.014827 311.426763 205.799264 290.637711 217.18709 271.804364 
C 228.574916 252.971017 243.368539 236.420159 260.811023 222.998636 
C 278.253507 209.577112 298.042202 199.517804 319.164596 193.335409 
C 340.286991 187.153013 362.376581 184.954803 384.303128 186.853253 
C 406.229674 188.751702 427.612721 194.71387 447.358179 204.434695 
C 467.103637 214.15552 484.868895 227.466333 499.744973 243.68607 
C 514.62105 259.905807 526.349827 278.753033 534.331187 299.263407 
C 542.312546 319.773781 546.408 341.591421 546.408 363.6 
L 590.76 363.6 
z
" style="fill: none; opacity: 0"/>
   </g>
   <g id="patch_3">
    <path d="M 577.657817 438.696026 
C 581.984372 426.67449 585.263939 414.301508 587.459896 401.715239 
C 589.655854 389.12897 590.759998 376.376436 590.76 363.600036 
L 546.408 363.600029 
C 546.407998 373.821149 545.524683 384.023176 543.767917 394.092191 
C 542.011151 404.161206 539.387498 414.059592 535.926253 423.67682 
z
" style="stroke: #ffffff; stroke-linejoin: miter"/>
   </g>
   <g id="patch_4">
    <path d="M 546.408 363.6 
C 546.408 340.302995 541.818998 317.232524 532.90362 295.708898 
C 523.988242 274.185271 510.91987 254.62707 494.4464 238.1536 
C 477.97293 221.68013 458.414729 208.611758 436.891102 199.69638 
C 415.367476 190.781002 392.297005 186.192 369 186.192 
C 345.702995 186.192 322.632524 190.781002 301.108898 199.69638 
C 279.585271 208.611758 260.02707 221.68013 243.5536 238.1536 
C 227.08013 254.62707 214.011758 274.185271 205.09638 295.708898 
C 196.181002 317.232524 191.592 340.302995 191.592 363.6 
C 191.592 386.897005 196.181002 409.967476 205.09638 431.491102 
C 214.011758 453.014729 227.08013 472.57293 243.5536 489.0464 
C 260.02707 505.51987 279.585271 518.588242 301.108898 527.50362 
C 322.632524 536.418998 345.702995 541.008 369 541.008 
C 392.297005 541.008 415.367476 536.418998 436.891102 527.50362 
C 458.414729 518.588242 477.97293 505.51987 494.4464 489.0464 
C 510.91987 472.57293 523.988242 453.014729 532.90362 431.491102 
C 541.818998 409.967476 546.408 386.897005 546.408 363.6 
M 369 363.6 
z
" style="fill: #d62728; stroke: #ffffff; stroke-linejoin: miter"/>
   </g>
   <g id="matplotlib.axis_1"/>
   <g id="matplotlib.axis_2"/>
  </g>
 </g>
</svg>
