<?xml version="1.0" encoding="utf-8" standalone="no"?>
<!DOCTYPE svg PUBLIC "-//W3C//DTD SVG 1.1//EN"
  "http://www.w3.org/Graphics/SVG/1.1/DTD/svg11.dtd">
<svg xmlns:xlink="http://www.w3.org/1999/xlink" width="720pt" height="720pt" viewBox="0 0 720 720" xmlns="http://www.w3.org/2000/svg" version="1.1">
 <metadata>
  <rdf:RDF xmlns:dc="http://purl.org/dc/elements/1.1/" xmlns:cc="http://creativecommons.org/ns#" xmlns:rdf="http://www.w3.org/1999/02/22-rdf-syntax-ns#">
   <cc:Work>
    <dc:type rdf:resource="http://purl.org/dc/dcmitype/StillImage"/>
    <dc:date>2024-02-23T18:45:32.045873</dc:date>
    <dc:format>image/svg+xml</dc:format>
    <dc:creator>
     <cc:Agent>
      <dc:title>Matplotlib v3.8.2, https://matplotlib.org/</dc:title>
     </cc:Agent>
    </dc:creator>
   </cc:Work>
  </rdf:RDF>
 </metadata>
 <defs>
  <style type="text/css">*{stroke-linejoin: round; stroke-linecap: butt}</style>
 </defs>
 <g id="figure_1">
  <g id="patch_1">
   <path d="M 0 720 
L 720 720 
L 720 0 
L 0 0 
L 0 720 
z
" style="fill: none"/>
  </g>
  <g id="axes_1">
   <g id="patch_2">
    <path d="M 590.76 363.6 
C 590.76 335.160142 585.289048 306.984005 574.645993 280.610706 
C 564.002939 254.237406 548.385167 230.156061 528.645796 209.682108 
C 508.906424 189.208155 485.411538 172.721303 459.444539 161.122142 
C 433.477541 149.522981 405.520012 143.026629 377.099128 141.987948 
C 348.678243 140.949266 320.321094 145.387518 293.576683 155.060265 
C 266.832273 164.733013 242.196601 179.460865 221.015385 198.439317 
C 199.834169 217.417769 182.500235 240.294847 169.960445 265.820897 
C 157.420655 291.346946 149.907571 319.048563 147.831593 347.412551 
C 145.755616 375.77654 149.155246 404.276865 157.84478 431.356701 
C 166.534313 458.436538 180.352595 483.593665 198.544804 505.453882 
C 216.737013 527.314098 238.965758 545.471986 264.016799 558.935673 
C 289.067841 572.399361 316.476583 580.919152 344.745829 584.029655 
C 373.015076 587.140158 401.620548 584.783686 428.999678 577.088961 
C 456.378807 569.394235 482.023823 556.503962 504.533872 539.12227 
C 527.043921 521.740577 546.001533 500.189825 560.371154 475.647218 
C 574.740774 451.104611 584.255905 424.025315 588.396783 395.88853 
L 544.517426 389.430824 
C 541.204724 411.940252 533.592619 433.603689 522.096923 453.237774 
C 510.601227 472.87186 495.435137 490.112462 477.427098 504.017816 
C 459.419058 517.92317 438.903046 528.235388 416.999742 534.391168 
C 395.096438 540.546949 372.212061 542.432127 349.596663 539.943724 
C 326.981266 537.455321 305.054272 530.639489 285.01344 519.868539 
C 264.972607 509.097588 247.189611 494.571279 232.635843 477.083105 
C 218.082076 459.594932 207.027451 439.46923 200.075824 417.805361 
C 193.124197 396.141492 190.404493 373.341232 192.065275 350.650041 
C 193.726057 327.95885 199.736524 305.797557 209.768356 285.376717 
C 219.800188 264.955878 233.667335 246.654215 250.612308 231.471454 
C 267.55728 216.288692 287.265818 204.50641 308.661347 196.768212 
C 330.056875 189.030014 352.742594 185.479413 375.479302 186.310358 
C 398.21601 187.141303 420.582032 192.338385 441.355631 201.617714 
C 462.12923 210.897042 480.925139 224.086524 496.716637 240.465686 
C 512.508134 256.844849 525.002351 276.109925 533.516795 297.208565 
C 542.031238 318.307204 546.408 340.848113 546.408 363.6 
L 590.76 363.6 
z
" style="fill: none; opacity: 0"/>
   </g>
   <g id="patch_3">
    <path d="M 588.396783 395.88853 
C 589.183207 390.544872 589.774142 385.174265 590.168406 379.787456 
C 590.56267 374.400648 590.76 369.001233 590.76 363.600016 
L 546.408 363.600012 
C 546.408 367.920986 546.250136 372.240518 545.934725 376.549965 
C 545.619314 380.859412 545.146566 385.155897 544.517426 389.430824 
z
" style="stroke: #ffffff; stroke-linejoin: miter"/>
   </g>
   <g id="patch_4">
    <path d="M 546.408 363.6 
C 546.408 340.302995 541.818998 317.232524 532.90362 295.708898 
C 523.988242 274.185271 510.91987 254.62707 494.4464 238.1536 
C 477.97293 221.68013 458.414729 208.611758 436.891102 199.69638 
C 415.367476 190.781002 392.297005 186.192 369 186.192 
C 345.702995 186.192 322.632524 190.781002 301.108898 199.69638 
C 279.585271 208.611758 260.02707 221.68013 243.5536 238.1536 
C 227.08013 254.62707 214.011758 274.185271 205.09638 295.708898 
C 196.181002 317.232524 191.592 340.302995 191.592 363.6 
C 191.592 386.897005 196.181002 409.967476 205.09638 431.491102 
C 214.011758 453.014729 227.08013 472.57293 243.5536 489.0464 
C 260.02707 505.51987 279.585271 518.588242 301.108898 527.50362 
C 322.632524 536.418998 345.702995 541.008 369 541.008 
C 392.297005 541.008 415.367476 536.418998 436.891102 527.50362 
C 458.414729 518.588242 477.97293 505.51987 494.4464 489.0464 
C 510.91987 472.57293 523.988242 453.014729 532.90362 431.491102 
C 541.818998 409.967476 546.408 386.897005 546.408 363.6 
M 369 363.6 
z
" style="fill: #9edae5; stroke: #ffffff; stroke-linejoin: miter"/>
   </g>
   <g id="matplotlib.axis_1"/>
   <g id="matplotlib.axis_2"/>
  </g>
 </g>
</svg>
