<?xml version="1.0" encoding="utf-8" standalone="no"?>
<!DOCTYPE svg PUBLIC "-//W3C//DTD SVG 1.1//EN"
  "http://www.w3.org/Graphics/SVG/1.1/DTD/svg11.dtd">
<svg xmlns:xlink="http://www.w3.org/1999/xlink" width="720pt" height="720pt" viewBox="0 0 720 720" xmlns="http://www.w3.org/2000/svg" version="1.1">
 <metadata>
  <rdf:RDF xmlns:dc="http://purl.org/dc/elements/1.1/" xmlns:cc="http://creativecommons.org/ns#" xmlns:rdf="http://www.w3.org/1999/02/22-rdf-syntax-ns#">
   <cc:Work>
    <dc:type rdf:resource="http://purl.org/dc/dcmitype/StillImage"/>
    <dc:date>2024-02-23T18:45:32.649710</dc:date>
    <dc:format>image/svg+xml</dc:format>
    <dc:creator>
     <cc:Agent>
      <dc:title>Matplotlib v3.8.2, https://matplotlib.org/</dc:title>
     </cc:Agent>
    </dc:creator>
   </cc:Work>
  </rdf:RDF>
 </metadata>
 <defs>
  <style type="text/css">*{stroke-linejoin: round; stroke-linecap: butt}</style>
 </defs>
 <g id="figure_1">
  <g id="patch_1">
   <path d="M 0 720 
L 720 720 
L 720 0 
L 0 0 
L 0 720 
z
" style="fill: none"/>
  </g>
  <g id="axes_1">
   <g id="patch_2">
    <path d="M 590.76 363.6 
C 590.76 334.943857 585.205518 306.557507 574.404525 280.014842 
C 563.603532 253.472176 547.759407 229.272986 527.750632 208.759003 
C 507.741858 188.24502 483.945195 171.802517 457.680055 160.343154 
C 431.414916 148.883791 403.175866 142.623344 374.52863 141.908927 
C 345.881393 141.19451 317.36539 146.039573 290.561698 156.175483 
C 263.758006 166.311392 239.171333 181.54729 218.164893 201.038417 
C 197.158454 220.529545 180.127794 243.908889 168.017185 269.880175 
C 155.906575 295.851461 148.944056 323.925655 147.515665 352.546177 
C 146.087274 381.166699 150.219909 409.794629 159.684433 436.842685 
C 169.148957 463.890742 183.767157 488.849614 202.728521 510.335452 
C 221.689885 531.82129 244.637377 549.429519 270.298664 562.183846 
C 295.959952 574.938173 323.85184 582.598438 352.427855 584.739914 
C 381.00387 586.88139 409.725933 583.463755 437.001539 574.676499 
C 464.277145 565.889243 489.592702 551.897829 511.544581 533.478015 
C 533.496461 515.058201 551.671314 492.556828 565.06143 467.22149 
C 578.451547 441.886152 586.804795 414.193909 589.658025 385.680164 
L 545.52642 381.264131 
C 543.243836 404.075127 536.561238 426.228922 525.849144 446.497192 
C 515.137051 466.765462 500.597168 484.766561 483.035665 499.502412 
C 465.474161 514.238263 445.221716 525.431394 423.401231 532.461199 
C 401.580746 539.491004 378.603096 542.225112 355.742284 540.511931 
C 332.881472 538.79875 310.567962 532.670539 290.038931 522.467077 
C 269.509901 512.263615 251.151908 498.177032 235.982817 480.988362 
C 220.813725 463.799691 209.119166 443.832593 201.547546 422.194148 
C 193.975927 400.555704 190.669819 377.653359 191.812532 354.756942 
C 192.955245 331.860524 198.52526 309.401169 208.213748 288.62414 
C 217.902235 267.847111 231.526763 249.143636 248.331915 233.550734 
C 265.137066 217.957832 284.806405 205.769114 306.249358 197.660386 
C 327.692312 189.551659 350.505115 185.675608 373.422904 186.247142 
C 396.340693 186.818676 418.931932 191.827033 439.944044 200.994523 
C 460.956156 210.162014 479.993486 223.316016 496.000506 239.727202 
C 512.007525 256.138389 524.682825 275.497741 533.32362 296.731873 
C 541.964415 317.966006 546.408 340.675085 546.408 363.6 
L 590.76 363.6 
z
" style="fill: none; opacity: 0"/>
   </g>
   <g id="patch_3">
    <path d="M 589.658025 385.680164 
C 590.025064 382.012156 590.300587 378.335566 590.484335 374.653822 
C 590.668083 370.972077 590.76 367.286324 590.76 363.599997 
L 546.408 363.599998 
C 546.408 366.549059 546.334467 369.497662 546.187468 372.443057 
C 546.040469 375.388453 545.820052 378.329725 545.52642 381.264131 
z
" style="stroke: #ffffff; stroke-linejoin: miter"/>
   </g>
   <g id="patch_4">
    <path d="M 546.408 363.6 
C 546.408 340.302995 541.818998 317.232524 532.90362 295.708898 
C 523.988242 274.185271 510.91987 254.62707 494.4464 238.1536 
C 477.97293 221.68013 458.414729 208.611758 436.891102 199.69638 
C 415.367476 190.781002 392.297005 186.192 369 186.192 
C 345.702995 186.192 322.632524 190.781002 301.108898 199.69638 
C 279.585271 208.611758 260.02707 221.68013 243.5536 238.1536 
C 227.08013 254.62707 214.011758 274.185271 205.09638 295.708898 
C 196.181002 317.232524 191.592 340.302995 191.592 363.6 
C 191.592 386.897005 196.181002 409.967476 205.09638 431.491102 
C 214.011758 453.014729 227.08013 472.57293 243.5536 489.0464 
C 260.02707 505.51987 279.585271 518.588242 301.108898 527.50362 
C 322.632524 536.418998 345.702995 541.008 369 541.008 
C 392.297005 541.008 415.367476 536.418998 436.891102 527.50362 
C 458.414729 518.588242 477.97293 505.51987 494.4464 489.0464 
C 510.91987 472.57293 523.988242 453.014729 532.90362 431.491102 
C 541.818998 409.967476 546.408 386.897005 546.408 363.6 
M 369 363.6 
z
" style="fill: #d62728; stroke: #ffffff; stroke-linejoin: miter"/>
   </g>
   <g id="matplotlib.axis_1"/>
   <g id="matplotlib.axis_2"/>
  </g>
 </g>
</svg>
