<?xml version="1.0" encoding="utf-8" standalone="no"?>
<!DOCTYPE svg PUBLIC "-//W3C//DTD SVG 1.1//EN"
  "http://www.w3.org/Graphics/SVG/1.1/DTD/svg11.dtd">
<svg xmlns:xlink="http://www.w3.org/1999/xlink" width="720pt" height="720pt" viewBox="0 0 720 720" xmlns="http://www.w3.org/2000/svg" version="1.1">
 <metadata>
  <rdf:RDF xmlns:dc="http://purl.org/dc/elements/1.1/" xmlns:cc="http://creativecommons.org/ns#" xmlns:rdf="http://www.w3.org/1999/02/22-rdf-syntax-ns#">
   <cc:Work>
    <dc:type rdf:resource="http://purl.org/dc/dcmitype/StillImage"/>
    <dc:date>2024-02-23T18:45:32.265176</dc:date>
    <dc:format>image/svg+xml</dc:format>
    <dc:creator>
     <cc:Agent>
      <dc:title>Matplotlib v3.8.2, https://matplotlib.org/</dc:title>
     </cc:Agent>
    </dc:creator>
   </cc:Work>
  </rdf:RDF>
 </metadata>
 <defs>
  <style type="text/css">*{stroke-linejoin: round; stroke-linecap: butt}</style>
 </defs>
 <g id="figure_1">
  <g id="patch_1">
   <path d="M 0 720 
L 720 720 
L 720 0 
L 0 0 
L 0 720 
z
" style="fill: none"/>
  </g>
  <g id="axes_1">
   <g id="patch_2">
    <path d="M 590.76 363.6 
C 590.76 335.455323 585.402026 307.56623 574.972807 281.425185 
C 564.543588 255.28414 549.23254 231.36592 529.859024 210.950493 
C 510.485507 190.535065 487.401386 173.993217 461.84199 162.210173 
C 436.282594 150.427129 408.712137 143.616895 380.606031 142.143915 
C 352.499926 140.670935 324.368638 144.561962 297.717596 153.608771 
C 271.066553 162.655579 246.379793 176.69386 224.978412 194.972364 
C 203.577031 213.250868 185.849721 235.437619 172.745149 260.345309 
C 159.640577 285.252999 151.396749 312.429252 148.454827 340.419749 
C 145.512904 368.410246 147.92632 396.706621 155.565921 423.794613 
C 163.205522 450.882605 175.932557 476.27024 193.065949 498.598915 
C 210.19934 520.92759 231.427908 539.791771 255.615622 554.181952 
C 279.803336 568.572134 306.510896 578.226961 334.309064 582.629762 
C 362.107233 587.032563 390.491137 586.103374 417.941832 579.89192 
C 445.392528 573.680466 471.411452 562.29956 494.606219 546.358243 
C 517.800987 530.416926 537.750333 510.204726 553.386681 486.803285 
C 569.023029 463.401844 580.062392 437.236181 585.914004 409.706534 
L 542.531203 400.485228 
C 537.849913 422.508945 529.018424 443.441475 516.509345 462.162628 
C 504.000266 480.883781 488.040789 497.053541 469.484975 509.806594 
C 450.929161 522.559648 430.114022 531.664373 408.153466 536.633536 
C 386.19291 541.602699 363.485786 542.34605 341.247251 538.823809 
C 319.008717 535.301569 297.642669 527.577707 278.292498 516.065562 
C 258.942327 504.553417 241.959472 489.462072 228.252759 471.599132 
C 214.546046 453.736192 204.364418 433.426084 198.252737 411.755691 
C 192.141056 390.085297 190.210323 367.448197 192.563861 345.055799 
C 194.917399 322.663401 201.512462 300.922399 211.99612 280.996247 
C 222.479777 261.070095 236.661624 243.320694 253.782729 228.697891 
C 270.903834 214.075088 290.653242 202.844463 311.974077 195.607016 
C 333.294911 188.36957 355.799941 185.256748 378.284825 186.435132 
C 400.769709 187.613516 422.826075 193.061703 443.273592 202.488138 
C 463.721109 211.914573 482.188406 225.148052 497.687219 241.480394 
C 513.186032 257.812736 525.434871 276.947312 533.778246 297.860148 
C 542.121621 318.772984 546.408 341.084259 546.408 363.6 
L 590.76 363.6 
z
" style="fill: none; opacity: 0"/>
   </g>
   <g id="patch_3">
    <path d="M 585.914004 409.706534 
C 587.523793 402.133078 588.735843 394.480507 589.545172 386.780269 
C 590.3545 379.080032 590.759999 371.342689 590.76 363.600036 
L 546.408 363.600029 
C 546.407999 369.794151 546.0836 375.984025 545.436137 382.144215 
C 544.788674 388.304406 543.819035 394.426462 542.531203 400.485228 
z
" style="stroke: #ffffff; stroke-linejoin: miter"/>
   </g>
   <g id="patch_4">
    <path d="M 546.408 363.6 
C 546.408 340.302995 541.818998 317.232524 532.90362 295.708898 
C 523.988242 274.185271 510.91987 254.62707 494.4464 238.1536 
C 477.97293 221.68013 458.414729 208.611758 436.891102 199.69638 
C 415.367476 190.781002 392.297005 186.192 369 186.192 
C 345.702995 186.192 322.632524 190.781002 301.108898 199.69638 
C 279.585271 208.611758 260.02707 221.68013 243.5536 238.1536 
C 227.08013 254.62707 214.011758 274.185271 205.09638 295.708898 
C 196.181002 317.232524 191.592 340.302995 191.592 363.6 
C 191.592 386.897005 196.181002 409.967476 205.09638 431.491102 
C 214.011758 453.014729 227.08013 472.57293 243.5536 489.0464 
C 260.02707 505.51987 279.585271 518.588242 301.108898 527.50362 
C 322.632524 536.418998 345.702995 541.008 369 541.008 
C 392.297005 541.008 415.367476 536.418998 436.891102 527.50362 
C 458.414729 518.588242 477.97293 505.51987 494.4464 489.0464 
C 510.91987 472.57293 523.988242 453.014729 532.90362 431.491102 
C 541.818998 409.967476 546.408 386.897005 546.408 363.6 
M 369 363.6 
z
" style="fill: #c5b0d5; stroke: #ffffff; stroke-linejoin: miter"/>
   </g>
   <g id="matplotlib.axis_1"/>
   <g id="matplotlib.axis_2"/>
  </g>
 </g>
</svg>
