<?xml version="1.0" encoding="utf-8" standalone="no"?>
<!DOCTYPE svg PUBLIC "-//W3C//DTD SVG 1.1//EN"
  "http://www.w3.org/Graphics/SVG/1.1/DTD/svg11.dtd">
<svg xmlns:xlink="http://www.w3.org/1999/xlink" width="720pt" height="720pt" viewBox="0 0 720 720" xmlns="http://www.w3.org/2000/svg" version="1.1">
 <metadata>
  <rdf:RDF xmlns:dc="http://purl.org/dc/elements/1.1/" xmlns:cc="http://creativecommons.org/ns#" xmlns:rdf="http://www.w3.org/1999/02/22-rdf-syntax-ns#">
   <cc:Work>
    <dc:type rdf:resource="http://purl.org/dc/dcmitype/StillImage"/>
    <dc:date>2024-02-23T18:45:32.532410</dc:date>
    <dc:format>image/svg+xml</dc:format>
    <dc:creator>
     <cc:Agent>
      <dc:title>Matplotlib v3.8.2, https://matplotlib.org/</dc:title>
     </cc:Agent>
    </dc:creator>
   </cc:Work>
  </rdf:RDF>
 </metadata>
 <defs>
  <style type="text/css">*{stroke-linejoin: round; stroke-linecap: butt}</style>
 </defs>
 <g id="figure_1">
  <g id="patch_1">
   <path d="M 0 720 
L 720 720 
L 720 0 
L 0 0 
L 0 720 
z
" style="fill: none"/>
  </g>
  <g id="axes_1">
   <g id="patch_2">
    <path d="M 590.76 363.6 
C 590.76 334.95918 585.211457 306.587721 574.421689 280.057032 
C 563.63192 253.526343 547.803877 229.335456 527.814226 208.824229 
C 507.824575 188.313002 484.049314 171.867244 457.805281 160.397836 
C 431.561249 148.928427 403.342085 142.651102 374.710764 141.913544 
C 346.079442 141.175986 317.574506 145.992066 290.774758 156.095038 
C 263.975009 166.19801 239.38454 181.397841 218.365343 200.852657 
C 197.346145 220.307474 180.29358 243.651339 168.152139 269.591308 
C 156.010697 295.531276 149.008755 323.579428 147.534127 352.18226 
C 146.0595 380.785093 150.139924 409.404599 159.549398 436.455632 
C 168.958873 463.506664 183.520408 488.480404 202.427487 509.993632 
C 221.334565 531.506859 244.231551 549.15492 269.85025 561.96034 
C 295.468949 574.765761 323.327485 582.487678 351.882857 584.698397 
C 380.43823 586.909116 409.153324 583.567054 436.437698 574.857318 
C 463.722072 566.147583 489.062518 552.234 511.055506 533.887201 
C 533.048494 515.540402 551.280345 493.105482 564.741252 467.825044 
C 578.202159 442.544606 586.638928 414.894164 589.584271 386.405192 
L 545.467417 381.844154 
C 543.111142 404.635331 536.361727 426.755685 525.593002 446.980035 
C 514.824276 467.204386 500.238796 485.152321 482.644405 499.829761 
C 465.050015 514.5072 444.777658 525.638066 422.950158 532.605855 
C 401.122659 539.573643 378.150584 542.247292 355.306286 540.478717 
C 332.461988 538.710142 310.17516 532.532609 289.6802 522.288272 
C 269.18524 512.043936 250.867652 497.925487 235.741989 480.714905 
C 220.616327 463.504323 208.967098 443.525331 201.439519 421.884505 
C 193.911939 400.243679 190.6476 377.348074 191.827302 354.465808 
C 193.007004 331.583542 198.608558 309.145021 208.321711 288.393046 
C 218.034864 267.641071 231.676916 248.965979 248.492274 233.402126 
C 265.307632 217.838273 284.980007 205.678408 306.419806 197.596031 
C 327.859605 189.513653 350.663554 185.660788 373.568611 186.250835 
C 396.473668 186.840882 419.048999 191.862742 440.044225 201.038268 
C 461.039451 210.213795 480.05966 223.370402 496.051381 239.779383 
C 512.043101 256.188365 524.705536 275.541075 533.337351 296.765626 
C 541.969166 317.990177 546.408 340.687344 546.408 363.6 
L 590.76 363.6 
z
" style="fill: none; opacity: 0"/>
   </g>
   <g id="patch_3">
    <path d="M 589.584271 386.405192 
C 589.975856 382.617575 590.26982 378.820501 590.465872 375.017746 
C 590.661925 371.214992 590.76 367.407818 590.76 363.600013 
L 546.408 363.60001 
C 546.408 366.646254 546.32954 369.691993 546.172698 372.734197 
C 546.015856 375.776401 545.780685 378.81406 545.467417 381.844154 
z
" style="stroke: #ffffff; stroke-linejoin: miter"/>
   </g>
   <g id="patch_4">
    <path d="M 546.408 363.6 
C 546.408 334.116585 539.058232 305.09301 525.025677 279.163121 
C 510.993122 253.233232 490.715498 231.205862 466.032971 215.079964 
C 441.350443 198.954066 413.032936 189.232656 383.650222 186.797937 
C 354.267508 184.363218 324.736124 189.291138 297.736 201.134493 
L 369 363.6 
z
" style="fill: #d62728; stroke: #ffffff; stroke-linejoin: miter"/>
   </g>
   <g id="patch_5">
    <path d="M 297.736 201.134493 
C 275.270632 210.988721 255.091471 225.396367 238.476683 243.444841 
C 221.861895 261.493315 209.169843 282.793329 201.204452 305.995724 
C 193.239061 329.198119 190.172136 353.802443 192.197938 378.250239 
C 194.223741 402.698034 201.298576 426.461988 212.974319 448.036872 
L 369 363.6 
z
" style="fill: #98df8a; stroke: #ffffff; stroke-linejoin: miter"/>
   </g>
   <g id="patch_6">
    <path d="M 212.974319 448.036872 
C 222.303061 465.274878 234.424372 480.848339 248.844829 494.123305 
C 263.265285 507.398271 279.786525 518.192136 297.736016 526.065513 
L 369 363.6 
z
" style="fill: #1f77b4; stroke: #ffffff; stroke-linejoin: miter"/>
   </g>
   <g id="patch_7">
    <path d="M 297.736016 526.065513 
C 324.73614 537.908867 354.267525 542.836783 383.650239 540.402062 
C 413.032953 537.96734 441.350459 528.245927 466.032985 512.120027 
C 490.715511 495.994126 510.993132 473.966755 525.025685 448.036865 
C 539.058238 422.106974 546.408003 393.083398 546.408 363.599983 
L 369 363.6 
z
" style="fill: #9edae5; stroke: #ffffff; stroke-linejoin: miter"/>
   </g>
   <g id="matplotlib.axis_1"/>
   <g id="matplotlib.axis_2"/>
  </g>
 </g>
</svg>
