<?xml version="1.0" encoding="utf-8" standalone="no"?>
<!DOCTYPE svg PUBLIC "-//W3C//DTD SVG 1.1//EN"
  "http://www.w3.org/Graphics/SVG/1.1/DTD/svg11.dtd">
<svg xmlns:xlink="http://www.w3.org/1999/xlink" width="720pt" height="720pt" viewBox="0 0 720 720" xmlns="http://www.w3.org/2000/svg" version="1.1">
 <metadata>
  <rdf:RDF xmlns:dc="http://purl.org/dc/elements/1.1/" xmlns:cc="http://creativecommons.org/ns#" xmlns:rdf="http://www.w3.org/1999/02/22-rdf-syntax-ns#">
   <cc:Work>
    <dc:type rdf:resource="http://purl.org/dc/dcmitype/StillImage"/>
    <dc:date>2024-02-23T18:45:31.303469</dc:date>
    <dc:format>image/svg+xml</dc:format>
    <dc:creator>
     <cc:Agent>
      <dc:title>Matplotlib v3.8.2, https://matplotlib.org/</dc:title>
     </cc:Agent>
    </dc:creator>
   </cc:Work>
  </rdf:RDF>
 </metadata>
 <defs>
  <style type="text/css">*{stroke-linejoin: round; stroke-linecap: butt}</style>
 </defs>
 <g id="figure_1">
  <g id="patch_1">
   <path d="M 0 720 
L 720 720 
L 720 0 
L 0 0 
L 0 720 
z
" style="fill: none"/>
  </g>
  <g id="axes_1">
   <g id="patch_2">
    <path d="M 590.76 363.6 
C 590.76 339.247361 586.748562 315.060197 578.887038 292.011391 
C 571.025514 268.962585 559.420741 247.365367 544.539501 228.088446 
C 529.65826 208.811524 511.702785 192.11687 491.395302 178.675995 
C 471.087818 165.235119 448.704302 155.230682 425.145089 149.065092 
C 401.585876 142.899503 377.171132 140.656551 352.882895 142.426456 
C 328.594658 144.196361 304.763002 149.955069 282.34651 159.470947 
C 259.930019 168.986825 239.23333 182.130554 221.088928 198.373451 
C 202.944527 214.616349 187.598993 233.737676 175.669573 254.968313 
C 163.740152 276.19895 155.388965 299.250375 150.95192 323.195389 
C 146.514876 347.140402 146.052275 371.653593 149.582723 395.748965 
C 153.113171 419.844338 160.58869 443.194437 171.708592 464.860051 
C 182.828494 486.525664 197.44166 506.212358 214.960304 523.128272 
C 232.478947 540.044186 252.664992 553.959435 274.706492 564.314304 
C 296.747992 574.669173 320.345405 581.322941 344.54957 584.007972 
C 368.753736 586.693003 393.235722 585.372808 417.010786 580.10049 
C 440.785851 574.828171 463.530893 565.675379 484.331037 553.010268 
L 461.264829 515.128214 
C 444.624714 525.260303 426.42868 532.582537 407.408629 536.800392 
C 388.388577 541.018246 368.802989 542.074402 349.439656 539.926378 
C 330.076324 537.778353 311.198393 532.455339 293.565193 524.171443 
C 275.931994 515.887548 259.783158 504.755349 245.768243 491.222618 
C 231.753328 477.689886 220.062795 461.940531 211.166873 444.608041 
C 202.270952 427.27555 196.290536 408.59547 193.466178 389.319172 
C 190.64182 370.042874 191.011901 350.432322 194.561536 331.276311 
C 198.111172 312.1203 204.792122 293.67916 214.335658 276.69465 
C 223.879194 259.71014 236.155621 244.413079 250.671143 231.418761 
C 265.186664 218.424443 281.744015 207.90946 299.677208 200.296758 
C 317.610401 192.684055 336.675726 188.077089 356.106316 186.661165 
C 375.536906 185.245241 395.0687 187.039602 413.916071 191.972074 
C 432.763442 196.904545 450.670254 204.908095 466.916241 215.660796 
C 483.162228 226.413496 497.526608 239.769219 509.4316 255.190757 
C 521.336593 270.612294 530.620411 287.890068 536.90963 306.329113 
C 543.198849 324.768158 546.408 344.117889 546.408 363.6 
L 590.76 363.6 
z
" style="fill: none; opacity: 0"/>
   </g>
   <g id="patch_3">
    <path d="M 484.331037 553.010268 
C 516.828115 533.222947 543.692506 505.401355 562.330422 472.231696 
C 580.968339 439.062038 590.759996 401.647336 590.76 363.600021 
L 546.408 363.600017 
C 546.407997 394.037868 538.574671 423.96963 523.664338 450.505357 
C 508.754005 477.041084 487.262492 499.298358 461.264829 515.128214 
z
" style="stroke: #ffffff; stroke-linejoin: miter"/>
   </g>
   <g id="patch_4">
    <path d="M 546.408 363.6 
C 546.408 339.701691 541.579053 316.047945 532.211715 294.061992 
C 522.844376 272.076038 509.130366 252.207864 491.894848 235.652922 
C 474.65933 219.097981 454.255062 206.195102 431.909756 197.720643 
C 409.564449 189.246184 385.735445 185.373592 361.856517 186.335878 
C 337.97759 187.298163 314.537468 193.075631 292.946529 203.320656 
C 271.35559 213.565681 252.055735 228.068577 236.208222 245.956716 
C 220.360709 263.844855 208.28989 284.752121 200.722056 307.420536 
C 193.154223 330.088952 190.244266 354.054565 192.167277 377.875379 
L 369 363.6 
z
" style="fill: #98df8a; stroke: #ffffff; stroke-linejoin: miter"/>
   </g>
   <g id="patch_5">
    <path d="M 192.167277 377.875379 
C 193.703831 396.909062 198.303438 415.570417 205.788274 433.137982 
C 213.27311 450.705546 223.545459 466.949973 236.208184 481.24324 
L 369 363.6 
z
" style="fill: #e377c2; stroke: #ffffff; stroke-linejoin: miter"/>
   </g>
   <g id="patch_6">
    <path d="M 236.208184 481.24324 
C 245.696291 491.953104 256.445302 501.4759 268.22074 509.603902 
C 279.996179 517.731904 292.711797 524.405578 306.090221 529.479348 
L 369 363.6 
z
" style="fill: #d62728; stroke: #ffffff; stroke-linejoin: miter"/>
   </g>
   <g id="patch_7">
    <path d="M 306.090221 529.479348 
C 332.94397 539.663638 361.873439 543.176319 390.384129 539.714501 
C 418.894819 536.252684 446.143016 525.918814 469.779191 509.603949 
C 493.415367 493.289084 512.740059 471.476029 526.086958 446.045655 
C 539.433857 420.615282 546.407991 392.320149 546.408 363.600058 
L 369 363.6 
z
" style="fill: #9edae5; stroke: #ffffff; stroke-linejoin: miter"/>
   </g>
   <g id="matplotlib.axis_1"/>
   <g id="matplotlib.axis_2"/>
  </g>
 </g>
</svg>
