<?xml version="1.0" encoding="utf-8" standalone="no"?>
<!DOCTYPE svg PUBLIC "-//W3C//DTD SVG 1.1//EN"
  "http://www.w3.org/Graphics/SVG/1.1/DTD/svg11.dtd">
<svg xmlns:xlink="http://www.w3.org/1999/xlink" width="720pt" height="720pt" viewBox="0 0 720 720" xmlns="http://www.w3.org/2000/svg" version="1.1">
 <metadata>
  <rdf:RDF xmlns:dc="http://purl.org/dc/elements/1.1/" xmlns:cc="http://creativecommons.org/ns#" xmlns:rdf="http://www.w3.org/1999/02/22-rdf-syntax-ns#">
   <cc:Work>
    <dc:type rdf:resource="http://purl.org/dc/dcmitype/StillImage"/>
    <dc:date>2024-02-23T18:45:32.391260</dc:date>
    <dc:format>image/svg+xml</dc:format>
    <dc:creator>
     <cc:Agent>
      <dc:title>Matplotlib v3.8.2, https://matplotlib.org/</dc:title>
     </cc:Agent>
    </dc:creator>
   </cc:Work>
  </rdf:RDF>
 </metadata>
 <defs>
  <style type="text/css">*{stroke-linejoin: round; stroke-linecap: butt}</style>
 </defs>
 <g id="figure_1">
  <g id="patch_1">
   <path d="M 0 720 
L 720 720 
L 720 0 
L 0 0 
L 0 720 
z
" style="fill: none"/>
  </g>
  <g id="axes_1">
   <g id="patch_2">
    <path d="M 590.76 363.6 
C 590.76 337.703096 586.22368 312.00523 577.357062 287.673508 
C 568.490445 263.341785 555.429824 240.750223 538.768368 220.924848 
C 522.106911 201.099474 502.10073 184.345034 479.658435 171.422456 
C 457.21614 158.499878 432.682703 149.607803 407.172347 145.150075 
C 381.66199 140.692348 355.566847 140.737492 330.072067 145.283455 
C 304.577286 149.829419 280.074762 158.806325 257.677312 171.806473 
C 235.279863 184.806622 215.33177 201.630181 198.739007 221.513084 
C 182.146244 241.395986 169.163866 264.032602 160.381487 288.394857 
C 151.599108 312.757111 147.151727 338.470519 147.241327 364.367267 
C 147.330928 390.264016 151.956133 415.946033 160.906883 440.246932 
C 169.857632 464.547831 182.996339 487.094071 199.72629 506.86168 
C 216.456241 526.629288 236.520271 543.314409 259.007143 556.159261 
C 281.494014 569.004113 306.05807 577.811252 331.583697 582.18069 
C 357.109324 586.550127 383.204154 586.414697 408.683053 581.780551 
C 434.161953 577.146405 458.633271 568.084777 480.985608 555.007213 
C 503.337944 541.92965 523.227709 525.037173 539.75158 505.09698 
L 505.601264 476.797584 
C 492.382168 492.749739 476.470355 506.26372 458.588486 516.725771 
C 440.706617 527.187821 421.129562 534.437124 400.746443 538.144441 
C 380.363323 541.851758 359.487459 541.960101 339.066957 538.464552 
C 318.646456 534.969002 298.995211 527.92329 281.005714 517.647409 
C 263.016217 507.371527 246.964993 494.023431 233.581032 478.209344 
C 220.197072 462.395257 209.686106 444.358265 202.525506 424.917546 
C 195.364907 405.476826 191.664742 384.931213 191.593062 364.213814 
C 191.521381 343.496415 195.079286 322.925689 202.105189 303.435885 
C 209.131093 283.946082 219.516995 265.836789 232.791206 249.930467 
C 246.065416 234.024145 262.02389 220.565297 279.94185 210.165179 
C 297.85981 199.76506 317.461829 192.583535 337.857654 188.946764 
C 358.253478 185.309993 379.129592 185.273879 399.537877 188.84006 
C 419.946163 192.406242 439.572912 199.519903 457.526748 209.857965 
C 475.480584 220.196027 491.485529 233.599579 504.814694 249.459878 
C 518.143859 265.320178 528.592356 283.393428 535.68565 302.858806 
C 542.778944 322.324184 546.408 342.882477 546.408 363.6 
L 590.76 363.6 
z
" style="fill: none; opacity: 0"/>
   </g>
   <g id="patch_3">
    <path d="M 539.75158 505.09698 
C 556.111035 485.355197 568.923521 462.924987 577.618513 438.805143 
C 586.313505 414.685299 590.76 389.239223 590.76 363.6 
L 546.408 363.6 
C 546.408 384.111379 542.850804 404.468239 535.894811 423.764115 
C 528.938817 443.05999 518.688828 461.004157 505.601264 476.797584 
z
" style="stroke: #ffffff; stroke-linejoin: miter"/>
   </g>
   <g id="patch_4">
    <path d="M 546.408 363.6 
C 546.408 318.49148 529.203771 275.038558 498.324863 242.155863 
C 467.445955 209.273168 425.159039 189.374458 380.13953 186.542073 
C 335.120021 183.709689 290.672582 198.151541 255.915873 226.904797 
C 221.159163 255.658053 198.644504 296.612076 192.990912 341.364903 
L 369 363.6 
z
" style="fill: #dbdb8d; stroke: #ffffff; stroke-linejoin: miter"/>
   </g>
   <g id="patch_5">
    <path d="M 192.990912 341.364903 
C 189.245888 371.009854 193.050446 401.12601 204.05022 428.908259 
C 215.049994 456.690507 232.892523 481.248636 255.915898 500.295224 
L 369 363.6 
z
" style="fill: #17becf; stroke: #ffffff; stroke-linejoin: miter"/>
   </g>
   <g id="patch_6">
    <path d="M 255.915898 500.295224 
C 267.382699 509.781385 279.9977 517.787106 293.463362 524.123565 
C 306.929025 530.460023 321.138644 535.077007 335.757071 537.865619 
L 369 363.6 
z
" style="fill: #c7c7c7; stroke: #ffffff; stroke-linejoin: miter"/>
   </g>
   <g id="patch_7">
    <path d="M 335.757071 537.865619 
C 361.408262 542.758844 387.826265 541.928622 413.119591 535.434398 
C 438.412916 528.940173 461.963149 516.940727 482.084127 500.295203 
C 502.205106 483.649679 518.404878 462.765054 529.523565 439.136638 
C 540.642251 415.508221 546.408002 389.71372 546.408 363.599983 
L 369 363.6 
z
" style="fill: #9edae5; stroke: #ffffff; stroke-linejoin: miter"/>
   </g>
   <g id="matplotlib.axis_1"/>
   <g id="matplotlib.axis_2"/>
  </g>
 </g>
</svg>
