<?xml version="1.0" encoding="utf-8" standalone="no"?>
<!DOCTYPE svg PUBLIC "-//W3C//DTD SVG 1.1//EN"
  "http://www.w3.org/Graphics/SVG/1.1/DTD/svg11.dtd">
<svg xmlns:xlink="http://www.w3.org/1999/xlink" width="720pt" height="720pt" viewBox="0 0 720 720" xmlns="http://www.w3.org/2000/svg" version="1.1">
 <metadata>
  <rdf:RDF xmlns:dc="http://purl.org/dc/elements/1.1/" xmlns:cc="http://creativecommons.org/ns#" xmlns:rdf="http://www.w3.org/1999/02/22-rdf-syntax-ns#">
   <cc:Work>
    <dc:type rdf:resource="http://purl.org/dc/dcmitype/StillImage"/>
    <dc:date>2024-02-23T18:45:31.713950</dc:date>
    <dc:format>image/svg+xml</dc:format>
    <dc:creator>
     <cc:Agent>
      <dc:title>Matplotlib v3.8.2, https://matplotlib.org/</dc:title>
     </cc:Agent>
    </dc:creator>
   </cc:Work>
  </rdf:RDF>
 </metadata>
 <defs>
  <style type="text/css">*{stroke-linejoin: round; stroke-linecap: butt}</style>
 </defs>
 <g id="figure_1">
  <g id="patch_1">
   <path d="M 0 720 
L 720 720 
L 720 0 
L 0 0 
L 0 720 
z
" style="fill: none"/>
  </g>
  <g id="axes_1">
   <g id="patch_2">
    <path d="M 590.76 363.6 
C 590.76 334.904652 585.19031 306.480209 574.360574 279.906917 
C 563.530839 253.333626 547.645539 229.113228 527.587813 208.592248 
C 507.530087 188.071268 483.678653 171.637172 457.359523 160.203608 
C 431.040393 148.770043 402.75051 142.552893 374.062641 141.897796 
C 345.374772 141.242699 316.830584 146.162026 290.016982 156.382287 
C 263.20338 166.602549 238.626643 181.930772 217.653107 201.51479 
C 196.67957 221.098807 179.705244 244.568845 167.67381 270.620095 
C 155.642376 296.671344 148.781006 324.81192 147.471154 353.477357 
C 146.161302 382.142794 150.4277 410.791847 160.033161 437.831783 
C 169.638621 464.871719 184.401778 489.791984 203.501879 511.207146 
C 222.60198 532.622307 245.678388 550.128015 271.448177 562.751047 
C 297.217967 575.374079 325.194568 582.876093 353.822631 584.840017 
C 382.450694 586.803941 411.18968 583.192694 438.441856 574.207042 
C 465.694031 565.22139 490.944835 551.030995 512.790458 532.424767 
C 534.636081 513.818538 552.664047 491.147789 565.872097 465.672891 
C 579.080147 440.197993 587.218894 412.39995 589.835867 383.824183 
L 545.668693 379.779346 
C 543.575115 402.63996 537.064117 424.878395 526.497677 445.258313 
C 515.931238 465.638231 501.508865 483.77483 484.032366 498.659813 
C 466.555868 513.544796 446.355225 524.897112 424.553484 532.085634 
C 402.751744 539.274156 379.760556 542.163153 356.858105 540.592014 
C 333.955655 539.020874 311.574374 533.019263 290.958542 522.920838 
C 270.34271 512.822412 251.881584 498.817846 236.601503 481.685717 
C 221.321422 464.553587 209.510897 444.617375 201.826529 422.985427 
C 194.14216 401.353478 190.729041 378.434235 191.776923 355.501886 
C 192.824805 332.569536 198.313901 310.057075 207.939048 289.216076 
C 217.564195 268.375076 231.143656 249.599046 247.922485 233.931832 
C 264.701315 218.264617 284.362704 206.002039 305.813586 197.82583 
C 327.264467 189.649621 350.099817 185.714159 373.050113 186.238237 
C 396.000408 186.762314 418.632314 191.736035 439.687618 200.882886 
C 460.742922 210.029738 479.824069 223.177015 495.87025 239.593798 
C 511.916431 256.010582 524.624671 275.386901 533.288459 296.645534 
C 541.952248 317.904167 546.408 340.643722 546.408 363.6 
L 590.76 363.6 
z
" style="fill: none; opacity: 0"/>
   </g>
   <g id="patch_3">
    <path d="M 589.835867 383.824183 
C 590.14371 380.462718 590.374764 377.094661 590.528846 373.722648 
C 590.682928 370.350634 590.76 366.975541 590.76 363.600009 
L 546.408 363.600007 
C 546.408 366.300433 546.346343 369.000507 546.223077 371.698118 
C 546.099811 374.395729 545.914968 377.090174 545.668693 379.779346 
z
" style="stroke: #ffffff; stroke-linejoin: miter"/>
   </g>
   <g id="patch_4">
    <path d="M 546.408 363.6 
C 546.408 335.604535 539.781359 308.002592 527.071684 283.05845 
C 514.362008 258.114309 495.926608 236.52923 473.277801 220.073909 
C 450.628993 203.618589 424.40351 192.755639 396.752716 188.376185 
C 369.101921 183.996731 340.803169 186.223893 314.1779 194.87497 
C 287.552632 203.526046 263.349369 218.357827 243.553588 238.153612 
C 223.757807 257.949397 208.926031 282.152662 200.274959 308.777932 
C 191.623888 335.403202 189.396731 363.701955 193.776191 391.352749 
C 198.15565 419.003542 209.018604 445.229023 225.473929 467.877828 
L 369 363.6 
z
" style="fill: #c7c7c7; stroke: #ffffff; stroke-linejoin: miter"/>
   </g>
   <g id="patch_5">
    <path d="M 225.473929 467.877828 
C 247.491821 498.182846 278.552241 520.749556 314.177932 532.325041 
C 349.803623 543.900525 388.19641 543.900521 423.8221 532.32503 
C 459.447789 520.749539 490.508205 498.182824 512.526091 467.877801 
C 534.543977 437.572778 546.408 401.059067 546.408 363.6 
L 369 363.6 
z
" style="fill: #d62728; stroke: #ffffff; stroke-linejoin: miter"/>
   </g>
   <g id="matplotlib.axis_1"/>
   <g id="matplotlib.axis_2"/>
  </g>
 </g>
</svg>
