<?xml version="1.0" encoding="utf-8" standalone="no"?>
<!DOCTYPE svg PUBLIC "-//W3C//DTD SVG 1.1//EN"
  "http://www.w3.org/Graphics/SVG/1.1/DTD/svg11.dtd">
<svg xmlns:xlink="http://www.w3.org/1999/xlink" width="720pt" height="720pt" viewBox="0 0 720 720" xmlns="http://www.w3.org/2000/svg" version="1.1">
 <metadata>
  <rdf:RDF xmlns:dc="http://purl.org/dc/elements/1.1/" xmlns:cc="http://creativecommons.org/ns#" xmlns:rdf="http://www.w3.org/1999/02/22-rdf-syntax-ns#">
   <cc:Work>
    <dc:type rdf:resource="http://purl.org/dc/dcmitype/StillImage"/>
    <dc:date>2024-02-23T18:45:32.059432</dc:date>
    <dc:format>image/svg+xml</dc:format>
    <dc:creator>
     <cc:Agent>
      <dc:title>Matplotlib v3.8.2, https://matplotlib.org/</dc:title>
     </cc:Agent>
    </dc:creator>
   </cc:Work>
  </rdf:RDF>
 </metadata>
 <defs>
  <style type="text/css">*{stroke-linejoin: round; stroke-linecap: butt}</style>
 </defs>
 <g id="figure_1">
  <g id="patch_1">
   <path d="M 0 720 
L 720 720 
L 720 0 
L 0 0 
L 0 720 
z
" style="fill: none"/>
  </g>
  <g id="axes_1">
   <g id="patch_2">
    <path d="M 590.76 363.6 
C 590.76 334.831794 585.161991 306.336564 574.278748 279.706417 
C 563.395505 253.07627 547.433568 228.816584 527.284772 208.282813 
C 507.135977 187.749043 483.182701 171.33087 456.763278 159.945625 
C 430.343856 148.560379 401.959666 142.424125 373.196612 141.879712 
C 344.433557 141.335299 315.837493 146.393059 289.006159 156.770401 
C 262.174825 167.147743 237.617418 182.647729 216.706026 202.404333 
C 195.794634 222.160937 178.926108 245.799224 167.042937 271.998459 
C 155.159766 298.197695 148.487465 326.460678 147.398834 355.20828 
C 146.310204 383.955881 150.825903 412.642538 160.693627 439.665449 
C 170.561351 466.68836 185.593834 491.534693 204.951171 512.816216 
C 224.308507 534.097739 247.623339 551.410579 273.593005 563.787419 
C 299.56267 576.16426 327.694325 583.370217 356.416176 585.002676 
C 385.138028 586.635135 413.905004 582.663114 441.109813 573.308542 
C 468.314623 563.953969 493.440983 549.394373 515.085016 530.443237 
C 536.729049 511.492101 554.48 488.509074 567.346077 462.77828 
C 580.212154 437.047486 587.949188 409.057235 590.12489 380.37142 
L 545.899912 377.017136 
C 544.159351 399.965788 537.969723 422.357989 527.676862 442.942624 
C 517.384 463.527259 503.183239 481.913681 485.868013 497.07459 
C 468.552787 512.235498 448.451699 523.883175 426.687851 531.366833 
C 404.924003 538.850491 381.910423 542.028108 358.932941 540.722141 
C 335.95546 539.416174 313.450136 533.651408 292.674404 523.749935 
C 271.898671 513.848463 253.246805 499.998191 237.760936 482.972973 
C 222.275067 465.947754 210.249081 446.070688 202.354901 424.452359 
C 194.460722 402.83403 190.848163 379.884705 191.719067 356.886624 
C 192.589972 333.888543 197.927813 311.278156 207.434349 290.318768 
C 216.940886 269.359379 230.435708 250.448749 247.164821 234.643466 
C 263.893934 218.838183 283.53986 206.438194 305.004927 198.136321 
C 326.469994 189.834447 349.346846 185.788239 372.357289 186.22377 
C 395.367733 186.6593 418.075085 191.568303 439.210623 200.6765 
C 460.34616 209.784696 479.508781 222.919234 495.627818 239.346251 
C 511.746854 255.773267 524.516404 275.181016 533.222998 296.485134 
C 541.929593 317.789251 546.408 340.585435 546.408 363.6 
L 590.76 363.6 
z
" style="fill: none; opacity: 0"/>
   </g>
   <g id="patch_3">
    <path d="M 590.12489 380.37142 
C 590.336499 377.58144 590.495286 374.787705 590.601166 371.991715 
C 590.707046 369.195726 590.76 366.397983 590.76 363.59999 
L 546.408 363.599992 
C 546.408 365.838386 546.365637 368.076581 546.280933 370.313372 
C 546.196229 372.550164 546.069199 374.785152 545.899912 377.017136 
z
" style="stroke: #ffffff; stroke-linejoin: miter"/>
   </g>
   <g id="patch_4">
    <path d="M 546.408 363.6 
C 546.408 340.302995 541.818998 317.232524 532.90362 295.708898 
C 523.988242 274.185271 510.91987 254.62707 494.4464 238.1536 
C 477.97293 221.68013 458.414729 208.611758 436.891102 199.69638 
C 415.367476 190.781002 392.297005 186.192 369 186.192 
C 345.702995 186.192 322.632524 190.781002 301.108898 199.69638 
C 279.585271 208.611758 260.02707 221.68013 243.5536 238.1536 
C 227.08013 254.62707 214.011758 274.185271 205.09638 295.708898 
C 196.181002 317.232524 191.592 340.302995 191.592 363.6 
C 191.592 386.897005 196.181002 409.967476 205.09638 431.491102 
C 214.011758 453.014729 227.08013 472.57293 243.5536 489.0464 
C 260.02707 505.51987 279.585271 518.588242 301.108898 527.50362 
C 322.632524 536.418998 345.702995 541.008 369 541.008 
C 392.297005 541.008 415.367476 536.418998 436.891102 527.50362 
C 458.414729 518.588242 477.97293 505.51987 494.4464 489.0464 
C 510.91987 472.57293 523.988242 453.014729 532.90362 431.491102 
C 541.818998 409.967476 546.408 386.897005 546.408 363.6 
M 369 363.6 
z
" style="fill: #c7c7c7; stroke: #ffffff; stroke-linejoin: miter"/>
   </g>
   <g id="matplotlib.axis_1"/>
   <g id="matplotlib.axis_2"/>
  </g>
 </g>
</svg>
