<?xml version="1.0" encoding="utf-8" standalone="no"?>
<!DOCTYPE svg PUBLIC "-//W3C//DTD SVG 1.1//EN"
  "http://www.w3.org/Graphics/SVG/1.1/DTD/svg11.dtd">
<svg xmlns:xlink="http://www.w3.org/1999/xlink" width="720pt" height="720pt" viewBox="0 0 720 720" xmlns="http://www.w3.org/2000/svg" version="1.1">
 <metadata>
  <rdf:RDF xmlns:dc="http://purl.org/dc/elements/1.1/" xmlns:cc="http://creativecommons.org/ns#" xmlns:rdf="http://www.w3.org/1999/02/22-rdf-syntax-ns#">
   <cc:Work>
    <dc:type rdf:resource="http://purl.org/dc/dcmitype/StillImage"/>
    <dc:date>2024-02-23T18:45:31.790095</dc:date>
    <dc:format>image/svg+xml</dc:format>
    <dc:creator>
     <cc:Agent>
      <dc:title>Matplotlib v3.8.2, https://matplotlib.org/</dc:title>
     </cc:Agent>
    </dc:creator>
   </cc:Work>
  </rdf:RDF>
 </metadata>
 <defs>
  <style type="text/css">*{stroke-linejoin: round; stroke-linecap: butt}</style>
 </defs>
 <g id="figure_1">
  <g id="patch_1">
   <path d="M 0 720 
L 720 720 
L 720 0 
L 0 0 
L 0 720 
z
" style="fill: none"/>
  </g>
  <g id="axes_1">
   <g id="patch_2">
    <path d="M 590.76 363.6 
C 590.76 335.883892 585.563959 308.411851 575.441664 282.610265 
C 565.319368 256.80868 550.449091 233.131967 531.602919 212.809456 
C 512.756748 192.486944 490.266599 175.876554 465.300194 163.840719 
C 440.33379 151.804885 413.330837 144.555582 385.693368 142.469204 
C 358.055899 140.382826 330.270664 143.496118 303.780312 151.647435 
C 277.289961 159.798751 252.561041 172.844531 230.877513 190.107418 
C 209.193984 207.370305 190.937738 228.546266 177.056664 252.535815 
C 163.17559 276.525363 153.914161 302.905997 149.753244 330.307994 
C 145.592328 357.709991 146.605205 385.650748 152.739287 412.679543 
C 158.873368 439.708337 170.020621 465.349137 185.602262 488.270636 
C 201.183904 511.192135 220.925512 530.990639 243.802073 546.638183 
C 266.678633 562.285727 292.287246 573.506726 319.298275 579.71857 
C 346.309303 585.930413 374.247031 587.023698 401.660889 582.94166 
C 429.074747 578.859622 455.481925 569.674154 479.511324 555.862178 
C 503.540722 542.050202 524.769136 523.854974 542.094355 502.221217 
C 559.419575 480.58746 572.536469 455.896187 580.763989 429.429405 
L 538.411191 416.263524 
C 531.829175 437.43695 521.33566 457.189968 507.475484 474.496974 
C 493.615309 491.803979 476.632577 506.360161 457.409059 517.409742 
C 438.18554 528.459323 417.059798 535.807698 395.128711 539.073328 
C 373.197625 542.338959 350.847443 541.46433 329.23862 536.494856 
C 307.629797 531.525381 287.142907 522.548582 268.841658 510.030547 
C 250.540409 497.512512 234.747123 481.673708 222.28181 463.336509 
C 209.816497 444.999309 200.898695 424.486669 195.991429 402.863634 
C 191.084164 381.240599 190.273862 358.887993 193.602595 336.966395 
C 196.931329 315.044797 204.340472 293.940291 215.445331 274.748652 
C 226.55019 255.557013 241.155188 238.616244 258.50201 224.805934 
C 275.848833 210.995625 295.631969 200.559001 316.82425 194.037948 
C 338.016531 187.516895 360.244719 185.026261 382.354694 186.695363 
C 404.464669 188.364465 426.067032 194.163908 446.040155 203.792575 
C 466.013279 213.421243 484.005398 226.709556 499.082336 242.967565 
C 514.159273 259.225574 526.055494 278.166944 534.153331 298.808212 
C 542.251167 319.449481 546.408 341.427113 546.408 363.6 
L 590.76 363.6 
z
" style="fill: none; opacity: 0"/>
   </g>
   <g id="patch_3">
    <path d="M 580.763989 429.429405 
C 584.072295 418.787048 586.57364 407.910423 588.246755 396.892014 
C 589.91987 385.873605 590.759999 374.74473 590.76 363.600016 
L 546.408 363.600012 
C 546.407999 372.515784 545.735896 381.418884 544.397404 390.233611 
C 543.058912 399.048338 541.057836 407.749638 538.411191 416.263524 
z
" style="stroke: #ffffff; stroke-linejoin: miter"/>
   </g>
   <g id="patch_4">
    <path d="M 546.408 363.6 
C 546.408 332.460709 538.209479 301.863414 522.639833 274.895998 
C 507.070188 247.928581 484.671413 225.529807 457.703995 209.960162 
C 430.736578 194.390518 400.139283 186.191999 368.999992 186.192 
C 337.860701 186.192001 307.263406 194.390524 280.29599 209.960171 
L 369 363.6 
z
" style="fill: #c7c7c7; stroke: #ffffff; stroke-linejoin: miter"/>
   </g>
   <g id="patch_5">
    <path d="M 280.29599 209.960171 
C 253.328574 225.529818 230.929802 247.928594 215.360158 274.896012 
C 199.790515 301.86343 191.591997 332.460726 191.592 363.600017 
L 369 363.6 
z
" style="fill: #dbdb8d; stroke: #ffffff; stroke-linejoin: miter"/>
   </g>
   <g id="patch_6">
    <path d="M 191.592 363.600017 
C 191.592004 410.633498 210.295915 455.788721 243.553612 489.046412 
C 276.811309 522.304102 321.966535 541.008004 369.000017 541.008 
C 416.033498 541.007996 461.188721 522.304085 494.446412 489.046388 
C 527.704102 455.788691 546.408004 410.633465 546.408 363.599983 
L 369 363.6 
z
" style="fill: #9edae5; stroke: #ffffff; stroke-linejoin: miter"/>
   </g>
   <g id="matplotlib.axis_1"/>
   <g id="matplotlib.axis_2"/>
  </g>
 </g>
</svg>
