<?xml version="1.0" encoding="utf-8" standalone="no"?>
<!DOCTYPE svg PUBLIC "-//W3C//DTD SVG 1.1//EN"
  "http://www.w3.org/Graphics/SVG/1.1/DTD/svg11.dtd">
<svg xmlns:xlink="http://www.w3.org/1999/xlink" width="720pt" height="720pt" viewBox="0 0 720 720" xmlns="http://www.w3.org/2000/svg" version="1.1">
 <metadata>
  <rdf:RDF xmlns:dc="http://purl.org/dc/elements/1.1/" xmlns:cc="http://creativecommons.org/ns#" xmlns:rdf="http://www.w3.org/1999/02/22-rdf-syntax-ns#">
   <cc:Work>
    <dc:type rdf:resource="http://purl.org/dc/dcmitype/StillImage"/>
    <dc:date>2024-02-23T18:45:31.876859</dc:date>
    <dc:format>image/svg+xml</dc:format>
    <dc:creator>
     <cc:Agent>
      <dc:title>Matplotlib v3.8.2, https://matplotlib.org/</dc:title>
     </cc:Agent>
    </dc:creator>
   </cc:Work>
  </rdf:RDF>
 </metadata>
 <defs>
  <style type="text/css">*{stroke-linejoin: round; stroke-linecap: butt}</style>
 </defs>
 <g id="figure_1">
  <g id="patch_1">
   <path d="M 0 720 
L 720 720 
L 720 0 
L 0 0 
L 0 720 
z
" style="fill: none"/>
  </g>
  <g id="axes_1">
   <g id="patch_2">
    <path d="M 590.76 363.6 
C 590.76 321.323474 578.670548 279.915691 555.923362 244.280453 
C 533.176176 208.645215 500.706123 180.247063 462.358536 162.449108 
C 424.010949 144.651153 381.361841 138.184856 339.462022 143.816003 
C 297.562203 149.447149 258.133676 166.94431 225.845846 194.235347 
C 193.558016 221.526383 169.737852 257.489686 157.206306 297.866227 
C 144.674761 338.242767 143.946856 381.373145 155.108796 422.149557 
C 166.270736 462.925968 188.863787 499.67258 220.212318 528.037597 
C 251.56085 556.402615 290.376497 575.22029 332.062437 582.2621 
L 339.449949 538.52968 
C 306.101198 532.896232 275.04868 517.842092 249.969855 495.150078 
C 224.89103 472.458064 206.816589 443.060774 197.887037 410.439645 
C 188.957485 377.818516 189.539809 343.314213 199.565045 311.012981 
C 209.590282 278.711749 228.646413 249.941107 254.476677 228.108277 
C 280.306941 206.275448 311.849763 192.277719 345.369618 187.772802 
C 378.889473 183.267885 413.008759 188.440922 443.686829 202.679286 
C 474.364898 216.91765 500.340941 239.636172 518.53869 268.144362 
C 536.736438 296.652552 546.408 329.778779 546.408 363.6 
L 590.76 363.6 
z
" style="fill: none; opacity: 0"/>
   </g>
   <g id="patch_3">
    <path d="M 332.062437 582.2621 
C 363.858642 587.633284 396.447089 586.005043 427.549547 577.491206 
C 458.652004 568.97737 487.526396 553.78107 512.154138 532.964667 
C 536.78188 512.148264 556.575376 486.208419 570.150879 456.958564 
C 583.726382 427.70871 590.759994 395.84672 590.76 363.600042 
L 546.408 363.600033 
C 546.407995 389.397376 540.781106 414.886968 529.920703 438.286851 
C 519.060301 461.686735 503.225504 482.438611 483.52331 499.091733 
C 463.821117 515.744856 440.721603 527.901896 415.839637 534.712965 
C 390.957671 541.524034 364.886913 542.826627 339.449949 538.52968 
z
" style="stroke: #ffffff; stroke-linejoin: miter"/>
   </g>
   <g id="patch_4">
    <path d="M 546.408 363.6 
C 546.408 332.154947 538.047684 301.268062 522.186927 274.116124 
C 506.32617 246.964187 483.528047 224.511121 456.137392 209.066271 
C 428.746738 193.621422 397.735951 185.733098 366.294555 186.21263 
C 334.853159 186.692162 304.097359 195.522527 277.190452 211.795503 
L 369 363.6 
z
" style="fill: #2ca02c; stroke: #ffffff; stroke-linejoin: miter"/>
   </g>
   <g id="patch_5">
    <path d="M 277.190452 211.795503 
C 250.283546 228.068478 228.180759 251.206356 213.155409 278.829357 
C 198.130059 306.452358 190.715562 337.579834 191.674515 369.010262 
L 369 363.6 
z
" style="fill: #aec7e8; stroke: #ffffff; stroke-linejoin: miter"/>
   </g>
   <g id="patch_6">
    <path d="M 191.674515 369.010262 
C 192.336423 390.704807 196.974013 412.094842 205.35641 432.115502 
C 213.738808 452.136163 225.724565 470.449612 240.716994 486.14415 
L 369 363.6 
z
" style="fill: #ff9896; stroke: #ffffff; stroke-linejoin: miter"/>
   </g>
   <g id="patch_7">
    <path d="M 240.716994 486.14415 
C 265.189686 511.762922 296.784551 529.472727 331.409376 536.979766 
C 366.0342 544.486806 402.126647 541.452348 435.011972 528.269421 
C 467.897296 515.086493 496.091649 492.349934 515.943258 463.004615 
C 535.794867 433.659296 546.40799 399.029333 546.408 363.60005 
L 369 363.6 
z
" style="fill: #9edae5; stroke: #ffffff; stroke-linejoin: miter"/>
   </g>
   <g id="matplotlib.axis_1"/>
   <g id="matplotlib.axis_2"/>
  </g>
 </g>
</svg>
