<?xml version="1.0" encoding="utf-8" standalone="no"?>
<!DOCTYPE svg PUBLIC "-//W3C//DTD SVG 1.1//EN"
  "http://www.w3.org/Graphics/SVG/1.1/DTD/svg11.dtd">
<svg xmlns:xlink="http://www.w3.org/1999/xlink" width="720pt" height="720pt" viewBox="0 0 720 720" xmlns="http://www.w3.org/2000/svg" version="1.1">
 <metadata>
  <rdf:RDF xmlns:dc="http://purl.org/dc/elements/1.1/" xmlns:cc="http://creativecommons.org/ns#" xmlns:rdf="http://www.w3.org/1999/02/22-rdf-syntax-ns#">
   <cc:Work>
    <dc:type rdf:resource="http://purl.org/dc/dcmitype/StillImage"/>
    <dc:date>2024-02-23T18:45:31.455430</dc:date>
    <dc:format>image/svg+xml</dc:format>
    <dc:creator>
     <cc:Agent>
      <dc:title>Matplotlib v3.8.2, https://matplotlib.org/</dc:title>
     </cc:Agent>
    </dc:creator>
   </cc:Work>
  </rdf:RDF>
 </metadata>
 <defs>
  <style type="text/css">*{stroke-linejoin: round; stroke-linecap: butt}</style>
 </defs>
 <g id="figure_1">
  <g id="patch_1">
   <path d="M 0 720 
L 720 720 
L 720 0 
L 0 0 
L 0 720 
z
" style="fill: none"/>
  </g>
  <g id="axes_1">
   <g id="patch_2">
    <path d="M 590.76 363.6 
C 590.76 321.391208 578.709255 280.046975 556.030488 244.448441 
C 533.351721 208.849907 500.973986 180.455394 462.71983 162.617187 
C 424.465674 144.77898 381.902208 138.227835 340.054518 143.737187 
C 298.206829 149.246538 258.789238 166.590691 226.455427 193.721978 
C 194.121615 220.853265 170.196163 256.660231 157.503732 296.915471 
C 144.811302 337.17071 143.871849 380.225135 154.796285 420.995698 
C 165.720722 461.766261 188.06152 498.582763 219.181104 527.098611 
C 250.300687 555.61446 288.924217 574.661481 330.491762 581.990964 
L 338.19341 538.312771 
C 304.939374 532.449185 274.04055 517.211568 249.144883 494.398889 
C 224.249216 471.58621 206.376577 442.133009 197.637028 409.516558 
C 188.897479 376.900108 189.649042 342.456568 199.802986 310.252377 
C 209.95693 278.048185 229.097292 249.402612 254.964341 227.697583 
C 280.831391 205.992553 312.365463 192.117231 345.843615 187.709749 
C 379.321767 183.302268 413.372539 188.543184 443.975864 202.81375 
C 474.579189 217.084315 500.481377 239.799925 518.624391 268.278753 
C 536.767404 296.75758 546.408 329.832967 546.408 363.6 
L 590.76 363.6 
z
" style="fill: none; opacity: 0"/>
   </g>
   <g id="patch_3">
    <path d="M 330.491762 581.990964 
C 362.380891 587.613881 395.117985 586.184551 426.395698 577.803715 
C 457.673411 569.422879 486.739233 554.292172 511.544573 533.478022 
C 536.349913 512.663872 556.297981 486.667046 569.982813 457.31983 
C 583.667645 427.972614 590.76 395.981071 590.76 363.6 
L 546.408 363.6 
C 546.408 389.504856 540.734116 415.098091 529.78625 438.575864 
C 518.838384 462.053637 502.879931 482.851097 483.035659 499.502417 
C 463.191387 516.153737 439.938729 528.258303 414.916558 534.962972 
C 389.894388 541.66764 363.704713 542.811105 338.19341 538.312771 
z
" style="stroke: #ffffff; stroke-linejoin: miter"/>
   </g>
   <g id="patch_4">
    <path d="M 546.408 363.6 
C 546.408 335.604538 539.781361 308.002597 527.071688 283.058458 
C 514.362015 258.114318 495.926618 236.52924 473.277814 220.073919 
C 450.629011 203.618598 424.403531 192.755647 396.75274 188.376189 
C 369.101949 183.996732 340.803199 186.223889 314.177932 194.874959 
C 287.552665 203.52603 263.349401 218.357804 243.553618 238.153583 
C 223.757834 257.949361 208.926053 282.15262 200.274975 308.777885 
C 191.623897 335.40315 189.396732 363.701899 193.776181 391.352691 
C 198.155631 419.003483 209.018575 445.228966 225.47389 467.877774 
L 369 363.6 
z
" style="fill: #c7c7c7; stroke: #ffffff; stroke-linejoin: miter"/>
   </g>
   <g id="patch_5">
    <path d="M 225.47389 467.877774 
C 247.49177 498.182801 278.552182 520.749522 314.177869 532.32502 
C 349.803556 543.900518 388.196343 543.900529 423.822036 532.325051 
C 459.44773 520.749573 490.508154 498.182869 512.526052 467.877854 
C 534.543949 437.57284 546.407986 401.059134 546.408 363.600066 
L 369 363.6 
z
" style="fill: #9edae5; stroke: #ffffff; stroke-linejoin: miter"/>
   </g>
   <g id="matplotlib.axis_1"/>
   <g id="matplotlib.axis_2"/>
  </g>
 </g>
</svg>
