<?xml version="1.0" encoding="utf-8" standalone="no"?>
<!DOCTYPE svg PUBLIC "-//W3C//DTD SVG 1.1//EN"
  "http://www.w3.org/Graphics/SVG/1.1/DTD/svg11.dtd">
<svg xmlns:xlink="http://www.w3.org/1999/xlink" width="720pt" height="720pt" viewBox="0 0 720 720" xmlns="http://www.w3.org/2000/svg" version="1.1">
 <metadata>
  <rdf:RDF xmlns:dc="http://purl.org/dc/elements/1.1/" xmlns:cc="http://creativecommons.org/ns#" xmlns:rdf="http://www.w3.org/1999/02/22-rdf-syntax-ns#">
   <cc:Work>
    <dc:type rdf:resource="http://purl.org/dc/dcmitype/StillImage"/>
    <dc:date>2024-02-23T18:45:31.484376</dc:date>
    <dc:format>image/svg+xml</dc:format>
    <dc:creator>
     <cc:Agent>
      <dc:title>Matplotlib v3.8.2, https://matplotlib.org/</dc:title>
     </cc:Agent>
    </dc:creator>
   </cc:Work>
  </rdf:RDF>
 </metadata>
 <defs>
  <style type="text/css">*{stroke-linejoin: round; stroke-linecap: butt}</style>
 </defs>
 <g id="figure_1">
  <g id="patch_1">
   <path d="M 0 720 
L 720 720 
L 720 0 
L 0 0 
L 0 720 
z
" style="fill: none"/>
  </g>
  <g id="axes_1">
   <g id="patch_2">
    <path d="M 590.76 363.6 
C 590.76 308.892456 570.515713 256.074048 533.950574 215.381224 
C 497.385435 174.688399 447.024746 148.93153 392.628636 143.102415 
C 338.232526 137.273299 283.557759 151.774514 239.200554 183.795658 
C 194.843348 215.816802 163.867149 263.146396 152.275285 316.61175 
L 195.620228 326.0094 
C 204.893719 283.237117 229.674678 245.373442 265.160443 219.756527 
C 300.646207 194.139611 344.386021 182.538639 387.902909 187.201932 
C 431.419797 191.865224 471.708348 212.470719 500.960459 245.024979 
C 530.212571 277.579239 546.408 319.833965 546.408 363.6 
L 590.76 363.6 
z
" style="fill: none; opacity: 0"/>
   </g>
   <g id="patch_3">
    <path d="M 152.275285 316.61175 
C 145.68255 347.019535 145.562615 378.47717 151.923297 408.934341 
C 158.283978 439.391512 170.984018 468.171822 189.195664 493.399455 
C 207.407311 518.627088 230.726118 539.741786 257.632234 555.367355 
C 284.538351 570.992924 314.434243 580.78235 345.371385 584.097588 
C 376.308527 587.412825 407.599862 584.180248 437.205914 574.610547 
C 466.811967 565.040845 494.075242 549.346545 517.218799 528.550553 
C 540.362357 507.754562 558.872223 482.318719 571.541978 453.900858 
C 584.211733 425.482996 590.760006 394.714224 590.76 363.599958 
L 546.408 363.599967 
C 546.408005 388.491379 541.169386 413.106397 531.033582 435.840686 
C 520.897778 458.574975 506.089886 478.923649 487.57504 495.560443 
C 469.060193 512.197236 447.249574 524.752676 423.564732 532.408437 
C 399.879889 540.064198 374.846821 542.65026 350.097108 539.99807 
C 325.347394 537.34588 301.430681 529.514339 279.905788 517.013884 
C 258.380894 504.513428 239.725849 487.62167 225.156531 467.439564 
C 210.587214 447.257457 200.427183 424.23321 195.338637 399.867473 
C 190.250092 375.501736 190.34604 350.335628 195.620228 326.0094 
z
" style="stroke: #ffffff; stroke-linejoin: miter"/>
   </g>
   <g id="patch_4">
    <path d="M 546.408 363.6 
C 546.408 341.581177 542.308732 319.75356 534.320134 299.235011 
C 526.331535 278.716462 514.592348 259.863337 499.703773 243.641164 
C 484.815197 227.418991 467.035812 214.10951 447.276155 204.39434 
C 427.516497 194.679171 406.119745 188.727042 384.181693 186.84278 
C 362.243641 184.958519 340.145299 187.174851 319.018393 193.37827 
C 297.891487 199.581689 278.102939 209.664457 260.666183 223.110204 
C 243.229428 236.555952 228.447298 253.131158 217.076833 271.986956 
C 205.706368 290.842753 197.945046 311.651663 194.190347 333.347995 
C 190.435649 355.044326 190.752784 377.251268 195.125512 398.831533 
C 199.49824 420.411797 207.850616 440.990589 219.75489 459.514002 
C 231.659164 478.037415 246.908588 494.183743 264.722189 507.126084 
C 282.535791 520.068424 302.604192 529.581998 323.899628 535.179588 
C 345.195063 540.777177 367.347683 542.361564 389.222981 539.851608 
C 411.09828 537.341653 432.316337 530.780945 451.79051 520.505481 
C 471.264683 510.230016 488.656752 496.418255 503.076015 479.777539 
C 517.495279 463.136824 528.691309 443.956163 536.090722 423.217859 
L 369 363.6 
z
" style="fill: #8c564b; stroke: #ffffff; stroke-linejoin: miter"/>
   </g>
   <g id="patch_5">
    <path d="M 536.090722 423.217859 
C 537.225921 420.036243 538.270015 416.822852 539.221727 413.581618 
C 540.173439 410.340384 541.032382 407.072628 541.797504 403.782347 
L 369 363.6 
z
" style="fill: #17becf; stroke: #ffffff; stroke-linejoin: miter"/>
   </g>
   <g id="patch_6">
    <path d="M 541.797504 403.782347 
C 543.32806 397.200445 544.481307 390.536467 545.251607 383.822998 
C 546.021906 377.109528 546.408 370.357527 546.408 363.60001 
L 369 363.6 
z
" style="fill: #9edae5; stroke: #ffffff; stroke-linejoin: miter"/>
   </g>
   <g id="matplotlib.axis_1"/>
   <g id="matplotlib.axis_2"/>
  </g>
 </g>
</svg>
