<?xml version="1.0" encoding="utf-8" standalone="no"?>
<!DOCTYPE svg PUBLIC "-//W3C//DTD SVG 1.1//EN"
  "http://www.w3.org/Graphics/SVG/1.1/DTD/svg11.dtd">
<svg xmlns:xlink="http://www.w3.org/1999/xlink" width="720pt" height="720pt" viewBox="0 0 720 720" xmlns="http://www.w3.org/2000/svg" version="1.1">
 <metadata>
  <rdf:RDF xmlns:dc="http://purl.org/dc/elements/1.1/" xmlns:cc="http://creativecommons.org/ns#" xmlns:rdf="http://www.w3.org/1999/02/22-rdf-syntax-ns#">
   <cc:Work>
    <dc:type rdf:resource="http://purl.org/dc/dcmitype/StillImage"/>
    <dc:date>2024-10-24T16:56:30.325932</dc:date>
    <dc:format>image/svg+xml</dc:format>
    <dc:creator>
     <cc:Agent>
      <dc:title>Matplotlib v3.8.2, https://matplotlib.org/</dc:title>
     </cc:Agent>
    </dc:creator>
   </cc:Work>
  </rdf:RDF>
 </metadata>
 <defs>
  <style type="text/css">*{stroke-linejoin: round; stroke-linecap: butt}</style>
 </defs>
 <g id="figure_1">
  <g id="patch_1">
   <path d="M 0 720 
L 720 720 
L 720 0 
L 0 0 
L 0 720 
z
" style="fill: none"/>
  </g>
  <g id="axes_1">
   <g id="patch_2">
    <path d="M 590.76 363.6 
C 590.76 323.405507 579.831988 283.95725 559.149695 249.492195 
C 538.467401 215.02714 508.798786 186.825017 473.330425 167.914896 
C 437.862065 149.004774 397.910945 140.08881 357.768041 142.124627 
C 317.625137 144.160445 278.781006 157.072452 245.407727 179.473827 
C 212.034449 201.875201 185.371215 232.934151 168.281807 269.31477 
C 151.192399 305.695389 144.311369 346.046818 148.377779 386.035086 
C 152.444188 426.023355 167.307046 464.163647 191.369997 496.35948 
C 215.432948 528.555313 247.802505 553.611215 285.001994 568.836041 
L 301.801595 527.788833 
C 272.042004 515.608972 246.146358 495.564251 226.895997 469.807584 
C 207.645637 444.050918 195.75535 413.538684 192.502223 381.548069 
C 189.249096 349.557455 194.75392 317.276311 208.425446 288.171816 
C 222.096972 259.067321 243.427559 234.220161 270.126182 216.299061 
C 296.824805 198.377962 327.900109 188.048356 360.014433 186.419702 
C 392.128756 184.791048 424.089652 191.923819 452.46434 207.051917 
C 480.839028 222.180014 504.573921 244.741712 521.119756 272.313756 
C 537.66559 299.8858 546.408 331.444405 546.408 363.6 
z
" style="opacity: 0.1"/>
   </g>
   <g id="patch_3">
    <path d="M 285.001994 568.836041 
C 318.67803 582.618805 355.234417 587.903469 391.435086 584.222221 
C 427.635756 580.540973 462.380036 568.00574 492.592273 547.726173 
C 522.804509 527.446607 547.566107 500.039302 564.685104 467.930425 
C 581.804101 435.821548 590.76 399.987361 590.76 363.6 
L 546.408 363.6 
C 546.408 392.709889 539.243281 421.377239 525.548083 447.06434 
C 511.852885 472.751442 492.043607 494.677286 467.873818 510.900939 
C 443.704029 527.124592 415.908605 537.152778 386.948069 540.097777 
C 357.987534 543.042775 328.742424 538.815044 301.801595 527.788833 
z
"/>
   </g>
   <g id="patch_4">
    <path d="M 546.408 363.6 
C 546.408 343.532796 543.003199 323.610276 536.338793 304.682034 
C 529.674388 285.753791 519.846479 268.09277 507.274176 252.452122 
C 494.701873 236.811474 479.566468 223.416737 462.513409 212.839127 
C 445.460349 202.261517 426.735539 194.653563 407.137496 190.339705 
C 387.539453 186.025847 367.350779 185.068291 347.432418 187.507871 
C 327.514056 189.947451 308.153229 195.74899 290.175577 204.66508 
C 272.197924 213.581171 255.862682 225.483244 241.866465 239.863737 
C 227.870249 254.24423 216.414882 270.895778 207.988877 289.108277 
C 199.562873 307.320776 194.287733 326.831603 192.388417 346.808721 
C 190.4891 366.78584 191.992993 386.941181 196.835964 406.415223 
C 201.678935 425.889264 209.791148 444.401192 220.826659 461.161567 
C 231.862169 477.921942 245.661846 492.689081 261.637204 504.833241 
C 277.612561 516.977401 295.533236 526.323464 314.635003 532.472868 
C 333.736769 538.622272 353.744182 541.486343 373.804027 540.942944 
C 393.863872 540.399545 413.686888 536.45651 432.427724 529.281991 
C 451.168561 522.107472 468.556976 511.804925 483.851443 498.813699 
L 369 363.6 
z
" style="fill: #c7c7c7"/>
   </g>
   <g id="patch_5">
    <path d="M 483.851443 498.813699 
C 493.626186 490.510966 502.471853 481.172717 510.233226 470.962816 
C 517.994599 460.752915 524.626012 449.731433 530.011102 438.091768 
L 369 363.6 
z
" style="fill: #e377c2"/>
   </g>
   <g id="patch_6">
    <path d="M 530.011102 438.091768 
C 535.396191 426.452104 539.503273 414.26274 542.260279 401.737569 
C 545.017285 389.212398 546.407993 376.425114 546.408 363.6001 
L 369 363.6 
z
" style="fill: #9edae5"/>
   </g>
   <g id="matplotlib.axis_1"/>
   <g id="matplotlib.axis_2"/>
  </g>
 </g>
</svg>
