<?xml version="1.0" encoding="utf-8" standalone="no"?>
<!DOCTYPE svg PUBLIC "-//W3C//DTD SVG 1.1//EN"
  "http://www.w3.org/Graphics/SVG/1.1/DTD/svg11.dtd">
<svg xmlns:xlink="http://www.w3.org/1999/xlink" width="720pt" height="720pt" viewBox="0 0 720 720" xmlns="http://www.w3.org/2000/svg" version="1.1">
 <metadata>
  <rdf:RDF xmlns:dc="http://purl.org/dc/elements/1.1/" xmlns:cc="http://creativecommons.org/ns#" xmlns:rdf="http://www.w3.org/1999/02/22-rdf-syntax-ns#">
   <cc:Work>
    <dc:type rdf:resource="http://purl.org/dc/dcmitype/StillImage"/>
    <dc:date>2024-10-24T16:56:30.444425</dc:date>
    <dc:format>image/svg+xml</dc:format>
    <dc:creator>
     <cc:Agent>
      <dc:title>Matplotlib v3.8.2, https://matplotlib.org/</dc:title>
     </cc:Agent>
    </dc:creator>
   </cc:Work>
  </rdf:RDF>
 </metadata>
 <defs>
  <style type="text/css">*{stroke-linejoin: round; stroke-linecap: butt}</style>
 </defs>
 <g id="figure_1">
  <g id="patch_1">
   <path d="M 0 720 
L 720 720 
L 720 0 
L 0 0 
L 0 720 
z
" style="fill: none"/>
  </g>
  <g id="axes_1">
   <g id="patch_2">
    <path d="M 590.76 363.6 
C 590.76 336.057345 585.628792 308.754198 575.629521 283.090753 
C 565.630249 257.427308 550.93682 233.849898 532.302759 213.567649 
C 513.668699 193.2854 491.418086 176.651056 466.692006 164.517681 
C 441.965926 152.384307 415.194407 144.962921 387.750382 142.634119 
C 360.306358 140.305316 332.667125 143.109597 306.250116 150.903151 
C 279.833108 158.696704 255.09776 171.343985 233.312583 188.196401 
C 211.527407 205.048816 193.071283 225.813273 178.890704 249.424902 
C 164.710124 273.03653 155.051714 299.084683 150.410787 326.233525 
C 145.76986 353.382367 146.227131 381.159733 151.759149 408.141108 
C 157.291167 435.122483 167.801721 460.838614 182.751796 483.970694 
C 197.70187 507.102773 216.831456 527.248494 239.159527 543.374718 
C 261.487598 559.500941 286.625829 571.327204 313.285049 578.247017 
C 339.944269 585.16683 367.660828 587.059844 395.01333 583.828981 
C 422.365832 580.598118 448.878569 572.299568 473.19188 559.358907 
C 497.505192 546.418246 519.196228 529.060535 537.1526 508.175935 
C 555.108971 487.291334 569.018387 463.243064 578.167526 437.264398 
L 536.334021 422.531518 
C 529.01471 443.314451 517.887177 462.553067 503.52208 479.260748 
C 489.156982 495.968428 471.804154 509.854597 452.353504 520.207126 
C 432.902855 530.559654 411.692666 537.198495 389.810664 539.783185 
C 367.928663 542.367875 345.755415 540.853464 324.428039 535.317613 
C 303.100663 529.781763 282.990078 520.320753 265.127622 507.419774 
C 247.265165 494.518796 231.961496 478.402219 220.001436 459.896555 
C 208.041377 441.390891 199.632934 420.817986 195.207319 399.232886 
C 190.781705 377.647786 190.415888 355.425893 194.128629 333.70682 
C 197.841371 311.987746 205.568099 291.149224 216.912563 272.259921 
C 228.257027 253.370619 243.021925 236.759053 260.450067 223.277121 
C 277.878208 209.795188 297.666486 199.677363 318.800093 193.442521 
C 339.9337 187.207678 362.045086 184.964253 384.000306 186.827295 
C 405.955526 188.690337 427.372741 194.627445 447.153605 204.334145 
C 466.934469 214.040845 484.734959 227.34832 499.642207 243.574119 
C 514.549456 259.799918 526.304199 278.661847 534.303616 299.192602 
C 542.303033 319.723358 546.408 341.565876 546.408 363.6 
z
" style="opacity: 0.1"/>
   </g>
   <g id="patch_3">
    <path d="M 578.167526 437.264398 
C 582.327316 425.452817 585.479151 413.310081 587.589215 400.966463 
C 589.69928 388.622844 590.760001 376.122645 590.76 363.599974 
L 546.408 363.599979 
C 546.408001 373.618116 545.559424 383.618275 543.871372 393.49317 
C 542.183321 403.368065 539.661853 413.082254 536.334021 422.531518 
z
"/>
   </g>
   <g id="patch_4">
    <path d="M 546.408 363.6 
C 546.408 345.502905 543.638918 327.511891 538.197017 310.252385 
C 532.755115 292.992878 524.704192 276.667222 514.324125 261.84295 
C 503.944057 247.018678 491.356537 233.869582 476.999145 222.852769 
C 462.641754 211.835956 446.682813 203.080581 429.677106 196.89101 
C 412.671399 190.70144 394.818294 187.150237 376.738424 186.360853 
C 358.658553 185.571469 340.563877 187.553159 323.083425 192.237032 
C 305.602974 196.920906 288.941681 204.252051 273.678746 213.975614 
C 258.415811 223.699177 244.730171 235.701162 233.097583 249.564341 
C 221.464995 263.427521 212.021834 278.989369 205.096377 295.708905 
C 198.170919 312.428441 193.844355 330.109653 192.26709 348.137883 
C 190.689825 366.166114 191.880351 384.330007 195.79728 401.998129 
C 199.714209 419.666251 206.311622 436.631466 215.360171 452.30401 
C 224.408719 467.976553 235.802322 482.172686 249.144901 494.398906 
C 262.48748 506.625125 277.622612 516.738096 294.024151 524.386257 
C 310.42569 532.034419 327.901351 537.128108 345.843623 539.490252 
C 363.785895 541.852395 381.984431 541.4553 399.80659 538.312771 
L 369 363.6 
z
" style="fill: #d62728"/>
   </g>
   <g id="patch_5">
    <path d="M 399.80659 538.312771 
C 440.872254 531.071783 478.098717 509.579071 504.902423 477.635652 
C 531.706129 445.692234 546.408004 405.299152 546.408 363.599983 
L 369 363.6 
z
" style="fill: #e377c2"/>
   </g>
   <g id="matplotlib.axis_1"/>
   <g id="matplotlib.axis_2"/>
  </g>
 </g>
</svg>
