<?xml version="1.0" encoding="utf-8" standalone="no"?>
<!DOCTYPE svg PUBLIC "-//W3C//DTD SVG 1.1//EN"
  "http://www.w3.org/Graphics/SVG/1.1/DTD/svg11.dtd">
<svg xmlns:xlink="http://www.w3.org/1999/xlink" width="720pt" height="720pt" viewBox="0 0 720 720" xmlns="http://www.w3.org/2000/svg" version="1.1">
 <metadata>
  <rdf:RDF xmlns:dc="http://purl.org/dc/elements/1.1/" xmlns:cc="http://creativecommons.org/ns#" xmlns:rdf="http://www.w3.org/1999/02/22-rdf-syntax-ns#">
   <cc:Work>
    <dc:type rdf:resource="http://purl.org/dc/dcmitype/StillImage"/>
    <dc:date>2024-10-24T16:56:30.538579</dc:date>
    <dc:format>image/svg+xml</dc:format>
    <dc:creator>
     <cc:Agent>
      <dc:title>Matplotlib v3.8.2, https://matplotlib.org/</dc:title>
     </cc:Agent>
    </dc:creator>
   </cc:Work>
  </rdf:RDF>
 </metadata>
 <defs>
  <style type="text/css">*{stroke-linejoin: round; stroke-linecap: butt}</style>
 </defs>
 <g id="figure_1">
  <g id="patch_1">
   <path d="M 0 720 
L 720 720 
L 720 0 
L 0 0 
L 0 720 
z
" style="fill: none"/>
  </g>
  <g id="axes_1">
   <g id="patch_2">
    <path d="M 590.76 363.6 
C 590.76 335.419495 585.388376 307.495553 574.933309 281.32625 
C 564.478241 255.156948 549.1301 231.218788 529.712291 210.796018 
C 510.294483 190.373248 487.160574 173.837735 461.551665 162.076585 
C 435.942757 150.315435 408.325148 143.5428 380.180482 142.122023 
C 352.035816 140.701245 323.876564 144.658195 297.213429 153.780588 
C 270.550293 162.90298 245.868769 177.024711 224.492983 195.38817 
C 203.117198 213.751629 185.436371 236.022446 172.399052 261.005824 
C 159.361734 285.989202 151.205315 313.230232 148.367374 341.267474 
C 145.529432 369.304716 148.061644 397.627654 155.828159 424.716804 
C 163.594674 451.805955 176.454076 477.168066 193.716478 499.442498 
C 210.978879 521.716931 232.329958 540.498101 256.62426 554.778427 
C 280.918563 569.058752 307.713727 578.578211 335.572232 582.826098 
C 363.430737 587.073984 391.845322 585.972952 419.291587 579.582068 
C 446.737851 573.191185 472.716042 561.626819 495.832465 545.509382 
C 518.948889 529.391945 538.782633 509.01491 554.269644 485.471476 
C 569.756656 461.928041 580.614941 435.646896 586.261969 408.037986 
L 542.809575 399.150389 
C 538.291953 421.237517 529.605325 442.262433 517.215715 461.09718 
C 504.826106 479.931928 488.959112 496.233556 470.465972 509.127506 
C 451.972833 522.021455 431.190281 531.272948 409.233269 536.385655 
C 387.276258 541.498361 364.54459 542.379188 342.257786 538.980878 
C 319.970982 535.582569 298.53485 527.967002 279.099408 516.542741 
C 259.663966 505.118481 242.583103 490.093545 228.773182 472.273999 
C 214.963261 454.454453 204.675739 434.164764 198.462527 412.493443 
C 192.249315 390.822123 190.223546 368.163772 192.493899 345.733979 
C 194.764252 323.304186 201.289388 301.511361 211.719242 281.524659 
C 222.149096 261.537957 236.293758 243.721303 253.394387 229.030536 
C 270.495015 214.339769 290.240235 203.042384 311.570743 195.74447 
C 332.901251 188.446556 355.428653 185.280996 377.944385 186.417618 
C 400.460118 187.55424 422.554206 192.972348 443.041332 202.381268 
C 463.528459 211.790188 482.035586 225.018598 497.569833 241.356814 
C 513.10408 257.69503 525.382593 276.845558 533.746647 297.781 
C 542.110701 318.716442 546.408 341.055596 546.408 363.6 
z
" style="opacity: 0.1"/>
   </g>
   <g id="patch_3">
    <path d="M 586.261969 408.037986 
C 587.75654 400.730872 588.881522 393.353008 589.632626 385.932529 
C 590.38373 378.51205 590.76 371.058401 590.76 363.600005 
L 546.408 363.600004 
C 546.408 369.566721 546.106984 375.52964 545.506101 381.466023 
C 544.905218 387.402406 544.005232 393.304697 542.809575 399.150389 
z
"/>
   </g>
   <g id="patch_4">
    <path d="M 546.408 363.6 
C 546.408 336.948961 540.402539 310.637315 528.839087 286.625558 
C 517.275635 262.613801 500.448707 241.513499 479.612086 224.896846 
C 458.775466 208.280194 434.459849 196.570408 408.477008 190.639992 
C 382.494166 184.709576 355.505867 184.709573 329.523025 190.639985 
C 303.540182 196.570396 279.224564 208.280177 258.38794 224.896826 
C 237.551316 241.513474 220.724384 262.613773 209.160927 286.625528 
C 197.597471 310.637283 191.592005 336.948928 191.592 363.599967 
C 191.591995 390.251006 197.597451 416.562653 209.160899 440.574412 
L 369 363.6 
z
" style="fill: #d62728"/>
   </g>
   <g id="patch_5">
    <path d="M 209.160899 440.574412 
C 226.59529 476.777319 255.822621 506.004662 292.02552 523.439069 
C 328.22842 540.873476 369.302218 545.50139 408.476959 536.560019 
C 447.651701 527.618648 482.649946 505.627803 507.703138 474.212106 
C 532.756331 442.796408 546.407992 403.782224 546.408 363.600033 
L 369 363.6 
z
" style="fill: #9edae5"/>
   </g>
   <g id="matplotlib.axis_1"/>
   <g id="matplotlib.axis_2"/>
  </g>
 </g>
</svg>
