<?xml version="1.0" encoding="utf-8" standalone="no"?>
<!DOCTYPE svg PUBLIC "-//W3C//DTD SVG 1.1//EN"
  "http://www.w3.org/Graphics/SVG/1.1/DTD/svg11.dtd">
<svg xmlns:xlink="http://www.w3.org/1999/xlink" width="720pt" height="720pt" viewBox="0 0 720 720" xmlns="http://www.w3.org/2000/svg" version="1.1">
 <metadata>
  <rdf:RDF xmlns:dc="http://purl.org/dc/elements/1.1/" xmlns:cc="http://creativecommons.org/ns#" xmlns:rdf="http://www.w3.org/1999/02/22-rdf-syntax-ns#">
   <cc:Work>
    <dc:type rdf:resource="http://purl.org/dc/dcmitype/StillImage"/>
    <dc:date>2024-10-24T16:56:30.612492</dc:date>
    <dc:format>image/svg+xml</dc:format>
    <dc:creator>
     <cc:Agent>
      <dc:title>Matplotlib v3.8.2, https://matplotlib.org/</dc:title>
     </cc:Agent>
    </dc:creator>
   </cc:Work>
  </rdf:RDF>
 </metadata>
 <defs>
  <style type="text/css">*{stroke-linejoin: round; stroke-linecap: butt}</style>
 </defs>
 <g id="figure_1">
  <g id="patch_1">
   <path d="M 0 720 
L 720 720 
L 720 0 
L 0 0 
L 0 720 
z
" style="fill: none"/>
  </g>
  <g id="axes_1">
   <g id="patch_2">
    <path d="M 590.76 363.6 
C 590.76 327.133444 581.765075 291.223691 564.57486 259.06306 
C 547.384644 226.902429 522.524088 199.473032 492.203255 179.213299 
C 461.882422 158.953566 427.027241 146.482183 390.736281 142.907835 
C 354.445322 139.333487 317.826827 144.765328 284.136122 158.720475 
C 250.445417 172.675622 220.71134 194.727916 197.577202 222.916945 
C 174.443064 251.105974 158.615328 284.570909 151.501056 320.33677 
C 144.386784 356.102631 146.203229 393.077212 156.788911 427.97353 
C 167.374594 462.869848 186.406251 494.622251 212.192 520.408 
L 243.5536 489.0464 
C 222.925001 468.417801 207.699675 443.015879 199.231129 415.098824 
C 190.762583 387.181769 189.309427 357.602105 195.000845 328.989416 
C 200.692263 300.376727 213.354451 273.604779 231.861761 251.053556 
C 250.369072 228.502333 274.156334 210.860497 301.108898 199.69638 
C 328.061461 188.532262 357.356257 184.18679 386.389025 187.046268 
C 415.421792 189.905746 443.305937 199.882853 467.562604 216.090639 
C 491.81927 232.298425 511.707715 254.241943 525.459888 279.970448 
C 539.21206 305.698953 546.408 334.426755 546.408 363.6 
z
" style="opacity: 0.1"/>
   </g>
   <g id="patch_3">
    <path d="M 212.192 520.408 
C 243.201981 551.41798 282.724692 572.543309 325.73677 581.098944 
C 368.748849 589.654578 413.347386 585.262006 453.863878 568.479525 
C 494.38037 551.697045 529.022316 523.267134 553.386701 486.803255 
C 577.751087 450.339375 590.76 407.454735 590.76 363.6 
L 546.408 363.6 
C 546.408 398.683788 536.000869 432.9915 516.509361 462.162604 
C 497.017853 491.333707 469.304296 514.077636 436.891102 527.50362 
C 404.477909 540.929604 368.799079 544.443663 334.389416 537.599155 
C 299.979753 530.754648 268.361585 513.854384 243.5536 489.0464 
z
"/>
   </g>
   <g id="patch_4">
    <path d="M 546.408 363.6 
C 546.408 340.302995 541.818998 317.232524 532.90362 295.708898 
C 523.988242 274.185271 510.91987 254.62707 494.4464 238.1536 
C 477.97293 221.68013 458.414729 208.611758 436.891102 199.69638 
C 415.367476 190.781002 392.297005 186.192 369 186.192 
C 345.702995 186.192 322.632524 190.781002 301.108898 199.69638 
C 279.585271 208.611758 260.02707 221.68013 243.5536 238.1536 
C 227.08013 254.62707 214.011758 274.185271 205.09638 295.708898 
C 196.181002 317.232524 191.592 340.302995 191.592 363.6 
C 191.592 386.897005 196.181002 409.967476 205.09638 431.491102 
C 214.011758 453.014729 227.08013 472.57293 243.5536 489.0464 
C 260.02707 505.51987 279.585271 518.588242 301.108898 527.50362 
C 322.632524 536.418998 345.702995 541.008 369 541.008 
C 392.297005 541.008 415.367476 536.418998 436.891102 527.50362 
C 458.414729 518.588242 477.97293 505.51987 494.4464 489.0464 
C 510.91987 472.57293 523.988242 453.014729 532.90362 431.491102 
C 541.818998 409.967476 546.408 386.897005 546.408 363.6 
M 369 363.6 
z
" style="fill: #9edae5"/>
   </g>
   <g id="matplotlib.axis_1"/>
   <g id="matplotlib.axis_2"/>
  </g>
 </g>
</svg>
