<?xml version="1.0" encoding="utf-8" standalone="no"?>
<!DOCTYPE svg PUBLIC "-//W3C//DTD SVG 1.1//EN"
  "http://www.w3.org/Graphics/SVG/1.1/DTD/svg11.dtd">
<svg xmlns:xlink="http://www.w3.org/1999/xlink" width="720pt" height="720pt" viewBox="0 0 720 720" xmlns="http://www.w3.org/2000/svg" version="1.1">
 <metadata>
  <rdf:RDF xmlns:dc="http://purl.org/dc/elements/1.1/" xmlns:cc="http://creativecommons.org/ns#" xmlns:rdf="http://www.w3.org/1999/02/22-rdf-syntax-ns#">
   <cc:Work>
    <dc:type rdf:resource="http://purl.org/dc/dcmitype/StillImage"/>
    <dc:date>2024-10-24T16:56:30.809857</dc:date>
    <dc:format>image/svg+xml</dc:format>
    <dc:creator>
     <cc:Agent>
      <dc:title>Matplotlib v3.8.2, https://matplotlib.org/</dc:title>
     </cc:Agent>
    </dc:creator>
   </cc:Work>
  </rdf:RDF>
 </metadata>
 <defs>
  <style type="text/css">*{stroke-linejoin: round; stroke-linecap: butt}</style>
 </defs>
 <g id="figure_1">
  <g id="patch_1">
   <path d="M 0 720 
L 720 720 
L 720 0 
L 0 0 
L 0 720 
z
" style="fill: none"/>
  </g>
  <g id="axes_1">
   <g id="patch_2">
    <path d="M 590.76 363.6 
C 590.76 339.798597 586.928109 316.151672 579.411635 293.568284 
C 571.895162 270.984896 560.791676 249.75819 546.528026 230.704185 
C 532.264377 211.65018 515.025716 195.016209 495.474749 181.44173 
C 475.923782 167.86725 454.314293 157.528469 431.477014 150.822839 
C 408.639734 144.117208 384.871108 141.131772 361.08487 141.9813 
C 337.298633 142.830827 313.803545 147.50429 291.502826 155.822028 
C 269.202108 164.139766 248.385237 175.993808 229.852475 190.92845 
C 211.319714 205.863093 195.311629 223.684475 182.443619 243.707489 
C 169.575608 263.730504 160.014707 285.695239 154.128465 308.757306 
C 148.242223 331.819374 146.107047 355.679412 147.805019 379.420173 
C 149.502991 403.160933 155.012071 426.474244 164.120473 448.463873 
C 173.228875 470.453503 185.818367 490.834011 201.404971 508.821912 
C 216.991575 526.809813 235.372967 542.171611 255.842512 554.316755 
C 276.312058 566.461898 298.604048 575.232735 321.861515 580.292088 
C 345.118981 585.35144 369.040027 586.633636 392.705055 584.089383 
C 416.370084 581.54513 439.471908 575.207454 461.122426 565.319994 
L 442.697941 524.975996 
C 425.377526 532.885963 406.896067 537.956104 387.964044 539.991506 
C 369.032021 542.026909 349.895185 541.001152 331.289212 536.95367 
C 312.683239 532.906188 294.849646 525.889519 278.47401 516.173404 
C 262.098373 506.457289 247.39326 494.16785 234.923977 479.77753 
C 222.454693 465.387209 212.3831 449.082802 205.096378 431.491099 
C 197.809657 413.899395 193.402393 395.248746 192.044015 376.256138 
C 190.685637 357.26353 192.393778 338.175499 197.102772 319.725845 
C 201.811766 301.276191 209.460486 283.704403 219.754895 267.685991 
C 230.049303 251.66758 242.855771 237.410474 257.68198 225.46276 
C 272.50819 213.515046 289.161686 204.031812 307.002261 197.377622 
C 324.842836 190.723432 343.638906 186.984662 362.667896 186.30504 
C 381.696886 185.625418 400.711788 188.013767 418.981611 193.378271 
C 437.251434 198.742775 454.539026 207.0138 470.179799 217.873384 
C 485.820573 228.732967 499.611501 242.040144 511.022421 257.283348 
C 522.43334 272.526552 531.31613 289.507916 537.329308 307.574627 
C 543.342487 325.641338 546.408 344.558877 546.408 363.6 
z
" style="opacity: 0.1"/>
   </g>
   <g id="patch_3">
    <path d="M 461.122426 565.319994 
C 499.788948 547.661587 532.57489 519.252409 555.556381 483.492511 
C 578.537873 447.732613 590.76 406.107873 590.76 363.6 
L 546.408 363.6 
C 546.408 397.606298 536.630298 430.906091 518.245105 459.514009 
C 499.859912 488.121927 473.631158 510.84927 442.697941 524.975996 
z
"/>
   </g>
   <g id="patch_4">
    <path d="M 546.408 363.6 
C 546.408 343.230329 542.899786 323.011992 536.037451 303.833049 
C 529.175116 284.654106 519.060625 266.799532 506.138244 251.053563 
C 493.215862 235.307593 477.677599 221.904194 460.20595 211.432089 
C 442.734302 200.959984 423.588873 193.574776 403.6106 189.600848 
C 383.632327 185.626921 363.118061 185.123322 342.968861 188.112171 
C 322.81966 191.10102 303.334917 197.537907 285.37047 207.140101 
C 267.406022 216.742294 251.2288 229.367119 237.549362 244.460047 
C 223.869925 259.552976 212.891532 276.889746 205.096393 295.708867 
C 197.301253 314.527988 192.805194 334.54983 191.805698 354.894965 
C 190.806201 375.240099 193.318118 395.606223 199.231117 415.098784 
C 205.144116 434.591345 214.370336 452.920709 226.504531 469.281786 
C 238.638726 485.642862 253.500595 499.792546 270.437355 511.109333 
C 287.374114 522.426121 306.134104 530.741859 325.89332 535.691291 
C 345.652536 540.640724 366.117381 542.150308 386.388967 540.153738 
C 406.660553 538.157167 426.43767 532.684109 444.851638 523.974959 
C 463.265605 515.265809 480.042815 503.449974 494.446353 489.046447 
L 369 363.6 
z
" style="fill: #7f7f7f"/>
   </g>
   <g id="patch_5">
    <path d="M 494.446353 489.046447 
C 510.919829 472.572983 523.988209 453.014787 532.903595 431.491164 
C 541.818981 409.967541 546.407991 386.897072 546.408 363.600066 
L 369 363.6 
z
" style="fill: #9edae5"/>
   </g>
   <g id="matplotlib.axis_1"/>
   <g id="matplotlib.axis_2"/>
  </g>
 </g>
</svg>
