<?xml version="1.0" encoding="utf-8" standalone="no"?>
<!DOCTYPE svg PUBLIC "-//W3C//DTD SVG 1.1//EN"
  "http://www.w3.org/Graphics/SVG/1.1/DTD/svg11.dtd">
<svg xmlns:xlink="http://www.w3.org/1999/xlink" width="720pt" height="720pt" viewBox="0 0 720 720" xmlns="http://www.w3.org/2000/svg" version="1.1">
 <metadata>
  <rdf:RDF xmlns:dc="http://purl.org/dc/elements/1.1/" xmlns:cc="http://creativecommons.org/ns#" xmlns:rdf="http://www.w3.org/1999/02/22-rdf-syntax-ns#">
   <cc:Work>
    <dc:type rdf:resource="http://purl.org/dc/dcmitype/StillImage"/>
    <dc:date>2024-10-24T16:56:30.982179</dc:date>
    <dc:format>image/svg+xml</dc:format>
    <dc:creator>
     <cc:Agent>
      <dc:title>Matplotlib v3.8.2, https://matplotlib.org/</dc:title>
     </cc:Agent>
    </dc:creator>
   </cc:Work>
  </rdf:RDF>
 </metadata>
 <defs>
  <style type="text/css">*{stroke-linejoin: round; stroke-linecap: butt}</style>
 </defs>
 <g id="figure_1">
  <g id="patch_1">
   <path d="M 0 720 
L 720 720 
L 720 0 
L 0 0 
L 0 720 
z
" style="fill: none"/>
  </g>
  <g id="axes_1">
   <g id="patch_2">
    <path d="M 590.76 363.6 
C 590.76 336.275437 585.709731 309.184729 575.864163 283.695583 
C 566.018594 258.206438 551.546251 234.755149 533.177787 214.525683 
C 514.809323 194.296218 492.859148 177.63484 468.435444 165.38272 
C 444.011741 153.130601 417.532564 145.497456 390.334749 142.868656 
C 363.136933 140.239856 335.686019 142.660397 309.367901 150.008075 
C 283.049782 157.355753 258.314941 169.504799 236.412146 185.841853 
C 214.509352 202.178908 195.813511 222.424332 181.268505 245.556011 
C 166.7235 268.687689 156.578294 294.309682 151.345082 321.12843 
C 146.11187 347.947178 145.880227 375.503629 150.661849 402.406563 
C 155.44347 429.309497 165.15651 455.09842 179.310592 478.471346 
C 193.464675 501.844273 211.817528 522.401133 233.442584 539.104087 
C 255.06764 555.807041 279.594748 568.370189 305.785625 576.159263 
C 331.976503 583.948338 359.382846 586.830015 386.62101 584.65881 
C 413.859175 582.487605 440.462931 575.300682 465.089154 563.460882 
C 489.715377 551.621081 511.942545 535.331063 530.648492 515.413249 
C 549.354438 495.495436 564.218977 472.290755 574.491653 446.970726 
L 533.393323 430.296581 
C 525.175182 450.552604 513.283551 469.116348 498.318793 485.050599 
C 483.354036 500.984851 465.572302 514.016865 445.871323 523.488705 
C 426.170345 532.960546 404.88734 538.710084 383.096808 540.447048 
C 361.306277 542.184012 339.381202 539.87867 318.4285 533.647411 
C 297.475798 527.416151 277.854112 517.365633 260.554067 504.00327 
C 243.254022 490.640906 228.57174 474.195418 217.248474 455.497077 
C 205.925208 436.798736 198.154776 416.167597 194.329479 394.64525 
C 190.504182 373.122903 190.689496 351.077742 194.876066 329.622744 
C 199.062635 308.167746 207.1788 287.670152 218.814804 269.164809 
C 230.450808 250.659466 245.407482 234.463126 262.929717 221.393483 
C 280.451953 208.323839 300.239826 198.604603 321.294321 192.72646 
C 342.348815 186.848318 364.309547 184.911885 386.067799 187.014925 
C 407.826051 189.117965 429.009392 195.22448 448.548355 205.026176 
C 468.087318 214.827872 485.647458 228.156974 500.34223 244.340547 
C 515.037001 260.524119 526.614875 279.285151 534.49133 299.676467 
C 542.367785 320.067783 546.408 341.74035 546.408 363.6 
z
" style="opacity: 0.1"/>
   </g>
   <g id="patch_3">
    <path d="M 574.491653 446.970726 
C 579.851283 433.760345 583.924567 420.063863 586.654923 406.071545 
C 589.385279 392.079227 590.760003 377.856168 590.76 363.599948 
L 546.408 363.599958 
C 546.408003 375.004934 545.308223 386.383382 543.123938 397.577236 
C 540.939654 408.77109 537.681026 419.728276 533.393323 430.296581 
z
"/>
   </g>
   <g id="patch_4">
    <path d="M 546.408 363.6 
C 546.408 334.426755 539.21206 305.698953 525.459888 279.970448 
C 511.707715 254.241943 491.81927 232.298425 467.562604 216.090639 
C 443.305937 199.882853 415.421792 189.905746 386.389025 187.046268 
C 357.356257 184.18679 328.061461 188.532262 301.108898 199.69638 
C 274.156334 210.860497 250.369072 228.502333 231.861761 251.053556 
C 213.354451 273.604779 200.692263 300.376727 195.000845 328.989416 
C 189.309427 357.602105 190.762583 387.181769 199.231129 415.098824 
C 207.699675 443.015879 222.925001 468.417801 243.5536 489.0464 
L 369 363.6 
z
" style="fill: #8c564b"/>
   </g>
   <g id="patch_5">
    <path d="M 243.5536 489.0464 
C 260.02707 505.51987 279.585271 518.588242 301.108898 527.50362 
C 322.632524 536.418998 345.702995 541.008 369 541.008 
L 369 363.6 
z
" style="fill: #c7c7c7"/>
   </g>
   <g id="patch_6">
    <path d="M 369 541.008 
C 392.297005 541.008 415.367476 536.418998 436.891102 527.50362 
C 458.414729 518.588242 477.97293 505.51987 494.4464 489.0464 
L 369 363.6 
z
" style="fill: #dbdb8d"/>
   </g>
   <g id="patch_7">
    <path d="M 494.4464 489.0464 
C 510.91987 472.57293 523.988242 453.014729 532.90362 431.491102 
C 541.818998 409.967476 546.408 386.897005 546.408 363.6 
L 369 363.6 
z
" style="fill: #9edae5"/>
   </g>
   <g id="matplotlib.axis_1"/>
   <g id="matplotlib.axis_2"/>
  </g>
 </g>
</svg>
