<?xml version="1.0" encoding="utf-8" standalone="no"?>
<!DOCTYPE svg PUBLIC "-//W3C//DTD SVG 1.1//EN"
  "http://www.w3.org/Graphics/SVG/1.1/DTD/svg11.dtd">
<svg xmlns:xlink="http://www.w3.org/1999/xlink" width="720pt" height="720pt" viewBox="0 0 720 720" xmlns="http://www.w3.org/2000/svg" version="1.1">
 <metadata>
  <rdf:RDF xmlns:dc="http://purl.org/dc/elements/1.1/" xmlns:cc="http://creativecommons.org/ns#" xmlns:rdf="http://www.w3.org/1999/02/22-rdf-syntax-ns#">
   <cc:Work>
    <dc:type rdf:resource="http://purl.org/dc/dcmitype/StillImage"/>
    <dc:date>2024-04-08T16:19:25.267557</dc:date>
    <dc:format>image/svg+xml</dc:format>
    <dc:creator>
     <cc:Agent>
      <dc:title>Matplotlib v3.8.2, https://matplotlib.org/</dc:title>
     </cc:Agent>
    </dc:creator>
   </cc:Work>
  </rdf:RDF>
 </metadata>
 <defs>
  <style type="text/css">*{stroke-linejoin: round; stroke-linecap: butt}</style>
 </defs>
 <g id="figure_1">
  <g id="patch_1">
   <path d="M 0 720 
L 720 720 
L 720 0 
L 0 0 
L 0 720 
z
" style="fill: none"/>
  </g>
  <g id="axes_1">
   <g id="patch_2">
    <path d="M 590.76 363.6 
C 590.76 340.007712 586.995146 316.565862 579.607665 294.160032 
C 572.220184 271.754203 561.304291 250.67014 547.272364 231.704352 
C 533.240437 212.738565 516.271428 196.132928 497.006389 182.514766 
C 477.74135 168.896604 456.425972 158.439592 433.865503 151.538773 
C 411.305034 144.637954 387.787192 141.381335 364.20043 141.891945 
C 340.613668 142.402555 317.258792 146.673881 295.018099 154.544563 
C 272.777405 162.415244 251.934534 173.784905 233.276884 188.224023 
C 214.619233 202.663141 198.384747 219.987573 185.18673 239.542838 
C 171.988713 259.098104 161.995481 280.634811 155.584556 303.33935 
C 149.173632 326.04389 146.426774 349.626706 147.447755 373.196892 
C 148.468736 396.767078 153.244533 420.024039 161.594728 442.089176 
C 169.944923 464.154314 181.763024 484.746228 196.60257 503.087002 
C 211.442115 521.427775 229.113853 537.283504 248.950183 550.055193 
C 268.786514 562.826883 290.534461 572.351653 313.372434 578.26968 
C 336.210408 584.187707 359.84715 586.423515 383.389718 584.892642 
C 406.932286 583.36177 430.080436 578.083738 451.959681 569.257942 
L 435.367745 528.126353 
C 417.864348 535.186991 399.345829 539.409416 380.511774 540.634114 
C 361.67772 541.858812 342.768326 540.070165 324.497947 535.335744 
C 306.227569 530.601323 288.829211 522.981506 272.960147 512.764155 
C 257.091082 502.546803 242.953692 489.86222 231.082056 475.189601 
C 219.21042 460.516983 209.755939 444.043451 203.075783 426.391341 
C 196.395626 408.739231 192.574988 390.133663 191.758204 371.277514 
C 190.94142 352.421365 193.138905 333.555112 198.267645 315.39148 
C 203.396384 297.227849 211.39097 279.998483 221.949384 264.354271 
C 232.507798 248.710058 245.495386 234.850513 260.421507 223.299218 
C 275.347627 211.747924 292.021924 202.652195 309.814479 196.35565 
C 327.607034 190.059105 346.290934 186.642044 365.160344 186.233556 
C 384.029753 185.825068 402.844027 188.430363 420.892402 193.951018 
C 438.940777 199.471673 455.99308 207.837283 471.405111 218.731813 
C 486.817142 229.626342 500.392349 242.910852 511.617891 258.083482 
C 522.843433 273.256112 531.576147 290.123362 537.486132 308.048026 
C 543.396117 325.97269 546.408 344.726169 546.408 363.6 
z
" style="opacity: 0.1; stroke: #ffffff; stroke-linejoin: miter"/>
   </g>
   <g id="patch_3">
    <path d="M 451.959681 569.257942 
C 492.954925 552.721005 528.084068 524.297969 552.813258 487.657179 
C 577.542449 451.016389 590.759992 407.805023 590.76 363.600042 
L 546.408 363.600033 
C 546.407993 398.964018 535.833959 433.533111 516.050607 462.845743 
C 496.267254 492.158375 468.16394 514.896804 435.367745 528.126353 
z
" style="stroke: #ffffff; stroke-linejoin: miter"/>
   </g>
   <g id="patch_4">
    <path d="M 546.408 363.6 
C 546.408 334.426755 539.21206 305.698953 525.459888 279.970448 
C 511.707715 254.241943 491.81927 232.298425 467.562604 216.090639 
C 443.305937 199.882853 415.421792 189.905746 386.389025 187.046268 
C 357.356257 184.18679 328.061461 188.532262 301.108898 199.69638 
C 274.156334 210.860497 250.369072 228.502333 231.861761 251.053556 
C 213.354451 273.604779 200.692263 300.376727 195.000845 328.989416 
C 189.309427 357.602105 190.762583 387.181769 199.231129 415.098824 
C 207.699675 443.015879 222.925001 468.417801 243.5536 489.0464 
L 369 363.6 
z
" style="fill: #2ca02c"/>
   </g>
   <g id="patch_5">
    <path d="M 243.5536 489.0464 
C 260.027069 505.519869 279.585269 518.588241 301.108894 527.503619 
C 322.632518 536.418996 345.702988 541.007999 368.999992 541.008 
L 369 363.6 
z
" style="fill: #ff7f0e"/>
   </g>
   <g id="patch_6">
    <path d="M 368.999992 541.008 
C 384.503832 541.008001 399.940998 538.97566 414.916558 534.962972 
C 429.892119 530.950284 444.277268 524.991761 457.703988 517.239842 
L 369 363.6 
z
" style="fill: #ff9896"/>
   </g>
   <g id="patch_7">
    <path d="M 457.703988 517.239842 
C 484.671404 501.6702 507.070178 479.27143 522.639825 452.304017 
C 538.209472 425.336604 546.407996 394.739313 546.408 363.600025 
L 369 363.6 
z
" style="fill: #9edae5"/>
   </g>
   <g id="matplotlib.axis_1"/>
   <g id="matplotlib.axis_2"/>
   <g id="legend_1">
    <g id="patch_8">
     <path d="M 284.18 146.17 
L 635 146.17 
Q 638.2 146.17 638.2 142.97 
L 638.2 97.6 
Q 638.2 94.4 635 94.4 
L 284.18 94.4 
Q 280.98 94.4 280.98 97.6 
L 280.98 142.97 
Q 280.98 146.17 284.18 146.17 
z
" style="fill: #ffffff; opacity: 0.8; stroke: #cccccc; stroke-linejoin: miter"/>
    </g>
    <g id="patch_9">
     <path d="M 287.38 112.9575 
L 304.98 112.9575 
L 304.98 101.7575 
L 287.38 101.7575 
z
"/>
    </g>
    <g id="patch_10">
     <path d="M 287.38 136.4425 
L 304.98 136.4425 
L 304.98 125.2425 
L 287.38 125.2425 
z
" style="fill: #2ca02c"/>
    </g>
    <g id="patch_11">
     <path d="M 304.98 112.9575 
L 322.58 112.9575 
L 322.58 101.7575 
L 304.98 101.7575 
z
"/>
    </g>
    <g id="patch_12">
     <path d="M 304.98 136.4425 
L 322.58 136.4425 
L 322.58 125.2425 
L 304.98 125.2425 
z
" style="fill: #ff7f0e"/>
    </g>
    <g id="patch_13">
     <path d="M 322.58 112.9575 
L 340.18 112.9575 
L 340.18 101.7575 
L 322.58 101.7575 
z
" style="opacity: 0.1"/>
    </g>
    <g id="patch_14">
     <path d="M 322.58 136.4425 
L 340.18 136.4425 
L 340.18 125.2425 
L 322.58 125.2425 
z
" style="fill: #ff9896"/>
    </g>
    <g id="patch_15">
     <path d="M 340.18 112.9575 
L 357.78 112.9575 
L 357.78 101.7575 
L 340.18 101.7575 
z
" style="opacity: 0.1"/>
    </g>
    <g id="text_1">
     <!--                                                      -->
     <g transform="translate(367.38 112.9575) scale(0.16 -0.16)">
      <defs>
       <path id="DejaVuSans-20" transform="scale(0.015625)"/>
      </defs>
      <use xlink:href="#DejaVuSans-20"/>
      <use xlink:href="#DejaVuSans-20" x="31.787109"/>
      <use xlink:href="#DejaVuSans-20" x="63.574219"/>
      <use xlink:href="#DejaVuSans-20" x="95.361328"/>
      <use xlink:href="#DejaVuSans-20" x="127.148438"/>
      <use xlink:href="#DejaVuSans-20" x="158.935547"/>
      <use xlink:href="#DejaVuSans-20" x="190.722656"/>
      <use xlink:href="#DejaVuSans-20" x="222.509766"/>
      <use xlink:href="#DejaVuSans-20" x="254.296875"/>
      <use xlink:href="#DejaVuSans-20" x="286.083984"/>
      <use xlink:href="#DejaVuSans-20" x="317.871094"/>
      <use xlink:href="#DejaVuSans-20" x="349.658203"/>
      <use xlink:href="#DejaVuSans-20" x="381.445312"/>
      <use xlink:href="#DejaVuSans-20" x="413.232422"/>
      <use xlink:href="#DejaVuSans-20" x="445.019531"/>
      <use xlink:href="#DejaVuSans-20" x="476.806641"/>
      <use xlink:href="#DejaVuSans-20" x="508.59375"/>
      <use xlink:href="#DejaVuSans-20" x="540.380859"/>
      <use xlink:href="#DejaVuSans-20" x="572.167969"/>
      <use xlink:href="#DejaVuSans-20" x="603.955078"/>
      <use xlink:href="#DejaVuSans-20" x="635.742188"/>
      <use xlink:href="#DejaVuSans-20" x="667.529297"/>
      <use xlink:href="#DejaVuSans-20" x="699.316406"/>
      <use xlink:href="#DejaVuSans-20" x="731.103516"/>
      <use xlink:href="#DejaVuSans-20" x="762.890625"/>
      <use xlink:href="#DejaVuSans-20" x="794.677734"/>
      <use xlink:href="#DejaVuSans-20" x="826.464844"/>
      <use xlink:href="#DejaVuSans-20" x="858.251953"/>
      <use xlink:href="#DejaVuSans-20" x="890.039062"/>
      <use xlink:href="#DejaVuSans-20" x="921.826172"/>
      <use xlink:href="#DejaVuSans-20" x="953.613281"/>
      <use xlink:href="#DejaVuSans-20" x="985.400391"/>
      <use xlink:href="#DejaVuSans-20" x="1017.1875"/>
      <use xlink:href="#DejaVuSans-20" x="1048.974609"/>
      <use xlink:href="#DejaVuSans-20" x="1080.761719"/>
      <use xlink:href="#DejaVuSans-20" x="1112.548828"/>
      <use xlink:href="#DejaVuSans-20" x="1144.335938"/>
      <use xlink:href="#DejaVuSans-20" x="1176.123047"/>
      <use xlink:href="#DejaVuSans-20" x="1207.910156"/>
      <use xlink:href="#DejaVuSans-20" x="1239.697266"/>
      <use xlink:href="#DejaVuSans-20" x="1271.484375"/>
      <use xlink:href="#DejaVuSans-20" x="1303.271484"/>
      <use xlink:href="#DejaVuSans-20" x="1335.058594"/>
      <use xlink:href="#DejaVuSans-20" x="1366.845703"/>
      <use xlink:href="#DejaVuSans-20" x="1398.632812"/>
      <use xlink:href="#DejaVuSans-20" x="1430.419922"/>
      <use xlink:href="#DejaVuSans-20" x="1462.207031"/>
      <use xlink:href="#DejaVuSans-20" x="1493.994141"/>
      <use xlink:href="#DejaVuSans-20" x="1525.78125"/>
      <use xlink:href="#DejaVuSans-20" x="1557.568359"/>
      <use xlink:href="#DejaVuSans-20" x="1589.355469"/>
      <use xlink:href="#DejaVuSans-20" x="1621.142578"/>
     </g>
    </g>
    <g id="patch_16">
     <path d="M 340.18 136.4425 
L 357.78 136.4425 
L 357.78 125.2425 
L 340.18 125.2425 
z
" style="fill: #9edae5"/>
    </g>
    <g id="text_2">
     <!--                                                     -->
     <g transform="translate(367.38 136.4425) scale(0.16 -0.16)">
      <use xlink:href="#DejaVuSans-20"/>
      <use xlink:href="#DejaVuSans-20" x="31.787109"/>
      <use xlink:href="#DejaVuSans-20" x="63.574219"/>
      <use xlink:href="#DejaVuSans-20" x="95.361328"/>
      <use xlink:href="#DejaVuSans-20" x="127.148438"/>
      <use xlink:href="#DejaVuSans-20" x="158.935547"/>
      <use xlink:href="#DejaVuSans-20" x="190.722656"/>
      <use xlink:href="#DejaVuSans-20" x="222.509766"/>
      <use xlink:href="#DejaVuSans-20" x="254.296875"/>
      <use xlink:href="#DejaVuSans-20" x="286.083984"/>
      <use xlink:href="#DejaVuSans-20" x="317.871094"/>
      <use xlink:href="#DejaVuSans-20" x="349.658203"/>
      <use xlink:href="#DejaVuSans-20" x="381.445312"/>
      <use xlink:href="#DejaVuSans-20" x="413.232422"/>
      <use xlink:href="#DejaVuSans-20" x="445.019531"/>
      <use xlink:href="#DejaVuSans-20" x="476.806641"/>
      <use xlink:href="#DejaVuSans-20" x="508.59375"/>
      <use xlink:href="#DejaVuSans-20" x="540.380859"/>
      <use xlink:href="#DejaVuSans-20" x="572.167969"/>
      <use xlink:href="#DejaVuSans-20" x="603.955078"/>
      <use xlink:href="#DejaVuSans-20" x="635.742188"/>
      <use xlink:href="#DejaVuSans-20" x="667.529297"/>
      <use xlink:href="#DejaVuSans-20" x="699.316406"/>
      <use xlink:href="#DejaVuSans-20" x="731.103516"/>
      <use xlink:href="#DejaVuSans-20" x="762.890625"/>
      <use xlink:href="#DejaVuSans-20" x="794.677734"/>
      <use xlink:href="#DejaVuSans-20" x="826.464844"/>
      <use xlink:href="#DejaVuSans-20" x="858.251953"/>
      <use xlink:href="#DejaVuSans-20" x="890.039062"/>
      <use xlink:href="#DejaVuSans-20" x="921.826172"/>
      <use xlink:href="#DejaVuSans-20" x="953.613281"/>
      <use xlink:href="#DejaVuSans-20" x="985.400391"/>
      <use xlink:href="#DejaVuSans-20" x="1017.1875"/>
      <use xlink:href="#DejaVuSans-20" x="1048.974609"/>
      <use xlink:href="#DejaVuSans-20" x="1080.761719"/>
      <use xlink:href="#DejaVuSans-20" x="1112.548828"/>
      <use xlink:href="#DejaVuSans-20" x="1144.335938"/>
      <use xlink:href="#DejaVuSans-20" x="1176.123047"/>
      <use xlink:href="#DejaVuSans-20" x="1207.910156"/>
      <use xlink:href="#DejaVuSans-20" x="1239.697266"/>
      <use xlink:href="#DejaVuSans-20" x="1271.484375"/>
      <use xlink:href="#DejaVuSans-20" x="1303.271484"/>
      <use xlink:href="#DejaVuSans-20" x="1335.058594"/>
      <use xlink:href="#DejaVuSans-20" x="1366.845703"/>
      <use xlink:href="#DejaVuSans-20" x="1398.632812"/>
      <use xlink:href="#DejaVuSans-20" x="1430.419922"/>
      <use xlink:href="#DejaVuSans-20" x="1462.207031"/>
      <use xlink:href="#DejaVuSans-20" x="1493.994141"/>
      <use xlink:href="#DejaVuSans-20" x="1525.78125"/>
      <use xlink:href="#DejaVuSans-20" x="1557.568359"/>
      <use xlink:href="#DejaVuSans-20" x="1589.355469"/>
     </g>
    </g>
   </g>
  </g>
 </g>
</svg>
