<?xml version="1.0" encoding="utf-8" standalone="no"?>
<!DOCTYPE svg PUBLIC "-//W3C//DTD SVG 1.1//EN"
  "http://www.w3.org/Graphics/SVG/1.1/DTD/svg11.dtd">
<svg xmlns:xlink="http://www.w3.org/1999/xlink" width="720pt" height="720pt" viewBox="0 0 720 720" xmlns="http://www.w3.org/2000/svg" version="1.1">
 <metadata>
  <rdf:RDF xmlns:dc="http://purl.org/dc/elements/1.1/" xmlns:cc="http://creativecommons.org/ns#" xmlns:rdf="http://www.w3.org/1999/02/22-rdf-syntax-ns#">
   <cc:Work>
    <dc:type rdf:resource="http://purl.org/dc/dcmitype/StillImage"/>
    <dc:date>2024-03-06T10:07:03.145229</dc:date>
    <dc:format>image/svg+xml</dc:format>
    <dc:creator>
     <cc:Agent>
      <dc:title>Matplotlib v3.8.2, https://matplotlib.org/</dc:title>
     </cc:Agent>
    </dc:creator>
   </cc:Work>
  </rdf:RDF>
 </metadata>
 <defs>
  <style type="text/css">*{stroke-linejoin: round; stroke-linecap: butt}</style>
 </defs>
 <g id="figure_1">
  <g id="patch_1">
   <path d="M 0 720 
L 720 720 
L 720 0 
L 0 0 
L 0 720 
z
" style="fill: none"/>
  </g>
  <g id="axes_1">
   <g id="patch_2">
    <path d="M 590.76 363.6 
C 590.76 340.007712 586.995146 316.565862 579.607665 294.160032 
C 572.220184 271.754203 561.304291 250.67014 547.272364 231.704352 
C 533.240437 212.738565 516.271428 196.132928 497.006389 182.514766 
C 477.74135 168.896604 456.425972 158.439592 433.865503 151.538773 
C 411.305034 144.637954 387.787192 141.381335 364.20043 141.891945 
C 340.613668 142.402555 317.258792 146.673881 295.018099 154.544563 
C 272.777405 162.415244 251.934534 173.784905 233.276884 188.224023 
C 214.619233 202.663141 198.384747 219.987573 185.18673 239.542838 
C 171.988713 259.098104 161.995481 280.634811 155.584556 303.33935 
C 149.173632 326.04389 146.426774 349.626706 147.447755 373.196892 
C 148.468736 396.767078 153.244533 420.024039 161.594728 442.089176 
C 169.944923 464.154314 181.763024 484.746228 196.60257 503.087002 
C 211.442115 521.427775 229.113853 537.283504 248.950183 550.055193 
C 268.786514 562.826883 290.534461 572.351653 313.372434 578.26968 
C 336.210408 584.187707 359.84715 586.423515 383.389718 584.892642 
C 406.932286 583.36177 430.080436 578.083738 451.959681 569.257942 
L 435.367745 528.126353 
C 417.864348 535.186991 399.345829 539.409416 380.511774 540.634114 
C 361.67772 541.858812 342.768326 540.070165 324.497947 535.335744 
C 306.227569 530.601323 288.829211 522.981506 272.960147 512.764155 
C 257.091082 502.546803 242.953692 489.86222 231.082056 475.189601 
C 219.21042 460.516983 209.755939 444.043451 203.075783 426.391341 
C 196.395626 408.739231 192.574988 390.133663 191.758204 371.277514 
C 190.94142 352.421365 193.138905 333.555112 198.267645 315.39148 
C 203.396384 297.227849 211.39097 279.998483 221.949384 264.354271 
C 232.507798 248.710058 245.495386 234.850513 260.421507 223.299218 
C 275.347627 211.747924 292.021924 202.652195 309.814479 196.35565 
C 327.607034 190.059105 346.290934 186.642044 365.160344 186.233556 
C 384.029753 185.825068 402.844027 188.430363 420.892402 193.951018 
C 438.940777 199.471673 455.99308 207.837283 471.405111 218.731813 
C 486.817142 229.626342 500.392349 242.910852 511.617891 258.083482 
C 522.843433 273.256112 531.576147 290.123362 537.486132 308.048026 
C 543.396117 325.97269 546.408 344.726169 546.408 363.6 
L 590.76 363.6 
z
" style="fill: none; opacity: 0"/>
   </g>
   <g id="patch_3">
    <path d="M 451.959681 569.257942 
C 492.954925 552.721005 528.084068 524.297969 552.813258 487.657179 
C 577.542449 451.016389 590.759992 407.805023 590.76 363.600042 
L 546.408 363.600033 
C 546.407993 398.964018 535.833959 433.533111 516.050607 462.845743 
C 496.267254 492.158375 468.16394 514.896804 435.367745 528.126353 
z
" style="stroke: #ffffff; stroke-linejoin: miter"/>
   </g>
   <g id="patch_4">
    <path d="M 546.408 363.6 
C 546.408 334.426755 539.21206 305.698953 525.459888 279.970448 
C 511.707715 254.241943 491.81927 232.298425 467.562604 216.090639 
C 443.305937 199.882853 415.421792 189.905746 386.389025 187.046268 
C 357.356257 184.18679 328.061461 188.532262 301.108898 199.69638 
C 274.156334 210.860497 250.369072 228.502333 231.861761 251.053556 
C 213.354451 273.604779 200.692263 300.376727 195.000845 328.989416 
C 189.309427 357.602105 190.762583 387.181769 199.231129 415.098824 
C 207.699675 443.015879 222.925001 468.417801 243.5536 489.0464 
L 369 363.6 
z
" style="fill: #2ca02c; stroke: #ffffff; stroke-linejoin: miter"/>
   </g>
   <g id="patch_5">
    <path d="M 243.5536 489.0464 
C 260.027069 505.519869 279.585269 518.588241 301.108894 527.503619 
C 322.632518 536.418996 345.702988 541.007999 368.999992 541.008 
L 369 363.6 
z
" style="fill: #ff7f0e; stroke: #ffffff; stroke-linejoin: miter"/>
   </g>
   <g id="patch_6">
    <path d="M 368.999992 541.008 
C 384.503832 541.008001 399.940998 538.97566 414.916558 534.962972 
C 429.892119 530.950284 444.277268 524.991761 457.703988 517.239842 
L 369 363.6 
z
" style="fill: #ff9896; stroke: #ffffff; stroke-linejoin: miter"/>
   </g>
   <g id="patch_7">
    <path d="M 457.703988 517.239842 
C 484.671404 501.6702 507.070178 479.27143 522.639825 452.304017 
C 538.209472 425.336604 546.407996 394.739313 546.408 363.600025 
L 369 363.6 
z
" style="fill: #9edae5; stroke: #ffffff; stroke-linejoin: miter"/>
   </g>
   <g id="matplotlib.axis_1"/>
   <g id="matplotlib.axis_2"/>
   <g id="legend_1">
    <g id="patch_8">
     <path d="M 286.915 149.01 
L 635 149.01 
Q 638.2 149.01 638.2 145.81 
L 638.2 97.6 
Q 638.2 94.4 635 94.4 
L 286.915 94.4 
Q 283.715 94.4 283.715 97.6 
L 283.715 145.81 
Q 283.715 149.01 286.915 149.01 
z
" style="fill: #ffffff; opacity: 0.8; stroke: #cccccc; stroke-linejoin: miter"/>
    </g>
    <g id="patch_9">
     <path d="M 290.115 114.3775 
L 307.715 114.3775 
L 307.715 103.1775 
L 290.115 103.1775 
z
" style="stroke: #000000; stroke-linejoin: miter"/>
    </g>
    <g id="patch_10">
     <path d="M 290.115 137.8625 
L 307.715 137.8625 
L 307.715 126.6625 
L 290.115 126.6625 
z
" style="fill: #2ca02c; stroke: #000000; stroke-linejoin: miter"/>
    </g>
    <g id="patch_11">
     <path d="M 307.715 114.3775 
L 325.315 114.3775 
L 325.315 103.1775 
L 307.715 103.1775 
z
" style="stroke: #000000; stroke-linejoin: miter"/>
    </g>
    <g id="patch_12">
     <path d="M 307.715 137.8625 
L 325.315 137.8625 
L 325.315 126.6625 
L 307.715 126.6625 
z
" style="fill: #ff7f0e; stroke: #000000; stroke-linejoin: miter"/>
    </g>
    <g id="patch_13">
     <path d="M 325.315 114.3775 
L 342.915 114.3775 
L 342.915 103.1775 
L 325.315 103.1775 
z
" style="stroke: #000000; stroke-linejoin: miter"/>
    </g>
    <g id="patch_14">
     <path d="M 325.315 137.8625 
L 342.915 137.8625 
L 342.915 126.6625 
L 325.315 126.6625 
z
" style="fill: #ff9896; stroke: #000000; stroke-linejoin: miter"/>
    </g>
    <g id="patch_15">
     <path d="M 342.915 114.3775 
L 360.515 114.3775 
L 360.515 103.1775 
L 342.915 103.1775 
z
" style="stroke: #000000; stroke-linejoin: miter"/>
    </g>
    <g id="text_1">
     <!-- poměr zastoupení dalších jazyků -->
     <g transform="translate(370.115 114.3775) scale(0.16 -0.16)">
      <defs>
       <path id="DejaVuSans-70" d="M 1159 525 
L 1159 -1331 
L 581 -1331 
L 581 3500 
L 1159 3500 
L 1159 2969 
Q 1341 3281 1617 3432 
Q 1894 3584 2278 3584 
Q 2916 3584 3314 3078 
Q 3713 2572 3713 1747 
Q 3713 922 3314 415 
Q 2916 -91 2278 -91 
Q 1894 -91 1617 61 
Q 1341 213 1159 525 
z
M 3116 1747 
Q 3116 2381 2855 2742 
Q 2594 3103 2138 3103 
Q 1681 3103 1420 2742 
Q 1159 2381 1159 1747 
Q 1159 1113 1420 752 
Q 1681 391 2138 391 
Q 2594 391 2855 752 
Q 3116 1113 3116 1747 
z
" transform="scale(0.015625)"/>
       <path id="DejaVuSans-6f" d="M 1959 3097 
Q 1497 3097 1228 2736 
Q 959 2375 959 1747 
Q 959 1119 1226 758 
Q 1494 397 1959 397 
Q 2419 397 2687 759 
Q 2956 1122 2956 1747 
Q 2956 2369 2687 2733 
Q 2419 3097 1959 3097 
z
M 1959 3584 
Q 2709 3584 3137 3096 
Q 3566 2609 3566 1747 
Q 3566 888 3137 398 
Q 2709 -91 1959 -91 
Q 1206 -91 779 398 
Q 353 888 353 1747 
Q 353 2609 779 3096 
Q 1206 3584 1959 3584 
z
" transform="scale(0.015625)"/>
       <path id="DejaVuSans-6d" d="M 3328 2828 
Q 3544 3216 3844 3400 
Q 4144 3584 4550 3584 
Q 5097 3584 5394 3201 
Q 5691 2819 5691 2113 
L 5691 0 
L 5113 0 
L 5113 2094 
Q 5113 2597 4934 2840 
Q 4756 3084 4391 3084 
Q 3944 3084 3684 2787 
Q 3425 2491 3425 1978 
L 3425 0 
L 2847 0 
L 2847 2094 
Q 2847 2600 2669 2842 
Q 2491 3084 2119 3084 
Q 1678 3084 1418 2786 
Q 1159 2488 1159 1978 
L 1159 0 
L 581 0 
L 581 3500 
L 1159 3500 
L 1159 2956 
Q 1356 3278 1631 3431 
Q 1906 3584 2284 3584 
Q 2666 3584 2933 3390 
Q 3200 3197 3328 2828 
z
" transform="scale(0.015625)"/>
       <path id="DejaVuSans-11b" d="M 3597 1894 
L 3597 1613 
L 953 1613 
Q 991 1019 1311 708 
Q 1631 397 2203 397 
Q 2534 397 2845 478 
Q 3156 559 3463 722 
L 3463 178 
Q 3153 47 2828 -22 
Q 2503 -91 2169 -91 
Q 1331 -91 842 396 
Q 353 884 353 1716 
Q 353 2575 817 3079 
Q 1281 3584 2069 3584 
Q 2775 3584 3186 3129 
Q 3597 2675 3597 1894 
z
M 3022 2063 
Q 3016 2534 2758 2815 
Q 2500 3097 2075 3097 
Q 1594 3097 1305 2825 
Q 1016 2553 972 2059 
L 3022 2063 
z
M 1831 3928 
L 1066 5103 
L 1500 5103 
L 2063 4337 
L 2625 5103 
L 3059 5103 
L 2294 3928 
L 1831 3928 
z
" transform="scale(0.015625)"/>
       <path id="DejaVuSans-72" d="M 2631 2963 
Q 2534 3019 2420 3045 
Q 2306 3072 2169 3072 
Q 1681 3072 1420 2755 
Q 1159 2438 1159 1844 
L 1159 0 
L 581 0 
L 581 3500 
L 1159 3500 
L 1159 2956 
Q 1341 3275 1631 3429 
Q 1922 3584 2338 3584 
Q 2397 3584 2469 3576 
Q 2541 3569 2628 3553 
L 2631 2963 
z
" transform="scale(0.015625)"/>
       <path id="DejaVuSans-20" transform="scale(0.015625)"/>
       <path id="DejaVuSans-7a" d="M 353 3500 
L 3084 3500 
L 3084 2975 
L 922 459 
L 3084 459 
L 3084 0 
L 275 0 
L 275 525 
L 2438 3041 
L 353 3041 
L 353 3500 
z
" transform="scale(0.015625)"/>
       <path id="DejaVuSans-61" d="M 2194 1759 
Q 1497 1759 1228 1600 
Q 959 1441 959 1056 
Q 959 750 1161 570 
Q 1363 391 1709 391 
Q 2188 391 2477 730 
Q 2766 1069 2766 1631 
L 2766 1759 
L 2194 1759 
z
M 3341 1997 
L 3341 0 
L 2766 0 
L 2766 531 
Q 2569 213 2275 61 
Q 1981 -91 1556 -91 
Q 1019 -91 701 211 
Q 384 513 384 1019 
Q 384 1609 779 1909 
Q 1175 2209 1959 2209 
L 2766 2209 
L 2766 2266 
Q 2766 2663 2505 2880 
Q 2244 3097 1772 3097 
Q 1472 3097 1187 3025 
Q 903 2953 641 2809 
L 641 3341 
Q 956 3463 1253 3523 
Q 1550 3584 1831 3584 
Q 2591 3584 2966 3190 
Q 3341 2797 3341 1997 
z
" transform="scale(0.015625)"/>
       <path id="DejaVuSans-73" d="M 2834 3397 
L 2834 2853 
Q 2591 2978 2328 3040 
Q 2066 3103 1784 3103 
Q 1356 3103 1142 2972 
Q 928 2841 928 2578 
Q 928 2378 1081 2264 
Q 1234 2150 1697 2047 
L 1894 2003 
Q 2506 1872 2764 1633 
Q 3022 1394 3022 966 
Q 3022 478 2636 193 
Q 2250 -91 1575 -91 
Q 1294 -91 989 -36 
Q 684 19 347 128 
L 347 722 
Q 666 556 975 473 
Q 1284 391 1588 391 
Q 1994 391 2212 530 
Q 2431 669 2431 922 
Q 2431 1156 2273 1281 
Q 2116 1406 1581 1522 
L 1381 1569 
Q 847 1681 609 1914 
Q 372 2147 372 2553 
Q 372 3047 722 3315 
Q 1072 3584 1716 3584 
Q 2034 3584 2315 3537 
Q 2597 3491 2834 3397 
z
" transform="scale(0.015625)"/>
       <path id="DejaVuSans-74" d="M 1172 4494 
L 1172 3500 
L 2356 3500 
L 2356 3053 
L 1172 3053 
L 1172 1153 
Q 1172 725 1289 603 
Q 1406 481 1766 481 
L 2356 481 
L 2356 0 
L 1766 0 
Q 1100 0 847 248 
Q 594 497 594 1153 
L 594 3053 
L 172 3053 
L 172 3500 
L 594 3500 
L 594 4494 
L 1172 4494 
z
" transform="scale(0.015625)"/>
       <path id="DejaVuSans-75" d="M 544 1381 
L 544 3500 
L 1119 3500 
L 1119 1403 
Q 1119 906 1312 657 
Q 1506 409 1894 409 
Q 2359 409 2629 706 
Q 2900 1003 2900 1516 
L 2900 3500 
L 3475 3500 
L 3475 0 
L 2900 0 
L 2900 538 
Q 2691 219 2414 64 
Q 2138 -91 1772 -91 
Q 1169 -91 856 284 
Q 544 659 544 1381 
z
M 1991 3584 
L 1991 3584 
z
" transform="scale(0.015625)"/>
       <path id="DejaVuSans-65" d="M 3597 1894 
L 3597 1613 
L 953 1613 
Q 991 1019 1311 708 
Q 1631 397 2203 397 
Q 2534 397 2845 478 
Q 3156 559 3463 722 
L 3463 178 
Q 3153 47 2828 -22 
Q 2503 -91 2169 -91 
Q 1331 -91 842 396 
Q 353 884 353 1716 
Q 353 2575 817 3079 
Q 1281 3584 2069 3584 
Q 2775 3584 3186 3129 
Q 3597 2675 3597 1894 
z
M 3022 2063 
Q 3016 2534 2758 2815 
Q 2500 3097 2075 3097 
Q 1594 3097 1305 2825 
Q 1016 2553 972 2059 
L 3022 2063 
z
" transform="scale(0.015625)"/>
       <path id="DejaVuSans-6e" d="M 3513 2113 
L 3513 0 
L 2938 0 
L 2938 2094 
Q 2938 2591 2744 2837 
Q 2550 3084 2163 3084 
Q 1697 3084 1428 2787 
Q 1159 2491 1159 1978 
L 1159 0 
L 581 0 
L 581 3500 
L 1159 3500 
L 1159 2956 
Q 1366 3272 1645 3428 
Q 1925 3584 2291 3584 
Q 2894 3584 3203 3211 
Q 3513 2838 3513 2113 
z
" transform="scale(0.015625)"/>
       <path id="DejaVuSans-ed" d="M 1325 5119 
L 1947 5119 
L 928 3944 
L 450 3944 
L 1325 5119 
z
M 603 3500 
L 1178 3500 
L 1178 0 
L 603 0 
L 603 3500 
z
M 891 3584 
L 891 3584 
z
" transform="scale(0.015625)"/>
       <path id="DejaVuSans-64" d="M 2906 2969 
L 2906 4863 
L 3481 4863 
L 3481 0 
L 2906 0 
L 2906 525 
Q 2725 213 2448 61 
Q 2172 -91 1784 -91 
Q 1150 -91 751 415 
Q 353 922 353 1747 
Q 353 2572 751 3078 
Q 1150 3584 1784 3584 
Q 2172 3584 2448 3432 
Q 2725 3281 2906 2969 
z
M 947 1747 
Q 947 1113 1208 752 
Q 1469 391 1925 391 
Q 2381 391 2643 752 
Q 2906 1113 2906 1747 
Q 2906 2381 2643 2742 
Q 2381 3103 1925 3103 
Q 1469 3103 1208 2742 
Q 947 2381 947 1747 
z
" transform="scale(0.015625)"/>
       <path id="DejaVuSans-6c" d="M 603 4863 
L 1178 4863 
L 1178 0 
L 603 0 
L 603 4863 
z
" transform="scale(0.015625)"/>
       <path id="DejaVuSans-161" d="M 2834 3397 
L 2834 2853 
Q 2591 2978 2328 3040 
Q 2066 3103 1784 3103 
Q 1356 3103 1142 2972 
Q 928 2841 928 2578 
Q 928 2378 1081 2264 
Q 1234 2150 1697 2047 
L 1894 2003 
Q 2506 1872 2764 1633 
Q 3022 1394 3022 966 
Q 3022 478 2636 193 
Q 2250 -91 1575 -91 
Q 1294 -91 989 -36 
Q 684 19 347 128 
L 347 722 
Q 666 556 975 473 
Q 1284 391 1588 391 
Q 1994 391 2212 530 
Q 2431 669 2431 922 
Q 2431 1156 2273 1281 
Q 2116 1406 1581 1522 
L 1381 1569 
Q 847 1681 609 1914 
Q 372 2147 372 2553 
Q 372 3047 722 3315 
Q 1072 3584 1716 3584 
Q 2034 3584 2315 3537 
Q 2597 3491 2834 3397 
z
M 1503 3944 
L 738 5119 
L 1172 5119 
L 1734 4353 
L 2297 5119 
L 2731 5119 
L 1966 3944 
L 1503 3944 
z
M 1722 3584 
L 1722 3584 
z
" transform="scale(0.015625)"/>
       <path id="DejaVuSans-63" d="M 3122 3366 
L 3122 2828 
Q 2878 2963 2633 3030 
Q 2388 3097 2138 3097 
Q 1578 3097 1268 2742 
Q 959 2388 959 1747 
Q 959 1106 1268 751 
Q 1578 397 2138 397 
Q 2388 397 2633 464 
Q 2878 531 3122 666 
L 3122 134 
Q 2881 22 2623 -34 
Q 2366 -91 2075 -91 
Q 1284 -91 818 406 
Q 353 903 353 1747 
Q 353 2603 823 3093 
Q 1294 3584 2113 3584 
Q 2378 3584 2631 3529 
Q 2884 3475 3122 3366 
z
" transform="scale(0.015625)"/>
       <path id="DejaVuSans-68" d="M 3513 2113 
L 3513 0 
L 2938 0 
L 2938 2094 
Q 2938 2591 2744 2837 
Q 2550 3084 2163 3084 
Q 1697 3084 1428 2787 
Q 1159 2491 1159 1978 
L 1159 0 
L 581 0 
L 581 4863 
L 1159 4863 
L 1159 2956 
Q 1366 3272 1645 3428 
Q 1925 3584 2291 3584 
Q 2894 3584 3203 3211 
Q 3513 2838 3513 2113 
z
" transform="scale(0.015625)"/>
       <path id="DejaVuSans-6a" d="M 603 3500 
L 1178 3500 
L 1178 -63 
Q 1178 -731 923 -1031 
Q 669 -1331 103 -1331 
L -116 -1331 
L -116 -844 
L 38 -844 
Q 366 -844 484 -692 
Q 603 -541 603 -63 
L 603 3500 
z
M 603 4863 
L 1178 4863 
L 1178 4134 
L 603 4134 
L 603 4863 
z
" transform="scale(0.015625)"/>
       <path id="DejaVuSans-79" d="M 2059 -325 
Q 1816 -950 1584 -1140 
Q 1353 -1331 966 -1331 
L 506 -1331 
L 506 -850 
L 844 -850 
Q 1081 -850 1212 -737 
Q 1344 -625 1503 -206 
L 1606 56 
L 191 3500 
L 800 3500 
L 1894 763 
L 2988 3500 
L 3597 3500 
L 2059 -325 
z
" transform="scale(0.015625)"/>
       <path id="DejaVuSans-6b" d="M 581 4863 
L 1159 4863 
L 1159 1991 
L 2875 3500 
L 3609 3500 
L 1753 1863 
L 3688 0 
L 2938 0 
L 1159 1709 
L 1159 0 
L 581 0 
L 581 4863 
z
" transform="scale(0.015625)"/>
       <path id="DejaVuSans-16f" d="M 544 1381 
L 544 3500 
L 1119 3500 
L 1119 1403 
Q 1119 906 1312 657 
Q 1506 409 1894 409 
Q 2359 409 2629 706 
Q 2900 1003 2900 1516 
L 2900 3500 
L 3475 3500 
L 3475 0 
L 2900 0 
L 2900 538 
Q 2691 219 2414 64 
Q 2138 -91 1772 -91 
Q 1169 -91 856 284 
Q 544 659 544 1381 
z
M 1991 3584 
L 1991 3584 
z
M 2463 4575 
Q 2463 4771 2325 4908 
Q 2188 5046 1988 5046 
Q 1784 5046 1648 4910 
Q 1513 4775 1513 4575 
Q 1513 4371 1648 4235 
Q 1784 4100 1988 4100 
Q 2188 4100 2325 4237 
Q 2463 4375 2463 4575 
z
M 2844 4575 
Q 2844 4215 2595 3965 
Q 2347 3715 1988 3715 
Q 1628 3715 1379 3965 
Q 1131 4215 1131 4575 
Q 1131 4934 1379 5182 
Q 1628 5431 1988 5431 
Q 2347 5431 2595 5182 
Q 2844 4934 2844 4575 
z
" transform="scale(0.015625)"/>
      </defs>
      <use xlink:href="#DejaVuSans-70"/>
      <use xlink:href="#DejaVuSans-6f" x="63.476562"/>
      <use xlink:href="#DejaVuSans-6d" x="124.658203"/>
      <use xlink:href="#DejaVuSans-11b" x="222.070312"/>
      <use xlink:href="#DejaVuSans-72" x="283.59375"/>
      <use xlink:href="#DejaVuSans-20" x="324.707031"/>
      <use xlink:href="#DejaVuSans-7a" x="356.494141"/>
      <use xlink:href="#DejaVuSans-61" x="408.984375"/>
      <use xlink:href="#DejaVuSans-73" x="470.263672"/>
      <use xlink:href="#DejaVuSans-74" x="522.363281"/>
      <use xlink:href="#DejaVuSans-6f" x="561.572266"/>
      <use xlink:href="#DejaVuSans-75" x="622.753906"/>
      <use xlink:href="#DejaVuSans-70" x="686.132812"/>
      <use xlink:href="#DejaVuSans-65" x="749.609375"/>
      <use xlink:href="#DejaVuSans-6e" x="811.132812"/>
      <use xlink:href="#DejaVuSans-ed" x="874.511719"/>
      <use xlink:href="#DejaVuSans-20" x="902.294922"/>
      <use xlink:href="#DejaVuSans-64" x="934.082031"/>
      <use xlink:href="#DejaVuSans-61" x="997.558594"/>
      <use xlink:href="#DejaVuSans-6c" x="1058.837891"/>
      <use xlink:href="#DejaVuSans-161" x="1086.621094"/>
      <use xlink:href="#DejaVuSans-ed" x="1138.720703"/>
      <use xlink:href="#DejaVuSans-63" x="1166.503906"/>
      <use xlink:href="#DejaVuSans-68" x="1221.484375"/>
      <use xlink:href="#DejaVuSans-20" x="1284.863281"/>
      <use xlink:href="#DejaVuSans-6a" x="1316.650391"/>
      <use xlink:href="#DejaVuSans-61" x="1344.433594"/>
      <use xlink:href="#DejaVuSans-7a" x="1405.712891"/>
      <use xlink:href="#DejaVuSans-79" x="1458.203125"/>
      <use xlink:href="#DejaVuSans-6b" x="1517.382812"/>
      <use xlink:href="#DejaVuSans-16f" x="1572.167969"/>
     </g>
    </g>
    <g id="patch_16">
     <path d="M 342.915 139.2825 
L 360.515 139.2825 
L 360.515 128.0825 
L 342.915 128.0825 
z
" style="fill: #9edae5; stroke: #000000; stroke-linejoin: miter"/>
    </g>
    <g id="text_2">
     <!-- podíl do dalších jazyků -->
     <g transform="translate(370.115 139.2825) scale(0.16 -0.16)">
      <use xlink:href="#DejaVuSans-70"/>
      <use xlink:href="#DejaVuSans-6f" x="63.476562"/>
      <use xlink:href="#DejaVuSans-64" x="124.658203"/>
      <use xlink:href="#DejaVuSans-ed" x="188.134766"/>
      <use xlink:href="#DejaVuSans-6c" x="215.917969"/>
      <use xlink:href="#DejaVuSans-20" x="243.701172"/>
      <use xlink:href="#DejaVuSans-64" x="275.488281"/>
      <use xlink:href="#DejaVuSans-6f" x="338.964844"/>
      <use xlink:href="#DejaVuSans-20" x="400.146484"/>
      <use xlink:href="#DejaVuSans-64" x="431.933594"/>
      <use xlink:href="#DejaVuSans-61" x="495.410156"/>
      <use xlink:href="#DejaVuSans-6c" x="556.689453"/>
      <use xlink:href="#DejaVuSans-161" x="584.472656"/>
      <use xlink:href="#DejaVuSans-ed" x="636.572266"/>
      <use xlink:href="#DejaVuSans-63" x="664.355469"/>
      <use xlink:href="#DejaVuSans-68" x="719.335938"/>
      <use xlink:href="#DejaVuSans-20" x="782.714844"/>
      <use xlink:href="#DejaVuSans-6a" x="814.501953"/>
      <use xlink:href="#DejaVuSans-61" x="842.285156"/>
      <use xlink:href="#DejaVuSans-7a" x="903.564453"/>
      <use xlink:href="#DejaVuSans-79" x="956.054688"/>
      <use xlink:href="#DejaVuSans-6b" x="1015.234375"/>
      <use xlink:href="#DejaVuSans-16f" x="1070.019531"/>
     </g>
    </g>
   </g>
  </g>
 </g>
</svg>
