<?xml version="1.0" encoding="utf-8" standalone="no"?>
<!DOCTYPE svg PUBLIC "-//W3C//DTD SVG 1.1//EN"
  "http://www.w3.org/Graphics/SVG/1.1/DTD/svg11.dtd">
<svg xmlns:xlink="http://www.w3.org/1999/xlink" width="720pt" height="720pt" viewBox="0 0 720 720" xmlns="http://www.w3.org/2000/svg" version="1.1">
 <metadata>
  <rdf:RDF xmlns:dc="http://purl.org/dc/elements/1.1/" xmlns:cc="http://creativecommons.org/ns#" xmlns:rdf="http://www.w3.org/1999/02/22-rdf-syntax-ns#">
   <cc:Work>
    <dc:type rdf:resource="http://purl.org/dc/dcmitype/StillImage"/>
    <dc:date>2024-10-24T16:56:25.433434</dc:date>
    <dc:format>image/svg+xml</dc:format>
    <dc:creator>
     <cc:Agent>
      <dc:title>Matplotlib v3.8.2, https://matplotlib.org/</dc:title>
     </cc:Agent>
    </dc:creator>
   </cc:Work>
  </rdf:RDF>
 </metadata>
 <defs>
  <style type="text/css">*{stroke-linejoin: round; stroke-linecap: butt}</style>
 </defs>
 <g id="figure_1">
  <g id="patch_1">
   <path d="M 0 720 
L 720 720 
L 720 0 
L 0 0 
L 0 720 
z
" style="fill: none"/>
  </g>
  <g id="axes_1">
   <g id="patch_2">
    <path d="M 590.76 363.6 
C 590.76 324.675886 580.511849 286.429268 561.049792 252.719997 
C 541.587734 219.010726 513.589266 191.012259 479.879994 171.550203 
C 446.170722 152.088147 407.924103 141.839998 368.99999 141.84 
C 330.075876 141.840002 291.829258 152.088154 258.119988 171.550213 
C 224.410718 191.012272 196.412252 219.010742 176.950198 252.720015 
C 157.488144 286.429288 147.239996 324.675907 147.24 363.600021 
C 147.240004 402.524134 157.488158 440.770752 176.950219 474.480021 
C 196.412279 508.18929 224.41075 536.187755 258.120024 555.649807 
L 280.296019 517.239846 
C 253.3286 501.670204 230.929823 479.271432 215.360175 452.304017 
C 199.790526 425.336602 191.592003 394.739308 191.592 363.600017 
C 191.591997 332.460726 199.790515 301.86343 215.360158 274.896012 
C 230.929802 247.928594 253.328574 225.529818 280.29599 209.960171 
C 307.263406 194.390524 337.860701 186.192001 368.999992 186.192 
C 400.139283 186.191999 430.736578 194.390518 457.703995 209.960162 
C 484.671413 225.529807 507.070188 247.928581 522.639833 274.895998 
C 538.209479 301.863414 546.408 332.460709 546.408 363.6 
z
" style="opacity: 0.1"/>
   </g>
   <g id="patch_3">
    <path d="M 258.120024 555.649807 
C 291.829298 575.11186 330.075918 585.360005 369.000031 585.36 
C 407.924145 585.359995 446.170762 575.111838 479.88003 555.649776 
C 513.589298 536.187714 541.587762 508.189242 561.049813 474.479967 
C 580.511864 440.770692 590.760007 402.524072 590.76 363.599958 
L 546.408 363.599967 
C 546.408006 394.739258 538.209491 425.336554 522.63985 452.303974 
C 507.070209 479.271393 484.671439 501.670171 457.704024 517.239821 
C 430.736609 532.809471 400.139316 541.007996 369.000025 541.008 
C 337.860734 541.008004 307.263438 532.809488 280.296019 517.239846 
z
"/>
   </g>
   <g id="patch_4">
    <path d="M 546.408 363.6 
C 546.408 340.302995 541.818998 317.232524 532.90362 295.708898 
C 523.988242 274.185271 510.91987 254.62707 494.4464 238.1536 
C 477.97293 221.68013 458.414729 208.611758 436.891102 199.69638 
C 415.367476 190.781002 392.297005 186.192 369 186.192 
C 345.702995 186.192 322.632524 190.781002 301.108898 199.69638 
C 279.585271 208.611758 260.02707 221.68013 243.5536 238.1536 
C 227.08013 254.62707 214.011758 274.185271 205.09638 295.708898 
C 196.181002 317.232524 191.592 340.302995 191.592 363.6 
C 191.592 386.897005 196.181002 409.967476 205.09638 431.491102 
C 214.011758 453.014729 227.08013 472.57293 243.5536 489.0464 
C 260.02707 505.51987 279.585271 518.588242 301.108898 527.50362 
C 322.632524 536.418998 345.702995 541.008 369 541.008 
C 392.297005 541.008 415.367476 536.418998 436.891102 527.50362 
C 458.414729 518.588242 477.97293 505.51987 494.4464 489.0464 
C 510.91987 472.57293 523.988242 453.014729 532.90362 431.491102 
C 541.818998 409.967476 546.408 386.897005 546.408 363.6 
M 369 363.6 
z
" style="fill: #8c564b"/>
   </g>
   <g id="matplotlib.axis_1"/>
   <g id="matplotlib.axis_2"/>
  </g>
 </g>
</svg>
