<?xml version="1.0" encoding="utf-8" standalone="no"?>
<!DOCTYPE svg PUBLIC "-//W3C//DTD SVG 1.1//EN"
  "http://www.w3.org/Graphics/SVG/1.1/DTD/svg11.dtd">
<svg xmlns:xlink="http://www.w3.org/1999/xlink" width="720pt" height="720pt" viewBox="0 0 720 720" xmlns="http://www.w3.org/2000/svg" version="1.1">
 <metadata>
  <rdf:RDF xmlns:dc="http://purl.org/dc/elements/1.1/" xmlns:cc="http://creativecommons.org/ns#" xmlns:rdf="http://www.w3.org/1999/02/22-rdf-syntax-ns#">
   <cc:Work>
    <dc:type rdf:resource="http://purl.org/dc/dcmitype/StillImage"/>
    <dc:date>2024-10-24T16:56:25.448963</dc:date>
    <dc:format>image/svg+xml</dc:format>
    <dc:creator>
     <cc:Agent>
      <dc:title>Matplotlib v3.8.2, https://matplotlib.org/</dc:title>
     </cc:Agent>
    </dc:creator>
   </cc:Work>
  </rdf:RDF>
 </metadata>
 <defs>
  <style type="text/css">*{stroke-linejoin: round; stroke-linecap: butt}</style>
 </defs>
 <g id="figure_1">
  <g id="patch_1">
   <path d="M 0 720 
L 720 720 
L 720 0 
L 0 0 
L 0 720 
z
" style="fill: none"/>
  </g>
  <g id="axes_1">
   <g id="patch_2">
    <path d="M 590.76 363.6 
C 590.76 307.972833 569.829388 254.332272 532.154132 213.406036 
C 494.478876 172.4798 442.74996 147.191075 387.312788 142.597422 
C 331.875616 138.003769 276.689829 154.433292 232.79218 188.600208 
C 188.894531 222.767123 159.420442 272.231033 150.264515 327.099519 
L 194.011612 334.399615 
C 201.336353 290.504826 224.915624 250.933699 260.033744 223.600166 
C 295.151863 196.266634 339.300493 183.123015 383.65023 186.797938 
C 427.999968 190.47286 469.383101 210.70384 499.523305 243.444829 
C 529.66351 276.185818 546.408 319.098266 546.408 363.6 
z
" style="opacity: 0.1"/>
   </g>
   <g id="patch_3">
    <path d="M 150.264515 327.099519 
C 145.217309 357.345779 146.498114 388.312722 154.025802 418.03888 
C 161.55349 447.765037 175.165696 475.609245 194.000214 499.807828 
C 212.834732 524.006412 236.485319 544.037433 263.453928 558.632111 
C 290.422538 573.226789 320.127484 582.07033 350.687233 584.60258 
C 381.246981 587.134829 412.002389 583.301167 441.005384 573.344421 
C 470.00838 563.387676 496.633397 547.522604 519.193987 526.754111 
C 541.754577 505.985618 559.764131 480.76166 572.081908 452.679942 
C 584.399686 424.598225 590.760006 394.264441 590.76 363.599958 
L 546.408 363.599967 
C 546.408005 388.131553 541.319749 412.39858 531.465527 434.863954 
C 521.611304 457.329328 507.203662 477.508494 489.15519 494.123289 
C 471.106718 510.738083 449.806704 523.430141 426.604307 531.395537 
C 403.401911 539.360933 378.797585 542.427863 354.349786 540.402064 
C 329.901987 538.376264 306.13803 531.301431 284.563143 519.625689 
C 262.988255 507.949947 244.067785 491.92513 229.000171 472.566263 
C 213.932557 453.207396 203.042792 430.93203 197.020641 407.151104 
C 190.998491 383.370178 189.973847 358.596623 194.011612 334.399615 
z
"/>
   </g>
   <g id="patch_4">
    <path d="M 546.408 363.6 
C 546.408 330.884966 537.358745 298.798728 520.265187 270.904576 
C 503.171629 243.010424 478.690858 220.380631 449.54155 205.528316 
C 420.392241 190.676001 387.694918 184.172098 355.080734 186.738889 
C 322.466549 189.30568 291.189219 200.844496 264.722199 220.073909 
C 238.25518 239.303323 217.615886 265.48414 205.096383 295.70889 
C 192.57688 325.93364 188.658428 359.040458 193.776185 391.352716 
C 198.893942 423.664974 212.851177 453.940562 234.097891 478.817271 
C 255.344604 503.693979 283.064055 522.215526 314.1779 532.32503 
L 369 363.6 
z
" style="fill: #1f77b4"/>
   </g>
   <g id="patch_5">
    <path d="M 314.1779 532.32503 
C 340.803166 540.976106 369.101916 543.203268 396.752708 538.823816 
C 424.403499 534.444364 450.628981 523.581417 473.277787 507.126101 
C 495.926594 490.670784 514.361995 469.085709 527.071673 444.141572 
C 539.78135 419.197435 546.407995 391.595495 546.408 363.600033 
L 369 363.6 
z
" style="fill: #9edae5"/>
   </g>
   <g id="matplotlib.axis_1"/>
   <g id="matplotlib.axis_2"/>
  </g>
 </g>
</svg>
